<?xml version="1.0" encoding="UTF-8"?>
<svg id="Layer_1" data-name="Layer 1" xmlns="http://www.w3.org/2000/svg" width="1046.57" height="138.93" xmlns:xlink="http://www.w3.org/1999/xlink" viewBox="0 0 1046.57 138.93">
  <defs>
    <style>
      .cls-1 {
        fill: #fff;
      }

      .cls-2 {
        stroke: #fff;
        stroke-linecap: round;
        stroke-linejoin: round;
        stroke-width: 3.61px;
      }

      .cls-2, .cls-3 {
        fill: none;
      }

      .cls-4 {
        opacity: .1;
      }

      .cls-5 {
        clip-path: url(#clippath);
      }
    </style>
    <clipPath id="clippath">
      <rect class="cls-3" x="-398.18" y="539.42" width="1918.37" height="550.14"/>
    </clipPath>
  </defs>
  <g class="cls-5">
    <g class="cls-4">
      <g>
        <g>
          <line class="cls-2" x1="8.62" y1="-53.18" x2="8.62" y2="1876.49"/>
          <line class="cls-2" x1="67.09" y1="-53.18" x2="67.09" y2="1876.49"/>
          <line class="cls-2" x1="125.57" y1="-53.18" x2="125.57" y2="1876.49"/>
          <line class="cls-2" x1="184.05" y1="-53.18" x2="184.05" y2="1876.49"/>
          <line class="cls-2" x1="242.53" y1="-53.18" x2="242.53" y2="1876.49"/>
          <line class="cls-2" x1="301" y1="-53.18" x2="301" y2="1876.49"/>
          <line class="cls-2" x1="359.47" y1="-53.18" x2="359.47" y2="1876.49"/>
          <line class="cls-2" x1="417.95" y1="-53.18" x2="417.95" y2="1876.49"/>
          <line class="cls-2" x1="476.42" y1="-53.18" x2="476.42" y2="1876.49"/>
          <line class="cls-2" x1="534.89" y1="-53.18" x2="534.89" y2="1876.49"/>
          <line class="cls-2" x1="593.37" y1="-53.18" x2="593.37" y2="1876.49"/>
          <line class="cls-2" x1="651.85" y1="-53.18" x2="651.85" y2="1876.49"/>
          <line class="cls-2" x1="710.33" y1="-53.18" x2="710.33" y2="1876.49"/>
          <line class="cls-2" x1="768.8" y1="-53.18" x2="768.8" y2="1876.49"/>
          <line class="cls-2" x1="827.27" y1="-53.18" x2="827.27" y2="1876.49"/>
          <line class="cls-2" x1="885.75" y1="-53.18" x2="885.75" y2="1876.49"/>
          <line class="cls-2" x1="944.22" y1="-53.18" x2="944.22" y2="1876.49"/>
          <line class="cls-2" x1="1002.69" y1="-53.18" x2="1002.69" y2="1876.49"/>
        </g>
        <g>
          <line class="cls-2" x1="1528.97" y1="5.3" x2="-400.7" y2="5.3"/>
          <line class="cls-2" x1="1528.97" y1="63.77" x2="-400.7" y2="63.77"/>
          <line class="cls-2" x1="1528.97" y1="122.24" x2="-400.7" y2="122.24"/>
        </g>
      </g>
    </g>
  </g>
  <g>
    <path class="cls-1" d="m46.37,36.78h3.3v4.05h-3.8c-1.7,0-3.17-.33-4.4-1-.3,3.3-1.45,5.93-3.45,7.9-1.83,1.8-4.13,2.7-6.9,2.7-2,0-3.95-.5-5.85-1.5v-3.75c1.7.93,3.4,1.4,5.1,1.4,2.13,0,3.8-.72,5-2.15s1.8-3.42,1.8-5.95v-17.05l4.3-2.3v.05l.05-.05v13.65c.3,2.67,1.92,4,4.85,4Z"/>
    <path class="cls-1" d="m64.07,36.78h3.3v4.05h-3.8c-2.77,0-4.95-.88-6.55-2.65-1.6,1.77-3.78,2.65-6.55,2.65h-3.8v-4.05h3.3c3.27,0,4.9-1.67,4.9-5v-10.35l4.3-2.3v12.65c0,3.33,1.63,5,4.9,5Zm-11.95,9.05c1.6,0,2.4.83,2.4,2.5s-.8,2.45-2.4,2.45-2.45-.82-2.45-2.45.82-2.5,2.45-2.5Zm6.35,0c1.6,0,2.4.83,2.4,2.5s-.8,2.45-2.4,2.45-2.45-.82-2.45-2.45.82-2.5,2.45-2.5Z"/>
    <path class="cls-1" d="m81.77,36.78h3.3v4.05h-3.8c-2.77,0-4.95-.88-6.55-2.65-1.6,1.77-3.78,2.65-6.55,2.65h-3.8v-4.05h3.3c3.27,0,4.9-1.67,4.9-5v-10.35l4.3-2.3v12.65c0,3.33,1.63,5,4.9,5Zm-7.35,9.05c1.6,0,2.4.82,2.4,2.45s-.8,2.5-2.4,2.5-2.45-.83-2.45-2.5.82-2.45,2.45-2.45Z"/>
    <path class="cls-1" d="m109.42,36.78h2.85v4.05h-3.3c-2.8,0-4.98-.87-6.55-2.6-1.57,1.73-3.75,2.6-6.55,2.6h-13.8v-4.05h13.4c3.2,0,4.8-1.68,4.8-5.05v-.45c0-2.5-.97-4.4-2.9-5.7-1.53-1.07-3.42-1.6-5.65-1.6-1.77,0-3.53.33-5.3,1v-4.25l10.95-12.15h4.4l-9.85,11.1h.3c3.8,0,6.87,1.15,9.2,3.45,2.1,2.13,3.15,4.83,3.15,8.1v.55c0,3.33,1.62,5,4.85,5Z"/>
    <path class="cls-1" d="m109.27,40.83v-4.05h3.3c3.27,0,4.9-1.67,4.9-5v-10.35l4.3-2.3v12.8c0,2.83-.85,5.07-2.55,6.7-1.57,1.47-3.62,2.2-6.15,2.2h-3.8Zm3.85-27.75c-1.63,0-2.45-.83-2.45-2.5s.82-2.45,2.45-2.45,2.4.82,2.4,2.45-.8,2.5-2.4,2.5Zm6.35,0c-1.63,0-2.45-.83-2.45-2.5s.82-2.45,2.45-2.45,2.4.82,2.4,2.45-.8,2.5-2.4,2.5Z"/>
    <path class="cls-1" d="m154.67,36.78h3.3v4.05h-3.8c-1.7,0-3.17-.33-4.4-1-.3,3.3-1.45,5.93-3.45,7.9-1.83,1.8-4.13,2.7-6.9,2.7-2,0-3.95-.5-5.85-1.5v-3.75c1.7.93,3.4,1.4,5.1,1.4,2.13,0,3.8-.72,5-2.15s1.8-3.42,1.8-5.95v-17.05l4.3-2.3v.05l.05-.05v13.65c.3,2.67,1.92,4,4.85,4Z"/>
    <path class="cls-1" d="m172.37,36.78h3.3v4.05h-3.8c-2.77,0-4.95-.88-6.55-2.65-1.6,1.77-3.78,2.65-6.55,2.65h-3.8v-4.05h3.3c3.27,0,4.9-1.67,4.9-5v-10.35l4.3-2.3v12.65c0,3.33,1.63,5,4.9,5Zm-11.95,9.05c1.6,0,2.4.83,2.4,2.5s-.8,2.45-2.4,2.45-2.45-.82-2.45-2.45.82-2.5,2.45-2.5Zm6.35,0c1.6,0,2.4.83,2.4,2.5s-.8,2.45-2.4,2.45-2.45-.82-2.45-2.45.82-2.5,2.45-2.5Z"/>
    <path class="cls-1" d="m172.67,40.83v-4.05h3.3c3.27,0,4.9-1.67,4.9-5v-10.35l4.3-2.3v12.8c0,2.83-.85,5.07-2.55,6.7-1.57,1.47-3.62,2.2-6.15,2.2h-3.8Zm3.85-27.75c-1.63,0-2.45-.83-2.45-2.5s.82-2.45,2.45-2.45,2.4.82,2.4,2.45-.8,2.5-2.4,2.5Zm3.15-5.95c-1.47,0-2.2-.75-2.2-2.25s.73-2.2,2.2-2.2,2.2.73,2.2,2.2-.73,2.25-2.2,2.25Zm3.2,5.95c-1.63,0-2.45-.83-2.45-2.5s.82-2.45,2.45-2.45,2.4.82,2.4,2.45-.8,2.5-2.4,2.5Z"/>
    <path class="cls-1" d="m191.52,7.88l1.15-2.15h1.35c-.33-.6-.5-1.23-.5-1.9,0-.97.37-1.81,1.1-2.53.73-.72,1.58-1.07,2.55-1.07.83,0,1.63.27,2.4.8v2.2c-.7-.57-1.4-.85-2.1-.85-1.23,0-1.85.57-1.85,1.7,0,.53.25,1.08.75,1.65h4.55l-1.15,2.15h-8.25Zm11.35,32.95c-2.9,0-5.13-.93-6.7-2.8-1.33-1.6-2-3.63-2-6.1V12.88l4.3-2.3v21.2c0,3.33,1.63,5,4.9,5h3.3v4.05h-3.8Z"/>
    <path class="cls-1" d="m203.67,40.83v-4.05h3.3c3.27,0,4.9-1.67,4.9-5v-10.35l4.3-2.3v12.8c0,2.83-.85,5.07-2.55,6.7-1.57,1.47-3.62,2.2-6.15,2.2h-3.8Zm3.85-27.75c-1.63,0-2.45-.83-2.45-2.5s.82-2.45,2.45-2.45,2.4.82,2.4,2.45-.8,2.5-2.4,2.5Zm6.35,0c-1.63,0-2.45-.83-2.45-2.5s.82-2.45,2.45-2.45,2.4.82,2.4,2.45-.8,2.5-2.4,2.5Z"/>
    <path class="cls-1" d="m276.62,36.78h2.3v4.05h-2.8c-2.8,0-4.98-.87-6.55-2.6-1.57,1.73-3.75,2.6-6.55,2.6h-17.85c-2.7,0-4.82-.9-6.35-2.7-1.33-1.57-2-3.62-2-6.15v-6.05l4.3-2.3v7.95c0,3.47,1.62,5.2,4.85,5.2h16.6c3.23,0,4.85-1.73,4.85-5.2v-10.15l4.3-2.3v12.65c0,3.33,1.63,5,4.9,5Zm-26.4-19.2c-1.63,0-2.45-.83-2.45-2.5s.82-2.45,2.45-2.45,2.4.82,2.4,2.45-.8,2.5-2.4,2.5Zm6.35,0c-1.63,0-2.45-.83-2.45-2.5s.82-2.45,2.45-2.45,2.4.82,2.4,2.45-.8,2.5-2.4,2.5Z"/>
    <path class="cls-1" d="m308.52,36.78h3.25v4.05h-3.3c-2.7,0-4.87-.31-6.5-.92-1.63-.62-3.15-1.71-4.55-3.28-4.2,2.8-9.1,4.2-14.7,4.2h-6.8v-4.05h6.85c6.77,0,12.12-2.23,16.05-6.7-2.77-5.1-6.13-7.65-10.1-7.65-2.7,0-5.48,1.43-8.35,4.3v-4c2.8-2.83,5.77-4.25,8.9-4.25,2.57,0,5.05.92,7.45,2.77,2.4,1.85,4.52,4.49,6.35,7.92v2.2c-1.03,1.3-2.02,2.35-2.95,3.15,1.8,1.5,4.6,2.25,8.4,2.25Z"/>
    <path class="cls-1" d="m308.77,40.83v-4.05h3.3c3.27,0,4.9-1.67,4.9-5v-10.35l4.3-2.3v12.8c0,2.83-.85,5.07-2.55,6.7-1.57,1.47-3.62,2.2-6.15,2.2h-3.8Zm3.85-27.75c-1.63,0-2.45-.83-2.45-2.5s.82-2.45,2.45-2.45,2.4.82,2.4,2.45-.8,2.5-2.4,2.5Zm6.35,0c-1.63,0-2.45-.83-2.45-2.5s.82-2.45,2.45-2.45,2.4.82,2.4,2.45-.8,2.5-2.4,2.5Z"/>
    <path class="cls-1" d="m381.67,36.78h3.3v4.05h-3.8c-2.8,0-4.97-.87-6.5-2.6-1.63,1.73-3.82,2.6-6.55,2.6h-17.85c-2.7,0-4.82-.9-6.35-2.7-1.33-1.57-2-3.62-2-6.15v-6.05l4.3-2.3v7.95c0,3.47,1.62,5.2,4.85,5.2h16.6c3.2,0,4.8-1.73,4.8-5.2V10.88l4.35-2.3v23.2c0,3.33,1.62,5,4.85,5Zm-22.05-20.3c2.87.13,4.3,1.55,4.3,4.25,0,1.17-.34,2.1-1.02,2.8-.68.7-1.59,1.05-2.73,1.05h-6.6l1.15-2.15h5.25c1.2,0,1.8-.6,1.8-1.8,0-1.47-.93-2.2-2.8-2.2-.97,0-1.85.23-2.65.7v-2l4.2-4.65h2.65l-3.55,4Z"/>
    <path class="cls-1" d="m390.17,27.28c0-2.9.87-5.15,2.6-6.75,1.53-1.37,3.53-2.05,6-2.05,3.17,0,5.6,1.17,7.3,3.5,1.47,1.97,2.2,4.53,2.2,7.7,0,3.6-.93,6.42-2.8,8.45-1.63,1.8-3.77,2.7-6.4,2.7-3,0-5.28-.83-6.85-2.5-1.6,1.67-3.75,2.5-6.45,2.5h-3.8v-4.05h3.3c3.27,0,4.9-1.67,4.9-5v-4.5Zm4.3,4.85c0,3.1,1.52,4.65,4.55,4.65,1.57,0,2.79-.63,3.68-1.9.88-1.27,1.32-3.03,1.32-5.3s-.47-3.97-1.4-5.22c-.93-1.25-2.22-1.88-3.85-1.88-2.87,0-4.3,1.67-4.3,5v4.65Z"/>
    <path class="cls-1" d="m425.22,40.83c-2.9,0-5.13-.93-6.7-2.8-1.33-1.6-2-3.63-2-6.1V10.88l4.3-2.3v23.2c0,3.33,1.63,5,4.9,5h3.3v4.05h-3.8Z"/>
    <path class="cls-1" d="m434.22,27.28c0-2.9.87-5.15,2.6-6.75,1.53-1.37,3.53-2.05,6-2.05,3.17,0,5.6,1.17,7.3,3.5,1.47,1.97,2.2,4.53,2.2,7.7,0,3.6-.93,6.42-2.8,8.45-1.63,1.8-3.77,2.7-6.4,2.7-3,0-5.28-.83-6.85-2.5-1.6,1.67-3.75,2.5-6.45,2.5h-3.8v-4.05h3.3c3.27,0,4.9-1.67,4.9-5v-4.5Zm4.3,4.85c0,3.1,1.52,4.65,4.55,4.65,1.57,0,2.79-.63,3.68-1.9.88-1.27,1.32-3.03,1.32-5.3s-.47-3.97-1.4-5.22c-.93-1.25-2.22-1.88-3.85-1.88-2.87,0-4.3,1.67-4.3,5v4.65Z"/>
    <path class="cls-1" d="m457.92,7.88l1.15-2.15h1.35c-.33-.6-.5-1.22-.5-1.85,0-1,.37-1.86,1.1-2.58.73-.72,1.6-1.07,2.6-1.07.83,0,1.63.27,2.4.8v2.2c-.73-.57-1.43-.85-2.1-.85-1.23,0-1.85.55-1.85,1.65,0,.57.23,1.13.7,1.7h4.55l-1.15,2.15h-8.25Zm2.65,32.95V12.88l4.3-2.3v30.25h-4.3Z"/>
    <path class="cls-1" d="m497.77,36.78h3.3v4.05h-3.8c-1.7,0-3.17-.33-4.4-1-.3,3.3-1.45,5.93-3.45,7.9-1.83,1.8-4.13,2.7-6.9,2.7-2,0-3.95-.5-5.85-1.5v-3.75c1.7.93,3.4,1.4,5.1,1.4,2.13,0,3.8-.72,5-2.15s1.8-3.42,1.8-5.95v-17.05l4.3-2.3v.05l.05-.05v13.65c.3,2.67,1.92,4,4.85,4Z"/>
    <path class="cls-1" d="m504.07,25.98c.83-3.07,2.42-5.42,4.75-7.05,1.9-1.3,4.05-1.95,6.45-1.95,3.53,0,6.45,1.2,8.75,3.6,2.17,2.27,3.25,5.18,3.25,8.75v2.65c0,2.9-.9,5.15-2.7,6.75-1.57,1.4-3.6,2.1-6.1,2.1h-5.4c-1.13,0-2.2-.17-3.2-.5-1.03.33-2.1.5-3.2.5h-8.6v-4.05h6.45c-1.27-1.7-1.9-3.63-1.9-5.8,0-1.97.48-3.63,1.45-5Zm5.8,10.35c2.73-.93,4.1-2.8,4.1-5.6,0-1.4-.38-2.53-1.12-3.38-.75-.85-1.74-1.28-2.98-1.28s-2.22.42-2.97,1.28c-.75.85-1.12,1.97-1.12,3.38,0,2.8,1.37,4.67,4.1,5.6Zm13.05-4.75v-2.25c0-2.77-.88-4.92-2.65-6.45-1.43-1.27-3.15-1.9-5.15-1.9-2.3,0-4.1.75-5.4,2.25h.15c2.2,0,3.96.71,5.28,2.12,1.32,1.42,1.97,3.29,1.97,5.62s-.65,4.17-1.95,5.8h3.15c1.63,0,2.81-.41,3.52-1.23.72-.82,1.08-2.14,1.08-3.97Z"/>
    <path class="cls-1" d="m543.97,40.83c-2.9,0-5.13-.93-6.7-2.8-1.33-1.6-2-3.63-2-6.1V10.88l4.3-2.3v23.2c0,3.33,1.63,5,4.9,5h3.3v4.05h-3.8Z"/>
    <path class="cls-1" d="m589.47,36.78h3.3v4.05h-3.8c-2.67,0-4.75-.78-6.25-2.35-1.37,1.57-3.3,2.35-5.8,2.35h-32.15v-4.05h9.3l.15-.55V10.88l4.3-2.3v18.3c3.8-5.6,8.52-8.4,14.15-8.4,3.77,0,6.78,1.32,9.05,3.95,1.93,2.23,2.9,4.98,2.9,8.25v1.2c0,3.27,1.62,4.9,4.85,4.9Zm-9.2-4.7v-1.4c0-2.6-.8-4.67-2.4-6.2-1.37-1.33-3.08-2-5.15-2-3.43,0-6.53,1.55-9.3,4.65-2.07,2.33-3.7,5.25-4.9,8.75v.9h18.05c1.43,0,2.41-.33,2.93-1,.52-.67.77-1.9.77-3.7Zm-7.9-19c-1.63,0-2.45-.83-2.45-2.5s.82-2.45,2.45-2.45,2.4.82,2.4,2.45-.8,2.5-2.4,2.5Z"/>
    <path class="cls-1" d="m589.77,40.83v-4.05h2.65c3.47,0,5.2-1.82,5.2-5.45V10.88l4.35-2.3v22.8c0,2.97-.88,5.32-2.65,7.05-1.67,1.6-3.85,2.4-6.55,2.4h-3Z"/>
    <path class="cls-1" d="m610.97,40.83V10.88l4.3-2.3v32.25h-4.3Z"/>
    <path class="cls-1" d="m647.12,39.63c-3.17,1.9-5.08,3.2-5.75,3.9-1.33,1.3-2,2.92-2,4.85,0,2.13.73,3.86,2.2,5.17,1.47,1.32,3.37,1.98,5.7,1.98,3.67-.03,6.73-.92,9.2-2.65v4.05c-2.87,1.77-6,2.65-9.4,2.65-3.7,0-6.67-1.22-8.9-3.65-1.93-2.07-2.9-4.62-2.9-7.65,0-2.27.6-4.19,1.8-5.78,1.2-1.58,3.32-3.24,6.35-4.97-2.73-2-5.53-5.13-8.4-9.4v-2.2c1.63-2.33,3.55-4.16,5.75-5.47,2.2-1.32,4.43-1.97,6.7-1.97s4.47.67,6.7,2.02c2.23,1.35,4.15,3.19,5.75,5.53v2.1c-1.7,2.57-4.52,5.42-8.45,8.55.73.07,1.32.1,1.75.1h13.2l.05,4.05h-13.6c-1.97,0-3.88-.4-5.75-1.2Zm-8.1-12.55c3,4.1,5.73,6.82,8.2,8.15,3.23-2.2,6.13-4.95,8.7-8.25-2.47-3-5.28-4.52-8.45-4.55-3.2,0-6.02,1.55-8.45,4.65Z"/>
    <path class="cls-1" d="m680.52,36.78h3.3v4.05h-3.8c-2.87,0-5.08-.92-6.65-2.75-1.67,1.83-3.97,2.75-6.9,2.75h-3v-4.05h2.65c3.47,0,5.2-1.82,5.2-5.45V10.88l4.35-2.3v22.8c0,1.93.38,3.32,1.12,4.15s1.99,1.25,3.72,1.25Z"/>
    <path class="cls-1" d="m732.02,36.78h3.3v4.05h-3.8c-2.8,0-4.98-.87-6.55-2.6-1.57,1.73-3.75,2.6-6.55,2.6h-20.7c-2.77,0-4.95-.88-6.55-2.65-1.6,1.77-3.78,2.65-6.55,2.65h-3.8v-4.05h3.3c3.27,0,4.9-1.67,4.9-5v-7l4.3-2.3v9.3c0,2.8,1.08,4.42,3.25,4.85,1.33-5.03,3.53-9.23,6.6-12.6,3.43-3.7,7.43-5.55,12-5.55,3.8,0,6.83,1.32,9.1,3.95,1.9,2.23,2.85,4.98,2.85,8.25v1.2c0,3.27,1.63,4.9,4.9,4.9Zm-13.85,0c3.1,0,4.65-1.73,4.65-5.2v-.9c0-2.6-.8-4.67-2.4-6.2-1.4-1.33-3.13-2-5.2-2-3.53,0-6.72,1.63-9.55,4.9-2.17,2.5-3.83,5.63-5,9.4h17.5Zm-2.15-23.7c-1.63,0-2.45-.83-2.45-2.5s.82-2.45,2.45-2.45,2.4.82,2.4,2.45-.8,2.5-2.4,2.5Z"/>
    <path class="cls-1" d="m764.52,36.78h3.35v4.05h-3.8c-2.77,0-4.95-.88-6.55-2.65-1.7,2.43-4.18,3.65-7.45,3.65s-5.73-1.2-7.4-3.6c-1.57,1.73-3.75,2.6-6.55,2.6h-3.8v-4.05h3.3c3.27,0,4.9-1.67,4.9-5v-1.65c0-3.87.95-6.83,2.85-8.9,1.67-1.83,3.9-2.75,6.7-2.75,3.2,0,5.67,1.18,7.4,3.55,1.47,2.03,2.2,4.73,2.2,8.1v1.65c0,3.33,1.62,5,4.85,5Zm-14.45,1c1.63,0,2.92-.68,3.88-2.05s1.42-3.25,1.42-5.65c0-5.07-1.77-7.6-5.3-7.6s-5.25,2.53-5.25,7.6,1.75,7.7,5.25,7.7Z"/>
    <path class="cls-1" d="m764.87,40.83v-4.05h2.65c3.47,0,5.2-1.82,5.2-5.45V10.88l4.35-2.3v22.8c0,2.97-.88,5.32-2.65,7.05-1.67,1.6-3.85,2.4-6.55,2.4h-3Z"/>
    <path class="cls-1" d="m786.07,40.83V10.88l4.3-2.3v32.25h-4.3Z"/>
    <path class="cls-1" d="m819.47,40.83c-3.03,0-5.4-1.02-7.1-3.05-1.47-1.77-2.2-4.02-2.2-6.75,0-2.97.83-5.54,2.48-7.73,1.65-2.18,4.01-3.79,7.08-4.82,3.23,1.1,5.67,2.83,7.3,5.2,1.47,2.1,2.2,4.55,2.2,7.35,0,3.17-.93,5.65-2.8,7.45-1.67,1.57-3.82,2.35-6.45,2.35h-.5Zm-3.25-28.25c-1.63,0-2.45-.83-2.45-2.5s.82-2.45,2.45-2.45,2.4.82,2.4,2.45-.8,2.5-2.4,2.5Zm3.1,24.2h.75c1.5,0,2.69-.52,3.58-1.55.88-1.03,1.33-2.42,1.33-4.15,0-4-1.75-6.87-5.25-8.6-3.5,1.73-5.25,4.58-5.25,8.55,0,1.77.43,3.17,1.3,4.2.87,1.03,2.05,1.55,3.55,1.55Zm3.3-24.2c-1.63,0-2.45-.83-2.45-2.5s.82-2.45,2.45-2.45,2.4.82,2.4,2.45-.8,2.5-2.4,2.5Z"/>
    <path class="cls-1" d="m844.47,38.17c0,3.73-.98,6.73-2.95,9-1.87,2.17-4.35,3.25-7.45,3.25-2,0-3.95-.5-5.85-1.5v-3.75c1.7.93,3.4,1.4,5.1,1.4,2.13,0,3.8-.72,5-2.15s1.8-3.42,1.8-5.95v-17.05l4.35-2.3v19.05Z"/>
    <path class="cls-1" d="m876.82,36.78v4.05h-6.2c-.13,2.87-1.37,5.23-3.7,7.1-1.97,1.53-4.2,2.3-6.7,2.3-2.07,0-4.02-.48-5.85-1.45v-3.8c1.77.93,3.52,1.4,5.25,1.4s3.31-.55,4.62-1.65c1.32-1.1,1.99-2.42,2.02-3.95-1.73-.07-3.02-.13-3.85-.2-3.6-.2-6.32-1.42-8.15-3.65-1.53-1.87-2.3-4.28-2.3-7.25,0-3.63.97-6.47,2.9-8.5,1.73-1.8,4.02-2.7,6.85-2.7s5.25.88,6.85,2.65c1.37,1.57,2.05,3.62,2.05,6.15v9.5h6.2Zm-10.55-9.2c0-3.4-1.52-5.1-4.55-5.1-1.73,0-3.08.62-4.05,1.88-.97,1.25-1.45,2.99-1.45,5.22,0,4.37,2.13,6.68,6.4,6.95.8.1,2.02.18,3.65.25v-9.2Z"/>
    <path class="cls-1" d="m889.57,36.63c1.33-5.03,3.53-9.23,6.6-12.6,3.43-3.7,7.43-5.55,12-5.55,3.8,0,6.83,1.32,9.1,3.95,1.9,2.23,2.85,4.98,2.85,8.25v1.3c0,2.9-.88,5.15-2.65,6.75-1.53,1.4-3.55,2.1-6.05,2.1h-20.7c-2.77,0-4.95-.88-6.55-2.65-1.6,1.77-3.78,2.65-6.55,2.65h-3.8v-4.05h3.3c3.27,0,4.9-1.67,4.9-5v-7l4.3-2.3v9.3c0,2.8,1.08,4.42,3.25,4.85Zm26.25-5.05v-.9c0-2.6-.8-4.67-2.4-6.2-1.4-1.33-3.13-2-5.2-2-3.53,0-6.72,1.63-9.55,4.9-2.17,2.5-3.83,5.63-5,9.4h17.5c3.1,0,4.65-1.73,4.65-5.2Z"/>
    <path class="cls-1" d="m965.57,36.78h3.35v4.05h-3.8c-2.7,0-4.85-.83-6.45-2.5-1.57,1.6-3.78,2.43-6.65,2.5h-6.55c-3.27,0-4.9,1.67-4.9,5v8.45l-4.3,2.3v-10.9c0-2.77.8-4.95,2.4-6.55,1.43-1.47,3.33-2.25,5.7-2.35-1.2-1.93-1.8-4.3-1.8-7.1,0-3.63.95-6.47,2.85-8.5,1.7-1.8,3.93-2.7,6.7-2.7s5.02.88,6.55,2.65c1.37,1.57,2.05,3.62,2.05,6.15v4.5c0,3.33,1.62,5,4.85,5Zm-9.15-4.65v-4.65c0-3.33-1.43-5-4.3-5-1.67,0-2.96.62-3.88,1.88-.92,1.25-1.38,2.99-1.38,5.22s.43,4.03,1.3,5.3c.87,1.27,2.08,1.9,3.65,1.9,3.07,0,4.6-1.55,4.6-4.65Z"/>
    <path class="cls-1" d="m965.92,40.83v-4.05h4.5c3.23,0,4.85-1.67,4.85-5v-7l4.3-2.3v9.3c0,3.33,1.63,5,4.9,5h2.3c3.27,0,4.9-1.67,4.9-5v-8.7l4.3-2.25v10.95c0,3.33,1.62,5,4.85,5h2.35c3.27,0,4.9-1.67,4.9-5v-10.35l4.3-2.3v12.8c0,2.83-.85,5.05-2.55,6.65-1.5,1.47-3.5,2.22-6,2.25h-3.45c-2.93,0-5.12-.98-6.55-2.95-1.43,1.93-3.57,2.92-6.4,2.95h-3.45c-2.87,0-5.05-.98-6.55-2.95-1.43,1.97-3.62,2.95-6.55,2.95h-4.95Z"/>
    <path class="cls-1" d="m1028.77,38.17c0,3.73-.98,6.73-2.95,9-1.87,2.17-4.35,3.25-7.45,3.25-2,0-3.95-.5-5.85-1.5v-3.75c1.7.93,3.4,1.4,5.1,1.4,2.13,0,3.8-.72,5-2.15s1.8-3.42,1.8-5.95v-17.05l4.35-2.3v19.05Z"/>
    <path class="cls-1" d="m1035.12,7.88l1.15-2.15h1.35c-.33-.6-.5-1.22-.5-1.85,0-1,.37-1.86,1.1-2.58.73-.72,1.6-1.07,2.6-1.07.83,0,1.63.27,2.4.8v2.2c-.73-.57-1.43-.85-2.1-.85-1.23,0-1.85.55-1.85,1.65,0,.57.23,1.13.7,1.7h4.55l-1.15,2.15h-8.25Zm2.65,32.95V12.88l4.3-2.3v30.25h-4.3Z"/>
    <path class="cls-1" d="m367.27,115.42v-.1c.07-1.67.95-2.5,2.65-2.5s2.65.87,2.65,2.6-.88,2.65-2.65,2.65-2.65-.88-2.65-2.65Z"/>
    <path class="cls-1" d="m387.77,102.92h-4.5v-3.85h4.5c3.57,0,5.35-1.62,5.35-4.85,0-1.5-.46-2.67-1.38-3.5-.92-.83-2.18-1.25-3.77-1.25-2,0-4.12.8-6.35,2.4l-1.8-2.85c2.47-2.3,5.4-3.45,8.8-3.45,2.77,0,5.05.8,6.85,2.4,1.7,1.53,2.55,3.5,2.55,5.9,0,1.67-.44,3.1-1.33,4.3-.88,1.2-2.09,2.02-3.62,2.45,4.13,1.13,6.2,3.78,6.2,7.95,0,3.47-1.28,6.08-3.85,7.85-1.9,1.3-4.15,1.95-6.75,1.95-3.33,0-6.43-1.2-9.3-3.6l1.95-2.75c2,1.53,4.3,2.3,6.9,2.3,1.87,0,3.36-.53,4.47-1.6,1.12-1.07,1.68-2.47,1.68-4.2,0-3.73-2.2-5.6-6.6-5.6Z"/>
    <path class="cls-1" d="m426.27,117.83c-3.03,0-5.4-1.02-7.1-3.05-1.47-1.77-2.2-4.02-2.2-6.75,0-2.97.83-5.54,2.48-7.73,1.65-2.18,4.01-3.79,7.07-4.82,3.23,1.1,5.67,2.83,7.3,5.2,1.47,2.1,2.2,4.55,2.2,7.35,0,3.17-.93,5.65-2.8,7.45-1.67,1.57-3.82,2.35-6.45,2.35h-.5Zm-.15-4.05h.75c1.5,0,2.69-.52,3.58-1.55.88-1.03,1.32-2.42,1.32-4.15,0-4-1.75-6.87-5.25-8.6-3.5,1.73-5.25,4.58-5.25,8.55,0,1.77.43,3.17,1.3,4.2.87,1.03,2.05,1.55,3.55,1.55Z"/>
    <path class="cls-1" d="m456.27,113.78h3.3v4.05h-3.8c-1.7,0-3.17-.33-4.4-1-.3,3.3-1.45,5.93-3.45,7.9-1.83,1.8-4.13,2.7-6.9,2.7-2,0-3.95-.5-5.85-1.5v-3.75c1.7.93,3.4,1.4,5.1,1.4,2.13,0,3.8-.72,5-2.15s1.8-3.42,1.8-5.95v-17.05l4.3-2.3v.05l.05-.05v13.65c.3,2.67,1.92,4,4.85,4Z"/>
    <path class="cls-1" d="m473.97,113.78h3.3v4.05h-3.8c-2.77,0-4.95-.88-6.55-2.65-1.6,1.77-3.78,2.65-6.55,2.65h-3.8v-4.05h3.3c3.27,0,4.9-1.67,4.9-5v-10.35l4.3-2.3v12.65c0,3.33,1.63,5,4.9,5Zm-11.95,9.05c1.6,0,2.4.83,2.4,2.5s-.8,2.45-2.4,2.45-2.45-.82-2.45-2.45.82-2.5,2.45-2.5Zm6.35,0c1.6,0,2.4.83,2.4,2.5s-.8,2.45-2.4,2.45-2.45-.82-2.45-2.45.82-2.5,2.45-2.5Z"/>
    <path class="cls-1" d="m491.67,113.78h3.3v4.05h-3.8c-2.77,0-4.95-.88-6.55-2.65-1.6,1.77-3.78,2.65-6.55,2.65h-3.8v-4.05h3.3c3.27,0,4.9-1.67,4.9-5v-10.35l4.3-2.3v12.65c0,3.33,1.63,5,4.9,5Zm-7.35,9.05c1.6,0,2.4.82,2.4,2.45s-.8,2.5-2.4,2.5-2.45-.83-2.45-2.5.82-2.45,2.45-2.45Z"/>
    <path class="cls-1" d="m519.32,113.78h2.85v4.05h-3.3c-2.8,0-4.98-.87-6.55-2.6-1.57,1.73-3.75,2.6-6.55,2.6h-13.8v-4.05h13.4c3.2,0,4.8-1.68,4.8-5.05v-.45c0-2.5-.97-4.4-2.9-5.7-1.53-1.07-3.42-1.6-5.65-1.6-1.77,0-3.53.33-5.3,1v-4.25l10.95-12.15h4.4l-9.85,11.1h.3c3.8,0,6.87,1.15,9.2,3.45,2.1,2.13,3.15,4.83,3.15,8.1v.55c0,3.33,1.62,5,4.85,5Z"/>
    <path class="cls-1" d="m519.17,117.83v-4.05h3.3c3.27,0,4.9-1.67,4.9-5v-10.35l4.3-2.3v12.8c0,2.83-.85,5.07-2.55,6.7-1.57,1.47-3.62,2.2-6.15,2.2h-3.8Zm3.85-27.75c-1.63,0-2.45-.83-2.45-2.5s.82-2.45,2.45-2.45,2.4.82,2.4,2.45-.8,2.5-2.4,2.5Zm6.35,0c-1.63,0-2.45-.83-2.45-2.5s.82-2.45,2.45-2.45,2.4.82,2.4,2.45-.8,2.5-2.4,2.5Z"/>
    <path class="cls-1" d="m583.12,113.78h3.3v4.05h-3.8c-1.8,0-3.42-.4-4.85-1.2-.47,3.43-2.02,6.13-4.65,8.1-2.33,1.73-5.22,2.6-8.65,2.6-4.47,0-7.92-1.5-10.35-4.5-1.87-2.33-2.8-5.12-2.8-8.35,0-2.83.68-5.25,2.05-7.25l4.3-.95c-1.53,2.37-2.3,4.95-2.3,7.75s.88,5.03,2.65,6.8c1.63,1.63,3.78,2.45,6.45,2.45,3.03,0,5.37-.9,7-2.7,1.4-1.53,2.1-3.5,2.1-5.9v-26.8l4.35-2.3v23.2c0,3.33,1.73,5,5.2,5Z"/>
    <path class="cls-1" d="m591.62,104.28c0-2.9.87-5.15,2.6-6.75,1.53-1.37,3.53-2.05,6-2.05,3.17,0,5.6,1.17,7.3,3.5,1.47,1.97,2.2,4.53,2.2,7.7,0,3.6-.93,6.42-2.8,8.45-1.63,1.8-3.77,2.7-6.4,2.7-3,0-5.28-.83-6.85-2.5-1.6,1.67-3.75,2.5-6.45,2.5h-3.8v-4.05h3.3c3.27,0,4.9-1.67,4.9-5v-4.5Zm4.3,4.85c0,3.1,1.52,4.65,4.55,4.65,1.57,0,2.79-.63,3.68-1.9.88-1.27,1.32-3.03,1.32-5.3s-.47-3.97-1.4-5.22c-.93-1.25-2.22-1.88-3.85-1.88-2.87,0-4.3,1.67-4.3,5v4.65Z"/>
    <path class="cls-1" d="m626.67,117.83c-2.9,0-5.13-.93-6.7-2.8-1.33-1.6-2-3.63-2-6.1v-21.05l4.3-2.3v23.2c0,3.33,1.63,5,4.9,5h3.3v4.05h-3.8Z"/>
    <path class="cls-1" d="m652.17,113.78h13.2v4.05h-13.6c-1.8,0-3.58-.35-5.35-1.05-1.77.7-3.57,1.05-5.4,1.05h-13.55v-4.05h13.9c-2.4-1.97-4.87-4.85-7.4-8.65v-2.2c1.6-2.3,3.51-4.12,5.73-5.45,2.22-1.33,4.44-2,6.67-2s4.47.67,6.7,2.02c2.23,1.35,4.17,3.19,5.8,5.53v2.1c-2.53,3.8-5.02,6.68-7.45,8.65h.75Zm-14.2-9.7c3.07,4.2,5.88,6.97,8.45,8.3,2.57-1.37,5.38-4.15,8.45-8.35-2.5-3.03-5.33-4.57-8.5-4.6-3.17,0-5.97,1.55-8.4,4.65Z"/>
    <path class="cls-1" d="m670.57,104.28c0-2.9.87-5.15,2.6-6.75,1.53-1.37,3.53-2.05,6-2.05,3.17,0,5.6,1.17,7.3,3.5,1.47,1.97,2.2,4.53,2.2,7.7,0,3.6-.93,6.42-2.8,8.45-1.63,1.8-3.77,2.7-6.4,2.7-3,0-5.28-.83-6.85-2.5-1.6,1.67-3.75,2.5-6.45,2.5h-3.8v-4.05h3.3c3.27,0,4.9-1.67,4.9-5v-4.5Zm4.3,4.85c0,3.1,1.52,4.65,4.55,4.65,1.57,0,2.79-.63,3.68-1.9.88-1.27,1.32-3.03,1.32-5.3s-.47-3.97-1.4-5.22c-.93-1.25-2.22-1.88-3.85-1.88-2.87,0-4.3,1.67-4.3,5v4.65Z"/>
    <path class="cls-1" d="m709.22,116.23c-1.27.5-2.82.75-4.65.75-2.97,0-5.3-1.12-7-3.35-1.43-1.9-2.15-4.28-2.15-7.15,0-3.53.95-6.3,2.85-8.3,1.7-1.8,3.93-2.7,6.7-2.7s5.02.88,6.55,2.65c1.37,1.57,2.05,3.62,2.05,6.15v10.9c0,3.77-.98,6.75-2.95,8.95-1.87,2.07-4.35,3.1-7.45,3.1-2.07,0-4.02-.48-5.85-1.45v-3.8c1.77.93,3.52,1.4,5.25,1.4,1.97,0,3.53-.62,4.7-1.88,1.17-1.25,1.82-3.01,1.95-5.27Zm0-11.75c0-3.33-1.42-5-4.25-5-1.67,0-2.97.62-3.92,1.85-.95,1.23-1.42,2.92-1.42,5.05s.46,3.78,1.38,5.03c.92,1.25,2.16,1.88,3.72,1.88,2.2,0,3.7-.62,4.5-1.85v-6.95Z"/>
    <path class="cls-1" d="m745.57,118.42c-4.7,0-8.32-1.85-10.85-5.55-2-2.93-3-6.5-3-10.7,0-4.93,1.32-8.97,3.95-12.1,2.5-3,5.8-4.5,9.9-4.5,4.67,0,8.28,1.92,10.85,5.75,2,3,3,6.62,3,10.85,0,4.9-1.32,8.87-3.95,11.9-2.5,2.9-5.8,4.35-9.9,4.35Zm0-4c3.1,0,5.43-1.28,7-3.85,1.3-2.13,1.95-4.93,1.95-8.4,0-4.03-.85-7.18-2.55-9.45-1.57-2.1-3.7-3.15-6.4-3.15-3.07,0-5.4,1.35-7,4.05-1.3,2.2-1.95,5.05-1.95,8.55,0,4,.85,7.08,2.55,9.25,1.57,2,3.7,3,6.4,3Z"/>
    <path class="cls-1" d="m798.07,113.78h3.3v4.05h-3.8c-3.43,0-5.9-1.27-7.4-3.8-1.6,1.53-3.58,2.3-5.95,2.3-2.93,0-5.27-1.1-7-3.3-1.43-1.87-2.15-4.15-2.15-6.85,0-3.23.98-5.83,2.95-7.8,1.67-1.7,3.7-2.55,6.1-2.55,1.83,0,3.42.47,4.75,1.4v-2.15l4.35-2.3v16c0,3.33,1.62,5,4.85,5Zm-9.2-11.9c-1.23-1.37-2.75-2.05-4.55-2.05-1.47,0-2.67.59-3.6,1.78-.93,1.18-1.4,2.72-1.4,4.62s.47,3.48,1.4,4.65c.93,1.17,2.15,1.75,3.65,1.75,1.87,0,3.4-.77,4.6-2.3-.07-.6-.1-1.07-.1-1.4v-7.05Zm-6.45-12.3c-1.63,0-2.45-.83-2.45-2.5s.82-2.45,2.45-2.45,2.4.82,2.4,2.45-.8,2.5-2.4,2.5Zm6.35,0c-1.63,0-2.45-.83-2.45-2.5s.82-2.45,2.45-2.45,2.4.82,2.4,2.45-.8,2.5-2.4,2.5Z"/>
    <path class="cls-1" d="m843.07,113.78h3.3v4.05h-3.8c-2.67,0-4.75-.78-6.25-2.35-1.37,1.57-3.3,2.35-5.8,2.35h-32.15v-4.05h9.3l.15-.55v-25.35l4.3-2.3v18.3c3.8-5.6,8.52-8.4,14.15-8.4,3.77,0,6.78,1.32,9.05,3.95,1.93,2.23,2.9,4.98,2.9,8.25v1.2c0,3.27,1.62,4.9,4.85,4.9Zm-9.2-4.7v-1.4c0-2.6-.8-4.67-2.4-6.2-1.37-1.33-3.08-2-5.15-2-3.43,0-6.53,1.55-9.3,4.65-2.07,2.33-3.7,5.25-4.9,8.75v.9h18.05c1.43,0,2.41-.33,2.93-1,.52-.67.77-1.9.77-3.7Z"/>
    <path class="cls-1" d="m865.22,113.78h9.3v4.05h-12.2c-1.3,0-2.43-.12-3.4-.35-.93.23-2.07.35-3.4.35h-12.15v-4.05h9.3c-2.07-2.37-3.1-4.98-3.1-7.85,0-3.27.92-5.87,2.75-7.8,1.67-1.77,3.87-2.65,6.6-2.65,3.13,0,5.55,1.13,7.25,3.4,1.43,1.87,2.15,4.22,2.15,7.05s-1.03,5.48-3.1,7.85Zm-9.45-23.35c-1.63,0-2.45-.83-2.45-2.5s.82-2.45,2.45-2.45,2.4.82,2.4,2.45-.8,2.5-2.4,2.5Zm3.2,22.9c1.53-.53,2.78-1.51,3.75-2.92.97-1.42,1.45-2.98,1.45-4.67,0-1.93-.47-3.46-1.42-4.58-.95-1.12-2.23-1.67-3.83-1.67s-2.88.57-3.82,1.7c-.95,1.13-1.43,2.65-1.43,4.55,0,1.67.5,3.22,1.5,4.65,1,1.43,2.27,2.42,3.8,2.95Zm3.15-22.9c-1.63,0-2.45-.83-2.45-2.5s.82-2.45,2.45-2.45,2.4.82,2.4,2.45-.8,2.5-2.4,2.5Z"/>
    <path class="cls-1" d="m888.92,113.78h3.3v4.05h-3.8c-2.77,0-4.95-.88-6.55-2.65-1.6,1.77-3.78,2.65-6.55,2.65h-3.8v-4.05h3.3c3.27,0,4.9-1.67,4.9-5v-10.35l4.3-2.3v12.65c0,3.33,1.63,5,4.9,5Zm-7.9-23.7c-1.63,0-2.45-.83-2.45-2.5s.82-2.45,2.45-2.45,2.4.82,2.4,2.45-.8,2.5-2.4,2.5Z"/>
    <path class="cls-1" d="m889.22,117.83v-4.05h2.65c3.47,0,5.2-1.82,5.2-5.45v-20.45l4.35-2.3v22.8c0,2.97-.88,5.32-2.65,7.05-1.67,1.6-3.85,2.4-6.55,2.4h-3Z"/>
    <path class="cls-1" d="m910.42,117.83v-29.95l4.3-2.3v32.25h-4.3Z"/>
    <path class="cls-1" d="m943.67,117.83c-3.03,0-5.4-1.02-7.1-3.05-1.47-1.77-2.2-4.02-2.2-6.75,0-2.97.83-5.54,2.48-7.73,1.65-2.18,4.01-3.79,7.07-4.82,3.23,1.1,5.67,2.83,7.3,5.2,1.47,2.1,2.2,4.55,2.2,7.35,0,3.17-.93,5.65-2.8,7.45-1.67,1.57-3.82,2.35-6.45,2.35h-.5Zm-.15-4.05h.75c1.5,0,2.69-.52,3.58-1.55.88-1.03,1.32-2.42,1.32-4.15,0-4-1.75-6.87-5.25-8.6-3.5,1.73-5.25,4.58-5.25,8.55,0,1.77.43,3.17,1.3,4.2.87,1.03,2.05,1.55,3.55,1.55Z"/>
    <path class="cls-1" d="m973.67,113.78h3.3v4.05h-3.8c-1.7,0-3.17-.33-4.4-1-.3,3.3-1.45,5.93-3.45,7.9-1.83,1.8-4.13,2.7-6.9,2.7-2,0-3.95-.5-5.85-1.5v-3.75c1.7.93,3.4,1.4,5.1,1.4,2.13,0,3.8-.72,5-2.15s1.8-3.42,1.8-5.95v-17.05l4.3-2.3v.05l.05-.05v13.65c.3,2.67,1.92,4,4.85,4Zm-7.75-23.7c-1.63,0-2.45-.83-2.45-2.5s.82-2.45,2.45-2.45,2.4.82,2.4,2.45-.8,2.5-2.4,2.5Z"/>
    <path class="cls-1" d="m983.82,96.67h.3c3.77,0,6.82,1.17,9.15,3.5,2.13,2.1,3.2,4.78,3.2,8.05v.85c0,2.87-.88,5.1-2.65,6.7-1.57,1.37-3.58,2.05-6.05,2.05h-13.8v-4.05h13.4c3.2,0,4.8-1.68,4.8-5.05v-.45c0-2.47-.97-4.37-2.9-5.7-1.53-1.03-3.4-1.55-5.6-1.55-1.77,0-3.55.32-5.35.95v-4.25l10.95-12.15h4.4l-9.85,11.1Z"/>
    <path class="cls-1" d="m1016.22,113.78h3.3v4.05h-3.8c-1.7,0-3.17-.33-4.4-1-.3,3.3-1.45,5.93-3.45,7.9-1.83,1.8-4.13,2.7-6.9,2.7-2,0-3.95-.5-5.85-1.5v-3.75c1.7.93,3.4,1.4,5.1,1.4,2.13,0,3.8-.72,5-2.15s1.8-3.42,1.8-5.95v-17.05l4.3-2.3v.05l.05-.05v13.65c.3,2.67,1.92,4,4.85,4Z"/>
    <path class="cls-1" d="m1024.72,104.28c0-2.9.87-5.15,2.6-6.75,1.53-1.37,3.53-2.05,6-2.05,3.17,0,5.6,1.17,7.3,3.5,1.47,1.97,2.2,4.53,2.2,7.7,0,3.6-.93,6.42-2.8,8.45-1.63,1.8-3.77,2.7-6.4,2.7-3,0-5.28-.83-6.85-2.5-1.6,1.67-3.75,2.5-6.45,2.5h-3.8v-4.05h3.3c3.27,0,4.9-1.67,4.9-5v-4.5Zm4.3,4.85c0,3.1,1.52,4.65,4.55,4.65,1.57,0,2.79-.63,3.68-1.9.88-1.27,1.32-3.03,1.32-5.3s-.47-3.97-1.4-5.22c-.93-1.25-2.22-1.88-3.85-1.88-2.87,0-4.3,1.67-4.3,5v4.65Z"/>
  </g>
</svg>