<?xml version="1.0" encoding="UTF-8"?>
<svg id="Layer_1" data-name="Layer 1" xmlns="http://www.w3.org/2000/svg" width="304.45" height="57.62" viewBox="0 0 304.45 57.62">
  <defs>
    <style>
      .cls-1 {
        fill: #273551;
      }
    </style>
  </defs>
  <path class="cls-1" d="m69.62,32.36h2.9v3.56h-3.34c-1.5,0-2.79-.29-3.87-.88-.26,2.9-1.28,5.22-3.04,6.95-1.61,1.58-3.64,2.38-6.07,2.38-1.76,0-3.48-.44-5.15-1.32v-3.3c1.5.82,2.99,1.23,4.49,1.23,1.88,0,3.34-.63,4.4-1.89,1.06-1.26,1.58-3.01,1.58-5.24v-15l3.78-2.02v.04l.04-.04v12.01c.26,2.35,1.69,3.52,4.27,3.52Z"/>
  <path class="cls-1" d="m85.2,32.36h2.9v3.56h-3.34c-2.43,0-4.36-.78-5.76-2.33-1.41,1.55-3.33,2.33-5.76,2.33h-3.34v-3.56h2.9c2.87,0,4.31-1.47,4.31-4.4v-9.11l3.78-2.02v11.13c0,2.93,1.44,4.4,4.31,4.4Zm-10.52,7.96c1.41,0,2.11.73,2.11,2.2s-.7,2.16-2.11,2.16-2.16-.72-2.16-2.16.72-2.2,2.16-2.2Zm5.59,0c1.41,0,2.11.73,2.11,2.2s-.7,2.16-2.11,2.16-2.16-.72-2.16-2.16.72-2.2,2.16-2.2Z"/>
  <path class="cls-1" d="m100.78,32.36h2.9v3.56h-3.34c-2.43,0-4.36-.78-5.76-2.33-1.41,1.55-3.33,2.33-5.76,2.33h-3.34v-3.56h2.9c2.87,0,4.31-1.47,4.31-4.4v-9.11l3.78-2.02v11.13c0,2.93,1.44,4.4,4.31,4.4Zm-6.47,7.96c1.41,0,2.11.72,2.11,2.16s-.7,2.2-2.11,2.2-2.16-.73-2.16-2.2.72-2.16,2.16-2.16Z"/>
  <path class="cls-1" d="m125.11,32.36h2.51v3.56h-2.9c-2.46,0-4.38-.76-5.76-2.29-1.38,1.53-3.3,2.29-5.76,2.29h-12.14v-3.56h11.79c2.82,0,4.22-1.48,4.22-4.44v-.4c0-2.2-.85-3.87-2.55-5.02-1.35-.94-3.01-1.41-4.97-1.41-1.55,0-3.11.29-4.66.88v-3.74l9.64-10.69h3.87l-8.67,9.77h.26c3.34,0,6.04,1.01,8.1,3.04,1.85,1.88,2.77,4.25,2.77,7.13v.48c0,2.93,1.42,4.4,4.27,4.4Z"/>
  <path class="cls-1" d="m140.29,32.36h2.9v3.56h-3.34c-2.43,0-4.36-.78-5.76-2.33-1.41,1.55-3.33,2.33-5.76,2.33h-3.34v-3.56h2.9c2.87,0,4.31-1.47,4.31-4.4v-9.11l3.78-2.02v11.13c0,2.93,1.44,4.4,4.31,4.4Zm-10.38-20.55c-1.44,0-2.16-.73-2.16-2.2s.72-2.16,2.16-2.16,2.11.72,2.11,2.16-.7,2.2-2.11,2.2Zm5.63,0c-1.44,0-2.16-.73-2.16-2.2s.72-2.16,2.16-2.16,2.11.72,2.11,2.16-.7,2.2-2.11,2.2Z"/>
  <path class="cls-1" d="m140.55,35.93v-3.56h2.33c3.05,0,4.58-1.6,4.58-4.8V9.57l3.83-2.02v20.06c0,2.61-.78,4.68-2.33,6.2-1.47,1.41-3.39,2.11-5.76,2.11h-2.64Z"/>
  <path class="cls-1" d="m159.21,35.93V9.57l3.78-2.02v28.38h-3.78Z"/>
  <path class="cls-1" d="m208.27,32.36h2.9v3.56h-3.34c-1.58,0-3.01-.35-4.27-1.06-.41,3.02-1.78,5.4-4.09,7.13-2.05,1.52-4.59,2.29-7.61,2.29-3.93,0-6.97-1.32-9.11-3.96-1.64-2.05-2.46-4.5-2.46-7.35,0-2.49.6-4.62,1.8-6.38l3.78-.84c-1.35,2.08-2.02,4.36-2.02,6.82s.78,4.43,2.33,5.98c1.44,1.44,3.33,2.16,5.68,2.16,2.67,0,4.72-.79,6.16-2.38,1.23-1.35,1.85-3.08,1.85-5.19V9.57l3.83-2.02v20.42c0,2.93,1.52,4.4,4.58,4.4Z"/>
  <path class="cls-1" d="m215.75,24c0-2.55.76-4.53,2.29-5.94,1.35-1.2,3.11-1.8,5.28-1.8,2.79,0,4.93,1.03,6.42,3.08,1.29,1.73,1.94,3.99,1.94,6.78,0,3.17-.82,5.65-2.46,7.44-1.44,1.58-3.32,2.38-5.63,2.38-2.64,0-4.65-.73-6.03-2.2-1.41,1.47-3.3,2.2-5.68,2.2h-3.34v-3.56h2.9c2.87,0,4.31-1.47,4.31-4.4v-3.96Zm3.78,4.27c0,2.73,1.33,4.09,4,4.09,1.38,0,2.46-.56,3.23-1.67.78-1.11,1.17-2.67,1.17-4.66s-.41-3.5-1.23-4.6-1.95-1.65-3.39-1.65c-2.52,0-3.78,1.47-3.78,4.4v4.09Z"/>
  <path class="cls-1" d="m246.59,35.93c-2.55,0-4.52-.82-5.9-2.46-1.17-1.41-1.76-3.2-1.76-5.37V9.57l3.78-2.02v20.42c0,2.93,1.44,4.4,4.31,4.4h2.9v3.56h-3.34Z"/>
  <path class="cls-1" d="m269.03,32.36h11.62v3.56h-11.97c-1.58,0-3.15-.31-4.71-.92-1.56.62-3.14.92-4.75.92h-11.92v-3.56h12.23c-2.11-1.73-4.28-4.27-6.51-7.61v-1.94c1.41-2.02,3.09-3.62,5.04-4.8,1.95-1.17,3.91-1.76,5.87-1.76s3.93.59,5.9,1.78c1.96,1.19,3.67,2.81,5.1,4.86v1.85c-2.23,3.34-4.42,5.88-6.56,7.61h.66Zm-12.5-8.54c2.7,3.7,5.18,6.13,7.44,7.3,2.26-1.2,4.74-3.65,7.44-7.35-2.2-2.67-4.69-4.02-7.48-4.05-2.79,0-5.25,1.36-7.39,4.09Z"/>
  <path class="cls-1" d="m285.22,24c0-2.55.76-4.53,2.29-5.94,1.35-1.2,3.11-1.8,5.28-1.8,2.79,0,4.93,1.03,6.42,3.08,1.29,1.73,1.94,3.99,1.94,6.78,0,3.17-.82,5.65-2.46,7.44-1.44,1.58-3.32,2.38-5.63,2.38-2.64,0-4.65-.73-6.03-2.2-1.41,1.47-3.3,2.2-5.68,2.2h-3.34v-3.56h2.9c2.87,0,4.31-1.47,4.31-4.4v-3.96Zm3.78,4.27c0,2.73,1.33,4.09,4,4.09,1.38,0,2.46-.56,3.23-1.67.78-1.11,1.17-2.67,1.17-4.66s-.41-3.5-1.23-4.6-1.95-1.65-3.39-1.65c-2.52,0-3.78,1.47-3.78,4.4v4.09Z"/>
</svg>