<?xml version="1.0" encoding="UTF-8"?>
<svg id="Layer_1" data-name="Layer 1" xmlns="http://www.w3.org/2000/svg" width="440.83" height="57.62" viewBox="0 0 440.83 57.62">
  <defs>
    <style>
      .cls-1 {
        fill: #273551;
      }
    </style>
  </defs>
  <path class="cls-1" d="m31.89,23.12c-1.97-2.05-4.02-3.08-6.16-3.08-1.14,0-2.05.34-2.73,1.01s-1.01,1.58-1.01,2.73c0,1.26.38,2.24,1.14,2.95.76.71,2.24,1.44,4.44,2.2,2.2.79,3.7,1.54,4.49,2.24,1.17,1,1.76,2.36,1.76,4.09,0,2.76-1.31,4.99-3.92,6.69-2.38,1.55-5.47,2.33-9.28,2.33-4.64,0-8.13-1.35-10.47-4.05-1.73-1.99-2.6-4.46-2.6-7.39,0-2.46.62-4.58,1.85-6.34l3.65-.79c-1.32,2.08-1.98,4.33-1.98,6.73,0,2.52.85,4.55,2.55,6.07,1.67,1.47,4,2.2,7,2.2,3.2,0,5.66-.63,7.39-1.89,1.35-1,2.02-2.2,2.02-3.61,0-.79-.3-1.44-.9-1.94-.6-.5-1.8-1.06-3.59-1.67-2.46-.88-4.17-1.76-5.1-2.64-1.41-1.29-2.11-3.02-2.11-5.19,0-2.38.84-4.24,2.51-5.59,1.29-1.03,2.76-1.54,4.4-1.54,2.7,0,4.91.98,6.64,2.95v3.52Z"/>
  <path class="cls-1" d="m55.17,32.36h2.9v3.56h-3.34c-1.5,0-2.79-.29-3.87-.88-.26,2.9-1.28,5.22-3.04,6.95-1.61,1.58-3.64,2.38-6.07,2.38-1.76,0-3.48-.44-5.15-1.32v-3.3c1.5.82,2.99,1.23,4.49,1.23,1.88,0,3.34-.63,4.4-1.89,1.06-1.26,1.58-3.01,1.58-5.24v-15l3.78-2.02v.04l.04-.04v12.01c.26,2.35,1.69,3.52,4.27,3.52Z"/>
  <path class="cls-1" d="m55.43,35.93v-3.56h6.03c5.95,0,10.66-1.96,14.12-5.9-2.44-4.49-5.4-6.73-8.89-6.73-2.38,0-4.83,1.26-7.35,3.79v-3.52c2.46-2.49,5.08-3.74,7.83-3.74,2.26,0,4.44.81,6.56,2.44,2.11,1.63,3.97,3.95,5.59,6.97v1.94c-4.31,5.54-10.28,8.32-17.91,8.32h-5.98Zm13.33-24.42c-1.44,0-2.16-.73-2.16-2.2s.72-2.16,2.16-2.16,2.11.72,2.11,2.16-.7,2.2-2.11,2.2Z"/>
  <path class="cls-1" d="m101.81,9.57l3.83-2.02v20.06c0,2.61-.78,4.68-2.33,6.2-1.47,1.41-3.39,2.11-5.76,2.11h-15.14l1.85-3.56h6.42V15.29l3.78-2.02v19.1h2.77c3.05,0,4.58-1.6,4.58-4.8V9.57Zm-5.46-1.54l-1.01,1.89h-7.26l1.01-1.89h1.19c-.29-.53-.44-1.08-.44-1.67,0-.85.32-1.59.97-2.22.64-.63,1.41-.95,2.29-.95.73,0,1.44.23,2.11.7v1.94c-.65-.5-1.26-.75-1.85-.75-1.09,0-1.63.48-1.63,1.45,0,.5.21,1,.62,1.5h4Z"/>
  <path class="cls-1" d="m113.56,35.93V9.57l3.78-2.02v28.38h-3.78Z"/>
  <path class="cls-1" d="m182.51,18.85l3.83-2.02v11.26c0,2.49-.75,4.46-2.24,5.9-1.38,1.29-3.18,1.94-5.41,1.94h-2.95c-2.46,0-4.37-.76-5.72-2.29-1.38,1.53-3.3,2.29-5.76,2.29h-2.9c-1.53,0-2.85-.31-3.96-.92-.35,2.99-1.66,5.32-3.92,7-2.02,1.52-4.53,2.29-7.52,2.29-3.81,0-6.78-1.35-8.89-4.05-1.61-2.08-2.42-4.54-2.42-7.39,0-2.46.62-4.58,1.85-6.34l3.65-.79c-1.32,2.08-1.98,4.33-1.98,6.73s.76,4.49,2.29,6.07c1.44,1.47,3.27,2.2,5.5,2.2,2.58,0,4.58-.75,5.98-2.24,1.17-1.26,1.76-2.9,1.76-4.93v-11.75l3.78-2.02v8.18c0,2.93,1.42,4.4,4.27,4.4h2.07c2.84,0,4.27-1.47,4.27-4.4v-7.66l3.83-1.98v9.63c0,2.93,1.42,4.4,4.27,4.4h2.07c2.85,0,4.27-1.47,4.27-4.4v-9.11Z"/>
  <path class="cls-1" d="m205.08,34.52c-1.12.44-2.48.66-4.09.66-2.61,0-4.66-.98-6.16-2.95-1.26-1.67-1.89-3.77-1.89-6.29,0-3.11.84-5.54,2.51-7.3,1.5-1.58,3.46-2.38,5.9-2.38s4.41.78,5.76,2.33c1.2,1.38,1.8,3.18,1.8,5.41v9.59c0,3.31-.87,5.94-2.6,7.88-1.64,1.82-3.83,2.73-6.56,2.73-1.82,0-3.54-.43-5.15-1.28v-3.34c1.55.82,3.09,1.23,4.62,1.23,1.73,0,3.11-.55,4.14-1.65,1.03-1.1,1.6-2.65,1.72-4.64Zm0-10.34c0-2.93-1.25-4.4-3.74-4.4-1.47,0-2.62.54-3.45,1.63-.84,1.08-1.25,2.57-1.25,4.44s.4,3.32,1.21,4.42,1.9,1.65,3.28,1.65c1.94,0,3.26-.54,3.96-1.63v-6.12Z"/>
  <path class="cls-1" d="m227.21,34.52c-1.12.44-2.48.66-4.09.66-2.61,0-4.66-.98-6.16-2.95-1.26-1.67-1.89-3.77-1.89-6.29,0-3.11.84-5.54,2.51-7.3,1.5-1.58,3.46-2.38,5.9-2.38s4.41.78,5.76,2.33c1.2,1.38,1.8,3.18,1.8,5.41v9.59c0,3.31-.87,5.94-2.6,7.88-1.64,1.82-3.83,2.73-6.56,2.73-1.82,0-3.54-.43-5.15-1.28v-3.34c1.55.82,3.09,1.23,4.62,1.23,1.73,0,3.11-.55,4.14-1.65,1.03-1.1,1.6-2.65,1.72-4.64Zm-.57-25.21l-1.01,1.89h-7.26l1.01-1.89h1.19c-.29-.53-.44-1.08-.44-1.67,0-.85.32-1.59.97-2.22.64-.63,1.41-.95,2.29-.95.73,0,1.44.24,2.11.71v1.94c-.62-.5-1.23-.75-1.85-.75-1.08,0-1.63.48-1.63,1.45,0,.5.21,1,.62,1.5h4Zm.57,14.87c0-2.93-1.25-4.4-3.74-4.4-1.47,0-2.62.54-3.45,1.63-.84,1.08-1.25,2.57-1.25,4.44s.4,3.32,1.21,4.42,1.9,1.65,3.28,1.65c1.94,0,3.26-.54,3.96-1.63v-6.12Z"/>
  <path class="cls-1" d="m252.16,32.36h2.9v3.56h-3.34c-1.5,0-2.79-.29-3.87-.88-.26,2.9-1.28,5.22-3.04,6.95-1.61,1.58-3.64,2.38-6.07,2.38-1.76,0-3.48-.44-5.15-1.32v-3.3c1.5.82,2.99,1.23,4.49,1.23,1.88,0,3.34-.63,4.4-1.89,1.06-1.26,1.58-3.01,1.58-5.24v-15l3.78-2.02v.04l.04-.04v12.01c.26,2.35,1.69,3.52,4.27,3.52Z"/>
  <path class="cls-1" d="m252.42,35.93v-3.56h2.33c3.05,0,4.58-1.6,4.58-4.8V9.57l3.83-2.02v20.06c0,2.61-.78,4.68-2.33,6.2-1.47,1.41-3.39,2.11-5.76,2.11h-2.64Z"/>
  <path class="cls-1" d="m271.08,35.93V9.57l3.78-2.02v28.38h-3.78Z"/>
  <path class="cls-1" d="m300.38,35.93c-2.38,0-4.24-.79-5.59-2.38-1.17-1.38-1.76-3.18-1.76-5.41v-5.32l3.78-2.02v7c0,3.05,1.42,4.58,4.27,4.58h14.61c2.84,0,4.27-1.53,4.27-4.58v-8.93l3.78-2.02v11.31c0,2.55-.78,4.53-2.33,5.94-1.38,1.23-3.15,1.85-5.32,1.85h-15.71Zm4.44-20.46c-1.44,0-2.16-.73-2.16-2.2s.72-2.16,2.16-2.16,2.11.72,2.11,2.16-.7,2.2-2.11,2.2Zm5.59,0c-1.44,0-2.16-.73-2.16-2.2s.72-2.16,2.16-2.16,2.11.72,2.11,2.16-.7,2.2-2.11,2.2Z"/>
  <path class="cls-1" d="m338.44,35.93c-2.55,0-4.52-.82-5.9-2.46-1.17-1.41-1.76-3.2-1.76-5.37V9.57l3.78-2.02v20.42c0,2.93,1.44,4.4,4.31,4.4h2.9v3.56h-3.34Z"/>
  <path class="cls-1" d="m354.46,32.36h2.9v3.56h-3.34c-2.43,0-4.36-.78-5.76-2.33-1.41,1.55-3.33,2.33-5.76,2.33h-3.34v-3.56h2.9c2.87,0,4.31-1.47,4.31-4.4v-9.11l3.78-2.02v11.13c0,2.93,1.44,4.4,4.31,4.4Zm-10.52,7.96c1.41,0,2.11.73,2.11,2.2s-.7,2.16-2.11,2.16-2.16-.72-2.16-2.16.72-2.2,2.16-2.2Zm5.59,0c1.41,0,2.11.73,2.11,2.2s-.7,2.16-2.11,2.16-2.16-.72-2.16-2.16.72-2.2,2.16-2.2Z"/>
  <path class="cls-1" d="m354.72,35.93v-3.56h2.9c2.87,0,4.31-1.47,4.31-4.4v-9.11l3.78-2.02v11.26c0,2.49-.75,4.46-2.24,5.9-1.38,1.29-3.18,1.94-5.41,1.94h-3.34Zm3.39-24.42c-1.44,0-2.16-.73-2.16-2.2s.72-2.16,2.16-2.16,2.11.72,2.11,2.16-.7,2.2-2.11,2.2Zm2.77-5.24c-1.29,0-1.94-.66-1.94-1.98s.64-1.94,1.94-1.94,1.94.64,1.94,1.94-.65,1.98-1.94,1.98Zm2.82,5.24c-1.44,0-2.16-.73-2.16-2.2s.72-2.16,2.16-2.16,2.11.72,2.11,2.16-.7,2.2-2.11,2.2Z"/>
  <path class="cls-1" d="m373.64,35.93V9.57l3.78-2.02v28.38h-3.78Z"/>
  <path class="cls-1" d="m381.83,35.93l1.85-3.56h7.83c1.17,0,2-.29,2.49-.88.48-.59.73-1.6.73-3.04,0-3.9-1.8-6.83-5.41-8.8l1.94-3.26c4.6,2.7,7.01,6.42,7.22,11.18.06,1.7.45,2.93,1.17,3.68.72.75,1.87,1.12,3.45,1.12h2.6v3.56h-2.9c-2.43,0-4.34-.78-5.72-2.33-.97,1.55-2.6,2.33-4.88,2.33h-10.34Z"/>
  <path class="cls-1" d="m403.03,35.93v-3.56h6.03c5.95,0,10.66-1.96,14.12-5.9-2.44-4.49-5.4-6.73-8.89-6.73-2.38,0-4.83,1.26-7.35,3.79v-3.52c2.46-2.49,5.08-3.74,7.83-3.74,2.26,0,4.44.81,6.56,2.44,2.11,1.63,3.97,3.95,5.59,6.97v1.94c-4.31,5.54-10.28,8.32-17.91,8.32h-5.98Z"/>
  <path class="cls-1" d="m430.75,46.88l1.01-1.89h1.19c-.29-.53-.44-1.09-.44-1.67,0-.85.32-1.59.97-2.22.64-.63,1.41-.95,2.29-.95.73,0,1.44.23,2.11.71v1.94c-.65-.5-1.26-.75-1.85-.75-1.09,0-1.63.48-1.63,1.45,0,.5.21,1,.62,1.5h4l-1.01,1.89h-7.26Zm2.33-10.96V9.57l3.78-2.02v28.38h-3.78Z"/>
</svg>