<?xml version="1.0" encoding="UTF-8"?>
<svg id="Layer_3" data-name="Layer 3" xmlns="http://www.w3.org/2000/svg" width="209" height="902" viewBox="0 0 209 902">
  <defs>
    <style>
      .cls-1 {
        fill: #88cbd4;
      }

      .cls-1, .cls-2, .cls-3, .cls-4 {
        stroke-width: 0px;
      }

      .cls-2 {
        fill: #fff;
      }

      .cls-3 {
        fill: #f4f4f4;
      }

      .cls-4 {
        fill: #273551;
      }
    </style>
  </defs>
  <rect class="cls-3" x="89.2" y="9.64" width="84.85" height="882.72" rx="15.98" ry="15.98"/>
  <path class="cls-4" d="m134.82,72.36v31.65h-6.55v-24.2c-.47.3-1.15.72-2.05,1.25-1.3.77-2.23,1.35-2.8,1.75-.43-.73-1.17-1.95-2.2-3.65l-.3-.45c-.23-.43-.42-.75-.55-.95,1.07-.77,2.75-1.92,5.05-3.45,1.2-.8,2.15-1.45,2.85-1.95h6.55Z"/>
  <g>
    <rect class="cls-1" x="5.89" y="209.87" width="197.22" height="86.91" rx="15.58" ry="15.58"/>
    <path class="cls-1" d="m173.79,196.09h0c16.18,0,29.31,13.14,29.31,29.31v55.84c0,16.18-13.14,29.31-29.31,29.31h0v-114.47h0Z"/>
  </g>
  <g>
    <path class="cls-2" d="m32.95,253.85h-4.75v-5.3h4.75c1.33,0,2.25-.18,2.75-.55.77-.57,1.15-1.58,1.15-3.05,0-1.13-.33-2.04-1-2.73-.67-.68-1.57-1.02-2.7-1.02-2.03,0-4.15.93-6.35,2.8l-2.4-4.2c2.77-2.7,5.9-4.05,9.4-4.05,2.93,0,5.33.82,7.2,2.45,1.8,1.6,2.7,3.67,2.7,6.2,0,3.13-1.3,5.23-3.9,6.3,3.37,1.3,5.05,3.8,5.05,7.5,0,3.9-1.33,6.73-4,8.5-1.87,1.23-4.2,1.85-7,1.85-1.53,0-3.28-.41-5.22-1.22-1.95-.82-3.54-1.81-4.78-2.98l2.65-3.95c1.8,1.63,4.1,2.45,6.9,2.45,1.43,0,2.57-.41,3.4-1.22.83-.82,1.25-1.92,1.25-3.33,0-2.97-1.7-4.45-5.1-4.45Z"/>
    <path class="cls-2" d="m102.65,261.95h3.5v6.05h-4.1c-2.47,0-4.48-.65-6.05-1.95-1.6,1.3-3.63,1.95-6.1,1.95h-17.85c-2.83,0-5.05-.95-6.65-2.85-1.43-1.67-2.15-3.82-2.15-6.45v-5.1l6.25-3.3v8c0,1.33.28,2.28.83,2.83s1.46.83,2.72.83h16.3c1.27,0,2.17-.28,2.7-.85.53-.57.8-1.5.8-2.8v-9.2l6.3-3.3v12.55c0,1.3.27,2.23.8,2.78.53.55,1.43.83,2.7.83Zm-22.55,10.6c1,0,1.79.29,2.38.88s.88,1.38.88,2.38c0,2.23-1.08,3.35-3.25,3.35-1,0-1.8-.3-2.4-.9-.6-.6-.9-1.42-.9-2.45,0-.97.3-1.75.9-2.35.6-.6,1.4-.9,2.4-.9Z"/>
    <path class="cls-2" d="m105.85,279.15c-1,0-1.8-.3-2.4-.9-.6-.6-.9-1.42-.9-2.45,0-2.17,1.1-3.25,3.3-3.25,1,0,1.79.29,2.38.88.58.58.88,1.38.88,2.38,0,2.23-1.08,3.35-3.25,3.35Zm-2.7-11.15v-6.05h4.5c1.27,0,2.17-.28,2.7-.83.53-.55.8-1.47.8-2.78v-9.25l6.3-3.3v12.85c0,3.03-.93,5.4-2.8,7.1-1.63,1.5-3.77,2.25-6.4,2.25h-5.1Zm10.4,11.15c-1,0-1.8-.3-2.4-.9s-.9-1.42-.9-2.45c0-2.17,1.1-3.25,3.3-3.25,1,0,1.79.29,2.38.88.58.58.88,1.38.88,2.38,0,2.23-1.08,3.35-3.25,3.35Z"/>
    <path class="cls-2" d="m138.7,264.9c0,3.87-1.07,7-3.2,9.4-1.97,2.23-4.57,3.35-7.8,3.35-2.1,0-4.15-.53-6.15-1.6v-5.5c1.73.97,3.43,1.45,5.1,1.45,1.83,0,3.26-.59,4.27-1.78s1.53-2.82,1.53-4.92v-16.15l6.25-3.35v19.1Z"/>
    <path class="cls-2" d="m143.7,268l3.15-6.05h7.9c1.7,0,2.55-.98,2.55-2.95,0-3.67-1.77-6.48-5.3-8.45l3.1-5.35c5.2,3.03,8,7.15,8.4,12.35.13,1.67.51,2.82,1.12,3.45.62.63,1.67.95,3.17.95h3.8v6.05h-4.15c-2.47,0-4.55-.68-6.25-2.05-1.23,1.37-3,2.05-5.3,2.05h-12.2Z"/>
    <path class="cls-2" d="m168.6,268v-6.05h4.5c1.27,0,2.17-.28,2.7-.83.53-.55.8-1.47.8-2.78v-9.25l6.3-3.3v12.85c0,3.03-.93,5.4-2.8,7.1-1.63,1.5-3.77,2.25-6.4,2.25h-5.1Zm3.6-27.25c-1,0-1.8-.3-2.4-.9-.6-.6-.9-1.42-.9-2.45,0-2.17,1.1-3.25,3.3-3.25,1,0,1.79.29,2.38.88s.88,1.38.88,2.38c0,2.23-1.08,3.35-3.25,3.35Zm7.7,0c-1,0-1.8-.3-2.4-.9-.6-.6-.9-1.42-.9-2.45,0-2.17,1.1-3.25,3.3-3.25,1,0,1.79.29,2.38.88s.88,1.38.88,2.38c0,2.23-1.08,3.35-3.25,3.35Z"/>
  </g>
  <path class="cls-4" d="m119.95,188.47v-5.55c.8-.9,1.87-2.12,3.2-3.65,2.1-2.33,3.65-4.1,4.65-5.3,2.23-2.67,3.63-4.49,4.2-5.47.57-.98.85-2.08.85-3.28,0-1-.37-1.83-1.1-2.5-.73-.67-1.67-1-2.8-1-1.97,0-4.13.8-6.5,2.4l-2.75-4c3.33-2.63,6.82-3.95,10.45-3.95,2.9,0,5.22.78,6.95,2.35,1.7,1.53,2.55,3.65,2.55,6.35,0,2-.66,4.09-1.98,6.27-1.32,2.18-3.88,5.42-7.67,9.73-.93,1.07-1.62,1.85-2.05,2.35h11.35v5.25h-19.35Z"/>
  <path class="cls-4" d="m117.12,336.48c4.5-6.87,8.93-13.62,13.3-20.25h6.45v20.25h5.2v5.25h-5.2v6.15h-6.5v-6.15h-13.25v-5.25Zm5.65,0h7.6v-11.85l-7.6,11.85Z"/>
  <path class="cls-4" d="m138.07,401.19h-11.05v6.4c.4-.17.95-.25,1.65-.25,3.67,0,6.52.92,8.55,2.75,1.93,1.77,2.9,4.18,2.9,7.25,0,3.23-1.2,5.92-3.6,8.05-2.1,1.87-4.65,2.8-7.65,2.8-4,0-7.48-1.45-10.45-4.35l2.7-4.15c2.43,1.83,4.78,2.75,7.05,2.75,3.5,0,5.25-1.57,5.25-4.7,0-3.5-2.25-5.25-6.75-5.25-1.57,0-3.62.28-6.15.85v-17.4h17.55v5.25Z"/>
  <path class="cls-4" d="m125.25,488.15c1.13-1.03,2.82-1.55,5.05-1.55,3,0,5.4.87,7.2,2.6,1.87,1.8,2.8,4.42,2.8,7.85,0,2.9-.95,5.42-2.85,7.55-1.97,2.2-4.62,3.3-7.95,3.3-4.37,0-7.45-1.92-9.25-5.75-1.13-2.43-1.7-5.52-1.7-9.25,0-11.9,4.05-17.85,12.15-17.85,1.53,0,3.09.29,4.67.88,1.58.58,2.84,1.33,3.78,2.22l-2.25,4.1c-2.2-1.07-4.2-1.6-6-1.6-1.7,0-3.07.68-4.1,2.05-1.03,1.37-1.55,3.18-1.55,5.45Zm-.05,4.65c.17,3.47.45,5.83.85,7.1.63,1.93,1.75,2.9,3.35,2.9,1.1,0,2.05-.57,2.85-1.7.8-1.13,1.2-2.48,1.2-4.05,0-3.83-1.53-5.75-4.6-5.75-1.43,0-2.65.5-3.65,1.5Z"/>
  <path class="cls-4" d="m132.27,560.6h-11.6v-5.25h18.7v5l-11.5,26.65h-6.9l11.3-26.4Z"/>
  <path class="cls-4" d="m134.35,650.61c4.37,1.17,6.55,3.87,6.55,8.1,0,2.9-1.23,5.13-3.7,6.7-2.03,1.27-4.55,1.9-7.55,1.9-3.5,0-6.3-.83-8.4-2.5-1.97-1.53-2.95-3.58-2.95-6.15,0-2.4.85-4.4,2.55-6,1.27-1.2,2.68-1.9,4.25-2.1-3.63-1.1-5.45-3.42-5.45-6.95,0-3,1.17-5.35,3.5-7.05,1.87-1.4,4.15-2.1,6.85-2.1,3.07,0,5.58.93,7.55,2.8,1.83,1.77,2.75,4,2.75,6.7,0,1.57-.56,2.97-1.68,4.2s-2.54,2.05-4.27,2.45Zm-4.3,2.2c-1.5.37-2.7,1.04-3.6,2.03-.9.98-1.35,2.11-1.35,3.38,0,1.17.43,2.12,1.3,2.88.87.75,1.97,1.12,3.3,1.12s2.31-.36,3.12-1.08c.82-.72,1.23-1.64,1.23-2.77,0-1.27-.38-2.42-1.12-3.45s-1.71-1.73-2.88-2.1Zm-.15-4.5c1.13-.33,2.07-.96,2.8-1.88.73-.92,1.1-1.89,1.1-2.92,0-1.2-.34-2.17-1.03-2.9-.68-.73-1.56-1.1-2.62-1.1-1.23,0-2.22.38-2.97,1.12s-1.12,1.74-1.12,2.98c0,2.27,1.28,3.83,3.85,4.7Z"/>
  <path class="cls-4" d="m134.95,733.92c-1.13,1.03-2.82,1.55-5.05,1.55-3,0-5.4-.87-7.2-2.6-1.87-1.8-2.8-4.42-2.8-7.85,0-2.9.95-5.42,2.85-7.55,1.97-2.2,4.62-3.3,7.95-3.3,4.37,0,7.45,1.92,9.25,5.75,1.13,2.43,1.7,5.52,1.7,9.25,0,11.9-4.05,17.85-12.15,17.85-1.53,0-3.09-.29-4.67-.88-1.58-.58-2.84-1.32-3.77-2.22l2.25-4.1c2.2,1.07,4.2,1.6,6,1.6,1.7,0,3.07-.68,4.1-2.05,1.03-1.37,1.55-3.18,1.55-5.45Zm.05-4.65c-.17-3.47-.45-5.83-.85-7.1-.63-1.93-1.75-2.9-3.35-2.9-1.1,0-2.05.57-2.85,1.7-.8,1.13-1.2,2.48-1.2,4.05,0,3.83,1.53,5.75,4.6,5.75,1.43,0,2.65-.5,3.65-1.5Z"/>
  <g>
    <path class="cls-4" d="m120.75,794.47v31.65h-6.55v-24.2c-.47.3-1.15.72-2.05,1.25-1.3.77-2.23,1.35-2.8,1.75-.43-.73-1.17-1.95-2.2-3.65l-.3-.45c-.23-.43-.42-.75-.55-.95,1.07-.77,2.75-1.92,5.05-3.45,1.2-.8,2.15-1.45,2.85-1.95h6.55Z"/>
    <path class="cls-4" d="m138.75,793.88c3.87,0,6.97,1.85,9.3,5.55,1.97,3.07,2.95,6.72,2.95,10.95,0,5.1-1.25,9.18-3.75,12.25-2.2,2.73-5.03,4.1-8.5,4.1-3.97,0-7.07-1.77-9.3-5.3-1.87-2.93-2.8-6.62-2.8-11.05,0-4.93,1.23-8.98,3.7-12.15,2.23-2.9,5.03-4.35,8.4-4.35Zm.1,5.6c-3.6,0-5.4,3.53-5.4,10.6,0,3.57.52,6.37,1.55,8.4.93,1.83,2.17,2.75,3.7,2.75,1.7,0,3.04-.99,4.02-2.97.98-1.98,1.48-4.71,1.48-8.17,0-7.07-1.78-10.6-5.35-10.6Z"/>
  </g>
</svg>