<?xml version="1.0" encoding="UTF-8"?>
<svg id="Layer_4" data-name="Layer 4" xmlns="http://www.w3.org/2000/svg" width="486.86" height="88.64" xmlns:xlink="http://www.w3.org/1999/xlink" viewBox="0 0 486.86 88.64">
  <defs>
    <style>
      .cls-1 {
        filter: url(#drop-shadow-7);
      }

      .cls-2 {
        fill: #fff;
      }

      .cls-3 {
        fill: #eaeaea;
      }

      .cls-4 {
        filter: url(#drop-shadow-5);
      }

      .cls-5 {
        fill: url(#linear-gradient);
      }
    </style>
    <linearGradient id="linear-gradient" x1="243.43" y1="110.34" x2="243.43" y2="-138.49" gradientUnits="userSpaceOnUse">
      <stop offset="0" stop-color="#766fa4"/>
      <stop offset=".43" stop-color="#6fafcd"/>
      <stop offset=".73" stop-color="#82c4cf"/>
      <stop offset=".8" stop-color="#8ed1cf"/>
      <stop offset=".92" stop-color="#a0e6d1"/>
      <stop offset="1" stop-color="#a7eed2"/>
    </linearGradient>
    <filter id="drop-shadow-5" filterUnits="userSpaceOnUse">
      <feOffset dx="0" dy="1.93"/>
      <feGaussianBlur result="blur" stdDeviation=".97"/>
      <feFlood flood-color="#000" flood-opacity=".5"/>
      <feComposite in2="blur" operator="in"/>
      <feComposite in="SourceGraphic"/>
    </filter>
    <filter id="drop-shadow-7" filterUnits="userSpaceOnUse">
      <feOffset dx="0" dy="2"/>
      <feGaussianBlur result="blur-2" stdDeviation="1"/>
      <feFlood flood-color="#000" flood-opacity=".5"/>
      <feComposite in2="blur-2" operator="in"/>
      <feComposite in="SourceGraphic"/>
    </filter>
  </defs>
  <g>
    <rect class="cls-3" x="0" y="3.46" width="486.86" height="85.18" rx="9.67" ry="9.67"/>
    <rect class="cls-5" x="0" y="0" width="486.86" height="85.18" rx="9.67" ry="9.67"/>
  </g>
  <g>
    <g class="cls-4">
      <g>
        <path class="cls-2" d="m402.78,41.91l.03-15.63c0-2.12,1.73-3.85,3.86-3.85h20.66c2.13,0,3.86,1.73,3.86,3.86v15.6c0,2.13-1.73,3.86-3.86,3.86h-2.66v2.57c0,1.06-1.21,1.66-2.06,1.03l-4.8-3.6-11.17.03c-2.17,0-3.87-1.75-3.87-3.86h0Zm14.26-1.4c.71,0,1.29-.58,1.29-1.29s-.58-1.29-1.29-1.29-1.29.58-1.29,1.29.58,1.29,1.29,1.29h0Zm-1.37-5.36v.13c0,.71.58,1.29,1.29,1.29s1.29-.58,1.29-1.29v-.8c0-.85-.63-1.58-1.47-1.7-.63-.09-1.1-.64-1.1-1.27,0-.94,1.03-1.74,2.21-.98.6.38,1.39.21,1.78-.39.38-.6.21-1.39-.39-1.78-1.33-.85-2.88-.94-4.16-.23-1.24.68-2.01,1.97-2.01,3.38,0,1.65,1.06,3.1,2.57,3.64h0Zm0,0"/>
        <path class="cls-2" d="m478.11,18.48c0-2.12-1.73-3.85-3.86-3.85h-20.66c-2.13,0-3.86,1.73-3.86,3.86v15.6c0,2.13,1.73,3.86,3.86,3.86h2.66v2.57c0,1.06,1.21,1.66,2.06,1.03l4.8-3.6,11.17.03c2.17,0,3.87-1.75,3.87-3.86l-.03-15.63Zm-5.48,12.86h-17.71c-1.11,0-2.02-.9-2.02-2.02s.9-2.02,2.02-2.02h17.71c1.11,0,2.02.9,2.02,2.02s-.9,2.02-2.02,2.02Zm0-6.33h-17.71c-1.11,0-2.02-.9-2.02-2.02s.9-2.02,2.02-2.02h17.71c1.11,0,2.02.9,2.02,2.02s-.9,2.02-2.02,2.02Z"/>
      </g>
      <path class="cls-2" d="m470.15,74.46l-9.83-9.83c-.83-.83-2.19-.83-3.03,0l-2.37-2.37c4.4-5.87,3.94-14.24-1.39-19.57-5.86-5.86-15.36-5.86-21.21,0-5.86,5.86-5.86,15.36,0,21.21,5.34,5.34,13.7,5.79,19.57,1.39l2.37,2.37h0c-.83.83-.83,2.19,0,3.03l9.83,9.83c.83.83,2.19.83,3.03,0l3.03-3.03c.83-.83.83-2.19,0-3.03Zm-34.79-13.6c-2.02-2.02-3.14-4.72-3.14-7.58s1.12-5.55,3.14-7.58c2.02-2.02,4.72-3.14,7.58-3.14s5.55,1.12,7.58,3.14,3.14,4.72,3.14,7.58c0,2.3-.74,4.46-2.07,6.27l-2.37,2.37c-1.82,1.33-3.99,2.07-6.27,2.07-2.88.01-5.56-1.1-7.59-3.13Z"/>
      <g>
        <path class="cls-2" d="m440.78,54.04l-1.39-1.39c-.77-.77-2.01-.77-2.78,0-.09.09-.17.17-.26.26-.77.77-.77,2.01,0,2.78h0s1.39,1.39,1.39,1.39l2.61-.58.43-2.46Zm0,0"/>
        <path class="cls-2" d="m440.78,60.13c.94-.94,5.94-5.94,8.6-8.6.84-.84.84-2.2,0-3.04h0s0,0,0,0c-.84-.84-2.2-.84-3.04,0-2.81,2.81-8.45,8.45-8.6,8.6.02.02,3.02,3.02,3.04,3.04h0Zm0,0"/>
      </g>
    </g>
    <g class="cls-1">
      <path class="cls-2" d="m72.77,51.54c-.4,3.04-2.12,5.43-5.16,7.15-2.75,1.52-6.17,2.28-10.28,2.28-5.5,0-9.63-1.57-12.41-4.72-2.05-2.35-3.08-5.23-3.08-8.64,0-2.61.61-4.9,1.84-6.85l5.96-1.24c-1.32,2.25-1.99,4.62-1.99,7.1,0,2.78.83,4.92,2.48,6.41,1.65,1.52,4.05,2.28,7.2,2.28,4.9,0,7.88-1.26,8.94-3.77h-4.77l3.13-6.01h8.29v6.01h-.15Zm-18.77,20.41c-.99,0-1.79-.31-2.38-.92-.6-.61-.89-1.42-.89-2.41s.3-1.74.89-2.33,1.39-.89,2.38-.89,1.78.29,2.36.87c.58.58.87,1.37.87,2.36,0,2.22-1.08,3.33-3.23,3.33Zm7.65,0c-.99,0-1.79-.3-2.38-.89-.6-.6-.89-1.41-.89-2.43,0-2.15,1.09-3.23,3.28-3.23.99,0,1.78.29,2.36.87.58.58.87,1.37.87,2.36,0,2.22-1.08,3.33-3.23,3.33Z"/>
      <path class="cls-2" d="m101.97,45.53h4.42v6.01h-5.06c-2.38,0-4.34-.61-5.86-1.84-1.79,1.89-4.14,2.83-7.05,2.83s-5.33-.94-7.05-2.83c-1.59,1.22-3.56,1.84-5.91,1.84h-5.06v-6.01h4.47c1.26,0,2.15-.27,2.68-.82.53-.55.79-1.46.79-2.76v-1.44c0-3.87,1.01-6.89,3.03-9.04,1.75-1.89,4.1-2.83,7.05-2.83,3.34,0,5.93,1.22,7.75,3.67,1.52,2.08,2.28,4.82,2.28,8.19v1.44c0,1.29.27,2.21.82,2.76.55.55,1.45.82,2.71.82Zm-13.56.99c2.52,0,3.77-2.05,3.77-6.16s-1.26-5.91-3.77-5.91-3.82,1.97-3.82,5.91,1.27,6.16,3.82,6.16Z"/>
      <path class="cls-2" d="m137.32,45.53h4.47v6.01h-5.06c-2.45,0-4.47-.66-6.06-1.99-1.59,1.32-3.64,1.99-6.16,1.99h-6.26c-1.13,0-2.18-.17-3.18-.5-1.03.33-2.09.5-3.18.5h-8.49v-6.01h5.06c-.56-1.22-.84-2.56-.84-4.02,0-2.05.55-3.77,1.64-5.17.83-2.78,2.31-4.96,4.44-6.55,2.14-1.59,4.61-2.38,7.42-2.38,3.77,0,6.87,1.24,9.29,3.72,2.25,2.32,3.38,5.31,3.38,8.99v1.84c0,1.29.27,2.21.82,2.76.55.55,1.45.82,2.71.82Zm-22.25-.45c2.12-.7,3.18-2.07,3.18-4.12,0-1.03-.29-1.84-.87-2.46-.58-.61-1.35-.92-2.31-.92s-1.73.31-2.31.92c-.58.61-.87,1.43-.87,2.46,0,2.05,1.06,3.43,3.18,4.12Zm9.34.45c1.22,0,2.06-.26,2.51-.77.45-.51.67-1.46.67-2.86v-1.79c0-2.09-.6-3.76-1.81-5.02-1.21-1.26-2.81-1.89-4.79-1.89-1.36,0-2.53.3-3.53.89,1.56.46,2.79,1.36,3.7,2.68.91,1.32,1.37,2.9,1.37,4.72,0,1.46-.28,2.8-.84,4.02h2.73Z"/>
      <path class="cls-2" d="m138.81,51.54v-6.01h7.99c-1.03-1.42-1.54-3.24-1.54-5.46,0-3.64.99-6.52,2.98-8.64,1.79-1.85,4.12-2.78,7-2.78s5.23.94,6.85,2.83c1.46,1.62,2.18,3.74,2.18,6.36v4.47c-.03,2.85-.88,5.1-2.53,6.75-1.62,1.66-3.82,2.48-6.6,2.48h-16.34Zm19.22-13.8c0-2.18-.93-3.28-2.78-3.28-2.55,0-3.82,1.8-3.82,5.41s1.22,5.66,3.67,5.66c1.95,0,2.93-1.06,2.93-3.18v-4.62Zm-2.83-12.66c-.99,0-1.79-.3-2.38-.89-.6-.6-.89-1.41-.89-2.43,0-.96.3-1.74.89-2.33.6-.6,1.39-.89,2.38-.89s1.78.29,2.36.87c.58.58.87,1.37.87,2.36,0,2.22-1.08,3.33-3.23,3.33Z"/>
      <path class="cls-2" d="m213.89,45.53h4.47v6.01h-5.06c-1.13,0-2.17-.15-3.13-.45-.63,3.18-2.23,5.68-4.82,7.5-2.32,1.59-5.13,2.38-8.44,2.38-4.47,0-7.93-1.57-10.38-4.72-1.92-2.45-2.88-5.33-2.88-8.64,0-2.61.61-4.9,1.84-6.85l5.96-1.24c-1.32,2.25-1.99,4.62-1.99,7.1s.71,4.55,2.14,6.11c1.36,1.49,3.13,2.24,5.31,2.24s4.06-.58,5.34-1.74c1.27-1.16,1.91-2.78,1.91-4.87v-15.59l6.26-3.28v12.46c0,1.29.26,2.21.79,2.76.53.55,1.42.82,2.68.82Zm-17.33-15.69c-.99,0-1.79-.3-2.38-.89-.6-.6-.89-1.41-.89-2.43,0-.96.3-1.74.89-2.33.6-.6,1.39-.89,2.38-.89s1.78.29,2.36.87c.58.58.87,1.37.87,2.36,0,2.22-1.08,3.33-3.23,3.33Z"/>
      <path class="cls-2" d="m223.33,37.83c0-2.98.93-5.31,2.78-7,1.62-1.46,3.71-2.18,6.26-2.18,3.28,0,5.83,1.21,7.65,3.62,1.56,2.02,2.33,4.62,2.33,7.8,0,3.67-.98,6.57-2.93,8.69-1.75,1.85-3.99,2.78-6.7,2.78s-4.82-.58-6.5-1.74c-1.59,1.16-3.51,1.74-5.76,1.74h-5.06v-6.01h4.47c1.26,0,2.15-.27,2.68-.82.53-.55.79-1.46.79-2.76v-4.12Zm6.26,4.92c0,1.85.98,2.78,2.93,2.78,2.45,0,3.67-1.89,3.67-5.66s-1.27-5.41-3.82-5.41c-1.85,0-2.78,1.09-2.78,3.28v5.02Z"/>
      <path class="cls-2" d="m292.35,51.54c-.66,3.21-2.42,5.63-5.26,7.25-2.62,1.46-5.99,2.18-10.13,2.18-5.5,0-9.63-1.57-12.41-4.72-2.05-2.35-3.08-5.23-3.08-8.64,0-2.61.61-4.9,1.84-6.85l5.96-1.24c-1.32,2.25-1.99,4.62-1.99,7.1,0,2.62.83,4.65,2.48,6.11,1.65,1.49,4.05,2.24,7.2,2.24,4.8,0,7.7-1.23,8.69-3.67l-.89-.1c-3.77-.4-6.62-1.7-8.54-3.92-1.66-1.89-2.48-4.29-2.48-7.2,0-3.64.99-6.52,2.98-8.64,1.75-1.85,4.07-2.78,6.95-2.78s5.25.94,6.9,2.83c1.42,1.62,2.14,3.74,2.14,6.36v7.7h6.06v6.01h-6.41Zm-13.16-26.42c-.99,0-1.79-.3-2.38-.89-.6-.6-.89-1.41-.89-2.43,0-2.15,1.09-3.23,3.28-3.23.99,0,1.78.29,2.36.87.58.58.87,1.37.87,2.36,0,2.22-1.08,3.33-3.23,3.33Zm7.25,20.31v-7.7c0-2.18-.93-3.28-2.78-3.28-1.19,0-2.13.48-2.81,1.44-.68.96-1.02,2.28-1.02,3.97,0,3.28,1.75,5.06,5.26,5.36l1.34.2Zm.4-20.31c-.99,0-1.79-.3-2.38-.89-.6-.6-.89-1.41-.89-2.43,0-2.15,1.09-3.23,3.28-3.23.99,0,1.78.29,2.36.87.58.58.87,1.37.87,2.36,0,2.22-1.08,3.33-3.23,3.33Z"/>
      <path class="cls-2" d="m319.46,45.53h7.85v6.01h-11.77c-1.69,0-3.01-.12-3.97-.35-1.03.23-2.35.35-3.97.35h-11.82v-6.01h7.85c-1.26-2.02-1.89-4.07-1.89-6.16,0-3.31.98-5.97,2.93-7.99,1.75-1.82,4.05-2.73,6.9-2.73,3.24,0,5.76,1.18,7.55,3.53,1.49,1.92,2.23,4.32,2.23,7.2,0,2.09-.63,4.14-1.89,6.16Zm-11.72-20.41c-.99,0-1.79-.3-2.38-.89-.6-.6-.89-1.41-.89-2.43,0-2.15,1.09-3.23,3.28-3.23.99,0,1.78.29,2.36.87.58.58.87,1.37.87,2.36,0,2.22-1.08,3.33-3.23,3.33Zm3.77,19.86c1.12-.53,2.04-1.35,2.76-2.46.71-1.11,1.07-2.28,1.07-3.5,0-1.42-.34-2.54-1.02-3.35-.68-.81-1.6-1.22-2.76-1.22-2.52,0-3.77,1.51-3.77,4.52,0,1.29.35,2.49,1.04,3.6.7,1.11,1.59,1.91,2.68,2.41Zm3.87-19.86c-.99,0-1.79-.3-2.38-.89-.6-.6-.89-1.41-.89-2.43,0-2.15,1.09-3.23,3.28-3.23.99,0,1.78.29,2.36.87.58.58.87,1.37.87,2.36,0,2.22-1.08,3.33-3.23,3.33Z"/>
      <path class="cls-2" d="m356.7,45.53h4.17v6.01h-4.22c-2.62,0-4.71-.29-6.28-.87-1.57-.58-3.04-1.6-4.39-3.05-4.14,2.62-8.91,3.92-14.3,3.92h-7.35v-6.01h7.4c5.83,0,10.46-1.74,13.9-5.21-2.25-3.94-4.98-5.91-8.19-5.91-2.65,0-5.55,1.44-8.69,4.32v-5.51c2.78-3.04,5.93-4.57,9.43-4.57,2.58,0,5.1.94,7.55,2.83,2.45,1.89,4.62,4.57,6.5,8.04v2.48c-.53.7-1.23,1.47-2.09,2.33,1.32.79,3.51,1.19,6.55,1.19Z"/>
      <path class="cls-2" d="m357.9,51.54v-6.01h4.47c1.26,0,2.15-.27,2.68-.82.53-.55.79-1.46.79-2.76v-9.19l6.26-3.28v12.76c0,3.01-.93,5.36-2.78,7.05-1.62,1.49-3.74,2.23-6.36,2.23h-5.06Zm3.58-27.06c-.99,0-1.79-.3-2.38-.89-.6-.6-.89-1.41-.89-2.43,0-2.15,1.09-3.23,3.28-3.23.99,0,1.78.29,2.36.87.58.58.87,1.37.87,2.36,0,2.22-1.08,3.33-3.23,3.33Zm7.65,0c-.99,0-1.79-.3-2.38-.89-.6-.6-.89-1.41-.89-2.43,0-2.15,1.09-3.23,3.28-3.23.99,0,1.78.29,2.36.87.58.58.87,1.37.87,2.36,0,2.22-1.08,3.33-3.23,3.33Z"/>
      <path class="cls-2" d="m379.15,16.73l1.59-2.88h1.49c-.36-.66-.55-1.34-.55-2.04,0-1.06.39-1.97,1.17-2.73.78-.76,1.71-1.14,2.81-1.14.99,0,1.92.35,2.78,1.04v2.88c-.79-.7-1.59-1.04-2.38-1.04-1.09,0-1.64.5-1.64,1.49,0,.5.21,1.01.65,1.54h4.92l-1.59,2.88h-9.24Zm1.89,34.81v-28.7l6.26-3.33v32.03h-6.26Z"/>
    </g>
  </g>
</svg>