<?xml version="1.0" encoding="UTF-8"?>
<svg id="Layer_1" data-name="Layer 1" xmlns="http://www.w3.org/2000/svg" width="1219.6" height="319.12" viewBox="0 0 1219.6 319.12">
  <defs>
    <style>
      .cls-1 {
        fill: #273551;
      }

      .cls-2 {
        fill: #7e4d7c;
      }
    </style>
  </defs>
  <path class="cls-1" d="m36.15,38.5h3.3v4.05h-3.8c-3.43,0-5.9-1.27-7.4-3.8-1.6,1.53-3.58,2.3-5.95,2.3-2.93,0-5.27-1.1-7-3.3-1.43-1.87-2.15-4.15-2.15-6.85,0-3.23.98-5.83,2.95-7.8,1.67-1.7,3.7-2.55,6.1-2.55,1.83,0,3.42.47,4.75,1.4v-2.15l4.35-2.3v16c0,3.33,1.62,5,4.85,5Zm-9.2-11.9c-1.23-1.37-2.75-2.05-4.55-2.05-1.47,0-2.67.59-3.6,1.78-.93,1.18-1.4,2.72-1.4,4.62s.47,3.48,1.4,4.65c.93,1.17,2.15,1.75,3.65,1.75,1.87,0,3.4-.77,4.6-2.3-.07-.6-.1-1.07-.1-1.4v-7.05Z"/>
  <path class="cls-1" d="m52.2,38.35c1.33-5.03,3.53-9.23,6.6-12.6,3.43-3.7,7.43-5.55,12-5.55,3.8,0,6.83,1.32,9.1,3.95,1.9,2.23,2.85,4.98,2.85,8.25v1.3c0,2.9-.88,5.15-2.65,6.75-1.53,1.4-3.55,2.1-6.05,2.1h-20.7c-2.77,0-4.95-.88-6.55-2.65-1.6,1.77-3.78,2.65-6.55,2.65h-3.8v-4.05h3.3c3.27,0,4.9-1.67,4.9-5v-7l4.3-2.3v9.3c0,2.8,1.08,4.42,3.25,4.85Zm26.25-5.05v-.9c0-2.6-.8-4.67-2.4-6.2-1.4-1.33-3.13-2-5.2-2-3.53,0-6.72,1.63-9.55,4.9-2.17,2.5-3.83,5.63-5,9.4h17.5c3.1,0,4.65-1.73,4.65-5.2Zm-6.8-18.5c-1.63,0-2.45-.83-2.45-2.5s.82-2.45,2.45-2.45,2.4.82,2.4,2.45-.8,2.5-2.4,2.5Z"/>
  <path class="cls-1" d="m103,38.5h3.3v4.05h-3.8c-1.7,0-3.17-.33-4.4-1-.3,3.3-1.45,5.93-3.45,7.9-1.83,1.8-4.13,2.7-6.9,2.7-2,0-3.95-.5-5.85-1.5v-3.75c1.7.93,3.4,1.4,5.1,1.4,2.13,0,3.8-.72,5-2.15s1.8-3.42,1.8-5.95v-17.05l4.3-2.3v.05l.05-.05v13.65c.3,2.67,1.92,4,4.85,4Z"/>
  <path class="cls-1" d="m130.25,38.5v4.05h-26.95v-4.05h8.65c-1.63-2.1-2.45-4.68-2.45-7.75,0-3.4,1.17-6.1,3.5-8.1,1.9-1.6,4.1-2.42,6.6-2.45,3.53,0,6.28,1.42,8.25,4.25v4.05c-2.13-2.87-4.72-4.3-7.75-4.3-1.9,0-3.42.61-4.57,1.82-1.15,1.22-1.73,2.84-1.73,4.88,0,2.3.69,4.14,2.08,5.53,1.38,1.38,3.22,2.08,5.52,2.08h8.85Z"/>
  <path class="cls-1" d="m149.55,40.95c-1.27.5-2.82.75-4.65.75-2.97,0-5.3-1.12-7-3.35-1.43-1.9-2.15-4.28-2.15-7.15,0-3.53.95-6.3,2.85-8.3,1.7-1.8,3.93-2.7,6.7-2.7s5.02.88,6.55,2.65c1.37,1.57,2.05,3.62,2.05,6.15v10.9c0,3.77-.98,6.75-2.95,8.95-1.87,2.07-4.35,3.1-7.45,3.1-2.07,0-4.02-.48-5.85-1.45v-3.8c1.77.93,3.52,1.4,5.25,1.4,1.97,0,3.53-.62,4.7-1.88,1.17-1.25,1.82-3.01,1.95-5.27Zm0-11.75c0-3.33-1.42-5-4.25-5-1.67,0-2.97.62-3.92,1.85-.95,1.23-1.42,2.92-1.42,5.05s.46,3.78,1.38,5.03c.92,1.25,2.16,1.88,3.72,1.88,2.2,0,3.7-.62,4.5-1.85v-6.95Z"/>
  <path class="cls-1" d="m185.27,36.7c1.83,0,2.78.95,2.85,2.85,0,.93-.29,1.71-.88,2.33-.58.62-1.34.92-2.27.92-2.07,0-3.1-1.27-3.1-3.8v-6.45l2.1-.6.05,4.75h1.25Z"/>
  <path class="cls-1" d="m201.62,27.65h-4.5v-3.85h4.5c3.57,0,5.35-1.62,5.35-4.85,0-1.5-.46-2.67-1.38-3.5-.92-.83-2.18-1.25-3.77-1.25-2,0-4.12.8-6.35,2.4l-1.8-2.85c2.47-2.3,5.4-3.45,8.8-3.45,2.77,0,5.05.8,6.85,2.4,1.7,1.53,2.55,3.5,2.55,5.9,0,1.67-.44,3.1-1.33,4.3-.88,1.2-2.09,2.02-3.62,2.45,4.13,1.13,6.2,3.78,6.2,7.95,0,3.47-1.28,6.08-3.85,7.85-1.9,1.3-4.15,1.95-6.75,1.95-3.33,0-6.43-1.2-9.3-3.6l1.95-2.75c2,1.53,4.3,2.3,6.9,2.3,1.87,0,3.36-.53,4.47-1.6,1.12-1.07,1.68-2.47,1.68-4.2,0-3.73-2.2-5.6-6.6-5.6Z"/>
  <path class="cls-1" d="m237.62,40.25c-1.93,1.93-4.53,2.9-7.8,2.9-3.73,0-6.7-1.23-8.9-3.7-1.9-2.17-2.85-4.88-2.85-8.15,0-3.67,1.23-6.67,3.7-9,2.13-2.03,4.72-3.05,7.75-3.05s5.52.9,7.75,2.7l-1.2,2.4c-1.77-1.2-3.7-1.8-5.8-1.8-2.23,0-4.07.83-5.5,2.5-1.43,1.67-2.15,3.8-2.15,6.4s.8,4.6,2.4,6.2c1.47,1.43,3.3,2.15,5.5,2.15s4.18-.68,5.75-2.05l1.35,2.5Z"/>
  <path class="cls-1" d="m247.62,22.1h.25c1.7-1.9,4.05-2.85,7.05-2.85,3.77,0,6.22,1.35,7.35,4.05,1.93-2.7,4.68-4.05,8.25-4.05,5.47,0,8.2,3.23,8.2,9.7v13.6h-4.3v-12.65c0-2.5-.44-4.28-1.33-5.35-.88-1.07-2.36-1.6-4.42-1.6s-3.95.92-5.65,2.75c.2.93.3,2.02.3,3.25v13.6h-4.3v-13c0-2.3-.46-3.97-1.38-5.03-.92-1.05-2.39-1.57-4.42-1.57-.97,0-1.97.25-3,.75-1.03.5-1.8,1.1-2.3,1.8v17.05h-4.3v-22.7h3.6l.4,2.25Z"/>
  <path class="cls-1" d="m327.59,38.5h3.3v4.05h-3.8c-3.43,0-5.9-1.27-7.4-3.8-1.6,1.53-3.58,2.3-5.95,2.3-2.93,0-5.27-1.1-7-3.3-1.43-1.87-2.15-4.15-2.15-6.85,0-3.23.98-5.83,2.95-7.8,1.67-1.7,3.7-2.55,6.1-2.55,1.83,0,3.42.47,4.75,1.4v-2.15l4.35-2.3v16c0,3.33,1.62,5,4.85,5Zm-9.2-11.9c-1.23-1.37-2.75-2.05-4.55-2.05-1.47,0-2.67.59-3.6,1.78-.93,1.18-1.4,2.72-1.4,4.62s.47,3.48,1.4,4.65c.93,1.17,2.15,1.75,3.65,1.75,1.87,0,3.4-.77,4.6-2.3-.07-.6-.1-1.07-.1-1.4v-7.05Z"/>
  <path class="cls-1" d="m327.89,42.55v-4.05h2.65c3.47,0,5.2-1.82,5.2-5.45V12.6l4.35-2.3v22.8c0,2.97-.88,5.32-2.65,7.05-1.67,1.6-3.85,2.4-6.55,2.4h-3Z"/>
  <path class="cls-1" d="m372.44,38.5v4.05h-6.2c-.13,2.87-1.37,5.23-3.7,7.1-1.97,1.53-4.2,2.3-6.7,2.3-2.07,0-4.02-.48-5.85-1.45v-3.8c1.77.93,3.52,1.4,5.25,1.4s3.31-.55,4.62-1.65c1.32-1.1,1.99-2.42,2.02-3.95-1.73-.07-3.02-.13-3.85-.2-3.6-.2-6.32-1.42-8.15-3.65-1.53-1.87-2.3-4.28-2.3-7.25,0-3.63.97-6.47,2.9-8.5,1.73-1.8,4.02-2.7,6.85-2.7s5.25.88,6.85,2.65c1.37,1.57,2.05,3.62,2.05,6.15v9.5h6.2Zm-10.55-9.2c0-3.4-1.52-5.1-4.55-5.1-1.73,0-3.08.62-4.05,1.88-.97,1.25-1.45,2.99-1.45,5.22,0,4.37,2.13,6.68,6.4,6.95.8.1,2.02.18,3.65.25v-9.2Z"/>
  <path class="cls-1" d="m383.19,28.6c3.8-5.6,8.52-8.4,14.15-8.4,3.77,0,6.78,1.32,9.05,3.95,1.93,2.23,2.9,4.98,2.9,8.25v1.6c0,2.73-.67,4.84-2,6.33-1.33,1.48-3.23,2.22-5.7,2.22h-32.15v-4.05h9.3l.15-.55V12.6l4.3-2.3v18.3Zm21.75,5.2v-1.4c0-2.6-.8-4.67-2.4-6.2-1.37-1.33-3.08-2-5.15-2-3.43,0-6.53,1.55-9.3,4.65-2.07,2.33-3.7,5.25-4.9,8.75v.9h18.05c1.43,0,2.41-.33,2.93-1,.52-.67.77-1.9.77-3.7Z"/>
  <path class="cls-1" d="m439.36,10.2l1.5-3.2,10.7-1.95-1.5,3.2-10.7,1.95Zm.85-5.05l1.5-3.25,10.65-1.9-1.5,3.2-10.65,1.95Z"/>
  <path class="cls-1" d="m465.76,38.5h3.3v4.05h-3.8c-2.87,0-5.08-.92-6.65-2.75-1.67,1.83-3.97,2.75-6.9,2.75h-17.2l2.1-4.05h7.3v-19.4l4.3-2.3v21.7h3.15c3.47,0,5.2-1.82,5.2-5.45V12.6l4.35-2.3v22.8c0,1.93.38,3.32,1.12,4.15s1.99,1.25,3.72,1.25Z"/>
  <path class="cls-1" d="m483.46,38.5h3.3v4.05h-3.8c-2.77,0-4.95-.88-6.55-2.65-1.6,1.77-3.78,2.65-6.55,2.65h-3.8v-4.05h3.3c3.27,0,4.9-1.67,4.9-5v-10.35l4.3-2.3v12.65c0,3.33,1.63,5,4.9,5Zm-11.95,9.05c1.6,0,2.4.83,2.4,2.5s-.8,2.45-2.4,2.45-2.45-.82-2.45-2.45.82-2.5,2.45-2.5Zm6.35,0c1.6,0,2.4.83,2.4,2.5s-.8,2.45-2.4,2.45-2.45-.82-2.45-2.45.82-2.5,2.45-2.5Z"/>
  <path class="cls-1" d="m528.46,38.5h3.3v4.05h-3.8c-2.67,0-4.75-.78-6.25-2.35-1.37,1.57-3.3,2.35-5.8,2.35h-32.15v-4.05h9.3l.15-.55V12.6l4.3-2.3v18.3c3.8-5.6,8.52-8.4,14.15-8.4,3.77,0,6.78,1.32,9.05,3.95,1.93,2.23,2.9,4.98,2.9,8.25v1.2c0,3.27,1.62,4.9,4.85,4.9Zm-9.2-4.7v-1.4c0-2.6-.8-4.67-2.4-6.2-1.37-1.33-3.08-2-5.15-2-3.43,0-6.53,1.55-9.3,4.65-2.07,2.33-3.7,5.25-4.9,8.75v.9h18.05c1.43,0,2.41-.33,2.92-1s.78-1.9.78-3.7Z"/>
  <path class="cls-1" d="m546.16,38.5h3.3v4.05h-3.8c-2.77,0-4.95-.88-6.55-2.65-1.6,1.77-3.78,2.65-6.55,2.65h-3.8v-4.05h3.3c3.27,0,4.9-1.67,4.9-5v-10.35l4.3-2.3v12.65c0,3.33,1.63,5,4.9,5Zm-11.8-23.35c-1.63,0-2.45-.83-2.45-2.5s.82-2.45,2.45-2.45,2.4.82,2.4,2.45-.8,2.5-2.4,2.5Zm6.4,0c-1.63,0-2.45-.83-2.45-2.5s.82-2.45,2.45-2.45,2.4.82,2.4,2.45-.8,2.5-2.4,2.5Z"/>
  <path class="cls-1" d="m546.46,42.55v-4.05h4.5c3.23,0,4.85-1.67,4.85-5v-7l4.3-2.3v9.3c0,3.33,1.63,5,4.9,5h2.3c3.27,0,4.9-1.67,4.9-5v-8.7l4.3-2.25v10.95c0,3.33,1.62,5,4.85,5h2.35c3.27,0,4.9-1.67,4.9-5v-10.35l4.3-2.3v12.2c0,3.63,1.73,5.45,5.2,5.45h4.15v4.05h-4.5c-3,0-5.28-1.02-6.85-3.05-1.4,2-3.58,3.02-6.55,3.05h-3.45c-2.93,0-5.12-.98-6.55-2.95-1.43,1.93-3.57,2.92-6.4,2.95h-3.45c-2.87,0-5.05-.98-6.55-2.95-1.43,1.97-3.62,2.95-6.55,2.95h-4.95Z"/>
  <path class="cls-1" d="m607.46,29c0-2.9.87-5.15,2.6-6.75,1.53-1.37,3.53-2.05,6-2.05,3.17,0,5.6,1.17,7.3,3.5,1.47,1.97,2.2,4.53,2.2,7.7,0,3.6-.93,6.42-2.8,8.45-1.63,1.8-3.77,2.7-6.4,2.7-3,0-5.28-.83-6.85-2.5-1.6,1.67-3.75,2.5-6.45,2.5h-3.8v-4.05h3.3c3.27,0,4.9-1.67,4.9-5v-4.5Zm4.3,4.85c0,3.1,1.52,4.65,4.55,4.65,1.57,0,2.79-.63,3.67-1.9.88-1.27,1.33-3.03,1.33-5.3s-.47-3.97-1.4-5.22c-.93-1.25-2.22-1.88-3.85-1.88-2.87,0-4.3,1.67-4.3,5v4.65Z"/>
  <path class="cls-1" d="m679.48,39.85c0,3.83-1.33,6.88-4,9.15-2.37,2.03-5.4,3.05-9.1,3.05-4.33,0-7.7-1.53-10.1-4.6-1.83-2.37-2.75-5.17-2.75-8.4,0-2.8.7-5.2,2.1-7.2l4.15-.9c-1.5,2.37-2.25,4.92-2.25,7.65s.87,5.1,2.6,6.9c1.63,1.67,3.72,2.5,6.25,2.5,2.93,0,5.2-.85,6.8-2.55,1.33-1.43,2-3.3,2-5.6v-16.7l4.3-2.3v19Zm-13.1-19.45c-1.63,0-2.45-.83-2.45-2.5s.82-2.45,2.45-2.45,2.4.82,2.4,2.45-.8,2.5-2.4,2.5Z"/>
  <path class="cls-1" d="m697.19,42.55c-2.9,0-5.13-.93-6.7-2.8-1.33-1.6-2-3.63-2-6.1V12.6l4.3-2.3v23.2c0,3.33,1.63,5,4.9,5h3.3v4.05h-3.8Z"/>
  <path class="cls-1" d="m697.98,42.55v-4.05h3.3c3.27,0,4.9-1.67,4.9-5v-10.35l4.3-2.3v12.8c0,2.83-.85,5.07-2.55,6.7-1.57,1.47-3.62,2.2-6.15,2.2h-3.8Zm10.2-27.75c-1.63,0-2.45-.83-2.45-2.5s.82-2.45,2.45-2.45,2.4.82,2.4,2.45-.8,2.5-2.4,2.5Z"/>
  <path class="cls-1" d="m715.48,42.55l2.1-4.05h8.9c1.33,0,2.28-.33,2.83-1,.55-.67.82-1.82.82-3.45,0-4.43-2.05-7.77-6.15-10l2.2-3.7c5.23,3.07,7.97,7.3,8.2,12.7.07,1.93.51,3.33,1.33,4.17.82.85,2.12,1.28,3.92,1.28h2.95v4.05h-3.3c-2.77,0-4.93-.88-6.5-2.65-1.1,1.77-2.95,2.65-5.55,2.65h-11.75Z"/>
  <path class="cls-1" d="m766.54,38.5v4.05h-26.95v-4.05h8.65c-1.63-2.1-2.45-4.68-2.45-7.75,0-3.4,1.17-6.1,3.5-8.1,1.9-1.6,4.1-2.42,6.6-2.45,3.53,0,6.28,1.42,8.25,4.25v4.05c-2.13-2.87-4.72-4.3-7.75-4.3-1.9,0-3.42.61-4.57,1.82-1.15,1.22-1.73,2.84-1.73,4.88,0,2.3.69,4.14,2.08,5.53,1.38,1.38,3.22,2.08,5.53,2.08h8.85Z"/>
  <path class="cls-1" d="m820.06,38.5h3.35v4.05h-3.8c-2.7,0-4.85-.83-6.45-2.5-1.57,1.6-3.78,2.43-6.65,2.5h-6.55c-3.27,0-4.9,1.67-4.9,5v8.45l-4.3,2.3v-10.9c0-2.77.8-4.95,2.4-6.55,1.43-1.47,3.33-2.25,5.7-2.35-1.2-1.93-1.8-4.3-1.8-7.1,0-3.63.95-6.47,2.85-8.5,1.7-1.8,3.93-2.7,6.7-2.7s5.02.88,6.55,2.65c1.37,1.57,2.05,3.62,2.05,6.15v4.5c0,3.33,1.62,5,4.85,5Zm-9.15-4.65v-4.65c0-3.33-1.43-5-4.3-5-1.67,0-2.96.62-3.88,1.88s-1.38,2.99-1.38,5.22.43,4.03,1.3,5.3c.87,1.27,2.08,1.9,3.65,1.9,3.07,0,4.6-1.55,4.6-4.65Z"/>
  <path class="cls-1" d="m820.41,42.55v-4.05h4.5c3.23,0,4.85-1.67,4.85-5v-7l4.3-2.3v9.3c0,3.33,1.63,5,4.9,5h2.3c3.27,0,4.9-1.67,4.9-5v-8.7l4.3-2.25v10.95c0,3.33,1.62,5,4.85,5h2.35c3.27,0,4.9-1.67,4.9-5v-10.35l4.3-2.3v12.8c0,2.83-.85,5.05-2.55,6.65-1.5,1.47-3.5,2.22-6,2.25h-3.45c-2.93,0-5.12-.98-6.55-2.95-1.43,1.93-3.57,2.92-6.4,2.95h-3.45c-2.87,0-5.05-.98-6.55-2.95-1.43,1.97-3.62,2.95-6.55,2.95h-4.95Z"/>
  <path class="cls-1" d="m883.26,39.9c0,3.73-.98,6.73-2.95,9-1.87,2.17-4.35,3.25-7.45,3.25-2,0-3.95-.5-5.85-1.5v-3.75c1.7.93,3.4,1.4,5.1,1.4,2.13,0,3.8-.72,5-2.15,1.2-1.43,1.8-3.42,1.8-5.95v-17.05l4.35-2.3v19.05Z"/>
  <path class="cls-2" d="m913.03,28.15v-.1c.07-1.67.95-2.5,2.65-2.5s2.65.87,2.65,2.6-.88,2.65-2.65,2.65-2.65-.88-2.65-2.65Zm0,12v-.1c.07-1.67.95-2.5,2.65-2.5s2.65.87,2.65,2.6-.88,2.65-2.65,2.65-2.65-.88-2.65-2.65Z"/>
  <path class="cls-2" d="m922.63,9.6l1.15-2.15h1.35c-.33-.6-.5-1.23-.5-1.9,0-.97.37-1.81,1.1-2.53.73-.72,1.58-1.07,2.55-1.07.83,0,1.63.27,2.4.8v2.2c-.7-.57-1.4-.85-2.1-.85-1.23,0-1.85.57-1.85,1.7,0,.53.25,1.08.75,1.65h4.55l-1.15,2.15h-8.25Zm11.35,32.95c-2.9,0-5.13-.93-6.7-2.8-1.33-1.6-2-3.63-2-6.1V14.6l4.3-2.3v21.2c0,3.33,1.63,5,4.9,5h3.3v4.05h-3.8Z"/>
  <path class="cls-2" d="m979.48,38.5h3.3v4.05h-3.8c-2.67,0-4.75-.78-6.25-2.35-1.37,1.57-3.3,2.35-5.8,2.35h-32.15v-4.05h9.3l.15-.55V12.6l4.3-2.3v18.3c3.8-5.6,8.52-8.4,14.15-8.4,3.77,0,6.78,1.32,9.05,3.95,1.93,2.23,2.9,4.98,2.9,8.25v1.2c0,3.27,1.62,4.9,4.85,4.9Zm-9.2-4.7v-1.4c0-2.6-.8-4.67-2.4-6.2-1.37-1.33-3.08-2-5.15-2-3.43,0-6.53,1.55-9.3,4.65-2.07,2.33-3.7,5.25-4.9,8.75v.9h18.05c1.43,0,2.41-.33,2.92-1s.78-1.9.78-3.7Z"/>
  <path class="cls-2" d="m1012.38,38.5h3.25v4.05h-3.3c-2.7,0-4.87-.31-6.5-.92-1.63-.62-3.15-1.71-4.55-3.28-4.2,2.8-9.1,4.2-14.7,4.2h-6.8v-4.05h6.85c6.77,0,12.12-2.23,16.05-6.7-2.77-5.1-6.13-7.65-10.1-7.65-2.7,0-5.48,1.43-8.35,4.3v-4c2.8-2.83,5.77-4.25,8.9-4.25,2.57,0,5.05.92,7.45,2.77,2.4,1.85,4.52,4.49,6.35,7.92v2.2c-1.03,1.3-2.02,2.35-2.95,3.15,1.8,1.5,4.6,2.25,8.4,2.25Zm-17.45-23.7c-1.63,0-2.45-.83-2.45-2.5s.82-2.45,2.45-2.45,2.4.82,2.4,2.45-.8,2.5-2.4,2.5Z"/>
  <path class="cls-2" d="m1012.63,42.55v-4.05h2.65c3.47,0,5.2-1.82,5.2-5.45V12.6l4.35-2.3v22.8c0,2.97-.88,5.32-2.65,7.05-1.67,1.6-3.85,2.4-6.55,2.4h-3Z"/>
  <path class="cls-2" d="m1033.83,42.55V12.6l4.3-2.3v32.25h-4.3Z"/>
  <path class="cls-2" d="m1104.35,38.5h8.95v4.05h-11.8c-1.33,0-2.47-.12-3.4-.35-.97.23-2.1.35-3.4.35h-18.5c-2.7,0-4.82-.9-6.35-2.7-1.33-1.57-2-3.62-2-6.15v-6.05l4.3-2.3v7.95c0,3.47,1.62,5.2,4.85,5.2h14.8c-2.07-2.37-3.1-4.98-3.1-7.85,0-3.27.93-5.87,2.8-7.8,1.67-1.77,3.87-2.65,6.6-2.65,3.1,0,5.52,1.13,7.25,3.4,1.4,1.87,2.1,4.22,2.1,7.05s-1.03,5.48-3.1,7.85Zm-6.25-.45c1.53-.53,2.79-1.52,3.77-2.95.98-1.43,1.48-2.98,1.48-4.65,0-1.9-.48-3.42-1.42-4.55-.95-1.13-2.22-1.7-3.83-1.7s-2.88.56-3.83,1.67c-.95,1.12-1.42,2.64-1.42,4.58,0,1.67.49,3.22,1.48,4.65.98,1.43,2.24,2.42,3.77,2.95Zm.25-22.9c-1.63,0-2.45-.83-2.45-2.5s.82-2.45,2.45-2.45,2.4.82,2.4,2.45-.8,2.5-2.4,2.5Z"/>
  <path class="cls-2" d="m1110.3,42.55v-4.05h4.5c3.23,0,4.85-1.67,4.85-5v-7l4.3-2.3v9.3c0,3.33,1.63,5,4.9,5h2.3c3.27,0,4.9-1.67,4.9-5v-8.7l4.3-2.25v10.95c0,3.33,1.62,5,4.85,5h2.35c3.27,0,4.9-1.67,4.9-5v-10.35l4.3-2.3v12.2c0,3.63,1.73,5.45,5.2,5.45h4.15v4.05h-4.5c-3,0-5.28-1.02-6.85-3.05-1.4,2-3.58,3.02-6.55,3.05h-3.45c-2.93,0-5.12-.98-6.55-2.95-1.43,1.93-3.57,2.92-6.4,2.95h-3.45c-2.87,0-5.05-.98-6.55-2.95-1.43,1.97-3.62,2.95-6.55,2.95h-4.95Zm24.35-26.4c-1.63,0-2.45-.83-2.45-2.5s.82-2.45,2.45-2.45,2.4.82,2.4,2.45-.8,2.5-2.4,2.5Zm3.15-5.95c-1.47,0-2.2-.75-2.2-2.25s.73-2.2,2.2-2.2,2.2.73,2.2,2.2-.73,2.25-2.2,2.25Zm3.2,5.95c-1.63,0-2.45-.83-2.45-2.5s.82-2.45,2.45-2.45,2.4.82,2.4,2.45-.8,2.5-2.4,2.5Z"/>
  <path class="cls-2" d="m1180.5,38.5h3.3v4.05h-3.8c-2.77,0-4.95-.88-6.55-2.65-1.6,1.77-3.78,2.65-6.55,2.65h-3.8v-4.05h3.3c3.27,0,4.9-1.67,4.9-5v-10.35l4.3-2.3v12.65c0,3.33,1.63,5,4.9,5Zm-11.8-23.35c-1.63,0-2.45-.83-2.45-2.5s.82-2.45,2.45-2.45,2.4.82,2.4,2.45-.8,2.5-2.4,2.5Zm6.4,0c-1.63,0-2.45-.83-2.45-2.5s.82-2.45,2.45-2.45,2.4.82,2.4,2.45-.8,2.5-2.4,2.5Z"/>
  <path class="cls-2" d="m1190.65,21.4h.3c3.77,0,6.82,1.17,9.15,3.5,2.13,2.1,3.2,4.78,3.2,8.05v.85c0,2.87-.88,5.1-2.65,6.7-1.57,1.37-3.58,2.05-6.05,2.05h-13.8v-4.05h13.4c3.2,0,4.8-1.68,4.8-5.05v-.45c0-2.47-.97-4.37-2.9-5.7-1.53-1.03-3.4-1.55-5.6-1.55-1.77,0-3.55.32-5.35.95v-4.25l10.95-12.15h4.4l-9.85,11.1Z"/>
  <path class="cls-2" d="m1208.15,9.6l1.15-2.15h1.35c-.33-.6-.5-1.22-.5-1.85,0-1,.37-1.86,1.1-2.58.73-.72,1.6-1.07,2.6-1.07.83,0,1.63.27,2.4.8v2.2c-.73-.57-1.43-.85-2.1-.85-1.23,0-1.85.55-1.85,1.65,0,.57.23,1.13.7,1.7h4.55l-1.15,2.15h-8.25Zm2.65,32.95V14.6l4.3-2.3v30.25h-4.3Z"/>
  <path class="cls-1" d="m41.1,116.85c0,3.83-1.33,6.88-4,9.15-2.37,2.03-5.4,3.05-9.1,3.05-4.33,0-7.7-1.53-10.1-4.6-1.83-2.37-2.75-5.17-2.75-8.4,0-2.8.7-5.2,2.1-7.2l4.15-.9c-1.5,2.37-2.25,4.92-2.25,7.65s.87,5.1,2.6,6.9c1.63,1.67,3.72,2.5,6.25,2.5,2.93,0,5.2-.85,6.8-2.55,1.33-1.43,2-3.3,2-5.6v-16.7l4.3-2.3v19Zm-13.1-19.45c-1.63,0-2.45-.83-2.45-2.5s.82-2.45,2.45-2.45,2.4.82,2.4,2.45-.8,2.5-2.4,2.5Z"/>
  <path class="cls-1" d="m58.8,119.55c-2.9,0-5.13-.93-6.7-2.8-1.33-1.6-2-3.63-2-6.1v-21.05l4.3-2.3v23.2c0,3.33,1.63,5,4.9,5h3.3v4.05h-3.8Z"/>
  <path class="cls-1" d="m86.95,115.5h2.85v4.05h-3.3c-2.8,0-4.98-.87-6.55-2.6-1.57,1.73-3.75,2.6-6.55,2.6h-13.8v-4.05h13.4c3.2,0,4.8-1.68,4.8-5.05v-.45c0-2.5-.97-4.4-2.9-5.7-1.53-1.07-3.42-1.6-5.65-1.6-1.77,0-3.53.33-5.3,1v-4.25l10.95-12.15h4.4l-9.85,11.1h.3c3.8,0,6.87,1.15,9.2,3.45,2.1,2.13,3.15,4.83,3.15,8.1v.55c0,3.33,1.62,5,4.85,5Z"/>
  <path class="cls-1" d="m86.8,119.55v-4.05h9c-1.53-1.7-2.3-4.07-2.3-7.1,0-3.63.95-6.47,2.85-8.5,1.67-1.8,3.88-2.7,6.65-2.7s5.03.88,6.6,2.65c1.33,1.57,2,3.62,2,6.15v4.75c-.03,2.77-.85,4.95-2.45,6.55-1.57,1.5-3.65,2.25-6.25,2.25h-16.1Zm20.5-13.35c0-3.33-1.43-5-4.3-5-1.63,0-2.92.62-3.85,1.88-.93,1.25-1.4,2.99-1.4,5.22s.45,3.95,1.35,5.25c.9,1.3,2.1,1.95,3.6,1.95,3.07,0,4.6-1.6,4.6-4.8v-4.5Zm-4.2-14.1c-1.63,0-2.45-.83-2.45-2.5s.82-2.45,2.45-2.45,2.4.82,2.4,2.45-.8,2.5-2.4,2.5Z"/>
  <path class="cls-1" d="m143.2,113.7c1.83,0,2.78.95,2.85,2.85,0,.93-.29,1.71-.88,2.33-.58.62-1.34.92-2.27.92-2.07,0-3.1-1.27-3.1-3.8v-6.45l2.1-.6.05,4.75h1.25Z"/>
  <path class="cls-1" d="m169.25,91.75h-11.75v8.05c.8-.13,1.77-.2,2.9-.2,3.47,0,6.2.92,8.2,2.75,1.87,1.7,2.8,4.02,2.8,6.95,0,3.4-1.18,6.13-3.55,8.2-2,1.77-4.4,2.65-7.2,2.65-3.5,0-6.62-1.22-9.35-3.65l1.85-2.8c2.2,1.57,4.45,2.35,6.75,2.35,2.13,0,3.77-.57,4.92-1.7,1.15-1.13,1.73-2.75,1.73-4.85,0-4.13-2.42-6.2-7.25-6.2-2.13,0-4.27.22-6.4.65v-16.05h16.35v3.85Z"/>
  <path class="cls-1" d="m208.92,115.5h3.3v4.05h-3.8c-3.43,0-5.9-1.27-7.4-3.8-1.6,1.53-3.58,2.3-5.95,2.3-2.93,0-5.27-1.1-7-3.3-1.43-1.87-2.15-4.15-2.15-6.85,0-3.23.98-5.83,2.95-7.8,1.67-1.7,3.7-2.55,6.1-2.55,1.83,0,3.42.47,4.75,1.4v-2.15l4.35-2.3v16c0,3.33,1.62,5,4.85,5Zm-9.2-11.9c-1.23-1.37-2.75-2.05-4.55-2.05-1.47,0-2.67.59-3.6,1.78-.93,1.18-1.4,2.72-1.4,4.62s.47,3.48,1.4,4.65c.93,1.17,2.15,1.75,3.65,1.75,1.87,0,3.4-.77,4.6-2.3-.07-.6-.1-1.07-.1-1.4v-7.05Z"/>
  <path class="cls-1" d="m226.62,115.5h3.3v4.05h-3.8c-2.77,0-4.95-.88-6.55-2.65-1.6,1.77-3.78,2.65-6.55,2.65h-3.8v-4.05h3.3c3.27,0,4.9-1.67,4.9-5v-10.35l4.3-2.3v12.65c0,3.33,1.63,5,4.9,5Zm-11.8-23.35c-1.63,0-2.45-.83-2.45-2.5s.82-2.45,2.45-2.45,2.4.82,2.4,2.45-.8,2.5-2.4,2.5Zm6.4,0c-1.63,0-2.45-.83-2.45-2.5s.82-2.45,2.45-2.45,2.4.82,2.4,2.45-.8,2.5-2.4,2.5Z"/>
  <path class="cls-1" d="m259.12,115.5h3.35v4.05h-3.8c-2.77,0-4.95-.88-6.55-2.65-1.7,2.43-4.18,3.65-7.45,3.65s-5.73-1.2-7.4-3.6c-1.57,1.73-3.75,2.6-6.55,2.6h-3.8v-4.05h3.3c3.27,0,4.9-1.67,4.9-5v-1.65c0-3.87.95-6.83,2.85-8.9,1.67-1.83,3.9-2.75,6.7-2.75,3.2,0,5.67,1.18,7.4,3.55,1.47,2.03,2.2,4.73,2.2,8.1v1.65c0,3.33,1.62,5,4.85,5Zm-14.45,1c1.63,0,2.92-.68,3.88-2.05s1.42-3.25,1.42-5.65c0-5.07-1.77-7.6-5.3-7.6s-5.25,2.53-5.25,7.6,1.75,7.7,5.25,7.7Z"/>
  <path class="cls-1" d="m276.87,115.5h3.3v4.05h-3.8c-2.77,0-4.95-.88-6.55-2.65-1.6,1.77-3.78,2.65-6.55,2.65h-3.8v-4.05h3.3c3.27,0,4.9-1.67,4.9-5v-10.35l4.3-2.3v12.65c0,3.33,1.63,5,4.9,5Zm-11.95,9.05c1.6,0,2.4.83,2.4,2.5s-.8,2.45-2.4,2.45-2.45-.82-2.45-2.45.82-2.5,2.45-2.5Zm6.35,0c1.6,0,2.4.83,2.4,2.5s-.8,2.45-2.4,2.45-2.45-.82-2.45-2.45.82-2.5,2.45-2.5Z"/>
  <path class="cls-1" d="m277.17,119.55v-4.05h9c-1.53-1.7-2.3-4.07-2.3-7.1,0-3.63.95-6.47,2.85-8.5,1.67-1.8,3.88-2.7,6.65-2.7s5.03.88,6.6,2.65c1.33,1.57,2,3.62,2,6.15v4.75c-.03,2.77-.85,4.95-2.45,6.55-1.57,1.5-3.65,2.25-6.25,2.25h-16.1Zm13.05-27.4c-1.63,0-2.45-.83-2.45-2.5s.82-2.45,2.45-2.45,2.4.82,2.4,2.45-.8,2.5-2.4,2.5Zm7.45,14.05c0-3.33-1.43-5-4.3-5-1.63,0-2.92.62-3.85,1.88-.93,1.25-1.4,2.99-1.4,5.22s.45,3.95,1.35,5.25c.9,1.3,2.1,1.95,3.6,1.95,3.07,0,4.6-1.6,4.6-4.8v-4.5Zm-1.1-14.05c-1.63,0-2.45-.83-2.45-2.5s.82-2.45,2.45-2.45,2.4.82,2.4,2.45-.8,2.5-2.4,2.5Z"/>
  <path class="cls-1" d="m333.2,115.5h3.3v4.05h-3.8c-1.7,0-3.17-.33-4.4-1-.3,3.3-1.45,5.93-3.45,7.9-1.83,1.8-4.13,2.7-6.9,2.7-2,0-3.95-.5-5.85-1.5v-3.75c1.7.93,3.4,1.4,5.1,1.4,2.13,0,3.8-.72,5-2.15s1.8-3.42,1.8-5.95v-17.05l4.3-2.3v.05l.05-.05v13.65c.3,2.67,1.92,4,4.85,4Z"/>
  <path class="cls-1" d="m350.9,115.5h3.3v4.05h-3.8c-2.77,0-4.95-.88-6.55-2.65-1.6,1.77-3.78,2.65-6.55,2.65h-3.8v-4.05h3.3c3.27,0,4.9-1.67,4.9-5v-10.35l4.3-2.3v12.65c0,3.33,1.63,5,4.9,5Zm-11.95,9.05c1.6,0,2.4.83,2.4,2.5s-.8,2.45-2.4,2.45-2.45-.82-2.45-2.45.82-2.5,2.45-2.5Zm6.35,0c1.6,0,2.4.83,2.4,2.5s-.8,2.45-2.4,2.45-2.45-.82-2.45-2.45.82-2.5,2.45-2.5Z"/>
  <path class="cls-1" d="m368.6,115.5h3.3v4.05h-3.8c-2.77,0-4.95-.88-6.55-2.65-1.6,1.77-3.78,2.65-6.55,2.65h-3.8v-4.05h3.3c3.27,0,4.9-1.67,4.9-5v-10.35l4.3-2.3v12.65c0,3.33,1.63,5,4.9,5Zm-7.35,9.05c1.6,0,2.4.82,2.4,2.45s-.8,2.5-2.4,2.5-2.45-.83-2.45-2.5.82-2.45,2.45-2.45Z"/>
  <path class="cls-1" d="m396.25,115.5h2.85v4.05h-3.3c-2.8,0-4.98-.87-6.55-2.6-1.57,1.73-3.75,2.6-6.55,2.6h-13.8v-4.05h13.4c3.2,0,4.8-1.68,4.8-5.05v-.45c0-2.5-.97-4.4-2.9-5.7-1.53-1.07-3.42-1.6-5.65-1.6-1.77,0-3.53.33-5.3,1v-4.25l10.95-12.15h4.4l-9.85,11.1h.3c3.8,0,6.87,1.15,9.2,3.45,2.1,2.13,3.15,4.83,3.15,8.1v.55c0,3.33,1.62,5,4.85,5Z"/>
  <path class="cls-1" d="m396.1,119.55v-4.05h3.3c3.27,0,4.9-1.67,4.9-5v-10.35l4.3-2.3v12.8c0,2.83-.85,5.07-2.55,6.7-1.57,1.47-3.62,2.2-6.15,2.2h-3.8Zm3.85-27.75c-1.63,0-2.45-.83-2.45-2.5s.82-2.45,2.45-2.45,2.4.82,2.4,2.45-.8,2.5-2.4,2.5Zm6.35,0c-1.63,0-2.45-.83-2.45-2.5s.82-2.45,2.45-2.45,2.4.82,2.4,2.45-.8,2.5-2.4,2.5Z"/>
  <path class="cls-1" d="m458.87,115.5h3.3v4.05h-3.8c-1.8,0-3.42-.4-4.85-1.2-.47,3.43-2.02,6.13-4.65,8.1-2.33,1.73-5.22,2.6-8.65,2.6-4.47,0-7.92-1.5-10.35-4.5-1.87-2.33-2.8-5.12-2.8-8.35,0-2.83.68-5.25,2.05-7.25l4.3-.95c-1.53,2.37-2.3,4.95-2.3,7.75s.88,5.03,2.65,6.8c1.63,1.63,3.78,2.45,6.45,2.45,3.03,0,5.37-.9,7-2.7,1.4-1.53,2.1-3.5,2.1-5.9v-26.8l4.35-2.3v23.2c0,3.33,1.73,5,5.2,5Z"/>
  <path class="cls-1" d="m467.37,106c0-2.9.87-5.15,2.6-6.75,1.53-1.37,3.53-2.05,6-2.05,3.17,0,5.6,1.17,7.3,3.5,1.47,1.97,2.2,4.53,2.2,7.7,0,3.6-.93,6.42-2.8,8.45-1.63,1.8-3.77,2.7-6.4,2.7-3,0-5.28-.83-6.85-2.5-1.6,1.67-3.75,2.5-6.45,2.5h-3.8v-4.05h3.3c3.27,0,4.9-1.67,4.9-5v-4.5Zm4.3,4.85c0,3.1,1.52,4.65,4.55,4.65,1.57,0,2.79-.63,3.67-1.9.88-1.27,1.33-3.03,1.33-5.3s-.47-3.97-1.4-5.22c-.93-1.25-2.22-1.88-3.85-1.88-2.87,0-4.3,1.67-4.3,5v4.65Z"/>
  <path class="cls-1" d="m502.42,119.55c-2.9,0-5.13-.93-6.7-2.8-1.33-1.6-2-3.63-2-6.1v-21.05l4.3-2.3v23.2c0,3.33,1.63,5,4.9,5h3.3v4.05h-3.8Z"/>
  <path class="cls-1" d="m527.92,115.5h13.2v4.05h-13.6c-1.8,0-3.58-.35-5.35-1.05-1.77.7-3.57,1.05-5.4,1.05h-13.55v-4.05h13.9c-2.4-1.97-4.87-4.85-7.4-8.65v-2.2c1.6-2.3,3.51-4.12,5.72-5.45s4.44-2,6.67-2,4.47.67,6.7,2.02c2.23,1.35,4.17,3.19,5.8,5.53v2.1c-2.53,3.8-5.02,6.68-7.45,8.65h.75Zm-14.2-9.7c3.07,4.2,5.88,6.97,8.45,8.3,2.57-1.37,5.38-4.15,8.45-8.35-2.5-3.03-5.33-4.57-8.5-4.6-3.17,0-5.97,1.55-8.4,4.65Z"/>
  <path class="cls-1" d="m546.32,106c0-2.9.87-5.15,2.6-6.75,1.53-1.37,3.53-2.05,6-2.05,3.17,0,5.6,1.17,7.3,3.5,1.47,1.97,2.2,4.53,2.2,7.7,0,3.6-.93,6.42-2.8,8.45-1.63,1.8-3.77,2.7-6.4,2.7-3,0-5.28-.83-6.85-2.5-1.6,1.67-3.75,2.5-6.45,2.5h-3.8v-4.05h3.3c3.27,0,4.9-1.67,4.9-5v-4.5Zm4.3,4.85c0,3.1,1.52,4.65,4.55,4.65,1.57,0,2.79-.63,3.68-1.9.88-1.27,1.32-3.03,1.32-5.3s-.47-3.97-1.4-5.22-2.22-1.88-3.85-1.88c-2.87,0-4.3,1.67-4.3,5v4.65Z"/>
  <path class="cls-1" d="m595.4,115.5h3.3v4.05h-3.8c-1.7,0-3.17-.33-4.4-1-.3,3.3-1.45,5.93-3.45,7.9-1.83,1.8-4.13,2.7-6.9,2.7-2,0-3.95-.5-5.85-1.5v-3.75c1.7.93,3.4,1.4,5.1,1.4,2.13,0,3.8-.72,5-2.15,1.2-1.43,1.8-3.42,1.8-5.95v-17.05l4.3-2.3v.05l.05-.05v13.65c.3,2.67,1.92,4,4.85,4Z"/>
  <path class="cls-1" d="m613.1,115.5h3.3v4.05h-3.8c-2.77,0-4.95-.88-6.55-2.65-1.6,1.77-3.78,2.65-6.55,2.65h-3.8v-4.05h3.3c3.27,0,4.9-1.67,4.9-5v-10.35l4.3-2.3v12.65c0,3.33,1.63,5,4.9,5Zm-11.95,9.05c1.6,0,2.4.83,2.4,2.5s-.8,2.45-2.4,2.45-2.45-.82-2.45-2.45.82-2.5,2.45-2.5Zm6.35,0c1.6,0,2.4.83,2.4,2.5s-.8,2.45-2.4,2.45-2.45-.82-2.45-2.45.82-2.5,2.45-2.5Z"/>
  <path class="cls-1" d="m613.4,119.55v-4.05h3.3c3.27,0,4.9-1.67,4.9-5v-10.35l4.3-2.3v12.8c0,2.83-.85,5.07-2.55,6.7-1.57,1.47-3.62,2.2-6.15,2.2h-3.8Zm3.85-27.75c-1.63,0-2.45-.83-2.45-2.5s.82-2.45,2.45-2.45,2.4.82,2.4,2.45-.8,2.5-2.4,2.5Zm3.15-5.95c-1.47,0-2.2-.75-2.2-2.25s.73-2.2,2.2-2.2,2.2.73,2.2,2.2-.73,2.25-2.2,2.25Zm3.2,5.95c-1.63,0-2.45-.83-2.45-2.5s.82-2.45,2.45-2.45,2.4.82,2.4,2.45-.8,2.5-2.4,2.5Z"/>
  <path class="cls-1" d="m632.25,86.6l1.15-2.15h1.35c-.33-.6-.5-1.23-.5-1.9,0-.97.37-1.81,1.1-2.53.73-.72,1.58-1.07,2.55-1.07.83,0,1.63.27,2.4.8v2.2c-.7-.57-1.4-.85-2.1-.85-1.23,0-1.85.57-1.85,1.7,0,.53.25,1.08.75,1.65h4.55l-1.15,2.15h-8.25Zm11.35,32.95c-2.9,0-5.13-.93-6.7-2.8-1.33-1.6-2-3.63-2-6.1v-19.05l4.3-2.3v21.2c0,3.33,1.63,5,4.9,5h3.3v4.05h-3.8Z"/>
  <path class="cls-1" d="m644.4,119.55v-4.05h3.3c3.27,0,4.9-1.67,4.9-5v-10.35l4.3-2.3v12.8c0,2.83-.85,5.07-2.55,6.7-1.57,1.47-3.62,2.2-6.15,2.2h-3.8Zm3.85-27.75c-1.63,0-2.45-.83-2.45-2.5s.82-2.45,2.45-2.45,2.4.82,2.4,2.45-.8,2.5-2.4,2.5Zm6.35,0c-1.63,0-2.45-.83-2.45-2.5s.82-2.45,2.45-2.45,2.4.82,2.4,2.45-.8,2.5-2.4,2.5Z"/>
  <path class="cls-1" d="m716.17,115.5h2.3v4.05h-2.8c-2.8,0-4.98-.87-6.55-2.6-1.57,1.73-3.75,2.6-6.55,2.6h-17.85c-2.7,0-4.82-.9-6.35-2.7-1.33-1.57-2-3.62-2-6.15v-6.05l4.3-2.3v7.95c0,3.47,1.62,5.2,4.85,5.2h16.6c3.23,0,4.85-1.73,4.85-5.2v-10.15l4.3-2.3v12.65c0,3.33,1.63,5,4.9,5Zm-26.4-19.2c-1.63,0-2.45-.83-2.45-2.5s.82-2.45,2.45-2.45,2.4.82,2.4,2.45-.8,2.5-2.4,2.5Zm6.35,0c-1.63,0-2.45-.83-2.45-2.5s.82-2.45,2.45-2.45,2.4.82,2.4,2.45-.8,2.5-2.4,2.5Z"/>
  <path class="cls-1" d="m748.07,115.5h3.25v4.05h-3.3c-2.7,0-4.87-.31-6.5-.92-1.63-.62-3.15-1.71-4.55-3.28-4.2,2.8-9.1,4.2-14.7,4.2h-6.8v-4.05h6.85c6.77,0,12.12-2.23,16.05-6.7-2.77-5.1-6.13-7.65-10.1-7.65-2.7,0-5.48,1.43-8.35,4.3v-4c2.8-2.83,5.77-4.25,8.9-4.25,2.57,0,5.05.92,7.45,2.77,2.4,1.85,4.52,4.49,6.35,7.92v2.2c-1.03,1.3-2.02,2.35-2.95,3.15,1.8,1.5,4.6,2.25,8.4,2.25Z"/>
  <path class="cls-1" d="m748.32,119.55v-4.05h3.3c3.27,0,4.9-1.67,4.9-5v-10.35l4.3-2.3v12.8c0,2.83-.85,5.07-2.55,6.7-1.57,1.47-3.62,2.2-6.15,2.2h-3.8Zm3.85-27.75c-1.63,0-2.45-.83-2.45-2.5s.82-2.45,2.45-2.45,2.4.82,2.4,2.45-.8,2.5-2.4,2.5Zm6.35,0c-1.63,0-2.45-.83-2.45-2.5s.82-2.45,2.45-2.45,2.4.82,2.4,2.45-.8,2.5-2.4,2.5Z"/>
  <path class="cls-1" d="m800.3,115.5h3.3v4.05h-3.8c-3.43,0-5.9-1.27-7.4-3.8-1.6,1.53-3.58,2.3-5.95,2.3-2.93,0-5.27-1.1-7-3.3-1.43-1.87-2.15-4.15-2.15-6.85,0-3.23.98-5.83,2.95-7.8,1.67-1.7,3.7-2.55,6.1-2.55,1.83,0,3.42.47,4.75,1.4v-2.15l4.35-2.3v16c0,3.33,1.62,5,4.85,5Zm-9.2-11.9c-1.23-1.37-2.75-2.05-4.55-2.05-1.47,0-2.67.59-3.6,1.78-.93,1.18-1.4,2.72-1.4,4.62s.47,3.48,1.4,4.65c.93,1.17,2.15,1.75,3.65,1.75,1.87,0,3.4-.77,4.6-2.3-.07-.6-.1-1.07-.1-1.4v-7.05Z"/>
  <path class="cls-1" d="m800.6,119.55v-4.05h2.65c3.47,0,5.2-1.82,5.2-5.45v-20.45l4.35-2.3v22.8c0,2.97-.88,5.32-2.65,7.05-1.67,1.6-3.85,2.4-6.55,2.4h-3Z"/>
  <path class="cls-1" d="m840.73,119.55c-3.03,0-5.4-1.02-7.1-3.05-1.47-1.77-2.2-4.02-2.2-6.75,0-2.97.83-5.54,2.47-7.73,1.65-2.18,4.01-3.79,7.08-4.82,3.23,1.1,5.67,2.83,7.3,5.2,1.47,2.1,2.2,4.55,2.2,7.35,0,3.17-.93,5.65-2.8,7.45-1.67,1.57-3.82,2.35-6.45,2.35h-.5Zm-3.25-28.25c-1.63,0-2.45-.83-2.45-2.5s.82-2.45,2.45-2.45,2.4.82,2.4,2.45-.8,2.5-2.4,2.5Zm3.1,24.2h.75c1.5,0,2.69-.52,3.57-1.55s1.33-2.42,1.33-4.15c0-4-1.75-6.87-5.25-8.6-3.5,1.73-5.25,4.58-5.25,8.55,0,1.77.43,3.17,1.3,4.2s2.05,1.55,3.55,1.55Zm3.3-24.2c-1.63,0-2.45-.83-2.45-2.5s.82-2.45,2.45-2.45,2.4.82,2.4,2.45-.8,2.5-2.4,2.5Z"/>
  <path class="cls-1" d="m865.72,116.9c0,3.73-.98,6.73-2.95,9-1.87,2.17-4.35,3.25-7.45,3.25-2,0-3.95-.5-5.85-1.5v-3.75c1.7.93,3.4,1.4,5.1,1.4,2.13,0,3.8-.72,5-2.15,1.2-1.43,1.8-3.42,1.8-5.95v-17.05l4.35-2.3v19.05Z"/>
  <path class="cls-1" d="m898.07,115.5v4.05h-6.2c-.13,2.87-1.37,5.23-3.7,7.1-1.97,1.53-4.2,2.3-6.7,2.3-2.07,0-4.02-.48-5.85-1.45v-3.8c1.77.93,3.52,1.4,5.25,1.4s3.31-.55,4.62-1.65c1.32-1.1,1.99-2.42,2.03-3.95-1.73-.07-3.02-.13-3.85-.2-3.6-.2-6.32-1.42-8.15-3.65-1.53-1.87-2.3-4.28-2.3-7.25,0-3.63.97-6.47,2.9-8.5,1.73-1.8,4.02-2.7,6.85-2.7s5.25.88,6.85,2.65c1.37,1.57,2.05,3.62,2.05,6.15v9.5h6.2Zm-10.55-9.2c0-3.4-1.52-5.1-4.55-5.1-1.73,0-3.08.62-4.05,1.88s-1.45,2.99-1.45,5.22c0,4.37,2.13,6.68,6.4,6.95.8.1,2.02.18,3.65.25v-9.2Z"/>
  <path class="cls-1" d="m910.82,115.35c1.33-5.03,3.53-9.23,6.6-12.6,3.43-3.7,7.43-5.55,12-5.55,3.8,0,6.83,1.32,9.1,3.95,1.9,2.23,2.85,4.98,2.85,8.25v1.3c0,2.9-.88,5.15-2.65,6.75-1.53,1.4-3.55,2.1-6.05,2.1h-20.7c-2.77,0-4.95-.88-6.55-2.65-1.6,1.77-3.78,2.65-6.55,2.65h-3.8v-4.05h3.3c3.27,0,4.9-1.67,4.9-5v-7l4.3-2.3v9.3c0,2.8,1.08,4.42,3.25,4.85Zm26.25-5.05v-.9c0-2.6-.8-4.67-2.4-6.2-1.4-1.33-3.13-2-5.2-2-3.53,0-6.72,1.63-9.55,4.9-2.17,2.5-3.83,5.63-5,9.4h17.5c3.1,0,4.65-1.73,4.65-5.2Z"/>
  <path class="cls-1" d="m955.85,119.55l2.1-4.05h8.9c1.33,0,2.27-.33,2.83-1,.55-.67.82-1.82.82-3.45,0-4.43-2.05-7.77-6.15-10l2.2-3.7c5.23,3.07,7.97,7.3,8.2,12.7.07,1.93.51,3.33,1.33,4.17.82.85,2.12,1.28,3.92,1.28h2.95v4.05h-3.3c-2.77,0-4.93-.88-6.5-2.65-1.1,1.77-2.95,2.65-5.55,2.65h-11.75Z"/>
  <path class="cls-1" d="m979.95,119.55v-4.05h6.85c6.77,0,12.12-2.23,16.05-6.7-2.77-5.1-6.13-7.65-10.1-7.65-2.7,0-5.48,1.43-8.35,4.3v-4c2.8-2.83,5.77-4.25,8.9-4.25,2.57,0,5.05.92,7.45,2.77,2.4,1.85,4.52,4.49,6.35,7.92v2.2c-4.9,6.3-11.68,9.45-20.35,9.45h-6.8Zm14.65,9.95c-1.63,0-2.45-.83-2.45-2.5s.82-2.45,2.45-2.45,2.4.82,2.4,2.45-.8,2.5-2.4,2.5Z"/>
  <path class="cls-1" d="m1026.4,117.95c-1.27.5-2.82.75-4.65.75-2.97,0-5.3-1.12-7-3.35-1.43-1.9-2.15-4.28-2.15-7.15,0-3.53.95-6.3,2.85-8.3,1.7-1.8,3.93-2.7,6.7-2.7s5.02.88,6.55,2.65c1.37,1.57,2.05,3.62,2.05,6.15v10.9c0,3.77-.98,6.75-2.95,8.95-1.87,2.07-4.35,3.1-7.45,3.1-2.07,0-4.02-.48-5.85-1.45v-3.8c1.77.93,3.52,1.4,5.25,1.4,1.97,0,3.53-.62,4.7-1.88,1.17-1.25,1.82-3.01,1.95-5.27Zm0-11.75c0-3.33-1.42-5-4.25-5-1.67,0-2.97.62-3.92,1.85-.95,1.23-1.42,2.92-1.42,5.05s.46,3.78,1.38,5.03c.92,1.25,2.16,1.88,3.72,1.88,2.2,0,3.7-.62,4.5-1.85v-6.95Z"/>
  <path class="cls-1" d="m1036.6,86.6l1.15-2.15h1.35c-.33-.6-.5-1.22-.5-1.85,0-1,.37-1.86,1.1-2.58.73-.72,1.6-1.07,2.6-1.07.83,0,1.63.27,2.4.8v2.2c-.73-.57-1.43-.85-2.1-.85-1.23,0-1.85.55-1.85,1.65,0,.57.23,1.13.7,1.7h4.55l-1.15,2.15h-8.25Zm2.65,32.95v-27.95l4.3-2.3v30.25h-4.3Z"/>
  <path class="cls-1" d="m1088.82,115.5h3.35v4.05h-3.8c-2.7,0-4.85-.83-6.45-2.5-1.57,1.6-3.78,2.43-6.65,2.5h-6.55c-3.27,0-4.9,1.67-4.9,5v8.45l-4.3,2.3v-10.9c0-2.77.8-4.95,2.4-6.55,1.43-1.47,3.33-2.25,5.7-2.35-1.2-1.93-1.8-4.3-1.8-7.1,0-3.63.95-6.47,2.85-8.5,1.7-1.8,3.93-2.7,6.7-2.7s5.02.88,6.55,2.65c1.37,1.57,2.05,3.62,2.05,6.15v4.5c0,3.33,1.62,5,4.85,5Zm-9.15-4.65v-4.65c0-3.33-1.43-5-4.3-5-1.67,0-2.96.62-3.88,1.88s-1.38,2.99-1.38,5.22.43,4.03,1.3,5.3c.87,1.27,2.08,1.9,3.65,1.9,3.07,0,4.6-1.55,4.6-4.65Z"/>
  <path class="cls-1" d="m1089.17,119.55v-4.05h3.3c3.27,0,4.9-1.67,4.9-5v-10.35l4.3-2.3v12.8c0,2.83-.85,5.07-2.55,6.7-1.57,1.47-3.62,2.2-6.15,2.2h-3.8Zm3.85-27.75c-1.63,0-2.45-.83-2.45-2.5s.82-2.45,2.45-2.45,2.4.82,2.4,2.45-.8,2.5-2.4,2.5Zm3.15-5.95c-1.47,0-2.2-.75-2.2-2.25s.73-2.2,2.2-2.2,2.2.73,2.2,2.2-.73,2.25-2.2,2.25Zm3.2,5.95c-1.63,0-2.45-.83-2.45-2.5s.82-2.45,2.45-2.45,2.4.82,2.4,2.45-.8,2.5-2.4,2.5Z"/>
  <path class="cls-1" d="m1123.3,113.7c1.83,0,2.78.95,2.85,2.85,0,.93-.29,1.71-.88,2.33-.58.62-1.34.92-2.27.92-2.07,0-3.1-1.27-3.1-3.8v-6.45l2.1-.6.05,4.75h1.25Z"/>
  <path class="cls-1" d="m1131.4,119.55v-4.05l7.95-8.85c2.4-2.67,4.02-4.74,4.88-6.22.85-1.48,1.27-2.97,1.27-4.47,0-1.4-.5-2.53-1.5-3.4-1-.87-2.33-1.3-4-1.3-2,0-4.12.73-6.35,2.2l-1.95-2.8c2.97-2.27,6-3.4,9.1-3.4,2.9,0,5.25.85,7.05,2.55,1.7,1.57,2.55,3.62,2.55,6.15,0,1.63-.38,3.21-1.15,4.72-.77,1.52-2.1,3.36-4,5.53l-8.3,9.5h12.75v3.85h-18.3Z"/>
  <path class="cls-1" d="m1174.85,117.25c-1.93,1.93-4.53,2.9-7.8,2.9-3.73,0-6.7-1.23-8.9-3.7-1.9-2.17-2.85-4.88-2.85-8.15,0-3.67,1.23-6.67,3.7-9,2.13-2.03,4.72-3.05,7.75-3.05s5.52.9,7.75,2.7l-1.2,2.4c-1.77-1.2-3.7-1.8-5.8-1.8-2.23,0-4.07.83-5.5,2.5-1.43,1.67-2.15,3.8-2.15,6.4s.8,4.6,2.4,6.2c1.47,1.43,3.3,2.15,5.5,2.15s4.18-.68,5.75-2.05l1.35,2.5Z"/>
  <path class="cls-1" d="m1184.85,99.1h.25c1.7-1.9,4.05-2.85,7.05-2.85,3.77,0,6.22,1.35,7.35,4.05,1.93-2.7,4.68-4.05,8.25-4.05,5.47,0,8.2,3.23,8.2,9.7v13.6h-4.3v-12.65c0-2.5-.44-4.28-1.32-5.35-.88-1.07-2.36-1.6-4.43-1.6s-3.95.92-5.65,2.75c.2.93.3,2.02.3,3.25v13.6h-4.3v-13c0-2.3-.46-3.97-1.38-5.03-.92-1.05-2.39-1.57-4.42-1.57-.97,0-1.97.25-3,.75-1.03.5-1.8,1.1-2.3,1.8v17.05h-4.3v-22.7h3.6l.4,2.25Z"/>
  <path class="cls-1" d="m36.15,192.5h3.3v4.05h-3.8c-3.43,0-5.9-1.27-7.4-3.8-1.6,1.53-3.58,2.3-5.95,2.3-2.93,0-5.27-1.1-7-3.3-1.43-1.87-2.15-4.15-2.15-6.85,0-3.23.98-5.83,2.95-7.8,1.67-1.7,3.7-2.55,6.1-2.55,1.83,0,3.42.47,4.75,1.4v-2.15l4.35-2.3v16c0,3.33,1.62,5,4.85,5Zm-9.2-11.9c-1.23-1.37-2.75-2.05-4.55-2.05-1.47,0-2.67.59-3.6,1.78-.93,1.18-1.4,2.72-1.4,4.62s.47,3.48,1.4,4.65c.93,1.17,2.15,1.75,3.65,1.75,1.87,0,3.4-.77,4.6-2.3-.07-.6-.1-1.07-.1-1.4v-7.05Z"/>
  <path class="cls-1" d="m53.85,192.5h3.3v4.05h-3.8c-2.77,0-4.95-.88-6.55-2.65-1.6,1.77-3.78,2.65-6.55,2.65h-3.8v-4.05h3.3c3.27,0,4.9-1.67,4.9-5v-10.35l4.3-2.3v12.65c0,3.33,1.63,5,4.9,5Zm-11.95,9.05c1.6,0,2.4.83,2.4,2.5s-.8,2.45-2.4,2.45-2.45-.82-2.45-2.45.82-2.5,2.45-2.5Zm6.35,0c1.6,0,2.4.83,2.4,2.5s-.8,2.45-2.4,2.45-2.45-.82-2.45-2.45.82-2.5,2.45-2.5Z"/>
  <path class="cls-1" d="m54.15,196.55v-4.05h9c-1.53-1.7-2.3-4.07-2.3-7.1,0-3.63.95-6.47,2.85-8.5,1.67-1.8,3.88-2.7,6.65-2.7s5.03.88,6.6,2.65c1.33,1.57,2,3.62,2,6.15v4.75c-.03,2.77-.85,4.95-2.45,6.55-1.57,1.5-3.65,2.25-6.25,2.25h-16.1Zm20.5-13.35c0-3.33-1.43-5-4.3-5-1.63,0-2.92.62-3.85,1.88-.93,1.25-1.4,2.99-1.4,5.22s.45,3.95,1.35,5.25c.9,1.3,2.1,1.95,3.6,1.95,3.07,0,4.6-1.6,4.6-4.8v-4.5Zm-4.2-14.1c-1.63,0-2.45-.83-2.45-2.5s.82-2.45,2.45-2.45,2.4.82,2.4,2.45-.8,2.5-2.4,2.5Z"/>
  <path class="cls-1" d="m121.32,195.35c-3.17,1.9-5.08,3.2-5.75,3.9-1.33,1.3-2,2.92-2,4.85,0,2.13.73,3.86,2.2,5.17,1.47,1.32,3.37,1.98,5.7,1.98,3.67-.03,6.73-.92,9.2-2.65v4.05c-2.87,1.77-6,2.65-9.4,2.65-3.7,0-6.67-1.22-8.9-3.65-1.93-2.07-2.9-4.62-2.9-7.65,0-2.27.6-4.19,1.8-5.78,1.2-1.58,3.32-3.24,6.35-4.97-2.73-2-5.53-5.13-8.4-9.4v-2.2c1.63-2.33,3.55-4.16,5.75-5.47,2.2-1.32,4.43-1.97,6.7-1.97s4.47.67,6.7,2.02c2.23,1.35,4.15,3.19,5.75,5.53v2.1c-1.7,2.57-4.52,5.42-8.45,8.55.73.07,1.32.1,1.75.1h13.2l.05,4.05h-13.6c-1.97,0-3.88-.4-5.75-1.2Zm-8.1-12.55c3,4.1,5.73,6.82,8.2,8.15,3.23-2.2,6.13-4.95,8.7-8.25-2.47-3-5.28-4.52-8.45-4.55-3.2,0-6.02,1.55-8.45,4.65Z"/>
  <path class="cls-1" d="m137.67,196.55v-4.05h9c-1.53-1.7-2.3-4.07-2.3-7.1,0-3.63.95-6.47,2.85-8.5,1.67-1.8,3.88-2.7,6.65-2.7s5.03.88,6.6,2.65c1.33,1.57,2,3.62,2,6.15v4.75c-.03,2.77-.85,4.95-2.45,6.55-1.57,1.5-3.65,2.25-6.25,2.25h-16.1Zm13.05-27.4c-1.63,0-2.45-.83-2.45-2.5s.82-2.45,2.45-2.45,2.4.82,2.4,2.45-.8,2.5-2.4,2.5Zm7.45,14.05c0-3.33-1.43-5-4.3-5-1.63,0-2.92.62-3.85,1.88-.93,1.25-1.4,2.99-1.4,5.22s.45,3.95,1.35,5.25c.9,1.3,2.1,1.95,3.6,1.95,3.07,0,4.6-1.6,4.6-4.8v-4.5Zm-1.1-14.05c-1.63,0-2.45-.83-2.45-2.5s.82-2.45,2.45-2.45,2.4.82,2.4,2.45-.8,2.5-2.4,2.5Z"/>
  <path class="cls-1" d="m183.27,194.95c-1.27.5-2.82.75-4.65.75-2.97,0-5.3-1.12-7-3.35-1.43-1.9-2.15-4.28-2.15-7.15,0-3.53.95-6.3,2.85-8.3,1.7-1.8,3.93-2.7,6.7-2.7s5.02.88,6.55,2.65c1.37,1.57,2.05,3.62,2.05,6.15v10.9c0,3.77-.98,6.75-2.95,8.95-1.87,2.07-4.35,3.1-7.45,3.1-2.07,0-4.02-.48-5.85-1.45v-3.8c1.77.93,3.52,1.4,5.25,1.4,1.97,0,3.53-.62,4.7-1.88,1.17-1.25,1.82-3.01,1.95-5.27Zm0-11.75c0-3.33-1.42-5-4.25-5-1.67,0-2.97.62-3.92,1.85-.95,1.23-1.42,2.92-1.42,5.05s.46,3.78,1.38,5.03c.92,1.25,2.16,1.88,3.72,1.88,2.2,0,3.7-.62,4.5-1.85v-6.95Z"/>
  <path class="cls-1" d="m245.44,182c-2.23-2.33-4.57-3.5-7-3.5-1.3,0-2.33.38-3.1,1.15-.77.77-1.15,1.8-1.15,3.1,0,1.43.43,2.55,1.3,3.35.87.8,2.55,1.63,5.05,2.5,2.5.9,4.2,1.75,5.1,2.55,1.33,1.13,2,2.68,2,4.65,0,3.13-1.48,5.67-4.45,7.6-2.7,1.77-6.22,2.65-10.55,2.65-5.27,0-9.23-1.53-11.9-4.6-1.97-2.27-2.95-5.07-2.95-8.4,0-2.8.7-5.2,2.1-7.2l4.15-.9c-1.5,2.37-2.25,4.92-2.25,7.65,0,2.87.97,5.17,2.9,6.9,1.9,1.67,4.55,2.5,7.95,2.5,3.63,0,6.43-.72,8.4-2.15,1.53-1.13,2.3-2.5,2.3-4.1,0-.9-.34-1.63-1.02-2.2-.68-.57-2.04-1.2-4.07-1.9-2.8-1-4.73-2-5.8-3-1.6-1.47-2.4-3.43-2.4-5.9,0-2.7.95-4.82,2.85-6.35,1.47-1.17,3.13-1.75,5-1.75,3.07,0,5.58,1.12,7.55,3.35v4Zm-16.15,32.9c-1.63,0-2.45-.83-2.45-2.5s.82-2.45,2.45-2.45,2.4.82,2.4,2.45-.8,2.5-2.4,2.5Zm6.35,0c-1.63,0-2.45-.83-2.45-2.5s.82-2.45,2.45-2.45,2.4.82,2.4,2.45-.8,2.5-2.4,2.5Z"/>
  <path class="cls-1" d="m251.14,196.55l2.1-4.05h8.9c1.33,0,2.27-.33,2.83-1,.55-.67.82-1.82.82-3.45,0-4.43-2.05-7.77-6.15-10l2.2-3.7c5.23,3.07,7.97,7.3,8.2,12.7.07,1.93.51,3.33,1.33,4.17.82.85,2.12,1.28,3.92,1.28h2.95v4.05h-3.3c-2.77,0-4.93-.88-6.5-2.65-1.1,1.77-2.95,2.65-5.55,2.65h-11.75Zm10.85-27.75c-1.63,0-2.45-.83-2.45-2.5s.82-2.45,2.45-2.45,2.4.82,2.4,2.45-.8,2.5-2.4,2.5Z"/>
  <path class="cls-1" d="m275.24,196.55v-4.05h2.65c3.47,0,5.2-1.82,5.2-5.45v-20.45l4.35-2.3v22.8c0,2.97-.88,5.32-2.65,7.05-1.67,1.6-3.85,2.4-6.55,2.4h-3Z"/>
  <path class="cls-1" d="m296.44,196.55v-29.95l4.3-2.3v32.25h-4.3Z"/>
  <path class="cls-1" d="m329.76,163.6l1.15-2.15h1.35c-.33-.6-.5-1.23-.5-1.9,0-.97.37-1.81,1.1-2.53.73-.72,1.58-1.07,2.55-1.07.83,0,1.63.27,2.4.8v2.2c-.7-.57-1.4-.85-2.1-.85-1.23,0-1.85.57-1.85,1.7,0,.53.25,1.08.75,1.65h4.55l-1.15,2.15h-8.25Zm11.35,32.95c-2.9,0-5.13-.93-6.7-2.8-1.33-1.6-2-3.63-2-6.1v-19.05l4.3-2.3v21.2c0,3.33,1.63,5,4.9,5h3.3v4.05h-3.8Z"/>
  <path class="cls-1" d="m386.61,192.5h3.3v4.05h-3.8c-2.67,0-4.75-.78-6.25-2.35-1.37,1.57-3.3,2.35-5.8,2.35h-32.15v-4.05h9.3l.15-.55v-25.35l4.3-2.3v18.3c3.8-5.6,8.52-8.4,14.15-8.4,3.77,0,6.78,1.32,9.05,3.95,1.93,2.23,2.9,4.98,2.9,8.25v1.2c0,3.27,1.62,4.9,4.85,4.9Zm-9.2-4.7v-1.4c0-2.6-.8-4.67-2.4-6.2-1.37-1.33-3.08-2-5.15-2-3.43,0-6.53,1.55-9.3,4.65-2.07,2.33-3.7,5.25-4.9,8.75v.9h18.05c1.43,0,2.41-.33,2.93-1,.52-.67.77-1.9.77-3.7Z"/>
  <path class="cls-1" d="m419.51,192.5h3.25v4.05h-3.3c-2.7,0-4.87-.31-6.5-.92-1.63-.62-3.15-1.71-4.55-3.28-4.2,2.8-9.1,4.2-14.7,4.2h-6.8v-4.05h6.85c6.77,0,12.12-2.23,16.05-6.7-2.77-5.1-6.13-7.65-10.1-7.65-2.7,0-5.48,1.43-8.35,4.3v-4c2.8-2.83,5.77-4.25,8.9-4.25,2.57,0,5.05.92,7.45,2.77,2.4,1.85,4.52,4.49,6.35,7.92v2.2c-1.03,1.3-2.02,2.35-2.95,3.15,1.8,1.5,4.6,2.25,8.4,2.25Zm-17.45-23.7c-1.63,0-2.45-.83-2.45-2.5s.82-2.45,2.45-2.45,2.4.82,2.4,2.45-.8,2.5-2.4,2.5Z"/>
  <path class="cls-1" d="m419.76,196.55v-4.05h2.65c3.47,0,5.2-1.82,5.2-5.45v-20.45l4.35-2.3v22.8c0,2.97-.88,5.32-2.65,7.05-1.67,1.6-3.85,2.4-6.55,2.4h-3Z"/>
  <path class="cls-1" d="m440.96,196.55v-29.95l4.3-2.3v32.25h-4.3Z"/>
  <path class="cls-1" d="m506.79,192.5h3.3v4.05h-3.8c-1.73,0-3.23-.35-4.5-1.05-.4,3.4-1.88,6.05-4.45,7.95-2.3,1.73-5.15,2.6-8.55,2.6-4.33,0-7.7-1.53-10.1-4.6-1.83-2.37-2.75-5.17-2.75-8.4,0-2.8.7-5.2,2.1-7.2l4.15-.9c-1.5,2.37-2.25,4.92-2.25,7.65s.87,5.1,2.6,6.9c1.63,1.67,3.72,2.5,6.25,2.5,2.93,0,5.2-.85,6.8-2.55,1.33-1.43,2-3.3,2-5.6v-16.7l4.3-2.3v12.65c0,3.33,1.63,5,4.9,5Zm-18.25-18.5c-1.63,0-2.45-.83-2.45-2.5s.82-2.45,2.45-2.45,2.4.82,2.4,2.45-.8,2.5-2.4,2.5Z"/>
  <path class="cls-1" d="m524.48,192.5h3.3v4.05h-3.8c-2.77,0-4.95-.88-6.55-2.65-1.6,1.77-3.78,2.65-6.55,2.65h-3.8v-4.05h3.3c3.27,0,4.9-1.67,4.9-5v-10.35l4.3-2.3v12.65c0,3.33,1.63,5,4.9,5Zm-11.95,9.05c1.6,0,2.4.83,2.4,2.5s-.8,2.45-2.4,2.45-2.45-.82-2.45-2.45.82-2.5,2.45-2.5Zm6.35,0c1.6,0,2.4.83,2.4,2.5s-.8,2.45-2.4,2.45-2.45-.82-2.45-2.45.82-2.5,2.45-2.5Z"/>
  <path class="cls-1" d="m524.79,196.55v-4.05h3.3c3.27,0,4.9-1.67,4.9-5v-10.35l4.3-2.3v12.8c0,2.83-.85,5.07-2.55,6.7-1.57,1.47-3.62,2.2-6.15,2.2h-3.8Zm8.05,9.95c-1.63,0-2.45-.83-2.45-2.5s.82-2.45,2.45-2.45,2.4.82,2.4,2.45-.8,2.5-2.4,2.5Z"/>
  <path class="cls-1" d="m543.64,163.6l1.15-2.15h1.35c-.33-.6-.5-1.22-.5-1.85,0-1,.37-1.86,1.1-2.58.73-.72,1.6-1.07,2.6-1.07.83,0,1.63.27,2.4.8v2.2c-.73-.57-1.43-.85-2.1-.85-1.23,0-1.85.55-1.85,1.65,0,.57.23,1.13.7,1.7h4.55l-1.15,2.15h-8.25Zm2.65,32.95v-27.95l4.3-2.3v30.25h-4.3Z"/>
  <path class="cls-1" d="m561.73,190.7c1.83,0,2.78.95,2.85,2.85,0,.93-.29,1.71-.88,2.33-.58.62-1.34.92-2.27.92-2.07,0-3.1-1.27-3.1-3.8v-6.45l2.1-.6.05,4.75h1.25Z"/>
  <path class="cls-1" d="m581.59,164.9v31.65h-4.65v-26.55l-5.85,3.4-2.25-3.45,8.1-5.05h4.65Z"/>
  <path class="cls-1" d="m606.54,168.75h-11.75v8.05c.8-.13,1.77-.2,2.9-.2,3.47,0,6.2.92,8.2,2.75,1.87,1.7,2.8,4.02,2.8,6.95,0,3.4-1.18,6.13-3.55,8.2-2,1.77-4.4,2.65-7.2,2.65-3.5,0-6.62-1.22-9.35-3.65l1.85-2.8c2.2,1.57,4.45,2.35,6.75,2.35,2.13,0,3.77-.57,4.92-1.7,1.15-1.13,1.73-2.75,1.73-4.85,0-4.13-2.42-6.2-7.25-6.2-2.13,0-4.27.22-6.4.65v-16.05h16.35v3.85Z"/>
  <path class="cls-1" d="m633.19,194.25c-1.93,1.93-4.53,2.9-7.8,2.9-3.73,0-6.7-1.23-8.9-3.7-1.9-2.17-2.85-4.88-2.85-8.15,0-3.67,1.23-6.67,3.7-9,2.13-2.03,4.72-3.05,7.75-3.05s5.52.9,7.75,2.7l-1.2,2.4c-1.77-1.2-3.7-1.8-5.8-1.8-2.23,0-4.07.83-5.5,2.5-1.43,1.67-2.15,3.8-2.15,6.4s.8,4.6,2.4,6.2c1.47,1.43,3.3,2.15,5.5,2.15s4.18-.68,5.75-2.05l1.35,2.5Z"/>
  <path class="cls-1" d="m643.19,176.1h.25c1.7-1.9,4.05-2.85,7.05-2.85,3.77,0,6.22,1.35,7.35,4.05,1.93-2.7,4.68-4.05,8.25-4.05,5.47,0,8.2,3.23,8.2,9.7v13.6h-4.3v-12.65c0-2.5-.44-4.28-1.32-5.35-.88-1.07-2.36-1.6-4.43-1.6s-3.95.92-5.65,2.75c.2.93.3,2.02.3,3.25v13.6h-4.3v-13c0-2.3-.46-3.97-1.38-5.03-.92-1.05-2.39-1.57-4.42-1.57-.97,0-1.97.25-3,.75-1.03.5-1.8,1.1-2.3,1.8v17.05h-4.3v-22.7h3.6l.4,2.25Z"/>
  <path class="cls-1" d="m701.11,196.55l2.1-4.05h8.9c1.33,0,2.28-.33,2.83-1,.55-.67.82-1.82.82-3.45,0-4.43-2.05-7.77-6.15-10l2.2-3.7c5.23,3.07,7.97,7.3,8.2,12.7.07,1.93.51,3.33,1.33,4.17.82.85,2.12,1.28,3.92,1.28h2.95v4.05h-3.3c-2.77,0-4.93-.88-6.5-2.65-1.1,1.77-2.95,2.65-5.55,2.65h-11.75Z"/>
  <path class="cls-1" d="m725.21,196.55v-4.05h3.3c3.27,0,4.9-1.67,4.9-5v-10.35l4.3-2.3v12.8c0,2.83-.85,5.07-2.55,6.7-1.57,1.47-3.62,2.2-6.15,2.2h-3.8Zm2.65,9.95c-1.63,0-2.45-.83-2.45-2.5s.82-2.45,2.45-2.45,2.4.82,2.4,2.45-.8,2.5-2.4,2.5Zm6.35,0c-1.63,0-2.45-.83-2.45-2.5s.82-2.45,2.45-2.45,2.4.82,2.4,2.45-.8,2.5-2.4,2.5Z"/>
  <path class="cls-1" d="m742.71,196.55l2.1-4.05h8.9c1.33,0,2.27-.33,2.83-1,.55-.67.82-1.82.82-3.45,0-4.43-2.05-7.77-6.15-10l2.2-3.7c5.23,3.07,7.97,7.3,8.2,12.7.07,1.93.51,3.33,1.33,4.17.82.85,2.12,1.28,3.92,1.28h2.95v4.05h-3.3c-2.77,0-4.93-.88-6.5-2.65-1.1,1.77-2.95,2.65-5.55,2.65h-11.75Z"/>
  <path class="cls-1" d="m799.41,192.5h3.25v4.05h-3.3c-2.7,0-4.87-.31-6.5-.92-1.63-.62-3.15-1.71-4.55-3.28-4.2,2.8-9.1,4.2-14.7,4.2h-6.8v-4.05h6.85c6.77,0,12.12-2.23,16.05-6.7-2.77-5.1-6.13-7.65-10.1-7.65-2.7,0-5.48,1.43-8.35,4.3v-4c2.8-2.83,5.77-4.25,8.9-4.25,2.57,0,5.05.92,7.45,2.77,2.4,1.85,4.52,4.49,6.35,7.92v2.2c-1.03,1.3-2.02,2.35-2.95,3.15,1.8,1.5,4.6,2.25,8.4,2.25Zm-16.35,9.05c1.6,0,2.4.82,2.4,2.45s-.8,2.5-2.4,2.5-2.45-.83-2.45-2.5.82-2.45,2.45-2.45Z"/>
  <path class="cls-1" d="m799.66,196.55v-4.05h2.65c3.47,0,5.2-1.82,5.2-5.45v-20.45l4.35-2.3v22.8c0,2.97-.88,5.32-2.65,7.05-1.67,1.6-3.85,2.4-6.55,2.4h-3Z"/>
  <path class="cls-1" d="m820.86,196.55v-29.95l4.3-2.3v32.25h-4.3Z"/>
  <path class="cls-1" d="m887.63,192.5h3.3v4.05h-3.8c-1.8,0-3.42-.4-4.85-1.2-.47,3.43-2.02,6.13-4.65,8.1-2.33,1.73-5.22,2.6-8.65,2.6-4.47,0-7.92-1.5-10.35-4.5-1.87-2.33-2.8-5.12-2.8-8.35,0-2.83.68-5.25,2.05-7.25l4.3-.95c-1.53,2.37-2.3,4.95-2.3,7.75s.88,5.03,2.65,6.8c1.63,1.63,3.78,2.45,6.45,2.45,3.03,0,5.37-.9,7-2.7,1.4-1.53,2.1-3.5,2.1-5.9v-26.8l4.35-2.3v23.2c0,3.33,1.73,5,5.2,5Z"/>
  <path class="cls-1" d="m905.33,192.5h3.3v4.05h-3.8c-2.77,0-4.95-.88-6.55-2.65-1.6,1.77-3.78,2.65-6.55,2.65h-3.8v-4.05h3.3c3.27,0,4.9-1.67,4.9-5v-10.35l4.3-2.3v12.65c0,3.33,1.63,5,4.9,5Zm-11.95,9.05c1.6,0,2.4.83,2.4,2.5s-.8,2.45-2.4,2.45-2.45-.82-2.45-2.45.82-2.5,2.45-2.5Zm6.35,0c1.6,0,2.4.83,2.4,2.5s-.8,2.45-2.4,2.45-2.45-.82-2.45-2.45.82-2.5,2.45-2.5Z"/>
  <path class="cls-1" d="m950.33,192.5h3.3v4.05h-3.8c-2.67,0-4.75-.78-6.25-2.35-1.37,1.57-3.3,2.35-5.8,2.35h-32.15v-4.05h9.3l.15-.55v-25.35l4.3-2.3v18.3c3.8-5.6,8.52-8.4,14.15-8.4,3.77,0,6.78,1.32,9.05,3.95,1.93,2.23,2.9,4.98,2.9,8.25v1.2c0,3.27,1.62,4.9,4.85,4.9Zm-9.2-4.7v-1.4c0-2.6-.8-4.67-2.4-6.2-1.37-1.33-3.08-2-5.15-2-3.43,0-6.53,1.55-9.3,4.65-2.07,2.33-3.7,5.25-4.9,8.75v.9h18.05c1.43,0,2.41-.33,2.92-1s.77-1.9.77-3.7Z"/>
  <path class="cls-1" d="m968.03,192.5h3.3v4.05h-3.8c-2.77,0-4.95-.88-6.55-2.65-1.6,1.77-3.78,2.65-6.55,2.65h-3.8v-4.05h3.3c3.27,0,4.9-1.67,4.9-5v-10.35l4.3-2.3v12.65c0,3.33,1.63,5,4.9,5Zm-11.8-23.35c-1.63,0-2.45-.83-2.45-2.5s.82-2.45,2.45-2.45,2.4.82,2.4,2.45-.8,2.5-2.4,2.5Zm6.4,0c-1.63,0-2.45-.83-2.45-2.5s.82-2.45,2.45-2.45,2.4.82,2.4,2.45-.8,2.5-2.4,2.5Z"/>
  <path class="cls-1" d="m968.33,196.55v-4.05h4.5c3.23,0,4.85-1.67,4.85-5v-7l4.3-2.3v9.3c0,3.33,1.63,5,4.9,5h2.3c3.27,0,4.9-1.67,4.9-5v-8.7l4.3-2.25v10.95c0,3.33,1.62,5,4.85,5h2.35c3.27,0,4.9-1.67,4.9-5v-10.35l4.3-2.3v12.2c0,3.63,1.73,5.45,5.2,5.45h4.15v4.05h-4.5c-3,0-5.28-1.02-6.85-3.05-1.4,2-3.58,3.02-6.55,3.05h-3.45c-2.93,0-5.12-.98-6.55-2.95-1.43,1.93-3.57,2.92-6.4,2.95h-3.45c-2.87,0-5.05-.98-6.55-2.95-1.43,1.97-3.62,2.95-6.55,2.95h-4.95Z"/>
  <path class="cls-1" d="m1053.33,192.5h3.35v4.05h-3.8c-2.77,0-4.95-.88-6.55-2.65-1.7,2.43-4.18,3.65-7.45,3.65s-5.73-1.2-7.4-3.6c-1.57,1.73-3.75,2.6-6.55,2.6h-3.8v-4.05h3.3c3.27,0,4.9-1.67,4.9-5v-1.65c0-3.87.95-6.83,2.85-8.9,1.67-1.83,3.9-2.75,6.7-2.75,3.2,0,5.67,1.18,7.4,3.55,1.47,2.03,2.2,4.73,2.2,8.1v1.65c0,3.33,1.62,5,4.85,5Zm-14.45,1c1.63,0,2.93-.68,3.88-2.05.95-1.37,1.43-3.25,1.43-5.65,0-5.07-1.77-7.6-5.3-7.6s-5.25,2.53-5.25,7.6,1.75,7.7,5.25,7.7Z"/>
  <path class="cls-1" d="m1053.68,196.55v-4.05h2.65c3.47,0,5.2-1.82,5.2-5.45v-20.45l4.35-2.3v22.8c0,2.97-.88,5.32-2.65,7.05-1.67,1.6-3.85,2.4-6.55,2.4h-3Z"/>
  <path class="cls-1" d="m1074.88,196.55v-29.95l4.3-2.3v32.25h-4.3Z"/>
  <path class="cls-1" d="m1139.05,192.35c1.37-5.07,3.57-9.27,6.6-12.6,3.43-3.7,7.43-5.55,12-5.55,3.8,0,6.83,1.32,9.1,3.95,1.9,2.23,2.85,4.98,2.85,8.25v1.3c0,2.9-.88,5.15-2.65,6.75-1.53,1.4-3.55,2.1-6.05,2.1h-20.7c-1.73,0-3.23-.35-4.5-1.05-.4,3.4-1.88,6.05-4.45,7.95-2.3,1.73-5.15,2.6-8.55,2.6-4.33,0-7.7-1.53-10.1-4.6-1.83-2.37-2.75-5.17-2.75-8.4,0-2.8.7-5.2,2.1-7.2l4.15-.9c-1.5,2.37-2.25,4.92-2.25,7.65s.87,5.1,2.6,6.9c1.63,1.67,3.72,2.5,6.25,2.5,2.93,0,5.2-.85,6.8-2.55,1.33-1.43,2-3.3,2-5.6v-13.35l4.3-2.3v9.3c0,2.8,1.08,4.42,3.25,4.85Zm26.25-5.05v-.9c0-2.6-.8-4.67-2.4-6.2-1.4-1.33-3.13-2-5.2-2-3.57,0-6.77,1.62-9.6,4.85-2.17,2.53-3.82,5.68-4.95,9.45h17.5c3.1,0,4.65-1.73,4.65-5.2Zm-7.8-18.5c-1.63,0-2.45-.83-2.45-2.5s.82-2.45,2.45-2.45,2.4.82,2.4,2.45-.8,2.5-2.4,2.5Z"/>
  <path class="cls-1" d="m1189.85,192.5h3.3v4.05h-3.8c-1.7,0-3.17-.33-4.4-1-.3,3.3-1.45,5.93-3.45,7.9-1.83,1.8-4.13,2.7-6.9,2.7-2,0-3.95-.5-5.85-1.5v-3.75c1.7.93,3.4,1.4,5.1,1.4,2.13,0,3.8-.72,5-2.15s1.8-3.42,1.8-5.95v-17.05l4.3-2.3v.05l.05-.05v13.65c.3,2.67,1.92,4,4.85,4Z"/>
  <path class="cls-1" d="m1217.1,192.5v4.05h-26.95v-4.05h8.65c-1.63-2.1-2.45-4.68-2.45-7.75,0-3.4,1.17-6.1,3.5-8.1,1.9-1.6,4.1-2.42,6.6-2.45,3.53,0,6.28,1.42,8.25,4.25v4.05c-2.13-2.87-4.72-4.3-7.75-4.3-1.9,0-3.42.61-4.58,1.82-1.15,1.22-1.72,2.84-1.72,4.88,0,2.3.69,4.14,2.08,5.53,1.38,1.38,3.22,2.08,5.52,2.08h8.85Z"/>
  <path class="cls-1" d="m900.45,271.15v-.1c.07-1.67.95-2.5,2.65-2.5s2.65.87,2.65,2.6-.88,2.65-2.65,2.65-2.65-.88-2.65-2.65Z"/>
  <path class="cls-1" d="m934.7,269.5h3.3v4.05h-3.8c-3.43,0-5.9-1.27-7.4-3.8-1.6,1.53-3.58,2.3-5.95,2.3-2.93,0-5.27-1.1-7-3.3-1.43-1.87-2.15-4.15-2.15-6.85,0-3.23.98-5.83,2.95-7.8,1.67-1.7,3.7-2.55,6.1-2.55,1.83,0,3.42.47,4.75,1.4v-2.15l4.35-2.3v16c0,3.33,1.62,5,4.85,5Zm-9.2-11.9c-1.23-1.37-2.75-2.05-4.55-2.05-1.47,0-2.67.59-3.6,1.78-.93,1.18-1.4,2.72-1.4,4.62s.47,3.48,1.4,4.65c.93,1.17,2.15,1.75,3.65,1.75,1.87,0,3.4-.77,4.6-2.3-.07-.6-.1-1.07-.1-1.4v-7.05Z"/>
  <path class="cls-1" d="m967.6,269.5h3.25v4.05h-3.3c-2.7,0-4.87-.31-6.5-.92-1.63-.62-3.15-1.71-4.55-3.28-4.2,2.8-9.1,4.2-14.7,4.2h-6.8v-4.05h6.85c6.77,0,12.12-2.23,16.05-6.7-2.77-5.1-6.13-7.65-10.1-7.65-2.7,0-5.48,1.43-8.35,4.3v-4c2.8-2.83,5.77-4.25,8.9-4.25,2.57,0,5.05.92,7.45,2.77,2.4,1.85,4.52,4.49,6.35,7.92v2.2c-1.03,1.3-2.02,2.35-2.95,3.15,1.8,1.5,4.6,2.25,8.4,2.25Z"/>
  <path class="cls-1" d="m1000.45,269.5h3.25v4.05h-3.3c-2.7,0-4.87-.31-6.5-.92-1.63-.62-3.15-1.71-4.55-3.28-4.2,2.8-9.1,4.2-14.7,4.2h-6.8v-4.05h6.85c6.77,0,12.12-2.23,16.05-6.7-2.77-5.1-6.13-7.65-10.1-7.65-2.7,0-5.48,1.43-8.35,4.3v-4c2.8-2.83,5.77-4.25,8.9-4.25,2.57,0,5.05.92,7.45,2.77,2.4,1.85,4.52,4.49,6.35,7.92v2.2c-1.03,1.3-2.02,2.35-2.95,3.15,1.8,1.5,4.6,2.25,8.4,2.25Z"/>
  <path class="cls-1" d="m1016.45,269.35c1.33-5.03,3.53-9.23,6.6-12.6,3.43-3.7,7.43-5.55,12-5.55,3.8,0,6.83,1.32,9.1,3.95,1.9,2.23,2.85,4.98,2.85,8.25v1.3c0,2.9-.88,5.15-2.65,6.75-1.53,1.4-3.55,2.1-6.05,2.1h-20.7c-2.77,0-4.95-.88-6.55-2.65-1.6,1.77-3.78,2.65-6.55,2.65h-3.8v-4.05h3.3c3.27,0,4.9-1.67,4.9-5v-7l4.3-2.3v9.3c0,2.8,1.08,4.42,3.25,4.85Zm26.25-5.05v-.9c0-2.6-.8-4.67-2.4-6.2-1.4-1.33-3.13-2-5.2-2-3.53,0-6.72,1.63-9.55,4.9-2.17,2.5-3.83,5.63-5,9.4h17.5c3.1,0,4.65-1.73,4.65-5.2Z"/>
  <path class="cls-1" d="m1052.35,240.6l1.15-2.15h1.35c-.33-.6-.5-1.22-.5-1.85,0-1,.37-1.86,1.1-2.58.73-.72,1.6-1.07,2.6-1.07.83,0,1.63.27,2.4.8v2.2c-.73-.57-1.43-.85-2.1-.85-1.23,0-1.85.55-1.85,1.65,0,.57.23,1.13.7,1.7h4.55l-1.15,2.15h-8.25Zm2.65,32.95v-27.95l4.3-2.3v30.25h-4.3Z"/>
  <path class="cls-1" d="m1080.6,271.95c-1.27.5-2.82.75-4.65.75-2.97,0-5.3-1.12-7-3.35-1.43-1.9-2.15-4.28-2.15-7.15,0-3.53.95-6.3,2.85-8.3,1.7-1.8,3.93-2.7,6.7-2.7s5.02.88,6.55,2.65c1.37,1.57,2.05,3.62,2.05,6.15v10.9c0,3.77-.98,6.75-2.95,8.95-1.87,2.07-4.35,3.1-7.45,3.1-2.07,0-4.02-.48-5.85-1.45v-3.8c1.77.93,3.52,1.4,5.25,1.4,1.97,0,3.53-.62,4.7-1.88s1.82-3.01,1.95-5.27Zm0-11.75c0-3.33-1.42-5-4.25-5-1.67,0-2.97.62-3.92,1.85-.95,1.23-1.42,2.92-1.42,5.05s.46,3.78,1.38,5.03c.92,1.25,2.16,1.88,3.72,1.88,2.2,0,3.7-.62,4.5-1.85v-6.95Z"/>
  <path class="cls-1" d="m1130.05,270.85c0,3.83-1.33,6.88-4,9.15-2.37,2.03-5.4,3.05-9.1,3.05-4.33,0-7.7-1.53-10.1-4.6-1.83-2.37-2.75-5.17-2.75-8.4,0-2.8.7-5.2,2.1-7.2l4.15-.9c-1.5,2.37-2.25,4.92-2.25,7.65s.87,5.1,2.6,6.9c1.63,1.67,3.72,2.5,6.25,2.5,2.93,0,5.2-.85,6.8-2.55,1.33-1.43,2-3.3,2-5.6v-16.7l4.3-2.3v19Zm-13.1-19.45c-1.63,0-2.45-.83-2.45-2.5s.82-2.45,2.45-2.45,2.4.82,2.4,2.45-.8,2.5-2.4,2.5Z"/>
  <path class="cls-1" d="m1147.75,273.55c-2.9,0-5.13-.93-6.7-2.8-1.33-1.6-2-3.63-2-6.1v-21.05l4.3-2.3v23.2c0,3.33,1.63,5,4.9,5h3.3v4.05h-3.8Z"/>
  <path class="cls-1" d="m1148.55,273.55v-4.05h3.3c3.27,0,4.9-1.67,4.9-5v-10.35l4.3-2.3v12.8c0,2.83-.85,5.07-2.55,6.7-1.57,1.47-3.62,2.2-6.15,2.2h-3.8Zm10.2-27.75c-1.63,0-2.45-.83-2.45-2.5s.82-2.45,2.45-2.45,2.4.82,2.4,2.45-.8,2.5-2.4,2.5Z"/>
  <path class="cls-1" d="m1166.05,273.55l2.1-4.05h8.9c1.33,0,2.28-.33,2.83-1s.83-1.82.83-3.45c0-4.43-2.05-7.77-6.15-10l2.2-3.7c5.23,3.07,7.97,7.3,8.2,12.7.07,1.93.51,3.33,1.32,4.17.82.85,2.12,1.28,3.93,1.28h2.95v4.05h-3.3c-2.77,0-4.93-.88-6.5-2.65-1.1,1.77-2.95,2.65-5.55,2.65h-11.75Z"/>
  <path class="cls-1" d="m1217.1,269.5v4.05h-26.95v-4.05h8.65c-1.63-2.1-2.45-4.68-2.45-7.75,0-3.4,1.17-6.1,3.5-8.1,1.9-1.6,4.1-2.42,6.6-2.45,3.53,0,6.28,1.42,8.25,4.25v4.05c-2.13-2.87-4.72-4.3-7.75-4.3-1.9,0-3.42.61-4.58,1.82-1.15,1.22-1.72,2.84-1.72,4.88,0,2.3.69,4.14,2.08,5.53,1.38,1.38,3.22,2.08,5.52,2.08h8.85Z"/>
</svg>