<?xml version="1.0" encoding="UTF-8"?>
<svg id="Layer_2" data-name="Layer 2" xmlns="http://www.w3.org/2000/svg" width="299.67" height="69.29" viewBox="0 0 299.67 69.29">
  <defs>
    <style>
      .cls-1 {
        fill: #fff;
      }

      .cls-1, .cls-2 {
        stroke-width: 0px;
      }

      .cls-2 {
        fill: #273551;
      }
    </style>
  </defs>
  <g id="Layer_2-2" data-name="Layer 2">
    <g>
      <rect class="cls-1" y="0" width="299.67" height="63.54" rx="11.23" ry="11.23"/>
      <g>
        <path class="cls-2" d="m24.57,48.74c-2.83,0-5.05-.95-6.65-2.85-1.43-1.67-2.15-3.82-2.15-6.45v-5.1l6.25-3.3v8c0,1.33.28,2.28.83,2.83s1.46.83,2.72.83h16.3c1.27,0,2.17-.28,2.7-.85.53-.57.8-1.5.8-2.8v-9.2l6.3-3.3v12.9c0,3.03-.95,5.4-2.85,7.1-1.67,1.47-3.8,2.2-6.4,2.2h-17.85Zm4.8-23.25c-1,0-1.8-.31-2.4-.92-.6-.62-.9-1.42-.9-2.42s.3-1.75.9-2.35,1.4-.9,2.4-.9,1.79.29,2.38.88.88,1.38.88,2.38c0,2.23-1.08,3.35-3.25,3.35Zm7.7,0c-1,0-1.8-.3-2.4-.9-.6-.6-.9-1.42-.9-2.45,0-2.17,1.1-3.25,3.3-3.25,1,0,1.79.29,2.38.88s.88,1.38.88,2.38c0,2.23-1.08,3.35-3.25,3.35Z"/>
        <path class="cls-2" d="m69.87,48.74c-3.03,0-5.38-.97-7.05-2.9-1.43-1.67-2.15-3.82-2.15-6.45v-19.6l6.3-3.3v22.6c0,1.3.27,2.23.8,2.78s1.43.83,2.7.83h4.5v6.05h-5.1Z"/>
        <path class="cls-2" d="m104.57,42.69h4.2v6.05h-4.25c-2.63,0-4.74-.29-6.33-.88-1.58-.58-3.06-1.61-4.42-3.08-4.17,2.63-8.97,3.95-14.4,3.95h-7.4v-6.05h7.45c5.87,0,10.53-1.75,14-5.25-2.27-3.97-5.02-5.95-8.25-5.95-2.67,0-5.58,1.45-8.75,4.35v-5.55c2.8-3.07,5.97-4.6,9.5-4.6,2.6,0,5.13.95,7.6,2.85,2.47,1.9,4.65,4.6,6.55,8.1v2.5c-.53.7-1.23,1.48-2.1,2.35,1.33.8,3.53,1.2,6.6,1.2Z"/>
        <path class="cls-2" d="m122.97,42.69h4.5v6.05h-5.1c-2.6,0-4.72-.73-6.35-2.2-1.83,1.47-4.08,2.2-6.75,2.2h-3.5v-6.05h3.15c1.53,0,2.62-.33,3.27-1,.65-.67.98-1.8.98-3.4v-18.45l6.25-3.35v10.1l.05-.05v12.55c0,1.3.27,2.23.8,2.78s1.43.83,2.7.83Z"/>
        <path class="cls-2" d="m168.02,42.69h4.5v6.05h-5.1c-2.4,0-4.37-.62-5.9-1.85-1.53,1.23-3.45,1.85-5.75,1.85h-31.3v-6.05h8.95l.6-1.7v-21.15l6.3-3.35v14.4c3.4-3.47,7.3-5.2,11.7-5.2,3.97,0,7.12,1.37,9.45,4.1,2,2.3,3,5.15,3,8.55v1.05c0,2.2,1.18,3.3,3.55,3.3Zm-12.5,0c1.1,0,1.83-.22,2.17-.65.35-.43.53-1.35.53-2.75v-.95c0-2-.58-3.63-1.72-4.9-1.15-1.27-2.62-1.9-4.43-1.9-2.3,0-4.49.85-6.57,2.55-2.08,1.7-3.81,4.05-5.18,7.05v1.55h15.2Z"/>
        <path class="cls-2" d="m221.02,42.69h4.5v6.05h-5.1c-2.43,0-4.45-.65-6.05-1.95-1.6,1.3-3.62,1.95-6.05,1.95h-21.6c-2.43,0-4.45-.65-6.05-1.95-1.6,1.3-3.62,1.95-6.05,1.95h-5.1v-6.05h4.5c1.27,0,2.17-.28,2.7-.83.53-.55.8-1.47.8-2.78v-6.6l6.3-3.3v9.9c0,2.13.85,3.32,2.55,3.55,1.6-4.87,3.93-8.82,7-11.85,3.4-3.4,7.3-5.1,11.7-5.1,3.93,0,7.08,1.37,9.45,4.1,2,2.3,3,5.15,3,8.55v1.05c0,2.2,1.17,3.3,3.5,3.3Zm-12.95,0c1.2,0,2.03-.26,2.48-.78.45-.52.67-1.47.67-2.88v-.7c0-2-.57-3.63-1.7-4.9-1.13-1.27-2.6-1.9-4.4-1.9-2.6,0-5.02,1-7.27,3s-4.03,4.72-5.33,8.15h15.55Z"/>
        <path class="cls-2" d="m254.32,42.69h4.45v6.05h-5.1c-2.4,0-4.37-.62-5.9-1.85-1.8,1.9-4.17,2.85-7.1,2.85s-5.37-.95-7.1-2.85c-1.6,1.23-3.58,1.85-5.95,1.85h-5.1v-6.05h4.5c1.27,0,2.17-.28,2.7-.83.53-.55.8-1.47.8-2.78v-1.45c0-3.9,1.02-6.93,3.05-9.1,1.77-1.9,4.13-2.85,7.1-2.85,3.37,0,5.97,1.23,7.8,3.7,1.53,2.1,2.3,4.85,2.3,8.25v1.45c0,1.3.28,2.23.83,2.78s1.46.83,2.72.83Zm-13.65,1c2.53,0,3.8-2.07,3.8-6.2s-1.27-5.95-3.8-5.95-3.85,1.98-3.85,5.95,1.28,6.2,3.85,6.2Z"/>
        <path class="cls-2" d="m255.77,48.74v-6.05h3.15c1.53,0,2.62-.33,3.27-1,.65-.67.98-1.8.98-3.4v-18.45l6.25-3.35v21.85c0,3.23-.98,5.82-2.95,7.75-1.8,1.77-4.2,2.65-7.2,2.65h-3.5Z"/>
        <path class="cls-2" d="m278.42,48.74v-28.9l6.3-3.35v32.25h-6.3Z"/>
      </g>
    </g>
  </g>
</svg>