<?xml version="1.0" encoding="UTF-8"?>
<svg id="Layer_2" data-name="Layer 2" xmlns="http://www.w3.org/2000/svg" xmlns:xlink="http://www.w3.org/1999/xlink" viewBox="0 0 220.56 69.29">
  <defs>
    <style>
      .cls-1 {
        fill: #fff;
      }

      .cls-2 {
        fill: #273551;
      }

      .cls-3 {
        clip-path: url(#clippath);
      }

      .cls-4 {
        fill: none;
      }
    </style>
    <clipPath id="clippath">
      <rect class="cls-4" y="0" width="220.56" height="69.29"/>
    </clipPath>
  </defs>
  <g id="Layer_2-2" data-name="Layer 2">
    <g class="cls-3">
      <g>
        <rect class="cls-1" x="1.28" width="218" height="63.54" rx="9.58" ry="9.58"/>
        <g>
          <path class="cls-2" d="M24.88,45.07c-2.83,0-5.05-.95-6.65-2.85-1.43-1.67-2.15-3.82-2.15-6.45v-5.1l6.25-3.3v8c0,1.33,.28,2.28,.83,2.83s1.46,.83,2.72,.83h16.3c1.27,0,2.17-.28,2.7-.85,.53-.57,.8-1.5,.8-2.8v-9.2l6.3-3.3v12.9c0,3.03-.95,5.4-2.85,7.1-1.67,1.47-3.8,2.2-6.4,2.2H24.88Zm4.8-23.25c-1,0-1.8-.31-2.4-.92-.6-.62-.9-1.42-.9-2.42s.3-1.75,.9-2.35,1.4-.9,2.4-.9,1.79,.29,2.38,.88,.88,1.38,.88,2.38c0,2.23-1.08,3.35-3.25,3.35Zm7.7,0c-1,0-1.8-.3-2.4-.9-.6-.6-.9-1.42-.9-2.45,0-2.17,1.1-3.25,3.3-3.25,1,0,1.79,.29,2.38,.88s.88,1.38,.88,2.38c0,2.23-1.08,3.35-3.25,3.35Z"/>
          <path class="cls-2" d="M70.19,45.07c-3.03,0-5.38-.97-7.05-2.9-1.43-1.67-2.15-3.82-2.15-6.45V16.12l6.3-3.3v22.6c0,1.3,.27,2.23,.8,2.78s1.43,.83,2.7,.83h4.5v6.05h-5.1Z"/>
          <path class="cls-2" d="M90.08,39.02h4.5v6.05h-5.1c-2.43,0-4.45-.65-6.05-1.95-1.6,1.3-3.62,1.95-6.05,1.95h-5.1v-6.05h4.5c1.27,0,2.17-.28,2.7-.83,.53-.55,.8-1.47,.8-2.78v-9.25l6.3-3.3v12.55c0,1.3,.27,2.23,.8,2.78s1.43,.83,2.7,.83Zm-6.35,10.6c1,0,1.79,.29,2.38,.88,.58,.58,.88,1.38,.88,2.38,0,2.23-1.08,3.35-3.25,3.35-1,0-1.8-.3-2.4-.9-.6-.6-.9-1.42-.9-2.45,0-.97,.3-1.75,.9-2.35s1.4-.9,2.4-.9Z"/>
          <path class="cls-2" d="M94.29,56.22c-1,0-1.8-.3-2.4-.9-.6-.6-.9-1.42-.9-2.45,0-2.17,1.1-3.25,3.3-3.25,1,0,1.79,.29,2.38,.88,.58,.58,.88,1.38,.88,2.38,0,2.23-1.08,3.35-3.25,3.35Zm-2.7-11.15v-6.05h4.5c1.27,0,2.17-.28,2.7-.83,.53-.55,.8-1.47,.8-2.78v-9.25l6.3-3.3v12.85c0,3.03-.93,5.4-2.8,7.1-1.63,1.5-3.77,2.25-6.4,2.25h-5.1Zm10.4,11.15c-1,0-1.8-.3-2.4-.9s-.9-1.42-.9-2.45c0-2.17,1.1-3.25,3.3-3.25,1,0,1.79,.29,2.38,.88,.58,.58,.88,1.38,.88,2.38,0,2.23-1.08,3.35-3.25,3.35Z"/>
          <path class="cls-2" d="M127.14,41.97c0,3.87-1.07,7-3.2,9.4-1.97,2.23-4.57,3.35-7.8,3.35-2.1,0-4.15-.53-6.15-1.6v-5.5c1.73,.97,3.43,1.45,5.1,1.45,1.83,0,3.26-.59,4.27-1.78s1.53-2.82,1.53-4.92V26.22l6.25-3.35v19.1Z"/>
          <path class="cls-2" d="M132.14,45.07l3.15-6.05h7.9c1.7,0,2.55-.98,2.55-2.95,0-3.67-1.77-6.48-5.3-8.45l3.1-5.35c5.2,3.03,8,7.15,8.4,12.35,.13,1.67,.51,2.82,1.12,3.45,.62,.63,1.67,.95,3.17,.95h3.8v6.05h-4.15c-2.47,0-4.55-.68-6.25-2.05-1.23,1.37-3,2.05-5.3,2.05h-12.2Z"/>
          <path class="cls-2" d="M174.83,39.02h4.5v6.05h-5.1c-2.43,0-4.45-.65-6.05-1.95-1.6,1.3-3.62,1.95-6.05,1.95h-5.1v-6.05h4.5c1.27,0,2.17-.28,2.7-.83,.53-.55,.8-1.47,.8-2.78v-9.25l6.3-3.3v12.55c0,1.3,.27,2.23,.8,2.78s1.43,.83,2.7,.83Zm-13.05-20.55c-1,0-1.8-.3-2.4-.9-.6-.6-.9-1.42-.9-2.45,0-.97,.3-1.75,.9-2.35s1.4-.9,2.4-.9,1.79,.29,2.38,.88c.58,.58,.88,1.38,.88,2.38,0,2.23-1.08,3.35-3.25,3.35Zm7.65,0c-1,0-1.8-.31-2.4-.93-.6-.62-.9-1.42-.9-2.42s.31-1.75,.93-2.35c.62-.6,1.41-.9,2.38-.9s1.79,.29,2.38,.88c.58,.58,.88,1.38,.88,2.38,0,2.23-1.08,3.35-3.25,3.35Z"/>
          <path class="cls-2" d="M176.34,45.07v-6.05h3.15c1.53,0,2.62-.33,3.27-1,.65-.67,.98-1.8,.98-3.4V16.17l6.25-3.35v21.85c0,3.23-.98,5.82-2.95,7.75-1.8,1.77-4.2,2.65-7.2,2.65h-3.5Z"/>
          <path class="cls-2" d="M198.99,45.07V16.17l6.3-3.35V45.07h-6.3Z"/>
        </g>
      </g>
    </g>
  </g>
</svg>