<?xml version="1.0" encoding="UTF-8"?>
<svg id="Layer_2" data-name="Layer 2" xmlns="http://www.w3.org/2000/svg" width="1920" height="133.48" xmlns:xlink="http://www.w3.org/1999/xlink" viewBox="0 0 1920 133.48">
  <defs>
    <style>
      .cls-1 {
        fill: url(#linear-gradient);
      }

      .cls-1, .cls-2, .cls-3 {
        stroke-width: 0px;
      }

      .cls-2 {
        fill: none;
      }

      .cls-4 {
        clip-path: url(#clippath);
      }

      .cls-3 {
        fill: #e1eef0;
      }
    </style>
    <clipPath id="clippath">
      <rect class="cls-2" width="1920" height="133.48"/>
    </clipPath>
    <linearGradient id="linear-gradient" x1="-134.54" y1="409.3" x2="2545.1" y2="409.3" gradientUnits="userSpaceOnUse">
      <stop offset="0" stop-color="#6c90be"/>
      <stop offset="1" stop-color="#b0e5db"/>
    </linearGradient>
  </defs>
  <g id="Layer_1-2" data-name="Layer 1">
    <g class="cls-4">
      <path class="cls-3" d="m-92.38,725.41c180.22,47.64,182.04,33.67,368.45,33.67s186.41-34.24,372.82-34.24,186.41,34.24,372.82,34.24,186.41-34.24,372.82-34.24,186.41,34.24,372.83,34.24,186.41-34.24,372.83-34.24,196.98,81.31,377.2,33.67c47.63-12.59-21.5-65.82-21.5-115.09,0-49.27,34.24-49.27,34.24-98.54,0-49.27-34.24-49.27-34.24-98.54,0-49.27,34.24-49.27,34.24-98.54,0-49.27-34.24-49.27-34.24-98.54s34.24-49.27,34.24-98.54,26.14-69.4-21.5-81.99c-180.22-47.64-182.04-33.67-368.45-33.67-186.41,0-186.41,34.24-372.82,34.24-186.41,0-186.41-34.24-372.82-34.24-186.41,0-186.41,34.24-372.82,34.24-186.41,0-186.41-34.24-372.83-34.24-186.41,0-186.41,34.24-372.83,34.24-186.41,0-196.98-81.31-377.2-33.67-47.63,12.59,21.5,65.82,21.5,115.09,0,49.27-34.24,49.27-34.24,98.54,0,49.27,34.24,49.27,34.24,98.54,0,49.27-34.24,49.27-34.24,98.54,0,49.27,34.24,49.27,34.24,98.54,0,49.27-21.41,46.56-33.7,94.27-12.03,46.72-26.68,73.67,20.96,86.26Z"/>
      <path class="cls-1" d="m-92.38,737.64c252.31,66.69,256.6,33.67,517.58,33.67s260.98-34.24,521.95-34.24,260.98,34.24,521.95,34.24,260.98-34.24,521.95-34.24,274.02,100.36,526.33,33.67c66.69-17.63-21.5-85.53-21.5-154.51,0-68.98,34.24-68.98,34.24-137.95,0-68.98-34.24-68.98-34.24-137.95s34.24-68.98,34.24-137.96c0-68.98,45.19-103.78-21.5-121.41-252.31-66.69-256.6-33.67-517.58-33.67-260.98,0-260.98,34.24-521.95,34.24-260.98,0-260.98-34.24-521.95-34.24-260.98,0-260.98,34.24-521.95,34.24S151.18-18.83-101.13,47.86c-66.69,17.63,21.5,85.53,21.5,154.51,0,68.98-34.24,68.98-34.24,137.95,0,68.98,34.24,68.98,34.24,137.95s-16.48,66.89-33.7,133.69c-17.64,68.44-45.74,108.05,20.95,125.68Z"/>
    </g>
  </g>
</svg>