<?xml version="1.0" encoding="UTF-8"?>
<svg id="Layer_2" data-name="Layer 2" xmlns="http://www.w3.org/2000/svg" xmlns:xlink="http://www.w3.org/1999/xlink" viewBox="0 0 1922.33 682.91">
  <defs>
    <style>
      .cls-1 {
        fill: url(#linear-gradient-2);
      }

      .cls-2, .cls-3 {
        fill: #fff;
      }

      .cls-4 {
        opacity: .5;
      }

      .cls-5 {
        stroke-width: .84px;
      }

      .cls-5, .cls-6 {
        stroke-miterlimit: 10;
      }

      .cls-5, .cls-6, .cls-7, .cls-8 {
        fill: none;
      }

      .cls-5, .cls-6, .cls-8 {
        stroke: #fff;
      }

      .cls-6 {
        stroke-width: 3.16px;
      }

      .cls-9 {
        opacity: .1;
      }

      .cls-10 {
        clip-path: url(#clippath);
      }

      .cls-3 {
        font-family: Tajawal-Bold, Tajawal;
        font-size: 128.93px;
      }

      .cls-11 {
        fill: url(#linear-gradient-3);
      }

      .cls-12 {
        fill: url(#linear-gradient);
      }

      .cls-13 {
        fill: url(#linear-gradient-4);
      }

      .cls-14 {
        fill: #54b6c8;
      }

      .cls-8 {
        stroke-linecap: round;
        stroke-linejoin: round;
        stroke-width: 3.61px;
      }
    </style>
    <linearGradient id="linear-gradient" x1="49.72" y1="1019.12" x2="1881.95" y2="-211.24" gradientUnits="userSpaceOnUse">
      <stop offset="0" stop-color="#766fa4"/>
      <stop offset=".43" stop-color="#6fafcd"/>
      <stop offset=".73" stop-color="#82c4cf"/>
      <stop offset=".8" stop-color="#8ed1cf"/>
      <stop offset=".92" stop-color="#a0e6d1"/>
      <stop offset="1" stop-color="#a7eed2"/>
    </linearGradient>
    <clipPath id="clippath">
      <rect class="cls-7" x="1.82" y="131.2" width="1918.7" height="550.24"/>
    </clipPath>
    <linearGradient id="linear-gradient-2" x1="1768.69" y1="344.74" x2="1816.89" y2="344.74" gradientUnits="userSpaceOnUse">
      <stop offset=".47" stop-color="#fff"/>
      <stop offset="1" stop-color="#fff" stop-opacity=".05"/>
    </linearGradient>
    <linearGradient id="linear-gradient-3" y1="329.61" y2="329.61" xlink:href="#linear-gradient-2"/>
    <linearGradient id="linear-gradient-4" x1="1.74" y1="67.54" x2="1920.58" y2="67.54" gradientUnits="userSpaceOnUse">
      <stop offset="0" stop-color="#fff"/>
      <stop offset="1" stop-color="#fff"/>
    </linearGradient>
  </defs>
  <g id="Layer_1-2" data-name="Layer 1">
    <g>
      <g>
        <rect class="cls-12" y="131.24" width="1922.33" height="551.67"/>
        <g class="cls-10">
          <g class="cls-9">
            <g>
              <g>
                <line class="cls-8" x1="-.71" y1="-461.5" x2="-.71" y2="1468.51"/>
                <line class="cls-8" x1="57.78" y1="-461.5" x2="57.78" y2="1468.51"/>
                <line class="cls-8" x1="116.26" y1="-461.5" x2="116.26" y2="1468.51"/>
                <line class="cls-8" x1="174.75" y1="-461.5" x2="174.75" y2="1468.51"/>
                <line class="cls-8" x1="233.23" y1="-461.5" x2="233.23" y2="1468.51"/>
                <line class="cls-8" x1="291.71" y1="-461.5" x2="291.71" y2="1468.51"/>
                <line class="cls-8" x1="350.21" y1="-461.5" x2="350.21" y2="1468.51"/>
                <line class="cls-8" x1="408.69" y1="-461.5" x2="408.69" y2="1468.51"/>
                <line class="cls-8" x1="467.17" y1="-461.5" x2="467.17" y2="1468.51"/>
                <line class="cls-8" x1="525.66" y1="-461.5" x2="525.66" y2="1468.51"/>
                <line class="cls-8" x1="584.14" y1="-461.5" x2="584.14" y2="1468.51"/>
                <line class="cls-8" x1="642.63" y1="-461.5" x2="642.63" y2="1468.51"/>
                <line class="cls-8" x1="701.11" y1="-461.5" x2="701.11" y2="1468.51"/>
                <line class="cls-8" x1="759.6" y1="-461.5" x2="759.6" y2="1468.51"/>
                <line class="cls-8" x1="818.09" y1="-461.5" x2="818.09" y2="1468.51"/>
                <line class="cls-8" x1="876.57" y1="-461.5" x2="876.57" y2="1468.51"/>
                <line class="cls-8" x1="935.05" y1="-461.5" x2="935.05" y2="1468.51"/>
                <line class="cls-8" x1="993.54" y1="-461.5" x2="993.54" y2="1468.51"/>
                <line class="cls-8" x1="1052.02" y1="-461.5" x2="1052.02" y2="1468.51"/>
                <line class="cls-8" x1="1110.51" y1="-461.5" x2="1110.51" y2="1468.51"/>
                <line class="cls-8" x1="1169" y1="-461.5" x2="1169" y2="1468.51"/>
                <line class="cls-8" x1="1227.48" y1="-461.5" x2="1227.48" y2="1468.51"/>
                <line class="cls-8" x1="1285.97" y1="-461.5" x2="1285.97" y2="1468.51"/>
                <line class="cls-8" x1="1344.45" y1="-461.5" x2="1344.45" y2="1468.51"/>
                <line class="cls-8" x1="1402.93" y1="-461.5" x2="1402.93" y2="1468.51"/>
                <line class="cls-8" x1="1461.42" y1="-461.5" x2="1461.42" y2="1468.51"/>
                <line class="cls-8" x1="1519.9" y1="-461.5" x2="1519.9" y2="1468.51"/>
                <line class="cls-8" x1="1578.39" y1="-461.5" x2="1578.39" y2="1468.51"/>
                <line class="cls-8" x1="1636.88" y1="-461.5" x2="1636.88" y2="1468.51"/>
                <line class="cls-8" x1="1695.36" y1="-461.5" x2="1695.36" y2="1468.51"/>
                <line class="cls-8" x1="1753.85" y1="-461.5" x2="1753.85" y2="1468.51"/>
                <line class="cls-8" x1="1812.33" y1="-461.5" x2="1812.33" y2="1468.51"/>
                <line class="cls-8" x1="1870.81" y1="-461.5" x2="1870.81" y2="1468.51"/>
              </g>
              <g>
                <line class="cls-8" x1="1929.3" y1="6.38" x2="-.71" y2="6.38"/>
                <line class="cls-8" x1="1929.3" y1="64.87" x2="-.71" y2="64.87"/>
                <line class="cls-8" x1="1929.3" y1="123.35" x2="-.71" y2="123.35"/>
                <line class="cls-8" x1="1929.3" y1="181.83" x2="-.71" y2="181.83"/>
                <line class="cls-8" x1="1929.3" y1="240.32" x2="-.71" y2="240.32"/>
                <line class="cls-8" x1="1929.3" y1="298.8" x2="-.71" y2="298.8"/>
                <line class="cls-8" x1="1929.3" y1="357.29" x2="-.71" y2="357.29"/>
                <line class="cls-8" x1="1929.3" y1="415.78" x2="-.71" y2="415.78"/>
                <line class="cls-8" x1="1929.3" y1="474.26" x2="-.71" y2="474.26"/>
                <line class="cls-8" x1="1929.3" y1="532.74" x2="-.71" y2="532.74"/>
                <line class="cls-8" x1="1929.3" y1="591.23" x2="-.71" y2="591.23"/>
                <line class="cls-8" x1="1929.3" y1="649.72" x2="-.71" y2="649.72"/>
              </g>
            </g>
          </g>
        </g>
        <g>
          <g class="cls-4">
            <g>
              <path class="cls-2" d="M1789.13,391.51h1.84v2.48h-2.09c-.46,0-.89-.06-1.29-.18-.18,1.31-.7,2.35-1.58,3.12-.79,.68-1.74,1.02-2.85,1.02-.86,0-1.7-.22-2.52-.66v-2.25c.71,.4,1.41,.59,2.09,.59,.75,0,1.33-.24,1.75-.73,.42-.49,.62-1.16,.62-2.02v-6.64l1.68-.88,.88-.47v.02l.02-.02v5.14c0,.53,.11,.91,.33,1.14s.59,.34,1.11,.34Z"/>
              <path class="cls-2" d="M1797.04,391.51h1.84v2.48h-2.09c-1,0-1.82-.27-2.48-.8-.66,.53-1.48,.8-2.48,.8h-2.09v-2.48h1.84c.52,0,.89-.11,1.11-.34s.33-.6,.33-1.14v-3.79l2.58-1.35v5.14c0,.53,.11,.91,.33,1.14s.59,.34,1.11,.34Zm-5.31,4.34c.41,0,.73,.12,.97,.36,.24,.24,.36,.56,.36,.97,0,.92-.44,1.37-1.33,1.37-.41,0-.74-.12-.98-.37-.25-.25-.37-.58-.37-1,0-.89,.45-1.33,1.35-1.33Zm3.16,0c.41,0,.73,.12,.97,.36,.24,.24,.36,.56,.36,.97,0,.92-.44,1.37-1.33,1.37-.41,0-.74-.12-.98-.37-.25-.25-.37-.58-.37-1,0-.89,.45-1.33,1.35-1.33Z"/>
              <path class="cls-2" d="M1804.95,391.51h1.84v2.48h-2.09c-1,0-1.82-.27-2.48-.8-.66,.53-1.48,.8-2.48,.8h-2.09v-2.48h1.84c.52,0,.89-.11,1.11-.34s.33-.6,.33-1.14v-3.79l2.58-1.35v5.14c0,.53,.11,.91,.33,1.14s.59,.34,1.11,.34Zm-2.6,4.34c.41,0,.73,.12,.97,.36,.24,.24,.36,.56,.36,.97,0,.92-.44,1.37-1.33,1.37-.41,0-.74-.12-.98-.37-.25-.25-.37-.58-.37-1,0-.4,.12-.72,.37-.96s.57-.37,.98-.37Z"/>
              <path class="cls-2" d="M1816.63,391.51h1.62v2.48h-1.89c-1,0-1.82-.27-2.46-.8-.66,.53-1.48,.8-2.48,.8h-5.86v-2.48h5.6c.96,0,1.43-.47,1.43-1.41v-.12c0-.75-.28-1.36-.84-1.81-.56-.46-1.3-.69-2.21-.69-.7,0-1.43,.14-2.19,.41v-2.48l4.16-4.63h2.6l-3.73,4.18c1.08,.11,2,.43,2.75,.96,1.37,.93,2.05,2.27,2.05,4.04v.08c0,.53,.11,.91,.34,1.14s.6,.34,1.12,.34Z"/>
              <path class="cls-2" d="M1824.32,391.51h1.84v2.48h-2.09c-1,0-1.82-.27-2.48-.8-.66,.53-1.48,.8-2.48,.8h-2.09v-2.48h1.84c.52,0,.89-.11,1.11-.34s.33-.6,.33-1.14v-3.79l2.58-1.35v5.14c0,.53,.11,.91,.33,1.14s.59,.34,1.11,.34Zm-5.35-8.42c-.41,0-.74-.12-.98-.37-.25-.25-.37-.58-.37-1,0-.4,.12-.72,.37-.96,.25-.25,.57-.37,.98-.37s.73,.12,.97,.36c.24,.24,.36,.56,.36,.97,0,.92-.44,1.37-1.33,1.37Zm3.14,0c-.41,0-.74-.13-.98-.38-.25-.25-.37-.58-.37-.99s.13-.72,.38-.96c.25-.25,.58-.37,.97-.37s.73,.12,.97,.36c.24,.24,.36,.56,.36,.97,0,.92-.44,1.37-1.33,1.37Z"/>
              <path class="cls-2" d="M1824.93,393.99v-2.48h1.29c.63,0,1.08-.14,1.34-.41,.27-.27,.4-.74,.4-1.39v-7.56l2.56-1.37v8.96c0,1.33-.4,2.38-1.21,3.18-.74,.72-1.72,1.09-2.95,1.09h-1.43Z"/>
              <path class="cls-2" d="M1834.21,393.99v-11.85l2.58-1.37v13.22h-2.58Z"/>
            </g>
            <g>
              <g>
                <circle class="cls-2" cx="1843.6" cy="376.82" r="1.68"/>
                <circle class="cls-2" cx="1843.6" cy="401.88" r="1.68"/>
                <circle class="cls-2" cx="1775.68" cy="376.82" r="1.68"/>
                <circle class="cls-2" cx="1775.68" cy="401.88" r="1.68"/>
              </g>
              <line class="cls-5" x1="1775.68" y1="376.82" x2="1843.69" y2="376.82"/>
              <line class="cls-5" x1="1775.68" y1="401.88" x2="1843.69" y2="401.88"/>
              <line class="cls-5" x1="1843.6" y1="376.25" x2="1843.6" y2="401.88"/>
              <line class="cls-5" x1="1775.68" y1="376.25" x2="1775.68" y2="401.88"/>
            </g>
          </g>
          <g>
            <g>
              <path class="cls-2" d="M1550.75,360.08h6.97v9.37h-7.9c-1.76,0-3.38-.23-4.88-.7-.67,4.96-2.66,8.88-5.97,11.78-3,2.58-6.58,3.87-10.77,3.87-3.25,0-6.43-.83-9.53-2.48v-8.52c2.69,1.5,5.32,2.25,7.9,2.25,2.84,0,5.05-.92,6.62-2.75,1.58-1.83,2.36-4.38,2.36-7.63v-25.1l6.35-3.33,3.33-1.78v.08l.08-.08v19.45c0,2.01,.41,3.45,1.24,4.3,.83,.85,2.22,1.28,4.18,1.28Z"/>
              <path class="cls-2" d="M1580.65,360.08h6.97v9.37h-7.9c-3.77,0-6.9-1.01-9.37-3.02-2.48,2.01-5.61,3.02-9.38,3.02h-7.9v-9.37h6.97c1.96,0,3.36-.43,4.18-1.28s1.24-2.29,1.24-4.3v-14.33l9.76-5.11v19.45c0,2.01,.41,3.45,1.24,4.3,.83,.85,2.22,1.28,4.18,1.28Zm-20.07,16.42c1.55,0,2.78,.45,3.68,1.36,.9,.9,1.36,2.13,1.36,3.68,0,3.46-1.68,5.19-5.04,5.19-1.55,0-2.79-.46-3.72-1.39s-1.39-2.2-1.39-3.8c0-3.36,1.71-5.04,5.11-5.04Zm11.93,0c1.55,0,2.78,.45,3.68,1.36,.9,.9,1.36,2.13,1.36,3.68,0,3.46-1.68,5.19-5.04,5.19-1.55,0-2.79-.46-3.72-1.39s-1.39-2.2-1.39-3.8c0-3.36,1.7-5.04,5.11-5.04Z"/>
              <path class="cls-2" d="M1610.56,360.08h6.97v9.37h-7.9c-3.77,0-6.9-1.01-9.37-3.02-2.48,2.01-5.61,3.02-9.38,3.02h-7.9v-9.37h6.97c1.96,0,3.36-.43,4.18-1.28s1.24-2.29,1.24-4.3v-14.33l9.76-5.11v19.45c0,2.01,.41,3.45,1.24,4.3,.83,.85,2.22,1.28,4.18,1.28Zm-9.84,16.42c1.55,0,2.78,.45,3.68,1.36,.9,.9,1.36,2.13,1.36,3.68,0,3.46-1.68,5.19-5.04,5.19-1.55,0-2.79-.46-3.72-1.39s-1.39-2.2-1.39-3.8c0-1.5,.46-2.71,1.39-3.64s2.17-1.39,3.72-1.39Z"/>
              <path class="cls-2" d="M1654.72,360.08h6.12v9.37h-7.13c-3.77,0-6.87-1.01-9.3-3.02-2.48,2.01-5.6,3.02-9.37,3.02h-22.16v-9.37h21.15c3.62,0,5.42-1.78,5.42-5.35v-.46c0-2.84-1.06-5.13-3.18-6.86-2.12-1.73-4.91-2.6-8.37-2.6-2.63,0-5.4,.52-8.29,1.55v-9.37l15.73-17.51h9.84l-14.1,15.81c4.08,.41,7.54,1.63,10.38,3.64,5.16,3.51,7.75,8.6,7.75,15.26v.31c0,2.01,.43,3.45,1.28,4.3s2.26,1.28,4.22,1.28Z"/>
              <path class="cls-2" d="M1683.77,360.08h6.97v9.37h-7.9c-3.77,0-6.9-1.01-9.37-3.02-2.48,2.01-5.61,3.02-9.38,3.02h-7.9v-9.37h6.97c1.96,0,3.36-.43,4.18-1.28s1.24-2.29,1.24-4.3v-14.33l9.76-5.11v19.45c0,2.01,.41,3.45,1.24,4.3,.83,.85,2.22,1.28,4.18,1.28Zm-20.22-31.84c-1.55,0-2.79-.46-3.72-1.39s-1.39-2.19-1.39-3.8c0-1.5,.46-2.71,1.39-3.64s2.17-1.39,3.72-1.39,2.78,.45,3.68,1.36c.9,.9,1.36,2.13,1.36,3.68,0,3.46-1.68,5.19-5.04,5.19Zm11.85,0c-1.55,0-2.79-.48-3.72-1.43-.93-.96-1.39-2.21-1.39-3.76s.48-2.71,1.43-3.64c.96-.93,2.18-1.39,3.68-1.39s2.78,.45,3.68,1.36c.9,.9,1.36,2.13,1.36,3.68,0,3.46-1.68,5.19-5.04,5.19Z"/>
              <path class="cls-2" d="M1686.1,369.46v-9.37h4.88c2.38,0,4.07-.52,5.07-1.55,1.01-1.03,1.51-2.79,1.51-5.27v-28.59l9.68-5.19v33.86c0,5.01-1.52,9.01-4.57,12.01-2.79,2.74-6.51,4.11-11.16,4.11h-5.42Z"/>
              <path class="cls-2" d="M1721.2,369.46v-44.78l9.76-5.19v49.97h-9.76Z"/>
            </g>
            <g>
              <g>
                <circle class="cls-2" cx="1756.67" cy="304.57" r="6.37"/>
                <circle class="cls-2" cx="1756.67" cy="399.29" r="6.37"/>
                <circle class="cls-2" cx="1499.93" cy="304.57" r="6.37"/>
                <circle class="cls-2" cx="1499.93" cy="399.29" r="6.37"/>
              </g>
              <line class="cls-6" x1="1499.93" y1="304.57" x2="1756.99" y2="304.57"/>
              <line class="cls-6" x1="1499.93" y1="399.29" x2="1756.99" y2="399.29"/>
              <line class="cls-6" x1="1756.67" y1="302.42" x2="1756.67" y2="399.29"/>
              <line class="cls-6" x1="1499.93" y1="302.42" x2="1499.93" y2="399.29"/>
            </g>
          </g>
          <g>
            <path class="cls-1" d="M1814.33,363.87c-1.34-3.9-3.04-7.66-5.16-11.13-2.12-3.47-4.55-6.72-7.35-9.61-2.77-2.9-5.82-5.53-9.21-7.61-1.69-1.05-3.45-1.96-5.18-2.9-1.73-.94-3.5-1.83-5.27-2.73l1.76-4.29c2.04,.7,4.03,1.57,5.92,2.63,1.89,1.06,3.65,2.34,5.33,3.69,3.35,2.73,6.45,5.71,9.12,9.05,1.34,1.66,2.55,3.42,3.67,5.22,1.13,1.8,2.11,3.68,2.99,5.6,1.76,3.83,3.08,7.84,3.87,11.94l-.47,.12Z"/>
            <path class="cls-11" d="M1768.99,324.02c7.27-.58,16.6-2.44,22.91-5.43l-7.09,9.89,.88,12.14c-3.81-5.84-10.8-12.31-16.69-16.6Z"/>
          </g>
        </g>
      </g>
      <g>
        <g>
          <rect class="cls-13" x="1.74" y=".82" width="1918.83" height="133.43"/>
          <g>
            <path class="cls-14" d="M1441.46,101.66c-3.44,2.24-7.29,3.36-11.57,3.36-4.71,0-8.53-1.48-11.45-4.44-2.68-2.72-4.02-6.17-4.02-10.37,0-2.92,.75-5.45,2.25-7.61,1.5-2.16,3.95-4.22,7.34-6.17-2.32-1.4-5.13-4.08-8.45-8.03-.44-.52-.78-.94-1.02-1.26v-3.42c1.8-2.68,4.08-4.81,6.86-6.41,2.78-1.6,5.6-2.4,8.48-2.4s5.71,.81,8.51,2.43,5.12,3.79,6.95,6.5v3.3c-2.48,2.96-5.54,5.57-9.17,7.85,1.36,.2,2.6,.3,3.72,.3h13.01l.06,7.25h-17.32c-2.2,0-4.2-.52-5.99-1.56-2.88,1.32-4.93,2.7-6.14,4.14-1.22,1.44-1.83,3.16-1.83,5.15,0,2.28,.79,4.1,2.37,5.45,1.58,1.36,3.71,2.04,6.38,2.04,3.92,0,7.59-1.08,11.03-3.24v7.13Zm-11.63-29.25c3-2.36,5.21-4.74,6.65-7.13-2.4-2.24-4.64-3.36-6.71-3.36s-4.18,1.12-6.41,3.36c1.6,2.76,3.76,5.13,6.47,7.13Z"/>
            <path class="cls-14" d="M1449.38,82.54v-7.25h5.39c1.52,0,2.6-.33,3.24-.99,.64-.66,.96-1.77,.96-3.33v-11.09l7.55-3.96v15.4c0,3.64-1.12,6.47-3.36,8.51-1.96,1.8-4.52,2.7-7.67,2.7h-6.11Zm12.71,13.37c-1.2,0-2.16-.36-2.88-1.08-.72-.72-1.08-1.7-1.08-2.94,0-1.16,.36-2.1,1.08-2.82,.72-.72,1.68-1.08,2.88-1.08s2.15,.35,2.85,1.05c.7,.7,1.05,1.65,1.05,2.85,0,2.68-1.3,4.02-3.9,4.02Z"/>
            <path class="cls-14" d="M1477.31,82.54V47.9l7.55-4.02v38.66h-7.55Z"/>
            <path class="cls-14" d="M1514.59,75.29h5.39v7.25h-6.11c-1.36,0-2.62-.18-3.78-.54-.52,3.84-2.06,6.87-4.62,9.11-2.32,2-5.09,3-8.33,3-2.52,0-4.97-.64-7.37-1.92v-6.59c2.08,1.16,4.12,1.74,6.11,1.74,2.2,0,3.91-.71,5.12-2.13,1.22-1.42,1.83-3.39,1.83-5.9v-19.42l4.91-2.58,2.58-1.38v.06l.06-.06v15.04c0,1.56,.32,2.67,.96,3.33,.64,.66,1.72,.99,3.24,.99Z"/>
            <path class="cls-14" d="M1516.39,82.54v-7.25h3.78c1.84,0,3.15-.4,3.93-1.2,.78-.8,1.17-2.16,1.17-4.08v-22.12l7.49-4.02v26.19c0,3.88-1.18,6.97-3.54,9.29-2.16,2.12-5.03,3.18-8.63,3.18h-4.2Z"/>
            <path class="cls-14" d="M1543.54,82.54V47.9l7.55-4.02v38.66h-7.55Z"/>
            <path class="cls-14" d="M1639.98,59.88l7.49-3.96v15.4c0,3.6-1.1,6.41-3.3,8.45-1.92,1.8-4.44,2.72-7.55,2.76h-5.69c-2.96,0-5.38-.78-7.25-2.34-1.88,1.52-4.24,2.3-7.07,2.34h-5.75c-1.36,0-2.62-.18-3.78-.54-.76,3.84-2.7,6.85-5.81,9.05-2.8,1.92-6.19,2.88-10.19,2.88-5.39,0-9.57-1.9-12.53-5.69-2.32-2.96-3.48-6.43-3.48-10.43,0-3.16,.74-5.91,2.22-8.27l7.19-1.5c-1.6,2.72-2.4,5.57-2.4,8.57s.86,5.49,2.58,7.37c1.64,1.8,3.78,2.7,6.41,2.7s4.9-.7,6.44-2.1c1.54-1.4,2.31-3.36,2.31-5.87v-15.64l7.55-3.96v11.87c0,1.56,.33,2.67,.99,3.33s1.75,.99,3.27,.99h4.02c1.52,0,2.61-.33,3.27-.99s.99-1.77,.99-3.33v-9.47l7.49-4.02v13.49c0,1.56,.33,2.67,.99,3.33s1.75,.99,3.27,.99h4.08c1.52,0,2.61-.33,3.27-.99s.99-1.77,.99-3.33v-11.09Z"/>
            <path class="cls-14" d="M1669.05,78.82c0,4.63-1.28,8.39-3.84,11.27-2.36,2.68-5.47,4.02-9.35,4.02-2.52,0-4.97-.64-7.37-1.92v-6.59c2.08,1.16,4.12,1.74,6.11,1.74,2.2,0,3.91-.71,5.12-2.13,1.22-1.42,1.83-3.39,1.83-5.9v-19.36l7.49-4.02v22.9Z"/>
            <path class="cls-14" d="M1675.04,82.54l3.78-7.25h9.47c2.04,0,3.06-1.18,3.06-3.54,0-4.4-2.12-7.77-6.35-10.13l3.72-6.41c6.23,3.64,9.59,8.57,10.07,14.8,.16,2,.61,3.38,1.35,4.14,.74,.76,2.01,1.14,3.81,1.14h4.56v7.25h-4.98c-2.96,0-5.45-.82-7.49-2.46-1.48,1.64-3.6,2.46-6.35,2.46h-14.62Z"/>
            <path class="cls-14" d="M1704.89,82.54v-7.25h3.78c1.84,0,3.15-.4,3.93-1.2,.78-.8,1.17-2.16,1.17-4.08v-22.12l7.49-4.02v26.19c0,3.88-1.18,6.97-3.54,9.29-2.16,2.12-5.03,3.18-8.63,3.18h-4.2Z"/>
            <path class="cls-14" d="M1732.04,82.54V47.9l7.55-4.02v38.66h-7.55Z"/>
          </g>
        </g>
        <g>
          <rect class="cls-14" x="1782.18" y="0" width="139.06" height="134.27"/>
          <text class="cls-3" transform="translate(1814.7 105.55)"><tspan x="0" y="0">4</tspan></text>
        </g>
      </g>
    </g>
  </g>
</svg>