<?xml version="1.0" encoding="UTF-8"?>
<svg id="Layer_2" data-name="Layer 2" xmlns="http://www.w3.org/2000/svg" width="1954" height="1933.62" xmlns:xlink="http://www.w3.org/1999/xlink" viewBox="0 0 1954 1933.62">
  <defs>
    <style>
      .cls-1 {
        fill: url(#linear-gradient-2);
        filter: url(#drop-shadow-1);
      }

      .cls-1, .cls-2, .cls-3, .cls-4, .cls-5, .cls-6, .cls-7 {
        stroke-width: 0px;
      }

      .cls-2 {
        fill: url(#linear-gradient);
      }

      .cls-8 {
        opacity: .5;
      }

      .cls-3, .cls-9, .cls-10, .cls-11 {
        fill: none;
      }

      .cls-4 {
        fill: #fff;
      }

      .cls-9 {
        stroke-width: 3.16px;
      }

      .cls-9, .cls-10, .cls-11 {
        stroke: #fff;
      }

      .cls-9, .cls-11 {
        stroke-miterlimit: 10;
      }

      .cls-5 {
        fill: url(#linear-gradient-3);
      }

      .cls-12 {
        opacity: .1;
      }

      .cls-13 {
        clip-path: url(#clippath);
      }

      .cls-6 {
        fill: #54b6c8;
      }

      .cls-10 {
        stroke-linecap: round;
        stroke-linejoin: round;
        stroke-width: 3.61px;
      }

      .cls-7 {
        fill: url(#linear-gradient-4);
      }

      .cls-11 {
        stroke-width: .84px;
      }
    </style>
    <linearGradient id="linear-gradient" x1="59.74" y1="1480.34" x2="1887.98" y2="252.66" gradientUnits="userSpaceOnUse">
      <stop offset="0" stop-color="#766fa4"/>
      <stop offset=".43" stop-color="#6fafcd"/>
      <stop offset=".73" stop-color="#82c4cf"/>
      <stop offset=".8" stop-color="#8ed1cf"/>
      <stop offset=".92" stop-color="#a0e6d1"/>
      <stop offset="1" stop-color="#a7eed2"/>
    </linearGradient>
    <clipPath id="clippath">
      <rect class="cls-3" x="9.86" y="594.51" width="1918.7" height="550.24"/>
    </clipPath>
    <linearGradient id="linear-gradient-2" x1="9.21" y1="554.53" x2="1929.21" y2="554.53" gradientUnits="userSpaceOnUse">
      <stop offset="0" stop-color="#fff"/>
      <stop offset="1" stop-color="#fff"/>
    </linearGradient>
    <filter id="drop-shadow-1" filterUnits="userSpaceOnUse">
      <feOffset dx="7.51" dy="7.51"/>
      <feGaussianBlur result="blur" stdDeviation="5.36"/>
      <feFlood flood-color="#000" flood-opacity=".2"/>
      <feComposite in2="blur" operator="in"/>
      <feComposite in="SourceGraphic"/>
    </filter>
    <linearGradient id="linear-gradient-3" x1="1776.72" y1="808.05" x2="1824.92" y2="808.05" gradientUnits="userSpaceOnUse">
      <stop offset=".47" stop-color="#fff"/>
      <stop offset="1" stop-color="#fff" stop-opacity=".05"/>
    </linearGradient>
    <linearGradient id="linear-gradient-4" y1="792.92" y2="792.92" xlink:href="#linear-gradient-3"/>
  </defs>
  <g id="Layer_2-2" data-name="Layer 2">
    <rect class="cls-2" x="10.02" y="594.55" width="1918.37" height="550.14"/>
    <g class="cls-13">
      <g class="cls-12">
        <g>
          <g>
            <line class="cls-10" x1="7.33" y1="1.81" x2="7.33" y2="1931.81"/>
            <line class="cls-10" x1="65.82" y1="1.81" x2="65.82" y2="1931.81"/>
            <line class="cls-10" x1="124.3" y1="1.81" x2="124.3" y2="1931.81"/>
            <line class="cls-10" x1="182.79" y1="1.81" x2="182.79" y2="1931.81"/>
            <line class="cls-10" x1="241.27" y1="1.81" x2="241.27" y2="1931.81"/>
            <line class="cls-10" x1="299.75" y1="1.81" x2="299.75" y2="1931.81"/>
            <line class="cls-10" x1="358.24" y1="1.81" x2="358.24" y2="1931.81"/>
            <line class="cls-10" x1="416.72" y1="1.81" x2="416.72" y2="1931.81"/>
            <line class="cls-10" x1="475.21" y1="1.81" x2="475.21" y2="1931.81"/>
            <line class="cls-10" x1="533.7" y1="1.81" x2="533.7" y2="1931.81"/>
            <line class="cls-10" x1="592.18" y1="1.81" x2="592.18" y2="1931.81"/>
            <line class="cls-10" x1="650.67" y1="1.81" x2="650.67" y2="1931.81"/>
            <line class="cls-10" x1="709.15" y1="1.81" x2="709.15" y2="1931.81"/>
            <line class="cls-10" x1="767.63" y1="1.81" x2="767.63" y2="1931.81"/>
            <line class="cls-10" x1="826.12" y1="1.81" x2="826.12" y2="1931.81"/>
            <line class="cls-10" x1="884.61" y1="1.81" x2="884.61" y2="1931.81"/>
            <line class="cls-10" x1="943.09" y1="1.81" x2="943.09" y2="1931.81"/>
            <line class="cls-10" x1="1001.58" y1="1.81" x2="1001.58" y2="1931.81"/>
            <line class="cls-10" x1="1060.06" y1="1.81" x2="1060.06" y2="1931.81"/>
            <line class="cls-10" x1="1118.55" y1="1.81" x2="1118.55" y2="1931.81"/>
            <line class="cls-10" x1="1177.03" y1="1.81" x2="1177.03" y2="1931.81"/>
            <line class="cls-10" x1="1235.52" y1="1.81" x2="1235.52" y2="1931.81"/>
            <line class="cls-10" x1="1294.01" y1="1.81" x2="1294.01" y2="1931.81"/>
            <line class="cls-10" x1="1352.49" y1="1.81" x2="1352.49" y2="1931.81"/>
            <line class="cls-10" x1="1410.97" y1="1.81" x2="1410.97" y2="1931.81"/>
            <line class="cls-10" x1="1469.46" y1="1.81" x2="1469.46" y2="1931.81"/>
            <line class="cls-10" x1="1527.94" y1="1.81" x2="1527.94" y2="1931.81"/>
            <line class="cls-10" x1="1586.42" y1="1.81" x2="1586.42" y2="1931.81"/>
            <line class="cls-10" x1="1644.91" y1="1.81" x2="1644.91" y2="1931.81"/>
            <line class="cls-10" x1="1703.4" y1="1.81" x2="1703.4" y2="1931.81"/>
            <line class="cls-10" x1="1761.89" y1="1.81" x2="1761.89" y2="1931.81"/>
            <line class="cls-10" x1="1820.37" y1="1.81" x2="1820.37" y2="1931.81"/>
            <line class="cls-10" x1="1878.85" y1="1.81" x2="1878.85" y2="1931.81"/>
            <line class="cls-10" x1="1937.34" y1="1.81" x2="1937.34" y2="1931.81"/>
          </g>
          <g>
            <line class="cls-10" x1="1937.33" y1="1.81" x2="7.33" y2="1.81"/>
            <line class="cls-10" x1="1937.33" y1="60.29" x2="7.33" y2="60.29"/>
            <line class="cls-10" x1="1937.33" y1="118.77" x2="7.33" y2="118.77"/>
            <line class="cls-10" x1="1937.33" y1="177.26" x2="7.33" y2="177.26"/>
            <line class="cls-10" x1="1937.33" y1="235.75" x2="7.33" y2="235.75"/>
            <line class="cls-10" x1="1937.33" y1="294.23" x2="7.33" y2="294.23"/>
            <line class="cls-10" x1="1937.33" y1="352.72" x2="7.33" y2="352.72"/>
            <line class="cls-10" x1="1937.33" y1="411.2" x2="7.33" y2="411.2"/>
            <line class="cls-10" x1="1937.33" y1="469.69" x2="7.33" y2="469.69"/>
            <line class="cls-10" x1="1937.33" y1="528.17" x2="7.33" y2="528.17"/>
            <line class="cls-10" x1="1937.33" y1="586.66" x2="7.33" y2="586.66"/>
            <line class="cls-10" x1="1937.33" y1="645.14" x2="7.33" y2="645.14"/>
            <line class="cls-10" x1="1937.33" y1="703.63" x2="7.33" y2="703.63"/>
            <line class="cls-10" x1="1937.33" y1="762.11" x2="7.33" y2="762.11"/>
            <line class="cls-10" x1="1937.33" y1="820.6" x2="7.33" y2="820.6"/>
            <line class="cls-10" x1="1937.33" y1="879.08" x2="7.33" y2="879.08"/>
            <line class="cls-10" x1="1937.33" y1="937.56" x2="7.33" y2="937.56"/>
            <line class="cls-10" x1="1937.33" y1="996.05" x2="7.33" y2="996.05"/>
            <line class="cls-10" x1="1937.33" y1="1054.54" x2="7.33" y2="1054.54"/>
            <line class="cls-10" x1="1937.33" y1="1113.02" x2="7.33" y2="1113.02"/>
            <line class="cls-10" x1="1937.33" y1="1171.51" x2="7.33" y2="1171.51"/>
            <line class="cls-10" x1="1937.33" y1="1229.99" x2="7.33" y2="1229.99"/>
            <line class="cls-10" x1="1937.33" y1="1288.48" x2="7.33" y2="1288.48"/>
            <line class="cls-10" x1="1937.33" y1="1346.96" x2="7.33" y2="1346.96"/>
            <line class="cls-10" x1="1937.33" y1="1405.45" x2="7.33" y2="1405.45"/>
            <line class="cls-10" x1="1937.33" y1="1463.93" x2="7.33" y2="1463.93"/>
            <line class="cls-10" x1="1937.33" y1="1522.42" x2="7.33" y2="1522.42"/>
            <line class="cls-10" x1="1937.33" y1="1580.91" x2="7.33" y2="1580.91"/>
            <line class="cls-10" x1="1937.33" y1="1639.39" x2="7.33" y2="1639.39"/>
            <line class="cls-10" x1="1937.33" y1="1697.87" x2="7.33" y2="1697.87"/>
            <line class="cls-10" x1="1937.33" y1="1756.36" x2="7.33" y2="1756.36"/>
            <line class="cls-10" x1="1937.33" y1="1814.85" x2="7.33" y2="1814.85"/>
            <line class="cls-10" x1="1937.33" y1="1873.33" x2="7.33" y2="1873.33"/>
            <line class="cls-10" x1="1937.33" y1="1931.81" x2="7.33" y2="1931.81"/>
          </g>
        </g>
      </g>
    </g>
    <rect class="cls-1" x="9.21" y="487.74" width="1920" height="133.59"/>
    <g>
      <g class="cls-8">
        <g>
          <path class="cls-4" d="m1797.17,854.81h1.84v2.48h-2.09c-.46,0-.89-.06-1.29-.18-.18,1.31-.7,2.35-1.58,3.12-.79.68-1.74,1.02-2.85,1.02-.86,0-1.7-.22-2.52-.66v-2.25c.71.4,1.41.59,2.09.59.75,0,1.33-.24,1.75-.73.42-.49.62-1.16.62-2.02v-6.64l1.68-.88.88-.47v.02l.02-.02v5.14c0,.53.11.91.33,1.14s.59.34,1.11.34Z"/>
          <path class="cls-4" d="m1805.08,854.81h1.84v2.48h-2.09c-1,0-1.82-.27-2.48-.8-.66.53-1.48.8-2.48.8h-2.09v-2.48h1.84c.52,0,.89-.11,1.11-.34s.33-.6.33-1.14v-3.79l2.58-1.35v5.14c0,.53.11.91.33,1.14s.59.34,1.11.34Zm-5.31,4.34c.41,0,.73.12.97.36.24.24.36.56.36.97,0,.92-.44,1.37-1.33,1.37-.41,0-.74-.12-.98-.37-.25-.25-.37-.58-.37-1,0-.89.45-1.33,1.35-1.33Zm3.16,0c.41,0,.73.12.97.36.24.24.36.56.36.97,0,.92-.44,1.37-1.33,1.37-.41,0-.74-.12-.98-.37-.25-.25-.37-.58-.37-1,0-.89.45-1.33,1.35-1.33Z"/>
          <path class="cls-4" d="m1812.99,854.81h1.84v2.48h-2.09c-1,0-1.82-.27-2.48-.8-.66.53-1.48.8-2.48.8h-2.09v-2.48h1.84c.52,0,.89-.11,1.11-.34s.33-.6.33-1.14v-3.79l2.58-1.35v5.14c0,.53.11.91.33,1.14s.59.34,1.11.34Zm-2.6,4.34c.41,0,.73.12.97.36.24.24.36.56.36.97,0,.92-.44,1.37-1.33,1.37-.41,0-.74-.12-.98-.37-.25-.25-.37-.58-.37-1,0-.4.12-.72.37-.96s.57-.37.98-.37Z"/>
          <path class="cls-4" d="m1824.67,854.81h1.62v2.48h-1.89c-1,0-1.82-.27-2.46-.8-.66.53-1.48.8-2.48.8h-5.86v-2.48h5.6c.96,0,1.43-.47,1.43-1.41v-.12c0-.75-.28-1.36-.84-1.81-.56-.46-1.3-.69-2.21-.69-.7,0-1.43.14-2.19.41v-2.48l4.16-4.63h2.6l-3.73,4.18c1.08.11,2,.43,2.75.96,1.37.93,2.05,2.27,2.05,4.04v.08c0,.53.11.91.34,1.14s.6.34,1.12.34Z"/>
          <path class="cls-4" d="m1832.35,854.81h1.84v2.48h-2.09c-1,0-1.82-.27-2.48-.8-.66.53-1.48.8-2.48.8h-2.09v-2.48h1.84c.52,0,.89-.11,1.11-.34s.33-.6.33-1.14v-3.79l2.58-1.35v5.14c0,.53.11.91.33,1.14s.59.34,1.11.34Zm-5.35-8.42c-.41,0-.74-.12-.98-.37-.25-.25-.37-.58-.37-1,0-.4.12-.72.37-.96.25-.25.57-.37.98-.37s.73.12.97.36c.24.24.36.56.36.97,0,.92-.44,1.37-1.33,1.37Zm3.14,0c-.41,0-.74-.13-.98-.38-.25-.25-.37-.58-.37-.99s.13-.72.38-.96c.25-.25.58-.37.97-.37s.73.12.97.36c.24.24.36.56.36.97,0,.92-.44,1.37-1.33,1.37Z"/>
          <path class="cls-4" d="m1832.97,857.29v-2.48h1.29c.63,0,1.08-.14,1.34-.41.27-.27.4-.74.4-1.39v-7.56l2.56-1.37v8.96c0,1.33-.4,2.38-1.21,3.18-.74.72-1.72,1.09-2.95,1.09h-1.43Z"/>
          <path class="cls-4" d="m1842.25,857.29v-11.85l2.58-1.37v13.22h-2.58Z"/>
        </g>
        <g>
          <g>
            <circle class="cls-4" cx="1851.64" cy="840.12" r="1.68"/>
            <circle class="cls-4" cx="1851.64" cy="865.19" r="1.68"/>
            <circle class="cls-4" cx="1783.72" cy="840.12" r="1.68"/>
            <circle class="cls-4" cx="1783.72" cy="865.19" r="1.68"/>
          </g>
          <line class="cls-11" x1="1783.72" y1="840.12" x2="1851.73" y2="840.12"/>
          <line class="cls-11" x1="1783.72" y1="865.19" x2="1851.73" y2="865.19"/>
          <line class="cls-11" x1="1851.64" y1="839.56" x2="1851.64" y2="865.19"/>
          <line class="cls-11" x1="1783.72" y1="839.56" x2="1783.72" y2="865.19"/>
        </g>
      </g>
      <g>
        <g>
          <path class="cls-4" d="m1558.79,823.39h6.97v9.37h-7.9c-1.76,0-3.38-.23-4.88-.7-.67,4.96-2.66,8.88-5.97,11.78-3,2.58-6.58,3.87-10.77,3.87-3.25,0-6.43-.83-9.53-2.48v-8.52c2.69,1.5,5.32,2.25,7.9,2.25,2.84,0,5.05-.92,6.62-2.75,1.58-1.83,2.36-4.38,2.36-7.63v-25.1l6.35-3.33,3.33-1.78v.08l.08-.08v19.45c0,2.01.41,3.45,1.24,4.3.83.85,2.22,1.28,4.18,1.28Z"/>
          <path class="cls-4" d="m1588.69,823.39h6.97v9.37h-7.9c-3.77,0-6.9-1.01-9.37-3.02-2.48,2.01-5.61,3.02-9.38,3.02h-7.9v-9.37h6.97c1.96,0,3.36-.43,4.18-1.28s1.24-2.29,1.24-4.3v-14.33l9.76-5.11v19.45c0,2.01.41,3.45,1.24,4.3.83.85,2.22,1.28,4.18,1.28Zm-20.07,16.42c1.55,0,2.78.45,3.68,1.36.9.9,1.36,2.13,1.36,3.68,0,3.46-1.68,5.19-5.04,5.19-1.55,0-2.79-.46-3.72-1.39s-1.39-2.2-1.39-3.8c0-3.36,1.71-5.04,5.11-5.04Zm11.93,0c1.55,0,2.78.45,3.68,1.36.9.9,1.36,2.13,1.36,3.68,0,3.46-1.68,5.19-5.04,5.19-1.55,0-2.79-.46-3.72-1.39s-1.39-2.2-1.39-3.8c0-3.36,1.7-5.04,5.11-5.04Z"/>
          <path class="cls-4" d="m1618.6,823.39h6.97v9.37h-7.9c-3.77,0-6.9-1.01-9.37-3.02-2.48,2.01-5.61,3.02-9.38,3.02h-7.9v-9.37h6.97c1.96,0,3.36-.43,4.18-1.28s1.24-2.29,1.24-4.3v-14.33l9.76-5.11v19.45c0,2.01.41,3.45,1.24,4.3.83.85,2.22,1.28,4.18,1.28Zm-9.84,16.42c1.55,0,2.78.45,3.68,1.36.9.9,1.36,2.13,1.36,3.68,0,3.46-1.68,5.19-5.04,5.19-1.55,0-2.79-.46-3.72-1.39s-1.39-2.2-1.39-3.8c0-1.5.46-2.71,1.39-3.64s2.17-1.39,3.72-1.39Z"/>
          <path class="cls-4" d="m1662.76,823.39h6.12v9.37h-7.13c-3.77,0-6.87-1.01-9.3-3.02-2.48,2.01-5.6,3.02-9.37,3.02h-22.16v-9.37h21.15c3.62,0,5.42-1.78,5.42-5.35v-.46c0-2.84-1.06-5.13-3.18-6.86-2.12-1.73-4.91-2.6-8.37-2.6-2.63,0-5.4.52-8.29,1.55v-9.37l15.73-17.51h9.84l-14.1,15.81c4.08.41,7.54,1.63,10.38,3.64,5.16,3.51,7.75,8.6,7.75,15.26v.31c0,2.01.43,3.45,1.28,4.3s2.26,1.28,4.22,1.28Z"/>
          <path class="cls-4" d="m1691.81,823.39h6.97v9.37h-7.9c-3.77,0-6.9-1.01-9.37-3.02-2.48,2.01-5.61,3.02-9.38,3.02h-7.9v-9.37h6.97c1.96,0,3.36-.43,4.18-1.28s1.24-2.29,1.24-4.3v-14.33l9.76-5.11v19.45c0,2.01.41,3.45,1.24,4.3.83.85,2.22,1.28,4.18,1.28Zm-20.22-31.84c-1.55,0-2.79-.46-3.72-1.39s-1.39-2.19-1.39-3.8c0-1.5.46-2.71,1.39-3.64s2.17-1.39,3.72-1.39,2.78.45,3.68,1.36c.9.9,1.36,2.13,1.36,3.68,0,3.46-1.68,5.19-5.04,5.19Zm11.85,0c-1.55,0-2.79-.48-3.72-1.43-.93-.96-1.39-2.21-1.39-3.76s.48-2.71,1.43-3.64c.96-.93,2.18-1.39,3.68-1.39s2.78.45,3.68,1.36c.9.9,1.36,2.13,1.36,3.68,0,3.46-1.68,5.19-5.04,5.19Z"/>
          <path class="cls-4" d="m1694.14,832.77v-9.37h4.88c2.38,0,4.07-.52,5.07-1.55,1.01-1.03,1.51-2.79,1.51-5.27v-28.59l9.68-5.19v33.86c0,5.01-1.52,9.01-4.57,12.01-2.79,2.74-6.51,4.11-11.16,4.11h-5.42Z"/>
          <path class="cls-4" d="m1729.23,832.77v-44.78l9.76-5.19v49.97h-9.76Z"/>
        </g>
        <g>
          <g>
            <circle class="cls-4" cx="1764.7" cy="767.87" r="6.37"/>
            <circle class="cls-4" cx="1764.7" cy="862.6" r="6.37"/>
            <circle class="cls-4" cx="1507.97" cy="767.87" r="6.37"/>
            <circle class="cls-4" cx="1507.97" cy="862.6" r="6.37"/>
          </g>
          <line class="cls-9" x1="1507.97" y1="767.87" x2="1765.03" y2="767.87"/>
          <line class="cls-9" x1="1507.97" y1="862.6" x2="1765.03" y2="862.6"/>
          <line class="cls-9" x1="1764.7" y1="765.72" x2="1764.7" y2="862.6"/>
          <line class="cls-9" x1="1507.97" y1="765.72" x2="1507.97" y2="862.6"/>
        </g>
      </g>
      <g>
        <path class="cls-5" d="m1822.37,827.18c-1.34-3.9-3.04-7.66-5.16-11.13-2.12-3.47-4.55-6.72-7.35-9.61-2.77-2.9-5.82-5.53-9.21-7.61-1.69-1.05-3.45-1.96-5.18-2.9-1.73-.94-3.5-1.83-5.27-2.73l1.76-4.29c2.04.7,4.03,1.57,5.92,2.63,1.89,1.06,3.65,2.34,5.33,3.69,3.35,2.73,6.45,5.71,9.12,9.05,1.34,1.66,2.55,3.42,3.67,5.22,1.13,1.8,2.11,3.68,2.99,5.6,1.76,3.83,3.08,7.84,3.87,11.94l-.47.12Z"/>
        <path class="cls-7" d="m1777.03,787.33c7.27-.58,16.6-2.44,22.91-5.43l-7.09,9.89.88,12.14c-3.81-5.84-10.8-12.31-16.69-16.6Z"/>
      </g>
    </g>
    <g>
      <path class="cls-6" d="m1449.51,588.7c-3.44,2.24-7.3,3.36-11.58,3.36-4.72,0-8.54-1.48-11.46-4.44-2.68-2.72-4.02-6.18-4.02-10.38,0-2.92.75-5.46,2.25-7.62,1.5-2.16,3.95-4.22,7.35-6.18-2.32-1.4-5.14-4.08-8.46-8.04-.44-.52-.78-.94-1.02-1.26v-3.42c1.8-2.68,4.09-4.82,6.87-6.42,2.78-1.6,5.61-2.4,8.49-2.4s5.72.81,8.52,2.43c2.8,1.62,5.12,3.79,6.96,6.51v3.3c-2.48,2.96-5.54,5.58-9.18,7.86,1.36.2,2.6.3,3.72.3h13.02l.06,7.26h-17.34c-2.2,0-4.2-.52-6-1.56-2.88,1.32-4.93,2.7-6.15,4.14-1.22,1.44-1.83,3.16-1.83,5.16,0,2.28.79,4.1,2.37,5.46,1.58,1.36,3.71,2.04,6.39,2.04,3.92,0,7.6-1.08,11.04-3.24v7.14Zm-11.64-29.29c3-2.36,5.22-4.74,6.66-7.14-2.4-2.24-4.64-3.36-6.72-3.36s-4.18,1.12-6.42,3.36c1.6,2.76,3.76,5.14,6.48,7.14Z"/>
      <path class="cls-6" d="m1457.43,569.55v-7.26h5.4c1.52,0,2.6-.33,3.24-.99s.96-1.77.96-3.33v-11.1l7.56-3.96v15.42c0,3.64-1.12,6.48-3.36,8.52-1.96,1.8-4.52,2.7-7.68,2.7h-6.12Zm12.72,13.38c-1.2,0-2.16-.36-2.88-1.08-.72-.72-1.08-1.7-1.08-2.94,0-1.16.36-2.1,1.08-2.82.72-.72,1.68-1.08,2.88-1.08s2.15.35,2.85,1.05c.7.7,1.05,1.65,1.05,2.85,0,2.68-1.3,4.02-3.9,4.02Z"/>
      <path class="cls-6" d="m1485.4,569.55v-34.69l7.56-4.02v38.71h-7.56Z"/>
      <path class="cls-6" d="m1522.72,562.29h5.4v7.26h-6.12c-1.36,0-2.62-.18-3.78-.54-.52,3.84-2.06,6.88-4.62,9.12-2.32,2-5.1,3-8.34,3-2.52,0-4.98-.64-7.38-1.92v-6.6c2.08,1.16,4.12,1.74,6.12,1.74,2.2,0,3.91-.71,5.13-2.13,1.22-1.42,1.83-3.39,1.83-5.91v-19.44l4.92-2.58,2.58-1.38v.06l.06-.06v15.06c0,1.56.32,2.67.96,3.33s1.72.99,3.24.99Z"/>
      <path class="cls-6" d="m1524.52,569.55v-7.26h3.78c1.84,0,3.15-.4,3.93-1.2.78-.8,1.17-2.16,1.17-4.08v-22.14l7.5-4.02v26.22c0,3.88-1.18,6.98-3.54,9.3-2.16,2.12-5.04,3.18-8.64,3.18h-4.2Z"/>
      <path class="cls-6" d="m1551.71,569.55v-34.69l7.56-4.02v38.71h-7.56Z"/>
      <path class="cls-6" d="m1648.27,546.87l7.5-3.96v15.42c0,3.6-1.1,6.42-3.3,8.46-1.92,1.8-4.44,2.72-7.56,2.76h-5.7c-2.96,0-5.38-.78-7.26-2.34-1.88,1.52-4.24,2.3-7.08,2.34h-5.76c-1.36,0-2.62-.18-3.78-.54-.76,3.84-2.7,6.86-5.82,9.06-2.8,1.92-6.2,2.88-10.2,2.88-5.4,0-9.58-1.9-12.54-5.7-2.32-2.96-3.48-6.44-3.48-10.44,0-3.16.74-5.92,2.22-8.28l7.2-1.5c-1.6,2.72-2.4,5.58-2.4,8.58s.86,5.5,2.58,7.38c1.64,1.8,3.78,2.7,6.42,2.7s4.91-.7,6.45-2.1c1.54-1.4,2.31-3.36,2.31-5.88v-15.66l7.56-3.96v11.88c0,1.56.33,2.67.99,3.33s1.75.99,3.27.99h4.02c1.52,0,2.61-.33,3.27-.99s.99-1.77.99-3.33v-9.48l7.5-4.02v13.5c0,1.56.33,2.67.99,3.33s1.75.99,3.27.99h4.08c1.52,0,2.61-.33,3.27-.99s.99-1.77.99-3.33v-11.1Z"/>
      <path class="cls-6" d="m1677.37,565.83c0,4.64-1.28,8.4-3.84,11.28-2.36,2.68-5.48,4.02-9.36,4.02-2.52,0-4.98-.64-7.38-1.92v-6.6c2.08,1.16,4.12,1.74,6.12,1.74,2.2,0,3.91-.71,5.13-2.13,1.22-1.42,1.83-3.39,1.83-5.91v-19.38l7.5-4.02v22.92Z"/>
      <path class="cls-6" d="m1683.37,569.55l3.78-7.26h9.48c2.04,0,3.06-1.18,3.06-3.54,0-4.4-2.12-7.78-6.36-10.14l3.72-6.42c6.24,3.64,9.6,8.58,10.08,14.82.16,2,.61,3.38,1.35,4.14.74.76,2.01,1.14,3.81,1.14h4.56v7.26h-4.98c-2.96,0-5.46-.82-7.5-2.46-1.48,1.64-3.6,2.46-6.36,2.46h-14.64Z"/>
      <path class="cls-6" d="m1713.26,569.55v-7.26h3.78c1.84,0,3.15-.4,3.93-1.2.78-.8,1.17-2.16,1.17-4.08v-22.14l7.5-4.02v26.22c0,3.88-1.18,6.98-3.54,9.3-2.16,2.12-5.04,3.18-8.64,3.18h-4.2Z"/>
      <path class="cls-6" d="m1740.44,569.55v-34.69l7.56-4.02v38.71h-7.56Z"/>
    </g>
    <rect class="cls-6" x="1790.14" y="487.79" width="139.06" height="134.27"/>
    <path class="cls-4" d="m1826.93,563.9c11.61-17.71,23.04-35.12,34.3-52.23h16.63v52.23h13.41v13.54h-13.41v15.86h-16.76v-15.86h-34.17v-13.54Zm14.57,0h19.6v-30.56l-19.6,30.56Z"/>
  </g>
</svg>