<?xml version="1.0" encoding="UTF-8"?>
<svg id="Layer_2" data-name="Layer 2" xmlns="http://www.w3.org/2000/svg" xmlns:xlink="http://www.w3.org/1999/xlink" viewBox="0 0 1954 666.3">
  <defs>
    <style>
      .cls-1 {
        fill: #fff;
        font-family: Tajawal-Bold, Tajawal;
        font-size: 128.95px;
      }

      .cls-2 {
        opacity: .1;
      }

      .cls-3 {
        clip-path: url(#clippath);
      }

      .cls-4, .cls-5 {
        fill: none;
      }

      .cls-6 {
        fill: url(#linear-gradient-2);
        filter: url(#drop-shadow-1);
      }

      .cls-7 {
        fill: url(#linear-gradient);
      }

      .cls-8 {
        fill: #54b6c8;
      }

      .cls-5 {
        stroke: #fff;
        stroke-linecap: round;
        stroke-linejoin: round;
        stroke-width: 3.61px;
      }
    </style>
    <linearGradient id="linear-gradient" x1="59.7" y1="1001.89" x2="1887.95" y2="-225.8" gradientUnits="userSpaceOnUse">
      <stop offset="0" stop-color="#766fa4"/>
      <stop offset=".43" stop-color="#6fafcd"/>
      <stop offset=".73" stop-color="#82c4cf"/>
      <stop offset=".8" stop-color="#8ed1cf"/>
      <stop offset=".92" stop-color="#a0e6d1"/>
      <stop offset="1" stop-color="#a7eed2"/>
    </linearGradient>
    <clipPath id="clippath">
      <rect class="cls-4" x="9.82" y="116.06" width="1918.7" height="550.24"/>
    </clipPath>
    <linearGradient id="linear-gradient-2" x1="9.17" y1="76.08" x2="1929.17" y2="76.08" gradientUnits="userSpaceOnUse">
      <stop offset="0" stop-color="#fff"/>
      <stop offset="1" stop-color="#fff"/>
    </linearGradient>
    <filter id="drop-shadow-1" filterUnits="userSpaceOnUse">
      <feOffset dx="7.51" dy="7.51"/>
      <feGaussianBlur result="blur" stdDeviation="5.36"/>
      <feFlood flood-color="#000" flood-opacity=".2"/>
      <feComposite in2="blur" operator="in"/>
      <feComposite in="SourceGraphic"/>
    </filter>
  </defs>
  <g id="Layer_2-2" data-name="Layer 2">
    <g>
      <g>
        <rect class="cls-7" x="9.99" y="116.1" width="1918.37" height="550.14"/>
        <g class="cls-3">
          <g class="cls-2">
            <g>
              <g>
                <line class="cls-5" x1="7.29" y1="-476.64" x2="7.29" y2="1453.36"/>
                <line class="cls-5" x1="65.78" y1="-476.64" x2="65.78" y2="1453.36"/>
                <line class="cls-5" x1="124.26" y1="-476.64" x2="124.26" y2="1453.36"/>
                <line class="cls-5" x1="182.75" y1="-476.64" x2="182.75" y2="1453.36"/>
                <line class="cls-5" x1="241.23" y1="-476.64" x2="241.23" y2="1453.36"/>
                <line class="cls-5" x1="299.72" y1="-476.64" x2="299.72" y2="1453.36"/>
                <line class="cls-5" x1="358.21" y1="-476.64" x2="358.21" y2="1453.36"/>
                <line class="cls-5" x1="416.69" y1="-476.64" x2="416.69" y2="1453.36"/>
                <line class="cls-5" x1="475.17" y1="-476.64" x2="475.17" y2="1453.36"/>
                <line class="cls-5" x1="533.66" y1="-476.64" x2="533.66" y2="1453.36"/>
                <line class="cls-5" x1="592.14" y1="-476.64" x2="592.14" y2="1453.36"/>
                <line class="cls-5" x1="650.63" y1="-476.64" x2="650.63" y2="1453.36"/>
                <line class="cls-5" x1="709.12" y1="-476.64" x2="709.12" y2="1453.36"/>
                <line class="cls-5" x1="767.6" y1="-476.64" x2="767.6" y2="1453.36"/>
                <line class="cls-5" x1="826.09" y1="-476.64" x2="826.09" y2="1453.36"/>
                <line class="cls-5" x1="884.57" y1="-476.64" x2="884.57" y2="1453.36"/>
                <line class="cls-5" x1="943.05" y1="-476.64" x2="943.05" y2="1453.36"/>
                <line class="cls-5" x1="1001.54" y1="-476.64" x2="1001.54" y2="1453.36"/>
                <line class="cls-5" x1="1060.02" y1="-476.64" x2="1060.02" y2="1453.36"/>
                <line class="cls-5" x1="1118.51" y1="-476.64" x2="1118.51" y2="1453.36"/>
                <line class="cls-5" x1="1177" y1="-476.64" x2="1177" y2="1453.36"/>
                <line class="cls-5" x1="1235.48" y1="-476.64" x2="1235.48" y2="1453.36"/>
                <line class="cls-5" x1="1293.97" y1="-476.64" x2="1293.97" y2="1453.36"/>
                <line class="cls-5" x1="1352.45" y1="-476.64" x2="1352.45" y2="1453.36"/>
                <line class="cls-5" x1="1410.93" y1="-476.64" x2="1410.93" y2="1453.36"/>
                <line class="cls-5" x1="1469.42" y1="-476.64" x2="1469.42" y2="1453.36"/>
                <line class="cls-5" x1="1527.91" y1="-476.64" x2="1527.91" y2="1453.36"/>
                <line class="cls-5" x1="1586.39" y1="-476.64" x2="1586.39" y2="1453.36"/>
                <line class="cls-5" x1="1644.88" y1="-476.64" x2="1644.88" y2="1453.36"/>
                <line class="cls-5" x1="1703.36" y1="-476.64" x2="1703.36" y2="1453.36"/>
                <line class="cls-5" x1="1761.85" y1="-476.64" x2="1761.85" y2="1453.36"/>
                <line class="cls-5" x1="1820.33" y1="-476.64" x2="1820.33" y2="1453.36"/>
                <line class="cls-5" x1="1878.81" y1="-476.64" x2="1878.81" y2="1453.36"/>
                <line class="cls-5" x1="1937.31" y1="-476.64" x2="1937.31" y2="1453.36"/>
              </g>
              <g>
                <line class="cls-5" x1="1937.3" y1="49.72" x2="7.29" y2="49.72"/>
                <line class="cls-5" x1="1937.3" y1="108.2" x2="7.29" y2="108.2"/>
                <line class="cls-5" x1="1937.3" y1="166.69" x2="7.29" y2="166.69"/>
                <line class="cls-5" x1="1937.3" y1="225.18" x2="7.29" y2="225.18"/>
                <line class="cls-5" x1="1937.3" y1="283.66" x2="7.29" y2="283.66"/>
                <line class="cls-5" x1="1937.3" y1="342.15" x2="7.29" y2="342.15"/>
                <line class="cls-5" x1="1937.3" y1="400.63" x2="7.29" y2="400.63"/>
                <line class="cls-5" x1="1937.3" y1="459.11" x2="7.29" y2="459.11"/>
                <line class="cls-5" x1="1937.3" y1="517.6" x2="7.29" y2="517.6"/>
                <line class="cls-5" x1="1937.3" y1="576.09" x2="7.29" y2="576.09"/>
                <line class="cls-5" x1="1937.3" y1="634.57" x2="7.29" y2="634.57"/>
              </g>
            </g>
          </g>
        </g>
        <rect class="cls-6" x="9.17" y="9.28" width="1920" height="133.59"/>
        <g>
          <path class="cls-8" d="M1449.47,110.25c-3.44,2.24-7.3,3.36-11.58,3.36-4.72,0-8.54-1.48-11.46-4.44-2.68-2.72-4.02-6.18-4.02-10.38,0-2.92,.75-5.46,2.25-7.62,1.5-2.16,3.95-4.22,7.35-6.18-2.32-1.4-5.14-4.08-8.46-8.04-.44-.52-.78-.94-1.02-1.26v-3.42c1.8-2.68,4.09-4.82,6.87-6.42,2.78-1.6,5.61-2.4,8.49-2.4s5.72,.81,8.52,2.43,5.12,3.79,6.96,6.51v3.3c-2.48,2.96-5.54,5.58-9.18,7.86,1.36,.2,2.6,.3,3.72,.3h13.02l.06,7.26h-17.34c-2.2,0-4.2-.52-6-1.56-2.88,1.32-4.93,2.7-6.15,4.14-1.22,1.44-1.83,3.16-1.83,5.16,0,2.28,.79,4.1,2.37,5.46,1.58,1.36,3.71,2.04,6.39,2.04,3.92,0,7.6-1.08,11.04-3.24v7.14Zm-11.64-29.29c3-2.36,5.22-4.74,6.66-7.14-2.4-2.24-4.64-3.36-6.72-3.36s-4.18,1.12-6.42,3.36c1.6,2.76,3.76,5.14,6.48,7.14Z"/>
          <path class="cls-8" d="M1457.39,91.1v-7.26h5.4c1.52,0,2.6-.33,3.24-.99,.64-.66,.96-1.77,.96-3.33v-11.1l7.56-3.96v15.42c0,3.64-1.12,6.48-3.36,8.52-1.96,1.8-4.52,2.7-7.68,2.7h-6.12Zm12.72,13.38c-1.2,0-2.16-.36-2.88-1.08-.72-.72-1.08-1.7-1.08-2.94,0-1.16,.36-2.1,1.08-2.82,.72-.72,1.68-1.08,2.88-1.08s2.15,.35,2.85,1.05c.7,.7,1.05,1.65,1.05,2.85,0,2.68-1.3,4.02-3.9,4.02Z"/>
          <path class="cls-8" d="M1485.36,91.1V56.42l7.56-4.02v38.71h-7.56Z"/>
          <path class="cls-8" d="M1522.69,83.84h5.4v7.26h-6.12c-1.36,0-2.62-.18-3.78-.54-.52,3.84-2.06,6.88-4.62,9.12-2.32,2-5.1,3-8.34,3-2.52,0-4.98-.64-7.38-1.92v-6.6c2.08,1.16,4.12,1.74,6.12,1.74,2.2,0,3.91-.71,5.13-2.13,1.22-1.42,1.83-3.39,1.83-5.91v-19.44l4.92-2.58,2.58-1.38v.06l.06-.06v15.06c0,1.56,.32,2.67,.96,3.33,.64,.66,1.72,.99,3.24,.99Z"/>
          <path class="cls-8" d="M1524.49,91.1v-7.26h3.78c1.84,0,3.15-.4,3.93-1.2,.78-.8,1.17-2.16,1.17-4.08v-22.14l7.5-4.02v26.22c0,3.88-1.18,6.98-3.54,9.3-2.16,2.12-5.04,3.18-8.64,3.18h-4.2Z"/>
          <path class="cls-8" d="M1551.67,91.1V56.42l7.56-4.02v38.71h-7.56Z"/>
          <path class="cls-8" d="M1648.23,68.42l7.5-3.96v15.42c0,3.6-1.1,6.42-3.3,8.46-1.92,1.8-4.44,2.72-7.56,2.76h-5.7c-2.96,0-5.38-.78-7.26-2.34-1.88,1.52-4.24,2.3-7.08,2.34h-5.76c-1.36,0-2.62-.18-3.78-.54-.76,3.84-2.7,6.86-5.82,9.06-2.8,1.92-6.2,2.88-10.2,2.88-5.4,0-9.58-1.9-12.54-5.7-2.32-2.96-3.48-6.44-3.48-10.44,0-3.16,.74-5.92,2.22-8.28l7.2-1.5c-1.6,2.72-2.4,5.58-2.4,8.58s.86,5.5,2.58,7.38c1.64,1.8,3.78,2.7,6.42,2.7s4.91-.7,6.45-2.1c1.54-1.4,2.31-3.36,2.31-5.88v-15.66l7.56-3.96v11.88c0,1.56,.33,2.67,.99,3.33s1.75,.99,3.27,.99h4.02c1.52,0,2.61-.33,3.27-.99s.99-1.77,.99-3.33v-9.48l7.5-4.02v13.5c0,1.56,.33,2.67,.99,3.33s1.75,.99,3.27,.99h4.08c1.52,0,2.61-.33,3.27-.99s.99-1.77,.99-3.33v-11.1Z"/>
          <path class="cls-8" d="M1677.33,87.38c0,4.64-1.28,8.4-3.84,11.28-2.36,2.68-5.48,4.02-9.36,4.02-2.52,0-4.98-.64-7.38-1.92v-6.6c2.08,1.16,4.12,1.74,6.12,1.74,2.2,0,3.91-.71,5.13-2.13,1.22-1.42,1.83-3.39,1.83-5.91v-19.38l7.5-4.02v22.92Z"/>
          <path class="cls-8" d="M1683.33,91.1l3.78-7.26h9.48c2.04,0,3.06-1.18,3.06-3.54,0-4.4-2.12-7.78-6.36-10.14l3.72-6.42c6.24,3.64,9.6,8.58,10.08,14.82,.16,2,.61,3.38,1.35,4.14,.74,.76,2.01,1.14,3.81,1.14h4.56v7.26h-4.98c-2.96,0-5.46-.82-7.5-2.46-1.48,1.64-3.6,2.46-6.36,2.46h-14.64Z"/>
          <path class="cls-8" d="M1713.22,91.1v-7.26h3.78c1.84,0,3.15-.4,3.93-1.2,.78-.8,1.17-2.16,1.17-4.08v-22.14l7.5-4.02v26.22c0,3.88-1.18,6.98-3.54,9.3-2.16,2.12-5.04,3.18-8.64,3.18h-4.2Z"/>
          <path class="cls-8" d="M1740.4,91.1V56.42l7.56-4.02v38.71h-7.56Z"/>
        </g>
        <rect class="cls-8" x="1790.1" y="9.34" width="139.06" height="134.27"/>
      </g>
      <text class="cls-1" transform="translate(1822.77 114.85)"><tspan x="0" y="0">4</tspan></text>
    </g>
  </g>
</svg>