<?xml version="1.0" encoding="UTF-8"?>
<svg id="Layer_1" data-name="Layer 1" xmlns="http://www.w3.org/2000/svg" width="1641" height="697" viewBox="0 0 1641 697">
  <defs>
    <style>
      .cls-1 {
        fill: #e0e0e0;
      }

      .cls-1, .cls-2, .cls-3 {
        stroke-width: 0px;
      }

      .cls-2 {
        fill: #f3f2f3;
      }

      .cls-3 {
        fill: #273551;
      }
    </style>
  </defs>
  <path class="cls-1" d="m43.54,144.56v305.41c0,28.91,11.72,55.07,30.66,74.02,18.94,18.94,45.11,30.66,74.02,30.66h968.74c5.94,0,11.83.79,17.51,2.34,5.69,1.55,11.17,3.85,16.29,6.86l87.9,51.64,87.9,51.64v-45.74c0-18.43,7.47-35.11,19.55-47.19,12.08-12.08,28.76-19.54,47.19-19.54h-143.56,233.04c28.91,0,55.07-11.72,74.02-30.66,18.94-18.94,30.66-45.11,30.66-74.02V144.56c0-28.91-11.72-55.08-30.66-74.02-18.94-18.94-45.11-30.66-74.02-30.66H148.21c-28.91,0-55.07,11.72-74.02,30.66-18.94,18.94-30.66,45.11-30.66,74.02Z"/>
  <path class="cls-2" d="m53.54,134.56v305.41c0,28.91,11.72,55.07,30.66,74.02,18.94,18.94,45.11,30.66,74.02,30.66h968.74c5.94,0,11.83.79,17.51,2.34,5.69,1.55,11.17,3.85,16.29,6.86l87.9,51.64,87.9,51.64v-45.74c0-18.43,7.47-35.11,19.55-47.19,12.08-12.08,28.76-19.54,47.19-19.54h-143.56,233.04c28.91,0,55.07-11.72,74.02-30.66,18.94-18.94,30.66-45.11,30.66-74.02V134.56c0-28.91-11.72-55.08-30.66-74.02-18.94-18.94-45.11-30.66-74.02-30.66H158.21c-28.91,0-55.07,11.72-74.02,30.66-18.94,18.94-30.66,45.11-30.66,74.02Z"/>
  <g>
    <path class="cls-3" d="m729.28,104.99l1.89-3.64h8.01c1.2,0,2.05-.3,2.54-.9.5-.6.74-1.63.74-3.11,0-4.02-1.82-7.06-5.44-9.13l1.89-3.2c4.95,2.82,7.42,6.95,7.42,12.38,0,5.07-2.16,7.61-6.48,7.61h-10.58Z"/>
    <path class="cls-3" d="m761.37,104.99c-2.61,0-4.62-.84-6.03-2.52-1.2-1.44-1.8-3.27-1.8-5.49v-18.95l3.87-2.07v20.88c0,3,1.47,4.5,4.41,4.5h2.97v3.64h-3.42Z"/>
    <path class="cls-3" d="m784.32,101.34h11.88v3.64h-12.24c-1.62,0-3.22-.32-4.81-.95-1.59.63-3.21.95-4.86.95h-12.19v-3.64h12.51c-2.16-1.77-4.38-4.37-6.66-7.79v-1.98c1.44-2.07,3.16-3.71,5.15-4.91,2-1.2,4-1.8,6.01-1.8s4.02.61,6.03,1.82c2.01,1.22,3.75,2.87,5.22,4.97v1.89c-2.28,3.42-4.52,6.01-6.71,7.79h.67Zm-12.78-8.73c2.76,3.78,5.29,6.27,7.61,7.47,2.31-1.23,4.84-3.73,7.6-7.51-2.25-2.73-4.8-4.11-7.65-4.14-2.85,0-5.37,1.39-7.56,4.18Z"/>
    <path class="cls-3" d="m793.5,104.99v-3.64h2.97c2.94,0,4.41-1.5,4.41-4.5v-9.32l3.87-2.07v11.52c0,2.55-.77,4.56-2.29,6.03-1.41,1.32-3.26,1.98-5.54,1.98h-3.42Zm7.24,8.96c-1.47,0-2.2-.75-2.2-2.25s.73-2.21,2.2-2.21,2.16.73,2.16,2.21-.72,2.25-2.16,2.25Z"/>
    <path class="cls-3" d="m810.46,75.33l1.04-1.93h1.21c-.3-.54-.45-1.09-.45-1.67,0-.9.33-1.67.99-2.32.66-.64,1.44-.97,2.34-.97.75,0,1.47.24,2.16.72v1.98c-.66-.51-1.29-.77-1.89-.77-1.11,0-1.67.5-1.67,1.49,0,.51.21,1.02.63,1.53h4.09l-1.04,1.93h-7.42Zm2.38,29.66v-25.16l3.87-2.07v27.22h-3.87Z"/>
    <path class="cls-3" d="m853.16,101.34h2.97v3.64h-3.42c-3.09,0-5.31-1.14-6.66-3.42-1.44,1.38-3.23,2.07-5.36,2.07-2.64,0-4.74-.99-6.3-2.97-1.29-1.68-1.94-3.73-1.94-6.17,0-2.91.88-5.25,2.66-7.02,1.5-1.53,3.33-2.29,5.49-2.29,1.65,0,3.07.42,4.27,1.26v-1.93l3.92-2.07v14.4c0,3,1.46,4.5,4.37,4.5Zm-8.28-10.71c-1.11-1.23-2.47-1.84-4.09-1.84-1.32,0-2.4.53-3.24,1.6-.84,1.07-1.26,2.45-1.26,4.16s.42,3.14,1.26,4.19c.84,1.05,1.94,1.58,3.29,1.58,1.68,0,3.06-.69,4.14-2.07-.06-.54-.09-.96-.09-1.26v-6.35Z"/>
    <path class="cls-3" d="m853.43,104.99v-3.64h7.92v3.64h-7.92Z"/>
    <path class="cls-3" d="m858.65,104.99v-3.64h7.92v3.64h-7.92Z"/>
    <path class="cls-3" d="m863.87,104.99v-3.64h7.92v3.64h-7.92Z"/>
    <path class="cls-3" d="m884.75,101.34h2.97v3.64h-3.42c-2.49,0-4.46-.79-5.9-2.38-1.44,1.59-3.41,2.38-5.89,2.38h-3.42v-3.64h2.97c2.94,0,4.41-1.5,4.41-4.5v-9.32l3.87-2.07v11.39c0,3,1.47,4.5,4.41,4.5Zm-10.75,8.14c1.44,0,2.16.75,2.16,2.25s-.72,2.21-2.16,2.21-2.21-.74-2.21-2.21.74-2.25,2.21-2.25Zm5.71,0c1.44,0,2.16.75,2.16,2.25s-.72,2.21-2.16,2.21-2.2-.74-2.2-2.21.73-2.25,2.2-2.25Z"/>
    <path class="cls-3" d="m885.02,104.99v-3.64h8.1c-1.38-1.53-2.07-3.66-2.07-6.39,0-3.27.86-5.82,2.57-7.65,1.5-1.62,3.49-2.43,5.99-2.43s4.53.8,5.94,2.38c1.2,1.41,1.8,3.26,1.8,5.54v4.28c-.03,2.49-.76,4.46-2.21,5.89-1.41,1.35-3.28,2.03-5.62,2.03h-14.49Zm18.45-12.01c0-3-1.29-4.5-3.87-4.5-1.47,0-2.63.56-3.47,1.69s-1.26,2.69-1.26,4.7.41,3.55,1.21,4.72c.81,1.17,1.89,1.76,3.24,1.76,2.76,0,4.14-1.44,4.14-4.32v-4.05Zm-3.78-12.69c-1.47,0-2.21-.75-2.21-2.25s.73-2.21,2.21-2.21,2.16.74,2.16,2.21-.72,2.25-2.16,2.25Z"/>
    <path class="cls-3" d="m921.73,104.99l1.89-3.64h8.01c1.2,0,2.05-.3,2.54-.9.5-.6.74-1.63.74-3.11,0-3.99-1.84-6.99-5.54-9l1.98-3.33c4.71,2.76,7.17,6.57,7.38,11.43.06,1.74.46,2.99,1.19,3.76.74.77,1.91,1.15,3.53,1.15h2.66v3.64h-2.97c-2.49,0-4.44-.79-5.85-2.38-.99,1.59-2.65,2.38-4.99,2.38h-10.58Z"/>
    <path class="cls-3" d="m943.42,104.99v-3.64h7.92v3.64h-7.92Z"/>
    <path class="cls-3" d="m948.64,104.99v-3.64h7.92v3.64h-7.92Z"/>
    <path class="cls-3" d="m953.86,104.99v-3.64h7.92v3.64h-7.92Z"/>
    <path class="cls-3" d="m959.08,104.99v-3.64h2.97c2.94,0,4.41-1.5,4.41-4.5v-9.32l3.87-2.07v11.52c0,2.55-.77,4.56-2.29,6.03-1.41,1.32-3.26,1.98-5.54,1.98h-3.42Zm2.38,8.96c-1.47,0-2.21-.75-2.21-2.25s.74-2.21,2.21-2.21,2.16.73,2.16,2.21-.72,2.25-2.16,2.25Zm5.71,0c-1.47,0-2.21-.75-2.21-2.25s.73-2.21,2.21-2.21,2.16.73,2.16,2.21-.72,2.25-2.16,2.25Z"/>
    <path class="cls-3" d="m992.38,101.34h2.97v3.64h-3.42c-1.53,0-2.85-.3-3.96-.9-.27,2.97-1.3,5.34-3.11,7.11-1.65,1.62-3.72,2.43-6.21,2.43-1.8,0-3.55-.45-5.26-1.35v-3.38c1.53.84,3.06,1.26,4.59,1.26,1.92,0,3.42-.65,4.5-1.93,1.08-1.29,1.62-3.08,1.62-5.36v-15.34l3.87-2.07v.04l.04-.04v12.29c.27,2.4,1.72,3.6,4.37,3.6Zm-6.98-21.33c-1.47,0-2.21-.75-2.21-2.25s.74-2.21,2.21-2.21,2.16.74,2.16,2.21-.72,2.25-2.16,2.25Z"/>
    <path class="cls-3" d="m992.65,104.99v-3.64h2.97c2.94,0,4.41-1.5,4.41-4.5v-9.32l3.87-2.07v11.52c0,2.55-.77,4.56-2.29,6.03-1.41,1.32-3.26,1.98-5.54,1.98h-3.42Zm3.46-24.97c-1.47,0-2.21-.75-2.21-2.25s.73-2.21,2.21-2.21,2.16.74,2.16,2.21-.72,2.25-2.16,2.25Zm5.71,0c-1.47,0-2.21-.75-2.21-2.25s.73-2.21,2.21-2.21,2.16.74,2.16,2.21-.72,2.25-2.16,2.25Z"/>
    <path class="cls-3" d="m1048.31,104.99c-.3,2.64-1.74,4.75-4.32,6.34-2.4,1.47-5.46,2.21-9.18,2.21-4.74,0-8.31-1.38-10.71-4.14-1.77-2.04-2.65-4.56-2.65-7.56,0-2.52.63-4.68,1.89-6.48l3.74-.81c-1.35,2.13-2.03,4.43-2.03,6.89,0,2.67.87,4.77,2.61,6.3,1.71,1.53,4.09,2.29,7.15,2.29,2.58,0,4.71-.45,6.39-1.35,1.68-.9,2.7-2.13,3.06-3.69h-4.5l1.89-3.64h6.79v3.64h-.14Zm-16.51,16.51c-1.47,0-2.21-.75-2.21-2.25s.73-2.21,2.21-2.21,2.16.74,2.16,2.21-.72,2.25-2.16,2.25Zm5.71,0c-1.47,0-2.21-.75-2.21-2.25s.74-2.21,2.21-2.21,2.16.74,2.16,2.21-.72,2.25-2.16,2.25Z"/>
    <path class="cls-3" d="m1046.06,104.99v-3.64h7.92v3.64h-7.92Z"/>
    <path class="cls-3" d="m1051.28,104.99v-3.64h7.92v3.64h-7.92Z"/>
    <path class="cls-3" d="m1056.5,104.99v-3.64h7.92v3.64h-7.92Z"/>
    <path class="cls-3" d="m1061.72,104.99v-3.64h4.05c2.91,0,4.37-1.5,4.37-4.5v-6.3l3.87-2.07v8.37c0,3,1.47,4.5,4.41,4.5h2.07c2.94,0,4.41-1.5,4.41-4.5v-7.83l3.87-2.03v9.86c0,3,1.45,4.5,4.36,4.5h2.12c2.94,0,4.41-1.5,4.41-4.5v-9.32l3.87-2.07v11.52c0,2.55-.76,4.54-2.29,5.98-1.35,1.32-3.15,2-5.4,2.03h-3.1c-2.64,0-4.61-.88-5.9-2.66-1.29,1.74-3.21,2.63-5.76,2.66h-3.11c-2.58,0-4.54-.88-5.89-2.66-1.29,1.77-3.26,2.66-5.89,2.66h-4.46Z"/>
    <path class="cls-3" d="m1108.02,104.99l1.89-3.64h8.01c1.2,0,2.05-.3,2.54-.9.5-.6.74-1.63.74-3.11,0-3.99-1.84-6.99-5.54-9l1.98-3.33c4.71,2.76,7.17,6.57,7.38,11.43.06,1.74.46,2.99,1.19,3.76.74.77,1.91,1.15,3.53,1.15h2.66v3.64h-2.97c-2.49,0-4.44-.79-5.85-2.38-.99,1.59-2.65,2.38-4.99,2.38h-10.58Z"/>
    <path class="cls-3" d="m1145.37,101.34h2.97v3.64h-3.42c-2.49,0-4.46-.79-5.9-2.38-1.44,1.59-3.41,2.38-5.89,2.38h-3.42v-3.64h2.97c2.94,0,4.41-1.5,4.41-4.5v-9.32l3.87-2.07v11.39c0,3,1.47,4.5,4.41,4.5Zm-7.11-21.33c-1.47,0-2.21-.75-2.21-2.25s.73-2.21,2.21-2.21,2.16.74,2.16,2.21-.72,2.25-2.16,2.25Z"/>
    <path class="cls-3" d="m1151.04,91.62c.75-2.76,2.17-4.88,4.28-6.34,1.71-1.17,3.64-1.75,5.8-1.75,3.18,0,5.8,1.08,7.88,3.24,1.95,2.04,2.92,4.67,2.92,7.88v2.38c0,2.61-.81,4.63-2.43,6.08-1.41,1.26-3.24,1.89-5.49,1.89h-4.86c-1.02,0-1.98-.15-2.88-.45-.93.3-1.89.45-2.88.45h-7.74v-3.64h5.8c-1.14-1.53-1.71-3.27-1.71-5.22,0-1.77.43-3.27,1.3-4.5Zm5.22,9.32c2.46-.84,3.69-2.52,3.69-5.04,0-1.26-.34-2.27-1.01-3.04-.67-.76-1.57-1.15-2.68-1.15s-2,.38-2.68,1.15c-.67.77-1.01,1.78-1.01,3.04,0,2.52,1.23,4.2,3.69,5.04Zm11.75-4.28v-2.02c0-2.49-.79-4.42-2.38-5.81-1.29-1.14-2.83-1.71-4.63-1.71-2.07,0-3.69.67-4.86,2.03h.13c1.98,0,3.56.64,4.75,1.91,1.18,1.28,1.78,2.96,1.78,5.06s-.58,3.75-1.75,5.22h2.83c1.47,0,2.53-.37,3.17-1.1.64-.74.97-1.93.97-3.58Z"/>
    <path class="cls-3" d="m1217.18,101.34h2.97v3.64h-3.42c-1.62,0-3.08-.36-4.37-1.08-.42,3.09-1.82,5.52-4.19,7.29-2.1,1.56-4.7,2.34-7.78,2.34-4.02,0-7.13-1.35-9.32-4.05-1.68-2.1-2.52-4.6-2.52-7.51,0-2.55.61-4.73,1.84-6.53l3.87-.85c-1.38,2.13-2.07,4.45-2.07,6.97s.79,4.53,2.38,6.12c1.47,1.47,3.41,2.21,5.81,2.21,2.73,0,4.83-.81,6.3-2.43,1.26-1.38,1.89-3.15,1.89-5.31v-24.12l3.92-2.07v20.88c0,3,1.56,4.5,4.68,4.5Z"/>
    <path class="cls-3" d="m1217.45,104.99v-3.64h7.92v3.64h-7.92Z"/>
    <path class="cls-3" d="m1222.67,104.99v-3.64h7.92v3.64h-7.92Z"/>
    <path class="cls-3" d="m1227.89,104.99v-3.64h7.92v3.64h-7.92Z"/>
    <path class="cls-3" d="m1233.11,104.99v-3.64h2.97c2.94,0,4.41-1.5,4.41-4.5v-9.32l3.87-2.07v11.52c0,2.55-.77,4.56-2.29,6.03-1.41,1.32-3.26,1.98-5.54,1.98h-3.42Zm2.38,8.96c-1.47,0-2.21-.75-2.21-2.25s.74-2.21,2.21-2.21,2.16.73,2.16,2.21-.72,2.25-2.16,2.25Zm5.71,0c-1.47,0-2.21-.75-2.21-2.25s.73-2.21,2.21-2.21,2.16.73,2.16,2.21-.72,2.25-2.16,2.25Z"/>
    <path class="cls-3" d="m1273.48,101.34v3.64h-5.58c-.12,2.58-1.23,4.71-3.33,6.39-1.77,1.38-3.78,2.07-6.03,2.07-1.86,0-3.62-.44-5.26-1.3v-3.42c1.59.84,3.16,1.26,4.72,1.26s2.98-.5,4.16-1.49c1.19-.99,1.79-2.17,1.82-3.55-1.56-.06-2.72-.12-3.46-.18-3.24-.18-5.69-1.28-7.34-3.29-1.38-1.68-2.07-3.85-2.07-6.53,0-3.27.87-5.82,2.61-7.65,1.56-1.62,3.62-2.43,6.17-2.43s4.73.8,6.17,2.38c1.23,1.41,1.85,3.26,1.85,5.54v8.55h5.58Zm-9.5-8.28c0-3.06-1.37-4.59-4.1-4.59-1.56,0-2.77.56-3.64,1.69s-1.3,2.69-1.3,4.7c0,3.93,1.92,6.02,5.76,6.25.72.09,1.81.17,3.29.23v-8.28Z"/>
    <path class="cls-3" d="m1300.12,101.34h2.92v3.64h-2.97c-2.43,0-4.38-.28-5.85-.83-1.47-.56-2.83-1.54-4.09-2.95-3.78,2.52-8.19,3.78-13.23,3.78h-6.12v-3.64h6.17c6.09,0,10.9-2.01,14.44-6.03-2.49-4.59-5.52-6.88-9.09-6.88-2.43,0-4.94,1.29-7.51,3.87v-3.6c2.52-2.55,5.19-3.83,8.01-3.83,2.31,0,4.54.83,6.71,2.5s4.06,4.04,5.71,7.13v1.98c-.93,1.17-1.82,2.12-2.66,2.83,1.62,1.35,4.14,2.03,7.56,2.03Z"/>
    <path class="cls-3" d="m1300.34,104.99v-3.64h2.97c2.94,0,4.41-1.5,4.41-4.5v-9.32l3.87-2.07v11.52c0,2.55-.77,4.56-2.29,6.03-1.41,1.32-3.26,1.98-5.54,1.98h-3.42Zm3.46-24.97c-1.47,0-2.21-.75-2.21-2.25s.73-2.21,2.21-2.21,2.16.74,2.16,2.21-.72,2.25-2.16,2.25Zm5.71,0c-1.47,0-2.21-.75-2.21-2.25s.73-2.21,2.21-2.21,2.16.74,2.16,2.21-.72,2.25-2.16,2.25Z"/>
    <path class="cls-3" d="m1351.05,101.34v3.64h-5.58c-.12,2.58-1.23,4.71-3.33,6.39-1.77,1.38-3.78,2.07-6.03,2.07-1.86,0-3.62-.44-5.26-1.3v-3.42c1.59.84,3.16,1.26,4.72,1.26s2.98-.5,4.16-1.49c1.19-.99,1.79-2.17,1.82-3.55-1.56-.06-2.72-.12-3.46-.18-3.24-.18-5.69-1.28-7.34-3.29-1.38-1.68-2.07-3.85-2.07-6.53,0-3.27.87-5.82,2.61-7.65,1.56-1.62,3.62-2.43,6.17-2.43s4.73.8,6.17,2.38c1.23,1.41,1.85,3.26,1.85,5.54v8.55h5.58Zm-9.5-8.28c0-3.06-1.37-4.59-4.1-4.59-1.56,0-2.77.56-3.64,1.69s-1.3,2.69-1.3,4.7c0,3.93,1.92,6.02,5.76,6.25.72.09,1.81.17,3.29.23v-8.28Z"/>
    <path class="cls-3" d="m1348.35,104.99v-3.64h7.92v3.64h-7.92Z"/>
    <path class="cls-3" d="m1353.57,104.99v-3.64h7.92v3.64h-7.92Z"/>
    <path class="cls-3" d="m1358.79,104.99v-3.64h7.92v3.64h-7.92Z"/>
    <path class="cls-3" d="m1369.41,91.62c.75-2.76,2.17-4.88,4.28-6.34,1.71-1.17,3.64-1.75,5.8-1.75,3.18,0,5.8,1.08,7.88,3.24,1.95,2.04,2.92,4.67,2.92,7.88v2.38c0,2.61-.81,4.63-2.43,6.08-1.41,1.26-3.24,1.89-5.49,1.89h-4.86c-1.02,0-1.98-.15-2.88-.45-.93.3-1.89.45-2.88.45h-7.74v-3.64h5.8c-1.14-1.53-1.71-3.27-1.71-5.22,0-1.77.43-3.27,1.3-4.5Zm5.22,9.32c2.46-.84,3.69-2.52,3.69-5.04,0-1.26-.34-2.27-1.01-3.04-.67-.76-1.57-1.15-2.68-1.15s-2,.38-2.68,1.15c-.67.77-1.01,1.78-1.01,3.04,0,2.52,1.23,4.2,3.69,5.04Zm11.75-4.28v-2.02c0-2.49-.79-4.42-2.38-5.81-1.29-1.14-2.83-1.71-4.63-1.71-2.07,0-3.69.67-4.86,2.03h.13c1.98,0,3.56.64,4.75,1.91,1.18,1.28,1.78,2.96,1.78,5.06s-.58,3.75-1.75,5.22h2.83c1.47,0,2.53-.37,3.17-1.1.64-.74.97-1.93.97-3.58Z"/>
    <path class="cls-3" d="m1414.84,91.08v.09c0,.96-.3,1.74-.9,2.34-.6.6-1.4.9-2.39.9s-1.84-.31-2.45-.92c-.62-.62-.92-1.43-.92-2.45v-.09c.06-.93.4-1.68,1.01-2.25.61-.57,1.4-.85,2.36-.85s1.79.3,2.39.9c.6.6.9,1.38.9,2.34Zm0,10.8v.09c0,.96-.3,1.74-.9,2.34s-1.4.9-2.39.9-1.84-.31-2.45-.92c-.62-.62-.92-1.43-.92-2.45v-.09c.06-.93.4-1.68,1.01-2.25.61-.57,1.4-.85,2.36-.85s1.79.3,2.39.9c.6.6.9,1.38.9,2.34Z"/>
    <path class="cls-3" d="m1432.39,99.54h4.05v5.45h-4.59c-1.02,0-1.96-.13-2.83-.41-.39,2.88-1.54,5.16-3.46,6.84-1.74,1.5-3.83,2.25-6.25,2.25-1.89,0-3.74-.48-5.54-1.44v-4.95c1.56.87,3.09,1.3,4.59,1.3,1.65,0,2.93-.53,3.85-1.6.92-1.07,1.37-2.54,1.37-4.43v-14.58l3.69-1.94,1.94-1.04v.05l.04-.05v11.3c0,1.17.24,2,.72,2.5.48.5,1.29.74,2.43.74Z"/>
    <path class="cls-3" d="m1433.75,104.99v-5.45h7.92v5.45h-7.92Z"/>
    <path class="cls-3" d="m1438.96,104.99v-5.45h7.92v5.45h-7.92Z"/>
    <path class="cls-3" d="m1444.18,104.99v-5.45h7.92v5.45h-7.92Z"/>
    <path class="cls-3" d="m1465.42,99.54h4.05v5.45h-4.59c-2.19,0-4-.58-5.45-1.75-1.44,1.17-3.25,1.75-5.44,1.75h-4.59v-5.45h4.05c1.14,0,1.95-.25,2.43-.74.48-.5.72-1.33.72-2.5v-8.33l5.67-2.97v11.3c0,1.17.24,2,.72,2.5.48.5,1.29.74,2.43.74Zm-11.66,9.54c.9,0,1.61.26,2.14.79s.79,1.24.79,2.14c0,2.01-.98,3.02-2.93,3.02-.9,0-1.62-.27-2.16-.81-.54-.54-.81-1.28-.81-2.21,0-1.95.99-2.92,2.97-2.92Zm6.93,0c.9,0,1.61.26,2.14.79.53.52.79,1.24.79,2.14,0,2.01-.98,3.02-2.92,3.02-.9,0-1.62-.27-2.16-.81s-.81-1.28-.81-2.21c0-1.95.99-2.92,2.97-2.92Z"/>
    <path class="cls-3" d="m1482.79,99.54h4.05v5.45h-4.59c-2.19,0-4-.58-5.45-1.75-1.44,1.17-3.25,1.75-5.44,1.75h-4.59v-5.45h4.05c1.14,0,1.95-.25,2.43-.74.48-.5.72-1.33.72-2.5v-8.33l5.67-2.97v11.3c0,1.17.24,2,.72,2.5.48.5,1.29.74,2.43.74Zm-5.71,9.54c.9,0,1.61.26,2.14.79s.79,1.24.79,2.14c0,2.01-.98,3.02-2.92,3.02-.9,0-1.62-.27-2.16-.81s-.81-1.28-.81-2.21c0-.87.27-1.57.81-2.11s1.26-.81,2.16-.81Z"/>
    <path class="cls-3" d="m1508.44,99.54h3.55v5.45h-4.14c-2.19,0-3.99-.58-5.4-1.75-1.44,1.17-3.25,1.75-5.45,1.75h-12.87v-5.45h12.28c2.1,0,3.15-1.04,3.15-3.1v-.27c0-1.65-.62-2.98-1.84-3.98-1.23-1-2.85-1.51-4.86-1.51-1.53,0-3.13.3-4.81.9v-5.45l9.13-10.17h5.71l-8.19,9.18c2.37.24,4.38.94,6.03,2.11,3,2.04,4.5,5,4.5,8.87v.18c0,1.17.25,2,.74,2.5.5.5,1.31.74,2.45.74Z"/>
    <path class="cls-3" d="m1525.32,99.54h4.05v5.45h-4.59c-2.19,0-4-.58-5.45-1.75-1.44,1.17-3.25,1.75-5.44,1.75h-4.59v-5.45h4.05c1.14,0,1.95-.25,2.43-.74.48-.5.72-1.33.72-2.5v-8.33l5.67-2.97v11.3c0,1.17.24,2,.72,2.5.48.5,1.29.74,2.43.74Zm-11.75-18.5c-.9,0-1.62-.27-2.16-.81s-.81-1.27-.81-2.21c0-.87.27-1.58.81-2.12s1.26-.81,2.16-.81,1.61.26,2.14.79c.52.53.79,1.24.79,2.14,0,2.01-.97,3.01-2.92,3.01Zm6.88,0c-.9,0-1.62-.28-2.16-.83-.54-.55-.81-1.28-.81-2.18s.28-1.58.83-2.12c.55-.54,1.27-.81,2.14-.81s1.61.26,2.14.79c.52.53.79,1.24.79,2.14,0,2.01-.98,3.01-2.93,3.01Z"/>
    <path class="cls-3" d="m1526.67,104.99v-5.45h2.83c1.38,0,2.36-.3,2.95-.9.58-.6.88-1.62.88-3.06v-16.6l5.62-3.02v19.67c0,2.91-.88,5.24-2.65,6.98-1.62,1.59-3.78,2.38-6.48,2.38h-3.15Z"/>
    <path class="cls-3" d="m1547.05,104.99v-26.01l5.67-3.02v29.03h-5.67Z"/>
    <path class="cls-3" d="m760.6,174.34h2.97v3.64h-3.42c-1.62,0-3.08-.36-4.37-1.08-.42,3.09-1.82,5.52-4.19,7.29-2.1,1.56-4.7,2.34-7.78,2.34-4.02,0-7.13-1.35-9.32-4.05-1.68-2.1-2.52-4.6-2.52-7.51,0-2.55.61-4.73,1.84-6.53l3.87-.85c-1.38,2.13-2.07,4.45-2.07,6.97s.79,4.53,2.38,6.12c1.47,1.47,3.41,2.21,5.81,2.21,2.73,0,4.83-.81,6.3-2.43,1.26-1.38,1.89-3.15,1.89-5.31v-24.12l3.92-2.07v20.88c0,3,1.56,4.5,4.68,4.5Z"/>
    <path class="cls-3" d="m785.49,174.34h2.57v3.64h-2.97c-2.52,0-4.49-.78-5.9-2.34-1.41,1.56-3.38,2.34-5.89,2.34h-12.42v-3.64h12.06c2.88,0,4.32-1.51,4.32-4.55v-.4c0-2.25-.87-3.96-2.61-5.13-1.38-.96-3.08-1.44-5.08-1.44-1.59,0-3.18.3-4.77.9v-3.83l9.85-10.94h3.96l-8.87,9.99h.27c3.42,0,6.18,1.04,8.28,3.11,1.89,1.92,2.83,4.35,2.83,7.29v.5c0,3,1.45,4.5,4.36,4.5Z"/>
    <path class="cls-3" d="m785.35,177.99v-3.64h4.05c2.91,0,4.37-1.5,4.37-4.5v-6.3l3.87-2.07v8.37c0,3,1.47,4.5,4.41,4.5h2.07c2.94,0,4.41-1.5,4.41-4.5v-7.83l3.87-2.03v9.86c0,3,1.45,4.5,4.36,4.5h2.12c2.94,0,4.41-1.5,4.41-4.5v-9.32l3.87-2.07v10.98c0,3.27,1.56,4.91,4.68,4.91h3.74v3.64h-4.05c-2.7,0-4.76-.92-6.17-2.75-1.26,1.8-3.23,2.72-5.9,2.75h-3.1c-2.64,0-4.61-.88-5.9-2.66-1.29,1.74-3.21,2.63-5.76,2.66h-3.11c-2.58,0-4.54-.88-5.89-2.66-1.29,1.77-3.26,2.66-5.89,2.66h-4.46Zm21.92-23.76c-1.47,0-2.21-.75-2.21-2.25s.73-2.21,2.21-2.21,2.16.74,2.16,2.21-.72,2.25-2.16,2.25Zm2.83-5.36c-1.32,0-1.98-.67-1.98-2.02s.66-1.98,1.98-1.98,1.98.66,1.98,1.98-.66,2.02-1.98,2.02Zm2.88,5.36c-1.47,0-2.21-.75-2.21-2.25s.73-2.21,2.21-2.21,2.16.74,2.16,2.21-.72,2.25-2.16,2.25Z"/>
    <path class="cls-3" d="m832.87,177.99v-3.64h2.38c3.12,0,4.68-1.63,4.68-4.91v-18.41l3.92-2.07v20.52c0,2.67-.79,4.79-2.38,6.34-1.5,1.44-3.46,2.16-5.9,2.16h-2.7Z"/>
    <path class="cls-3" d="m851.95,177.99v-26.96l3.87-2.07v29.03h-3.87Z"/>
    <path class="cls-3" d="m898.83,177.99c-.3,2.64-1.74,4.75-4.32,6.34-2.4,1.47-5.46,2.21-9.18,2.21-4.74,0-8.31-1.38-10.71-4.14-1.77-2.04-2.65-4.56-2.65-7.56,0-2.52.63-4.68,1.89-6.48l3.74-.81c-1.35,2.13-2.03,4.43-2.03,6.89,0,2.67.87,4.77,2.61,6.3,1.71,1.53,4.09,2.29,7.15,2.29,2.58,0,4.71-.45,6.39-1.35,1.68-.9,2.7-2.13,3.06-3.69h-4.5l1.89-3.64h6.79v3.64h-.14Z"/>
    <path class="cls-3" d="m925.56,174.34h3.01v3.64h-3.42c-2.49,0-4.46-.79-5.89-2.38-1.53,2.19-3.77,3.29-6.71,3.29s-5.16-1.08-6.66-3.24c-1.41,1.56-3.38,2.34-5.89,2.34h-3.42v-3.64h2.97c2.94,0,4.41-1.5,4.41-4.5v-1.49c0-3.48.85-6.15,2.56-8.01,1.5-1.65,3.51-2.48,6.03-2.48,2.88,0,5.1,1.07,6.66,3.2,1.32,1.83,1.98,4.26,1.98,7.29v1.49c0,3,1.46,4.5,4.37,4.5Zm-13,.9c1.47,0,2.63-.61,3.49-1.84.86-1.23,1.28-2.92,1.28-5.08,0-4.56-1.59-6.84-4.77-6.84s-4.72,2.28-4.72,6.84,1.57,6.93,4.72,6.93Z"/>
    <path class="cls-3" d="m925.88,177.99v-3.64h4.05c2.91,0,4.37-1.5,4.37-4.5v-6.3l3.87-2.07v8.37c0,3,1.47,4.5,4.41,4.5h2.07c2.94,0,4.41-1.5,4.41-4.5v-7.83l3.87-2.03v9.86c0,3,1.45,4.5,4.36,4.5h2.12c2.94,0,4.41-1.5,4.41-4.5v-9.32l3.87-2.07v10.98c0,3.27,1.56,4.91,4.68,4.91h3.74v3.64h-4.05c-2.7,0-4.76-.92-6.17-2.75-1.26,1.8-3.23,2.72-5.9,2.75h-3.1c-2.64,0-4.61-.88-5.9-2.66-1.29,1.74-3.21,2.63-5.76,2.66h-3.11c-2.58,0-4.54-.88-5.89-2.66-1.29,1.77-3.26,2.66-5.89,2.66h-4.46Z"/>
    <path class="cls-3" d="m973.4,177.99v-3.64h2.97c2.94,0,4.41-1.5,4.41-4.5v-9.32l3.87-2.07v11.52c0,2.55-.77,4.56-2.29,6.03-1.41,1.32-3.26,1.98-5.54,1.98h-3.42Zm2.38,8.96c-1.47,0-2.21-.75-2.21-2.25s.74-2.21,2.21-2.21,2.16.73,2.16,2.21-.72,2.25-2.16,2.25Zm5.71,0c-1.47,0-2.21-.75-2.21-2.25s.73-2.21,2.21-2.21,2.16.73,2.16,2.21-.72,2.25-2.16,2.25Z"/>
    <path class="cls-3" d="m1003.82,176.55c-1.14.45-2.54.68-4.19.68-2.67,0-4.77-1-6.3-3.02-1.29-1.71-1.93-3.85-1.93-6.43,0-3.18.85-5.67,2.56-7.47,1.53-1.62,3.54-2.43,6.03-2.43s4.51.8,5.9,2.38c1.23,1.41,1.84,3.26,1.84,5.54v9.81c0,3.39-.89,6.08-2.66,8.05-1.68,1.86-3.92,2.79-6.71,2.79-1.86,0-3.62-.44-5.26-1.3v-3.42c1.59.84,3.17,1.26,4.72,1.26,1.77,0,3.18-.56,4.23-1.69,1.05-1.12,1.63-2.71,1.75-4.75Zm0-10.57c0-3-1.28-4.5-3.83-4.5-1.5,0-2.68.55-3.53,1.67-.86,1.11-1.28,2.62-1.28,4.54s.41,3.4,1.24,4.52c.82,1.12,1.94,1.69,3.35,1.69,1.98,0,3.33-.55,4.05-1.67v-6.25Z"/>
    <path class="cls-3" d="m1035.21,172.72c1.65,0,2.5.85,2.56,2.56,0,.84-.26,1.54-.79,2.09-.53.56-1.21.83-2.05.83-1.86,0-2.79-1.14-2.79-3.42v-5.8l1.89-.54.04,4.28h1.12Z"/>
    <path class="cls-3" d="m1062.3,174.34h2.97v3.64h-3.42c-3.09,0-5.31-1.14-6.66-3.42-1.44,1.38-3.23,2.07-5.36,2.07-2.64,0-4.74-.99-6.3-2.97-1.29-1.68-1.94-3.73-1.94-6.17,0-2.91.88-5.25,2.66-7.02,1.5-1.53,3.33-2.29,5.49-2.29,1.65,0,3.07.42,4.27,1.26v-1.93l3.92-2.07v14.4c0,3,1.46,4.5,4.37,4.5Zm-8.28-10.71c-1.11-1.23-2.47-1.84-4.09-1.84-1.32,0-2.4.53-3.24,1.6-.84,1.07-1.26,2.45-1.26,4.16s.42,3.14,1.26,4.19c.84,1.05,1.94,1.58,3.29,1.58,1.68,0,3.06-.69,4.14-2.07-.06-.54-.09-.96-.09-1.26v-6.35Zm-5.8-11.07c-1.47,0-2.21-.75-2.21-2.25s.74-2.21,2.21-2.21,2.16.74,2.16,2.21-.72,2.25-2.16,2.25Zm5.71,0c-1.47,0-2.21-.75-2.21-2.25s.74-2.21,2.21-2.21,2.16.74,2.16,2.21-.72,2.25-2.16,2.25Z"/>
    <path class="cls-3" d="m1078.23,174.34h2.97v3.64h-3.42c-2.49,0-4.46-.79-5.9-2.38-1.44,1.59-3.41,2.38-5.89,2.38h-3.42v-3.64h2.97c2.94,0,4.41-1.5,4.41-4.5v-9.32l3.87-2.07v11.39c0,3,1.47,4.5,4.41,4.5Zm-10.62-21.02c-1.47,0-2.21-.75-2.21-2.25s.73-2.21,2.21-2.21,2.16.74,2.16,2.21-.72,2.25-2.16,2.25Zm5.76,0c-1.47,0-2.21-.75-2.21-2.25s.73-2.21,2.21-2.21,2.16.74,2.16,2.21-.72,2.25-2.16,2.25Z"/>
    <path class="cls-3" d="m1078.5,177.99v-3.64h2.97c2.94,0,4.41-1.5,4.41-4.5v-9.32l3.87-2.07v11.52c0,2.55-.77,4.56-2.29,6.03-1.41,1.32-3.26,1.98-5.54,1.98h-3.42Zm7.24,8.96c-1.47,0-2.2-.75-2.2-2.25s.73-2.21,2.2-2.21,2.16.73,2.16,2.21-.72,2.25-2.16,2.25Z"/>
    <path class="cls-3" d="m1105.68,177.99c-2.61,0-4.62-.84-6.03-2.52-1.2-1.44-1.8-3.27-1.8-5.49v-18.95l3.87-2.07v20.88c0,3,1.47,4.5,4.41,4.5h2.97v3.64h-3.42Z"/>
    <path class="cls-3" d="m1106.4,177.99v-3.64h2.97c2.94,0,4.41-1.5,4.41-4.5v-9.32l3.87-2.07v11.52c0,2.55-.77,4.56-2.29,6.03-1.41,1.32-3.26,1.98-5.54,1.98h-3.42Zm3.46-24.97c-1.47,0-2.21-.75-2.21-2.25s.73-2.21,2.21-2.21,2.16.74,2.16,2.21-.72,2.25-2.16,2.25Zm2.83-5.36c-1.32,0-1.98-.67-1.98-2.03s.66-1.98,1.98-1.98,1.98.66,1.98,1.98-.66,2.03-1.98,2.03Zm2.88,5.36c-1.47,0-2.21-.75-2.21-2.25s.73-2.21,2.21-2.21,2.16.74,2.16,2.21-.72,2.25-2.16,2.25Z"/>
    <path class="cls-3" d="m1152.69,174.34h2.97v3.64h-3.42c-3.09,0-5.31-1.14-6.66-3.42-1.44,1.38-3.23,2.07-5.36,2.07-2.64,0-4.74-.99-6.3-2.97-1.29-1.68-1.94-3.73-1.94-6.17,0-2.91.88-5.25,2.66-7.02,1.5-1.53,3.33-2.29,5.49-2.29,1.65,0,3.07.42,4.27,1.26v-1.93l3.92-2.07v14.4c0,3,1.46,4.5,4.37,4.5Zm-8.28-10.71c-1.11-1.23-2.47-1.84-4.09-1.84-1.32,0-2.4.53-3.24,1.6-.84,1.07-1.26,2.45-1.26,4.16s.42,3.14,1.26,4.19c.84,1.05,1.94,1.58,3.29,1.58,1.68,0,3.06-.69,4.14-2.07-.06-.54-.09-.96-.09-1.26v-6.35Zm-5.8-11.07c-1.47,0-2.21-.75-2.21-2.25s.74-2.21,2.21-2.21,2.16.74,2.16,2.21-.72,2.25-2.16,2.25Zm5.71,0c-1.47,0-2.21-.75-2.21-2.25s.74-2.21,2.21-2.21,2.16.74,2.16,2.21-.72,2.25-2.16,2.25Z"/>
    <path class="cls-3" d="m1168.62,174.34h2.97v3.64h-3.42c-2.49,0-4.46-.79-5.9-2.38-1.44,1.59-3.41,2.38-5.89,2.38h-3.42v-3.64h2.97c2.94,0,4.41-1.5,4.41-4.5v-9.32l3.87-2.07v11.39c0,3,1.47,4.5,4.41,4.5Zm-6.61,8.14c1.44,0,2.16.73,2.16,2.21s-.72,2.25-2.16,2.25-2.21-.75-2.21-2.25.73-2.21,2.21-2.21Z"/>
    <path class="cls-3" d="m1168.89,177.99v-3.64h7.92v3.64h-7.92Z"/>
    <path class="cls-3" d="m1174.11,177.99v-3.64h7.92v3.64h-7.92Z"/>
    <path class="cls-3" d="m1179.33,177.99v-3.64h7.92v3.64h-7.92Z"/>
    <path class="cls-3" d="m1184.55,177.99v-3.64h4.05c2.91,0,4.37-1.5,4.37-4.5v-6.3l3.87-2.07v8.37c0,3,1.47,4.5,4.41,4.5h2.07c2.94,0,4.41-1.5,4.41-4.5v-7.83l3.87-2.03v9.86c0,3,1.45,4.5,4.36,4.5h2.12c2.94,0,4.41-1.5,4.41-4.5v-9.32l3.87-2.07v10.98c0,3.27,1.56,4.91,4.68,4.91h3.74v3.64h-4.05c-2.7,0-4.76-.92-6.17-2.75-1.26,1.8-3.23,2.72-5.9,2.75h-3.1c-2.64,0-4.61-.88-5.9-2.66-1.29,1.74-3.21,2.63-5.76,2.66h-3.11c-2.58,0-4.54-.88-5.89-2.66-1.29,1.77-3.26,2.66-5.89,2.66h-4.46Z"/>
    <path class="cls-3" d="m1247.73,174.34h2.97v3.64h-3.42c-2.49,0-4.46-.79-5.9-2.38-1.44,1.59-3.41,2.38-5.89,2.38h-3.42v-3.64h2.97c2.94,0,4.41-1.5,4.41-4.5v-9.32l3.87-2.07v11.39c0,3,1.47,4.5,4.41,4.5Zm-7.11-21.33c-1.47,0-2.21-.75-2.21-2.25s.73-2.21,2.21-2.21,2.16.74,2.16,2.21-.72,2.25-2.16,2.25Z"/>
    <path class="cls-3" d="m1248,177.99v-3.64h2.97c2.94,0,4.41-1.5,4.41-4.5v-9.32l3.87-2.07v11.52c0,2.55-.77,4.56-2.29,6.03-1.41,1.32-3.26,1.98-5.54,1.98h-3.42Zm7.24,8.96c-1.47,0-2.2-.75-2.2-2.25s.73-2.21,2.2-2.21,2.16.73,2.16,2.21-.72,2.25-2.16,2.25Z"/>
    <path class="cls-3" d="m1302.26,177.99c-.3,2.64-1.74,4.75-4.32,6.34-2.4,1.47-5.46,2.21-9.18,2.21-4.74,0-8.31-1.38-10.71-4.14-1.77-2.04-2.65-4.56-2.65-7.56,0-2.52.63-4.68,1.89-6.48l3.74-.81c-1.35,2.13-2.03,4.43-2.03,6.89,0,2.67.87,4.77,2.61,6.3,1.71,1.53,4.09,2.29,7.15,2.29,2.58,0,4.71-.45,6.39-1.35,1.68-.9,2.7-2.13,3.06-3.69h-4.5l1.89-3.64h6.79v3.64h-.14Z"/>
    <path class="cls-3" d="m1315.36,174.34h2.97v3.64h-3.42c-2.58,0-4.58-.83-5.99-2.47-1.5,1.65-3.57,2.47-6.21,2.47h-2.7v-3.64h2.38c3.12,0,4.68-1.63,4.68-4.91v-18.41l3.92-2.07v20.52c0,1.74.34,2.99,1.01,3.74s1.79,1.12,3.35,1.12Z"/>
    <path class="cls-3" d="m1329.8,174.21c1.2-4.53,3.18-8.31,5.94-11.34,3.09-3.33,6.69-5,10.8-5,3.42,0,6.15,1.19,8.19,3.56,1.71,2.01,2.57,4.48,2.57,7.42v1.17c0,2.61-.8,4.63-2.39,6.08-1.38,1.26-3.19,1.89-5.44,1.89h-18.63c-2.49,0-4.46-.79-5.9-2.38-1.44,1.59-3.41,2.38-5.89,2.38h-3.42v-3.64h2.97c2.94,0,4.41-1.5,4.41-4.5v-6.3l3.87-2.07v8.37c0,2.52.97,3.97,2.92,4.36Zm23.62-4.54v-.81c0-2.34-.72-4.2-2.16-5.58-1.26-1.2-2.82-1.8-4.68-1.8-3.18,0-6.05,1.47-8.6,4.41-1.95,2.25-3.45,5.07-4.5,8.46h15.75c2.79,0,4.19-1.56,4.19-4.68Z"/>
    <path class="cls-3" d="m1381.19,151.03l3.92-2.07v20.52c0,2.67-.79,4.79-2.38,6.34-1.5,1.44-3.47,2.16-5.9,2.16h-15.48l1.89-3.64h6.57v-17.46l3.87-2.07v19.53h2.83c3.12,0,4.68-1.63,4.68-4.91v-18.41Zm-5.58-1.58l-1.04,1.94h-7.42l1.04-1.94h1.21c-.3-.54-.45-1.11-.45-1.71,0-.87.33-1.63.99-2.27.66-.64,1.44-.97,2.34-.97.75,0,1.47.24,2.16.72v1.98c-.66-.51-1.29-.76-1.89-.76-1.11,0-1.67.5-1.67,1.49,0,.51.21,1.02.63,1.53h4.09Z"/>
    <path class="cls-3" d="m1393.21,177.99v-26.96l3.87-2.07v29.03h-3.87Z"/>
    <path class="cls-3" d="m1441.84,174.34h2.97v3.64h-3.42c-1.62,0-3.08-.36-4.37-1.08-.42,3.09-1.82,5.52-4.19,7.29-2.1,1.56-4.7,2.34-7.78,2.34-4.02,0-7.13-1.35-9.32-4.05-1.68-2.1-2.52-4.6-2.52-7.51,0-2.55.61-4.73,1.84-6.53l3.87-.85c-1.38,2.13-2.07,4.45-2.07,6.97s.79,4.53,2.38,6.12c1.47,1.47,3.41,2.21,5.81,2.21,2.73,0,4.83-.81,6.3-2.43,1.26-1.38,1.89-3.15,1.89-5.31v-24.12l3.92-2.07v20.88c0,3,1.56,4.5,4.68,4.5Z"/>
    <path class="cls-3" d="m1466.73,174.34h2.57v3.64h-2.97c-2.52,0-4.49-.78-5.9-2.34-1.41,1.56-3.38,2.34-5.89,2.34h-12.42v-3.64h12.06c2.88,0,4.32-1.51,4.32-4.55v-.4c0-2.25-.87-3.96-2.61-5.13-1.38-.96-3.08-1.44-5.08-1.44-1.59,0-3.18.3-4.77.9v-3.83l9.85-10.94h3.96l-8.87,9.99h.27c3.42,0,6.18,1.04,8.28,3.11,1.89,1.92,2.83,4.35,2.83,7.29v.5c0,3,1.45,4.5,4.36,4.5Z"/>
    <path class="cls-3" d="m1466.59,177.99v-3.64h7.92v3.64h-7.92Z"/>
    <path class="cls-3" d="m1471.81,177.99v-3.64h7.92v3.64h-7.92Z"/>
    <path class="cls-3" d="m1477.03,177.99v-3.64h7.92v3.64h-7.92Z"/>
    <path class="cls-3" d="m1482.25,177.99v-3.64h4.05c2.91,0,4.37-1.5,4.37-4.5v-6.3l3.87-2.07v8.37c0,3,1.47,4.5,4.41,4.5h2.07c2.94,0,4.41-1.5,4.41-4.5v-7.83l3.87-2.03v9.86c0,3,1.45,4.5,4.36,4.5h2.12c2.94,0,4.41-1.5,4.41-4.5v-9.32l3.87-2.07v10.98c0,3.27,1.56,4.91,4.68,4.91h3.74v3.64h-4.05c-2.7,0-4.76-.92-6.17-2.75-1.26,1.8-3.23,2.72-5.9,2.75h-3.1c-2.64,0-4.61-.88-5.9-2.66-1.29,1.74-3.21,2.63-5.76,2.66h-3.11c-2.58,0-4.54-.88-5.89-2.66-1.29,1.77-3.26,2.66-5.89,2.66h-4.46Zm21.92-23.76c-1.47,0-2.21-.75-2.21-2.25s.73-2.21,2.21-2.21,2.16.74,2.16,2.21-.72,2.25-2.16,2.25Zm2.83-5.36c-1.32,0-1.98-.67-1.98-2.02s.66-1.98,1.98-1.98,1.98.66,1.98,1.98-.66,2.02-1.98,2.02Zm2.88,5.36c-1.47,0-2.21-.75-2.21-2.25s.73-2.21,2.21-2.21,2.16.74,2.16,2.21-.72,2.25-2.16,2.25Z"/>
    <path class="cls-3" d="m1529.77,177.99v-3.64h2.38c3.12,0,4.68-1.63,4.68-4.91v-18.41l3.92-2.07v20.52c0,2.67-.79,4.79-2.38,6.34-1.5,1.44-3.46,2.16-5.9,2.16h-2.7Z"/>
    <path class="cls-3" d="m1548.85,177.99v-26.96l3.87-2.07v29.03h-3.87Z"/>
    <path class="cls-3" d="m760.6,247.34h2.97v3.64h-3.42c-1.62,0-3.08-.36-4.37-1.08-.42,3.09-1.82,5.52-4.19,7.29-2.1,1.56-4.7,2.34-7.78,2.34-4.02,0-7.13-1.35-9.32-4.05-1.68-2.1-2.52-4.6-2.52-7.51,0-2.55.61-4.73,1.84-6.53l3.87-.85c-1.38,2.13-2.07,4.45-2.07,6.97s.79,4.53,2.38,6.12c1.47,1.47,3.41,2.21,5.81,2.21,2.73,0,4.83-.81,6.3-2.43,1.26-1.38,1.89-3.15,1.89-5.31v-24.12l3.92-2.07v20.88c0,3,1.56,4.5,4.68,4.5Z"/>
    <path class="cls-3" d="m785.49,247.34h2.57v3.64h-2.97c-2.52,0-4.49-.78-5.9-2.34-1.41,1.56-3.38,2.34-5.89,2.34h-12.42v-3.64h12.06c2.88,0,4.32-1.51,4.32-4.55v-.4c0-2.25-.87-3.96-2.61-5.13-1.38-.96-3.08-1.44-5.08-1.44-1.59,0-3.18.3-4.77.9v-3.83l9.85-10.94h3.96l-8.87,9.99h.27c3.42,0,6.18,1.04,8.28,3.11,1.89,1.92,2.83,4.35,2.83,7.29v.5c0,3,1.45,4.5,4.36,4.5Z"/>
    <path class="cls-3" d="m785.35,250.99v-3.64h7.92v3.64h-7.92Z"/>
    <path class="cls-3" d="m790.57,250.99v-3.64h7.92v3.64h-7.92Z"/>
    <path class="cls-3" d="m795.79,250.99v-3.64h7.92v3.64h-7.92Z"/>
    <path class="cls-3" d="m801.01,250.99v-3.64h4.05c2.91,0,4.37-1.5,4.37-4.5v-6.3l3.87-2.07v8.37c0,3,1.47,4.5,4.41,4.5h2.07c2.94,0,4.41-1.5,4.41-4.5v-7.83l3.87-2.03v9.86c0,3,1.45,4.5,4.36,4.5h2.12c2.94,0,4.41-1.5,4.41-4.5v-9.32l3.87-2.07v10.98c0,3.27,1.56,4.91,4.68,4.91h3.74v3.64h-4.05c-2.7,0-4.76-.92-6.17-2.75-1.26,1.8-3.23,2.72-5.9,2.75h-3.1c-2.64,0-4.61-.88-5.9-2.66-1.29,1.74-3.21,2.63-5.76,2.66h-3.11c-2.58,0-4.54-.88-5.89-2.66-1.29,1.77-3.26,2.66-5.89,2.66h-4.46Zm21.92-23.76c-1.47,0-2.21-.75-2.21-2.25s.73-2.21,2.21-2.21,2.16.74,2.16,2.21-.72,2.25-2.16,2.25Zm2.83-5.36c-1.32,0-1.98-.67-1.98-2.02s.66-1.98,1.98-1.98,1.98.66,1.98,1.98-.66,2.02-1.98,2.02Zm2.88,5.36c-1.47,0-2.21-.75-2.21-2.25s.73-2.21,2.21-2.21,2.16.74,2.16,2.21-.72,2.25-2.16,2.25Z"/>
    <path class="cls-3" d="m848.53,250.99v-3.64h2.38c3.12,0,4.68-1.63,4.68-4.91v-18.41l3.92-2.07v20.52c0,2.67-.79,4.79-2.38,6.34-1.5,1.44-3.46,2.16-5.9,2.16h-2.7Z"/>
    <path class="cls-3" d="m867.61,250.99v-26.96l3.87-2.07v29.03h-3.87Z"/>
    <path class="cls-3" d="m895.74,250.99c-2.73,0-4.86-.92-6.39-2.75-1.32-1.59-1.98-3.61-1.98-6.08,0-2.67.74-4.99,2.23-6.95,1.48-1.96,3.61-3.41,6.37-4.34,2.91.99,5.1,2.55,6.57,4.68,1.32,1.89,1.98,4.09,1.98,6.61,0,2.85-.84,5.08-2.52,6.71-1.5,1.41-3.44,2.12-5.8,2.12h-.45Zm-2.92-25.42c-1.47,0-2.21-.75-2.21-2.25s.73-2.21,2.21-2.21,2.16.74,2.16,2.21-.72,2.25-2.16,2.25Zm2.79,21.78h.68c1.35,0,2.42-.46,3.22-1.4.79-.93,1.19-2.17,1.19-3.74,0-3.6-1.58-6.18-4.73-7.74-3.15,1.56-4.72,4.12-4.72,7.69,0,1.59.39,2.85,1.17,3.78.78.93,1.84,1.4,3.19,1.4Zm2.97-21.78c-1.47,0-2.21-.75-2.21-2.25s.73-2.21,2.21-2.21,2.16.74,2.16,2.21-.72,2.25-2.16,2.25Z"/>
    <path class="cls-3" d="m918.24,248.6c0,3.36-.88,6.06-2.66,8.1-1.68,1.95-3.92,2.92-6.71,2.92-1.8,0-3.55-.45-5.26-1.35v-3.38c1.53.84,3.06,1.26,4.59,1.26,1.92,0,3.42-.65,4.5-1.93,1.08-1.29,1.62-3.08,1.62-5.36v-15.34l3.92-2.07v17.15Z"/>
    <path class="cls-3" d="m947.36,247.34v3.64h-5.58c-.12,2.58-1.23,4.71-3.33,6.39-1.77,1.38-3.78,2.07-6.03,2.07-1.86,0-3.62-.44-5.26-1.3v-3.42c1.59.84,3.16,1.26,4.72,1.26s2.98-.5,4.16-1.49c1.19-.99,1.79-2.17,1.82-3.55-1.56-.06-2.72-.12-3.46-.18-3.24-.18-5.69-1.28-7.34-3.29-1.38-1.68-2.07-3.85-2.07-6.53,0-3.27.87-5.82,2.61-7.65,1.56-1.62,3.62-2.43,6.17-2.43s4.73.8,6.17,2.38c1.23,1.41,1.85,3.26,1.85,5.54v8.55h5.58Zm-9.5-8.28c0-3.06-1.37-4.59-4.1-4.59-1.56,0-2.77.56-3.64,1.69s-1.3,2.69-1.3,4.7c0,3.93,1.92,6.02,5.76,6.25.72.09,1.81.17,3.29.23v-8.28Z"/>
    <path class="cls-3" d="m958.83,247.21c1.2-4.53,3.18-8.31,5.94-11.34,3.09-3.33,6.69-5,10.8-5,3.42,0,6.15,1.19,8.19,3.56,1.71,2.01,2.57,4.48,2.57,7.42v1.17c0,2.61-.8,4.63-2.39,6.08-1.38,1.26-3.19,1.89-5.44,1.89h-18.63c-2.49,0-4.46-.79-5.9-2.38-1.44,1.59-3.41,2.38-5.89,2.38h-3.42v-3.64h2.97c2.94,0,4.41-1.5,4.41-4.5v-6.3l3.87-2.07v8.37c0,2.52.97,3.97,2.92,4.36Zm23.62-4.54v-.81c0-2.34-.72-4.2-2.16-5.58-1.26-1.2-2.82-1.8-4.68-1.8-3.18,0-6.05,1.47-8.6,4.41-1.95,2.25-3.45,5.07-4.5,8.46h15.75c2.79,0,4.19-1.56,4.19-4.68Z"/>
    <path class="cls-3" d="m1024.54,248.56c0,3.45-1.2,6.19-3.6,8.23-2.13,1.83-4.86,2.75-8.19,2.75-3.9,0-6.93-1.38-9.09-4.14-1.65-2.13-2.47-4.65-2.47-7.56,0-2.52.63-4.68,1.89-6.48l3.74-.81c-1.35,2.13-2.03,4.43-2.03,6.89s.78,4.59,2.34,6.21c1.47,1.5,3.34,2.25,5.62,2.25,2.64,0,4.68-.77,6.12-2.29,1.2-1.29,1.8-2.97,1.8-5.04v-15.03l3.87-2.07v17.1Zm-11.79-17.5c-1.47,0-2.21-.75-2.21-2.25s.74-2.21,2.21-2.21,2.16.74,2.16,2.21-.72,2.25-2.16,2.25Z"/>
    <path class="cls-3" d="m1030.25,221.33l1.04-1.93h1.21c-.3-.54-.45-1.09-.45-1.67,0-.9.33-1.67.99-2.32.66-.64,1.44-.97,2.34-.97.75,0,1.47.24,2.16.72v1.98c-.66-.51-1.29-.77-1.89-.77-1.11,0-1.67.5-1.67,1.49,0,.51.21,1.02.63,1.53h4.09l-1.04,1.93h-7.42Zm2.38,29.66v-25.16l3.87-2.07v27.22h-3.87Z"/>
    <path class="cls-3" d="m1079.13,250.99c-.3,2.64-1.74,4.75-4.32,6.34-2.4,1.47-5.46,2.21-9.18,2.21-4.74,0-8.31-1.38-10.71-4.14-1.77-2.04-2.65-4.56-2.65-7.56,0-2.52.63-4.68,1.89-6.48l3.74-.81c-1.35,2.13-2.03,4.43-2.03,6.89,0,2.67.87,4.77,2.61,6.3,1.71,1.53,4.09,2.29,7.15,2.29,2.58,0,4.71-.45,6.39-1.35,1.68-.9,2.7-2.13,3.06-3.69h-4.5l1.89-3.64h6.79v3.64h-.14Zm-16.51,16.51c-1.47,0-2.21-.75-2.21-2.25s.73-2.21,2.21-2.21,2.16.74,2.16,2.21-.72,2.25-2.16,2.25Zm5.71,0c-1.47,0-2.21-.75-2.21-2.25s.74-2.21,2.21-2.21,2.16.74,2.16,2.21-.72,2.25-2.16,2.25Z"/>
    <path class="cls-3" d="m1092.54,247.34h2.97v3.64h-3.42c-2.49,0-4.46-.79-5.9-2.38-1.44,1.59-3.41,2.38-5.89,2.38h-3.42v-3.64h2.97c2.94,0,4.41-1.5,4.41-4.5v-9.32l3.87-2.07v11.39c0,3,1.47,4.5,4.41,4.5Zm-7.11-21.33c-1.47,0-2.21-.75-2.21-2.25s.73-2.21,2.21-2.21,2.16.74,2.16,2.21-.72,2.25-2.16,2.25Z"/>
    <path class="cls-3" d="m1115.04,247.34h11.88v3.64h-12.24c-1.62,0-3.22-.32-4.81-.95-1.59.63-3.21.95-4.86.95h-12.19v-3.64h12.51c-2.16-1.77-4.38-4.37-6.66-7.79v-1.98c1.44-2.07,3.16-3.71,5.15-4.91,2-1.2,4-1.8,6.01-1.8s4.02.61,6.03,1.82c2.01,1.22,3.75,2.87,5.22,4.97v1.89c-2.28,3.42-4.52,6.01-6.71,7.79h.67Zm-12.78-8.73c2.76,3.78,5.29,6.27,7.61,7.47,2.31-1.23,4.84-3.73,7.6-7.51-2.25-2.73-4.8-4.11-7.65-4.14-2.85,0-5.37,1.39-7.56,4.18Z"/>
    <path class="cls-3" d="m1153.2,247.34h3.01v3.64h-3.42c-2.49,0-4.46-.79-5.89-2.38-1.53,2.19-3.77,3.29-6.71,3.29s-5.16-1.08-6.66-3.24c-1.41,1.56-3.38,2.34-5.89,2.34h-3.42v-3.64h2.97c2.94,0,4.41-1.5,4.41-4.5v-1.49c0-3.48.85-6.15,2.56-8.01,1.5-1.65,3.51-2.48,6.03-2.48,2.88,0,5.1,1.07,6.66,3.2,1.32,1.83,1.98,4.26,1.98,7.29v1.49c0,3,1.46,4.5,4.37,4.5Zm-13,.9c1.47,0,2.63-.61,3.49-1.84.86-1.23,1.28-2.92,1.28-5.08,0-4.56-1.59-6.84-4.77-6.84s-4.72,2.28-4.72,6.84,1.57,6.93,4.72,6.93Z"/>
    <path class="cls-3" d="m1153.51,250.99v-3.64h2.97c2.94,0,4.41-1.5,4.41-4.5v-9.32l3.87-2.07v11.52c0,2.55-.77,4.56-2.29,6.03-1.41,1.32-3.26,1.98-5.54,1.98h-3.42Zm7.24,8.96c-1.47,0-2.2-.75-2.2-2.25s.73-2.21,2.2-2.21,2.16.73,2.16,2.21-.72,2.25-2.16,2.25Z"/>
    <path class="cls-3" d="m1217.19,247.34h2.97v3.64h-3.42c-2.52,0-4.47-.78-5.85-2.34-1.47,1.56-3.44,2.34-5.9,2.34h-16.06c-2.43,0-4.34-.81-5.72-2.43-1.2-1.41-1.8-3.25-1.8-5.54v-5.45l3.87-2.07v7.16c0,3.12,1.46,4.68,4.37,4.68h14.94c2.88,0,4.32-1.56,4.32-4.68v-18.63l3.92-2.07v20.88c0,3,1.46,4.5,4.37,4.5Zm-19.84-18.27c2.58.12,3.87,1.4,3.87,3.83,0,1.05-.31,1.89-.92,2.52-.62.63-1.43.95-2.45.95h-5.94l1.04-1.93h4.72c1.08,0,1.62-.54,1.62-1.62,0-1.32-.84-1.98-2.52-1.98-.87,0-1.66.21-2.38.63v-1.8l3.78-4.18h2.38l-3.19,3.6Z"/>
    <path class="cls-3" d="m1217.46,250.99v-3.64h2.38c3.12,0,4.68-1.63,4.68-4.91v-18.41l3.92-2.07v20.52c0,2.67-.79,4.79-2.38,6.34-1.5,1.44-3.46,2.16-5.9,2.16h-2.7Z"/>
    <path class="cls-3" d="m1232.94,250.99l1.89-3.64h8.01c1.2,0,2.05-.3,2.54-.9.5-.6.74-1.63.74-3.11,0-4.02-1.82-7.06-5.44-9.13l1.89-3.2c4.95,2.82,7.42,6.95,7.42,12.38,0,5.07-2.16,7.61-6.48,7.61h-10.58Zm9.76-24.97c-1.47,0-2.21-.75-2.21-2.25s.74-2.21,2.21-2.21,2.16.74,2.16,2.21-.72,2.25-2.16,2.25Z"/>
    <path class="cls-3" d="m1268.27,249.55c-1.14.45-2.54.68-4.19.68-2.67,0-4.77-1-6.3-3.02-1.29-1.71-1.93-3.85-1.93-6.43,0-3.18.85-5.67,2.56-7.47,1.53-1.62,3.54-2.43,6.03-2.43s4.51.8,5.9,2.38c1.23,1.41,1.84,3.26,1.84,5.54v9.81c0,3.39-.89,6.08-2.66,8.05-1.68,1.86-3.92,2.79-6.71,2.79-1.86,0-3.62-.44-5.26-1.3v-3.42c1.59.84,3.17,1.26,4.72,1.26,1.77,0,3.18-.56,4.23-1.69,1.05-1.12,1.63-2.71,1.75-4.75Zm0-10.57c0-3-1.28-4.5-3.83-4.5-1.5,0-2.68.55-3.53,1.67-.86,1.11-1.28,2.62-1.28,4.54s.41,3.4,1.24,4.52c.82,1.12,1.94,1.69,3.35,1.69,1.98,0,3.33-.55,4.05-1.67v-6.25Z"/>
    <path class="cls-3" d="m1290.33,245.72c1.65,0,2.5.85,2.56,2.56,0,.84-.26,1.54-.79,2.09-.53.56-1.21.83-2.05.83-1.86,0-2.79-1.14-2.79-3.42v-5.8l1.89-.54.04,4.28h1.12Z"/>
    <path class="cls-3" d="m1307.02,250.99c-2.73,0-4.86-.92-6.39-2.75-1.32-1.59-1.98-3.61-1.98-6.08,0-2.67.74-4.99,2.23-6.95,1.48-1.96,3.61-3.41,6.37-4.34,2.91.99,5.1,2.55,6.57,4.68,1.32,1.89,1.98,4.09,1.98,6.61,0,2.85-.84,5.08-2.52,6.71-1.5,1.41-3.44,2.12-5.8,2.12h-.45Zm-2.92-25.42c-1.47,0-2.21-.75-2.21-2.25s.73-2.21,2.21-2.21,2.16.74,2.16,2.21-.72,2.25-2.16,2.25Zm2.79,21.78h.68c1.35,0,2.42-.46,3.22-1.4.79-.93,1.19-2.17,1.19-3.74,0-3.6-1.58-6.18-4.73-7.74-3.15,1.56-4.72,4.12-4.72,7.69,0,1.59.39,2.85,1.17,3.78.78.93,1.84,1.4,3.19,1.4Zm2.97-21.78c-1.47,0-2.21-.75-2.21-2.25s.73-2.21,2.21-2.21,2.16.74,2.16,2.21-.72,2.25-2.16,2.25Z"/>
    <path class="cls-3" d="m1329.52,248.6c0,3.36-.88,6.06-2.66,8.1-1.68,1.95-3.92,2.92-6.71,2.92-1.8,0-3.55-.45-5.26-1.35v-3.38c1.53.84,3.06,1.26,4.59,1.26,1.92,0,3.42-.65,4.5-1.93,1.08-1.29,1.62-3.08,1.62-5.36v-15.34l3.92-2.07v17.15Z"/>
    <path class="cls-3" d="m1358.64,247.34v3.64h-5.58c-.12,2.58-1.23,4.71-3.33,6.39-1.77,1.38-3.78,2.07-6.03,2.07-1.86,0-3.62-.44-5.26-1.3v-3.42c1.59.84,3.16,1.26,4.72,1.26s2.98-.5,4.16-1.49c1.19-.99,1.79-2.17,1.82-3.55-1.56-.06-2.72-.12-3.46-.18-3.24-.18-5.69-1.28-7.34-3.29-1.38-1.68-2.07-3.85-2.07-6.53,0-3.27.87-5.82,2.61-7.65,1.56-1.62,3.62-2.43,6.17-2.43s4.73.8,6.17,2.38c1.23,1.41,1.85,3.26,1.85,5.54v8.55h5.58Zm-9.5-8.28c0-3.06-1.37-4.59-4.1-4.59-1.56,0-2.77.56-3.64,1.69s-1.3,2.69-1.3,4.7c0,3.93,1.92,6.02,5.76,6.25.72.09,1.81.17,3.29.23v-8.28Z"/>
    <path class="cls-3" d="m1355.94,250.99v-3.64h7.92v3.64h-7.92Z"/>
    <path class="cls-3" d="m1361.16,250.99v-3.64h7.92v3.64h-7.92Z"/>
    <path class="cls-3" d="m1366.38,250.99v-3.64h7.92v3.64h-7.92Z"/>
    <path class="cls-3" d="m1385.77,247.21c1.2-4.53,3.18-8.31,5.94-11.34,3.09-3.33,6.69-5,10.8-5,3.42,0,6.15,1.19,8.19,3.56,1.71,2.01,2.57,4.48,2.57,7.42v1.17c0,2.61-.8,4.63-2.39,6.08-1.38,1.26-3.19,1.89-5.44,1.89h-18.63c-2.49,0-4.46-.79-5.9-2.38-1.44,1.59-3.41,2.38-5.89,2.38h-3.42v-3.64h2.97c2.94,0,4.41-1.5,4.41-4.5v-6.3l3.87-2.07v8.37c0,2.52.97,3.97,2.92,4.36Zm23.62-4.54v-.81c0-2.34-.72-4.2-2.16-5.58-1.26-1.2-2.82-1.8-4.68-1.8-3.18,0-6.05,1.47-8.6,4.41-1.95,2.25-3.45,5.07-4.5,8.46h15.75c2.79,0,4.19-1.56,4.19-4.68Z"/>
    <path class="cls-3" d="m1425.42,250.99l1.89-3.64h8.01c1.2,0,2.05-.3,2.54-.9.5-.6.74-1.63.74-3.11,0-3.99-1.84-6.99-5.54-9l1.98-3.33c4.71,2.76,7.17,6.57,7.38,11.43.06,1.74.46,2.99,1.19,3.76.74.77,1.91,1.15,3.53,1.15h2.66v3.64h-2.97c-2.49,0-4.44-.79-5.85-2.38-.99,1.59-2.65,2.38-4.99,2.38h-10.58Z"/>
    <path class="cls-3" d="m1447.11,250.99v-3.64h7.92v3.64h-7.92Z"/>
    <path class="cls-3" d="m1452.33,250.99v-3.64h7.92v3.64h-7.92Z"/>
    <path class="cls-3" d="m1457.55,250.99v-3.64h7.92v3.64h-7.92Z"/>
    <path class="cls-3" d="m1462.77,250.99v-3.64h2.97c2.94,0,4.41-1.5,4.41-4.5v-9.32l3.87-2.07v11.52c0,2.55-.77,4.56-2.29,6.03-1.41,1.32-3.26,1.98-5.54,1.98h-3.42Zm2.38,8.96c-1.47,0-2.21-.75-2.21-2.25s.74-2.21,2.21-2.21,2.16.73,2.16,2.21-.72,2.25-2.16,2.25Zm5.71,0c-1.47,0-2.21-.75-2.21-2.25s.73-2.21,2.21-2.21,2.16.73,2.16,2.21-.72,2.25-2.16,2.25Z"/>
    <path class="cls-3" d="m1478.52,250.99l1.89-3.64h8.01c1.2,0,2.05-.3,2.54-.9.5-.6.74-1.63.74-3.11,0-3.99-1.84-6.99-5.54-9l1.98-3.33c4.71,2.76,7.17,6.57,7.38,11.43.06,1.74.46,2.99,1.19,3.76.74.77,1.91,1.15,3.53,1.15h2.66v3.64h-2.97c-2.49,0-4.44-.79-5.85-2.38-.99,1.59-2.65,2.38-4.99,2.38h-10.58Z"/>
    <path class="cls-3" d="m1529.55,247.34h2.92v3.64h-2.97c-2.43,0-4.38-.28-5.85-.83-1.47-.56-2.83-1.54-4.09-2.95-3.78,2.52-8.19,3.78-13.23,3.78h-6.12v-3.64h6.17c6.09,0,10.9-2.01,14.44-6.03-2.49-4.59-5.52-6.88-9.09-6.88-2.43,0-4.94,1.29-7.51,3.87v-3.6c2.52-2.55,5.19-3.83,8.01-3.83,2.31,0,4.54.83,6.71,2.5s4.06,4.04,5.71,7.13v1.98c-.93,1.17-1.82,2.12-2.66,2.83,1.62,1.35,4.14,2.03,7.56,2.03Zm-14.71,8.14c1.44,0,2.16.73,2.16,2.21s-.72,2.25-2.16,2.25-2.21-.75-2.21-2.25.73-2.21,2.21-2.21Z"/>
    <path class="cls-3" d="m1529.77,250.99v-3.64h2.38c3.12,0,4.68-1.63,4.68-4.91v-18.41l3.92-2.07v20.52c0,2.67-.79,4.79-2.38,6.34-1.5,1.44-3.46,2.16-5.9,2.16h-2.7Z"/>
    <path class="cls-3" d="m1548.85,250.99v-26.96l3.87-2.07v29.03h-3.87Z"/>
    <path class="cls-3" d="m734.82,318.72c1.65,0,2.5.85,2.56,2.56,0,.84-.26,1.54-.79,2.09-.53.56-1.21.83-2.05.83-1.86,0-2.79-1.14-2.79-3.42v-5.8l1.89-.54.04,4.28h1.12Z"/>
    <path class="cls-3" d="m769.87,323.99c-.3,2.64-1.74,4.75-4.32,6.34-2.4,1.47-5.46,2.21-9.18,2.21-4.74,0-8.31-1.38-10.71-4.14-1.77-2.04-2.65-4.56-2.65-7.56,0-2.52.63-4.68,1.89-6.48l3.74-.81c-1.35,2.13-2.03,4.43-2.03,6.89,0,2.67.87,4.77,2.61,6.3,1.71,1.53,4.09,2.29,7.15,2.29,2.58,0,4.71-.45,6.39-1.35,1.68-.9,2.7-2.13,3.06-3.69h-4.5l1.89-3.64h6.79v3.64h-.14Zm-16.51,16.51c-1.47,0-2.21-.75-2.21-2.25s.73-2.21,2.21-2.21,2.16.74,2.16,2.21-.72,2.25-2.16,2.25Zm5.71,0c-1.47,0-2.21-.75-2.21-2.25s.74-2.21,2.21-2.21,2.16.74,2.16,2.21-.72,2.25-2.16,2.25Z"/>
    <path class="cls-3" d="m782.97,320.34h2.97v3.64h-3.42c-2.58,0-4.58-.83-5.99-2.47-1.5,1.65-3.57,2.47-6.21,2.47h-2.7v-3.64h2.38c3.12,0,4.68-1.63,4.68-4.91v-18.41l3.92-2.07v20.52c0,1.74.34,2.99,1.01,3.74s1.79,1.12,3.35,1.12Z"/>
    <path class="cls-3" d="m797.41,320.21c1.2-4.53,3.18-8.31,5.94-11.34,3.09-3.33,6.69-5,10.8-5,3.42,0,6.15,1.19,8.19,3.56,1.71,2.01,2.57,4.48,2.57,7.42v1.17c0,2.61-.8,4.63-2.39,6.08-1.38,1.26-3.19,1.89-5.44,1.89h-18.63c-2.49,0-4.46-.79-5.9-2.38-1.44,1.59-3.41,2.38-5.89,2.38h-3.42v-3.64h2.97c2.94,0,4.41-1.5,4.41-4.5v-6.3l3.87-2.07v8.37c0,2.52.97,3.97,2.92,4.36Zm23.62-4.54v-.81c0-2.34-.72-4.2-2.16-5.58-1.26-1.2-2.82-1.8-4.68-1.8-3.18,0-6.05,1.47-8.6,4.41-1.95,2.25-3.45,5.07-4.5,8.46h15.75c2.79,0,4.19-1.56,4.19-4.68Z"/>
    <path class="cls-3" d="m848.8,297.03l3.92-2.07v20.52c0,2.67-.79,4.79-2.38,6.34-1.5,1.44-3.47,2.16-5.9,2.16h-15.48l1.89-3.64h6.57v-17.46l3.87-2.07v19.53h2.83c3.12,0,4.68-1.63,4.68-4.91v-18.41Zm-5.58-1.58l-1.04,1.94h-7.42l1.04-1.94h1.21c-.3-.54-.45-1.11-.45-1.71,0-.87.33-1.63.99-2.27.66-.64,1.44-.97,2.34-.97.75,0,1.47.24,2.16.72v1.98c-.66-.51-1.29-.76-1.89-.76-1.11,0-1.67.5-1.67,1.49,0,.51.21,1.02.63,1.53h4.09Z"/>
    <path class="cls-3" d="m860.82,323.99v-26.96l3.87-2.07v29.03h-3.87Z"/>
    <path class="cls-3" d="m921.11,320.34h2.97v3.64h-3.42c-1.62,0-3.08-.36-4.37-1.08-.42,3.09-1.82,5.52-4.19,7.29-2.1,1.56-4.7,2.34-7.78,2.34-4.02,0-7.13-1.35-9.32-4.05-1.68-2.1-2.52-4.6-2.52-7.51,0-2.55.61-4.73,1.84-6.53l3.87-.85c-1.38,2.13-2.07,4.45-2.07,6.97s.79,4.53,2.38,6.12c1.47,1.47,3.41,2.21,5.81,2.21,2.73,0,4.83-.81,6.3-2.43,1.26-1.38,1.89-3.15,1.89-5.31v-24.12l3.92-2.07v20.88c0,3,1.56,4.5,4.68,4.5Z"/>
    <path class="cls-3" d="m946,320.34h2.57v3.64h-2.97c-2.52,0-4.49-.78-5.9-2.34-1.41,1.56-3.38,2.34-5.89,2.34h-12.42v-3.64h12.06c2.88,0,4.32-1.51,4.32-4.55v-.4c0-2.25-.87-3.96-2.61-5.13-1.38-.96-3.08-1.44-5.08-1.44-1.59,0-3.18.3-4.77.9v-3.83l9.85-10.94h3.96l-8.87,9.99h.27c3.42,0,6.18,1.04,8.28,3.11,1.89,1.92,2.83,4.35,2.83,7.29v.5c0,3,1.45,4.5,4.36,4.5Z"/>
    <path class="cls-3" d="m945.86,323.99v-3.64h7.92v3.64h-7.92Z"/>
    <path class="cls-3" d="m951.08,323.99v-3.64h7.92v3.64h-7.92Z"/>
    <path class="cls-3" d="m956.3,323.99v-3.64h7.92v3.64h-7.92Z"/>
    <path class="cls-3" d="m961.52,323.99v-3.64h4.05c2.91,0,4.37-1.5,4.37-4.5v-6.3l3.87-2.07v8.37c0,3,1.47,4.5,4.41,4.5h2.07c2.94,0,4.41-1.5,4.41-4.5v-7.83l3.87-2.03v9.86c0,3,1.45,4.5,4.36,4.5h2.12c2.94,0,4.41-1.5,4.41-4.5v-9.32l3.87-2.07v10.98c0,3.27,1.56,4.91,4.68,4.91h3.74v3.64h-4.05c-2.7,0-4.76-.92-6.17-2.75-1.26,1.8-3.23,2.72-5.9,2.75h-3.1c-2.64,0-4.61-.88-5.9-2.66-1.29,1.74-3.21,2.63-5.76,2.66h-3.11c-2.58,0-4.54-.88-5.89-2.66-1.29,1.77-3.26,2.66-5.89,2.66h-4.46Zm21.92-23.76c-1.47,0-2.21-.75-2.21-2.25s.73-2.21,2.21-2.21,2.16.74,2.16,2.21-.72,2.25-2.16,2.25Zm2.83-5.36c-1.32,0-1.98-.67-1.98-2.02s.66-1.98,1.98-1.98,1.98.66,1.98,1.98-.66,2.02-1.98,2.02Zm2.88,5.36c-1.47,0-2.21-.75-2.21-2.25s.73-2.21,2.21-2.21,2.16.74,2.16,2.21-.72,2.25-2.16,2.25Z"/>
    <path class="cls-3" d="m1024.39,320.34h2.97v3.64h-3.42c-2.58,0-4.58-.83-5.99-2.47-1.5,1.65-3.57,2.47-6.21,2.47h-2.7v-3.64h2.38c3.12,0,4.68-1.63,4.68-4.91v-18.41l3.92-2.07v20.52c0,1.74.34,2.99,1.01,3.74s1.79,1.12,3.35,1.12Z"/>
    <path class="cls-3" d="m1024.66,323.99v-3.64h2.38c3.12,0,4.68-1.63,4.68-4.91v-18.41l3.92-2.07v20.52c0,2.67-.79,4.79-2.38,6.34-1.5,1.44-3.46,2.16-5.9,2.16h-2.7Z"/>
    <path class="cls-3" d="m1072.04,320.34h2.97v3.64h-3.42c-3.09,0-5.31-1.14-6.66-3.42-1.44,1.38-3.23,2.07-5.36,2.07-2.64,0-4.74-.99-6.3-2.97-1.29-1.68-1.94-3.73-1.94-6.17,0-2.91.88-5.25,2.66-7.02,1.5-1.53,3.33-2.29,5.49-2.29,1.65,0,3.07.42,4.27,1.26v-1.93l3.92-2.07v14.4c0,3,1.46,4.5,4.37,4.5Zm-8.28-10.71c-1.11-1.23-2.47-1.84-4.09-1.84-1.32,0-2.4.53-3.24,1.6-.84,1.07-1.26,2.45-1.26,4.16s.42,3.14,1.26,4.19c.84,1.05,1.94,1.58,3.29,1.58,1.68,0,3.06-.69,4.14-2.07-.06-.54-.09-.96-.09-1.26v-6.35Zm-5.8-11.07c-1.47,0-2.21-.75-2.21-2.25s.74-2.21,2.21-2.21,2.16.74,2.16,2.21-.72,2.25-2.16,2.25Zm5.71,0c-1.47,0-2.21-.75-2.21-2.25s.74-2.21,2.21-2.21,2.16.74,2.16,2.21-.72,2.25-2.16,2.25Z"/>
    <path class="cls-3" d="m1102.96,320.34h2.97v3.64h-3.42c-2.52,0-4.47-.78-5.85-2.34-1.47,1.56-3.46,2.34-5.99,2.34h-4.86c-1.02,0-1.98-.15-2.88-.45-.93.3-1.89.45-2.88.45h-7.74v-3.64h5.8c-1.14-1.53-1.71-3.27-1.71-5.22,0-1.77.43-3.27,1.3-4.5.75-2.76,2.17-4.88,4.28-6.34,1.71-1.17,3.64-1.75,5.8-1.75,3.18,0,5.8,1.08,7.88,3.24,1.95,2.04,2.92,4.67,2.92,7.88v2.21c0,3,1.46,4.5,4.37,4.5Zm-20.03-.41c2.46-.84,3.69-2.52,3.69-5.04,0-1.26-.34-2.27-1.01-3.04-.67-.76-1.57-1.15-2.68-1.15s-2,.38-2.68,1.15c-.67.77-1.01,1.78-1.01,3.04,0,2.52,1.23,4.2,3.69,5.04Zm7.61.41c1.47,0,2.53-.37,3.17-1.1.64-.74.97-1.93.97-3.58v-2.02c0-2.49-.79-4.42-2.38-5.81-1.29-1.14-2.83-1.71-4.63-1.71-2.07,0-3.69.67-4.86,2.03h.13c1.98,0,3.56.64,4.75,1.91,1.18,1.28,1.78,2.96,1.78,5.06s-.58,3.75-1.75,5.22h2.83Z"/>
    <path class="cls-3" d="m1103.23,323.99v-3.64h2.97c2.94,0,4.41-1.5,4.41-4.5v-9.32l3.87-2.07v11.52c0,2.55-.77,4.56-2.29,6.03-1.41,1.32-3.26,1.98-5.54,1.98h-3.42Zm7.24,8.96c-1.47,0-2.2-.75-2.2-2.25s.73-2.21,2.2-2.21,2.16.73,2.16,2.21-.72,2.25-2.16,2.25Z"/>
    <path class="cls-3" d="m1130.41,323.99c-2.61,0-4.62-.84-6.03-2.52-1.2-1.44-1.8-3.27-1.8-5.49v-18.95l3.87-2.07v20.88c0,3,1.47,4.5,4.41,4.5h2.97v3.64h-3.42Z"/>
    <path class="cls-3" d="m1131.13,323.99v-3.64h7.92v3.64h-7.92Z"/>
    <path class="cls-3" d="m1136.35,323.99v-3.64h7.92v3.64h-7.92Z"/>
    <path class="cls-3" d="m1141.57,323.99v-3.64h7.92v3.64h-7.92Z"/>
    <path class="cls-3" d="m1146.79,323.99v-3.64h4.05c2.91,0,4.37-1.5,4.37-4.5v-6.3l3.87-2.07v8.37c0,3,1.47,4.5,4.41,4.5h2.07c2.94,0,4.41-1.5,4.41-4.5v-7.83l3.87-2.03v9.86c0,3,1.45,4.5,4.36,4.5h2.12c2.94,0,4.41-1.5,4.41-4.5v-9.32l3.87-2.07v10.98c0,3.27,1.56,4.91,4.68,4.91h3.74v3.64h-4.05c-2.7,0-4.76-.92-6.17-2.75-1.26,1.8-3.23,2.72-5.9,2.75h-3.1c-2.64,0-4.61-.88-5.9-2.66-1.29,1.74-3.21,2.63-5.76,2.66h-3.11c-2.58,0-4.54-.88-5.89-2.66-1.29,1.77-3.26,2.66-5.89,2.66h-4.46Zm21.92-23.76c-1.47,0-2.21-.75-2.21-2.25s.73-2.21,2.21-2.21,2.16.74,2.16,2.21-.72,2.25-2.16,2.25Zm2.83-5.36c-1.32,0-1.98-.67-1.98-2.02s.66-1.98,1.98-1.98,1.98.66,1.98,1.98-.66,2.02-1.98,2.02Zm2.88,5.36c-1.47,0-2.21-.75-2.21-2.25s.73-2.21,2.21-2.21,2.16.74,2.16,2.21-.72,2.25-2.16,2.25Z"/>
    <path class="cls-3" d="m1201.69,311.79c0-2.61.78-4.63,2.34-6.07,1.38-1.23,3.18-1.85,5.4-1.85,2.85,0,5.04,1.05,6.57,3.15,1.32,1.77,1.98,4.08,1.98,6.93,0,3.24-.84,5.78-2.52,7.61-1.47,1.62-3.39,2.43-5.76,2.43-2.7,0-4.75-.75-6.17-2.25-1.44,1.5-3.38,2.25-5.8,2.25h-3.42v-3.64h2.97c2.94,0,4.41-1.5,4.41-4.5v-4.05Zm3.87,4.37c0,2.79,1.36,4.19,4.09,4.19,1.41,0,2.51-.57,3.31-1.71.79-1.14,1.19-2.73,1.19-4.77s-.42-3.58-1.26-4.7c-.84-1.12-2-1.69-3.47-1.69-2.58,0-3.87,1.5-3.87,4.5v4.18Z"/>
    <path class="cls-3" d="m1246.73,320.34h2.97v3.64h-3.42c-1.53,0-2.85-.3-3.96-.9-.27,2.97-1.3,5.34-3.11,7.11-1.65,1.62-3.72,2.43-6.21,2.43-1.8,0-3.55-.45-5.26-1.35v-3.38c1.53.84,3.06,1.26,4.59,1.26,1.92,0,3.42-.65,4.5-1.93,1.08-1.29,1.62-3.08,1.62-5.36v-15.34l3.87-2.07v.04l.04-.04v12.29c.27,2.4,1.72,3.6,4.37,3.6Z"/>
    <path class="cls-3" d="m1262.66,320.34h2.97v3.64h-3.42c-2.49,0-4.46-.79-5.9-2.38-1.44,1.59-3.41,2.38-5.89,2.38h-3.42v-3.64h2.97c2.94,0,4.41-1.5,4.41-4.5v-9.32l3.87-2.07v11.39c0,3,1.47,4.5,4.41,4.5Zm-10.75,8.14c1.44,0,2.16.75,2.16,2.25s-.72,2.21-2.16,2.21-2.21-.74-2.21-2.21.74-2.25,2.21-2.25Zm5.71,0c1.44,0,2.16.75,2.16,2.25s-.72,2.21-2.16,2.21-2.2-.74-2.2-2.21.73-2.25,2.2-2.25Z"/>
    <path class="cls-3" d="m1278.59,320.34h2.97v3.64h-3.42c-2.49,0-4.46-.79-5.9-2.38-1.44,1.59-3.41,2.38-5.89,2.38h-3.42v-3.64h2.97c2.94,0,4.41-1.5,4.41-4.5v-9.32l3.87-2.07v11.39c0,3,1.47,4.5,4.41,4.5Zm-6.61,8.14c1.44,0,2.16.73,2.16,2.21s-.72,2.25-2.16,2.25-2.21-.75-2.21-2.25.73-2.21,2.21-2.21Z"/>
    <path class="cls-3" d="m1303.47,320.34h2.57v3.64h-2.97c-2.52,0-4.49-.78-5.9-2.34-1.41,1.56-3.38,2.34-5.89,2.34h-12.42v-3.64h12.06c2.88,0,4.32-1.51,4.32-4.55v-.4c0-2.25-.87-3.96-2.61-5.13-1.38-.96-3.08-1.44-5.08-1.44-1.59,0-3.18.3-4.77.9v-3.83l9.85-10.94h3.96l-8.87,9.99h.27c3.42,0,6.18,1.04,8.28,3.11,1.89,1.92,2.83,4.35,2.83,7.29v.5c0,3,1.45,4.5,4.36,4.5Z"/>
    <path class="cls-3" d="m1319,320.34h2.97v3.64h-3.42c-2.49,0-4.46-.79-5.9-2.38-1.44,1.59-3.41,2.38-5.89,2.38h-3.42v-3.64h2.97c2.94,0,4.41-1.5,4.41-4.5v-9.32l3.87-2.07v11.39c0,3,1.47,4.5,4.41,4.5Zm-10.62-21.02c-1.47,0-2.21-.75-2.21-2.25s.73-2.21,2.21-2.21,2.16.74,2.16,2.21-.72,2.25-2.16,2.25Zm5.76,0c-1.47,0-2.21-.75-2.21-2.25s.73-2.21,2.21-2.21,2.16.74,2.16,2.21-.72,2.25-2.16,2.25Z"/>
    <path class="cls-3" d="m1319.27,323.99v-3.64h2.38c3.12,0,4.68-1.63,4.68-4.91v-18.41l3.92-2.07v20.52c0,2.67-.79,4.79-2.38,6.34-1.5,1.44-3.46,2.16-5.9,2.16h-2.7Z"/>
    <path class="cls-3" d="m1338.35,323.99v-26.96l3.87-2.07v29.03h-3.87Z"/>
    <path class="cls-3" d="m1371.65,320.34h2.97v3.64h-3.42c-1.53,0-2.85-.3-3.96-.9-.27,2.97-1.3,5.34-3.11,7.11-1.65,1.62-3.72,2.43-6.21,2.43-1.8,0-3.55-.45-5.26-1.35v-3.38c1.53.84,3.06,1.26,4.59,1.26,1.92,0,3.42-.65,4.5-1.93,1.08-1.29,1.62-3.08,1.62-5.36v-15.34l3.87-2.07v.04l.04-.04v12.29c.27,2.4,1.72,3.6,4.37,3.6Z"/>
    <path class="cls-3" d="m1371.92,323.99v-3.64h7.92v3.64h-7.92Z"/>
    <path class="cls-3" d="m1377.14,323.99v-3.64h7.92v3.64h-7.92Z"/>
    <path class="cls-3" d="m1382.36,323.99v-3.64h7.92v3.64h-7.92Z"/>
    <path class="cls-3" d="m1403.24,320.34h2.97v3.64h-3.42c-2.49,0-4.46-.79-5.9-2.38-1.44,1.59-3.41,2.38-5.89,2.38h-3.42v-3.64h2.97c2.94,0,4.41-1.5,4.41-4.5v-9.32l3.87-2.07v11.39c0,3,1.47,4.5,4.41,4.5Zm-10.75,8.14c1.44,0,2.16.75,2.16,2.25s-.72,2.21-2.16,2.21-2.21-.74-2.21-2.21.74-2.25,2.21-2.25Zm5.71,0c1.44,0,2.16.75,2.16,2.25s-.72,2.21-2.16,2.21-2.2-.74-2.2-2.21.73-2.25,2.2-2.25Z"/>
    <path class="cls-3" d="m1403.51,323.99v-3.64h2.97c2.94,0,4.41-1.5,4.41-4.5v-9.32l3.87-2.07v11.52c0,2.55-.77,4.56-2.29,6.03-1.41,1.32-3.26,1.98-5.54,1.98h-3.42Zm3.46-24.97c-1.47,0-2.21-.75-2.21-2.25s.73-2.21,2.21-2.21,2.16.74,2.16,2.21-.72,2.25-2.16,2.25Zm2.83-5.36c-1.32,0-1.98-.67-1.98-2.03s.66-1.98,1.98-1.98,1.98.66,1.98,1.98-.66,2.03-1.98,2.03Zm2.88,5.36c-1.47,0-2.21-.75-2.21-2.25s.73-2.21,2.21-2.21,2.16.74,2.16,2.21-.72,2.25-2.16,2.25Z"/>
    <path class="cls-3" d="m1420.47,294.33l1.04-1.93h1.21c-.3-.54-.45-1.11-.45-1.71,0-.87.33-1.63.99-2.27.66-.64,1.42-.97,2.29-.97.75,0,1.47.24,2.16.72v1.98c-.63-.51-1.26-.77-1.89-.77-1.11,0-1.66.51-1.66,1.53,0,.48.22.98.67,1.49h4.09l-1.04,1.93h-7.42Zm10.21,29.66c-2.61,0-4.62-.84-6.03-2.52-1.2-1.44-1.8-3.27-1.8-5.49v-17.15l3.87-2.07v19.08c0,3,1.47,4.5,4.41,4.5h2.97v3.64h-3.42Z"/>
    <path class="cls-3" d="m1431.41,323.99v-3.64h2.97c2.94,0,4.41-1.5,4.41-4.5v-9.32l3.87-2.07v11.52c0,2.55-.77,4.56-2.29,6.03-1.41,1.32-3.26,1.98-5.54,1.98h-3.42Zm3.46-24.97c-1.47,0-2.21-.75-2.21-2.25s.73-2.21,2.21-2.21,2.16.74,2.16,2.21-.72,2.25-2.16,2.25Zm5.71,0c-1.47,0-2.21-.75-2.21-2.25s.73-2.21,2.21-2.21,2.16.74,2.16,2.21-.72,2.25-2.16,2.25Z"/>
    <path class="cls-3" d="m1496.88,320.34h2.07v3.64h-2.52c-2.52,0-4.49-.78-5.89-2.34-1.41,1.56-3.38,2.34-5.9,2.34h-16.06c-2.43,0-4.34-.81-5.72-2.43-1.2-1.41-1.8-3.25-1.8-5.54v-5.45l3.87-2.07v7.16c0,3.12,1.46,4.68,4.37,4.68h14.94c2.91,0,4.37-1.56,4.37-4.68v-9.13l3.87-2.07v11.39c0,3,1.47,4.5,4.41,4.5Zm-23.76-17.28c-1.47,0-2.21-.75-2.21-2.25s.73-2.21,2.21-2.21,2.16.74,2.16,2.21-.72,2.25-2.16,2.25Zm5.71,0c-1.47,0-2.21-.75-2.21-2.25s.73-2.21,2.21-2.21,2.16.74,2.16,2.21-.72,2.25-2.16,2.25Z"/>
    <path class="cls-3" d="m1496.25,323.99v-3.64h7.92v3.64h-7.92Z"/>
    <path class="cls-3" d="m1501.47,323.99v-3.64h7.92v3.64h-7.92Z"/>
    <path class="cls-3" d="m1506.69,323.99v-3.64h7.92v3.64h-7.92Z"/>
    <path class="cls-3" d="m1541.25,320.34h2.92v3.64h-2.97c-2.43,0-4.38-.28-5.85-.83-1.47-.56-2.83-1.54-4.09-2.95-3.78,2.52-8.19,3.78-13.23,3.78h-6.12v-3.64h6.17c6.09,0,10.9-2.01,14.44-6.03-2.49-4.59-5.52-6.88-9.09-6.88-2.43,0-4.94,1.29-7.51,3.87v-3.6c2.52-2.55,5.19-3.83,8.01-3.83,2.31,0,4.54.83,6.71,2.5s4.06,4.04,5.71,7.13v1.98c-.93,1.17-1.82,2.12-2.66,2.83,1.62,1.35,4.14,2.03,7.56,2.03Z"/>
    <path class="cls-3" d="m1541.47,323.99v-3.64h2.97c2.94,0,4.41-1.5,4.41-4.5v-9.32l3.87-2.07v11.52c0,2.55-.77,4.56-2.29,6.03-1.41,1.32-3.26,1.98-5.54,1.98h-3.42Zm3.46-24.97c-1.47,0-2.21-.75-2.21-2.25s.73-2.21,2.21-2.21,2.16.74,2.16,2.21-.72,2.25-2.16,2.25Zm5.71,0c-1.47,0-2.21-.75-2.21-2.25s.73-2.21,2.21-2.21,2.16.74,2.16,2.21-.72,2.25-2.16,2.25Z"/>
    <path class="cls-3" d="m740.49,396.99c-2.73,0-4.86-.92-6.39-2.75-1.32-1.59-1.98-3.61-1.98-6.08,0-2.67.74-4.99,2.23-6.95,1.48-1.96,3.61-3.41,6.37-4.34,2.91.99,5.1,2.55,6.57,4.68,1.32,1.89,1.98,4.09,1.98,6.61,0,2.85-.84,5.08-2.52,6.71-1.5,1.41-3.44,2.12-5.8,2.12h-.45Zm-2.92-25.42c-1.47,0-2.21-.75-2.21-2.25s.73-2.21,2.21-2.21,2.16.74,2.16,2.21-.72,2.25-2.16,2.25Zm2.79,21.78h.68c1.35,0,2.42-.46,3.22-1.4.79-.93,1.19-2.17,1.19-3.74,0-3.6-1.58-6.18-4.73-7.74-3.15,1.56-4.72,4.12-4.72,7.69,0,1.59.39,2.85,1.17,3.78.78.93,1.84,1.4,3.19,1.4Zm2.97-21.78c-1.47,0-2.21-.75-2.21-2.25s.73-2.21,2.21-2.21,2.16.74,2.16,2.21-.72,2.25-2.16,2.25Z"/>
    <path class="cls-3" d="m767.35,393.34h2.97v3.64h-3.42c-1.53,0-2.85-.3-3.96-.9-.27,2.97-1.3,5.34-3.11,7.11-1.65,1.62-3.72,2.43-6.21,2.43-1.8,0-3.55-.45-5.26-1.35v-3.38c1.53.84,3.06,1.26,4.59,1.26,1.92,0,3.42-.65,4.5-1.93,1.08-1.29,1.62-3.08,1.62-5.36v-15.34l3.87-2.07v.04l.04-.04v12.29c.27,2.4,1.72,3.6,4.37,3.6Z"/>
    <path class="cls-3" d="m780,384.43c3.42-5.04,7.66-7.56,12.73-7.56,3.39,0,6.1,1.19,8.15,3.56,1.74,2.01,2.61,4.48,2.61,7.42v1.44c0,2.46-.6,4.36-1.8,5.69-1.2,1.34-2.91,2-5.13,2h-28.93v-3.64h8.37l.14-.5v-22.82l3.87-2.07v16.47Zm19.57,4.68v-1.26c0-2.34-.72-4.2-2.16-5.58-1.23-1.2-2.78-1.8-4.64-1.8-3.09,0-5.88,1.39-8.37,4.18-1.86,2.1-3.33,4.72-4.41,7.88v.81h16.24c1.29,0,2.17-.3,2.63-.9.46-.6.7-1.71.7-3.33Zm-7.11-17.1c-1.47,0-2.21-.75-2.21-2.25s.73-2.21,2.21-2.21,2.16.74,2.16,2.21-.72,2.25-2.16,2.25Z"/>
    <path class="cls-3" d="m818.52,396.99c-2.61,0-4.62-.84-6.03-2.52-1.2-1.44-1.8-3.27-1.8-5.49v-18.95l3.87-2.07v20.88c0,3,1.47,4.5,4.41,4.5h2.97v3.64h-3.42Z"/>
    <path class="cls-3" d="m834.9,393.34h2.97v3.64h-3.42c-2.49,0-4.46-.79-5.9-2.38-1.44,1.59-3.41,2.38-5.89,2.38h-3.42v-3.64h2.97c2.94,0,4.41-1.5,4.41-4.5v-9.32l3.87-2.07v11.39c0,3,1.47,4.5,4.41,4.5Zm-7.11-21.33c-1.47,0-2.21-.75-2.21-2.25s.73-2.21,2.21-2.21,2.16.74,2.16,2.21-.72,2.25-2.16,2.25Z"/>
    <path class="cls-3" d="m850.83,393.34h2.97v3.64h-3.42c-2.49,0-4.46-.79-5.9-2.38-1.44,1.59-3.41,2.38-5.89,2.38h-3.42v-3.64h2.97c2.94,0,4.41-1.5,4.41-4.5v-9.32l3.87-2.07v11.39c0,3,1.47,4.5,4.41,4.5Zm-10.62-21.02c-1.47,0-2.21-.75-2.21-2.25s.73-2.21,2.21-2.21,2.16.74,2.16,2.21-.72,2.25-2.16,2.25Zm5.76,0c-1.47,0-2.21-.75-2.21-2.25s.73-2.21,2.21-2.21,2.16.74,2.16,2.21-.72,2.25-2.16,2.25Z"/>
    <path class="cls-3" d="m880.08,393.34h3.01v3.64h-3.42c-2.49,0-4.46-.79-5.89-2.38-1.53,2.19-3.77,3.29-6.71,3.29s-5.16-1.08-6.66-3.24c-1.41,1.56-3.38,2.34-5.89,2.34h-3.42v-3.64h2.97c2.94,0,4.41-1.5,4.41-4.5v-1.49c0-3.48.85-6.15,2.56-8.01,1.5-1.65,3.51-2.48,6.03-2.48,2.88,0,5.1,1.07,6.66,3.2,1.32,1.83,1.98,4.26,1.98,7.29v1.49c0,3,1.46,4.5,4.37,4.5Zm-13,.9c1.47,0,2.63-.61,3.49-1.84.86-1.23,1.28-2.92,1.28-5.08,0-4.56-1.59-6.84-4.77-6.84s-4.72,2.28-4.72,6.84,1.57,6.93,4.72,6.93Z"/>
    <path class="cls-3" d="m880.39,396.99v-3.64h2.38c3.12,0,4.68-1.63,4.68-4.91v-18.41l3.92-2.07v20.52c0,2.67-.79,4.79-2.38,6.34-1.5,1.44-3.46,2.16-5.9,2.16h-2.7Z"/>
    <path class="cls-3" d="m899.47,396.99v-26.96l3.87-2.07v29.03h-3.87Z"/>
    <path class="cls-3" d="m925.83,422.55l1.35-2.88,9.63-1.75-1.35,2.88-9.63,1.75Z"/>
    <path class="cls-3" d="m939.28,411.48c-2.52,1.59-5.34,2.38-8.46,2.38-3.6,0-6.5-1.12-8.69-3.38-1.83-1.92-2.74-4.26-2.74-7.02,0-1.8.44-3.45,1.33-4.95.88-1.5,2.09-2.66,3.62-3.46-2.82-1.83-4.23-4.73-4.23-8.69,0-3.06,1.06-5.49,3.2-7.29,1.68-1.44,3.66-2.17,5.94-2.21,3.12,0,5.59,1.28,7.42,3.83v3.65c-1.95-2.58-4.26-3.87-6.93-3.87-1.71,0-3.09.55-4.14,1.64-1.05,1.09-1.58,2.56-1.58,4.39,0,2.07.62,3.73,1.87,4.97,1.25,1.25,2.9,1.87,4.97,1.87h7.96v3.64h-7.88c-2.79,0-4.88.75-6.25,2.25-1.05,1.11-1.58,2.5-1.58,4.18,0,2.04.73,3.68,2.18,4.93s3.37,1.87,5.74,1.87c3.33-.03,6.08-.83,8.24-2.39v3.65Z"/>
    <path class="cls-3" d="m970.56,393.34h2.97v3.64h-3.42c-2.58,0-4.58-.83-5.99-2.47-1.5,1.65-3.57,2.47-6.21,2.47h-15.48l1.89-3.64h6.57v-17.46l3.87-2.07v19.53h2.83c3.12,0,4.68-1.63,4.68-4.91v-18.41l3.92-2.07v20.52c0,1.74.34,2.99,1.01,3.74.67.75,1.79,1.12,3.35,1.12Z"/>
    <path class="cls-3" d="m985,393.21c1.2-4.53,3.18-8.31,5.94-11.34,3.09-3.33,6.69-5,10.8-5,3.42,0,6.15,1.19,8.19,3.56,1.71,2.01,2.57,4.48,2.57,7.42v1.17c0,2.61-.8,4.63-2.39,6.08-1.38,1.26-3.19,1.89-5.44,1.89h-18.63c-2.49,0-4.46-.79-5.9-2.38-1.44,1.59-3.41,2.38-5.89,2.38h-3.42v-3.64h2.97c2.94,0,4.41-1.5,4.41-4.5v-6.3l3.87-2.07v8.37c0,2.52.97,3.97,2.92,4.36Zm23.62-4.54v-.81c0-2.34-.72-4.2-2.16-5.58-1.26-1.2-2.82-1.8-4.68-1.8-3.18,0-6.05,1.47-8.6,4.41-1.95,2.25-3.45,5.07-4.5,8.46h15.75c2.79,0,4.19-1.56,4.19-4.68Zm-6.12-16.65c-1.47,0-2.21-.75-2.21-2.25s.73-2.21,2.21-2.21,2.16.74,2.16,2.21-.72,2.25-2.16,2.25Z"/>
    <path class="cls-3" d="m1036.39,370.03l3.92-2.07v20.52c0,2.67-.79,4.79-2.38,6.34-1.5,1.44-3.47,2.16-5.9,2.16h-15.48l1.89-3.64h6.57v-17.46l3.87-2.07v19.53h2.83c3.12,0,4.68-1.63,4.68-4.91v-18.41Zm-5.58-1.58l-1.04,1.94h-7.42l1.04-1.94h1.21c-.3-.54-.45-1.11-.45-1.71,0-.87.33-1.63.99-2.27.66-.64,1.44-.97,2.34-.97.75,0,1.47.24,2.16.72v1.98c-.66-.51-1.29-.76-1.89-.76-1.11,0-1.67.5-1.67,1.49,0,.51.21,1.02.63,1.53h4.09Z"/>
    <path class="cls-3" d="m1048.41,396.99v-26.96l3.87-2.07v29.03h-3.87Z"/>
    <path class="cls-3" d="m1092.26,394.15c0,3.57-1.25,6.42-3.73,8.55-2.19,1.89-4.98,2.83-8.37,2.83-4.02,0-7.13-1.35-9.32-4.05-1.68-2.1-2.52-4.6-2.52-7.51,0-2.55.61-4.73,1.84-6.53l3.87-.85c-1.38,2.13-2.07,4.45-2.07,6.97s.79,4.53,2.38,6.12c1.47,1.47,3.41,2.21,5.81,2.21,2.73,0,4.83-.81,6.3-2.43,1.26-1.38,1.89-3.15,1.89-5.31v-24.12l3.92-2.07v26.19Z"/>
    <path class="cls-3" d="m1100.36,396.99v-26.96l3.87-2.07v29.03h-3.87Z"/>
    <path class="cls-3" d="m1133.35,393.34v3.64h-5.58c-.12,2.58-1.23,4.71-3.33,6.39-1.77,1.38-3.78,2.07-6.03,2.07-1.86,0-3.62-.44-5.26-1.3v-3.42c1.59.84,3.16,1.26,4.72,1.26s2.98-.5,4.16-1.49c1.19-.99,1.79-2.17,1.82-3.55-1.56-.06-2.72-.12-3.46-.18-3.24-.18-5.69-1.28-7.34-3.29-1.38-1.68-2.07-3.85-2.07-6.53,0-3.27.87-5.82,2.61-7.65,1.56-1.62,3.62-2.43,6.17-2.43s4.73.8,6.17,2.38c1.23,1.41,1.85,3.26,1.85,5.54v8.55h5.58Zm-9.5-8.28c0-3.06-1.37-4.59-4.1-4.59-1.56,0-2.77.56-3.64,1.69s-1.3,2.69-1.3,4.7c0,3.93,1.92,6.02,5.76,6.25.72.09,1.81.17,3.29.23v-8.28Z"/>
    <path class="cls-3" d="m1143.02,384.43c3.42-5.04,7.66-7.56,12.73-7.56,3.39,0,6.1,1.19,8.15,3.56,1.74,2.01,2.61,4.48,2.61,7.42v1.44c0,2.46-.6,4.36-1.8,5.69-1.2,1.34-2.91,2-5.13,2h-28.93v-3.64h8.37l.14-.5v-22.82l3.87-2.07v16.47Zm19.57,4.68v-1.26c0-2.34-.72-4.2-2.16-5.58-1.23-1.2-2.78-1.8-4.64-1.8-3.09,0-5.88,1.39-8.37,4.18-1.86,2.1-3.33,4.72-4.41,7.88v.81h16.24c1.29,0,2.17-.3,2.63-.9.46-.6.7-1.71.7-3.33Z"/>
    <path class="cls-3" d="m1171.33,367.33l1.04-1.93h1.21c-.3-.54-.45-1.09-.45-1.67,0-.9.33-1.67.99-2.32.66-.64,1.44-.97,2.34-.97.75,0,1.47.24,2.16.72v1.98c-.66-.51-1.29-.77-1.89-.77-1.11,0-1.67.5-1.67,1.49,0,.51.21,1.02.63,1.53h4.09l-1.04,1.93h-7.42Zm2.38,29.66v-25.16l3.87-2.07v27.22h-3.87Z"/>
    <path class="cls-3" d="m1216.99,394.56c0,3.45-1.2,6.19-3.6,8.23-2.13,1.83-4.86,2.75-8.19,2.75-3.9,0-6.93-1.38-9.09-4.14-1.65-2.13-2.47-4.65-2.47-7.56,0-2.52.63-4.68,1.89-6.48l3.74-.81c-1.35,2.13-2.03,4.43-2.03,6.89s.78,4.59,2.34,6.21c1.47,1.5,3.34,2.25,5.62,2.25,2.64,0,4.68-.77,6.12-2.29,1.2-1.29,1.8-2.97,1.8-5.04v-15.03l3.87-2.07v17.1Zm-11.79-17.5c-1.47,0-2.21-.75-2.21-2.25s.74-2.21,2.21-2.21,2.16.74,2.16,2.21-.72,2.25-2.16,2.25Z"/>
    <path class="cls-3" d="m1222.7,367.33l1.04-1.93h1.21c-.3-.54-.45-1.09-.45-1.67,0-.9.33-1.67.99-2.32.66-.64,1.44-.97,2.34-.97.75,0,1.47.24,2.16.72v1.98c-.66-.51-1.29-.77-1.89-.77-1.11,0-1.67.5-1.67,1.49,0,.51.21,1.02.63,1.53h4.09l-1.04,1.93h-7.42Zm2.38,29.66v-25.16l3.87-2.07v27.22h-3.87Z"/>
    <path class="cls-3" d="m1281.68,393.34h2.97v3.64h-3.42c-2.52,0-4.47-.78-5.85-2.34-1.47,1.56-3.44,2.34-5.9,2.34h-16.06c-2.43,0-4.34-.81-5.72-2.43-1.2-1.41-1.8-3.25-1.8-5.54v-5.45l3.87-2.07v7.16c0,3.12,1.46,4.68,4.37,4.68h14.94c2.88,0,4.32-1.56,4.32-4.68v-18.63l3.92-2.07v20.88c0,3,1.46,4.5,4.37,4.5Zm-19.84-18.27c2.58.12,3.87,1.4,3.87,3.83,0,1.05-.31,1.89-.92,2.52-.62.63-1.43.95-2.45.95h-5.94l1.04-1.93h4.72c1.08,0,1.62-.54,1.62-1.62,0-1.32-.84-1.98-2.52-1.98-.87,0-1.66.21-2.38.63v-1.8l3.78-4.18h2.38l-3.19,3.6Z"/>
    <path class="cls-3" d="m1281.95,396.99v-3.64h2.38c3.12,0,4.68-1.63,4.68-4.91v-18.41l3.92-2.07v20.52c0,2.67-.79,4.79-2.38,6.34-1.5,1.44-3.46,2.16-5.9,2.16h-2.7Z"/>
    <path class="cls-3" d="m1297.43,396.99l1.89-3.64h8.01c1.2,0,2.05-.3,2.54-.9.5-.6.74-1.63.74-3.11,0-4.02-1.82-7.06-5.44-9.13l1.89-3.2c4.95,2.82,7.42,6.95,7.42,12.38,0,5.07-2.16,7.61-6.48,7.61h-10.58Zm9.76-24.97c-1.47,0-2.21-.75-2.21-2.25s.74-2.21,2.21-2.21,2.16.74,2.16,2.21-.72,2.25-2.16,2.25Z"/>
    <path class="cls-3" d="m1357.4,393.34h2.97v3.64h-3.42c-1.56,0-2.91-.32-4.05-.95-.36,3.06-1.7,5.45-4,7.16-2.07,1.56-4.63,2.34-7.7,2.34-3.9,0-6.93-1.38-9.09-4.14-1.65-2.13-2.47-4.65-2.47-7.56,0-2.52.63-4.68,1.89-6.48l3.74-.81c-1.35,2.13-2.03,4.43-2.03,6.89s.78,4.59,2.34,6.21c1.47,1.5,3.34,2.25,5.62,2.25,2.64,0,4.68-.77,6.12-2.29,1.2-1.29,1.8-2.97,1.8-5.04v-15.03l3.87-2.07v11.39c0,3,1.47,4.5,4.41,4.5Zm-16.42-16.65c-1.47,0-2.21-.75-2.21-2.25s.73-2.21,2.21-2.21,2.16.74,2.16,2.21-.72,2.25-2.16,2.25Z"/>
    <path class="cls-3" d="m1365.05,384.79c0-2.61.78-4.63,2.34-6.07,1.38-1.23,3.18-1.85,5.4-1.85,2.85,0,5.04,1.05,6.57,3.15,1.32,1.77,1.98,4.08,1.98,6.93,0,3.24-.84,5.78-2.52,7.61-1.47,1.62-3.39,2.43-5.76,2.43-2.7,0-4.75-.75-6.17-2.25-1.44,1.5-3.38,2.25-5.8,2.25h-3.42v-3.64h2.97c2.94,0,4.41-1.5,4.41-4.5v-4.05Zm3.87,4.37c0,2.79,1.36,4.19,4.09,4.19,1.41,0,2.51-.57,3.31-1.71.79-1.14,1.19-2.73,1.19-4.77s-.42-3.58-1.26-4.7c-.84-1.12-2-1.69-3.47-1.69-2.58,0-3.87,1.5-3.87,4.5v4.18Z"/>
    <path class="cls-3" d="m1424.25,393.34h1.98v3.64h-2.03c-2.55,0-4.58-.3-6.1-.9-1.52-.6-2.92-1.68-4.21-3.24-.99.36-2.5.75-4.54,1.17-3.42.72-5.7,1.65-6.84,2.79-1.44,1.38-2.16,3.31-2.16,5.8s.83,4.47,2.47,5.85c1.38,1.17,3.15,1.76,5.31,1.76,3.3-.03,6.06-.83,8.28-2.39v3.65c-2.55,1.59-5.42,2.38-8.6,2.38-3.42,0-6.18-1.14-8.28-3.42-1.89-2.04-2.83-4.67-2.83-7.88,0-3.45,1.02-6.19,3.06-8.24.9-.9,1.93-1.6,3.11-2.11,1.17-.51,2.94-1.02,5.31-1.53,2.25-.48,3.91-.95,4.97-1.4,1.06-.45,1.99-1.09,2.77-1.93-2.46-4.62-5.49-6.93-9.09-6.93-2.4,0-4.92,1.29-7.56,3.87v-3.6c2.52-2.55,5.21-3.83,8.05-3.83,2.28,0,4.5.84,6.66,2.52,2.16,1.68,4.07,4.05,5.71,7.11v1.98c-.81,1.17-1.75,2.12-2.83,2.83,1.59,1.35,4.05,2.03,7.38,2.03Zm-18.41,9.13c0-1.32.67-1.98,2.02-1.98s1.94.66,1.94,1.98-.65,2.07-1.94,2.07-2.02-.69-2.02-2.07Z"/>
    <path class="cls-3" d="m1439.19,393.34h2.97v3.64h-3.42c-2.49,0-4.46-.79-5.9-2.38-1.44,1.59-3.41,2.38-5.89,2.38h-3.42v-3.64h2.97c2.94,0,4.41-1.5,4.41-4.5v-9.32l3.87-2.07v11.39c0,3,1.47,4.5,4.41,4.5Zm-10.62-21.02c-1.47,0-2.21-.75-2.21-2.25s.73-2.21,2.21-2.21,2.16.74,2.16,2.21-.72,2.25-2.16,2.25Zm5.76,0c-1.47,0-2.21-.75-2.21-2.25s.73-2.21,2.21-2.21,2.16.74,2.16,2.21-.72,2.25-2.16,2.25Z"/>
    <path class="cls-3" d="m1455.12,393.34h2.97v3.64h-3.42c-2.49,0-4.46-.79-5.9-2.38-1.44,1.59-3.41,2.38-5.89,2.38h-3.42v-3.64h2.97c2.94,0,4.41-1.5,4.41-4.5v-9.32l3.87-2.07v11.39c0,3,1.47,4.5,4.41,4.5Zm-7.11-21.33c-1.47,0-2.21-.75-2.21-2.25s.73-2.21,2.21-2.21,2.16.74,2.16,2.21-.72,2.25-2.16,2.25Z"/>
    <path class="cls-3" d="m1471.05,393.34h2.97v3.64h-3.42c-2.49,0-4.46-.79-5.9-2.38-1.44,1.59-3.41,2.38-5.89,2.38h-3.42v-3.64h2.97c2.94,0,4.41-1.5,4.41-4.5v-9.32l3.87-2.07v11.39c0,3,1.47,4.5,4.41,4.5Zm-10.62-21.02c-1.47,0-2.21-.75-2.21-2.25s.73-2.21,2.21-2.21,2.16.74,2.16,2.21-.72,2.25-2.16,2.25Zm5.76,0c-1.47,0-2.21-.75-2.21-2.25s.73-2.21,2.21-2.21,2.16.74,2.16,2.21-.72,2.25-2.16,2.25Z"/>
    <path class="cls-3" d="m1471.32,396.99v-3.64h4.05c2.91,0,4.37-1.5,4.37-4.5v-6.3l3.87-2.07v8.37c0,3,1.47,4.5,4.41,4.5h2.07c2.94,0,4.41-1.5,4.41-4.5v-7.83l3.87-2.03v9.86c0,3,1.45,4.5,4.36,4.5h2.12c2.94,0,4.41-1.5,4.41-4.5v-9.32l3.87-2.07v10.98c0,3.27,1.56,4.91,4.68,4.91h3.74v3.64h-4.05c-2.7,0-4.76-.92-6.17-2.75-1.26,1.8-3.23,2.72-5.9,2.75h-3.1c-2.64,0-4.61-.88-5.9-2.66-1.29,1.74-3.21,2.63-5.76,2.66h-3.11c-2.58,0-4.54-.88-5.89-2.66-1.29,1.77-3.26,2.66-5.89,2.66h-4.46Z"/>
    <path class="cls-3" d="m1518.84,396.99v-3.64h2.97c2.94,0,4.41-1.5,4.41-4.5v-9.32l3.87-2.07v11.52c0,2.55-.77,4.56-2.29,6.03-1.41,1.32-3.26,1.98-5.54,1.98h-3.42Zm9.18-24.97c-1.47,0-2.21-.75-2.21-2.25s.73-2.21,2.21-2.21,2.16.74,2.16,2.21-.72,2.25-2.16,2.25Z"/>
    <path class="cls-3" d="m1549.26,395.55c-1.14.45-2.54.68-4.19.68-2.67,0-4.77-1-6.3-3.02-1.29-1.71-1.93-3.85-1.93-6.43,0-3.18.85-5.67,2.56-7.47,1.53-1.62,3.54-2.43,6.03-2.43s4.51.8,5.9,2.38c1.23,1.41,1.84,3.26,1.84,5.54v9.81c0,3.39-.89,6.08-2.66,8.05-1.68,1.86-3.92,2.79-6.71,2.79-1.86,0-3.62-.44-5.26-1.3v-3.42c1.59.84,3.17,1.26,4.72,1.26,1.77,0,3.18-.56,4.23-1.69,1.05-1.12,1.63-2.71,1.75-4.75Zm0-10.57c0-3-1.28-4.5-3.83-4.5-1.5,0-2.68.55-3.53,1.67-.86,1.11-1.28,2.62-1.28,4.54s.41,3.4,1.24,4.52c.82,1.12,1.94,1.69,3.35,1.69,1.98,0,3.33-.55,4.05-1.67v-6.25Z"/>
    <path class="cls-3" d="m881.91,467.83v-.09c.06-1.5.86-2.25,2.39-2.25s2.38.78,2.38,2.34-.8,2.38-2.38,2.38-2.39-.79-2.39-2.38Z"/>
    <path class="cls-3" d="m912.73,466.34h2.97v3.64h-3.42c-3.09,0-5.31-1.14-6.66-3.42-1.44,1.38-3.23,2.07-5.36,2.07-2.64,0-4.74-.99-6.3-2.97-1.29-1.68-1.94-3.73-1.94-6.17,0-2.91.88-5.25,2.66-7.02,1.5-1.53,3.33-2.29,5.49-2.29,1.65,0,3.07.42,4.27,1.26v-1.93l3.92-2.07v14.4c0,3,1.46,4.5,4.37,4.5Zm-8.28-10.71c-1.11-1.23-2.47-1.84-4.09-1.84-1.32,0-2.4.53-3.24,1.6-.84,1.07-1.26,2.45-1.26,4.16s.42,3.14,1.26,4.19c.84,1.05,1.94,1.58,3.29,1.58,1.68,0,3.06-.69,4.14-2.07-.06-.54-.09-.96-.09-1.26v-6.35Zm-5.8-11.07c-1.47,0-2.21-.75-2.21-2.25s.74-2.21,2.21-2.21,2.16.74,2.16,2.21-.72,2.25-2.16,2.25Zm5.71,0c-1.47,0-2.21-.75-2.21-2.25s.74-2.21,2.21-2.21,2.16.74,2.16,2.21-.72,2.25-2.16,2.25Z"/>
    <path class="cls-3" d="m932.67,466.34h8.37v3.64h-10.98c-1.17,0-2.19-.1-3.06-.32-.84.21-1.86.32-3.06.32h-10.93v-3.64h8.37c-1.86-2.13-2.79-4.49-2.79-7.07,0-2.94.82-5.28,2.47-7.02,1.5-1.59,3.48-2.38,5.94-2.38,2.82,0,5,1.02,6.53,3.06,1.29,1.68,1.94,3.79,1.94,6.34s-.93,4.94-2.79,7.07Zm-8.51-21.02c-1.47,0-2.2-.75-2.2-2.25s.73-2.21,2.2-2.21,2.16.74,2.16,2.21-.72,2.25-2.16,2.25Zm2.88,20.61c1.38-.48,2.5-1.36,3.38-2.63.87-1.27,1.3-2.68,1.3-4.21,0-1.74-.43-3.11-1.28-4.12-.86-1-2-1.51-3.44-1.51s-2.59.51-3.44,1.53c-.85,1.02-1.28,2.39-1.28,4.1,0,1.5.45,2.9,1.35,4.18.9,1.29,2.04,2.18,3.42,2.66Zm2.83-20.61c-1.47,0-2.21-.75-2.21-2.25s.73-2.21,2.21-2.21,2.16.74,2.16,2.21-.72,2.25-2.16,2.25Z"/>
    <path class="cls-3" d="m938.34,469.99v-3.64h2.97c2.94,0,4.41-1.5,4.41-4.5v-9.32l3.87-2.07v11.52c0,2.55-.77,4.56-2.29,6.03-1.41,1.32-3.26,1.98-5.54,1.98h-3.42Zm7.24,8.96c-1.47,0-2.2-.75-2.2-2.25s.73-2.21,2.2-2.21,2.16.73,2.16,2.21-.72,2.25-2.16,2.25Z"/>
    <path class="cls-3" d="m965.52,469.99c-2.61,0-4.62-.84-6.03-2.52-1.2-1.44-1.8-3.27-1.8-5.49v-18.95l3.87-2.07v20.88c0,3,1.47,4.5,4.41,4.5h2.97v3.64h-3.42Z"/>
    <path class="cls-3" d="m1006.47,466.34h2.97v3.64h-3.42c-2.4,0-4.27-.7-5.62-2.12-1.23,1.41-2.97,2.12-5.22,2.12h-28.93v-3.64h8.37l.14-.5v-22.82l3.87-2.07v16.47c3.42-5.04,7.66-7.56,12.73-7.56,3.39,0,6.1,1.19,8.15,3.56,1.74,2.01,2.61,4.48,2.61,7.42v1.08c0,2.94,1.46,4.41,4.37,4.41Zm-8.28-4.23v-1.26c0-2.34-.72-4.2-2.16-5.58-1.23-1.2-2.78-1.8-4.64-1.8-3.09,0-5.88,1.39-8.37,4.18-1.86,2.1-3.33,4.72-4.41,7.88v.81h16.24c1.29,0,2.17-.3,2.63-.9.46-.6.7-1.71.7-3.33Z"/>
    <path class="cls-3" d="m1022.4,466.34h2.97v3.64h-3.42c-2.49,0-4.46-.79-5.9-2.38-1.44,1.59-3.41,2.38-5.89,2.38h-3.42v-3.64h2.97c2.94,0,4.41-1.5,4.41-4.5v-9.32l3.87-2.07v11.39c0,3,1.47,4.5,4.41,4.5Zm-10.62-21.02c-1.47,0-2.21-.75-2.21-2.25s.73-2.21,2.21-2.21,2.16.74,2.16,2.21-.72,2.25-2.16,2.25Zm5.76,0c-1.47,0-2.21-.75-2.21-2.25s.73-2.21,2.21-2.21,2.16.74,2.16,2.21-.72,2.25-2.16,2.25Z"/>
    <path class="cls-3" d="m1030.05,457.79c0-2.61.78-4.63,2.34-6.07,1.38-1.23,3.18-1.85,5.4-1.85,2.85,0,5.04,1.05,6.57,3.15,1.32,1.77,1.98,4.08,1.98,6.93,0,3.24-.84,5.78-2.52,7.61-1.47,1.62-3.39,2.43-5.76,2.43-2.7,0-4.75-.75-6.17-2.25-1.44,1.5-3.38,2.25-5.8,2.25h-3.42v-3.64h2.97c2.94,0,4.41-1.5,4.41-4.5v-4.05Zm3.87,4.37c0,2.79,1.36,4.19,4.09,4.19,1.41,0,2.51-.57,3.31-1.71.79-1.14,1.19-2.73,1.19-4.77s-.42-3.58-1.26-4.7c-.84-1.12-2-1.69-3.47-1.69-2.58,0-3.87,1.5-3.87,4.5v4.18Z"/>
    <path class="cls-3" d="m1071.85,469.99c-2.73,0-4.86-.92-6.39-2.75-1.32-1.59-1.98-3.61-1.98-6.08,0-2.67.74-4.99,2.23-6.95,1.48-1.96,3.61-3.41,6.37-4.34,2.91.99,5.1,2.55,6.57,4.68,1.32,1.89,1.98,4.09,1.98,6.61,0,2.85-.84,5.08-2.52,6.71-1.5,1.41-3.44,2.12-5.8,2.12h-.45Zm-2.92-25.42c-1.47,0-2.21-.75-2.21-2.25s.73-2.21,2.21-2.21,2.16.74,2.16,2.21-.72,2.25-2.16,2.25Zm2.79,21.78h.68c1.35,0,2.42-.46,3.22-1.4.79-.93,1.19-2.17,1.19-3.74,0-3.6-1.58-6.18-4.73-7.74-3.15,1.56-4.72,4.12-4.72,7.69,0,1.59.39,2.85,1.17,3.78.78.93,1.84,1.4,3.19,1.4Zm2.97-21.78c-1.47,0-2.21-.75-2.21-2.25s.73-2.21,2.21-2.21,2.16.74,2.16,2.21-.72,2.25-2.16,2.25Z"/>
    <path class="cls-3" d="m1098.72,466.34h2.97v3.64h-3.42c-1.53,0-2.85-.3-3.96-.9-.27,2.97-1.3,5.34-3.11,7.11-1.65,1.62-3.72,2.43-6.21,2.43-1.8,0-3.55-.45-5.26-1.35v-3.38c1.53.84,3.06,1.26,4.59,1.26,1.92,0,3.42-.65,4.5-1.93,1.08-1.29,1.62-3.08,1.62-5.36v-15.34l3.87-2.07v.04l.04-.04v12.29c.27,2.4,1.72,3.6,4.37,3.6Z"/>
    <path class="cls-3" d="m1111.36,457.43c3.42-5.04,7.66-7.56,12.73-7.56,3.39,0,6.1,1.19,8.15,3.56,1.74,2.01,2.61,4.48,2.61,7.42v1.44c0,2.46-.6,4.36-1.8,5.69-1.2,1.34-2.91,2-5.13,2h-28.93v-3.64h8.37l.14-.5v-22.82l3.87-2.07v16.47Zm19.57,4.68v-1.26c0-2.34-.72-4.2-2.16-5.58-1.23-1.2-2.78-1.8-4.64-1.8-3.09,0-5.88,1.39-8.37,4.18-1.86,2.1-3.33,4.72-4.41,7.88v.81h16.24c1.29,0,2.17-.3,2.63-.9.46-.6.7-1.71.7-3.33Zm-7.11-17.1c-1.47,0-2.21-.75-2.21-2.25s.73-2.21,2.21-2.21,2.16.74,2.16,2.21-.72,2.25-2.16,2.25Z"/>
    <path class="cls-3" d="m1149.88,469.99c-2.61,0-4.62-.84-6.03-2.52-1.2-1.44-1.8-3.27-1.8-5.49v-18.95l3.87-2.07v20.88c0,3,1.47,4.5,4.41,4.5h2.97v3.64h-3.42Z"/>
    <path class="cls-3" d="m1166.26,466.34h2.97v3.64h-3.42c-2.49,0-4.46-.79-5.9-2.38-1.44,1.59-3.41,2.38-5.89,2.38h-3.42v-3.64h2.97c2.94,0,4.41-1.5,4.41-4.5v-9.32l3.87-2.07v11.39c0,3,1.47,4.5,4.41,4.5Zm-7.11-21.33c-1.47,0-2.21-.75-2.21-2.25s.73-2.21,2.21-2.21,2.16.74,2.16,2.21-.72,2.25-2.16,2.25Z"/>
    <path class="cls-3" d="m1182.19,466.34h2.97v3.64h-3.42c-2.49,0-4.46-.79-5.9-2.38-1.44,1.59-3.41,2.38-5.89,2.38h-3.42v-3.64h2.97c2.94,0,4.41-1.5,4.41-4.5v-9.32l3.87-2.07v11.39c0,3,1.47,4.5,4.41,4.5Zm-10.62-21.02c-1.47,0-2.21-.75-2.21-2.25s.73-2.21,2.21-2.21,2.16.74,2.16,2.21-.72,2.25-2.16,2.25Zm5.76,0c-1.47,0-2.21-.75-2.21-2.25s.73-2.21,2.21-2.21,2.16.74,2.16,2.21-.72,2.25-2.16,2.25Z"/>
    <path class="cls-3" d="m1211.44,466.34h3.01v3.64h-3.42c-2.49,0-4.46-.79-5.89-2.38-1.53,2.19-3.77,3.29-6.71,3.29s-5.16-1.08-6.66-3.24c-1.41,1.56-3.38,2.34-5.89,2.34h-3.42v-3.64h2.97c2.94,0,4.41-1.5,4.41-4.5v-1.49c0-3.48.85-6.15,2.56-8.01,1.5-1.65,3.51-2.48,6.03-2.48,2.88,0,5.1,1.07,6.66,3.2,1.32,1.83,1.98,4.26,1.98,7.29v1.49c0,3,1.46,4.5,4.37,4.5Zm-13,.9c1.47,0,2.63-.61,3.49-1.84.86-1.23,1.28-2.92,1.28-5.08,0-4.56-1.59-6.84-4.77-6.84s-4.72,2.28-4.72,6.84,1.57,6.93,4.72,6.93Z"/>
    <path class="cls-3" d="m1211.76,469.99v-3.64h2.38c3.12,0,4.68-1.63,4.68-4.91v-18.41l3.92-2.07v20.52c0,2.67-.79,4.79-2.38,6.34-1.5,1.44-3.46,2.16-5.9,2.16h-2.7Z"/>
    <path class="cls-3" d="m1230.84,469.99v-26.96l3.87-2.07v29.03h-3.87Z"/>
    <path class="cls-3" d="m1261.12,469.99c-2.61,0-4.62-.84-6.03-2.52-1.2-1.44-1.8-3.27-1.8-5.49v-18.95l3.87-2.07v20.88c0,3,1.47,4.5,4.41,4.5h2.97v3.64h-3.42Z"/>
    <path class="cls-3" d="m1261.84,469.99v-3.64h2.97c2.94,0,4.41-1.5,4.41-4.5v-9.32l3.87-2.07v11.52c0,2.55-.77,4.56-2.29,6.03-1.41,1.32-3.26,1.98-5.54,1.98h-3.42Zm2.38,8.96c-1.47,0-2.21-.75-2.21-2.25s.74-2.21,2.21-2.21,2.16.73,2.16,2.21-.72,2.25-2.16,2.25Zm5.71,0c-1.47,0-2.21-.75-2.21-2.25s.73-2.21,2.21-2.21,2.16.73,2.16,2.21-.72,2.25-2.16,2.25Z"/>
    <path class="cls-3" d="m1281.19,469.99v-26.96l3.87-2.07v29.03h-3.87Z"/>
    <path class="cls-3" d="m1304.23,468.55c-1.14.45-2.54.68-4.19.68-2.67,0-4.77-1-6.3-3.02-1.29-1.71-1.93-3.85-1.93-6.43,0-3.18.85-5.67,2.56-7.47,1.53-1.62,3.54-2.43,6.03-2.43s4.51.8,5.9,2.38c1.23,1.41,1.84,3.26,1.84,5.54v9.81c0,3.39-.89,6.08-2.66,8.05-1.68,1.86-3.92,2.79-6.71,2.79-1.86,0-3.62-.44-5.26-1.3v-3.42c1.59.84,3.17,1.26,4.72,1.26,1.77,0,3.18-.56,4.23-1.69,1.05-1.12,1.63-2.71,1.75-4.75Zm0-10.57c0-3-1.28-4.5-3.83-4.5-1.5,0-2.68.55-3.53,1.67-.86,1.11-1.28,2.62-1.28,4.54s.41,3.4,1.24,4.52c.82,1.12,1.94,1.69,3.35,1.69,1.98,0,3.33-.55,4.05-1.67v-6.25Z"/>
    <path class="cls-3" d="m1329.75,466.34h2.97v3.64h-3.42c-1.53,0-2.85-.3-3.96-.9-.27,2.97-1.3,5.34-3.11,7.11-1.65,1.62-3.72,2.43-6.21,2.43-1.8,0-3.55-.45-5.26-1.35v-3.38c1.53.84,3.06,1.26,4.59,1.26,1.92,0,3.42-.65,4.5-1.93,1.08-1.29,1.62-3.08,1.62-5.36v-15.34l3.87-2.07v.04l.04-.04v12.29c.27,2.4,1.72,3.6,4.37,3.6Zm-6.98-21.33c-1.47,0-2.21-.75-2.21-2.25s.74-2.21,2.21-2.21,2.16.74,2.16,2.21-.72,2.25-2.16,2.25Z"/>
    <path class="cls-3" d="m1330.02,469.99v-3.64h2.38c3.12,0,4.68-1.63,4.68-4.91v-18.41l3.92-2.07v20.52c0,2.67-.79,4.79-2.38,6.34-1.5,1.44-3.46,2.16-5.9,2.16h-2.7Z"/>
    <path class="cls-3" d="m1349.1,469.99v-26.96l3.87-2.07v29.03h-3.87Z"/>
    <path class="cls-3" d="m1362.1,442.9l1.35-2.88,9.63-1.75-1.35,2.88-9.63,1.75Z"/>
    <path class="cls-3" d="m1372.14,468.55c-1.14.45-2.54.68-4.19.68-2.67,0-4.77-1-6.3-3.02-1.29-1.71-1.93-3.85-1.93-6.43,0-3.18.85-5.67,2.56-7.47,1.53-1.62,3.54-2.43,6.03-2.43s4.51.8,5.9,2.38c1.23,1.41,1.84,3.26,1.84,5.54v9.81c0,3.39-.89,6.08-2.66,8.05-1.68,1.86-3.92,2.79-6.71,2.79-1.86,0-3.62-.44-5.26-1.3v-3.42c1.59.84,3.17,1.26,4.72,1.26,1.77,0,3.18-.56,4.23-1.69,1.05-1.12,1.63-2.71,1.75-4.75Zm0-10.57c0-3-1.28-4.5-3.83-4.5-1.5,0-2.68.55-3.53,1.67-.86,1.11-1.28,2.62-1.28,4.54s.41,3.4,1.24,4.52c.82,1.12,1.94,1.69,3.35,1.69,1.98,0,3.33-.55,4.05-1.67v-6.25Z"/>
    <path class="cls-3" d="m1396.12,464.72c1.65,0,2.5.85,2.56,2.56,0,.84-.26,1.54-.79,2.09-.53.56-1.21.83-2.05.83-1.86,0-2.79-1.14-2.79-3.42v-5.8l1.89-.54.04,4.28h1.12Z"/>
    <path class="cls-3" d="m1413.72,431.06c-.75-.57-1.12-1.4-1.12-2.48,0-1.02.31-1.87.92-2.54.62-.68,1.37-1.01,2.27-1.01s1.7.34,2.32,1.01c.62.67.92,1.54.92,2.59,0,1.44-.47,2.63-1.42,3.56-.95.93-2.17,1.39-3.67,1.39-1.62,0-2.97-.58-4.05-1.75l-.99,1.58-2.25-1.44,2.07-3.24h1.04c.96,1.59,2.13,2.39,3.51,2.39.15,0,.3-.01.45-.04Zm2.25-.9c.57-.45.85-1,.85-1.67,0-.9-.34-1.35-1.04-1.35s-.99.45-.99,1.35c0,.75.39,1.3,1.17,1.67Z"/>
    <path class="cls-3" d="m1423.21,466.34h2.97v3.64h-3.42c-3.09,0-5.31-1.14-6.66-3.42-1.44,1.38-3.23,2.07-5.36,2.07-2.64,0-4.74-.99-6.3-2.97-1.29-1.68-1.94-3.73-1.94-6.17,0-2.91.88-5.25,2.66-7.02,1.5-1.53,3.33-2.29,5.49-2.29,1.65,0,3.07.42,4.27,1.26v-1.93l3.92-2.07v14.4c0,3,1.46,4.5,4.37,4.5Zm-8.28-10.71c-1.11-1.23-2.47-1.84-4.09-1.84-1.32,0-2.4.53-3.24,1.6-.84,1.07-1.26,2.45-1.26,4.16s.42,3.14,1.26,4.19c.84,1.05,1.94,1.58,3.29,1.58,1.68,0,3.06-.69,4.14-2.07-.06-.54-.09-.96-.09-1.26v-6.35Zm-5.8-11.07c-1.47,0-2.21-.75-2.21-2.25s.74-2.21,2.21-2.21,2.16.74,2.16,2.21-.72,2.25-2.16,2.25Zm5.71,0c-1.47,0-2.21-.75-2.21-2.25s.74-2.21,2.21-2.21,2.16.74,2.16,2.21-.72,2.25-2.16,2.25Z"/>
    <path class="cls-3" d="m1439.14,466.34h2.97v3.64h-3.42c-2.49,0-4.46-.79-5.9-2.38-1.44,1.59-3.41,2.38-5.89,2.38h-3.42v-3.64h2.97c2.94,0,4.41-1.5,4.41-4.5v-9.32l3.87-2.07v11.39c0,3,1.47,4.5,4.41,4.5Zm-6.61,8.14c1.44,0,2.16.73,2.16,2.21s-.72,2.25-2.16,2.25-2.21-.75-2.21-2.25.73-2.21,2.21-2.21Z"/>
    <path class="cls-3" d="m1439.41,469.99v-3.64h4.05c2.91,0,4.37-1.5,4.37-4.5v-6.3l3.87-2.07v8.37c0,3,1.47,4.5,4.41,4.5h2.07c2.94,0,4.41-1.5,4.41-4.5v-7.83l3.87-2.03v9.86c0,3,1.45,4.5,4.36,4.5h2.12c2.94,0,4.41-1.5,4.41-4.5v-9.32l3.87-2.07v11.52c0,2.55-.76,4.54-2.29,5.98-1.35,1.32-3.15,2-5.4,2.03h-3.1c-2.64,0-4.61-.88-5.9-2.66-1.29,1.74-3.21,2.63-5.76,2.66h-3.11c-2.58,0-4.54-.88-5.89-2.66-1.29,1.77-3.26,2.66-5.89,2.66h-4.46Z"/>
    <path class="cls-3" d="m1497.15,469.99c-2.61,0-4.62-.84-6.03-2.52-1.2-1.44-1.8-3.27-1.8-5.49v-18.95l3.87-2.07v20.88c0,3,1.47,4.5,4.41,4.5h2.97v3.64h-3.42Z"/>
    <path class="cls-3" d="m1513.53,466.34h2.97v3.64h-3.42c-2.49,0-4.46-.79-5.9-2.38-1.44,1.59-3.41,2.38-5.89,2.38h-3.42v-3.64h2.97c2.94,0,4.41-1.5,4.41-4.5v-9.32l3.87-2.07v11.39c0,3,1.47,4.5,4.41,4.5Zm-7.11-21.33c-1.47,0-2.21-.75-2.21-2.25s.73-2.21,2.21-2.21,2.16.74,2.16,2.21-.72,2.25-2.16,2.25Z"/>
    <path class="cls-3" d="m1529.46,466.34h2.97v3.64h-3.42c-2.49,0-4.46-.79-5.9-2.38-1.44,1.59-3.41,2.38-5.89,2.38h-3.42v-3.64h2.97c2.94,0,4.41-1.5,4.41-4.5v-9.32l3.87-2.07v11.39c0,3,1.47,4.5,4.41,4.5Zm-10.62-21.02c-1.47,0-2.21-.75-2.21-2.25s.73-2.21,2.21-2.21,2.16.74,2.16,2.21-.72,2.25-2.16,2.25Zm5.76,0c-1.47,0-2.21-.75-2.21-2.25s.73-2.21,2.21-2.21,2.16.74,2.16,2.21-.72,2.25-2.16,2.25Z"/>
    <path class="cls-3" d="m1537.11,457.79c0-2.61.78-4.63,2.34-6.07,1.38-1.23,3.18-1.85,5.4-1.85,2.85,0,5.04,1.05,6.57,3.15,1.32,1.77,1.98,4.08,1.98,6.93,0,3.24-.84,5.78-2.52,7.61-1.47,1.62-3.39,2.43-5.76,2.43-2.7,0-4.75-.75-6.17-2.25-1.44,1.5-3.38,2.25-5.8,2.25h-3.42v-3.64h2.97c2.94,0,4.41-1.5,4.41-4.5v-4.05Zm3.87,4.37c0,2.79,1.36,4.19,4.09,4.19,1.41,0,2.51-.57,3.31-1.71.79-1.14,1.19-2.73,1.19-4.77s-.42-3.58-1.26-4.7c-.84-1.12-2-1.69-3.47-1.69-2.58,0-3.87,1.5-3.87,4.5v4.18Z"/>
  </g>
</svg>