<?xml version="1.0" encoding="UTF-8"?>
<svg id="Layer_1" data-name="Layer 1" xmlns="http://www.w3.org/2000/svg" width="1641" height="697" viewBox="0 0 1641 697">
  <defs>
    <style>
      .cls-1 {
        fill: #e0e0e0;
      }

      .cls-1, .cls-2, .cls-3 {
        stroke-width: 0px;
      }

      .cls-2 {
        fill: #f3f2f3;
      }

      .cls-3 {
        fill: #273551;
      }
    </style>
  </defs>
  <g>
    <path class="cls-1" d="m43.54,144.56v305.41c0,28.91,11.72,55.07,30.66,74.02,18.94,18.94,45.11,30.66,74.02,30.66h486.14c5.94,0,11.83.79,17.51,2.34,5.69,1.55,11.17,3.85,16.29,6.86l87.9,51.64,87.9,51.64v-45.74c0-18.43,7.47-35.11,19.55-47.19,12.08-12.08,28.76-19.54,47.19-19.54h-143.56,715.65c28.91,0,55.07-11.72,74.02-30.66,18.94-18.94,30.66-45.11,30.66-74.02V144.56c0-28.91-11.72-55.08-30.66-74.02-18.94-18.94-45.11-30.66-74.02-30.66H148.21c-28.91,0-55.07,11.72-74.02,30.66-18.94,18.94-30.66,45.11-30.66,74.02Z"/>
    <path class="cls-2" d="m53.54,134.56v305.41c0,28.91,11.72,55.07,30.66,74.02,18.94,18.94,45.11,30.66,74.02,30.66h486.14c5.94,0,11.83.79,17.51,2.34,5.69,1.55,11.17,3.85,16.29,6.86l87.9,51.64,87.9,51.64v-45.74c0-18.43,7.47-35.11,19.55-47.19,12.08-12.08,28.76-19.54,47.19-19.54h-143.56,715.65c28.91,0,55.07-11.72,74.02-30.66,18.94-18.94,30.66-45.11,30.66-74.02V134.56c0-28.91-11.72-55.08-30.66-74.02-18.94-18.94-45.11-30.66-74.02-30.66H158.21c-28.91,0-55.07,11.72-74.02,30.66-18.94,18.94-30.66,45.11-30.66,74.02Z"/>
  </g>
  <g>
    <path class="cls-3" d="m753.27,147.07c-2.73,0-4.86-.92-6.39-2.75-1.32-1.59-1.98-3.61-1.98-6.08,0-2.67.74-4.99,2.23-6.95s3.61-3.41,6.37-4.34c2.91.99,5.1,2.55,6.57,4.68,1.32,1.89,1.98,4.09,1.98,6.61,0,2.85-.84,5.08-2.52,6.71-1.5,1.41-3.44,2.12-5.8,2.12h-.45Zm-2.92-25.42c-1.47,0-2.21-.75-2.21-2.25s.73-2.21,2.21-2.21,2.16.74,2.16,2.21-.72,2.25-2.16,2.25Zm2.79,21.78h.68c1.35,0,2.42-.46,3.22-1.4.79-.93,1.19-2.17,1.19-3.74,0-3.6-1.58-6.18-4.73-7.74-3.15,1.56-4.72,4.12-4.72,7.69,0,1.59.39,2.85,1.17,3.78.78.93,1.85,1.4,3.2,1.4Zm2.97-21.78c-1.47,0-2.21-.75-2.21-2.25s.73-2.21,2.21-2.21,2.16.74,2.16,2.21-.72,2.25-2.16,2.25Z"/>
    <path class="cls-3" d="m775.77,144.69c0,3.36-.88,6.06-2.65,8.1-1.68,1.95-3.92,2.92-6.71,2.92-1.8,0-3.55-.45-5.27-1.35v-3.38c1.53.84,3.06,1.26,4.59,1.26,1.92,0,3.42-.65,4.5-1.93,1.08-1.29,1.62-3.08,1.62-5.36v-15.34l3.91-2.07v17.15Z"/>
    <path class="cls-3" d="m804.88,143.43v3.64h-5.58c-.12,2.58-1.23,4.71-3.33,6.39-1.77,1.38-3.78,2.07-6.03,2.07-1.86,0-3.62-.44-5.27-1.3v-3.42c1.59.84,3.16,1.26,4.72,1.26s2.98-.5,4.16-1.49c1.19-.99,1.79-2.17,1.82-3.55-1.56-.06-2.72-.12-3.46-.18-3.24-.18-5.69-1.28-7.34-3.29-1.38-1.68-2.07-3.85-2.07-6.53,0-3.27.87-5.82,2.61-7.65,1.56-1.62,3.62-2.43,6.17-2.43s4.72.8,6.16,2.38c1.23,1.41,1.85,3.26,1.85,5.54v8.55h5.58Zm-9.49-8.28c0-3.06-1.37-4.59-4.1-4.59-1.56,0-2.78.56-3.64,1.69-.87,1.12-1.3,2.69-1.3,4.7,0,3.93,1.92,6.02,5.76,6.25.72.09,1.81.17,3.29.23v-8.28Z"/>
    <path class="cls-3" d="m802.19,147.07v-3.64h7.92v3.64h-7.92Z"/>
    <path class="cls-3" d="m807.4,147.07v-3.64h7.92v3.64h-7.92Z"/>
    <path class="cls-3" d="m812.62,147.07v-3.64h7.92v3.64h-7.92Z"/>
    <path class="cls-3" d="m863.93,143.43h2.97v3.64h-3.42c-2.52,0-4.48-.78-5.89-2.34-1.41,1.56-3.38,2.34-5.89,2.34h-18.63c-2.49,0-4.46-.79-5.89-2.38-1.44,1.59-3.41,2.38-5.89,2.38h-3.42v-3.64h2.97c2.94,0,4.41-1.5,4.41-4.5v-6.3l3.87-2.07v8.37c0,2.52.97,3.97,2.92,4.36,1.2-4.53,3.18-8.31,5.94-11.34,3.09-3.33,6.69-5,10.8-5,3.42,0,6.15,1.19,8.19,3.56,1.71,2.01,2.57,4.48,2.57,7.42v1.08c0,2.94,1.47,4.41,4.41,4.41Zm-12.47,0c2.79,0,4.19-1.56,4.19-4.68v-.81c0-2.34-.72-4.2-2.16-5.58-1.26-1.2-2.82-1.8-4.68-1.8-3.18,0-6.04,1.47-8.6,4.41-1.95,2.25-3.45,5.07-4.5,8.46h15.75Z"/>
    <path class="cls-3" d="m864.2,147.07v-3.64h2.38c3.12,0,4.68-1.63,4.68-4.91v-18.41l3.91-2.07v20.52c0,2.67-.79,4.79-2.38,6.34-1.5,1.44-3.46,2.16-5.89,2.16h-2.7Z"/>
    <path class="cls-3" d="m883.27,147.07v-26.96l3.87-2.07v29.03h-3.87Z"/>
    <path class="cls-3" d="m917.05,145.99c-2.85,1.71-4.57,2.88-5.17,3.51-1.2,1.17-1.8,2.62-1.8,4.37,0,1.92.66,3.47,1.98,4.66s3.03,1.78,5.13,1.78c3.3-.03,6.06-.83,8.28-2.39v3.65c-2.58,1.59-5.4,2.38-8.46,2.38-3.33,0-6-1.1-8.01-3.29-1.74-1.86-2.61-4.16-2.61-6.88,0-2.04.54-3.77,1.62-5.2,1.08-1.43,2.98-2.92,5.71-4.48-2.46-1.8-4.98-4.62-7.56-8.46v-1.98c1.47-2.1,3.19-3.74,5.17-4.93,1.98-1.18,3.99-1.78,6.03-1.78s4.02.61,6.03,1.82c2.01,1.22,3.73,2.87,5.18,4.97v1.89c-1.53,2.31-4.07,4.88-7.61,7.69.66.06,1.18.09,1.57.09h11.88l.04,3.64h-12.24c-1.77,0-3.5-.36-5.18-1.08Zm-7.29-11.29c2.7,3.69,5.16,6.14,7.38,7.33,2.91-1.98,5.52-4.46,7.83-7.42-2.22-2.7-4.75-4.06-7.6-4.09-2.88,0-5.42,1.39-7.61,4.18Z"/>
    <path class="cls-3" d="m931.77,147.07v-3.64h7.92v3.64h-7.92Z"/>
    <path class="cls-3" d="m936.99,147.07v-3.64h7.92v3.64h-7.92Z"/>
    <path class="cls-3" d="m942.21,147.07v-3.64h7.92v3.64h-7.92Z"/>
    <path class="cls-3" d="m962.77,143.43h2.97v3.64h-3.42c-2.58,0-4.57-.83-5.98-2.47-1.5,1.65-3.57,2.47-6.21,2.47h-2.7v-3.64h2.38c3.12,0,4.68-1.63,4.68-4.91v-18.41l3.92-2.07v20.52c0,1.74.34,2.99,1.01,3.74.68.75,1.79,1.12,3.35,1.12Z"/>
    <path class="cls-3" d="m977.22,143.29c1.2-4.53,3.18-8.31,5.94-11.34,3.09-3.33,6.69-5,10.8-5,3.42,0,6.15,1.19,8.19,3.56,1.71,2.01,2.56,4.48,2.56,7.42v1.17c0,2.61-.79,4.63-2.38,6.08-1.38,1.26-3.2,1.89-5.45,1.89h-18.63c-2.49,0-4.46-.79-5.9-2.38-1.44,1.59-3.4,2.38-5.89,2.38h-3.42v-3.64h2.97c2.94,0,4.41-1.5,4.41-4.5v-6.3l3.87-2.07v8.37c0,2.52.97,3.97,2.93,4.36Zm23.62-4.54v-.81c0-2.34-.72-4.2-2.16-5.58-1.26-1.2-2.82-1.8-4.68-1.8-3.18,0-6.05,1.47-8.6,4.41-1.95,2.25-3.45,5.07-4.5,8.46h15.75c2.79,0,4.19-1.56,4.19-4.68Zm-6.12-16.65c-1.47,0-2.21-.75-2.21-2.25s.73-2.21,2.21-2.21,2.16.74,2.16,2.21-.72,2.25-2.16,2.25Z"/>
    <path class="cls-3" d="m1046.68,144.24c0,3.57-1.25,6.42-3.73,8.55-2.19,1.89-4.98,2.83-8.37,2.83-4.02,0-7.12-1.35-9.31-4.05-1.68-2.1-2.52-4.6-2.52-7.51,0-2.55.61-4.73,1.84-6.53l3.87-.85c-1.38,2.13-2.07,4.45-2.07,6.97s.79,4.53,2.38,6.12c1.47,1.47,3.4,2.21,5.8,2.21,2.73,0,4.83-.81,6.3-2.43,1.26-1.38,1.89-3.15,1.89-5.31v-24.12l3.92-2.07v26.19Z"/>
    <path class="cls-3" d="m1075.79,143.43v3.64h-5.58c-.12,2.58-1.23,4.71-3.33,6.39-1.77,1.38-3.78,2.07-6.03,2.07-1.86,0-3.62-.44-5.27-1.3v-3.42c1.59.84,3.16,1.26,4.72,1.26s2.98-.5,4.16-1.49c1.19-.99,1.79-2.17,1.82-3.55-1.56-.06-2.72-.12-3.46-.18-3.24-.18-5.69-1.28-7.34-3.29-1.38-1.68-2.07-3.85-2.07-6.53,0-3.27.87-5.82,2.61-7.65,1.56-1.62,3.62-2.43,6.17-2.43s4.72.8,6.16,2.38c1.23,1.41,1.85,3.26,1.85,5.54v8.55h5.58Zm-9.49-8.28c0-3.06-1.37-4.59-4.1-4.59-1.56,0-2.78.56-3.64,1.69-.87,1.12-1.3,2.69-1.3,4.7,0,3.93,1.92,6.02,5.76,6.25.72.09,1.81.17,3.29.23v-8.28Z"/>
    <path class="cls-3" d="m1073.09,147.07v-3.64h7.92v3.64h-7.92Z"/>
    <path class="cls-3" d="m1078.31,147.07v-3.64h7.92v3.64h-7.92Z"/>
    <path class="cls-3" d="m1083.53,147.07v-3.64h7.92v3.64h-7.92Z"/>
    <path class="cls-3" d="m1101.13,134.52c3.42-5.04,7.66-7.56,12.73-7.56,3.39,0,6.11,1.19,8.15,3.56,1.74,2.01,2.61,4.48,2.61,7.42v1.44c0,2.46-.6,4.36-1.8,5.69-1.2,1.34-2.91,2-5.13,2h-28.94v-3.64h8.37l.14-.5v-22.82l3.87-2.07v16.47Zm19.57,4.68v-1.26c0-2.34-.72-4.2-2.16-5.58-1.23-1.2-2.78-1.8-4.64-1.8-3.09,0-5.88,1.39-8.37,4.18-1.86,2.1-3.33,4.72-4.41,7.88v.81h16.24c1.29,0,2.17-.3,2.63-.9.46-.6.7-1.71.7-3.33Z"/>
    <path class="cls-3" d="m1170.41,143.43h2.97v3.64h-3.42c-1.56,0-2.91-.32-4.05-.95-.36,3.06-1.7,5.45-4,7.16-2.07,1.56-4.63,2.34-7.7,2.34-3.9,0-6.93-1.38-9.09-4.14-1.65-2.13-2.47-4.65-2.47-7.56,0-2.52.63-4.68,1.89-6.48l3.74-.81c-1.35,2.13-2.03,4.43-2.03,6.89s.78,4.59,2.34,6.21c1.47,1.5,3.34,2.25,5.62,2.25,2.64,0,4.68-.77,6.12-2.29,1.2-1.29,1.8-2.97,1.8-5.04v-15.03l3.87-2.07v11.39c0,3,1.47,4.5,4.41,4.5Zm-16.42-16.65c-1.47,0-2.21-.75-2.21-2.25s.73-2.21,2.21-2.21,2.16.74,2.16,2.21-.72,2.25-2.16,2.25Z"/>
    <path class="cls-3" d="m1170.68,147.07v-3.64h7.92v3.64h-7.92Z"/>
    <path class="cls-3" d="m1175.9,147.07v-3.64h7.92v3.64h-7.92Z"/>
    <path class="cls-3" d="m1181.12,147.07v-3.64h7.92v3.64h-7.92Z"/>
    <path class="cls-3" d="m1202,143.43h2.97v3.64h-3.42c-2.49,0-4.46-.79-5.89-2.38-1.44,1.59-3.41,2.38-5.89,2.38h-3.42v-3.64h2.97c2.94,0,4.41-1.5,4.41-4.5v-9.32l3.87-2.07v11.39c0,3,1.47,4.5,4.41,4.5Zm-10.75,8.14c1.44,0,2.16.75,2.16,2.25s-.72,2.21-2.16,2.21-2.21-.74-2.21-2.21.73-2.25,2.21-2.25Zm5.71,0c1.44,0,2.16.75,2.16,2.25s-.72,2.21-2.16,2.21-2.21-.74-2.21-2.21.73-2.25,2.21-2.25Z"/>
    <path class="cls-3" d="m1202.27,147.07v-3.64h2.97c2.94,0,4.41-1.5,4.41-4.5v-9.32l3.87-2.07v11.52c0,2.55-.77,4.56-2.29,6.03-1.41,1.32-3.26,1.98-5.54,1.98h-3.42Zm7.24,8.96c-1.47,0-2.21-.75-2.21-2.25s.73-2.21,2.21-2.21,2.16.73,2.16,2.21-.72,2.25-2.16,2.25Z"/>
    <path class="cls-3" d="m1251.35,143.43h2.97v3.64h-3.42c-3.09,0-5.31-1.14-6.66-3.42-1.44,1.38-3.23,2.07-5.36,2.07-2.64,0-4.74-.99-6.3-2.97-1.29-1.68-1.94-3.73-1.94-6.17,0-2.91.88-5.25,2.66-7.02,1.5-1.53,3.33-2.29,5.49-2.29,1.65,0,3.07.42,4.27,1.26v-1.93l3.92-2.07v14.4c0,3,1.46,4.5,4.37,4.5Zm-8.28-10.71c-1.11-1.23-2.47-1.84-4.09-1.84-1.32,0-2.4.53-3.24,1.6-.84,1.07-1.26,2.45-1.26,4.16s.42,3.14,1.26,4.19c.84,1.05,1.94,1.58,3.29,1.58,1.68,0,3.06-.69,4.14-2.07-.06-.54-.09-.96-.09-1.26v-6.35Zm-5.8-11.07c-1.47,0-2.21-.75-2.21-2.25s.74-2.21,2.21-2.21,2.16.74,2.16,2.21-.72,2.25-2.16,2.25Zm5.71,0c-1.47,0-2.21-.75-2.21-2.25s.74-2.21,2.21-2.21,2.16.74,2.16,2.21-.72,2.25-2.16,2.25Z"/>
    <path class="cls-3" d="m1267.28,143.43h2.97v3.64h-3.42c-2.49,0-4.46-.79-5.9-2.38-1.44,1.59-3.4,2.38-5.89,2.38h-3.42v-3.64h2.97c2.94,0,4.41-1.5,4.41-4.5v-9.32l3.87-2.07v11.39c0,3,1.47,4.5,4.41,4.5Zm-6.62,8.14c1.44,0,2.16.73,2.16,2.21s-.72,2.25-2.16,2.25-2.21-.75-2.21-2.25.73-2.21,2.21-2.21Z"/>
    <path class="cls-3" d="m1267.54,147.07v-3.64h7.92v3.64h-7.92Z"/>
    <path class="cls-3" d="m1272.77,147.07v-3.64h7.92v3.64h-7.92Z"/>
    <path class="cls-3" d="m1277.99,147.07v-3.64h7.92v3.64h-7.92Z"/>
    <path class="cls-3" d="m1283.21,147.07v-3.64h4.05c2.91,0,4.37-1.5,4.37-4.5v-6.3l3.87-2.07v8.37c0,3,1.47,4.5,4.41,4.5h2.07c2.94,0,4.41-1.5,4.41-4.5v-7.83l3.87-2.03v9.86c0,3,1.46,4.5,4.37,4.5h2.12c2.94,0,4.41-1.5,4.41-4.5v-9.32l3.87-2.07v10.98c0,3.27,1.56,4.91,4.68,4.91h3.74v3.64h-4.05c-2.7,0-4.76-.92-6.16-2.75-1.26,1.8-3.23,2.72-5.9,2.75h-3.1c-2.64,0-4.61-.88-5.9-2.66-1.29,1.74-3.21,2.63-5.76,2.66h-3.11c-2.58,0-4.54-.88-5.89-2.66-1.29,1.77-3.26,2.66-5.89,2.66h-4.46Z"/>
    <path class="cls-3" d="m1346.38,143.43h2.97v3.64h-3.42c-2.49,0-4.46-.79-5.9-2.38-1.44,1.59-3.4,2.38-5.89,2.38h-3.42v-3.64h2.97c2.94,0,4.41-1.5,4.41-4.5v-9.32l3.87-2.07v11.39c0,3,1.47,4.5,4.41,4.5Zm-7.11-21.33c-1.47,0-2.21-.75-2.21-2.25s.73-2.21,2.21-2.21,2.16.74,2.16,2.21-.72,2.25-2.16,2.25Z"/>
    <path class="cls-3" d="m1346.65,147.07v-3.64h2.38c3.12,0,4.68-1.63,4.68-4.91v-18.41l3.92-2.07v20.52c0,2.67-.79,4.79-2.38,6.34-1.5,1.44-3.46,2.16-5.9,2.16h-2.7Z"/>
    <path class="cls-3" d="m1365.73,147.07v-26.96l3.87-2.07v29.03h-3.87Z"/>
    <path class="cls-3" d="m1415.4,147.07c-.3,2.64-1.74,4.75-4.32,6.34-2.4,1.47-5.46,2.21-9.18,2.21-4.74,0-8.31-1.38-10.71-4.14-1.77-2.04-2.65-4.56-2.65-7.56,0-2.52.63-4.68,1.89-6.48l3.73-.81c-1.35,2.13-2.03,4.43-2.03,6.89,0,2.67.87,4.77,2.61,6.3,1.71,1.53,4.09,2.29,7.15,2.29,2.58,0,4.71-.45,6.39-1.35,1.68-.9,2.7-2.13,3.06-3.69h-4.5l1.89-3.64h6.79v3.64h-.13Z"/>
    <path class="cls-3" d="m1442.13,143.43h3.01v3.64h-3.42c-2.49,0-4.46-.79-5.89-2.38-1.53,2.19-3.77,3.29-6.71,3.29s-5.16-1.08-6.66-3.24c-1.41,1.56-3.38,2.34-5.89,2.34h-3.42v-3.64h2.97c2.94,0,4.41-1.5,4.41-4.5v-1.49c0-3.48.85-6.15,2.56-8.01,1.5-1.65,3.51-2.48,6.03-2.48,2.88,0,5.1,1.07,6.66,3.2,1.32,1.83,1.98,4.26,1.98,7.29v1.49c0,3,1.46,4.5,4.37,4.5Zm-13.01.9c1.47,0,2.63-.61,3.49-1.84.86-1.23,1.28-2.92,1.28-5.08,0-4.56-1.59-6.84-4.77-6.84s-4.72,2.28-4.72,6.84,1.57,6.93,4.72,6.93Z"/>
    <path class="cls-3" d="m1442.44,147.07v-3.64h7.92v3.64h-7.92Z"/>
    <path class="cls-3" d="m1447.66,147.07v-3.64h7.92v3.64h-7.92Z"/>
    <path class="cls-3" d="m1452.88,147.07v-3.64h7.92v3.64h-7.92Z"/>
    <path class="cls-3" d="m1458.1,147.07v-3.64h4.05c2.91,0,4.37-1.5,4.37-4.5v-6.3l3.87-2.07v8.37c0,3,1.47,4.5,4.41,4.5h2.07c2.94,0,4.41-1.5,4.41-4.5v-7.83l3.87-2.03v9.86c0,3,1.45,4.5,4.36,4.5h2.12c2.94,0,4.41-1.5,4.41-4.5v-9.32l3.87-2.07v10.98c0,3.27,1.56,4.91,4.68,4.91h3.73v3.64h-4.05c-2.7,0-4.76-.92-6.17-2.75-1.26,1.8-3.22,2.72-5.89,2.75h-3.11c-2.64,0-4.61-.88-5.89-2.66-1.29,1.74-3.21,2.63-5.76,2.66h-3.11c-2.58,0-4.54-.88-5.89-2.66-1.29,1.77-3.26,2.66-5.89,2.66h-4.46Z"/>
    <path class="cls-3" d="m1505.62,147.07v-3.64h2.97c2.94,0,4.41-1.5,4.41-4.5v-9.32l3.87-2.07v11.52c0,2.55-.77,4.56-2.29,6.03-1.41,1.32-3.26,1.98-5.54,1.98h-3.42Zm3.46-24.97c-1.47,0-2.21-.75-2.21-2.25s.73-2.21,2.21-2.21,2.16.74,2.16,2.21-.72,2.25-2.16,2.25Zm5.71,0c-1.47,0-2.21-.75-2.21-2.25s.73-2.21,2.21-2.21,2.16.74,2.16,2.21-.72,2.25-2.16,2.25Z"/>
    <path class="cls-3" d="m1536.04,145.63c-1.14.45-2.54.68-4.19.68-2.67,0-4.77-1-6.3-3.02-1.29-1.71-1.94-3.85-1.94-6.43,0-3.18.86-5.67,2.56-7.47,1.53-1.62,3.54-2.43,6.03-2.43s4.51.8,5.89,2.38c1.23,1.41,1.85,3.26,1.85,5.54v9.81c0,3.39-.89,6.08-2.66,8.05-1.68,1.86-3.91,2.79-6.71,2.79-1.86,0-3.62-.44-5.26-1.3v-3.42c1.59.84,3.16,1.26,4.72,1.26,1.77,0,3.18-.56,4.23-1.69,1.05-1.12,1.63-2.71,1.75-4.75Zm0-10.57c0-3-1.28-4.5-3.82-4.5-1.5,0-2.68.55-3.53,1.67-.86,1.11-1.28,2.62-1.28,4.54s.41,3.4,1.24,4.52c.82,1.12,1.94,1.69,3.35,1.69,1.98,0,3.33-.55,4.05-1.67v-6.25Z"/>
    <path class="cls-3" d="m771.63,220.07c-.3,2.64-1.74,4.75-4.32,6.34-2.4,1.47-5.46,2.21-9.18,2.21-4.74,0-8.31-1.38-10.71-4.14-1.77-2.04-2.65-4.56-2.65-7.56,0-2.52.63-4.68,1.89-6.48l3.74-.81c-1.35,2.13-2.03,4.43-2.03,6.89,0,2.67.87,4.77,2.61,6.3,1.71,1.53,4.1,2.29,7.15,2.29,2.58,0,4.71-.45,6.39-1.35,1.68-.9,2.7-2.13,3.06-3.69h-4.5l1.89-3.64h6.79v3.64h-.14Zm-16.51,16.51c-1.47,0-2.21-.75-2.21-2.25s.73-2.21,2.21-2.21,2.16.74,2.16,2.21-.72,2.25-2.16,2.25Zm5.71,0c-1.47,0-2.21-.75-2.21-2.25s.73-2.21,2.21-2.21,2.16.74,2.16,2.21-.72,2.25-2.16,2.25Z"/>
    <path class="cls-3" d="m784.72,216.43h2.97v3.64h-3.42c-2.58,0-4.58-.83-5.99-2.47-1.5,1.65-3.57,2.47-6.21,2.47h-2.7v-3.64h2.38c3.12,0,4.68-1.63,4.68-4.91v-18.41l3.91-2.07v20.52c0,1.74.34,2.99,1.01,3.74.67.75,1.79,1.12,3.35,1.12Z"/>
    <path class="cls-3" d="m799.17,216.29c1.2-4.53,3.18-8.31,5.94-11.34,3.09-3.33,6.69-5,10.8-5,3.42,0,6.15,1.19,8.19,3.56,1.71,2.01,2.57,4.48,2.57,7.42v1.17c0,2.61-.8,4.63-2.39,6.08-1.38,1.26-3.19,1.89-5.44,1.89h-18.63c-2.49,0-4.46-.79-5.89-2.38-1.44,1.59-3.41,2.38-5.89,2.38h-3.42v-3.64h2.97c2.94,0,4.41-1.5,4.41-4.5v-6.3l3.87-2.07v8.37c0,2.52.97,3.97,2.92,4.36Zm23.62-4.54v-.81c0-2.34-.72-4.2-2.16-5.58-1.26-1.2-2.82-1.8-4.68-1.8-3.18,0-6.04,1.47-8.6,4.41-1.95,2.25-3.45,5.07-4.5,8.46h15.75c2.79,0,4.19-1.56,4.19-4.68Z"/>
    <path class="cls-3" d="m850.56,193.12l3.91-2.07v20.52c0,2.67-.79,4.79-2.38,6.34-1.5,1.44-3.46,2.16-5.89,2.16h-15.48l1.89-3.64h6.57v-17.46l3.87-2.07v19.53h2.84c3.12,0,4.68-1.63,4.68-4.91v-18.41Zm-5.58-1.58l-1.04,1.94h-7.43l1.04-1.94h1.21c-.3-.54-.45-1.11-.45-1.71,0-.87.33-1.63.99-2.27.66-.64,1.44-.97,2.34-.97.75,0,1.47.24,2.16.72v1.98c-.66-.51-1.29-.76-1.89-.76-1.11,0-1.66.5-1.66,1.49,0,.51.21,1.02.63,1.53h4.1Z"/>
    <path class="cls-3" d="m862.57,220.07v-26.96l3.87-2.07v29.03h-3.87Z"/>
    <path class="cls-3" d="m912.79,216.43h2.97v3.64h-3.42c-1.62,0-3.08-.36-4.37-1.08-.42,3.09-1.81,5.52-4.19,7.29-2.1,1.56-4.7,2.34-7.78,2.34-4.02,0-7.13-1.35-9.32-4.05-1.68-2.1-2.52-4.6-2.52-7.51,0-2.55.62-4.73,1.85-6.53l3.87-.85c-1.38,2.13-2.07,4.45-2.07,6.97s.79,4.53,2.38,6.12c1.47,1.47,3.41,2.21,5.81,2.21,2.73,0,4.83-.81,6.3-2.43,1.26-1.38,1.89-3.15,1.89-5.31v-24.12l3.91-2.07v20.88c0,3,1.56,4.5,4.68,4.5Z"/>
    <path class="cls-3" d="m937.68,216.43h2.56v3.64h-2.97c-2.52,0-4.49-.78-5.9-2.34-1.41,1.56-3.38,2.34-5.89,2.34h-12.42v-3.64h12.06c2.88,0,4.32-1.51,4.32-4.55v-.4c0-2.25-.87-3.96-2.61-5.13-1.38-.96-3.07-1.44-5.08-1.44-1.59,0-3.18.3-4.77.9v-3.83l9.85-10.94h3.96l-8.87,9.99h.27c3.42,0,6.18,1.04,8.28,3.11,1.89,1.92,2.83,4.35,2.83,7.29v.5c0,3,1.46,4.5,4.37,4.5Z"/>
    <path class="cls-3" d="m937.54,220.07v-3.64h7.92v3.64h-7.92Z"/>
    <path class="cls-3" d="m942.76,220.07v-3.64h7.92v3.64h-7.92Z"/>
    <path class="cls-3" d="m947.98,220.07v-3.64h7.92v3.64h-7.92Z"/>
    <path class="cls-3" d="m953.21,220.07v-3.64h4.05c2.91,0,4.37-1.5,4.37-4.5v-6.3l3.87-2.07v8.37c0,3,1.47,4.5,4.41,4.5h2.07c2.94,0,4.41-1.5,4.41-4.5v-7.83l3.87-2.03v9.86c0,3,1.45,4.5,4.36,4.5h2.12c2.94,0,4.41-1.5,4.41-4.5v-9.32l3.87-2.07v10.98c0,3.27,1.56,4.91,4.68,4.91h3.73v3.64h-4.05c-2.7,0-4.76-.92-6.17-2.75-1.26,1.8-3.22,2.72-5.89,2.75h-3.11c-2.64,0-4.61-.88-5.89-2.66-1.29,1.74-3.21,2.63-5.76,2.66h-3.11c-2.58,0-4.54-.88-5.89-2.66-1.29,1.77-3.26,2.66-5.89,2.66h-4.46Zm21.91-23.76c-1.47,0-2.21-.75-2.21-2.25s.73-2.21,2.21-2.21,2.16.74,2.16,2.21-.72,2.25-2.16,2.25Zm2.84-5.36c-1.32,0-1.98-.67-1.98-2.02s.66-1.98,1.98-1.98,1.98.66,1.98,1.98-.66,2.02-1.98,2.02Zm2.88,5.36c-1.47,0-2.21-.75-2.21-2.25s.73-2.21,2.21-2.21,2.16.74,2.16,2.21-.72,2.25-2.16,2.25Z"/>
    <path class="cls-3" d="m1000.72,220.07v-3.64h2.38c3.12,0,4.68-1.63,4.68-4.91v-18.41l3.91-2.07v20.52c0,2.67-.79,4.79-2.38,6.34-1.5,1.44-3.46,2.16-5.89,2.16h-2.7Z"/>
    <path class="cls-3" d="m1019.8,220.07v-26.96l3.87-2.07v29.03h-3.87Z"/>
    <path class="cls-3" d="m1068.27,220.07c-.3,2.64-1.74,4.75-4.32,6.34-2.4,1.47-5.46,2.21-9.18,2.21-4.74,0-8.31-1.38-10.71-4.14-1.77-2.04-2.65-4.56-2.65-7.56,0-2.52.63-4.68,1.89-6.48l3.74-.81c-1.35,2.13-2.03,4.43-2.03,6.89,0,2.67.87,4.77,2.61,6.3,1.71,1.53,4.1,2.29,7.15,2.29,2.58,0,4.71-.45,6.39-1.35,1.68-.9,2.7-2.13,3.06-3.69h-4.5l1.89-3.64h6.79v3.64h-.14Zm-16.51,16.51c-1.47,0-2.21-.75-2.21-2.25s.73-2.21,2.21-2.21,2.16.74,2.16,2.21-.72,2.25-2.16,2.25Zm5.71,0c-1.47,0-2.21-.75-2.21-2.25s.73-2.21,2.21-2.21,2.16.74,2.16,2.21-.72,2.25-2.16,2.25Z"/>
    <path class="cls-3" d="m1066.02,220.07v-3.64h8.1c-1.38-1.53-2.07-3.66-2.07-6.39,0-3.27.86-5.82,2.56-7.65,1.5-1.62,3.49-2.43,5.99-2.43s4.53.8,5.94,2.38c1.2,1.41,1.8,3.26,1.8,5.54v4.28c-.03,2.49-.76,4.46-2.21,5.89-1.41,1.35-3.28,2.03-5.62,2.03h-14.49Zm18.45-12.01c0-3-1.29-4.5-3.87-4.5-1.47,0-2.63.56-3.47,1.69s-1.26,2.69-1.26,4.7.41,3.55,1.21,4.72c.81,1.17,1.89,1.76,3.24,1.76,2.76,0,4.14-1.44,4.14-4.32v-4.05Zm-3.78-12.69c-1.47,0-2.21-.75-2.21-2.25s.73-2.21,2.21-2.21,2.16.74,2.16,2.21-.72,2.25-2.16,2.25Z"/>
    <path class="cls-3" d="m1124.52,216.43h2.97v3.64h-3.42c-3.09,0-5.31-1.14-6.66-3.42-1.44,1.38-3.22,2.07-5.36,2.07-2.64,0-4.74-.99-6.3-2.97-1.29-1.68-1.94-3.73-1.94-6.17,0-2.91.88-5.25,2.65-7.02,1.5-1.53,3.33-2.29,5.49-2.29,1.65,0,3.07.42,4.28,1.26v-1.93l3.91-2.07v14.4c0,3,1.46,4.5,4.37,4.5Zm-8.28-10.71c-1.11-1.23-2.47-1.84-4.1-1.84-1.32,0-2.4.53-3.24,1.6-.84,1.07-1.26,2.45-1.26,4.16s.42,3.14,1.26,4.19c.84,1.05,1.94,1.58,3.29,1.58,1.68,0,3.06-.69,4.14-2.07-.06-.54-.09-.96-.09-1.26v-6.35Z"/>
    <path class="cls-3" d="m1124.79,220.07v-3.64h2.38c3.12,0,4.68-1.63,4.68-4.91v-18.41l3.91-2.07v20.52c0,2.67-.79,4.79-2.38,6.34-1.5,1.44-3.46,2.16-5.89,2.16h-2.7Z"/>
    <path class="cls-3" d="m1165.42,216.43h2.97v3.64h-3.42c-1.53,0-2.85-.3-3.96-.9-.27,2.97-1.3,5.34-3.11,7.11-1.65,1.62-3.72,2.43-6.21,2.43-1.8,0-3.55-.45-5.27-1.35v-3.38c1.53.84,3.06,1.26,4.59,1.26,1.92,0,3.42-.65,4.5-1.93,1.08-1.29,1.62-3.08,1.62-5.36v-15.34l3.87-2.07v.04l.04-.04v12.29c.27,2.4,1.72,3.6,4.37,3.6Z"/>
    <path class="cls-3" d="m1178.07,207.52c3.42-5.04,7.66-7.56,12.73-7.56,3.39,0,6.1,1.19,8.14,3.56,1.74,2.01,2.61,4.48,2.61,7.42v1.44c0,2.46-.6,4.36-1.8,5.69-1.2,1.34-2.91,2-5.13,2h-28.93v-3.64h8.37l.13-.5v-22.82l3.87-2.07v16.47Zm19.57,4.68v-1.26c0-2.34-.72-4.2-2.16-5.58-1.23-1.2-2.78-1.8-4.63-1.8-3.09,0-5.88,1.39-8.37,4.18-1.86,2.1-3.33,4.72-4.41,7.88v.81h16.24c1.29,0,2.17-.3,2.63-.9.46-.6.7-1.71.7-3.33Zm-7.11-17.1c-1.47,0-2.21-.75-2.21-2.25s.73-2.21,2.21-2.21,2.16.74,2.16,2.21-.72,2.25-2.16,2.25Z"/>
    <path class="cls-3" d="m1216.59,220.07c-2.61,0-4.62-.84-6.03-2.52-1.2-1.44-1.8-3.27-1.8-5.49v-18.95l3.87-2.07v20.88c0,3,1.47,4.5,4.41,4.5h2.97v3.64h-3.42Z"/>
    <path class="cls-3" d="m1232.97,216.43h2.97v3.64h-3.42c-2.49,0-4.46-.79-5.89-2.38-1.44,1.59-3.41,2.38-5.89,2.38h-3.42v-3.64h2.97c2.94,0,4.41-1.5,4.41-4.5v-9.32l3.87-2.07v11.39c0,3,1.47,4.5,4.41,4.5Zm-7.11-21.33c-1.47,0-2.21-.75-2.21-2.25s.73-2.21,2.21-2.21,2.16.74,2.16,2.21-.72,2.25-2.16,2.25Z"/>
    <path class="cls-3" d="m1262.22,216.43h3.02v3.64h-3.42c-2.49,0-4.46-.79-5.89-2.38-1.53,2.19-3.77,3.29-6.71,3.29s-5.16-1.08-6.66-3.24c-1.41,1.56-3.38,2.34-5.89,2.34h-3.42v-3.64h2.97c2.94,0,4.41-1.5,4.41-4.5v-1.49c0-3.48.86-6.15,2.56-8.01,1.5-1.65,3.51-2.48,6.03-2.48,2.88,0,5.1,1.07,6.66,3.2,1.32,1.83,1.98,4.26,1.98,7.29v1.49c0,3,1.46,4.5,4.37,4.5Zm-13,.9c1.47,0,2.63-.61,3.49-1.84.86-1.23,1.28-2.92,1.28-5.08,0-4.56-1.59-6.84-4.77-6.84s-4.72,2.28-4.72,6.84,1.57,6.93,4.72,6.93Z"/>
    <path class="cls-3" d="m1262.53,220.07v-3.64h2.38c3.12,0,4.68-1.63,4.68-4.91v-18.41l3.91-2.07v20.52c0,2.67-.79,4.79-2.38,6.34-1.5,1.44-3.46,2.16-5.89,2.16h-2.7Z"/>
    <path class="cls-3" d="m1281.61,220.07v-26.96l3.87-2.07v29.03h-3.87Z"/>
    <path class="cls-3" d="m1314.19,218.99c-2.85,1.71-4.57,2.88-5.17,3.51-1.2,1.17-1.8,2.62-1.8,4.37,0,1.92.66,3.47,1.98,4.66s3.03,1.78,5.13,1.78c3.3-.03,6.06-.83,8.28-2.39v3.65c-2.58,1.59-5.4,2.38-8.46,2.38-3.33,0-6-1.1-8.01-3.29-1.74-1.86-2.61-4.16-2.61-6.88,0-2.04.54-3.77,1.62-5.2,1.08-1.43,2.98-2.92,5.71-4.48-2.46-1.8-4.98-4.62-7.56-8.46v-1.98c1.47-2.1,3.19-3.74,5.17-4.93,1.98-1.18,3.99-1.78,6.03-1.78s4.02.61,6.03,1.82c2.01,1.22,3.73,2.87,5.18,4.97v1.89c-1.53,2.31-4.07,4.88-7.61,7.69.66.06,1.18.09,1.57.09h11.88l.04,3.64h-12.24c-1.77,0-3.5-.36-5.18-1.08Zm-7.29-11.29c2.7,3.69,5.16,6.14,7.38,7.33,2.91-1.98,5.52-4.46,7.83-7.42-2.22-2.7-4.75-4.06-7.6-4.09-2.88,0-5.42,1.39-7.61,4.18Z"/>
    <path class="cls-3" d="m1344.25,216.43h2.97v3.64h-3.42c-2.58,0-4.57-.83-5.98-2.47-1.5,1.65-3.57,2.47-6.21,2.47h-2.7v-3.64h2.38c3.12,0,4.68-1.63,4.68-4.91v-18.41l3.92-2.07v20.52c0,1.74.34,2.99,1.01,3.74.68.75,1.79,1.12,3.35,1.12Z"/>
    <path class="cls-3" d="m1390.6,216.43h2.97v3.64h-3.42c-2.52,0-4.49-.78-5.9-2.34-1.41,1.56-3.38,2.34-5.89,2.34h-18.63c-2.49,0-4.46-.79-5.9-2.38-1.44,1.59-3.4,2.38-5.89,2.38h-3.42v-3.64h2.97c2.94,0,4.41-1.5,4.41-4.5v-6.3l3.87-2.07v8.37c0,2.52.97,3.97,2.93,4.36,1.2-4.53,3.18-8.31,5.94-11.34,3.09-3.33,6.69-5,10.8-5,3.42,0,6.15,1.19,8.19,3.56,1.71,2.01,2.56,4.48,2.56,7.42v1.08c0,2.94,1.47,4.41,4.41,4.41Zm-12.46,0c2.79,0,4.19-1.56,4.19-4.68v-.81c0-2.34-.72-4.2-2.16-5.58-1.26-1.2-2.82-1.8-4.68-1.8-3.18,0-6.05,1.47-8.6,4.41-1.95,2.25-3.45,5.07-4.5,8.46h15.75Zm-1.94-21.33c-1.47,0-2.21-.75-2.21-2.25s.73-2.21,2.21-2.21,2.16.74,2.16,2.21-.72,2.25-2.16,2.25Z"/>
    <path class="cls-3" d="m1390.87,220.07v-3.64h2.38c3.12,0,4.68-1.63,4.68-4.91v-18.41l3.91-2.07v20.52c0,2.67-.79,4.79-2.38,6.34-1.5,1.44-3.46,2.16-5.89,2.16h-2.7Z"/>
    <path class="cls-3" d="m1409.95,220.07v-26.96l3.87-2.07v29.03h-3.87Z"/>
    <path class="cls-3" d="m1455.49,217.24c0,3.57-1.24,6.42-3.73,8.55-2.19,1.89-4.98,2.83-8.37,2.83-4.02,0-7.13-1.35-9.32-4.05-1.68-2.1-2.52-4.6-2.52-7.51,0-2.55.62-4.73,1.85-6.53l3.87-.85c-1.38,2.13-2.07,4.45-2.07,6.97s.79,4.53,2.38,6.12c1.47,1.47,3.41,2.21,5.81,2.21,2.73,0,4.83-.81,6.3-2.43,1.26-1.38,1.89-3.15,1.89-5.31v-24.12l3.91-2.07v26.19Z"/>
    <path class="cls-3" d="m1484.61,216.43v3.64h-5.58c-.12,2.58-1.23,4.71-3.33,6.39-1.77,1.38-3.78,2.07-6.03,2.07-1.86,0-3.62-.44-5.26-1.3v-3.42c1.59.84,3.16,1.26,4.72,1.26s2.98-.5,4.16-1.49,1.79-2.17,1.82-3.55c-1.56-.06-2.71-.12-3.46-.18-3.24-.18-5.69-1.28-7.34-3.29-1.38-1.68-2.07-3.85-2.07-6.53,0-3.27.87-5.82,2.61-7.65,1.56-1.62,3.62-2.43,6.16-2.43s4.73.8,6.17,2.38c1.23,1.41,1.85,3.26,1.85,5.54v8.55h5.58Zm-9.5-8.28c0-3.06-1.37-4.59-4.1-4.59-1.56,0-2.77.56-3.64,1.69-.87,1.12-1.3,2.69-1.3,4.7,0,3.93,1.92,6.02,5.76,6.25.72.09,1.81.17,3.29.23v-8.28Z"/>
    <path class="cls-3" d="m1494.28,207.52c3.42-5.04,7.66-7.56,12.73-7.56,3.39,0,6.11,1.19,8.15,3.56,1.74,2.01,2.61,4.48,2.61,7.42v1.44c0,2.46-.6,4.36-1.8,5.69-1.2,1.34-2.91,2-5.13,2h-28.94v-3.64h8.37l.14-.5v-22.82l3.87-2.07v16.47Zm19.57,4.68v-1.26c0-2.34-.72-4.2-2.16-5.58-1.23-1.2-2.78-1.8-4.64-1.8-3.09,0-5.88,1.39-8.37,4.18-1.86,2.1-3.33,4.72-4.41,7.88v.81h16.24c1.29,0,2.17-.3,2.63-.9.46-.6.7-1.71.7-3.33Z"/>
    <path class="cls-3" d="m1536.04,218.63c-1.14.45-2.54.68-4.19.68-2.67,0-4.77-1-6.3-3.02-1.29-1.71-1.94-3.85-1.94-6.43,0-3.18.86-5.67,2.56-7.47,1.53-1.62,3.54-2.43,6.03-2.43s4.51.8,5.89,2.38c1.23,1.41,1.85,3.26,1.85,5.54v9.81c0,3.39-.89,6.08-2.66,8.05-1.68,1.86-3.91,2.79-6.71,2.79-1.86,0-3.62-.44-5.26-1.3v-3.42c1.59.84,3.16,1.26,4.72,1.26,1.77,0,3.18-.56,4.23-1.69,1.05-1.12,1.63-2.71,1.75-4.75Zm0-10.57c0-3-1.28-4.5-3.82-4.5-1.5,0-2.68.55-3.53,1.67-.86,1.11-1.28,2.62-1.28,4.54s.41,3.4,1.24,4.52c.82,1.12,1.94,1.69,3.35,1.69,1.98,0,3.33-.55,4.05-1.67v-6.25Z"/>
    <path class="cls-3" d="m747.6,287.81c1.65,0,2.5.85,2.56,2.56,0,.84-.26,1.54-.79,2.09-.53.56-1.21.83-2.05.83-1.86,0-2.79-1.14-2.79-3.42v-5.8l1.89-.54.04,4.28h1.12Z"/>
    <path class="cls-3" d="m772.21,272.64l-9.27,8.05,9.54,12.38h-4.54l-7.92-10.8v10.8h-3.87v-26.96l3.87-2.07v14.81l6.88-6.21h5.31Z"/>
    <path class="cls-3" d="m809.61,289.43h2.97v3.64h-3.42c-3.09,0-5.31-1.14-6.66-3.42-1.44,1.38-3.23,2.07-5.36,2.07-2.64,0-4.74-.99-6.3-2.97-1.29-1.68-1.94-3.73-1.94-6.17,0-2.91.88-5.25,2.66-7.02,1.5-1.53,3.33-2.29,5.49-2.29,1.65,0,3.07.42,4.27,1.26v-1.93l3.92-2.07v14.4c0,3,1.46,4.5,4.37,4.5Zm-8.28-10.71c-1.11-1.23-2.47-1.84-4.09-1.84-1.32,0-2.4.53-3.24,1.6-.84,1.07-1.26,2.45-1.26,4.16s.42,3.14,1.26,4.19c.84,1.05,1.94,1.58,3.29,1.58,1.68,0,3.06-.69,4.14-2.07-.06-.54-.09-.96-.09-1.26v-6.35Z"/>
    <path class="cls-3" d="m809.88,293.07v-3.64h7.92v3.64h-7.92Z"/>
    <path class="cls-3" d="m815.1,293.07v-3.64h7.92v3.64h-7.92Z"/>
    <path class="cls-3" d="m820.32,293.07v-3.64h7.92v3.64h-7.92Z"/>
    <path class="cls-3" d="m841.2,289.43h2.97v3.64h-3.42c-2.49,0-4.46-.79-5.89-2.38-1.44,1.59-3.41,2.38-5.89,2.38h-3.42v-3.64h2.97c2.94,0,4.41-1.5,4.41-4.5v-9.32l3.87-2.07v11.39c0,3,1.47,4.5,4.41,4.5Zm-10.62-21.02c-1.47,0-2.21-.75-2.21-2.25s.73-2.21,2.21-2.21,2.16.74,2.16,2.21-.72,2.25-2.16,2.25Zm5.76,0c-1.47,0-2.21-.75-2.21-2.25s.73-2.21,2.21-2.21,2.16.74,2.16,2.21-.72,2.25-2.16,2.25Z"/>
    <path class="cls-3" d="m870.45,289.43h3.02v3.64h-3.42c-2.49,0-4.46-.79-5.89-2.38-1.53,2.19-3.77,3.29-6.71,3.29s-5.16-1.08-6.66-3.24c-1.41,1.56-3.38,2.34-5.89,2.34h-3.42v-3.64h2.97c2.94,0,4.41-1.5,4.41-4.5v-1.49c0-3.48.86-6.15,2.56-8.01,1.5-1.65,3.51-2.48,6.03-2.48,2.88,0,5.1,1.07,6.66,3.2,1.32,1.83,1.98,4.26,1.98,7.29v1.49c0,3,1.46,4.5,4.37,4.5Zm-13,.9c1.47,0,2.63-.61,3.49-1.84.86-1.23,1.28-2.92,1.28-5.08,0-4.56-1.59-6.84-4.77-6.84s-4.72,2.28-4.72,6.84,1.57,6.93,4.72,6.93Z"/>
    <path class="cls-3" d="m886.43,289.43h2.97v3.64h-3.42c-2.49,0-4.46-.79-5.9-2.38-1.44,1.59-3.4,2.38-5.89,2.38h-3.42v-3.64h2.97c2.94,0,4.41-1.5,4.41-4.5v-9.32l3.87-2.07v11.39c0,3,1.47,4.5,4.41,4.5Zm-10.76,8.14c1.44,0,2.16.75,2.16,2.25s-.72,2.21-2.16,2.21-2.21-.74-2.21-2.21.74-2.25,2.21-2.25Zm5.71,0c1.44,0,2.16.75,2.16,2.25s-.72,2.21-2.16,2.21-2.2-.74-2.2-2.21.73-2.25,2.2-2.25Z"/>
    <path class="cls-3" d="m886.7,293.07v-3.64h8.1c-1.38-1.53-2.07-3.66-2.07-6.39,0-3.27.86-5.82,2.57-7.65,1.5-1.62,3.49-2.43,5.98-2.43s4.53.8,5.94,2.38c1.2,1.41,1.8,3.26,1.8,5.54v4.28c-.03,2.49-.77,4.46-2.21,5.89-1.41,1.35-3.29,2.03-5.62,2.03h-14.49Zm11.74-24.66c-1.47,0-2.2-.75-2.2-2.25s.73-2.21,2.2-2.21,2.16.74,2.16,2.21-.72,2.25-2.16,2.25Zm6.71,12.65c0-3-1.29-4.5-3.87-4.5-1.47,0-2.62.56-3.46,1.69s-1.26,2.69-1.26,4.7.4,3.55,1.21,4.72,1.89,1.76,3.24,1.76c2.76,0,4.14-1.44,4.14-4.32v-4.05Zm-.99-12.65c-1.47,0-2.21-.75-2.21-2.25s.73-2.21,2.21-2.21,2.16.74,2.16,2.21-.72,2.25-2.16,2.25Z"/>
    <path class="cls-3" d="m927.74,291.63c-1.14.45-2.54.68-4.19.68-2.67,0-4.77-1-6.3-3.02-1.29-1.71-1.93-3.85-1.93-6.43,0-3.18.85-5.67,2.56-7.47,1.53-1.62,3.54-2.43,6.03-2.43s4.52.8,5.9,2.38c1.23,1.41,1.84,3.26,1.84,5.54v9.81c0,3.39-.88,6.08-2.65,8.05-1.68,1.86-3.92,2.79-6.71,2.79-1.86,0-3.62-.44-5.27-1.3v-3.42c1.59.84,3.17,1.26,4.72,1.26,1.77,0,3.18-.56,4.23-1.69s1.63-2.71,1.76-4.75Zm0-10.57c0-3-1.28-4.5-3.83-4.5-1.5,0-2.68.55-3.53,1.67-.86,1.11-1.28,2.62-1.28,4.54s.41,3.4,1.24,4.52c.82,1.12,1.94,1.69,3.35,1.69,1.98,0,3.33-.55,4.05-1.67v-6.25Z"/>
    <path class="cls-3" d="m955.64,287.81c1.65,0,2.5.85,2.56,2.56,0,.84-.26,1.54-.79,2.09-.53.56-1.21.83-2.05.83-1.86,0-2.79-1.14-2.79-3.42v-5.8l1.89-.54.04,4.28h1.12Z"/>
    <path class="cls-3" d="m974,264.05c-1.86,2.34-3.37,5.11-4.52,8.3-1.16,3.2-1.73,6.2-1.73,9.02,0,4.62,1.05,9.11,3.15,13.46.54,1.11,1.13,2.14,1.78,3.11.65.96,1.07,1.44,1.28,1.44h-4.95c-.24,0-.79-.61-1.64-1.82-.86-1.21-1.55-2.36-2.09-3.44-1.92-3.87-2.88-8.12-2.88-12.74,0-3.09.61-6.24,1.84-9.45,1.23-3.21,2.82-5.83,4.77-7.88h4.99Z"/>
    <path class="cls-3" d="m989.66,277.59c-1.47-.96-3.15-1.44-5.04-1.44-1.44,0-2.16.62-2.16,1.84,0,1.14.97,1.95,2.92,2.43,2.43.6,4.08,1.28,4.95,2.02,1.26,1.08,1.89,2.7,1.89,4.86,0,1.92-.68,3.45-2.05,4.59-1.37,1.14-3.2,1.71-5.51,1.71-3.27,0-6.03-.93-8.28-2.79l2.07-3.15c1.56,1.23,3.44,1.85,5.62,1.85.87,0,1.58-.21,2.12-.63s.81-.97.81-1.67c0-1.26-1.07-2.08-3.2-2.48-4.56-.87-6.84-3.09-6.84-6.66,0-1.71.7-3.13,2.09-4.27,1.39-1.14,3.14-1.71,5.24-1.71,2.85,0,5.33.83,7.43,2.47l-2.07,3.01Z"/>
    <path class="cls-3" d="m1013.69,290.46c-2.13,2.1-4.65,3.15-7.56,3.15-3.48,0-6.24-1.11-8.28-3.33-1.77-1.95-2.65-4.39-2.65-7.33,0-3.3,1.14-6,3.42-8.1,1.98-1.83,4.39-2.75,7.24-2.75,3.15,0,5.69.99,7.61,2.97l-1.71,3.06c-1.53-1.35-3.19-2.02-4.99-2.02-1.68,0-3.06.65-4.14,1.96-1.08,1.31-1.62,2.98-1.62,5.02,0,1.89.53,3.44,1.6,4.66,1.06,1.21,2.42,1.82,4.07,1.82,1.98,0,3.67-.74,5.08-2.21l1.94,3.1Z"/>
    <path class="cls-3" d="m1034.48,293.07h-4.54l-.45-1.93c-1.98,1.65-3.99,2.47-6.03,2.47-4.53,0-6.79-2.21-6.79-6.62,0-2.19.95-3.9,2.83-5.13,1.92-1.26,4.76-1.89,8.51-1.89h.95v-.09c0-1.29-.27-2.17-.81-2.66-.54-.48-1.52-.72-2.93-.72-1.98,0-3.79.63-5.44,1.89-.54-.99-1.05-1.96-1.53-2.92,1.71-1.32,3.2-2.21,4.48-2.68,1.27-.46,2.8-.7,4.57-.7,4.8,0,7.2,3,7.2,9v11.97Zm-5.71-9.63h-.68c-1.71,0-3.09.3-4.14.9-1.05.6-1.57,1.4-1.57,2.39,0,1.86.81,2.79,2.43,2.79.99,0,1.86-.29,2.61-.86.75-.57,1.2-1.29,1.35-2.16v-3.06Z"/>
    <path class="cls-3" d="m1046.27,264.05v29.03h-5.67v-26.05l5.67-2.97Z"/>
    <path class="cls-3" d="m1071.29,284.7h-14.04c.12,1.38.68,2.53,1.69,3.44,1,.92,2.2,1.37,3.58,1.37,1.95,0,3.99-.6,6.12-1.8l1.44,3.02c-2.16,1.92-4.86,2.88-8.1,2.88-3.48,0-6.2-.99-8.14-2.97-1.86-1.86-2.79-4.42-2.79-7.7s1.05-5.87,3.15-7.96c1.89-1.92,4.29-2.88,7.2-2.88,3.24,0,5.76,1.09,7.56,3.29,1.56,1.86,2.34,4.27,2.34,7.24v2.07Zm-14.35-4.18h8.68c-.15-2.94-1.57-4.41-4.28-4.41s-4.08,1.47-4.41,4.41Z"/>
    <path class="cls-3" d="m1089.31,277.23v-4.59h3.2v-2.7c0-3.93,1.83-5.9,5.49-5.9,2.4,0,4.63.81,6.71,2.43l-2.07,2.97c-1.2-.78-2.22-1.17-3.06-1.17-.93,0-1.39.75-1.39,2.25v2.12h5.58v4.59h-5.58v15.84h-5.67v-15.84h-3.2Z"/>
    <path class="cls-3" d="m1124.69,293.07h-4.54l-.45-1.93c-1.98,1.65-3.99,2.47-6.03,2.47-4.53,0-6.79-2.21-6.79-6.62,0-2.19.95-3.9,2.83-5.13,1.92-1.26,4.76-1.89,8.51-1.89h.95v-.09c0-1.29-.27-2.17-.81-2.66-.54-.48-1.52-.72-2.93-.72-1.98,0-3.79.63-5.44,1.89-.54-.99-1.05-1.96-1.53-2.92,1.71-1.32,3.2-2.21,4.48-2.68,1.27-.46,2.8-.7,4.57-.7,4.8,0,7.2,3,7.2,9v11.97Zm-5.71-9.63h-.68c-1.71,0-3.09.3-4.14.9-1.05.6-1.57,1.4-1.57,2.39,0,1.86.81,2.79,2.43,2.79.99,0,1.86-.29,2.61-.86.75-.57,1.2-1.29,1.35-2.16v-3.06Z"/>
    <path class="cls-3" d="m1147.95,290.46c-2.13,2.1-4.65,3.15-7.56,3.15-3.48,0-6.24-1.11-8.28-3.33-1.77-1.95-2.65-4.39-2.65-7.33,0-3.3,1.14-6,3.42-8.1,1.98-1.83,4.39-2.75,7.24-2.75,3.15,0,5.69.99,7.61,2.97l-1.71,3.06c-1.53-1.35-3.19-2.02-4.99-2.02-1.68,0-3.06.65-4.14,1.96-1.08,1.31-1.62,2.98-1.62,5.02,0,1.89.53,3.44,1.6,4.66,1.06,1.21,2.42,1.82,4.07,1.82,1.98,0,3.67-.74,5.08-2.21l1.94,3.1Z"/>
    <path class="cls-3" d="m1165.05,277.19h-5.85v10.12c0,1.5.5,2.25,1.48,2.25.9,0,2.03-.39,3.38-1.17l1.89,2.88c-2.13,1.68-4.48,2.52-7.06,2.52-3.6,0-5.4-1.98-5.4-5.94v-10.67h-2.83v-4.54h2.88v-3.65c1.5-.81,3.4-1.81,5.71-3.01v6.66h5.8v4.54Z"/>
    <path class="cls-3" d="m1178.5,272.1c3.36,0,5.97,1.19,7.83,3.55,1.56,1.98,2.34,4.4,2.34,7.25,0,3.33-1.15,6.03-3.46,8.1-1.92,1.74-4.15,2.61-6.71,2.61-2.97,0-5.46-1.11-7.47-3.33-1.8-2.01-2.7-4.47-2.7-7.38,0-3.3,1.01-5.97,3.02-8.01,1.83-1.86,4.21-2.79,7.15-2.79Zm0,17.28c2.91,0,4.37-2.16,4.37-6.48s-1.46-6.75-4.37-6.75-4.37,2.25-4.37,6.75,1.46,6.48,4.37,6.48Z"/>
    <path class="cls-3" d="m1198.26,272.64l.54,1.8c.3-.63.88-1.18,1.73-1.64.86-.46,1.73-.7,2.63-.7,2.7,0,4.71,1.28,6.03,3.83l-4.77,2.61c-.99-1.14-2.04-1.71-3.15-1.71-1.02,0-1.77.53-2.25,1.58v14.67h-5.58v-20.43h4.82Z"/>
    <path class="cls-3" d="m1210.77,299.37c.27,0,.79-.63,1.58-1.89.78-1.26,1.47-2.58,2.07-3.96,1.71-3.99,2.57-8.04,2.57-12.15,0-2.82-.58-5.83-1.73-9.02-1.16-3.2-2.66-5.96-4.52-8.3h5c1.95,2.04,3.54,4.67,4.77,7.88,1.23,3.21,1.84,6.36,1.84,9.45,0,5.13-1.17,9.78-3.51,13.95-.51.87-1.11,1.76-1.8,2.68-.69.91-1.12,1.37-1.3,1.37h-4.95Z"/>
    <path class="cls-3" d="m1253.32,287.63h4.05v5.45h-4.59c-1.02,0-1.96-.13-2.84-.41-.39,2.88-1.54,5.16-3.46,6.84-1.74,1.5-3.82,2.25-6.25,2.25-1.89,0-3.74-.48-5.54-1.44v-4.95c1.56.87,3.09,1.3,4.59,1.3,1.65,0,2.93-.53,3.85-1.6.91-1.07,1.37-2.54,1.37-4.43v-14.58l3.69-1.94,1.94-1.04v.05l.04-.05v11.3c0,1.17.24,2,.72,2.5s1.29.74,2.43.74Z"/>
    <path class="cls-3" d="m1254.67,293.07v-5.45h7.92v5.45h-7.92Z"/>
    <path class="cls-3" d="m1259.89,293.07v-5.45h7.92v5.45h-7.92Z"/>
    <path class="cls-3" d="m1265.11,293.07v-5.45h7.92v5.45h-7.92Z"/>
    <path class="cls-3" d="m1286.35,287.63h4.05v5.45h-4.59c-2.19,0-4-.58-5.45-1.75-1.44,1.17-3.25,1.75-5.44,1.75h-4.59v-5.45h4.05c1.14,0,1.95-.25,2.43-.74s.72-1.33.72-2.5v-8.33l5.67-2.97v11.3c0,1.17.24,2,.72,2.5.48.5,1.29.74,2.43.74Zm-11.66,9.54c.9,0,1.61.26,2.14.79.52.52.79,1.24.79,2.14,0,2.01-.97,3.02-2.93,3.02-.9,0-1.62-.27-2.16-.81-.54-.54-.81-1.28-.81-2.21,0-1.95.99-2.92,2.97-2.92Zm6.93,0c.9,0,1.61.26,2.14.79.53.52.79,1.24.79,2.14,0,2.01-.97,3.02-2.92,3.02-.9,0-1.62-.27-2.16-.81-.54-.54-.81-1.28-.81-2.21,0-1.95.99-2.92,2.97-2.92Z"/>
    <path class="cls-3" d="m1303.72,287.63h4.05v5.45h-4.59c-2.19,0-4.01-.58-5.45-1.75-1.44,1.17-3.26,1.75-5.45,1.75h-4.59v-5.45h4.05c1.14,0,1.95-.25,2.43-.74.48-.5.72-1.33.72-2.5v-8.33l5.67-2.97v11.3c0,1.17.24,2,.72,2.5s1.29.74,2.43.74Zm-5.71,9.54c.9,0,1.61.26,2.14.79.52.52.79,1.24.79,2.14,0,2.01-.98,3.02-2.93,3.02-.9,0-1.62-.27-2.16-.81-.54-.54-.81-1.28-.81-2.21,0-.87.27-1.57.81-2.11.54-.54,1.26-.81,2.16-.81Z"/>
    <path class="cls-3" d="m1329.37,287.63h3.55v5.45h-4.14c-2.19,0-3.99-.58-5.4-1.75-1.44,1.17-3.26,1.75-5.45,1.75h-12.87v-5.45h12.28c2.1,0,3.15-1.04,3.15-3.1v-.27c0-1.65-.62-2.98-1.84-3.98-1.23-1-2.85-1.51-4.86-1.51-1.53,0-3.13.3-4.81.9v-5.45l9.13-10.17h5.71l-8.19,9.18c2.37.24,4.38.94,6.03,2.11,3,2.04,4.5,5,4.5,8.87v.18c0,1.17.25,2,.74,2.5.5.5,1.31.74,2.45.74Z"/>
    <path class="cls-3" d="m1346.25,287.63h4.05v5.45h-4.59c-2.19,0-4-.58-5.45-1.75-1.44,1.17-3.25,1.75-5.44,1.75h-4.59v-5.45h4.05c1.14,0,1.95-.25,2.43-.74s.72-1.33.72-2.5v-8.33l5.67-2.97v11.3c0,1.17.24,2,.72,2.5.48.5,1.29.74,2.43.74Zm-11.75-18.5c-.9,0-1.62-.27-2.16-.81-.54-.54-.81-1.27-.81-2.21,0-.87.27-1.58.81-2.12.54-.54,1.26-.81,2.16-.81s1.61.26,2.14.79c.52.53.79,1.24.79,2.14,0,2.01-.97,3.01-2.93,3.01Zm6.88,0c-.9,0-1.62-.28-2.16-.83-.54-.55-.81-1.28-.81-2.18s.28-1.58.83-2.12,1.27-.81,2.14-.81,1.61.26,2.14.79c.52.53.79,1.24.79,2.14,0,2.01-.97,3.01-2.93,3.01Z"/>
    <path class="cls-3" d="m1347.6,293.07v-5.45h2.84c1.38,0,2.36-.3,2.95-.9.58-.6.88-1.62.88-3.06v-16.6l5.62-3.02v19.67c0,2.91-.88,5.24-2.65,6.98-1.62,1.59-3.78,2.38-6.48,2.38h-3.15Z"/>
    <path class="cls-3" d="m1367.98,293.07v-26.01l5.67-3.02v29.03h-5.67Z"/>
    <path class="cls-3" d="m1424.22,287.63h4.68v5.45h-5.22c-.9,0-1.89-.22-2.97-.67-.66,2.97-2.21,5.31-4.63,7.02-2.19,1.5-4.79,2.25-7.79,2.25-4.26,0-7.56-1.41-9.9-4.23-1.8-2.16-2.7-4.73-2.7-7.7,0-2.34.54-4.41,1.62-6.21l5.58-1.26c-1.23,1.95-1.85,4.18-1.85,6.71,0,2.22.65,3.98,1.96,5.29,1.3,1.3,3.07,1.96,5.29,1.96s3.93-.62,5.22-1.85c1.29-1.23,1.94-2.91,1.94-5.04v-22.27l5.62-3.02v20.34c0,1.17.24,2,.72,2.5.48.5,1.29.74,2.43.74Z"/>
    <path class="cls-3" d="m1426.2,293.07v-5.45h7.92v5.45h-7.92Z"/>
    <path class="cls-3" d="m1431.42,293.07v-5.45h7.92v5.45h-7.92Z"/>
    <path class="cls-3" d="m1436.64,293.07v-5.45h7.92v5.45h-7.92Z"/>
    <path class="cls-3" d="m1449.06,280.65c0-2.7.84-4.82,2.52-6.34,1.47-1.32,3.36-1.98,5.67-1.98,2.97,0,5.28,1.1,6.93,3.29,1.41,1.83,2.12,4.18,2.12,7.07,0,3.33-.88,5.96-2.65,7.88-1.59,1.68-3.62,2.52-6.07,2.52s-4.37-.52-5.9-1.58c-1.44,1.05-3.18,1.58-5.22,1.58h-4.59v-5.45h4.05c1.14,0,1.95-.25,2.43-.74s.72-1.33.72-2.5v-3.74Zm5.67,4.46c0,1.68.88,2.52,2.65,2.52,2.22,0,3.33-1.71,3.33-5.13s-1.15-4.91-3.46-4.91c-1.68,0-2.52.99-2.52,2.97v4.54Z"/>
    <path class="cls-3" d="m1482,293.07c-2.73,0-4.85-.87-6.34-2.61-1.29-1.5-1.94-3.43-1.94-5.8v-17.64l5.67-2.97v20.34c0,1.17.24,2,.72,2.5.48.5,1.29.74,2.43.74h4.05v5.45h-4.59Z"/>
    <path class="cls-3" d="m1505.98,287.63h12.38l.09,5.45h-13c-1.53,0-2.97-.38-4.32-1.12-1.41.75-2.85,1.12-4.32,1.12h-12.91v-5.45h12.24c-1.35-.93-2.47-1.81-3.38-2.65-.51-.45-1.29-1.29-2.34-2.52-.33-.39-.6-.7-.81-.95v-2.56c1.32-2.01,3.02-3.62,5.11-4.82,2.08-1.2,4.22-1.8,6.41-1.8s4.29.61,6.39,1.82c2.1,1.22,3.84,2.84,5.22,4.88v2.47c-2.01,2.43-4.26,4.47-6.75,6.12Zm-4.9-2.16c2.25-1.77,3.91-3.55,4.99-5.35-1.8-1.68-3.49-2.52-5.08-2.52s-3.12.84-4.77,2.52c1.17,2.07,2.79,3.86,4.86,5.35Z"/>
    <path class="cls-3" d="m1522.95,280.65c0-2.7.84-4.82,2.52-6.34,1.47-1.32,3.36-1.98,5.67-1.98,2.97,0,5.28,1.1,6.93,3.29,1.41,1.83,2.12,4.18,2.12,7.07,0,3.33-.88,5.96-2.66,7.88-1.59,1.68-3.62,2.52-6.07,2.52s-4.37-.52-5.89-1.58c-1.44,1.05-3.18,1.58-5.22,1.58h-4.59v-5.45h4.05c1.14,0,1.95-.25,2.43-.74.48-.5.72-1.33.72-2.5v-3.74Zm5.67,4.46c0,1.68.88,2.52,2.66,2.52,2.22,0,3.33-1.71,3.33-5.13s-1.16-4.91-3.46-4.91c-1.68,0-2.52.99-2.52,2.97v4.54Z"/>
    <path class="cls-3" d="m771.63,366.07c-.3,2.64-1.74,4.75-4.32,6.34-2.4,1.47-5.46,2.21-9.18,2.21-4.74,0-8.31-1.38-10.71-4.14-1.77-2.04-2.65-4.56-2.65-7.56,0-2.52.63-4.68,1.89-6.48l3.74-.81c-1.35,2.13-2.03,4.43-2.03,6.89,0,2.67.87,4.77,2.61,6.3,1.71,1.53,4.1,2.29,7.15,2.29,2.58,0,4.71-.45,6.39-1.35,1.68-.9,2.7-2.13,3.06-3.69h-4.5l1.89-3.64h6.79v3.64h-.14Zm-16.51,16.51c-1.47,0-2.21-.75-2.21-2.25s.73-2.21,2.21-2.21,2.16.74,2.16,2.21-.72,2.25-2.16,2.25Zm5.71,0c-1.47,0-2.21-.75-2.21-2.25s.73-2.21,2.21-2.21,2.16.74,2.16,2.21-.72,2.25-2.16,2.25Z"/>
    <path class="cls-3" d="m769.38,366.07v-3.64h8.1c-1.38-1.53-2.07-3.66-2.07-6.39,0-3.27.86-5.82,2.56-7.65,1.5-1.62,3.49-2.43,5.99-2.43s4.53.8,5.94,2.38c1.2,1.41,1.8,3.26,1.8,5.54v4.28c-.03,2.49-.76,4.46-2.21,5.89-1.41,1.35-3.28,2.03-5.62,2.03h-14.49Zm18.45-12.01c0-3-1.29-4.5-3.87-4.5-1.47,0-2.63.56-3.47,1.69s-1.26,2.69-1.26,4.7.41,3.55,1.21,4.72c.81,1.17,1.89,1.76,3.24,1.76,2.76,0,4.14-1.44,4.14-4.32v-4.05Zm-3.78-12.69c-1.47,0-2.21-.75-2.21-2.25s.73-2.21,2.21-2.21,2.16.74,2.16,2.21-.72,2.25-2.16,2.25Z"/>
    <path class="cls-3" d="m810.42,364.63c-1.14.45-2.54.68-4.19.68-2.67,0-4.77-1-6.3-3.02-1.29-1.71-1.93-3.85-1.93-6.43,0-3.18.85-5.67,2.56-7.47,1.53-1.62,3.54-2.43,6.03-2.43s4.52.8,5.9,2.38c1.23,1.41,1.84,3.26,1.84,5.54v9.81c0,3.39-.88,6.08-2.65,8.05-1.68,1.86-3.92,2.79-6.71,2.79-1.86,0-3.62-.44-5.27-1.3v-3.42c1.59.84,3.17,1.26,4.72,1.26,1.77,0,3.18-.56,4.23-1.69s1.63-2.71,1.76-4.75Zm0-10.57c0-3-1.28-4.5-3.83-4.5-1.5,0-2.68.55-3.53,1.67-.86,1.11-1.28,2.62-1.28,4.54s.41,3.4,1.24,4.52c.82,1.12,1.94,1.69,3.35,1.69,1.98,0,3.33-.55,4.05-1.67v-6.25Z"/>
    <path class="cls-3" d="m833.72,360.81c1.65,0,2.5.85,2.56,2.56,0,.84-.26,1.54-.79,2.09-.53.56-1.21.83-2.05.83-1.86,0-2.79-1.14-2.79-3.42v-5.8l1.89-.54.04,4.28h1.12Z"/>
    <path class="cls-3" d="m850.42,366.07c-2.73,0-4.86-.92-6.39-2.75-1.32-1.59-1.98-3.61-1.98-6.08,0-2.67.74-4.99,2.23-6.95s3.61-3.41,6.37-4.34c2.91.99,5.1,2.55,6.57,4.68,1.32,1.89,1.98,4.09,1.98,6.61,0,2.85-.84,5.08-2.52,6.71-1.5,1.41-3.44,2.12-5.8,2.12h-.45Zm-2.92-25.42c-1.47,0-2.21-.75-2.21-2.25s.73-2.21,2.21-2.21,2.16.74,2.16,2.21-.72,2.25-2.16,2.25Zm2.79,21.78h.68c1.35,0,2.42-.46,3.22-1.4.79-.93,1.19-2.17,1.19-3.74,0-3.6-1.58-6.18-4.73-7.74-3.15,1.56-4.72,4.12-4.72,7.69,0,1.59.39,2.85,1.17,3.78.78.93,1.85,1.4,3.2,1.4Zm2.97-21.78c-1.47,0-2.21-.75-2.21-2.25s.73-2.21,2.21-2.21,2.16.74,2.16,2.21-.72,2.25-2.16,2.25Z"/>
    <path class="cls-3" d="m872.92,363.69c0,3.36-.88,6.06-2.66,8.1-1.68,1.95-3.91,2.92-6.71,2.92-1.8,0-3.55-.45-5.26-1.35v-3.38c1.53.84,3.06,1.26,4.59,1.26,1.92,0,3.42-.65,4.5-1.93,1.08-1.29,1.62-3.08,1.62-5.36v-15.34l3.92-2.07v17.15Z"/>
    <path class="cls-3" d="m902.03,362.43v3.64h-5.58c-.12,2.58-1.23,4.71-3.33,6.39-1.77,1.38-3.78,2.07-6.03,2.07-1.86,0-3.62-.44-5.27-1.3v-3.42c1.59.84,3.16,1.26,4.72,1.26s2.98-.5,4.16-1.49c1.19-.99,1.79-2.17,1.82-3.55-1.56-.06-2.72-.12-3.46-.18-3.24-.18-5.69-1.28-7.34-3.29-1.38-1.68-2.07-3.85-2.07-6.53,0-3.27.87-5.82,2.61-7.65,1.56-1.62,3.62-2.43,6.17-2.43s4.72.8,6.16,2.38c1.23,1.41,1.85,3.26,1.85,5.54v8.55h5.58Zm-9.49-8.28c0-3.06-1.37-4.59-4.1-4.59-1.56,0-2.78.56-3.64,1.69-.87,1.12-1.3,2.69-1.3,4.7,0,3.93,1.92,6.02,5.76,6.25.72.09,1.81.17,3.29.23v-8.28Z"/>
    <path class="cls-3" d="m899.33,366.07v-3.64h7.92v3.64h-7.92Z"/>
    <path class="cls-3" d="m904.55,366.07v-3.64h7.92v3.64h-7.92Z"/>
    <path class="cls-3" d="m909.77,366.07v-3.64h7.92v3.64h-7.92Z"/>
    <path class="cls-3" d="m961.07,362.43h2.97v3.64h-3.42c-2.52,0-4.49-.78-5.9-2.34-1.41,1.56-3.38,2.34-5.89,2.34h-18.63c-2.49,0-4.46-.79-5.9-2.38-1.44,1.59-3.4,2.38-5.89,2.38h-3.42v-3.64h2.97c2.94,0,4.41-1.5,4.41-4.5v-6.3l3.87-2.07v8.37c0,2.52.97,3.97,2.93,4.36,1.2-4.53,3.18-8.31,5.94-11.34,3.09-3.33,6.69-5,10.8-5,3.42,0,6.15,1.19,8.19,3.56,1.71,2.01,2.56,4.48,2.56,7.42v1.08c0,2.94,1.47,4.41,4.41,4.41Zm-12.46,0c2.79,0,4.19-1.56,4.19-4.68v-.81c0-2.34-.72-4.2-2.16-5.58-1.26-1.2-2.82-1.8-4.68-1.8-3.18,0-6.05,1.47-8.6,4.41-1.95,2.25-3.45,5.07-4.5,8.46h15.75Z"/>
    <path class="cls-3" d="m961.34,366.07v-3.64h2.38c3.12,0,4.68-1.63,4.68-4.91v-18.41l3.91-2.07v20.52c0,2.67-.79,4.79-2.38,6.34-1.5,1.44-3.46,2.16-5.89,2.16h-2.7Z"/>
    <path class="cls-3" d="m980.42,366.07v-26.96l3.87-2.07v29.03h-3.87Z"/>
    <path class="cls-3" d="m1013.22,362.43h2.97v3.64h-3.42c-1.53,0-2.85-.3-3.96-.9-.27,2.97-1.3,5.34-3.11,7.11-1.65,1.62-3.72,2.43-6.21,2.43-1.8,0-3.55-.45-5.27-1.35v-3.38c1.53.84,3.06,1.26,4.59,1.26,1.92,0,3.42-.65,4.5-1.93,1.08-1.29,1.62-3.08,1.62-5.36v-15.34l3.87-2.07v.04l.04-.04v12.29c.27,2.4,1.72,3.6,4.37,3.6Z"/>
    <path class="cls-3" d="m1029.15,362.43h2.97v3.64h-3.42c-2.49,0-4.46-.79-5.89-2.38-1.44,1.59-3.41,2.38-5.89,2.38h-3.42v-3.64h2.97c2.94,0,4.41-1.5,4.41-4.5v-9.32l3.87-2.07v11.39c0,3,1.47,4.5,4.41,4.5Zm-10.75,8.14c1.44,0,2.16.75,2.16,2.25s-.72,2.21-2.16,2.21-2.21-.74-2.21-2.21.73-2.25,2.21-2.25Zm5.71,0c1.44,0,2.16.75,2.16,2.25s-.72,2.21-2.16,2.21-2.21-.74-2.21-2.21.73-2.25,2.21-2.25Z"/>
    <path class="cls-3" d="m1045.08,362.43h2.97v3.64h-3.42c-2.49,0-4.46-.79-5.89-2.38-1.44,1.59-3.41,2.38-5.89,2.38h-3.42v-3.64h2.97c2.94,0,4.41-1.5,4.41-4.5v-9.32l3.87-2.07v11.39c0,3,1.47,4.5,4.41,4.5Zm-6.61,8.14c1.44,0,2.16.73,2.16,2.21s-.72,2.25-2.16,2.25-2.21-.75-2.21-2.25.73-2.21,2.21-2.21Z"/>
    <path class="cls-3" d="m1069.96,362.43h2.57v3.64h-2.97c-2.52,0-4.48-.78-5.89-2.34-1.41,1.56-3.38,2.34-5.89,2.34h-12.42v-3.64h12.06c2.88,0,4.32-1.51,4.32-4.55v-.4c0-2.25-.87-3.96-2.61-5.13-1.38-.96-3.08-1.44-5.09-1.44-1.59,0-3.18.3-4.77.9v-3.83l9.86-10.94h3.96l-8.87,9.99h.27c3.42,0,6.18,1.04,8.28,3.11,1.89,1.92,2.84,4.35,2.84,7.29v.5c0,3,1.45,4.5,4.36,4.5Z"/>
    <path class="cls-3" d="m1069.83,366.07v-3.64h2.97c2.94,0,4.41-1.5,4.41-4.5v-9.32l3.87-2.07v11.52c0,2.55-.77,4.56-2.29,6.03-1.41,1.32-3.26,1.98-5.54,1.98h-3.42Zm3.46-24.97c-1.47,0-2.21-.75-2.21-2.25s.73-2.21,2.21-2.21,2.16.74,2.16,2.21-.72,2.25-2.16,2.25Zm5.71,0c-1.47,0-2.21-.75-2.21-2.25s.73-2.21,2.21-2.21,2.16.74,2.16,2.21-.72,2.25-2.16,2.25Z"/>
    <path class="cls-3" d="m1106.5,366.07c-2.43,0-4.34-.81-5.72-2.43-1.2-1.41-1.8-3.25-1.8-5.54v-5.45l3.87-2.07v7.16c0,3.12,1.46,4.68,4.37,4.68h14.94c2.91,0,4.37-1.56,4.37-4.68v-9.13l3.87-2.07v11.57c0,2.61-.79,4.63-2.38,6.08-1.41,1.26-3.23,1.89-5.45,1.89h-16.06Zm4.54-20.92c-1.47,0-2.21-.75-2.21-2.25s.73-2.21,2.21-2.21,2.16.74,2.16,2.21-.72,2.25-2.16,2.25Zm5.71,0c-1.47,0-2.21-.75-2.21-2.25s.73-2.21,2.21-2.21,2.16.74,2.16,2.21-.72,2.25-2.16,2.25Z"/>
    <path class="cls-3" d="m1137.59,366.07v-26.96l3.87-2.07v29.03h-3.87Z"/>
    <path class="cls-3" d="m1163.51,362.43h2.97v3.64h-3.42c-1.53,0-2.85-.3-3.96-.9-.27,2.97-1.3,5.34-3.11,7.11-1.65,1.62-3.72,2.43-6.21,2.43-1.8,0-3.55-.45-5.27-1.35v-3.38c1.53.84,3.06,1.26,4.59,1.26,1.92,0,3.42-.65,4.5-1.93,1.08-1.29,1.62-3.08,1.62-5.36v-15.34l3.87-2.07v.04l.04-.04v12.29c.27,2.4,1.72,3.6,4.37,3.6Z"/>
    <path class="cls-3" d="m1171.16,353.88c0-2.61.78-4.63,2.34-6.07,1.38-1.23,3.18-1.85,5.4-1.85,2.85,0,5.04,1.05,6.57,3.15,1.32,1.77,1.98,4.08,1.98,6.93,0,3.24-.84,5.78-2.52,7.61-1.47,1.62-3.39,2.43-5.76,2.43-2.7,0-4.75-.75-6.16-2.25-1.44,1.5-3.38,2.25-5.8,2.25h-3.42v-3.64h2.97c2.94,0,4.41-1.5,4.41-4.5v-4.05Zm3.87,4.37c0,2.79,1.36,4.19,4.09,4.19,1.41,0,2.51-.57,3.31-1.71.79-1.14,1.19-2.73,1.19-4.77s-.42-3.58-1.26-4.7-2-1.69-3.46-1.69c-2.58,0-3.87,1.5-3.87,4.5v4.18Z"/>
    <path class="cls-3" d="m1201.08,366.07l1.89-3.64h8.01c1.2,0,2.05-.3,2.54-.9.49-.6.74-1.63.74-3.11,0-4.02-1.82-7.06-5.45-9.13l1.89-3.2c4.95,2.82,7.42,6.95,7.42,12.38,0,5.07-2.16,7.61-6.48,7.61h-10.58Z"/>
    <path class="cls-3" d="m1221.74,366.07l1.89-3.64h8.01c1.2,0,2.05-.3,2.54-.9.5-.6.74-1.63.74-3.11,0-3.99-1.84-6.99-5.54-9l1.98-3.33c4.71,2.76,7.17,6.57,7.38,11.43.06,1.74.46,2.99,1.19,3.76.74.77,1.91,1.15,3.53,1.15h2.65v3.64h-2.97c-2.49,0-4.44-.79-5.85-2.38-.99,1.59-2.65,2.38-4.99,2.38h-10.57Z"/>
    <path class="cls-3" d="m1243.43,366.07v-3.64h7.92v3.64h-7.92Z"/>
    <path class="cls-3" d="m1248.65,366.07v-3.64h7.92v3.64h-7.92Z"/>
    <path class="cls-3" d="m1253.87,366.07v-3.64h7.92v3.64h-7.92Z"/>
    <path class="cls-3" d="m1283.34,362.43v3.64h-24.25v-3.64h7.78c-1.47-1.89-2.2-4.21-2.2-6.98,0-3.06,1.05-5.49,3.15-7.29,1.71-1.44,3.69-2.17,5.94-2.21,3.18,0,5.65,1.28,7.42,3.83v3.65c-1.92-2.58-4.24-3.87-6.97-3.87-1.71,0-3.08.55-4.12,1.64s-1.55,2.56-1.55,4.39c0,2.07.62,3.73,1.87,4.97,1.24,1.25,2.9,1.87,4.97,1.87h7.96Z"/>
    <path class="cls-3" d="m1325.41,366.07c-.3,2.64-1.74,4.75-4.32,6.34-2.4,1.47-5.46,2.21-9.18,2.21-4.74,0-8.31-1.38-10.71-4.14-1.77-2.04-2.65-4.56-2.65-7.56,0-2.52.63-4.68,1.89-6.48l3.73-.81c-1.35,2.13-2.03,4.43-2.03,6.89,0,2.67.87,4.77,2.61,6.3,1.71,1.53,4.09,2.29,7.15,2.29,2.58,0,4.71-.45,6.39-1.35,1.68-.9,2.7-2.13,3.06-3.69h-4.5l1.89-3.64h6.79v3.64h-.13Z"/>
    <path class="cls-3" d="m1338.51,362.43h2.97v3.64h-3.42c-2.58,0-4.57-.83-5.98-2.47-1.5,1.65-3.57,2.47-6.21,2.47h-2.7v-3.64h2.38c3.12,0,4.68-1.63,4.68-4.91v-18.41l3.92-2.07v20.52c0,1.74.34,2.99,1.01,3.74.68.75,1.79,1.12,3.35,1.12Z"/>
    <path class="cls-3" d="m1363.03,362.43v3.64h-24.26v-3.64h7.79c-1.47-1.89-2.21-4.21-2.21-6.98,0-3.06,1.05-5.49,3.15-7.29,1.71-1.44,3.69-2.17,5.94-2.21,3.18,0,5.65,1.28,7.43,3.83v3.65c-1.92-2.58-4.25-3.87-6.98-3.87-1.71,0-3.08.55-4.12,1.64s-1.55,2.56-1.55,4.39c0,2.07.62,3.73,1.87,4.97,1.24,1.25,2.9,1.87,4.97,1.87h7.96Z"/>
    <path class="cls-3" d="m1402.17,363.24c0,3.57-1.25,6.42-3.73,8.55-2.19,1.89-4.98,2.83-8.37,2.83-4.02,0-7.12-1.35-9.31-4.05-1.68-2.1-2.52-4.6-2.52-7.51,0-2.55.61-4.73,1.84-6.53l3.87-.85c-1.38,2.13-2.07,4.45-2.07,6.97s.79,4.53,2.38,6.12c1.47,1.47,3.4,2.21,5.8,2.21,2.73,0,4.83-.81,6.3-2.43,1.26-1.38,1.89-3.15,1.89-5.31v-24.12l3.92-2.07v26.19Z"/>
    <path class="cls-3" d="m1406.67,366.07l1.89-3.64h8.01c1.2,0,2.05-.3,2.54-.9.5-.6.74-1.63.74-3.11,0-3.99-1.84-6.99-5.54-9l1.98-3.33c4.71,2.76,7.17,6.57,7.38,11.43.06,1.74.46,2.99,1.19,3.76.74.77,1.91,1.15,3.53,1.15h2.65v3.64h-2.97c-2.49,0-4.44-.79-5.85-2.38-.99,1.59-2.65,2.38-4.99,2.38h-10.57Z"/>
    <path class="cls-3" d="m1428.36,366.07v-3.64h2.97c2.94,0,4.41-1.5,4.41-4.5v-9.32l3.87-2.07v11.52c0,2.55-.77,4.56-2.29,6.03-1.41,1.32-3.26,1.98-5.54,1.98h-3.42Zm2.38,8.96c-1.47,0-2.21-.75-2.21-2.25s.74-2.21,2.21-2.21,2.16.73,2.16,2.21-.72,2.25-2.16,2.25Zm5.71,0c-1.47,0-2.21-.75-2.21-2.25s.73-2.21,2.21-2.21,2.16.73,2.16,2.21-.72,2.25-2.16,2.25Z"/>
    <path class="cls-3" d="m1478.53,362.43v3.64h-5.58c-.12,2.58-1.23,4.71-3.33,6.39-1.77,1.38-3.78,2.07-6.03,2.07-1.86,0-3.62-.44-5.27-1.3v-3.42c1.59.84,3.16,1.26,4.72,1.26s2.98-.5,4.16-1.49c1.19-.99,1.79-2.17,1.82-3.55-1.56-.06-2.72-.12-3.46-.18-3.24-.18-5.69-1.28-7.34-3.29-1.38-1.68-2.07-3.85-2.07-6.53,0-3.27.87-5.82,2.61-7.65,1.56-1.62,3.62-2.43,6.17-2.43s4.72.8,6.16,2.38c1.23,1.41,1.85,3.26,1.85,5.54v8.55h5.58Zm-9.49-8.28c0-3.06-1.37-4.59-4.1-4.59-1.56,0-2.78.56-3.64,1.69-.87,1.12-1.3,2.69-1.3,4.7,0,3.93,1.92,6.02,5.76,6.25.72.09,1.81.17,3.29.23v-8.28Z"/>
    <path class="cls-3" d="m1475.83,366.07v-3.64h7.92v3.64h-7.92Z"/>
    <path class="cls-3" d="m1481.05,366.07v-3.64h7.92v3.64h-7.92Z"/>
    <path class="cls-3" d="m1486.27,366.07v-3.64h7.92v3.64h-7.92Z"/>
    <path class="cls-3" d="m1496.89,352.71c.75-2.76,2.18-4.88,4.28-6.34,1.71-1.17,3.64-1.75,5.8-1.75,3.18,0,5.8,1.08,7.88,3.24,1.95,2.04,2.93,4.67,2.93,7.88v2.38c0,2.61-.81,4.63-2.43,6.08-1.41,1.26-3.24,1.89-5.49,1.89h-4.86c-1.02,0-1.98-.15-2.88-.45-.93.3-1.89.45-2.88.45h-7.74v-3.64h5.8c-1.14-1.53-1.71-3.27-1.71-5.22,0-1.77.44-3.27,1.3-4.5Zm5.22,9.32c2.46-.84,3.69-2.52,3.69-5.04,0-1.26-.34-2.27-1.01-3.04-.68-.76-1.57-1.15-2.68-1.15s-2,.38-2.68,1.15c-.67.77-1.01,1.78-1.01,3.04,0,2.52,1.23,4.2,3.69,5.04Zm11.74-4.28v-2.02c0-2.49-.79-4.42-2.38-5.81-1.29-1.14-2.83-1.71-4.63-1.71-2.07,0-3.69.67-4.86,2.03h.13c1.98,0,3.56.64,4.75,1.91,1.18,1.28,1.78,2.96,1.78,5.06s-.59,3.75-1.76,5.22h2.84c1.47,0,2.53-.37,3.17-1.1s.97-1.93.97-3.58Z"/>
    <path class="cls-3" d="m1536.04,364.63c-1.14.45-2.54.68-4.19.68-2.67,0-4.77-1-6.3-3.02-1.29-1.71-1.94-3.85-1.94-6.43,0-3.18.86-5.67,2.56-7.47,1.53-1.62,3.54-2.43,6.03-2.43s4.51.8,5.89,2.38c1.23,1.41,1.85,3.26,1.85,5.54v9.81c0,3.39-.89,6.08-2.66,8.05-1.68,1.86-3.91,2.79-6.71,2.79-1.86,0-3.62-.44-5.26-1.3v-3.42c1.59.84,3.16,1.26,4.72,1.26,1.77,0,3.18-.56,4.23-1.69,1.05-1.12,1.63-2.71,1.75-4.75Zm0-10.57c0-3-1.28-4.5-3.82-4.5-1.5,0-2.68.55-3.53,1.67-.86,1.11-1.28,2.62-1.28,4.54s.41,3.4,1.24,4.52c.82,1.12,1.94,1.69,3.35,1.69,1.98,0,3.33-.55,4.05-1.67v-6.25Z"/>
    <path class="cls-3" d="m851.91,436.91v-.09c.06-1.5.86-2.25,2.38-2.25s2.38.78,2.38,2.34-.79,2.38-2.38,2.38-2.38-.79-2.38-2.38Z"/>
    <path class="cls-3" d="m862.93,439.07v-3.64l7.15-7.97c2.16-2.4,3.62-4.27,4.39-5.6.76-1.33,1.15-2.68,1.15-4.03,0-1.26-.45-2.28-1.35-3.06s-2.1-1.17-3.6-1.17c-1.8,0-3.71.66-5.71,1.98l-1.76-2.52c2.67-2.04,5.4-3.06,8.19-3.06,2.61,0,4.72.77,6.35,2.29,1.53,1.41,2.29,3.26,2.29,5.54,0,1.47-.35,2.89-1.04,4.25s-1.89,3.02-3.6,4.97l-7.47,8.55h11.47v3.46h-16.47Z"/>
    <path class="cls-3" d="m920.8,425.98c-2.01-2.1-4.11-3.15-6.3-3.15-1.17,0-2.1.35-2.79,1.04-.69.69-1.04,1.62-1.04,2.79,0,1.29.39,2.29,1.17,3.01.78.72,2.29,1.47,4.54,2.25,2.25.81,3.78,1.58,4.59,2.29,1.2,1.02,1.8,2.42,1.8,4.19,0,2.82-1.34,5.1-4.01,6.84-2.43,1.59-5.6,2.38-9.49,2.38-4.74,0-8.31-1.38-10.71-4.14-1.77-2.04-2.65-4.56-2.65-7.56,0-2.52.63-4.68,1.89-6.48l3.73-.81c-1.35,2.13-2.03,4.43-2.03,6.89,0,2.58.87,4.65,2.61,6.21,1.71,1.5,4.09,2.25,7.15,2.25,3.27,0,5.79-.65,7.56-1.94,1.38-1.02,2.07-2.25,2.07-3.69,0-.81-.31-1.47-.92-1.98-.62-.51-1.84-1.08-3.67-1.71-2.52-.9-4.26-1.8-5.22-2.7-1.44-1.32-2.16-3.09-2.16-5.31,0-2.43.86-4.33,2.56-5.71,1.32-1.05,2.82-1.58,4.5-1.58,2.76,0,5.03,1.01,6.79,3.01v3.6Zm-14.54,29.61c-1.47,0-2.21-.75-2.21-2.25s.73-2.21,2.21-2.21,2.16.74,2.16,2.21-.72,2.25-2.16,2.25Zm5.71,0c-1.47,0-2.21-.75-2.21-2.25s.74-2.21,2.21-2.21,2.16.74,2.16,2.21-.72,2.25-2.16,2.25Z"/>
    <path class="cls-3" d="m940.6,437.63c-1.14.45-2.54.68-4.19.68-2.67,0-4.77-1-6.3-3.02-1.29-1.71-1.93-3.85-1.93-6.43,0-3.18.85-5.67,2.56-7.47,1.53-1.62,3.54-2.43,6.03-2.43s4.52.8,5.9,2.38c1.23,1.41,1.84,3.26,1.84,5.54v9.81c0,3.39-.88,6.08-2.65,8.05-1.68,1.86-3.92,2.79-6.71,2.79-1.86,0-3.62-.44-5.27-1.3v-3.42c1.59.84,3.17,1.26,4.72,1.26,1.77,0,3.18-.56,4.23-1.69s1.63-2.71,1.76-4.75Zm0-10.57c0-3-1.28-4.5-3.83-4.5-1.5,0-2.68.55-3.53,1.67-.86,1.11-1.28,2.62-1.28,4.54s.41,3.4,1.24,4.52c.82,1.12,1.94,1.69,3.35,1.69,1.98,0,3.33-.55,4.05-1.67v-6.25Z"/>
    <path class="cls-3" d="m960,439.07c-2.61,0-4.62-.84-6.03-2.52-1.2-1.44-1.8-3.27-1.8-5.49v-18.95l3.87-2.07v20.88c0,3,1.47,4.5,4.41,4.5h2.97v3.64h-3.42Z"/>
    <path class="cls-3" d="m960.72,439.07v-3.64h4.05c2.91,0,4.37-1.5,4.37-4.5v-6.3l3.87-2.07v8.37c0,3,1.47,4.5,4.41,4.5h2.07c2.94,0,4.41-1.5,4.41-4.5v-7.83l3.87-2.03v9.86c0,3,1.45,4.5,4.36,4.5h2.12c2.94,0,4.41-1.5,4.41-4.5v-9.32l3.87-2.07v10.98c0,3.27,1.56,4.91,4.68,4.91h3.73v3.64h-4.05c-2.7,0-4.76-.92-6.17-2.75-1.26,1.8-3.22,2.72-5.89,2.75h-3.11c-2.64,0-4.61-.88-5.89-2.66-1.29,1.74-3.21,2.63-5.76,2.66h-3.11c-2.58,0-4.54-.88-5.89-2.66-1.29,1.77-3.26,2.66-5.89,2.66h-4.46Z"/>
    <path class="cls-3" d="m1008.24,439.07v-3.64h2.97c2.94,0,4.41-1.5,4.41-4.5v-9.32l3.87-2.07v11.52c0,2.55-.77,4.56-2.29,6.03-1.41,1.32-3.26,1.98-5.54,1.98h-3.42Zm3.46-24.97c-1.47,0-2.21-.75-2.21-2.25s.73-2.21,2.21-2.21,2.16.74,2.16,2.21-.72,2.25-2.16,2.25Zm5.71,0c-1.47,0-2.21-.75-2.21-2.25s.73-2.21,2.21-2.21,2.16.74,2.16,2.21-.72,2.25-2.16,2.25Z"/>
    <path class="cls-3" d="m1045.9,439.07c-2.61,0-4.62-.84-6.03-2.52-1.2-1.44-1.8-3.27-1.8-5.49v-18.95l3.87-2.07v20.88c0,3,1.47,4.5,4.41,4.5h2.97v3.64h-3.42Z"/>
    <path class="cls-3" d="m1077.27,435.43h2.97v3.64h-3.42c-2.52,0-4.47-.78-5.85-2.34-1.47,1.56-3.46,2.34-5.99,2.34h-4.86c-1.02,0-1.98-.15-2.88-.45-.93.3-1.89.45-2.88.45h-7.74v-3.64h5.8c-1.14-1.53-1.71-3.27-1.71-5.22,0-1.77.43-3.27,1.3-4.5.75-2.76,2.17-4.88,4.28-6.34,1.71-1.17,3.64-1.75,5.8-1.75,3.18,0,5.8,1.08,7.88,3.24,1.95,2.04,2.92,4.67,2.92,7.88v2.21c0,3,1.46,4.5,4.37,4.5Zm-20.03-.41c2.46-.84,3.69-2.52,3.69-5.04,0-1.26-.34-2.27-1.01-3.04-.67-.76-1.57-1.15-2.68-1.15s-2,.38-2.68,1.15c-.68.77-1.01,1.78-1.01,3.04,0,2.52,1.23,4.2,3.69,5.04Zm7.61.41c1.47,0,2.53-.37,3.17-1.1.64-.74.97-1.93.97-3.58v-2.02c0-2.49-.79-4.42-2.38-5.81-1.29-1.14-2.84-1.71-4.63-1.71-2.07,0-3.69.67-4.86,2.03h.13c1.98,0,3.56.64,4.75,1.91,1.19,1.28,1.78,2.96,1.78,5.06s-.58,3.75-1.75,5.22h2.83Z"/>
    <path class="cls-3" d="m1077.54,439.07v-3.64h2.97c2.94,0,4.41-1.5,4.41-4.5v-9.32l3.87-2.07v11.52c0,2.55-.77,4.56-2.29,6.03-1.41,1.32-3.26,1.98-5.54,1.98h-3.42Zm9.18-24.97c-1.47,0-2.21-.75-2.21-2.25s.73-2.21,2.21-2.21,2.16.74,2.16,2.21-.72,2.25-2.16,2.25Z"/>
    <path class="cls-3" d="m1094.5,409.42l1.04-1.93h1.21c-.3-.54-.45-1.09-.45-1.67,0-.9.33-1.67.99-2.32.66-.64,1.44-.97,2.34-.97.75,0,1.47.24,2.16.72v1.98c-.66-.51-1.29-.77-1.89-.77-1.11,0-1.66.5-1.66,1.49,0,.51.21,1.02.63,1.53h4.1l-1.04,1.93h-7.43Zm2.38,29.66v-25.16l3.87-2.07v27.22h-3.87Z"/>
    <path class="cls-3" d="m1115.74,439.07l1.89-3.64h8.01c1.2,0,2.05-.3,2.54-.9.49-.6.74-1.63.74-3.11,0-3.99-1.85-6.99-5.54-9l1.98-3.33c4.71,2.76,7.17,6.57,7.38,11.43.06,1.74.46,2.99,1.19,3.76.73.77,1.91,1.15,3.53,1.15h2.66v3.64h-2.97c-2.49,0-4.44-.79-5.85-2.38-.99,1.59-2.65,2.38-4.99,2.38h-10.58Z"/>
    <path class="cls-3" d="m1166.77,435.43h2.92v3.64h-2.97c-2.43,0-4.38-.28-5.85-.83-1.47-.56-2.83-1.54-4.09-2.95-3.78,2.52-8.19,3.78-13.23,3.78h-6.12v-3.64h6.16c6.09,0,10.9-2.01,14.45-6.03-2.49-4.59-5.52-6.88-9.09-6.88-2.43,0-4.94,1.29-7.52,3.87v-3.6c2.52-2.55,5.19-3.83,8.01-3.83,2.31,0,4.54.83,6.71,2.5s4.06,4.04,5.71,7.13v1.98c-.93,1.17-1.81,2.12-2.65,2.83,1.62,1.35,4.14,2.03,7.56,2.03Zm-14.71,8.14c1.44,0,2.16.73,2.16,2.21s-.72,2.25-2.16,2.25-2.21-.75-2.21-2.25.73-2.21,2.21-2.21Z"/>
    <path class="cls-3" d="m1167,439.07v-3.64h2.97c2.94,0,4.41-1.5,4.41-4.5v-9.32l3.87-2.07v11.52c0,2.55-.77,4.56-2.29,6.03-1.41,1.32-3.26,1.98-5.54,1.98h-3.42Zm9.18-24.97c-1.47,0-2.21-.75-2.21-2.25s.73-2.21,2.21-2.21,2.16.74,2.16,2.21-.72,2.25-2.16,2.25Z"/>
    <path class="cls-3" d="m1214.83,435.43h2.97v3.64h-3.42c-3.09,0-5.31-1.14-6.66-3.42-1.44,1.38-3.22,2.07-5.36,2.07-2.64,0-4.74-.99-6.3-2.97-1.29-1.68-1.94-3.73-1.94-6.17,0-2.91.88-5.25,2.65-7.02,1.5-1.53,3.33-2.29,5.49-2.29,1.65,0,3.07.42,4.28,1.26v-1.93l3.91-2.07v14.4c0,3,1.46,4.5,4.37,4.5Zm-8.28-10.71c-1.11-1.23-2.47-1.84-4.1-1.84-1.32,0-2.4.53-3.24,1.6-.84,1.07-1.26,2.45-1.26,4.16s.42,3.14,1.26,4.19c.84,1.05,1.94,1.58,3.29,1.58,1.68,0,3.06-.69,4.14-2.07-.06-.54-.09-.96-.09-1.26v-6.35Z"/>
    <path class="cls-3" d="m1230.76,435.43h2.97v3.64h-3.42c-2.49,0-4.46-.79-5.89-2.38-1.44,1.59-3.41,2.38-5.89,2.38h-3.42v-3.64h2.97c2.94,0,4.41-1.5,4.41-4.5v-9.32l3.87-2.07v11.39c0,3,1.47,4.5,4.41,4.5Zm-7.11-21.33c-1.47,0-2.21-.75-2.21-2.25s.73-2.21,2.21-2.21,2.16.74,2.16,2.21-.72,2.25-2.16,2.25Z"/>
    <path class="cls-3" d="m1238.41,426.88c0-2.61.78-4.63,2.34-6.07,1.38-1.23,3.18-1.85,5.4-1.85,2.85,0,5.04,1.05,6.57,3.15,1.32,1.77,1.98,4.08,1.98,6.93,0,3.24-.84,5.78-2.52,7.61-1.47,1.62-3.39,2.43-5.76,2.43-2.7,0-4.75-.75-6.16-2.25-1.44,1.5-3.38,2.25-5.8,2.25h-3.42v-3.64h2.97c2.94,0,4.41-1.5,4.41-4.5v-4.05Zm3.87,4.37c0,2.79,1.36,4.19,4.09,4.19,1.41,0,2.51-.57,3.31-1.71.79-1.14,1.19-2.73,1.19-4.77s-.42-3.58-1.26-4.7-2-1.69-3.46-1.69c-2.58,0-3.87,1.5-3.87,4.5v4.18Z"/>
    <path class="cls-3" d="m1269.96,439.07c-2.61,0-4.62-.84-6.03-2.52-1.2-1.44-1.8-3.27-1.8-5.49v-18.95l3.87-2.07v20.88c0,3,1.47,4.5,4.41,4.5h2.97v3.64h-3.42Z"/>
    <path class="cls-3" d="m1278.06,426.88c0-2.61.78-4.63,2.34-6.07,1.38-1.23,3.18-1.85,5.4-1.85,2.85,0,5.04,1.05,6.57,3.15,1.32,1.77,1.98,4.08,1.98,6.93,0,3.24-.84,5.78-2.52,7.61-1.47,1.62-3.39,2.43-5.76,2.43-2.7,0-4.76-.75-6.17-2.25-1.44,1.5-3.38,2.25-5.8,2.25h-3.42v-3.64h2.97c2.94,0,4.41-1.5,4.41-4.5v-4.05Zm3.87,4.37c0,2.79,1.37,4.19,4.1,4.19,1.41,0,2.51-.57,3.31-1.71.79-1.14,1.19-2.73,1.19-4.77s-.42-3.58-1.26-4.7c-.84-1.12-2-1.69-3.47-1.69-2.58,0-3.87,1.5-3.87,4.5v4.18Z"/>
    <path class="cls-3" d="m1299.39,409.42l1.04-1.93h1.21c-.3-.54-.45-1.09-.45-1.67,0-.9.33-1.67.99-2.32.66-.64,1.44-.97,2.34-.97.75,0,1.47.24,2.16.72v1.98c-.66-.51-1.29-.77-1.89-.77-1.11,0-1.67.5-1.67,1.49,0,.51.21,1.02.63,1.53h4.09l-1.04,1.93h-7.42Zm2.38,29.66v-25.16l3.87-2.07v27.22h-3.87Z"/>
    <path class="cls-3" d="m1348.21,425.98c-2.01-2.1-4.11-3.15-6.3-3.15-1.17,0-2.1.35-2.79,1.04-.69.69-1.04,1.62-1.04,2.79,0,1.29.39,2.29,1.17,3.01.78.72,2.29,1.47,4.54,2.25,2.25.81,3.78,1.58,4.59,2.29,1.2,1.02,1.8,2.42,1.8,4.19,0,2.82-1.33,5.1-4,6.84-2.43,1.59-5.6,2.38-9.5,2.38-4.74,0-8.31-1.38-10.71-4.14-1.77-2.04-2.65-4.56-2.65-7.56,0-2.52.63-4.68,1.89-6.48l3.74-.81c-1.35,2.13-2.03,4.43-2.03,6.89,0,2.58.87,4.65,2.61,6.21,1.71,1.5,4.1,2.25,7.15,2.25,3.27,0,5.79-.65,7.56-1.94,1.38-1.02,2.07-2.25,2.07-3.69,0-.81-.31-1.47-.92-1.98-.62-.51-1.84-1.08-3.67-1.71-2.52-.9-4.26-1.8-5.22-2.7-1.44-1.32-2.16-3.09-2.16-5.31,0-2.43.86-4.33,2.57-5.71,1.32-1.05,2.82-1.58,4.5-1.58,2.76,0,5.02,1.01,6.79,3.01v3.6Zm-14.54,29.61c-1.47,0-2.21-.75-2.21-2.25s.73-2.21,2.21-2.21,2.16.74,2.16,2.21-.72,2.25-2.16,2.25Zm5.71,0c-1.47,0-2.21-.75-2.21-2.25s.73-2.21,2.21-2.21,2.16.74,2.16,2.21-.72,2.25-2.16,2.25Z"/>
    <path class="cls-3" d="m1353.34,439.07l1.89-3.64h8.01c1.2,0,2.05-.3,2.54-.9.5-.6.74-1.63.74-3.11,0-3.99-1.84-6.99-5.54-9l1.98-3.33c4.71,2.76,7.17,6.57,7.38,11.43.06,1.74.46,2.99,1.19,3.76.74.77,1.91,1.15,3.53,1.15h2.65v3.64h-2.97c-2.49,0-4.44-.79-5.85-2.38-.99,1.59-2.65,2.38-4.99,2.38h-10.57Zm9.76-24.97c-1.47,0-2.21-.75-2.21-2.25s.74-2.21,2.21-2.21,2.16.74,2.16,2.21-.72,2.25-2.16,2.25Z"/>
    <path class="cls-3" d="m1375.03,439.07v-3.64h2.38c3.12,0,4.68-1.63,4.68-4.91v-18.41l3.91-2.07v20.52c0,2.67-.79,4.79-2.38,6.34-1.5,1.44-3.46,2.16-5.89,2.16h-2.7Z"/>
    <path class="cls-3" d="m1394.11,439.07v-26.96l3.87-2.07v29.03h-3.87Z"/>
    <path class="cls-3" d="m1444.29,435.43h2.97v3.64h-3.42c-1.62,0-3.08-.36-4.37-1.08-.42,3.09-1.81,5.52-4.19,7.29-2.1,1.56-4.7,2.34-7.78,2.34-4.02,0-7.13-1.35-9.32-4.05-1.68-2.1-2.52-4.6-2.52-7.51,0-2.55.62-4.73,1.85-6.53l3.87-.85c-1.38,2.13-2.07,4.45-2.07,6.97s.79,4.53,2.38,6.12c1.47,1.47,3.41,2.21,5.81,2.21,2.73,0,4.83-.81,6.3-2.43,1.26-1.38,1.89-3.15,1.89-5.31v-24.12l3.91-2.07v20.88c0,3,1.56,4.5,4.68,4.5Z"/>
    <path class="cls-3" d="m1469.17,435.43h2.57v3.64h-2.97c-2.52,0-4.48-.78-5.89-2.34-1.41,1.56-3.38,2.34-5.89,2.34h-12.42v-3.64h12.06c2.88,0,4.32-1.51,4.32-4.55v-.4c0-2.25-.87-3.96-2.61-5.13-1.38-.96-3.08-1.44-5.09-1.44-1.59,0-3.18.3-4.77.9v-3.83l9.86-10.94h3.96l-8.87,9.99h.27c3.42,0,6.18,1.04,8.28,3.11,1.89,1.92,2.84,4.35,2.84,7.29v.5c0,3,1.45,4.5,4.36,4.5Z"/>
    <path class="cls-3" d="m1469.04,439.07v-3.64h4.05c2.91,0,4.37-1.5,4.37-4.5v-6.3l3.87-2.07v8.37c0,3,1.47,4.5,4.41,4.5h2.07c2.94,0,4.41-1.5,4.41-4.5v-7.83l3.87-2.03v9.86c0,3,1.45,4.5,4.36,4.5h2.12c2.94,0,4.41-1.5,4.41-4.5v-9.32l3.87-2.07v10.98c0,3.27,1.56,4.91,4.68,4.91h3.73v3.64h-4.05c-2.7,0-4.76-.92-6.17-2.75-1.26,1.8-3.22,2.72-5.89,2.75h-3.11c-2.64,0-4.61-.88-5.89-2.66-1.29,1.74-3.21,2.63-5.76,2.66h-3.11c-2.58,0-4.54-.88-5.89-2.66-1.29,1.77-3.26,2.66-5.89,2.66h-4.46Zm21.91-23.76c-1.47,0-2.21-.75-2.21-2.25s.73-2.21,2.21-2.21,2.16.74,2.16,2.21-.72,2.25-2.16,2.25Zm2.84-5.36c-1.32,0-1.98-.67-1.98-2.02s.66-1.98,1.98-1.98,1.98.66,1.98,1.98-.66,2.02-1.98,2.02Zm2.88,5.36c-1.47,0-2.21-.75-2.21-2.25s.73-2.21,2.21-2.21,2.16.74,2.16,2.21-.72,2.25-2.16,2.25Z"/>
    <path class="cls-3" d="m1516.56,439.07v-3.64h2.38c3.12,0,4.68-1.63,4.68-4.91v-18.41l3.91-2.07v20.52c0,2.67-.79,4.79-2.38,6.34-1.5,1.44-3.46,2.16-5.89,2.16h-2.7Z"/>
    <path class="cls-3" d="m1535.63,439.07v-26.96l3.87-2.07v29.03h-3.87Z"/>
  </g>
</svg>