<?xml version="1.0" encoding="UTF-8"?>
<svg id="Layer_1" data-name="Layer 1" xmlns="http://www.w3.org/2000/svg" width="1641" height="697" xmlns:xlink="http://www.w3.org/1999/xlink" viewBox="0 0 1641 697">
  <defs>
    <style>
      .cls-1 {
        stroke: #fff;
        stroke-linecap: round;
        stroke-linejoin: round;
        stroke-width: 3.61px;
      }

      .cls-1, .cls-2 {
        fill: none;
      }

      .cls-3 {
        fill: #e0e0e0;
      }

      .cls-3, .cls-2, .cls-4, .cls-5 {
        stroke-width: 0px;
      }

      .cls-6 {
        opacity: .1;
      }

      .cls-7 {
        clip-path: url(#clippath);
      }

      .cls-4 {
        fill: #f3f2f3;
      }

      .cls-5 {
        fill: #273551;
      }
    </style>
    <clipPath id="clippath">
      <rect class="cls-2" x="-340.24" y="979.52" width="1918.37" height="550.14"/>
    </clipPath>
  </defs>
  <g>
    <g>
      <path class="cls-3" d="m43.54,144.56v305.41c0,28.91,11.72,55.07,30.66,74.02,18.94,18.94,45.11,30.66,74.02,30.66h21.98c5.94,0,11.83.79,17.51,2.34,5.69,1.55,11.17,3.85,16.29,6.86l87.9,51.64,87.9,51.64v-45.74c0-18.43,7.47-35.11,19.55-47.19,12.08-12.08,28.76-19.54,47.19-19.54h-143.56,1179.81c28.91,0,55.07-11.72,74.02-30.66,18.94-18.94,30.66-45.11,30.66-74.02V144.56c0-28.91-11.72-55.08-30.66-74.02-18.94-18.94-45.11-30.66-74.02-30.66H148.21c-28.91,0-55.07,11.72-74.02,30.66-18.94,18.94-30.66,45.11-30.66,74.02Z"/>
      <path class="cls-4" d="m53.54,134.56v305.41c0,28.91,11.72,55.07,30.66,74.02,18.94,18.94,45.11,30.66,74.02,30.66h21.98c5.94,0,11.83.79,17.51,2.34,5.69,1.55,11.17,3.85,16.29,6.86l87.9,51.64,87.9,51.64v-45.74c0-18.43,7.47-35.11,19.55-47.19,12.08-12.08,28.76-19.54,47.19-19.54h-143.56,1179.81c28.91,0,55.07-11.72,74.02-30.66,18.94-18.94,30.66-45.11,30.66-74.02V134.56c0-28.91-11.72-55.08-30.66-74.02-18.94-18.94-45.11-30.66-74.02-30.66H158.21c-28.91,0-55.07,11.72-74.02,30.66-18.94,18.94-30.66,45.11-30.66,74.02Z"/>
    </g>
    <g>
      <path class="cls-5" d="m767.12,214.76v3.64h-5.58c-.12,2.58-1.23,4.71-3.33,6.39-1.77,1.38-3.78,2.07-6.03,2.07-1.86,0-3.62-.44-5.27-1.3v-3.42c1.59.84,3.16,1.26,4.72,1.26s2.98-.5,4.16-1.49c1.19-.99,1.79-2.17,1.82-3.55-1.56-.06-2.72-.12-3.46-.18-3.24-.18-5.69-1.28-7.34-3.29-1.38-1.68-2.07-3.85-2.07-6.53,0-3.27.87-5.82,2.61-7.65,1.56-1.62,3.62-2.43,6.17-2.43s4.72.8,6.16,2.38c1.23,1.41,1.85,3.26,1.85,5.54v8.55h5.58Zm-9.49-8.28c0-3.06-1.37-4.59-4.1-4.59-1.56,0-2.78.56-3.64,1.69-.87,1.12-1.3,2.69-1.3,4.7,0,3.93,1.92,6.02,5.76,6.25.72.09,1.81.17,3.29.23v-8.28Z"/>
      <path class="cls-5" d="m769.82,205.04c.75-2.76,2.18-4.88,4.28-6.34,1.71-1.17,3.64-1.75,5.8-1.75,3.18,0,5.8,1.08,7.88,3.24,1.95,2.04,2.93,4.67,2.93,7.88v2.38c0,2.61-.81,4.63-2.43,6.08-1.41,1.26-3.24,1.89-5.49,1.89h-4.86c-1.02,0-1.98-.15-2.88-.45-.93.3-1.89.45-2.88.45h-7.74v-3.64h5.8c-1.14-1.53-1.71-3.27-1.71-5.22,0-1.77.44-3.27,1.3-4.5Zm5.22,9.32c2.46-.84,3.69-2.52,3.69-5.04,0-1.26-.34-2.27-1.01-3.04-.68-.76-1.57-1.15-2.68-1.15s-2,.38-2.68,1.15c-.67.77-1.01,1.78-1.01,3.04,0,2.52,1.23,4.2,3.69,5.04Zm11.74-4.28v-2.02c0-2.49-.79-4.42-2.38-5.81-1.29-1.14-2.83-1.71-4.63-1.71-2.07,0-3.69.67-4.86,2.03h.13c1.98,0,3.56.64,4.75,1.91,1.18,1.28,1.78,2.96,1.78,5.06s-.59,3.75-1.76,5.22h2.84c1.47,0,2.53-.37,3.17-1.1s.97-1.93.97-3.58Z"/>
      <path class="cls-5" d="m815.42,204.5v.09c0,.96-.3,1.74-.9,2.34-.6.6-1.39.9-2.38.9s-1.84-.31-2.45-.92-.92-1.43-.92-2.45v-.09c.06-.93.4-1.68,1.01-2.25.62-.57,1.4-.85,2.36-.85s1.79.3,2.38.9c.6.6.9,1.38.9,2.34Zm0,10.8v.09c0,.96-.3,1.74-.9,2.34-.6.6-1.39.9-2.38.9s-1.84-.31-2.45-.92-.92-1.43-.92-2.45v-.09c.06-.93.4-1.68,1.01-2.25.62-.57,1.4-.85,2.36-.85s1.79.3,2.38.9c.6.6.9,1.38.9,2.34Z"/>
      <path class="cls-5" d="m830.95,189.38c-1.86,2.34-3.37,5.11-4.52,8.3s-1.73,6.2-1.73,9.02c0,4.62,1.05,9.11,3.15,13.46.54,1.11,1.13,2.14,1.78,3.11.64.96,1.07,1.44,1.28,1.44h-4.95c-.24,0-.79-.61-1.64-1.82s-1.55-2.36-2.09-3.44c-1.92-3.87-2.88-8.12-2.88-12.74,0-3.09.62-6.24,1.85-9.45,1.23-3.21,2.82-5.83,4.77-7.88h5Z"/>
      <path class="cls-5" d="m855.56,215.21c-2.49,2.49-5.42,3.74-8.78,3.74-4.83,0-8.43-1.8-10.8-5.4-1.71-2.58-2.57-5.61-2.57-9.09,0-4.53,1.17-8.17,3.51-10.93,2.31-2.76,5.52-4.14,9.63-4.14,2.88,0,5.76,1.22,8.64,3.65l-2.29,3.74c-2.16-1.56-4.12-2.34-5.9-2.34-2.46,0-4.36,1.04-5.71,3.11-1.17,1.77-1.75,4.08-1.75,6.93,0,2.52.69,4.68,2.07,6.48,1.47,1.89,3.43,2.83,5.89,2.83,1.62,0,3.54-.71,5.76-2.12l2.29,3.55Z"/>
      <path class="cls-5" d="m878.2,210.04h-14.04c.12,1.38.68,2.53,1.69,3.44,1,.92,2.2,1.37,3.58,1.37,1.95,0,3.99-.6,6.12-1.8l1.44,3.02c-2.16,1.92-4.86,2.88-8.1,2.88-3.48,0-6.2-.99-8.14-2.97-1.86-1.86-2.79-4.42-2.79-7.7s1.05-5.87,3.15-7.96c1.89-1.92,4.29-2.88,7.2-2.88,3.24,0,5.76,1.09,7.56,3.29,1.56,1.86,2.34,4.27,2.34,7.24v2.07Zm-14.35-4.18h8.68c-.15-2.94-1.57-4.41-4.28-4.41s-4.08,1.47-4.41,4.41Z"/>
      <path class="cls-5" d="m888.46,199.96c.6-.69,1.5-1.28,2.7-1.78,1.2-.5,2.34-.74,3.42-.74,2.58,0,4.45.71,5.6,2.11,1.15,1.41,1.73,3.69,1.73,6.84v12.01h-5.71v-11.79c0-2.94-1.3-4.41-3.91-4.41-.66,0-1.37.14-2.12.43s-1.26.61-1.53.97v14.8h-5.67v-20.43h4.82c.15.78.3,1.44.45,1.98h.22Z"/>
      <path class="cls-5" d="m920.14,202.52h-5.85v10.12c0,1.5.49,2.25,1.48,2.25.9,0,2.03-.39,3.38-1.17l1.89,2.88c-2.13,1.68-4.49,2.52-7.07,2.52-3.6,0-5.4-1.98-5.4-5.94v-10.67h-2.84v-4.54h2.88v-3.65c1.5-.81,3.4-1.81,5.71-3.01v6.66h5.8v4.54Z"/>
      <path class="cls-5" d="m943.67,210.04h-14.04c.12,1.38.68,2.53,1.69,3.44,1.01.92,2.2,1.37,3.58,1.37,1.95,0,3.99-.6,6.12-1.8l1.44,3.02c-2.16,1.92-4.86,2.88-8.1,2.88-3.48,0-6.19-.99-8.14-2.97-1.86-1.86-2.79-4.42-2.79-7.7s1.05-5.87,3.15-7.96c1.89-1.92,4.29-2.88,7.2-2.88,3.24,0,5.76,1.09,7.56,3.29,1.56,1.86,2.34,4.27,2.34,7.24v2.07Zm-14.36-4.18h8.69c-.15-2.94-1.58-4.41-4.28-4.41s-4.08,1.47-4.41,4.41Z"/>
      <path class="cls-5" d="m953.26,197.98l.54,1.8c.3-.63.88-1.18,1.73-1.64.86-.46,1.73-.7,2.63-.7,2.7,0,4.71,1.28,6.03,3.83l-4.77,2.61c-.99-1.14-2.04-1.71-3.15-1.71-1.02,0-1.77.53-2.25,1.58v14.67h-5.58v-20.43h4.81Z"/>
      <path class="cls-5" d="m987.17,197.44c3.36,0,5.97,1.19,7.83,3.55,1.56,1.98,2.34,4.4,2.34,7.25,0,3.33-1.16,6.03-3.46,8.1-1.92,1.74-4.16,2.61-6.71,2.61-2.97,0-5.46-1.11-7.47-3.33-1.8-2.01-2.7-4.47-2.7-7.38,0-3.3,1-5.97,3.01-8.01,1.83-1.86,4.21-2.79,7.16-2.79Zm0,17.28c2.91,0,4.37-2.16,4.37-6.48s-1.46-6.75-4.37-6.75-4.37,2.25-4.37,6.75,1.46,6.48,4.37,6.48Z"/>
      <path class="cls-5" d="m1000.54,202.57v-4.59h3.2v-2.7c0-3.93,1.83-5.9,5.49-5.9,2.4,0,4.63.81,6.71,2.43l-2.07,2.97c-1.2-.78-2.22-1.17-3.06-1.17-.93,0-1.39.75-1.39,2.25v2.12h5.58v4.59h-5.58v15.84h-5.67v-15.84h-3.2Z"/>
      <path class="cls-5" d="m1049.48,210.04h-14.04c.12,1.38.68,2.53,1.69,3.44,1,.92,2.2,1.37,3.58,1.37,1.95,0,3.99-.6,6.12-1.8l1.44,3.02c-2.16,1.92-4.86,2.88-8.1,2.88-3.48,0-6.2-.99-8.14-2.97-1.86-1.86-2.79-4.42-2.79-7.7s1.05-5.87,3.15-7.96c1.89-1.92,4.29-2.88,7.2-2.88,3.24,0,5.76,1.09,7.56,3.29,1.56,1.86,2.34,4.27,2.34,7.24v2.07Zm-14.35-4.18h8.68c-.15-2.94-1.57-4.41-4.28-4.41s-4.08,1.47-4.41,4.41Z"/>
      <path class="cls-5" d="m1059.74,199.96c.6-.69,1.5-1.28,2.7-1.78,1.2-.5,2.34-.74,3.42-.74,2.58,0,4.45.71,5.6,2.11,1.15,1.41,1.73,3.69,1.73,6.84v12.01h-5.71v-11.79c0-2.94-1.3-4.41-3.91-4.41-.66,0-1.37.14-2.12.43s-1.26.61-1.53.97v14.8h-5.67v-20.43h4.82c.15.78.3,1.44.45,1.98h.22Z"/>
      <path class="cls-5" d="m1084.77,189.38v29.03h-5.67v-26.05l5.67-2.97Z"/>
      <path class="cls-5" d="m1107.36,218.41h-4.54l-.45-1.93c-1.98,1.65-3.99,2.47-6.03,2.47-4.53,0-6.79-2.21-6.79-6.62,0-2.19.95-3.9,2.83-5.13,1.92-1.26,4.76-1.89,8.51-1.89h.95v-.09c0-1.29-.27-2.17-.81-2.66-.54-.48-1.52-.72-2.93-.72-1.98,0-3.79.63-5.44,1.89-.54-.99-1.05-1.96-1.53-2.92,1.71-1.32,3.2-2.21,4.48-2.68,1.27-.46,2.8-.7,4.57-.7,4.8,0,7.2,3,7.2,9v11.97Zm-5.71-9.63h-.68c-1.71,0-3.09.3-4.14.9-1.05.6-1.57,1.4-1.57,2.39,0,1.86.81,2.79,2.43,2.79.99,0,1.86-.29,2.61-.86.75-.57,1.2-1.29,1.35-2.16v-3.06Z"/>
      <path class="cls-5" d="m1118.29,197.98l.54,1.8c.3-.63.88-1.18,1.73-1.64.86-.46,1.73-.7,2.63-.7,2.7,0,4.71,1.28,6.03,3.83l-4.77,2.61c-.99-1.14-2.04-1.71-3.15-1.71-1.02,0-1.77.53-2.25,1.58v14.67h-5.58v-20.43h4.81Z"/>
      <path class="cls-5" d="m1144.3,215.93c-1.35,2.01-3.25,3.01-5.71,3.01-3,0-5.32-1.06-6.97-3.2-1.41-1.8-2.12-4.08-2.12-6.84,0-3.93,1.14-6.96,3.42-9.09,1.74-1.59,3.79-2.38,6.17-2.38,1.89,0,3.49.46,4.81,1.39.87.6,1.3,1.05,1.3,1.35l.45-2.21h4.37v18.31c0,3.45-.86,6.1-2.57,7.96-1.68,1.83-4.08,2.75-7.2,2.75s-6.04-1.08-8.42-3.24l1.44-2.88c1.83,1.2,3.88,1.8,6.16,1.8,3.24,0,4.86-2.25,4.86-6.75Zm0-11.03c-.12-.93-.58-1.73-1.37-2.41s-1.67-1.01-2.63-1.01c-1.5,0-2.7.6-3.6,1.8-.9,1.2-1.35,2.82-1.35,4.86,0,4.47,1.47,6.71,4.41,6.71,1.23,0,2.29-.47,3.2-1.42s1.35-2.06,1.35-3.35v-5.17Z"/>
      <path class="cls-5" d="m1175.04,210.04h-14.04c.12,1.38.68,2.53,1.69,3.44,1.01.92,2.2,1.37,3.58,1.37,1.95,0,3.99-.6,6.12-1.8l1.44,3.02c-2.16,1.92-4.86,2.88-8.1,2.88-3.48,0-6.19-.99-8.14-2.97-1.86-1.86-2.79-4.42-2.79-7.7s1.05-5.87,3.15-7.96c1.89-1.92,4.29-2.88,7.2-2.88,3.24,0,5.76,1.09,7.56,3.29,1.56,1.86,2.34,4.27,2.34,7.24v2.07Zm-14.36-4.18h8.69c-.15-2.94-1.58-4.41-4.28-4.41s-4.08,1.47-4.41,4.41Z"/>
      <path class="cls-5" d="m1185.25,199.96c1.68-1.68,3.78-2.52,6.3-2.52,1.74,0,3.28.37,4.61,1.1,1.33.74,2.26,1.72,2.77,2.95.66-1.2,1.69-2.17,3.08-2.92s2.92-1.12,4.57-1.12c4.8,0,7.2,2.91,7.2,8.73v12.24h-5.71v-10.71c0-2.01-.29-3.43-.88-4.25-.59-.82-1.57-1.24-2.95-1.24-1.98,0-3.59.78-4.82,2.34v13.86h-5.67v-11.34c0-1.77-.31-3.02-.94-3.76-.63-.73-1.71-1.1-3.24-1.1-.9,0-1.75.13-2.54.41-.79.27-1.31.6-1.55.99v14.8h-5.67v-20.43h4.81l.41,1.98h.22Z"/>
      <path class="cls-5" d="m1238.57,210.04h-14.04c.12,1.38.68,2.53,1.69,3.44,1,.92,2.2,1.37,3.58,1.37,1.95,0,3.99-.6,6.12-1.8l1.44,3.02c-2.16,1.92-4.86,2.88-8.1,2.88-3.48,0-6.2-.99-8.14-2.97-1.86-1.86-2.79-4.42-2.79-7.7s1.05-5.87,3.15-7.96c1.89-1.92,4.29-2.88,7.2-2.88,3.24,0,5.76,1.09,7.56,3.29,1.56,1.86,2.34,4.27,2.34,7.24v2.07Zm-14.35-4.18h8.68c-.15-2.94-1.57-4.41-4.28-4.41s-4.08,1.47-4.41,4.41Z"/>
      <path class="cls-5" d="m1248.83,199.96c.6-.69,1.5-1.28,2.7-1.78,1.2-.5,2.34-.74,3.42-.74,2.58,0,4.45.71,5.6,2.11,1.15,1.41,1.73,3.69,1.73,6.84v12.01h-5.71v-11.79c0-2.94-1.3-4.41-3.91-4.41-.66,0-1.37.14-2.12.43s-1.26.61-1.53.97v14.8h-5.67v-20.43h4.82c.15.78.3,1.44.45,1.98h.22Z"/>
      <path class="cls-5" d="m1280.52,202.52h-5.85v10.12c0,1.5.49,2.25,1.48,2.25.9,0,2.03-.39,3.38-1.17l1.89,2.88c-2.13,1.68-4.49,2.52-7.07,2.52-3.6,0-5.4-1.98-5.4-5.94v-10.67h-2.84v-4.54h2.88v-3.65c1.5-.81,3.4-1.81,5.71-3.01v6.66h5.8v4.54Z"/>
      <path class="cls-5" d="m1284.16,224.71c.27,0,.79-.63,1.57-1.89.78-1.26,1.47-2.58,2.07-3.96,1.71-3.99,2.56-8.04,2.56-12.15,0-2.82-.58-5.83-1.73-9.02s-2.66-5.96-4.52-8.3h4.99c1.95,2.04,3.54,4.67,4.77,7.88,1.23,3.21,1.85,6.36,1.85,9.45,0,5.13-1.17,9.78-3.51,13.95-.51.87-1.11,1.76-1.8,2.68-.69.91-1.12,1.37-1.3,1.37h-4.95Z"/>
      <path class="cls-5" d="m1323.03,212.96h4.05v5.45h-4.59c-1.02,0-1.96-.13-2.84-.41-.39,2.88-1.54,5.16-3.46,6.84-1.74,1.5-3.82,2.25-6.25,2.25-1.89,0-3.74-.48-5.54-1.44v-4.95c1.56.87,3.09,1.3,4.59,1.3,1.65,0,2.93-.53,3.85-1.6.91-1.07,1.37-2.54,1.37-4.43v-14.58l3.69-1.94,1.94-1.04v.05l.04-.05v11.3c0,1.17.24,2,.72,2.5s1.29.74,2.43.74Z"/>
      <path class="cls-5" d="m1324.38,218.41v-5.45h7.92v5.45h-7.92Z"/>
      <path class="cls-5" d="m1329.6,218.41v-5.45h7.92v5.45h-7.92Z"/>
      <path class="cls-5" d="m1334.82,218.41v-5.45h7.92v5.45h-7.92Z"/>
      <path class="cls-5" d="m1356.05,212.96h4.05v5.45h-4.59c-2.19,0-4.01-.58-5.45-1.75-1.44,1.17-3.26,1.75-5.45,1.75h-4.59v-5.45h4.05c1.14,0,1.95-.25,2.43-.74.48-.5.72-1.33.72-2.5v-8.33l5.67-2.97v11.3c0,1.17.24,2,.72,2.5s1.29.74,2.43.74Zm-11.65,9.54c.9,0,1.61.26,2.14.79.53.52.79,1.24.79,2.14,0,2.01-.98,3.02-2.93,3.02-.9,0-1.62-.27-2.16-.81s-.81-1.28-.81-2.21c0-1.95.99-2.92,2.97-2.92Zm6.93,0c.9,0,1.61.26,2.14.79.53.52.79,1.24.79,2.14,0,2.01-.98,3.02-2.93,3.02-.9,0-1.62-.27-2.16-.81-.54-.54-.81-1.28-.81-2.21,0-1.95.99-2.92,2.97-2.92Z"/>
      <path class="cls-5" d="m1373.43,212.96h4.05v5.45h-4.59c-2.19,0-4-.58-5.45-1.75-1.44,1.17-3.25,1.75-5.44,1.75h-4.59v-5.45h4.05c1.14,0,1.95-.25,2.43-.74s.72-1.33.72-2.5v-8.33l5.67-2.97v11.3c0,1.17.24,2,.72,2.5.48.5,1.29.74,2.43.74Zm-5.71,9.54c.9,0,1.61.26,2.14.79.53.52.79,1.24.79,2.14,0,2.01-.97,3.02-2.92,3.02-.9,0-1.62-.27-2.16-.81-.54-.54-.81-1.28-.81-2.21,0-.87.27-1.57.81-2.11.54-.54,1.26-.81,2.16-.81Z"/>
      <path class="cls-5" d="m1399.08,212.96h3.55v5.45h-4.14c-2.19,0-3.99-.58-5.4-1.75-1.44,1.17-3.25,1.75-5.45,1.75h-12.87v-5.45h12.29c2.1,0,3.15-1.04,3.15-3.1v-.27c0-1.65-.62-2.98-1.85-3.98-1.23-1-2.85-1.51-4.86-1.51-1.53,0-3.13.3-4.81.9v-5.45l9.13-10.17h5.71l-8.19,9.18c2.37.24,4.38.94,6.03,2.11,3,2.04,4.5,5,4.5,8.87v.18c0,1.17.25,2,.74,2.5s1.31.74,2.45.74Z"/>
      <path class="cls-5" d="m1415.95,212.96h4.05v5.45h-4.59c-2.19,0-4-.58-5.45-1.75-1.44,1.17-3.25,1.75-5.44,1.75h-4.59v-5.45h4.05c1.14,0,1.95-.25,2.43-.74s.72-1.33.72-2.5v-8.33l5.67-2.97v11.3c0,1.17.24,2,.72,2.5.48.5,1.29.74,2.43.74Zm-11.75-18.5c-.9,0-1.62-.27-2.16-.81-.54-.54-.81-1.27-.81-2.21,0-.87.27-1.58.81-2.12.54-.54,1.26-.81,2.16-.81s1.61.26,2.14.79c.52.53.79,1.24.79,2.14,0,2.01-.97,3.01-2.93,3.01Zm6.88,0c-.9,0-1.62-.28-2.16-.83-.54-.55-.81-1.28-.81-2.18s.28-1.58.83-2.12,1.27-.81,2.14-.81,1.61.26,2.14.79c.52.53.79,1.24.79,2.14,0,2.01-.97,3.01-2.93,3.01Z"/>
      <path class="cls-5" d="m1417.3,218.41v-5.45h2.83c1.38,0,2.36-.3,2.95-.9.59-.6.88-1.62.88-3.06v-16.6l5.62-3.02v19.67c0,2.91-.88,5.24-2.65,6.98-1.62,1.59-3.78,2.38-6.48,2.38h-3.15Z"/>
      <path class="cls-5" d="m1437.69,218.41v-26.01l5.67-3.02v29.03h-5.67Z"/>
      <path class="cls-5" d="m1473.9,212.96h4.05v5.45h-4.59c-1.02,0-1.96-.13-2.83-.41-.39,2.88-1.54,5.16-3.46,6.84-1.74,1.5-3.83,2.25-6.26,2.25-1.89,0-3.73-.48-5.54-1.44v-4.95c1.56.87,3.09,1.3,4.59,1.3,1.65,0,2.93-.53,3.85-1.6.92-1.07,1.37-2.54,1.37-4.43v-14.58l3.69-1.94,1.94-1.04v.05l.04-.05v11.3c0,1.17.24,2,.72,2.5.48.5,1.29.74,2.43.74Zm-6.35-19.08c-.9,0-1.62-.27-2.16-.81-.54-.54-.81-1.27-.81-2.21,0-.87.27-1.58.81-2.12.54-.54,1.26-.81,2.16-.81s1.61.26,2.14.79c.52.53.79,1.24.79,2.14,0,2.01-.97,3.01-2.93,3.01Z"/>
      <path class="cls-5" d="m1485.82,198.56c2.25.18,4.23.85,5.94,2.02,3.06,2.07,4.59,5.06,4.59,8.96v.58c0,2.7-.84,4.82-2.52,6.35-1.47,1.29-3.38,1.93-5.72,1.93h-12.87v-5.45h12.29c2.1,0,3.15-1.04,3.15-3.1v-.27c0-1.62-.62-2.94-1.87-3.96-1.25-1.02-2.87-1.53-4.88-1.53-1.5,0-3.09.3-4.77.9v-5.45l9.13-10.17h5.71l-8.19,9.18Z"/>
      <path class="cls-5" d="m1514.4,212.96h4.05v5.45h-4.59c-1.02,0-1.96-.13-2.83-.41-.39,2.88-1.54,5.16-3.46,6.84-1.74,1.5-3.83,2.25-6.26,2.25-1.89,0-3.73-.48-5.54-1.44v-4.95c1.56.87,3.09,1.3,4.59,1.3,1.65,0,2.93-.53,3.85-1.6.92-1.07,1.37-2.54,1.37-4.43v-14.58l3.69-1.94,1.94-1.04v.05l.04-.05v11.3c0,1.17.24,2,.72,2.5.48.5,1.29.74,2.43.74Z"/>
      <path class="cls-5" d="m1522.95,205.99c0-2.7.84-4.82,2.52-6.34,1.47-1.32,3.36-1.98,5.67-1.98,2.97,0,5.28,1.1,6.93,3.29,1.41,1.83,2.12,4.18,2.12,7.07,0,3.33-.88,5.96-2.66,7.88-1.59,1.68-3.62,2.52-6.07,2.52s-4.37-.52-5.89-1.58c-1.44,1.05-3.18,1.58-5.22,1.58h-4.59v-5.45h4.05c1.14,0,1.95-.25,2.43-.74.48-.5.72-1.33.72-2.5v-3.74Zm5.67,4.46c0,1.68.88,2.52,2.66,2.52,2.22,0,3.33-1.71,3.33-5.13s-1.16-4.91-3.46-4.91c-1.68,0-2.52.99-2.52,2.97v4.54Z"/>
      <path class="cls-5" d="m773.82,287.76h2.97v3.64h-3.42c-1.62,0-3.08-.36-4.37-1.08-.42,3.09-1.82,5.52-4.19,7.29-2.1,1.56-4.7,2.34-7.79,2.34-4.02,0-7.12-1.35-9.31-4.05-1.68-2.1-2.52-4.6-2.52-7.51,0-2.55.61-4.73,1.84-6.53l3.87-.85c-1.38,2.13-2.07,4.45-2.07,6.97s.79,4.53,2.38,6.12c1.47,1.47,3.4,2.21,5.8,2.21,2.73,0,4.83-.81,6.3-2.43,1.26-1.38,1.89-3.15,1.89-5.31v-24.12l3.92-2.07v20.88c0,3,1.56,4.5,4.68,4.5Z"/>
      <path class="cls-5" d="m789.75,287.76h2.97v3.64h-3.42c-2.49,0-4.46-.79-5.9-2.38-1.44,1.59-3.4,2.38-5.89,2.38h-3.42v-3.64h2.97c2.94,0,4.41-1.5,4.41-4.5v-9.32l3.87-2.07v11.39c0,3,1.47,4.5,4.41,4.5Zm-10.48-21.02c-1.47,0-2.21-.75-2.21-2.25s.73-2.21,2.21-2.21,2.16.74,2.16,2.21-.72,2.25-2.16,2.25Zm2.83-5.35c-1.38,0-2.07-.71-2.07-2.12s.69-2.07,2.07-2.07,2.07.69,2.07,2.07-.69,2.12-2.07,2.12Zm.68,3.1c0-1.47.73-2.21,2.21-2.21s2.16.74,2.16,2.21-.72,2.25-2.16,2.25-2.21-.75-2.21-2.25Z"/>
      <path class="cls-5" d="m819,287.76h3.02v3.64h-3.42c-2.49,0-4.46-.79-5.89-2.38-1.53,2.19-3.77,3.29-6.71,3.29s-5.16-1.08-6.66-3.24c-1.41,1.56-3.38,2.34-5.89,2.34h-3.42v-3.64h2.97c2.94,0,4.41-1.5,4.41-4.5v-1.49c0-3.48.86-6.15,2.56-8.01,1.5-1.65,3.51-2.48,6.03-2.48,2.88,0,5.1,1.07,6.66,3.2,1.32,1.83,1.98,4.26,1.98,7.29v1.49c0,3,1.46,4.5,4.37,4.5Zm-13,.9c1.47,0,2.63-.61,3.49-1.84.86-1.23,1.28-2.92,1.28-5.08,0-4.56-1.59-6.84-4.77-6.84s-4.72,2.28-4.72,6.84,1.57,6.93,4.72,6.93Z"/>
      <path class="cls-5" d="m834.98,287.76h2.97v3.64h-3.42c-2.49,0-4.46-.79-5.89-2.38-1.44,1.59-3.41,2.38-5.89,2.38h-3.42v-3.64h2.97c2.94,0,4.41-1.5,4.41-4.5v-9.32l3.87-2.07v11.39c0,3,1.47,4.5,4.41,4.5Zm-10.62-21.02c-1.47,0-2.21-.75-2.21-2.25s.73-2.21,2.21-2.21,2.16.74,2.16,2.21-.72,2.25-2.16,2.25Zm5.76,0c-1.47,0-2.21-.75-2.21-2.25s.73-2.21,2.21-2.21,2.16.74,2.16,2.21-.72,2.25-2.16,2.25Z"/>
      <path class="cls-5" d="m835.25,291.41v-3.64h2.97c2.94,0,4.41-1.5,4.41-4.5v-9.32l3.87-2.07v11.52c0,2.55-.77,4.56-2.29,6.03-1.41,1.32-3.26,1.98-5.54,1.98h-3.42Zm3.46-24.97c-1.47,0-2.21-.75-2.21-2.25s.73-2.21,2.21-2.21,2.16.74,2.16,2.21-.72,2.25-2.16,2.25Zm5.71,0c-1.47,0-2.21-.75-2.21-2.25s.73-2.21,2.21-2.21,2.16.74,2.16,2.21-.72,2.25-2.16,2.25Z"/>
      <path class="cls-5" d="m865.67,289.96c-1.14.45-2.54.68-4.19.68-2.67,0-4.77-1-6.3-3.02-1.29-1.71-1.93-3.85-1.93-6.43,0-3.18.85-5.67,2.56-7.47,1.53-1.62,3.54-2.43,6.03-2.43s4.52.8,5.9,2.38c1.23,1.41,1.84,3.26,1.84,5.54v9.81c0,3.39-.88,6.08-2.65,8.05-1.68,1.86-3.92,2.79-6.71,2.79-1.86,0-3.62-.44-5.27-1.3v-3.42c1.59.84,3.17,1.26,4.72,1.26,1.77,0,3.18-.56,4.23-1.69s1.63-2.71,1.76-4.75Zm0-10.57c0-3-1.28-4.5-3.83-4.5-1.5,0-2.68.55-3.53,1.67-.86,1.11-1.28,2.62-1.28,4.54s.41,3.4,1.24,4.52c.82,1.12,1.94,1.69,3.35,1.69,1.98,0,3.33-.55,4.05-1.67v-6.25Z"/>
      <path class="cls-5" d="m914.16,287.76h2.97v3.64h-3.42c-1.62,0-3.08-.36-4.37-1.08-.42,3.09-1.82,5.52-4.19,7.29-2.1,1.56-4.7,2.34-7.79,2.34-4.02,0-7.12-1.35-9.31-4.05-1.68-2.1-2.52-4.6-2.52-7.51,0-2.55.61-4.73,1.84-6.53l3.87-.85c-1.38,2.13-2.07,4.45-2.07,6.97s.79,4.53,2.38,6.12c1.47,1.47,3.4,2.21,5.8,2.21,2.73,0,4.83-.81,6.3-2.43,1.26-1.38,1.89-3.15,1.89-5.31v-24.12l3.92-2.07v20.88c0,3,1.56,4.5,4.68,4.5Z"/>
      <path class="cls-5" d="m939.05,287.76h2.56v3.64h-2.97c-2.52,0-4.49-.78-5.9-2.34-1.41,1.56-3.38,2.34-5.89,2.34h-12.42v-3.64h12.06c2.88,0,4.32-1.51,4.32-4.55v-.4c0-2.25-.87-3.96-2.61-5.13-1.38-.96-3.07-1.44-5.08-1.44-1.59,0-3.18.3-4.77.9v-3.83l9.85-10.94h3.96l-8.87,9.99h.27c3.42,0,6.18,1.04,8.28,3.11,1.89,1.92,2.83,4.35,2.83,7.29v.5c0,3,1.46,4.5,4.37,4.5Z"/>
      <path class="cls-5" d="m938.91,291.41v-3.64h7.92v3.64h-7.92Z"/>
      <path class="cls-5" d="m944.13,291.41v-3.64h7.92v3.64h-7.92Z"/>
      <path class="cls-5" d="m949.35,291.41v-3.64h7.92v3.64h-7.92Z"/>
      <path class="cls-5" d="m954.57,291.41v-3.64h4.05c2.91,0,4.37-1.5,4.37-4.5v-6.3l3.87-2.07v8.37c0,3,1.47,4.5,4.41,4.5h2.07c2.94,0,4.41-1.5,4.41-4.5v-7.83l3.87-2.03v9.86c0,3,1.45,4.5,4.36,4.5h2.12c2.94,0,4.41-1.5,4.41-4.5v-9.32l3.87-2.07v10.98c0,3.27,1.56,4.91,4.68,4.91h3.73v3.64h-4.05c-2.7,0-4.76-.92-6.17-2.75-1.26,1.8-3.22,2.72-5.89,2.75h-3.11c-2.64,0-4.61-.88-5.89-2.66-1.29,1.74-3.21,2.63-5.76,2.66h-3.11c-2.58,0-4.54-.88-5.89-2.66-1.29,1.77-3.26,2.66-5.89,2.66h-4.46Zm21.91-23.76c-1.47,0-2.21-.75-2.21-2.25s.73-2.21,2.21-2.21,2.16.74,2.16,2.21-.72,2.25-2.16,2.25Zm2.84-5.36c-1.32,0-1.98-.67-1.98-2.02s.66-1.98,1.98-1.98,1.98.66,1.98,1.98-.66,2.02-1.98,2.02Zm2.88,5.36c-1.47,0-2.21-.75-2.21-2.25s.73-2.21,2.21-2.21,2.16.74,2.16,2.21-.72,2.25-2.16,2.25Z"/>
      <path class="cls-5" d="m1002.09,291.41v-3.64h2.38c3.12,0,4.68-1.63,4.68-4.91v-18.41l3.92-2.07v20.52c0,2.67-.79,4.79-2.38,6.34-1.5,1.44-3.46,2.16-5.9,2.16h-2.7Z"/>
      <path class="cls-5" d="m1021.17,291.41v-26.96l3.87-2.07v29.03h-3.87Z"/>
      <path class="cls-5" d="m1050.19,291.41c-2.61,0-4.62-.84-6.03-2.52-1.2-1.44-1.8-3.27-1.8-5.49v-18.95l3.87-2.07v20.88c0,3,1.47,4.5,4.41,4.5h2.97v3.64h-3.42Z"/>
      <path class="cls-5" d="m1081.55,287.76h2.97v3.64h-3.42c-2.52,0-4.47-.78-5.85-2.34-1.47,1.56-3.46,2.34-5.98,2.34h-4.86c-1.02,0-1.98-.15-2.88-.45-.93.3-1.89.45-2.88.45h-7.74v-3.64h5.8c-1.14-1.53-1.71-3.27-1.71-5.22,0-1.77.44-3.27,1.3-4.5.75-2.76,2.18-4.88,4.28-6.34,1.71-1.17,3.64-1.75,5.8-1.75,3.18,0,5.8,1.08,7.88,3.24,1.95,2.04,2.93,4.67,2.93,7.88v2.21c0,3,1.46,4.5,4.37,4.5Zm-20.03-.41c2.46-.84,3.69-2.52,3.69-5.04,0-1.26-.34-2.27-1.01-3.04-.68-.76-1.57-1.15-2.68-1.15s-2,.38-2.68,1.15c-.67.77-1.01,1.78-1.01,3.04,0,2.52,1.23,4.2,3.69,5.04Zm7.61.41c1.47,0,2.53-.37,3.17-1.1s.97-1.93.97-3.58v-2.02c0-2.49-.79-4.42-2.38-5.81-1.29-1.14-2.83-1.71-4.63-1.71-2.07,0-3.69.67-4.86,2.03h.13c1.98,0,3.56.64,4.75,1.91,1.18,1.28,1.78,2.96,1.78,5.06s-.59,3.75-1.76,5.22h2.84Z"/>
      <path class="cls-5" d="m1097.48,287.76h2.97v3.64h-3.42c-2.49,0-4.46-.79-5.9-2.38-1.44,1.59-3.4,2.38-5.89,2.38h-3.42v-3.64h2.97c2.94,0,4.41-1.5,4.41-4.5v-9.32l3.87-2.07v11.39c0,3,1.47,4.5,4.41,4.5Zm-7.11-21.33c-1.47,0-2.21-.75-2.21-2.25s.73-2.21,2.21-2.21,2.16.74,2.16,2.21-.72,2.25-2.16,2.25Z"/>
      <path class="cls-5" d="m1105.13,279.21c0-2.61.78-4.63,2.34-6.07,1.38-1.23,3.18-1.85,5.4-1.85,2.85,0,5.04,1.05,6.57,3.15,1.32,1.77,1.98,4.08,1.98,6.93,0,3.24-.84,5.78-2.52,7.61-1.47,1.62-3.39,2.43-5.76,2.43-2.7,0-4.76-.75-6.17-2.25-1.44,1.5-3.38,2.25-5.8,2.25h-3.42v-3.64h2.97c2.94,0,4.41-1.5,4.41-4.5v-4.05Zm3.87,4.37c0,2.79,1.37,4.19,4.1,4.19,1.41,0,2.51-.57,3.31-1.71.79-1.14,1.19-2.73,1.19-4.77s-.42-3.58-1.26-4.7c-.84-1.12-2-1.69-3.47-1.69-2.58,0-3.87,1.5-3.87,4.5v4.18Z"/>
      <path class="cls-5" d="m1149.08,287.76h2.97v3.64h-3.42c-1.53,0-2.85-.3-3.96-.9-.27,2.97-1.3,5.34-3.11,7.11-1.65,1.62-3.72,2.43-6.21,2.43-1.8,0-3.55-.45-5.26-1.35v-3.38c1.53.84,3.06,1.26,4.59,1.26,1.92,0,3.42-.65,4.5-1.93,1.08-1.29,1.62-3.08,1.62-5.36v-15.34l3.87-2.07v.04l.04-.04v12.29c.27,2.4,1.72,3.6,4.37,3.6Z"/>
      <path class="cls-5" d="m1165.01,287.76h2.97v3.64h-3.42c-2.49,0-4.46-.79-5.9-2.38-1.44,1.59-3.4,2.38-5.89,2.38h-3.42v-3.64h2.97c2.94,0,4.41-1.5,4.41-4.5v-9.32l3.87-2.07v11.39c0,3,1.47,4.5,4.41,4.5Zm-6.62,8.14c1.44,0,2.16.73,2.16,2.21s-.72,2.25-2.16,2.25-2.21-.75-2.21-2.25.73-2.21,2.21-2.21Z"/>
      <path class="cls-5" d="m1189.9,287.76h2.56v3.64h-2.97c-2.52,0-4.49-.78-5.9-2.34-1.41,1.56-3.38,2.34-5.89,2.34h-12.42v-3.64h12.06c2.88,0,4.32-1.51,4.32-4.55v-.4c0-2.25-.87-3.96-2.61-5.13-1.38-.96-3.07-1.44-5.08-1.44-1.59,0-3.18.3-4.77.9v-3.83l9.85-10.94h3.96l-8.87,9.99h.27c3.42,0,6.18,1.04,8.28,3.11,1.89,1.92,2.83,4.35,2.83,7.29v.5c0,3,1.46,4.5,4.37,4.5Z"/>
      <path class="cls-5" d="m1189.76,291.41v-3.64h2.97c2.94,0,4.41-1.5,4.41-4.5v-9.32l3.87-2.07v11.52c0,2.55-.77,4.56-2.29,6.03-1.41,1.32-3.26,1.98-5.54,1.98h-3.42Zm2.38,8.96c-1.47,0-2.21-.75-2.21-2.25s.74-2.21,2.21-2.21,2.16.73,2.16,2.21-.72,2.25-2.16,2.25Zm5.71,0c-1.47,0-2.21-.75-2.21-2.25s.73-2.21,2.21-2.21,2.16.73,2.16,2.21-.72,2.25-2.16,2.25Z"/>
      <path class="cls-5" d="m1244.29,291.41c-.3,2.64-1.74,4.75-4.32,6.34-2.4,1.47-5.46,2.21-9.18,2.21-4.74,0-8.31-1.38-10.71-4.14-1.77-2.04-2.65-4.56-2.65-7.56,0-2.52.63-4.68,1.89-6.48l3.74-.81c-1.35,2.13-2.03,4.43-2.03,6.89,0,2.67.87,4.77,2.61,6.3,1.71,1.53,4.1,2.29,7.15,2.29,2.58,0,4.71-.45,6.39-1.35,1.68-.9,2.7-2.13,3.06-3.69h-4.5l1.89-3.64h6.79v3.64h-.14Zm-16.51,16.51c-1.47,0-2.21-.75-2.21-2.25s.73-2.21,2.21-2.21,2.16.74,2.16,2.21-.72,2.25-2.16,2.25Zm5.71,0c-1.47,0-2.21-.75-2.21-2.25s.73-2.21,2.21-2.21,2.16.74,2.16,2.21-.72,2.25-2.16,2.25Z"/>
      <path class="cls-5" d="m1257.7,287.76h2.97v3.64h-3.42c-2.49,0-4.46-.79-5.89-2.38-1.44,1.59-3.41,2.38-5.89,2.38h-3.42v-3.64h2.97c2.94,0,4.41-1.5,4.41-4.5v-9.32l3.87-2.07v11.39c0,3,1.47,4.5,4.41,4.5Zm-10.62-21.02c-1.47,0-2.21-.75-2.21-2.25s.73-2.21,2.21-2.21,2.16.74,2.16,2.21-.72,2.25-2.16,2.25Zm5.76,0c-1.47,0-2.21-.75-2.21-2.25s.73-2.21,2.21-2.21,2.16.74,2.16,2.21-.72,2.25-2.16,2.25Z"/>
      <path class="cls-5" d="m1257.97,291.41v-3.64h2.38c3.12,0,4.68-1.63,4.68-4.91v-18.41l3.91-2.07v20.52c0,2.67-.79,4.79-2.38,6.34-1.5,1.44-3.46,2.16-5.89,2.16h-2.7Z"/>
      <path class="cls-5" d="m1277.05,291.41v-26.96l3.87-2.07v29.03h-3.87Z"/>
      <path class="cls-5" d="m1316.23,287.76h2.97v3.64h-3.42c-3.09,0-5.31-1.14-6.66-3.42-1.44,1.38-3.22,2.07-5.36,2.07-2.64,0-4.74-.99-6.3-2.97-1.29-1.68-1.94-3.73-1.94-6.17,0-2.91.88-5.25,2.65-7.02,1.5-1.53,3.33-2.29,5.49-2.29,1.65,0,3.07.42,4.28,1.26v-1.93l3.91-2.07v14.4c0,3,1.46,4.5,4.37,4.5Zm-8.28-10.71c-1.11-1.23-2.47-1.84-4.1-1.84-1.32,0-2.4.53-3.24,1.6-.84,1.07-1.26,2.45-1.26,4.16s.42,3.14,1.26,4.19c.84,1.05,1.94,1.58,3.29,1.58,1.68,0,3.06-.69,4.14-2.07-.06-.54-.09-.96-.09-1.26v-6.35Zm-5.8-11.07c-1.47,0-2.21-.75-2.21-2.25s.73-2.21,2.21-2.21,2.16.74,2.16,2.21-.72,2.25-2.16,2.25Zm5.71,0c-1.47,0-2.21-.75-2.21-2.25s.73-2.21,2.21-2.21,2.16.74,2.16,2.21-.72,2.25-2.16,2.25Z"/>
      <path class="cls-5" d="m1332.16,287.76h2.97v3.64h-3.42c-2.49,0-4.46-.79-5.89-2.38-1.44,1.59-3.41,2.38-5.89,2.38h-3.42v-3.64h2.97c2.94,0,4.41-1.5,4.41-4.5v-9.32l3.87-2.07v11.39c0,3,1.47,4.5,4.41,4.5Zm-10.62-21.02c-1.47,0-2.21-.75-2.21-2.25s.73-2.21,2.21-2.21,2.16.74,2.16,2.21-.72,2.25-2.16,2.25Zm5.76,0c-1.47,0-2.21-.75-2.21-2.25s.73-2.21,2.21-2.21,2.16.74,2.16,2.21-.72,2.25-2.16,2.25Z"/>
      <path class="cls-5" d="m1332.43,291.41v-3.64h2.97c2.94,0,4.41-1.5,4.41-4.5v-9.32l3.87-2.07v11.52c0,2.55-.77,4.56-2.29,6.03-1.41,1.32-3.26,1.98-5.54,1.98h-3.42Zm7.24,8.96c-1.47,0-2.2-.75-2.2-2.25s.73-2.21,2.2-2.21,2.16.73,2.16,2.21-.72,2.25-2.16,2.25Z"/>
      <path class="cls-5" d="m1359.61,291.41c-2.61,0-4.62-.84-6.03-2.52-1.2-1.44-1.8-3.27-1.8-5.49v-18.95l3.87-2.07v20.88c0,3,1.47,4.5,4.41,4.5h2.97v3.64h-3.42Z"/>
      <path class="cls-5" d="m1375.99,287.76h2.97v3.64h-3.42c-2.49,0-4.46-.79-5.89-2.38-1.44,1.59-3.41,2.38-5.89,2.38h-3.42v-3.64h2.97c2.94,0,4.41-1.5,4.41-4.5v-9.32l3.87-2.07v11.39c0,3,1.47,4.5,4.41,4.5Zm-10.48-21.02c-1.47,0-2.21-.75-2.21-2.25s.73-2.21,2.21-2.21,2.16.74,2.16,2.21-.72,2.25-2.16,2.25Zm2.84-5.35c-1.38,0-2.07-.71-2.07-2.12s.69-2.07,2.07-2.07,2.07.69,2.07,2.07-.69,2.12-2.07,2.12Zm.67,3.1c0-1.47.73-2.21,2.21-2.21s2.16.74,2.16,2.21-.72,2.25-2.16,2.25-2.21-.75-2.21-2.25Z"/>
      <path class="cls-5" d="m1376.26,291.41v-3.64h2.38c3.12,0,4.68-1.63,4.68-4.91v-18.41l3.92-2.07v20.52c0,2.67-.79,4.79-2.38,6.34-1.5,1.44-3.46,2.16-5.9,2.16h-2.7Z"/>
      <path class="cls-5" d="m1395.34,291.41v-26.96l3.87-2.07v29.03h-3.87Z"/>
      <path class="cls-5" d="m1434.52,287.76h2.97v3.64h-3.42c-3.09,0-5.31-1.14-6.66-3.42-1.44,1.38-3.23,2.07-5.36,2.07-2.64,0-4.74-.99-6.3-2.97-1.29-1.68-1.94-3.73-1.94-6.17,0-2.91.88-5.25,2.66-7.02,1.5-1.53,3.33-2.29,5.49-2.29,1.65,0,3.07.42,4.27,1.26v-1.93l3.92-2.07v14.4c0,3,1.46,4.5,4.37,4.5Zm-8.28-10.71c-1.11-1.23-2.47-1.84-4.09-1.84-1.32,0-2.4.53-3.24,1.6-.84,1.07-1.26,2.45-1.26,4.16s.42,3.14,1.26,4.19c.84,1.05,1.94,1.58,3.29,1.58,1.68,0,3.06-.69,4.14-2.07-.06-.54-.09-.96-.09-1.26v-6.35Zm-5.8-11.07c-1.47,0-2.21-.75-2.21-2.25s.74-2.21,2.21-2.21,2.16.74,2.16,2.21-.72,2.25-2.16,2.25Zm5.71,0c-1.47,0-2.21-.75-2.21-2.25s.74-2.21,2.21-2.21,2.16.74,2.16,2.21-.72,2.25-2.16,2.25Z"/>
      <path class="cls-5" d="m1475.02,287.76h2.97v3.64h-3.42c-2.4,0-4.27-.7-5.62-2.12-1.23,1.41-2.97,2.12-5.22,2.12h-28.94v-3.64h8.37l.14-.5v-22.82l3.87-2.07v16.47c3.42-5.04,7.66-7.56,12.73-7.56,3.39,0,6.11,1.19,8.15,3.56,1.74,2.01,2.61,4.48,2.61,7.42v1.08c0,2.94,1.46,4.41,4.37,4.41Zm-8.28-4.23v-1.26c0-2.34-.72-4.2-2.16-5.58-1.23-1.2-2.78-1.8-4.64-1.8-3.09,0-5.88,1.39-8.37,4.18-1.86,2.1-3.33,4.72-4.41,7.88v.81h16.24c1.29,0,2.17-.3,2.63-.9.46-.6.7-1.71.7-3.33Z"/>
      <path class="cls-5" d="m1494.96,287.76h8.37v3.64h-10.98c-1.17,0-2.19-.1-3.06-.32-.84.21-1.86.32-3.06.32h-10.94v-3.64h8.37c-1.86-2.13-2.79-4.49-2.79-7.07,0-2.94.82-5.28,2.47-7.02,1.5-1.59,3.48-2.38,5.94-2.38,2.82,0,5,1.02,6.53,3.06,1.29,1.68,1.94,3.79,1.94,6.34s-.93,4.94-2.79,7.07Zm-8.51-21.02c-1.47,0-2.21-.75-2.21-2.25s.73-2.21,2.21-2.21,2.16.74,2.16,2.21-.72,2.25-2.16,2.25Zm2.88,20.61c1.38-.48,2.5-1.36,3.38-2.63.87-1.27,1.3-2.68,1.3-4.21,0-1.74-.43-3.11-1.28-4.12-.86-1-2-1.51-3.44-1.51s-2.59.51-3.44,1.53c-.86,1.02-1.28,2.39-1.28,4.1,0,1.5.45,2.9,1.35,4.18.9,1.29,2.04,2.18,3.42,2.66Zm2.83-20.61c-1.47,0-2.21-.75-2.21-2.25s.73-2.21,2.21-2.21,2.16.74,2.16,2.21-.72,2.25-2.16,2.25Z"/>
      <path class="cls-5" d="m1516.29,287.76h2.97v3.64h-3.42c-2.49,0-4.46-.79-5.89-2.38-1.44,1.59-3.41,2.38-5.89,2.38h-3.42v-3.64h2.97c2.94,0,4.41-1.5,4.41-4.5v-9.32l3.87-2.07v11.39c0,3,1.47,4.5,4.41,4.5Zm-7.11-21.33c-1.47,0-2.21-.75-2.21-2.25s.73-2.21,2.21-2.21,2.16.74,2.16,2.21-.72,2.25-2.16,2.25Z"/>
      <path class="cls-5" d="m1516.56,291.41v-3.64h2.38c3.12,0,4.68-1.63,4.68-4.91v-18.41l3.91-2.07v20.52c0,2.67-.79,4.79-2.38,6.34-1.5,1.44-3.46,2.16-5.89,2.16h-2.7Z"/>
      <path class="cls-5" d="m1535.64,291.41v-26.96l3.87-2.07v29.03h-3.87Z"/>
      <path class="cls-5" d="m836.34,362.25v-.09c.06-1.5.86-2.25,2.39-2.25s2.38.78,2.38,2.34-.8,2.38-2.38,2.38-2.39-.79-2.39-2.38Z"/>
      <path class="cls-5" d="m868.42,361.66c-2.52,2.19-5.26,3.29-8.23,3.29-4.32,0-7.67-1.67-10.04-5-1.86-2.64-2.79-5.8-2.79-9.5,0-4.2,1.15-7.79,3.46-10.75,2.28-2.88,5.17-4.32,8.69-4.32,3.12,0,5.97,1.04,8.55,3.11l-1.66,2.52c-2.04-1.35-4.07-2.02-6.08-2.02-2.73,0-4.88,1.12-6.43,3.38-1.41,2.04-2.12,4.74-2.12,8.1s.88,6,2.65,8.01c1.62,1.86,3.72,2.79,6.3,2.79,1.95,0,3.96-.7,6.03-2.11l1.66,2.52Z"/>
      <path class="cls-5" d="m903.21,360.76h2.97v3.64h-3.42c-3.09,0-5.31-1.14-6.66-3.42-1.44,1.38-3.22,2.07-5.36,2.07-2.64,0-4.74-.99-6.3-2.97-1.29-1.68-1.94-3.73-1.94-6.17,0-2.91.88-5.25,2.65-7.02,1.5-1.53,3.33-2.29,5.49-2.29,1.65,0,3.07.42,4.28,1.26v-1.93l3.91-2.07v14.4c0,3,1.46,4.5,4.37,4.5Zm-8.28-10.71c-1.11-1.23-2.47-1.84-4.1-1.84-1.32,0-2.4.53-3.24,1.6-.84,1.07-1.26,2.45-1.26,4.16s.42,3.14,1.26,4.19c.84,1.05,1.94,1.58,3.29,1.58,1.68,0,3.06-.69,4.14-2.07-.06-.54-.09-.96-.09-1.26v-6.35Zm-5.8-11.07c-1.47,0-2.21-.75-2.21-2.25s.73-2.21,2.21-2.21,2.16.74,2.16,2.21-.72,2.25-2.16,2.25Zm5.71,0c-1.47,0-2.21-.75-2.21-2.25s.73-2.21,2.21-2.21,2.16.74,2.16,2.21-.72,2.25-2.16,2.25Z"/>
      <path class="cls-5" d="m943.71,360.76h2.97v3.64h-3.42c-2.4,0-4.28-.7-5.62-2.12-1.23,1.41-2.97,2.12-5.22,2.12h-28.93v-3.64h8.37l.13-.5v-22.82l3.87-2.07v16.47c3.42-5.04,7.66-7.56,12.73-7.56,3.39,0,6.1,1.19,8.14,3.56,1.74,2.01,2.61,4.48,2.61,7.42v1.08c0,2.94,1.46,4.41,4.37,4.41Zm-8.28-4.23v-1.26c0-2.34-.72-4.2-2.16-5.58-1.23-1.2-2.78-1.8-4.63-1.8-3.09,0-5.88,1.39-8.37,4.18-1.86,2.1-3.33,4.72-4.41,7.88v.81h16.24c1.29,0,2.17-.3,2.63-.9.46-.6.7-1.71.7-3.33Z"/>
      <path class="cls-5" d="m963.64,360.76h8.37v3.64h-10.98c-1.17,0-2.19-.1-3.06-.32-.84.21-1.86.32-3.06.32h-10.93v-3.64h8.37c-1.86-2.13-2.79-4.49-2.79-7.07,0-2.94.82-5.28,2.47-7.02,1.5-1.59,3.48-2.38,5.94-2.38,2.82,0,4.99,1.02,6.53,3.06,1.29,1.68,1.94,3.79,1.94,6.34s-.93,4.94-2.79,7.07Zm-8.51-21.02c-1.47,0-2.2-.75-2.2-2.25s.73-2.21,2.2-2.21,2.16.74,2.16,2.21-.72,2.25-2.16,2.25Zm2.88,20.61c1.38-.48,2.5-1.36,3.38-2.63.87-1.27,1.3-2.68,1.3-4.21,0-1.74-.43-3.11-1.28-4.12-.86-1-2-1.51-3.44-1.51s-2.59.51-3.44,1.53c-.85,1.02-1.28,2.39-1.28,4.1,0,1.5.45,2.9,1.35,4.18.9,1.29,2.04,2.18,3.42,2.66Zm2.84-20.61c-1.47,0-2.21-.75-2.21-2.25s.73-2.21,2.21-2.21,2.16.74,2.16,2.21-.72,2.25-2.16,2.25Z"/>
      <path class="cls-5" d="m984.97,360.76h2.97v3.64h-3.42c-2.49,0-4.46-.79-5.9-2.38-1.44,1.59-3.4,2.38-5.89,2.38h-3.42v-3.64h2.97c2.94,0,4.41-1.5,4.41-4.5v-9.32l3.87-2.07v11.39c0,3,1.47,4.5,4.41,4.5Zm-7.11-21.33c-1.47,0-2.21-.75-2.21-2.25s.73-2.21,2.21-2.21,2.16.74,2.16,2.21-.72,2.25-2.16,2.25Z"/>
      <path class="cls-5" d="m985.24,364.41v-3.64h2.38c3.12,0,4.68-1.63,4.68-4.91v-18.41l3.92-2.07v20.52c0,2.67-.79,4.79-2.38,6.34-1.5,1.44-3.46,2.16-5.9,2.16h-2.7Z"/>
      <path class="cls-5" d="m1004.32,364.41v-26.96l3.87-2.07v29.03h-3.87Z"/>
      <path class="cls-5" d="m1052.74,364.41c-.3,2.64-1.74,4.75-4.32,6.34-2.4,1.47-5.46,2.21-9.18,2.21-4.74,0-8.31-1.38-10.71-4.14-1.77-2.04-2.65-4.56-2.65-7.56,0-2.52.63-4.68,1.89-6.48l3.73-.81c-1.35,2.13-2.03,4.43-2.03,6.89,0,2.67.87,4.77,2.61,6.3,1.71,1.53,4.09,2.29,7.15,2.29,2.58,0,4.71-.45,6.39-1.35,1.68-.9,2.7-2.13,3.06-3.69h-4.5l1.89-3.64h6.79v3.64h-.13Zm-16.52,16.51c-1.47,0-2.21-.75-2.21-2.25s.73-2.21,2.21-2.21,2.16.74,2.16,2.21-.72,2.25-2.16,2.25Zm5.71,0c-1.47,0-2.21-.75-2.21-2.25s.74-2.21,2.21-2.21,2.16.74,2.16,2.21-.72,2.25-2.16,2.25Z"/>
      <path class="cls-5" d="m1050.49,364.41v-3.64h8.1c-1.38-1.53-2.07-3.66-2.07-6.39,0-3.27.86-5.82,2.57-7.65,1.5-1.62,3.49-2.43,5.98-2.43s4.53.8,5.94,2.38c1.2,1.41,1.8,3.26,1.8,5.54v4.28c-.03,2.49-.77,4.46-2.21,5.89-1.41,1.35-3.29,2.03-5.62,2.03h-14.49Zm18.45-12.01c0-3-1.29-4.5-3.87-4.5-1.47,0-2.62.56-3.46,1.69s-1.26,2.69-1.26,4.7.4,3.55,1.21,4.72,1.89,1.76,3.24,1.76c2.76,0,4.14-1.44,4.14-4.32v-4.05Zm-3.78-12.69c-1.47,0-2.21-.75-2.21-2.25s.73-2.21,2.21-2.21,2.16.74,2.16,2.21-.72,2.25-2.16,2.25Z"/>
      <path class="cls-5" d="m1098.78,364.41c-2.61,0-4.62-.84-6.03-2.52-1.2-1.44-1.8-3.27-1.8-5.49v-18.95l3.87-2.07v20.88c0,3,1.47,4.5,4.41,4.5h2.97v3.64h-3.42Z"/>
      <path class="cls-5" d="m1115.15,360.76h2.97v3.64h-3.42c-2.49,0-4.46-.79-5.89-2.38-1.44,1.59-3.41,2.38-5.89,2.38h-3.42v-3.64h2.97c2.94,0,4.41-1.5,4.41-4.5v-9.32l3.87-2.07v11.39c0,3,1.47,4.5,4.41,4.5Zm-7.11-21.33c-1.47,0-2.21-.75-2.21-2.25s.73-2.21,2.21-2.21,2.16.74,2.16,2.21-.72,2.25-2.16,2.25Z"/>
      <path class="cls-5" d="m1122.8,352.21c0-2.61.78-4.63,2.34-6.07,1.38-1.23,3.18-1.85,5.4-1.85,2.85,0,5.04,1.05,6.57,3.15,1.32,1.77,1.98,4.08,1.98,6.93,0,3.24-.84,5.78-2.52,7.61-1.47,1.62-3.39,2.43-5.76,2.43-2.7,0-4.75-.75-6.16-2.25-1.44,1.5-3.38,2.25-5.8,2.25h-3.42v-3.64h2.97c2.94,0,4.41-1.5,4.41-4.5v-4.05Zm3.87,4.37c0,2.79,1.36,4.19,4.09,4.19,1.41,0,2.51-.57,3.31-1.71.79-1.14,1.19-2.73,1.19-4.77s-.42-3.58-1.26-4.7-2-1.69-3.46-1.69c-2.58,0-3.87,1.5-3.87,4.5v4.18Z"/>
      <path class="cls-5" d="m1154.35,364.41c-2.61,0-4.62-.84-6.03-2.52-1.2-1.44-1.8-3.27-1.8-5.49v-18.95l3.87-2.07v20.88c0,3,1.47,4.5,4.41,4.5h2.97v3.64h-3.42Z"/>
      <path class="cls-5" d="m1162.45,352.21c0-2.61.78-4.63,2.34-6.07,1.38-1.23,3.18-1.85,5.4-1.85,2.85,0,5.04,1.05,6.57,3.15,1.32,1.77,1.98,4.08,1.98,6.93,0,3.24-.84,5.78-2.52,7.61-1.47,1.62-3.39,2.43-5.76,2.43-2.7,0-4.76-.75-6.17-2.25-1.44,1.5-3.38,2.25-5.8,2.25h-3.42v-3.64h2.97c2.94,0,4.41-1.5,4.41-4.5v-4.05Zm3.87,4.37c0,2.79,1.37,4.19,4.1,4.19,1.41,0,2.51-.57,3.31-1.71.79-1.14,1.19-2.73,1.19-4.77s-.42-3.58-1.26-4.7c-.84-1.12-2-1.69-3.47-1.69-2.58,0-3.87,1.5-3.87,4.5v4.18Z"/>
      <path class="cls-5" d="m1183.78,334.75l1.04-1.93h1.21c-.3-.54-.45-1.09-.45-1.67,0-.9.33-1.67.99-2.32.66-.64,1.44-.97,2.34-.97.75,0,1.47.24,2.16.72v1.98c-.66-.51-1.29-.77-1.89-.77-1.11,0-1.67.5-1.67,1.49,0,.51.21,1.02.63,1.53h4.09l-1.04,1.93h-7.42Zm2.38,29.66v-25.16l3.87-2.07v27.22h-3.87Z"/>
      <path class="cls-5" d="m1205.02,364.41l1.89-3.64h8.01c1.2,0,2.05-.3,2.54-.9.5-.6.74-1.63.74-3.11,0-4.02-1.81-7.06-5.44-9.13l1.89-3.2c4.95,2.82,7.43,6.95,7.43,12.38,0,5.07-2.16,7.61-6.48,7.61h-10.57Z"/>
      <path class="cls-5" d="m1250.29,360.76v3.64h-5.58c-.12,2.58-1.23,4.71-3.33,6.39-1.77,1.38-3.78,2.07-6.03,2.07-1.86,0-3.62-.44-5.26-1.3v-3.42c1.59.84,3.16,1.26,4.72,1.26s2.98-.5,4.16-1.49,1.79-2.17,1.82-3.55c-1.56-.06-2.71-.12-3.46-.18-3.24-.18-5.69-1.28-7.34-3.29-1.38-1.68-2.07-3.85-2.07-6.53,0-3.27.87-5.82,2.61-7.65,1.56-1.62,3.62-2.43,6.16-2.43s4.73.8,6.17,2.38c1.23,1.41,1.85,3.26,1.85,5.54v8.55h5.58Zm-9.5-8.28c0-3.06-1.37-4.59-4.1-4.59-1.56,0-2.77.56-3.64,1.69-.87,1.12-1.3,2.69-1.3,4.7,0,3.93,1.92,6.02,5.76,6.25.72.09,1.81.17,3.29.23v-8.28Z"/>
      <path class="cls-5" d="m1247.59,364.41v-3.64h6.17c6.09,0,10.9-2.01,14.44-6.03-2.49-4.59-5.52-6.88-9.09-6.88-2.43,0-4.94,1.29-7.51,3.87v-3.6c2.52-2.55,5.19-3.83,8.01-3.83,2.31,0,4.54.83,6.71,2.5s4.06,4.04,5.71,7.13v1.98c-4.41,5.67-10.52,8.5-18.32,8.5h-6.12Zm13.19,8.96c-1.47,0-2.21-.75-2.21-2.25s.73-2.21,2.21-2.21,2.16.73,2.16,2.21-.72,2.25-2.16,2.25Z"/>
      <path class="cls-5" d="m1299.34,360.76v3.64h-5.58c-.12,2.58-1.23,4.71-3.33,6.39-1.77,1.38-3.78,2.07-6.03,2.07-1.86,0-3.62-.44-5.27-1.3v-3.42c1.59.84,3.16,1.26,4.72,1.26s2.98-.5,4.16-1.49c1.19-.99,1.79-2.17,1.82-3.55-1.56-.06-2.72-.12-3.46-.18-3.24-.18-5.69-1.28-7.34-3.29-1.38-1.68-2.07-3.85-2.07-6.53,0-3.27.87-5.82,2.61-7.65,1.56-1.62,3.62-2.43,6.17-2.43s4.72.8,6.16,2.38c1.23,1.41,1.85,3.26,1.85,5.54v8.55h5.58Zm-9.49-8.28c0-3.06-1.37-4.59-4.1-4.59-1.56,0-2.78.56-3.64,1.69-.87,1.12-1.3,2.69-1.3,4.7,0,3.93,1.92,6.02,5.76,6.25.72.09,1.81.17,3.29.23v-8.28Z"/>
      <path class="cls-5" d="m1325.62,360.76h3.01v3.64h-3.42c-2.49,0-4.46-.79-5.89-2.38-1.53,2.19-3.77,3.29-6.71,3.29s-5.16-1.08-6.66-3.24c-1.41,1.56-3.38,2.34-5.89,2.34h-3.42v-3.64h2.97c2.94,0,4.41-1.5,4.41-4.5v-1.49c0-3.48.85-6.15,2.56-8.01,1.5-1.65,3.51-2.48,6.03-2.48,2.88,0,5.1,1.07,6.66,3.2,1.32,1.83,1.98,4.26,1.98,7.29v1.49c0,3,1.46,4.5,4.37,4.5Zm-13.01.9c1.47,0,2.63-.61,3.49-1.84.86-1.23,1.28-2.92,1.28-5.08,0-4.56-1.59-6.84-4.77-6.84s-4.72,2.28-4.72,6.84,1.57,6.93,4.72,6.93Z"/>
      <path class="cls-5" d="m1325.94,364.41v-3.64h2.38c3.12,0,4.68-1.63,4.68-4.91v-18.41l3.92-2.07v20.52c0,2.67-.79,4.79-2.38,6.34-1.5,1.44-3.46,2.16-5.9,2.16h-2.7Z"/>
      <path class="cls-5" d="m1345.02,364.41v-26.96l3.87-2.07v29.03h-3.87Z"/>
      <path class="cls-5" d="m1390.51,361.57c0,3.57-1.24,6.42-3.73,8.55-2.19,1.89-4.98,2.83-8.37,2.83-4.02,0-7.13-1.35-9.32-4.05-1.68-2.1-2.52-4.6-2.52-7.51,0-2.55.62-4.73,1.85-6.53l3.87-.85c-1.38,2.13-2.07,4.45-2.07,6.97s.79,4.53,2.38,6.12c1.47,1.47,3.41,2.21,5.81,2.21,2.73,0,4.83-.81,6.3-2.43,1.26-1.38,1.89-3.15,1.89-5.31v-24.12l3.91-2.07v26.19Z"/>
      <path class="cls-5" d="m1406.44,364.41c-2.61,0-4.62-.84-6.03-2.52-1.2-1.44-1.8-3.27-1.8-5.49v-18.95l3.87-2.07v20.88c0,3,1.47,4.5,4.41,4.5h2.97v3.64h-3.42Z"/>
      <path class="cls-5" d="m1422.82,360.76h2.97v3.64h-3.42c-2.49,0-4.46-.79-5.9-2.38-1.44,1.59-3.4,2.38-5.89,2.38h-3.42v-3.64h2.97c2.94,0,4.41-1.5,4.41-4.5v-9.32l3.87-2.07v11.39c0,3,1.47,4.5,4.41,4.5Zm-10.48-21.02c-1.47,0-2.21-.75-2.21-2.25s.73-2.21,2.21-2.21,2.16.74,2.16,2.21-.72,2.25-2.16,2.25Zm2.83-5.35c-1.38,0-2.07-.71-2.07-2.12s.69-2.07,2.07-2.07,2.07.69,2.07,2.07-.69,2.12-2.07,2.12Zm.68,3.1c0-1.47.73-2.21,2.21-2.21s2.16.74,2.16,2.21-.72,2.25-2.16,2.25-2.21-.75-2.21-2.25Z"/>
      <path class="cls-5" d="m1452.07,360.76h3.01v3.64h-3.42c-2.49,0-4.46-.79-5.89-2.38-1.53,2.19-3.77,3.29-6.71,3.29s-5.16-1.08-6.66-3.24c-1.41,1.56-3.38,2.34-5.89,2.34h-3.42v-3.64h2.97c2.94,0,4.41-1.5,4.41-4.5v-1.49c0-3.48.85-6.15,2.56-8.01,1.5-1.65,3.51-2.48,6.03-2.48,2.88,0,5.1,1.07,6.66,3.2,1.32,1.83,1.98,4.26,1.98,7.29v1.49c0,3,1.46,4.5,4.37,4.5Zm-13.01.9c1.47,0,2.63-.61,3.49-1.84.86-1.23,1.28-2.92,1.28-5.08,0-4.56-1.59-6.84-4.77-6.84s-4.72,2.28-4.72,6.84,1.57,6.93,4.72,6.93Z"/>
      <path class="cls-5" d="m1452.39,364.41v-3.64h2.38c3.12,0,4.68-1.63,4.68-4.91v-18.41l3.91-2.07v20.52c0,2.67-.79,4.79-2.38,6.34-1.5,1.44-3.46,2.16-5.89,2.16h-2.7Z"/>
      <path class="cls-5" d="m1471.46,364.41v-26.96l3.87-2.07v29.03h-3.87Z"/>
      <path class="cls-5" d="m1519.88,364.41c-.3,2.64-1.74,4.75-4.32,6.34-2.4,1.47-5.46,2.21-9.18,2.21-4.74,0-8.31-1.38-10.71-4.14-1.77-2.04-2.65-4.56-2.65-7.56,0-2.52.63-4.68,1.89-6.48l3.74-.81c-1.35,2.13-2.03,4.43-2.03,6.89,0,2.67.87,4.77,2.61,6.3,1.71,1.53,4.1,2.29,7.15,2.29,2.58,0,4.71-.45,6.39-1.35,1.68-.9,2.7-2.13,3.06-3.69h-4.5l1.89-3.64h6.79v3.64h-.14Zm-16.51,16.51c-1.47,0-2.21-.75-2.21-2.25s.73-2.21,2.21-2.21,2.16.74,2.16,2.21-.72,2.25-2.16,2.25Zm5.71,0c-1.47,0-2.21-.75-2.21-2.25s.73-2.21,2.21-2.21,2.16.74,2.16,2.21-.72,2.25-2.16,2.25Z"/>
      <path class="cls-5" d="m1517.63,364.41v-3.64h8.1c-1.38-1.53-2.07-3.66-2.07-6.39,0-3.27.86-5.82,2.57-7.65,1.5-1.62,3.49-2.43,5.98-2.43s4.53.8,5.94,2.38c1.2,1.41,1.8,3.26,1.8,5.54v4.28c-.03,2.49-.77,4.46-2.21,5.89-1.41,1.35-3.29,2.03-5.62,2.03h-14.49Zm18.45-12.01c0-3-1.29-4.5-3.87-4.5-1.47,0-2.62.56-3.46,1.69s-1.26,2.69-1.26,4.7.4,3.55,1.21,4.72,1.89,1.76,3.24,1.76c2.76,0,4.14-1.44,4.14-4.32v-4.05Zm-3.78-12.69c-1.47,0-2.21-.75-2.21-2.25s.73-2.21,2.21-2.21,2.16.74,2.16,2.21-.72,2.25-2.16,2.25Z"/>
    </g>
  </g>
  <g class="cls-7">
    <g class="cls-6">
      <g>
        <g>
          <line class="cls-1" x1="8.09" y1="386.92" x2="8.09" y2="2316.59"/>
          <line class="cls-1" x1="66.56" y1="386.92" x2="66.56" y2="2316.59"/>
          <line class="cls-1" x1="125.03" y1="386.92" x2="125.03" y2="2316.59"/>
          <line class="cls-1" x1="183.51" y1="386.92" x2="183.51" y2="2316.59"/>
          <line class="cls-1" x1="241.98" y1="386.92" x2="241.98" y2="2316.59"/>
          <line class="cls-1" x1="300.46" y1="386.92" x2="300.46" y2="2316.59"/>
          <line class="cls-1" x1="358.94" y1="386.92" x2="358.94" y2="2316.59"/>
          <line class="cls-1" x1="417.41" y1="386.92" x2="417.41" y2="2316.59"/>
          <line class="cls-1" x1="475.89" y1="386.92" x2="475.89" y2="2316.59"/>
          <line class="cls-1" x1="534.36" y1="386.92" x2="534.36" y2="2316.59"/>
          <line class="cls-1" x1="592.83" y1="386.92" x2="592.83" y2="2316.59"/>
          <line class="cls-1" x1="651.31" y1="386.92" x2="651.31" y2="2316.59"/>
          <line class="cls-1" x1="709.78" y1="386.92" x2="709.78" y2="2316.59"/>
          <line class="cls-1" x1="768.26" y1="386.92" x2="768.26" y2="2316.59"/>
          <line class="cls-1" x1="826.74" y1="386.92" x2="826.74" y2="2316.59"/>
          <line class="cls-1" x1="885.21" y1="386.92" x2="885.21" y2="2316.59"/>
          <line class="cls-1" x1="943.69" y1="386.92" x2="943.69" y2="2316.59"/>
          <line class="cls-1" x1="1002.16" y1="386.92" x2="1002.16" y2="2316.59"/>
          <line class="cls-1" x1="1060.63" y1="386.92" x2="1060.63" y2="2316.59"/>
          <line class="cls-1" x1="1119.11" y1="386.92" x2="1119.11" y2="2316.59"/>
          <line class="cls-1" x1="1177.58" y1="386.92" x2="1177.58" y2="2316.59"/>
          <line class="cls-1" x1="1236.06" y1="386.92" x2="1236.06" y2="2316.59"/>
          <line class="cls-1" x1="1294.54" y1="386.92" x2="1294.54" y2="2316.59"/>
          <line class="cls-1" x1="1353.01" y1="386.92" x2="1353.01" y2="2316.59"/>
          <line class="cls-1" x1="1411.49" y1="386.92" x2="1411.49" y2="2316.59"/>
          <line class="cls-1" x1="1469.96" y1="386.92" x2="1469.96" y2="2316.59"/>
          <line class="cls-1" x1="1528.43" y1="386.92" x2="1528.43" y2="2316.59"/>
          <line class="cls-1" x1="1586.91" y1="386.92" x2="1586.91" y2="2316.59"/>
        </g>
        <g>
          <line class="cls-1" x1="1586.9" y1="386.92" x2="-342.76" y2="386.92"/>
          <line class="cls-1" x1="1586.9" y1="445.4" x2="-342.76" y2="445.4"/>
          <line class="cls-1" x1="1586.9" y1="503.87" x2="-342.76" y2="503.87"/>
          <line class="cls-1" x1="1586.9" y1="562.34" x2="-342.76" y2="562.34"/>
          <line class="cls-1" x1="1586.9" y1="620.82" x2="-342.76" y2="620.82"/>
          <line class="cls-1" x1="1586.9" y1="679.3" x2="-342.76" y2="679.3"/>
        </g>
      </g>
    </g>
  </g>
</svg>