<?xml version="1.0" encoding="UTF-8"?>
<svg id="Layer_1" data-name="Layer 1" xmlns="http://www.w3.org/2000/svg" width="1641" height="697" xmlns:xlink="http://www.w3.org/1999/xlink" viewBox="0 0 1641 697">
  <defs>
    <style>
      .cls-1 {
        stroke: #fff;
        stroke-width: 3.61px;
      }

      .cls-1, .cls-2, .cls-3, .cls-4 {
        fill: none;
      }

      .cls-1, .cls-3, .cls-4 {
        stroke-linecap: round;
        stroke-linejoin: round;
      }

      .cls-5 {
        fill: #e0e0e0;
      }

      .cls-5, .cls-6, .cls-2, .cls-7, .cls-8, .cls-9, .cls-10 {
        stroke-width: 0px;
      }

      .cls-6 {
        fill: #6fafcd;
      }

      .cls-7 {
        fill: #766fa4;
      }

      .cls-3 {
        stroke: #7e4d7c;
        stroke-width: 5px;
      }

      .cls-11 {
        opacity: .26;
      }

      .cls-12 {
        opacity: .1;
      }

      .cls-13 {
        clip-path: url(#clippath);
      }

      .cls-8 {
        fill: #6c90be;
      }

      .cls-9 {
        fill: #f3f2f3;
      }

      .cls-4 {
        stroke: #b2b2b2;
        stroke-width: 3px;
      }

      .cls-10 {
        fill: #273551;
      }
    </style>
    <clipPath id="clippath">
      <rect class="cls-2" x="-340.24" y="979.52" width="1918.37" height="550.14"/>
    </clipPath>
  </defs>
  <g class="cls-13">
    <g class="cls-12">
      <g>
        <g>
          <line class="cls-1" x1="8.09" y1="386.92" x2="8.09" y2="2316.59"/>
          <line class="cls-1" x1="66.56" y1="386.92" x2="66.56" y2="2316.59"/>
          <line class="cls-1" x1="125.03" y1="386.92" x2="125.03" y2="2316.59"/>
          <line class="cls-1" x1="183.51" y1="386.92" x2="183.51" y2="2316.59"/>
          <line class="cls-1" x1="241.98" y1="386.92" x2="241.98" y2="2316.59"/>
          <line class="cls-1" x1="300.46" y1="386.92" x2="300.46" y2="2316.59"/>
          <line class="cls-1" x1="358.94" y1="386.92" x2="358.94" y2="2316.59"/>
          <line class="cls-1" x1="417.41" y1="386.92" x2="417.41" y2="2316.59"/>
          <line class="cls-1" x1="475.89" y1="386.92" x2="475.89" y2="2316.59"/>
          <line class="cls-1" x1="534.36" y1="386.92" x2="534.36" y2="2316.59"/>
          <line class="cls-1" x1="592.83" y1="386.92" x2="592.83" y2="2316.59"/>
          <line class="cls-1" x1="651.31" y1="386.92" x2="651.31" y2="2316.59"/>
          <line class="cls-1" x1="709.78" y1="386.92" x2="709.78" y2="2316.59"/>
          <line class="cls-1" x1="768.26" y1="386.92" x2="768.26" y2="2316.59"/>
          <line class="cls-1" x1="826.74" y1="386.92" x2="826.74" y2="2316.59"/>
          <line class="cls-1" x1="885.21" y1="386.92" x2="885.21" y2="2316.59"/>
          <line class="cls-1" x1="943.69" y1="386.92" x2="943.69" y2="2316.59"/>
          <line class="cls-1" x1="1002.16" y1="386.92" x2="1002.16" y2="2316.59"/>
          <line class="cls-1" x1="1060.63" y1="386.92" x2="1060.63" y2="2316.59"/>
          <line class="cls-1" x1="1119.11" y1="386.92" x2="1119.11" y2="2316.59"/>
          <line class="cls-1" x1="1177.58" y1="386.92" x2="1177.58" y2="2316.59"/>
          <line class="cls-1" x1="1236.06" y1="386.92" x2="1236.06" y2="2316.59"/>
          <line class="cls-1" x1="1294.54" y1="386.92" x2="1294.54" y2="2316.59"/>
          <line class="cls-1" x1="1353.01" y1="386.92" x2="1353.01" y2="2316.59"/>
          <line class="cls-1" x1="1411.49" y1="386.92" x2="1411.49" y2="2316.59"/>
          <line class="cls-1" x1="1469.96" y1="386.92" x2="1469.96" y2="2316.59"/>
          <line class="cls-1" x1="1528.43" y1="386.92" x2="1528.43" y2="2316.59"/>
          <line class="cls-1" x1="1586.91" y1="386.92" x2="1586.91" y2="2316.59"/>
        </g>
        <g>
          <line class="cls-1" x1="1586.9" y1="386.92" x2="-342.76" y2="386.92"/>
          <line class="cls-1" x1="1586.9" y1="445.4" x2="-342.76" y2="445.4"/>
          <line class="cls-1" x1="1586.9" y1="503.87" x2="-342.76" y2="503.87"/>
          <line class="cls-1" x1="1586.9" y1="562.34" x2="-342.76" y2="562.34"/>
          <line class="cls-1" x1="1586.9" y1="620.82" x2="-342.76" y2="620.82"/>
          <line class="cls-1" x1="1586.9" y1="679.3" x2="-342.76" y2="679.3"/>
        </g>
      </g>
    </g>
  </g>
  <g>
    <g>
      <path class="cls-5" d="m43.54,144.56v305.41c0,28.91,11.72,55.07,30.66,74.02,18.94,18.94,45.11,30.66,74.02,30.66h21.98c5.94,0,11.83.79,17.51,2.34,5.69,1.55,11.17,3.85,16.29,6.86l87.9,51.64,87.9,51.64v-45.74c0-18.43,7.47-35.11,19.55-47.19,12.08-12.08,28.76-19.54,47.19-19.54h-143.56,1179.81c28.91,0,55.07-11.72,74.02-30.66,18.94-18.94,30.66-45.11,30.66-74.02V144.56c0-28.91-11.72-55.08-30.66-74.02-18.94-18.94-45.11-30.66-74.02-30.66H148.21c-28.91,0-55.07,11.72-74.02,30.66-18.94,18.94-30.66,45.11-30.66,74.02Z"/>
      <path class="cls-9" d="m53.54,134.56v305.41c0,28.91,11.72,55.07,30.66,74.02,18.94,18.94,45.11,30.66,74.02,30.66h21.98c5.94,0,11.83.79,17.51,2.34,5.69,1.55,11.17,3.85,16.29,6.86l87.9,51.64,87.9,51.64v-45.74c0-18.43,7.47-35.11,19.55-47.19,12.08-12.08,28.76-19.54,47.19-19.54h-143.56,1179.81c28.91,0,55.07-11.72,74.02-30.66,18.94-18.94,30.66-45.11,30.66-74.02V134.56c0-28.91-11.72-55.08-30.66-74.02-18.94-18.94-45.11-30.66-74.02-30.66H158.21c-28.91,0-55.07,11.72-74.02,30.66-18.94,18.94-30.66,45.11-30.66,74.02Z"/>
    </g>
    <g>
      <g>
        <g class="cls-11">
          <line class="cls-4" x1="234.95" y1="470.01" x2="234.95" y2="94.27"/>
          <line class="cls-4" x1="384.65" y1="470.01" x2="384.65" y2="94.27"/>
          <line class="cls-4" x1="459.51" y1="470.01" x2="459.51" y2="94.27"/>
          <line class="cls-4" x1="310.04" y1="470.01" x2="310.04" y2="94.27"/>
          <line class="cls-4" x1="535.63" y1="172.57" x2="165.63" y2="172.57"/>
          <line class="cls-4" x1="535.63" y1="247.48" x2="165.63" y2="247.48"/>
          <line class="cls-4" x1="535.63" y1="322.27" x2="165.63" y2="322.27"/>
          <line class="cls-4" x1="535.63" y1="396.83" x2="165.63" y2="396.83"/>
        </g>
        <line class="cls-3" x1="235.75" y1="322.52" x2="422.16" y2="133.9"/>
        <line class="cls-3" x1="235.75" y1="322.52" x2="461.85" y2="432.95"/>
        <line class="cls-3" x1="235.75" y1="322.52" x2="495.63" y2="322.27"/>
        <path class="cls-10" d="m354.74,153.58h3.3l6.99,18.99h-3.99c-.34-1-.76-2.32-1.26-3.96h-6.81c-.28.9-.71,2.22-1.29,3.96h-3.93l6.99-18.99Zm1.68,5.13c-.56,1.58-1.33,3.8-2.31,6.66h4.56c-.94-2.76-1.69-4.98-2.25-6.66Z"/>
        <g>
          <path class="cls-10" d="m295.86,395.52v-18.93c1.52-.26,3.36-.39,5.52-.39,2.5,0,4.36.59,5.58,1.77.96.94,1.44,2.18,1.44,3.72,0,.94-.39,1.79-1.17,2.56-.78.77-1.65,1.16-2.61,1.16v.03c1.32.14,2.36.65,3.13,1.53.77.88,1.16,1.99,1.16,3.33,0,1.88-.79,3.32-2.37,4.32-1.38.86-3.22,1.29-5.52,1.29-2,0-3.72-.13-5.16-.39Zm3.93-15.96v4.38h2.22c1.68,0,2.52-.71,2.52-2.13,0-1.58-1.02-2.39-3.06-2.43h-.09c-.5,0-1.03.06-1.59.18Zm0,7.53v5.49c.5.16,1.21.24,2.13.24,1.94,0,2.91-.85,2.91-2.55,0-2.12-1-3.18-3-3.18h-2.04Z"/>
          <path class="cls-10" d="m313.83,380.28l-3.27-4.38h3.72l2.16,4.38h-2.61Z"/>
        </g>
        <path class="cls-10" d="m374.86,432.35v-18.93c1.52-.26,3.36-.39,5.52-.39,2.5,0,4.36.59,5.58,1.77.96.94,1.44,2.18,1.44,3.72,0,.94-.39,1.8-1.17,2.56-.78.77-1.65,1.15-2.61,1.15v.03c1.32.14,2.36.65,3.13,1.53.77.88,1.16,1.99,1.16,3.33,0,1.88-.79,3.32-2.37,4.32-1.38.86-3.22,1.29-5.52,1.29-2,0-3.72-.13-5.16-.39Zm3.93-15.96v4.38h2.22c1.68,0,2.52-.71,2.52-2.13,0-1.58-1.02-2.39-3.06-2.43h-.09c-.5,0-1.03.06-1.59.18Zm0,7.53v5.49c.5.16,1.21.24,2.13.24,1.94,0,2.91-.85,2.91-2.55,0-2.12-1-3.18-3-3.18h-2.04Z"/>
        <g>
          <path class="cls-10" d="m364.76,310.95c-1.66,1.66-3.61,2.49-5.85,2.49-3.22,0-5.62-1.2-7.2-3.6-1.14-1.72-1.71-3.74-1.71-6.06,0-3.02.78-5.45,2.34-7.29,1.54-1.84,3.68-2.76,6.42-2.76,1.92,0,3.84.81,5.76,2.43l-1.53,2.49c-1.44-1.04-2.75-1.56-3.93-1.56-1.64,0-2.91.69-3.81,2.07-.78,1.18-1.17,2.72-1.17,4.62,0,1.68.46,3.12,1.38,4.32.98,1.26,2.29,1.89,3.93,1.89,1.08,0,2.36-.47,3.84-1.41l1.53,2.37Z"/>
          <path class="cls-10" d="m369.68,297.81l-3.27-4.38h3.72l2.16,4.38h-2.61Z"/>
        </g>
        <path class="cls-10" d="m214.78,293.73c2.92,0,5.17,1.16,6.75,3.48,1.24,1.82,1.86,4.02,1.86,6.6,0,2.96-.81,5.33-2.43,7.11-1.54,1.68-3.6,2.52-6.18,2.52-2.96,0-5.21-1.08-6.75-3.24-1.24-1.7-1.86-3.83-1.86-6.39,0-3,.81-5.45,2.43-7.35,1.54-1.82,3.6-2.73,6.18-2.73Zm0,16.41c1.44,0,2.55-.54,3.33-1.64.78-1.09,1.17-2.65,1.17-4.69,0-2.18-.43-3.88-1.29-5.1-.8-1.08-1.87-1.62-3.21-1.62-1.44,0-2.55.59-3.34,1.77-.79,1.18-1.18,2.83-1.18,4.95,0,4.22,1.51,6.33,4.53,6.33Z"/>
        <path class="cls-10" d="m486.1,310.95c-1.66,1.66-3.61,2.49-5.85,2.49-3.22,0-5.62-1.2-7.2-3.6-1.14-1.72-1.71-3.74-1.71-6.06,0-3.02.78-5.45,2.34-7.29,1.54-1.84,3.68-2.76,6.42-2.76,1.92,0,3.84.81,5.76,2.43l-1.53,2.49c-1.44-1.04-2.75-1.56-3.93-1.56-1.64,0-2.91.69-3.81,2.07-.78,1.18-1.17,2.72-1.17,4.62,0,1.68.46,3.12,1.38,4.32.98,1.26,2.29,1.89,3.93,1.89,1.08,0,2.36-.47,3.84-1.41l1.53,2.37Z"/>
        <g>
          <path class="cls-10" d="m282.24,228.49h3.3l6.99,18.99h-3.99c-.34-1-.76-2.32-1.26-3.96h-6.81c-.28.9-.71,2.22-1.29,3.96h-3.93l6.99-18.99Zm1.68,5.13c-.56,1.58-1.33,3.8-2.31,6.66h4.56c-.94-2.76-1.69-4.98-2.25-6.66Z"/>
          <path class="cls-10" d="m296.4,232.21l-3.27-4.38h3.72l2.16,4.38h-2.61Z"/>
        </g>
        <polygon class="cls-6" points="384.95 171.78 384.95 396.44 459.37 321.31 384.95 171.78"/>
        <polygon class="cls-7" points="309.96 245.55 309.96 359.18 347.6 321.17 309.96 245.55"/>
        <circle class="cls-8" cx="310.34" cy="247.48" r="6"/>
        <circle class="cls-8" cx="235.75" cy="322.27" r="6"/>
        <circle class="cls-8" cx="384.95" cy="395.55" r="6"/>
        <circle class="cls-8" cx="384.65" cy="171.68" r="6"/>
        <circle class="cls-8" cx="459.37" cy="320.4" r="6"/>
        <circle class="cls-8" cx="347.6" cy="320.4" r="6"/>
        <circle class="cls-8" cx="308.84" cy="359.16" r="6"/>
      </g>
      <path class="cls-10" d="m486.1,310.95c-1.66,1.66-3.61,2.49-5.85,2.49-3.22,0-5.62-1.2-7.2-3.6-1.14-1.72-1.71-3.74-1.71-6.06,0-3.02.78-5.45,2.34-7.29,1.54-1.84,3.68-2.76,6.42-2.76,1.92,0,3.84.81,5.76,2.43l-1.53,2.49c-1.44-1.04-2.75-1.56-3.93-1.56-1.64,0-2.91.69-3.81,2.07-.78,1.18-1.17,2.72-1.17,4.62,0,1.68.46,3.12,1.38,4.32.98,1.26,2.29,1.89,3.93,1.89,1.08,0,2.36-.47,3.84-1.41l1.53,2.37Z"/>
    </g>
    <g>
      <path class="cls-10" d="m589.45,237.08h2.97v3.64h-3.42c-3.09,0-5.31-1.14-6.66-3.42-1.44,1.38-3.23,2.07-5.36,2.07-2.64,0-4.74-.99-6.3-2.97-1.29-1.68-1.94-3.73-1.94-6.17,0-2.91.88-5.25,2.66-7.02,1.5-1.53,3.33-2.29,5.49-2.29,1.65,0,3.07.42,4.27,1.26v-1.93l3.92-2.07v14.4c0,3,1.46,4.5,4.37,4.5Zm-8.28-10.71c-1.11-1.23-2.47-1.84-4.09-1.84-1.32,0-2.4.53-3.24,1.6-.84,1.07-1.26,2.45-1.26,4.16s.42,3.14,1.26,4.19c.84,1.05,1.94,1.58,3.29,1.58,1.68,0,3.06-.69,4.14-2.07-.06-.54-.09-.96-.09-1.26v-6.35Zm-5.8-11.07c-1.47,0-2.21-.75-2.21-2.25s.74-2.21,2.21-2.21,2.16.74,2.16,2.21-.72,2.25-2.16,2.25Zm5.71,0c-1.47,0-2.21-.75-2.21-2.25s.74-2.21,2.21-2.21,2.16.74,2.16,2.21-.72,2.25-2.16,2.25Z"/>
      <path class="cls-10" d="m629.95,237.08h2.97v3.64h-3.42c-2.4,0-4.27-.7-5.62-2.12-1.23,1.41-2.97,2.12-5.22,2.12h-28.93v-3.64h8.37l.14-.5v-22.82l3.87-2.07v16.47c3.42-5.04,7.66-7.56,12.73-7.56,3.39,0,6.1,1.19,8.15,3.56,1.74,2.01,2.61,4.48,2.61,7.42v1.08c0,2.94,1.46,4.41,4.37,4.41Zm-8.28-4.23v-1.26c0-2.34-.72-4.2-2.16-5.58-1.23-1.2-2.78-1.8-4.64-1.8-3.09,0-5.88,1.39-8.37,4.18-1.86,2.1-3.33,4.72-4.41,7.88v.81h16.24c1.29,0,2.17-.3,2.63-.9.46-.6.7-1.71.7-3.33Z"/>
      <path class="cls-10" d="m649.89,237.08h8.37v3.64h-10.98c-1.17,0-2.19-.1-3.06-.32-.84.21-1.86.32-3.06.32h-10.93v-3.64h8.37c-1.86-2.13-2.79-4.49-2.79-7.07,0-2.94.82-5.28,2.47-7.02,1.5-1.59,3.48-2.38,5.94-2.38,2.82,0,5,1.02,6.53,3.06,1.29,1.68,1.94,3.79,1.94,6.34s-.93,4.94-2.79,7.07Zm-8.51-21.02c-1.47,0-2.2-.75-2.2-2.25s.73-2.21,2.2-2.21,2.16.74,2.16,2.21-.72,2.25-2.16,2.25Zm2.88,20.61c1.38-.48,2.5-1.36,3.38-2.63.87-1.27,1.3-2.68,1.3-4.21,0-1.74-.43-3.11-1.28-4.12-.86-1-2-1.51-3.44-1.51s-2.59.51-3.44,1.53c-.85,1.02-1.28,2.39-1.28,4.1,0,1.5.45,2.9,1.35,4.18.9,1.29,2.04,2.18,3.42,2.66Zm2.83-20.61c-1.47,0-2.21-.75-2.21-2.25s.73-2.21,2.21-2.21,2.16.74,2.16,2.21-.72,2.25-2.16,2.25Z"/>
      <path class="cls-10" d="m671.22,237.08h2.97v3.64h-3.42c-2.49,0-4.46-.79-5.9-2.38-1.44,1.59-3.41,2.38-5.89,2.38h-3.42v-3.64h2.97c2.94,0,4.41-1.5,4.41-4.5v-9.32l3.87-2.07v11.39c0,3,1.47,4.5,4.41,4.5Zm-7.11-21.33c-1.47,0-2.21-.75-2.21-2.25s.73-2.21,2.21-2.21,2.16.74,2.16,2.21-.72,2.25-2.16,2.25Z"/>
      <path class="cls-10" d="m671.49,240.72v-3.64h2.38c3.12,0,4.68-1.63,4.68-4.91v-18.41l3.92-2.07v20.52c0,2.67-.79,4.79-2.38,6.34-1.5,1.44-3.46,2.16-5.9,2.16h-2.7Z"/>
      <path class="cls-10" d="m690.57,240.72v-26.96l3.87-2.07v29.03h-3.87Z"/>
      <path class="cls-10" d="m732.25,237.08v3.64h-5.58c-.12,2.58-1.23,4.71-3.33,6.39-1.77,1.38-3.78,2.07-6.03,2.07-1.86,0-3.62-.44-5.26-1.3v-3.42c1.59.84,3.16,1.26,4.72,1.26s2.98-.5,4.16-1.49c1.19-.99,1.79-2.17,1.82-3.55-1.56-.06-2.72-.12-3.46-.18-3.24-.18-5.69-1.28-7.34-3.29-1.38-1.68-2.07-3.85-2.07-6.53,0-3.27.87-5.82,2.61-7.65,1.56-1.62,3.62-2.43,6.17-2.43s4.73.8,6.17,2.38c1.23,1.41,1.85,3.26,1.85,5.54v8.55h5.58Zm-9.5-8.28c0-3.06-1.37-4.59-4.1-4.59-1.56,0-2.77.56-3.64,1.69s-1.3,2.69-1.3,4.7c0,3.93,1.92,6.02,5.76,6.25.72.09,1.81.17,3.29.23v-8.28Z"/>
      <path class="cls-10" d="m729.55,240.72v-3.64h7.92v3.64h-7.92Z"/>
      <path class="cls-10" d="m734.77,240.72v-3.64h7.92v3.64h-7.92Z"/>
      <path class="cls-10" d="m739.99,240.72v-3.64h7.92v3.64h-7.92Z"/>
      <path class="cls-10" d="m775.85,237.08h2.97v3.64h-3.42c-2.52,0-4.47-.78-5.85-2.34-1.47,1.56-3.46,2.34-5.99,2.34h-4.86c-1.02,0-1.98-.15-2.88-.45-.93.3-1.89.45-2.88.45h-7.74v-3.64h5.8c-1.14-1.53-1.71-3.27-1.71-5.22,0-1.77.43-3.27,1.3-4.5.75-2.76,2.17-4.88,4.28-6.34,1.71-1.17,3.64-1.75,5.8-1.75,3.18,0,5.8,1.08,7.88,3.24,1.95,2.04,2.92,4.67,2.92,7.88v2.21c0,3,1.46,4.5,4.37,4.5Zm-20.03-.41c2.46-.84,3.69-2.52,3.69-5.04,0-1.26-.34-2.27-1.01-3.04-.67-.76-1.57-1.15-2.68-1.15s-2,.38-2.68,1.15c-.67.77-1.01,1.78-1.01,3.04,0,2.52,1.23,4.2,3.69,5.04Zm7.61.41c1.47,0,2.53-.37,3.17-1.1.64-.74.97-1.93.97-3.58v-2.02c0-2.49-.79-4.42-2.38-5.81-1.29-1.14-2.83-1.71-4.63-1.71-2.07,0-3.69.67-4.86,2.03h.13c1.98,0,3.56.64,4.75,1.91,1.18,1.28,1.78,2.96,1.78,5.06s-.58,3.75-1.75,5.22h2.83Z"/>
      <path class="cls-10" d="m776.12,240.72v-3.64h8.1c-1.38-1.53-2.07-3.66-2.07-6.39,0-3.27.86-5.82,2.57-7.65,1.5-1.62,3.49-2.43,5.99-2.43s4.53.8,5.94,2.38c1.2,1.41,1.8,3.26,1.8,5.54v4.28c-.03,2.49-.76,4.46-2.21,5.89-1.41,1.35-3.28,2.03-5.62,2.03h-14.49Zm18.45-12.01c0-3-1.29-4.5-3.87-4.5-1.47,0-2.63.56-3.47,1.69s-1.26,2.69-1.26,4.7.41,3.55,1.21,4.72c.81,1.17,1.89,1.76,3.24,1.76,2.76,0,4.14-1.44,4.14-4.32v-4.05Zm-3.78-12.69c-1.47,0-2.21-.75-2.21-2.25s.73-2.21,2.21-2.21,2.16.74,2.16,2.21-.72,2.25-2.16,2.25Z"/>
      <path class="cls-10" d="m824.05,211.7c-1.86,2.34-3.37,5.11-4.52,8.3-1.16,3.2-1.73,6.2-1.73,9.02,0,4.62,1.05,9.11,3.15,13.46.54,1.11,1.13,2.14,1.78,3.11.65.96,1.07,1.44,1.28,1.44h-4.95c-.24,0-.79-.61-1.64-1.82-.86-1.21-1.55-2.36-2.09-3.44-1.92-3.87-2.88-8.12-2.88-12.74,0-3.09.61-6.24,1.84-9.45,1.23-3.21,2.82-5.83,4.77-7.88h5Z"/>
      <path class="cls-10" d="m848.67,237.53c-2.49,2.49-5.42,3.74-8.78,3.74-4.83,0-8.43-1.8-10.8-5.4-1.71-2.58-2.57-5.61-2.57-9.09,0-4.53,1.17-8.17,3.51-10.93,2.31-2.76,5.52-4.14,9.63-4.14,2.88,0,5.76,1.22,8.64,3.65l-2.29,3.74c-2.16-1.56-4.12-2.34-5.9-2.34-2.46,0-4.36,1.04-5.71,3.11-1.17,1.77-1.75,4.08-1.75,6.93,0,2.52.69,4.68,2.07,6.48,1.47,1.89,3.43,2.83,5.89,2.83,1.62,0,3.54-.71,5.76-2.12l2.3,3.55Z"/>
      <path class="cls-10" d="m871.3,232.35h-14.04c.12,1.38.68,2.53,1.69,3.44,1,.92,2.2,1.37,3.58,1.37,1.95,0,3.99-.6,6.12-1.8l1.44,3.02c-2.16,1.92-4.86,2.88-8.1,2.88-3.48,0-6.19-.99-8.14-2.97-1.86-1.86-2.79-4.42-2.79-7.7s1.05-5.87,3.15-7.96c1.89-1.92,4.29-2.88,7.2-2.88,3.24,0,5.76,1.09,7.56,3.29,1.56,1.86,2.34,4.27,2.34,7.24v2.07Zm-14.35-4.18h8.68c-.15-2.94-1.58-4.41-4.28-4.41s-4.08,1.47-4.41,4.41Z"/>
      <path class="cls-10" d="m881.56,222.27c.6-.69,1.5-1.28,2.7-1.78,1.2-.5,2.34-.74,3.42-.74,2.58,0,4.45.71,5.6,2.11,1.15,1.41,1.73,3.69,1.73,6.84v12.01h-5.71v-11.79c0-2.94-1.3-4.41-3.92-4.41-.66,0-1.37.14-2.12.43s-1.26.61-1.53.97v14.8h-5.67v-20.43h4.82c.15.78.3,1.44.45,1.98h.22Z"/>
      <path class="cls-10" d="m913.24,224.84h-5.85v10.12c0,1.5.5,2.25,1.48,2.25.9,0,2.03-.39,3.38-1.17l1.89,2.88c-2.13,1.68-4.49,2.52-7.07,2.52-3.6,0-5.4-1.98-5.4-5.94v-10.67h-2.83v-4.54h2.88v-3.65c1.5-.81,3.4-1.81,5.71-3.01v6.66h5.8v4.54Z"/>
      <path class="cls-10" d="m936.78,232.35h-14.04c.12,1.38.68,2.53,1.69,3.44,1,.92,2.2,1.37,3.58,1.37,1.95,0,3.99-.6,6.12-1.8l1.44,3.02c-2.16,1.92-4.86,2.88-8.1,2.88-3.48,0-6.19-.99-8.14-2.97-1.86-1.86-2.79-4.42-2.79-7.7s1.05-5.87,3.15-7.96c1.89-1.92,4.29-2.88,7.2-2.88,3.24,0,5.76,1.09,7.56,3.29,1.56,1.86,2.34,4.27,2.34,7.24v2.07Zm-14.35-4.18h8.68c-.15-2.94-1.58-4.41-4.28-4.41s-4.08,1.47-4.41,4.41Z"/>
      <path class="cls-10" d="m946.36,220.29l.54,1.8c.3-.63.88-1.18,1.73-1.64.86-.46,1.73-.7,2.63-.7,2.7,0,4.71,1.28,6.03,3.83l-4.77,2.61c-.99-1.14-2.04-1.71-3.15-1.71-1.02,0-1.77.53-2.25,1.58v14.67h-5.58v-20.43h4.82Z"/>
      <path class="cls-10" d="m978.09,219.75c3.36,0,5.97,1.19,7.83,3.55,1.56,1.98,2.34,4.4,2.34,7.25,0,3.33-1.16,6.03-3.46,8.1-1.92,1.74-4.16,2.61-6.71,2.61-2.97,0-5.46-1.11-7.47-3.33-1.8-2.01-2.7-4.47-2.7-7.38,0-3.3,1-5.97,3.01-8.01,1.83-1.86,4.21-2.79,7.16-2.79Zm0,17.28c2.91,0,4.37-2.16,4.37-6.48s-1.46-6.75-4.37-6.75-4.37,2.25-4.37,6.75,1.46,6.48,4.37,6.48Z"/>
      <path class="cls-10" d="m991.45,224.88v-4.59h3.19v-2.7c0-3.93,1.83-5.9,5.49-5.9,2.4,0,4.63.81,6.71,2.43l-2.07,2.97c-1.2-.78-2.22-1.17-3.06-1.17-.93,0-1.4.75-1.4,2.25v2.12h5.58v4.59h-5.58v15.84h-5.67v-15.84h-3.19Z"/>
      <path class="cls-10" d="m1038.21,232.35h-14.04c.12,1.38.68,2.53,1.69,3.44,1,.92,2.2,1.37,3.58,1.37,1.95,0,3.99-.6,6.12-1.8l1.44,3.02c-2.16,1.92-4.86,2.88-8.1,2.88-3.48,0-6.19-.99-8.14-2.97-1.86-1.86-2.79-4.42-2.79-7.7s1.05-5.87,3.15-7.96c1.89-1.92,4.29-2.88,7.2-2.88,3.24,0,5.76,1.09,7.56,3.29,1.56,1.86,2.34,4.27,2.34,7.24v2.07Zm-14.35-4.18h8.68c-.15-2.94-1.58-4.41-4.28-4.41s-4.08,1.47-4.41,4.41Z"/>
      <path class="cls-10" d="m1048.47,222.27c.6-.69,1.5-1.28,2.7-1.78,1.2-.5,2.34-.74,3.42-.74,2.58,0,4.45.71,5.6,2.11,1.15,1.41,1.73,3.69,1.73,6.84v12.01h-5.71v-11.79c0-2.94-1.3-4.41-3.92-4.41-.66,0-1.37.14-2.12.43s-1.26.61-1.53.97v14.8h-5.67v-20.43h4.82c.15.78.3,1.44.45,1.98h.22Z"/>
      <path class="cls-10" d="m1073.49,211.7v29.03h-5.67v-26.05l5.67-2.97Z"/>
      <path class="cls-10" d="m1096.08,240.72h-4.54l-.45-1.93c-1.98,1.65-3.99,2.47-6.03,2.47-4.53,0-6.79-2.21-6.79-6.62,0-2.19.95-3.9,2.83-5.13,1.92-1.26,4.75-1.89,8.5-1.89h.95v-.09c0-1.29-.27-2.17-.81-2.66-.54-.48-1.51-.72-2.92-.72-1.98,0-3.79.63-5.44,1.89-.54-.99-1.05-1.96-1.53-2.92,1.71-1.32,3.2-2.21,4.48-2.68,1.27-.46,2.8-.7,4.57-.7,4.8,0,7.2,3,7.2,9v11.97Zm-5.71-9.63h-.68c-1.71,0-3.09.3-4.14.9-1.05.6-1.58,1.4-1.58,2.39,0,1.86.81,2.79,2.43,2.79.99,0,1.86-.29,2.61-.86.75-.57,1.2-1.29,1.35-2.16v-3.06Z"/>
      <path class="cls-10" d="m1107.01,220.29l.54,1.8c.3-.63.88-1.18,1.73-1.64.86-.46,1.73-.7,2.63-.7,2.7,0,4.71,1.28,6.03,3.83l-4.77,2.61c-.99-1.14-2.04-1.71-3.15-1.71-1.02,0-1.77.53-2.25,1.58v14.67h-5.58v-20.43h4.82Z"/>
      <path class="cls-10" d="m1133.02,238.25c-1.35,2.01-3.25,3.01-5.71,3.01-3,0-5.33-1.06-6.97-3.2-1.41-1.8-2.12-4.08-2.12-6.84,0-3.93,1.14-6.96,3.42-9.09,1.74-1.59,3.79-2.38,6.17-2.38,1.89,0,3.5.46,4.82,1.39.87.6,1.3,1.05,1.3,1.35l.45-2.21h4.37v18.31c0,3.45-.86,6.1-2.57,7.96-1.68,1.83-4.08,2.75-7.2,2.75s-6.04-1.08-8.42-3.24l1.44-2.88c1.83,1.2,3.88,1.8,6.17,1.8,3.24,0,4.86-2.25,4.86-6.75Zm0-11.03c-.12-.93-.58-1.73-1.37-2.41s-1.67-1.01-2.63-1.01c-1.5,0-2.7.6-3.6,1.8-.9,1.2-1.35,2.82-1.35,4.86,0,4.47,1.47,6.71,4.41,6.71,1.23,0,2.29-.47,3.2-1.42s1.35-2.06,1.35-3.35v-5.17Z"/>
      <path class="cls-10" d="m1163.76,232.35h-14.04c.12,1.38.68,2.53,1.69,3.44,1,.92,2.2,1.37,3.58,1.37,1.95,0,3.99-.6,6.12-1.8l1.44,3.02c-2.16,1.92-4.86,2.88-8.1,2.88-3.48,0-6.19-.99-8.14-2.97-1.86-1.86-2.79-4.42-2.79-7.7s1.05-5.87,3.15-7.96c1.89-1.92,4.29-2.88,7.2-2.88,3.24,0,5.76,1.09,7.56,3.29,1.56,1.86,2.34,4.27,2.34,7.24v2.07Zm-14.35-4.18h8.68c-.15-2.94-1.58-4.41-4.28-4.41s-4.08,1.47-4.41,4.41Z"/>
      <path class="cls-10" d="m1173.97,222.27c1.68-1.68,3.78-2.52,6.3-2.52,1.74,0,3.28.37,4.61,1.1,1.33.74,2.26,1.72,2.77,2.95.66-1.2,1.69-2.17,3.08-2.92,1.39-.75,2.92-1.12,4.57-1.12,4.8,0,7.2,2.91,7.2,8.73v12.24h-5.71v-10.71c0-2.01-.29-3.43-.88-4.25-.58-.82-1.57-1.24-2.95-1.24-1.98,0-3.58.78-4.82,2.34v13.86h-5.67v-11.34c0-1.77-.31-3.02-.94-3.76-.63-.73-1.71-1.1-3.24-1.1-.9,0-1.75.13-2.54.41-.79.27-1.31.6-1.55.99v14.8h-5.67v-20.43h4.82l.41,1.98h.22Z"/>
      <path class="cls-10" d="m1227.3,232.35h-14.04c.12,1.38.68,2.53,1.69,3.44,1,.92,2.2,1.37,3.58,1.37,1.95,0,3.99-.6,6.12-1.8l1.44,3.02c-2.16,1.92-4.86,2.88-8.1,2.88-3.48,0-6.19-.99-8.14-2.97-1.86-1.86-2.79-4.42-2.79-7.7s1.05-5.87,3.15-7.96c1.89-1.92,4.29-2.88,7.2-2.88,3.24,0,5.76,1.09,7.56,3.29,1.56,1.86,2.34,4.27,2.34,7.24v2.07Zm-14.35-4.18h8.68c-.15-2.94-1.58-4.41-4.28-4.41s-4.08,1.47-4.41,4.41Z"/>
      <path class="cls-10" d="m1237.56,222.27c.6-.69,1.5-1.28,2.7-1.78,1.2-.5,2.34-.74,3.42-.74,2.58,0,4.45.71,5.6,2.11,1.15,1.41,1.73,3.69,1.73,6.84v12.01h-5.71v-11.79c0-2.94-1.3-4.41-3.92-4.41-.66,0-1.37.14-2.12.43s-1.26.61-1.53.97v14.8h-5.67v-20.43h4.82c.15.78.3,1.44.45,1.98h.22Z"/>
      <path class="cls-10" d="m1269.24,224.84h-5.85v10.12c0,1.5.5,2.25,1.48,2.25.9,0,2.03-.39,3.38-1.17l1.89,2.88c-2.13,1.68-4.49,2.52-7.07,2.52-3.6,0-5.4-1.98-5.4-5.94v-10.67h-2.83v-4.54h2.88v-3.65c1.5-.81,3.4-1.81,5.71-3.01v6.66h5.8v4.54Z"/>
      <path class="cls-10" d="m1272.88,247.02c.27,0,.79-.63,1.58-1.89.78-1.26,1.47-2.58,2.07-3.96,1.71-3.99,2.57-8.04,2.57-12.15,0-2.82-.58-5.83-1.73-9.02-1.16-3.2-2.66-5.96-4.52-8.3h5c1.95,2.04,3.54,4.67,4.77,7.88,1.23,3.21,1.84,6.36,1.84,9.45,0,5.13-1.17,9.78-3.51,13.95-.51.87-1.11,1.76-1.8,2.68-.69.91-1.12,1.37-1.3,1.37h-4.95Z"/>
      <path class="cls-10" d="m1309.56,235.28h4.05v5.45h-4.59c-1.02,0-1.96-.13-2.83-.41-.39,2.88-1.54,5.16-3.46,6.84-1.74,1.5-3.83,2.25-6.25,2.25-1.89,0-3.74-.48-5.54-1.44v-4.95c1.56.87,3.09,1.3,4.59,1.3,1.65,0,2.93-.53,3.85-1.6.92-1.07,1.37-2.54,1.37-4.43v-14.58l3.69-1.94,1.94-1.04v.05l.04-.05v11.3c0,1.17.24,2,.72,2.5.48.5,1.29.74,2.43.74Z"/>
      <path class="cls-10" d="m1310.91,240.72v-5.45h7.92v5.45h-7.92Z"/>
      <path class="cls-10" d="m1316.13,240.72v-5.45h7.92v5.45h-7.92Z"/>
      <path class="cls-10" d="m1321.35,240.72v-5.45h7.92v5.45h-7.92Z"/>
      <path class="cls-10" d="m1342.59,235.28h4.05v5.45h-4.59c-2.19,0-4-.58-5.45-1.75-1.44,1.17-3.25,1.75-5.44,1.75h-4.59v-5.45h4.05c1.14,0,1.95-.25,2.43-.74.48-.5.72-1.33.72-2.5v-8.33l5.67-2.97v11.3c0,1.17.24,2,.72,2.5.48.5,1.29.74,2.43.74Zm-11.66,9.54c.9,0,1.61.26,2.14.79s.79,1.24.79,2.14c0,2.01-.98,3.02-2.93,3.02-.9,0-1.62-.27-2.16-.81-.54-.54-.81-1.28-.81-2.21,0-1.95.99-2.92,2.97-2.92Zm6.93,0c.9,0,1.61.26,2.14.79.53.52.79,1.24.79,2.14,0,2.01-.98,3.02-2.92,3.02-.9,0-1.62-.27-2.16-.81s-.81-1.28-.81-2.21c0-1.95.99-2.92,2.97-2.92Z"/>
      <path class="cls-10" d="m1359.96,235.28h4.05v5.45h-4.59c-2.19,0-4-.58-5.45-1.75-1.44,1.17-3.25,1.75-5.44,1.75h-4.59v-5.45h4.05c1.14,0,1.95-.25,2.43-.74.48-.5.72-1.33.72-2.5v-8.33l5.67-2.97v11.3c0,1.17.24,2,.72,2.5.48.5,1.29.74,2.43.74Zm-5.71,9.54c.9,0,1.61.26,2.14.79s.79,1.24.79,2.14c0,2.01-.98,3.02-2.92,3.02-.9,0-1.62-.27-2.16-.81s-.81-1.28-.81-2.21c0-.87.27-1.57.81-2.11s1.26-.81,2.16-.81Z"/>
      <path class="cls-10" d="m1385.61,235.28h3.55v5.45h-4.14c-2.19,0-3.99-.58-5.4-1.75-1.44,1.17-3.25,1.75-5.45,1.75h-12.87v-5.45h12.28c2.1,0,3.15-1.04,3.15-3.1v-.27c0-1.65-.62-2.98-1.84-3.98-1.23-1-2.85-1.51-4.86-1.51-1.53,0-3.13.3-4.81.9v-5.45l9.13-10.17h5.71l-8.19,9.18c2.37.24,4.38.94,6.03,2.11,3,2.04,4.5,5,4.5,8.87v.18c0,1.17.25,2,.74,2.5.5.5,1.31.74,2.45.74Z"/>
      <path class="cls-10" d="m1402.48,235.28h4.05v5.45h-4.59c-2.19,0-4-.58-5.45-1.75-1.44,1.17-3.25,1.75-5.44,1.75h-4.59v-5.45h4.05c1.14,0,1.95-.25,2.43-.74.48-.5.72-1.33.72-2.5v-8.33l5.67-2.97v11.3c0,1.17.24,2,.72,2.5.48.5,1.29.74,2.43.74Zm-11.75-18.5c-.9,0-1.62-.27-2.16-.81s-.81-1.27-.81-2.21c0-.87.27-1.58.81-2.12s1.26-.81,2.16-.81,1.61.26,2.14.79c.52.53.79,1.24.79,2.14,0,2.01-.97,3.01-2.92,3.01Zm6.88,0c-.9,0-1.62-.28-2.16-.83-.54-.55-.81-1.28-.81-2.18s.28-1.58.83-2.12c.55-.54,1.27-.81,2.14-.81s1.61.26,2.14.79c.52.53.79,1.24.79,2.14,0,2.01-.98,3.01-2.93,3.01Z"/>
      <path class="cls-10" d="m1403.83,240.72v-5.45h2.83c1.38,0,2.36-.3,2.95-.9.58-.6.88-1.62.88-3.06v-16.6l5.62-3.02v19.67c0,2.91-.88,5.24-2.65,6.98-1.62,1.59-3.78,2.38-6.48,2.38h-3.15Z"/>
      <path class="cls-10" d="m1424.22,240.72v-26.01l5.67-3.02v29.03h-5.67Z"/>
      <path class="cls-10" d="m1458.24,235.28h4.05v5.45h-4.59c-1.02,0-1.96-.13-2.83-.41-.39,2.88-1.54,5.16-3.46,6.84-1.74,1.5-3.83,2.25-6.25,2.25-1.89,0-3.74-.48-5.54-1.44v-4.95c1.56.87,3.09,1.3,4.59,1.3,1.65,0,2.93-.53,3.85-1.6.92-1.07,1.37-2.54,1.37-4.43v-14.58l3.69-1.94,1.94-1.04v.05l.04-.05v11.3c0,1.17.24,2,.72,2.5.48.5,1.29.74,2.43.74Zm-6.34-19.08c-.9,0-1.62-.27-2.16-.81s-.81-1.27-.81-2.21c0-.87.27-1.58.81-2.12s1.26-.81,2.16-.81,1.61.26,2.14.79c.52.53.79,1.24.79,2.14,0,2.01-.97,3.01-2.92,3.01Z"/>
      <path class="cls-10" d="m1459.59,240.72v-5.45h7.92v5.45h-7.92Z"/>
      <path class="cls-10" d="m1464.81,240.72v-5.45h7.92v5.45h-7.92Z"/>
      <path class="cls-10" d="m1470.03,240.72v-5.45h7.92v5.45h-7.92Z"/>
      <path class="cls-10" d="m1485.82,220.88c2.25.18,4.23.85,5.94,2.02,3.06,2.07,4.59,5.06,4.59,8.96v.58c0,2.7-.84,4.82-2.52,6.35-1.47,1.29-3.38,1.93-5.72,1.93h-12.87v-5.45h12.28c2.1,0,3.15-1.04,3.15-3.1v-.27c0-1.62-.62-2.94-1.87-3.96-1.25-1.02-2.87-1.53-4.88-1.53-1.5,0-3.09.3-4.77.9v-5.45l9.13-10.17h5.71l-8.19,9.18Z"/>
      <path class="cls-10" d="m1514.4,235.28h4.05v5.45h-4.59c-1.02,0-1.96-.13-2.83-.41-.39,2.88-1.54,5.16-3.46,6.84-1.74,1.5-3.83,2.25-6.25,2.25-1.89,0-3.74-.48-5.54-1.44v-4.95c1.56.87,3.09,1.3,4.59,1.3,1.65,0,2.93-.53,3.85-1.6.92-1.07,1.37-2.54,1.37-4.43v-14.58l3.69-1.94,1.94-1.04v.05l.04-.05v11.3c0,1.17.24,2,.72,2.5.48.5,1.29.74,2.43.74Z"/>
      <path class="cls-10" d="m1522.95,228.3c0-2.7.84-4.82,2.52-6.34,1.47-1.32,3.36-1.98,5.67-1.98,2.97,0,5.28,1.1,6.93,3.29,1.41,1.83,2.12,4.18,2.12,7.07,0,3.33-.88,5.96-2.66,7.88-1.59,1.68-3.62,2.52-6.07,2.52s-4.37-.52-5.9-1.58c-1.44,1.05-3.18,1.58-5.22,1.58h-4.59v-5.45h4.05c1.14,0,1.95-.25,2.43-.74.48-.5.72-1.33.72-2.5v-3.74Zm5.67,4.46c0,1.68.88,2.52,2.66,2.52,2.22,0,3.33-1.71,3.33-5.13s-1.16-4.91-3.46-4.91c-1.68,0-2.52.99-2.52,2.97v4.54Z"/>
      <path class="cls-10" d="m1024.48,311.56v-.09c.06-1.5.86-2.25,2.39-2.25s2.38.78,2.38,2.34-.8,2.38-2.38,2.38-2.39-.79-2.39-2.38Z"/>
      <path class="cls-10" d="m1065.03,310.08h2.97v3.64h-3.42c-1.62,0-3.08-.36-4.37-1.08-.42,3.09-1.82,5.52-4.19,7.29-2.1,1.56-4.7,2.34-7.78,2.34-4.02,0-7.13-1.35-9.32-4.05-1.68-2.1-2.52-4.6-2.52-7.51,0-2.55.61-4.73,1.84-6.53l3.87-.85c-1.38,2.13-2.07,4.45-2.07,6.97s.79,4.53,2.38,6.12c1.47,1.47,3.41,2.21,5.81,2.21,2.73,0,4.83-.81,6.3-2.43,1.26-1.38,1.89-3.15,1.89-5.31v-24.12l3.92-2.07v20.88c0,3,1.56,4.5,4.68,4.5Z"/>
      <path class="cls-10" d="m1089.91,310.08h2.57v3.64h-2.97c-2.52,0-4.49-.78-5.9-2.34-1.41,1.56-3.38,2.34-5.89,2.34h-12.42v-3.64h12.06c2.88,0,4.32-1.51,4.32-4.55v-.4c0-2.25-.87-3.96-2.61-5.13-1.38-.96-3.08-1.44-5.08-1.44-1.59,0-3.18.3-4.77.9v-3.83l9.85-10.94h3.96l-8.87,9.99h.27c3.42,0,6.18,1.04,8.28,3.11,1.89,1.92,2.83,4.35,2.83,7.29v.5c0,3,1.45,4.5,4.36,4.5Z"/>
      <path class="cls-10" d="m1089.78,313.72v-3.64h4.05c2.91,0,4.37-1.5,4.37-4.5v-6.3l3.87-2.07v8.37c0,3,1.47,4.5,4.41,4.5h2.07c2.94,0,4.41-1.5,4.41-4.5v-7.83l3.87-2.03v9.86c0,3,1.45,4.5,4.36,4.5h2.12c2.94,0,4.41-1.5,4.41-4.5v-9.32l3.87-2.07v10.98c0,3.27,1.56,4.91,4.68,4.91h3.74v3.64h-4.05c-2.7,0-4.76-.92-6.17-2.75-1.26,1.8-3.23,2.72-5.9,2.75h-3.1c-2.64,0-4.61-.88-5.9-2.66-1.29,1.74-3.21,2.63-5.76,2.66h-3.11c-2.58,0-4.54-.88-5.89-2.66-1.29,1.77-3.26,2.66-5.89,2.66h-4.46Zm21.92-23.76c-1.47,0-2.21-.75-2.21-2.25s.73-2.21,2.21-2.21,2.16.74,2.16,2.21-.72,2.25-2.16,2.25Zm2.83-5.36c-1.32,0-1.98-.67-1.98-2.02s.66-1.98,1.98-1.98,1.98.66,1.98,1.98-.66,2.02-1.98,2.02Zm2.88,5.36c-1.47,0-2.21-.75-2.21-2.25s.73-2.21,2.21-2.21,2.16.74,2.16,2.21-.72,2.25-2.16,2.25Z"/>
      <path class="cls-10" d="m1137.3,313.72v-3.64h2.38c3.12,0,4.68-1.63,4.68-4.91v-18.41l3.92-2.07v20.52c0,2.67-.79,4.79-2.38,6.34-1.5,1.44-3.46,2.16-5.9,2.16h-2.7Z"/>
      <path class="cls-10" d="m1156.38,313.72v-26.96l3.87-2.07v29.03h-3.87Z"/>
      <path class="cls-10" d="m1186.66,313.72c-2.61,0-4.62-.84-6.03-2.52-1.2-1.44-1.8-3.27-1.8-5.49v-18.95l3.87-2.07v20.88c0,3,1.47,4.5,4.41,4.5h2.97v3.64h-3.42Z"/>
      <path class="cls-10" d="m1218.03,310.08h2.97v3.64h-3.42c-2.52,0-4.47-.78-5.85-2.34-1.47,1.56-3.46,2.34-5.99,2.34h-4.86c-1.02,0-1.98-.15-2.88-.45-.93.3-1.89.45-2.88.45h-7.74v-3.64h5.8c-1.14-1.53-1.71-3.27-1.71-5.22,0-1.77.43-3.27,1.3-4.5.75-2.76,2.17-4.88,4.28-6.34,1.71-1.17,3.64-1.75,5.8-1.75,3.18,0,5.8,1.08,7.88,3.24,1.95,2.04,2.92,4.67,2.92,7.88v2.21c0,3,1.46,4.5,4.37,4.5Zm-20.03-.41c2.46-.84,3.69-2.52,3.69-5.04,0-1.26-.34-2.27-1.01-3.04-.67-.76-1.57-1.15-2.68-1.15s-2,.38-2.68,1.15c-.67.77-1.01,1.78-1.01,3.04,0,2.52,1.23,4.2,3.69,5.04Zm7.61.41c1.47,0,2.53-.37,3.17-1.1.64-.74.97-1.93.97-3.58v-2.02c0-2.49-.79-4.42-2.38-5.81-1.29-1.14-2.83-1.71-4.63-1.71-2.07,0-3.69.67-4.86,2.03h.13c1.98,0,3.56.64,4.75,1.91,1.18,1.28,1.78,2.96,1.78,5.06s-.58,3.75-1.75,5.22h2.83Z"/>
      <path class="cls-10" d="m1233.96,310.08h2.97v3.64h-3.42c-2.49,0-4.46-.79-5.9-2.38-1.44,1.59-3.41,2.38-5.89,2.38h-3.42v-3.64h2.97c2.94,0,4.41-1.5,4.41-4.5v-9.32l3.87-2.07v11.39c0,3,1.47,4.5,4.41,4.5Zm-7.11-21.33c-1.47,0-2.21-.75-2.21-2.25s.73-2.21,2.21-2.21,2.16.74,2.16,2.21-.72,2.25-2.16,2.25Z"/>
      <path class="cls-10" d="m1241.61,301.53c0-2.61.78-4.63,2.34-6.07,1.38-1.23,3.18-1.85,5.4-1.85,2.85,0,5.04,1.05,6.57,3.15,1.32,1.77,1.98,4.08,1.98,6.93,0,3.24-.84,5.78-2.52,7.61-1.47,1.62-3.39,2.43-5.76,2.43-2.7,0-4.75-.75-6.17-2.25-1.44,1.5-3.38,2.25-5.8,2.25h-3.42v-3.64h2.97c2.94,0,4.41-1.5,4.41-4.5v-4.05Zm3.87,4.37c0,2.79,1.36,4.19,4.09,4.19,1.41,0,2.51-.57,3.31-1.71.79-1.14,1.19-2.73,1.19-4.77s-.42-3.58-1.26-4.7c-.84-1.12-2-1.69-3.47-1.69-2.58,0-3.87,1.5-3.87,4.5v4.18Z"/>
      <path class="cls-10" d="m1286.83,310.08h2.97v3.64h-3.42c-1.53,0-2.85-.3-3.96-.9-.27,2.97-1.3,5.34-3.11,7.11-1.65,1.62-3.72,2.43-6.21,2.43-1.8,0-3.55-.45-5.26-1.35v-3.38c1.53.84,3.06,1.26,4.59,1.26,1.92,0,3.42-.65,4.5-1.93,1.08-1.29,1.62-3.08,1.62-5.36v-15.34l3.87-2.07v.04l.04-.04v12.29c.27,2.4,1.72,3.6,4.37,3.6Z"/>
      <path class="cls-10" d="m1302.76,310.08h2.97v3.64h-3.42c-2.49,0-4.46-.79-5.9-2.38-1.44,1.59-3.41,2.38-5.89,2.38h-3.42v-3.64h2.97c2.94,0,4.41-1.5,4.41-4.5v-9.32l3.87-2.07v11.39c0,3,1.47,4.5,4.41,4.5Zm-6.61,8.14c1.44,0,2.16.73,2.16,2.21s-.72,2.25-2.16,2.25-2.21-.75-2.21-2.25.73-2.21,2.21-2.21Z"/>
      <path class="cls-10" d="m1327.65,310.08h2.57v3.64h-2.97c-2.52,0-4.49-.78-5.9-2.34-1.41,1.56-3.38,2.34-5.89,2.34h-12.42v-3.64h12.06c2.88,0,4.32-1.51,4.32-4.55v-.4c0-2.25-.87-3.96-2.61-5.13-1.38-.96-3.08-1.44-5.08-1.44-1.59,0-3.18.3-4.77.9v-3.83l9.85-10.94h3.96l-8.87,9.99h.27c3.42,0,6.18,1.04,8.28,3.11,1.89,1.92,2.83,4.35,2.83,7.29v.5c0,3,1.45,4.5,4.36,4.5Z"/>
      <path class="cls-10" d="m1327.51,313.72v-3.64h2.97c2.94,0,4.41-1.5,4.41-4.5v-9.32l3.87-2.07v11.52c0,2.55-.77,4.56-2.29,6.03-1.41,1.32-3.26,1.98-5.54,1.98h-3.42Zm2.38,8.96c-1.47,0-2.21-.75-2.21-2.25s.74-2.21,2.21-2.21,2.16.73,2.16,2.21-.72,2.25-2.16,2.25Zm5.71,0c-1.47,0-2.21-.75-2.21-2.25s.73-2.21,2.21-2.21,2.16.73,2.16,2.21-.72,2.25-2.16,2.25Z"/>
      <path class="cls-10" d="m1383.31,313.72c-.3,2.64-1.74,4.75-4.32,6.34-2.4,1.47-5.46,2.21-9.18,2.21-4.74,0-8.31-1.38-10.71-4.14-1.77-2.04-2.65-4.56-2.65-7.56,0-2.52.63-4.68,1.89-6.48l3.74-.81c-1.35,2.13-2.03,4.43-2.03,6.89,0,2.67.87,4.77,2.61,6.3,1.71,1.53,4.09,2.29,7.15,2.29,2.58,0,4.71-.45,6.39-1.35,1.68-.9,2.7-2.13,3.06-3.69h-4.5l1.89-3.64h6.79v3.64h-.14Zm-16.51,16.51c-1.47,0-2.21-.75-2.21-2.25s.73-2.21,2.21-2.21,2.16.74,2.16,2.21-.72,2.25-2.16,2.25Zm5.71,0c-1.47,0-2.21-.75-2.21-2.25s.74-2.21,2.21-2.21,2.16.74,2.16,2.21-.72,2.25-2.16,2.25Z"/>
      <path class="cls-10" d="m1396.72,310.08h2.97v3.64h-3.42c-2.49,0-4.46-.79-5.9-2.38-1.44,1.59-3.41,2.38-5.89,2.38h-3.42v-3.64h2.97c2.94,0,4.41-1.5,4.41-4.5v-9.32l3.87-2.07v11.39c0,3,1.47,4.5,4.41,4.5Zm-10.62-21.02c-1.47,0-2.21-.75-2.21-2.25s.73-2.21,2.21-2.21,2.16.74,2.16,2.21-.72,2.25-2.16,2.25Zm5.76,0c-1.47,0-2.21-.75-2.21-2.25s.73-2.21,2.21-2.21,2.16.74,2.16,2.21-.72,2.25-2.16,2.25Z"/>
      <path class="cls-10" d="m1396.99,313.72v-3.64h2.38c3.12,0,4.68-1.63,4.68-4.91v-18.41l3.92-2.07v20.52c0,2.67-.79,4.79-2.38,6.34-1.5,1.44-3.46,2.16-5.9,2.16h-2.7Z"/>
      <path class="cls-10" d="m1416.07,313.72v-26.96l3.87-2.07v29.03h-3.87Z"/>
      <path class="cls-10" d="m1456.53,310.08h2.97v3.64h-3.42c-3.09,0-5.31-1.14-6.66-3.42-1.44,1.38-3.23,2.07-5.36,2.07-2.64,0-4.74-.99-6.3-2.97-1.29-1.68-1.94-3.73-1.94-6.17,0-2.91.88-5.25,2.66-7.02,1.5-1.53,3.33-2.29,5.49-2.29,1.65,0,3.07.42,4.27,1.26v-1.93l3.92-2.07v14.4c0,3,1.46,4.5,4.37,4.5Zm-8.28-10.71c-1.11-1.23-2.47-1.84-4.09-1.84-1.32,0-2.4.53-3.24,1.6-.84,1.07-1.26,2.45-1.26,4.16s.42,3.14,1.26,4.19c.84,1.05,1.94,1.58,3.29,1.58,1.68,0,3.06-.69,4.14-2.07-.06-.54-.09-.96-.09-1.26v-6.35Zm-5.8-11.07c-1.47,0-2.21-.75-2.21-2.25s.74-2.21,2.21-2.21,2.16.74,2.16,2.21-.72,2.25-2.16,2.25Zm5.71,0c-1.47,0-2.21-.75-2.21-2.25s.74-2.21,2.21-2.21,2.16.74,2.16,2.21-.72,2.25-2.16,2.25Z"/>
      <path class="cls-10" d="m1472.46,310.08h2.97v3.64h-3.42c-2.49,0-4.46-.79-5.9-2.38-1.44,1.59-3.41,2.38-5.89,2.38h-3.42v-3.64h2.97c2.94,0,4.41-1.5,4.41-4.5v-9.32l3.87-2.07v11.39c0,3,1.47,4.5,4.41,4.5Zm-10.62-21.02c-1.47,0-2.21-.75-2.21-2.25s.73-2.21,2.21-2.21,2.16.74,2.16,2.21-.72,2.25-2.16,2.25Zm5.76,0c-1.47,0-2.21-.75-2.21-2.25s.73-2.21,2.21-2.21,2.16.74,2.16,2.21-.72,2.25-2.16,2.25Z"/>
      <path class="cls-10" d="m1472.73,313.72v-3.64h2.97c2.94,0,4.41-1.5,4.41-4.5v-9.32l3.87-2.07v11.52c0,2.55-.77,4.56-2.29,6.03-1.41,1.32-3.26,1.98-5.54,1.98h-3.42Zm7.24,8.96c-1.47,0-2.2-.75-2.2-2.25s.73-2.21,2.2-2.21,2.16.73,2.16,2.21-.72,2.25-2.16,2.25Z"/>
      <path class="cls-10" d="m1499.91,313.72c-2.61,0-4.62-.84-6.03-2.52-1.2-1.44-1.8-3.27-1.8-5.49v-18.95l3.87-2.07v20.88c0,3,1.47,4.5,4.41,4.5h2.97v3.64h-3.42Z"/>
      <path class="cls-10" d="m1516.29,310.08h2.97v3.64h-3.42c-2.49,0-4.46-.79-5.9-2.38-1.44,1.59-3.41,2.38-5.89,2.38h-3.42v-3.64h2.97c2.94,0,4.41-1.5,4.41-4.5v-9.32l3.87-2.07v11.39c0,3,1.47,4.5,4.41,4.5Zm-10.48-21.02c-1.47,0-2.21-.75-2.21-2.25s.73-2.21,2.21-2.21,2.16.74,2.16,2.21-.72,2.25-2.16,2.25Zm2.83-5.35c-1.38,0-2.07-.71-2.07-2.12s.69-2.07,2.07-2.07,2.07.69,2.07,2.07-.69,2.12-2.07,2.12Zm.67,3.1c0-1.47.73-2.21,2.21-2.21s2.16.74,2.16,2.21-.72,2.25-2.16,2.25-2.21-.75-2.21-2.25Z"/>
      <path class="cls-10" d="m1516.56,313.72v-3.64h2.38c3.12,0,4.68-1.63,4.68-4.91v-18.41l3.92-2.07v20.52c0,2.67-.79,4.79-2.38,6.34-1.5,1.44-3.46,2.16-5.9,2.16h-2.7Z"/>
      <path class="cls-10" d="m1535.63,313.72v-26.96l3.87-2.07v29.03h-3.87Z"/>
    </g>
  </g>
</svg>