<?xml version="1.0" encoding="UTF-8"?>
<svg id="Layer_2" data-name="Layer 2" xmlns="http://www.w3.org/2000/svg" width="229.58" height="69.29" viewBox="0 0 229.58 69.29">
  <defs>
    <style>
      .cls-1 {
        fill: #fff;
      }

      .cls-1, .cls-2 {
        stroke-width: 0px;
      }

      .cls-2 {
        fill: #273551;
      }
    </style>
  </defs>
  <g id="Layer_1-2" data-name="Layer 1">
    <g>
      <rect class="cls-1" y="0" width="229.58" height="63.54" rx="9.83" ry="9.83"/>
      <g>
        <path class="cls-2" d="m44.59,42.69h4.5v6.05h-5.1c-3.1,0-5.5-1.03-7.2-3.1-1.43,1.1-3.18,1.65-5.25,1.65-3.07,0-5.52-1.15-7.35-3.45-1.5-1.9-2.25-4.18-2.25-6.85,0-3.3,1.07-5.98,3.2-8.05,1.8-1.73,3.88-2.6,6.25-2.6,1.23,0,2.37.23,3.4.7v-1.3l6.25-3.3v16.65c0,1.3.28,2.23.83,2.78s1.46.83,2.73.83Zm-16.15-22.2c-1,0-1.8-.3-2.4-.9s-.9-1.42-.9-2.45c0-2.17,1.1-3.25,3.3-3.25,1,0,1.79.29,2.38.88.58.58.88,1.38.88,2.38,0,2.23-1.08,3.35-3.25,3.35Zm6.35,12.85c-.87-.73-1.85-1.1-2.95-1.1s-1.99.45-2.68,1.35c-.68.9-1.02,2.08-1.02,3.55s.33,2.63,1,3.5c.67.87,1.58,1.3,2.75,1.3,1.27,0,2.25-.43,2.95-1.3-.03-.27-.05-.68-.05-1.25v-6.05Zm1.35-12.85c-1,0-1.8-.3-2.4-.9s-.9-1.42-.9-2.45c0-2.17,1.1-3.25,3.3-3.25,1,0,1.79.29,2.38.88.58.58.88,1.38.88,2.38,0,2.23-1.08,3.35-3.25,3.35Z"/>
        <path class="cls-2" d="m89.64,42.69h4.5v6.05h-5.1c-2.4,0-4.37-.62-5.9-1.85-1.53,1.23-3.45,1.85-5.75,1.85h-31.3v-6.05h8.95l.6-1.7v-21.15l6.3-3.35v14.4c3.4-3.47,7.3-5.2,11.7-5.2,3.97,0,7.12,1.37,9.45,4.1,2,2.3,3,5.15,3,8.55v1.05c0,2.2,1.18,3.3,3.55,3.3Zm-12.5,0c1.1,0,1.83-.22,2.17-.65.35-.43.53-1.35.53-2.75v-.95c0-2-.58-3.63-1.72-4.9-1.15-1.27-2.62-1.9-4.43-1.9-2.3,0-4.49.85-6.57,2.55-2.08,1.7-3.81,4.05-5.18,7.05v1.55h15.2Z"/>
        <path class="cls-2" d="m91.14,48.74v-6.05h5.3c1.27,0,2.17-.28,2.73-.83.55-.55.82-1.47.82-2.78v-6.6l6.3-3.3v9.9c0,1.3.27,2.23.8,2.78.53.55,1.43.83,2.7.83h3.4c1.27,0,2.17-.28,2.7-.83s.8-1.47.8-2.78v-7.9l6.3-3.35v11.25c0,1.3.28,2.23.83,2.78s1.46.83,2.73.83h3.4c1.27,0,2.17-.28,2.7-.83s.8-1.47.8-2.78v-9.25l6.3-3.3v11.75c0,1.6.33,2.73.98,3.4.65.67,1.74,1,3.27,1h4.6v6.05h-4.95c-2.8,0-5.05-.8-6.75-2.4-1.5,1.57-3.52,2.37-6.05,2.4h-4.95c-2.47,0-4.48-.73-6.05-2.2-1.43,1.43-3.33,2.17-5.7,2.2h-4.95c-2.47,0-4.48-.73-6.05-2.2-1.57,1.47-3.58,2.2-6.05,2.2h-5.95Zm24.6-26.6c-1,0-1.8-.3-2.4-.9-.6-.6-.9-1.42-.9-2.45,0-.97.3-1.75.9-2.35.6-.6,1.4-.9,2.4-.9s1.79.29,2.38.88c.58.58.88,1.38.88,2.38,0,2.23-1.08,3.35-3.25,3.35Zm3.8-7.35c-2,0-3-1.02-3-3.05s1-2.95,3-2.95,2.95.98,2.95,2.95-.98,3.05-2.95,3.05Zm3.9,7.35c-1,0-1.8-.3-2.4-.9-.6-.6-.9-1.42-.9-2.45,0-.97.3-1.75.9-2.35.6-.6,1.4-.9,2.4-.9s1.79.29,2.38.88c.58.58.88,1.38.88,2.38,0,2.23-1.08,3.35-3.25,3.35Z"/>
        <path class="cls-2" d="m145.59,48.74v-6.05h4.5c1.27,0,2.17-.28,2.7-.83.53-.55.8-1.47.8-2.78v-9.25l6.3-3.3v12.85c0,3.03-.93,5.4-2.8,7.1-1.63,1.5-3.77,2.25-6.4,2.25h-5.1Zm11.3-27.25c-1,0-1.8-.3-2.4-.9-.6-.6-.9-1.42-.9-2.45,0-.97.3-1.75.9-2.35s1.4-.9,2.4-.9,1.79.29,2.38.88.88,1.38.88,2.38c0,2.23-1.08,3.35-3.25,3.35Z"/>
        <path class="cls-2" d="m188.14,19.84l6.3-3.35v21.85c0,3.23-.98,5.82-2.95,7.75-1.83,1.77-4.25,2.65-7.25,2.65h-18.85l3.15-6.05h6.6v-16.35l6.3-3.35v19.7h2.45c1.53,0,2.62-.33,3.28-1,.65-.67.97-1.8.97-3.4v-18.45Zm-4.3-2.9l-1.6,2.9h-9.3l1.6-2.9h1.5c-.37-.67-.55-1.35-.55-2.05,0-1.07.39-1.98,1.18-2.75.78-.77,1.72-1.15,2.82-1.15,1,0,1.93.35,2.8,1.05v2.9c-.8-.7-1.6-1.05-2.4-1.05-1.1,0-1.65.5-1.65,1.5,0,.5.22,1.02.65,1.55h4.95Z"/>
        <path class="cls-2" d="m203.39,48.74v-28.9l6.3-3.35v32.25h-6.3Z"/>
      </g>
    </g>
  </g>
</svg>