<?xml version="1.0" encoding="UTF-8"?>
<svg id="Layer_2" data-name="Layer 2" xmlns="http://www.w3.org/2000/svg" width="81.09" height="81.09" xmlns:xlink="http://www.w3.org/1999/xlink" viewBox="0 0 81.09 81.09">
  <defs>
    <style>
      .cls-1 {
        fill: url(#linear-gradient);
      }

      .cls-1, .cls-2, .cls-3, .cls-4 {
        stroke-width: 0px;
      }

      .cls-2 {
        fill: #fff;
      }

      .cls-3 {
        fill: #ededed;
      }

      .cls-4 {
        fill: url(#linear-gradient-2);
      }
    </style>
    <linearGradient id="linear-gradient" x1="0" y1="40.55" x2="81.09" y2="40.55" gradientUnits="userSpaceOnUse">
      <stop offset="0" stop-color="#52b2cf"/>
      <stop offset="1" stop-color="#58beb9"/>
    </linearGradient>
    <linearGradient id="linear-gradient-2" x1="23.71" y1="38.55" x2="57.38" y2="38.55" xlink:href="#linear-gradient"/>
  </defs>
  <g id="Layer_2-2" data-name="Layer 2">
    <g>
      <path class="cls-1" d="m40.55,0C18.15,0,0,18.15,0,40.55s18.15,40.55,40.55,40.55,40.55-18.15,40.55-40.55S62.94,0,40.55,0Zm0,74.33c-18.66,0-33.79-15.13-33.79-33.79S21.89,6.76,40.55,6.76s33.79,15.13,33.79,33.79-15.13,33.79-33.79,33.79Z"/>
      <path class="cls-3" d="m40.55,5.97C21.45,5.97,5.97,21.45,5.97,40.55s15.48,34.57,34.57,34.57,34.57-15.48,34.57-34.57S59.64,5.97,40.55,5.97Zm0,66c-17.36,0-31.43-14.07-31.43-31.43s14.07-31.43,31.43-31.43,31.43,14.07,31.43,31.43-14.07,31.43-31.43,31.43Z"/>
      <circle class="cls-2" cx="40.55" cy="40.55" r="31.43"/>
      <path class="cls-4" d="m56.47,36.36s0,0,0,0l-13.74-13.74c-.59-.59-1.36-.91-2.19-.91s-1.61.32-2.19.91l-13.73,13.73s0,0-.01.01c-1.2,1.21-1.2,3.17,0,4.38.55.55,1.28.87,2.06.9.03,0,.06,0,.1,0h.55v10.11c0,2,1.63,3.63,3.63,3.63h5.37c.54,0,.99-.44.99-.99v-7.93c0-.91.74-1.66,1.66-1.66h3.17c.91,0,1.66.74,1.66,1.66v7.93c0,.54.44.99.99.99h5.37c2,0,3.63-1.63,3.63-3.63v-10.11h.51c.83,0,1.61-.32,2.19-.91,1.21-1.21,1.21-3.17,0-4.38h0Z"/>
    </g>
  </g>
</svg>