<?xml version="1.0" encoding="UTF-8"?>
<svg id="Layer_1" data-name="Layer 1" xmlns="http://www.w3.org/2000/svg" width="1422.83" height="522.05" xmlns:xlink="http://www.w3.org/1999/xlink" viewBox="0 0 1422.83 522.05">
  <defs>
    <style>
      .cls-1 {
        fill: #88cbd4;
      }

      .cls-1, .cls-2, .cls-3, .cls-4 {
        stroke-width: 0px;
      }

      .cls-5 {
        stroke: #273551;
        stroke-width: 5px;
      }

      .cls-5, .cls-6 {
        fill: none;
      }

      .cls-5, .cls-6, .cls-7 {
        stroke-linecap: round;
        stroke-linejoin: round;
      }

      .cls-6 {
        stroke: #88cbd4;
        stroke-width: 4.99px;
      }

      .cls-2 {
        fill: #80bfc4;
      }

      .cls-7 {
        fill: #f9f9f9;
        filter: url(#drop-shadow-1);
        stroke: #6fafcd;
        stroke-width: 4.2px;
      }

      .cls-3 {
        fill: #273551;
      }

      .cls-4 {
        fill: #7e4d7c;
      }
    </style>
    <filter id="drop-shadow-1" filterUnits="userSpaceOnUse">
      <feOffset dx="10.49" dy="10.49"/>
      <feGaussianBlur result="blur" stdDeviation="15.74"/>
      <feFlood flood-color="#000" flood-opacity=".15"/>
      <feComposite in2="blur" operator="in"/>
      <feComposite in="SourceGraphic"/>
    </filter>
  </defs>
  <rect class="cls-7" x="20.28" y="9.9" width="1359.72" height="477.65" rx="8.87" ry="8.87"/>
  <g>
    <path class="cls-4" d="m503.32,94.82h-28l11.7-31.65h4.6l11.7,31.65Zm-14.2-26.9l-7.6,23h15.55l-7.85-23s-.02-.05-.05-.05-.05.02-.05.05Z"/>
    <path class="cls-4" d="m547.37,81.57c0,9.23-3.87,13.85-11.6,13.85s-11.6-4.62-11.6-13.85v-18.4h4.7v19.45c0,5.87,2.3,8.8,6.9,8.8s6.9-2.93,6.9-8.8v-19.45h4.7v18.4Z"/>
    <path class="cls-4" d="m568.22,95.42c-4.7,0-8.32-1.85-10.85-5.55-2-2.93-3-6.5-3-10.7,0-4.93,1.32-8.97,3.95-12.1,2.5-3,5.8-4.5,9.9-4.5,4.67,0,8.28,1.92,10.85,5.75,2,3,3,6.62,3,10.85,0,4.9-1.32,8.87-3.95,11.9-2.5,2.9-5.8,4.35-9.9,4.35Zm0-4c3.1,0,5.43-1.28,7-3.85,1.3-2.13,1.95-4.93,1.95-8.4,0-4.03-.85-7.18-2.55-9.45-1.57-2.1-3.7-3.15-6.4-3.15-3.07,0-5.4,1.35-7,4.05-1.3,2.2-1.95,5.05-1.95,8.55,0,4,.85,7.08,2.55,9.25,1.57,2,3.7,3,6.4,3Z"/>
    <path class="cls-4" d="m589.47,63.17l8.4,24.55,8.35-24.55h4.9l-11.45,31.65h-3.65l-11.45-31.65h4.9Z"/>
    <path class="cls-3" d="m648.02,90.77h3.3v4.05h-3.8c-3.43,0-5.9-1.27-7.4-3.8-1.6,1.53-3.58,2.3-5.95,2.3-2.93,0-5.27-1.1-7-3.3-1.43-1.87-2.15-4.15-2.15-6.85,0-3.23.98-5.83,2.95-7.8,1.67-1.7,3.7-2.55,6.1-2.55,1.83,0,3.42.47,4.75,1.4v-2.15l4.35-2.3v16c0,3.33,1.62,5,4.85,5Zm-9.2-11.9c-1.23-1.37-2.75-2.05-4.55-2.05-1.47,0-2.67.59-3.6,1.78-.93,1.18-1.4,2.72-1.4,4.62s.47,3.48,1.4,4.65c.93,1.17,2.15,1.75,3.65,1.75,1.87,0,3.4-.77,4.6-2.3-.07-.6-.1-1.07-.1-1.4v-7.05Z"/>
    <path class="cls-3" d="m648.32,94.82v-4.05h3.3c3.27,0,4.9-1.67,4.9-5v-10.35l4.3-2.3v12.8c0,2.83-.85,5.07-2.55,6.7-1.57,1.47-3.62,2.2-6.15,2.2h-3.8Zm3.85-27.75c-1.63,0-2.45-.83-2.45-2.5s.82-2.45,2.45-2.45,2.4.82,2.4,2.45-.8,2.5-2.4,2.5Zm6.35,0c-1.63,0-2.45-.83-2.45-2.5s.82-2.45,2.45-2.45,2.4.82,2.4,2.45-.8,2.5-2.4,2.5Z"/>
    <path class="cls-3" d="m677.22,92.17c0,3.73-.98,6.73-2.95,9-1.87,2.17-4.35,3.25-7.45,3.25-2,0-3.95-.5-5.85-1.5v-3.75c1.7.93,3.4,1.4,5.1,1.4,2.13,0,3.8-.72,5-2.15s1.8-3.42,1.8-5.95v-17.05l4.35-2.3v19.05Z"/>
    <path class="cls-3" d="m709.57,90.77v4.05h-6.2c-.13,2.87-1.37,5.23-3.7,7.1-1.97,1.53-4.2,2.3-6.7,2.3-2.07,0-4.02-.48-5.85-1.45v-3.8c1.77.93,3.52,1.4,5.25,1.4s3.31-.55,4.62-1.65c1.32-1.1,1.99-2.42,2.02-3.95-1.73-.07-3.02-.13-3.85-.2-3.6-.2-6.32-1.42-8.15-3.65-1.53-1.87-2.3-4.28-2.3-7.25,0-3.63.97-6.47,2.9-8.5,1.73-1.8,4.02-2.7,6.85-2.7s5.25.88,6.85,2.65c1.37,1.57,2.05,3.62,2.05,6.15v9.5h6.2Zm-10.55-9.2c0-3.4-1.52-5.1-4.55-5.1-1.73,0-3.08.62-4.05,1.88-.97,1.25-1.45,2.99-1.45,5.22,0,4.37,2.13,6.68,6.4,6.95.8.1,2.02.18,3.65.25v-9.2Z"/>
    <path class="cls-3" d="m722.32,90.62c1.33-5.03,3.53-9.23,6.6-12.6,3.43-3.7,7.43-5.55,12-5.55,3.8,0,6.83,1.32,9.1,3.95,1.9,2.23,2.85,4.98,2.85,8.25v1.3c0,2.9-.88,5.15-2.65,6.75-1.53,1.4-3.55,2.1-6.05,2.1h-20.7c-2.77,0-4.95-.88-6.55-2.65-1.6,1.77-3.78,2.65-6.55,2.65h-3.8v-4.05h3.3c3.27,0,4.9-1.67,4.9-5v-7l4.3-2.3v9.3c0,2.8,1.08,4.42,3.25,4.85Zm26.25-5.05v-.9c0-2.6-.8-4.67-2.4-6.2-1.4-1.33-3.13-2-5.2-2-3.53,0-6.72,1.63-9.55,4.9-2.17,2.5-3.83,5.63-5,9.4h17.5c3.1,0,4.65-1.73,4.65-5.2Z"/>
    <path class="cls-3" d="m773.17,93.22c-1.27.5-2.82.75-4.65.75-2.97,0-5.3-1.12-7-3.35-1.43-1.9-2.15-4.28-2.15-7.15,0-3.53.95-6.3,2.85-8.3,1.7-1.8,3.93-2.7,6.7-2.7s5.02.88,6.55,2.65c1.37,1.57,2.05,3.62,2.05,6.15v10.9c0,3.77-.98,6.75-2.95,8.95-1.87,2.07-4.35,3.1-7.45,3.1-2.07,0-4.02-.48-5.85-1.45v-3.8c1.77.93,3.52,1.4,5.25,1.4,1.97,0,3.53-.62,4.7-1.88,1.17-1.25,1.82-3.01,1.95-5.27Zm0-11.75c0-3.33-1.42-5-4.25-5-1.67,0-2.97.62-3.92,1.85-.95,1.23-1.42,2.92-1.42,5.05s.46,3.78,1.38,5.03c.92,1.25,2.16,1.88,3.72,1.88,2.2,0,3.7-.62,4.5-1.85v-6.95Z"/>
    <path class="cls-4" d="m821.12,94.82h-28l11.7-31.65h4.6l11.7,31.65Zm-14.2-26.9l-7.6,23h15.55l-7.85-23s-.02-.05-.05-.05-.05.02-.05.05Z"/>
    <path class="cls-4" d="m865.77,63.17l-10.4,15.3,10.6,16.35h-5.35l-8.3-13.5-8.75,13.5h-5.35l11.35-16.35-9.75-15.3h5.35l7.55,11.9,7.7-11.9h5.35Z"/>
    <path class="cls-4" d="m882.32,95.42c-4.7,0-8.32-1.85-10.85-5.55-2-2.93-3-6.5-3-10.7,0-4.93,1.32-8.97,3.95-12.1,2.5-3,5.8-4.5,9.9-4.5,4.67,0,8.28,1.92,10.85,5.75,2,3,3,6.62,3,10.85,0,4.9-1.32,8.87-3.95,11.9-2.5,2.9-5.8,4.35-9.9,4.35Zm0-4c3.1,0,5.43-1.28,7-3.85,1.3-2.13,1.95-4.93,1.95-8.4,0-4.03-.85-7.18-2.55-9.45-1.57-2.1-3.7-3.15-6.4-3.15-3.07,0-5.4,1.35-7,4.05-1.3,2.2-1.95,5.05-1.95,8.55,0,4,.85,7.08,2.55,9.25,1.57,2,3.7,3,6.4,3Z"/>
    <path class="cls-4" d="m898.67,63.17h4.95l8.1,15.4,8.05-15.4h4.95l-10.7,19.2v12.45h-4.6v-12.45l-10.75-19.2Z"/>
  </g>
  <g>
    <path class="cls-3" d="m947.36,87.65c0,3.73-.98,6.73-2.95,9-1.87,2.17-4.35,3.25-7.45,3.25-2,0-3.95-.5-5.85-1.5v-3.75c1.7.93,3.4,1.4,5.1,1.4,2.13,0,3.8-.72,5-2.15s1.8-3.42,1.8-5.95v-17.05l4.35-2.3v19.05Z"/>
    <path class="cls-3" d="m968.66,88.7c-1.27.5-2.82.75-4.65.75-2.97,0-5.3-1.12-7-3.35-1.43-1.9-2.15-4.28-2.15-7.15,0-3.53.95-6.3,2.85-8.3,1.7-1.8,3.93-2.7,6.7-2.7s5.02.88,6.55,2.65c1.37,1.57,2.05,3.62,2.05,6.15v10.9c0,3.77-.98,6.75-2.95,8.95-1.87,2.07-4.35,3.1-7.45,3.1-2.07,0-4.02-.48-5.85-1.45v-3.8c1.77.93,3.52,1.4,5.25,1.4,1.97,0,3.53-.62,4.7-1.88,1.17-1.25,1.82-3.01,1.95-5.27Zm0-11.75c0-3.33-1.42-5-4.25-5-1.67,0-2.97.62-3.92,1.85-.95,1.23-1.42,2.92-1.42,5.05s.46,3.78,1.38,5.03c.92,1.25,2.16,1.88,3.72,1.88,2.2,0,3.7-.62,4.5-1.85v-6.95Z"/>
    <path class="cls-3" d="m990.21,90.3c-2.9,0-5.13-.93-6.7-2.8-1.33-1.6-2-3.63-2-6.1v-21.05l4.3-2.3v23.2c0,3.33,1.63,5,4.9,5h3.3v4.05h-3.8Z"/>
    <path class="cls-3" d="m1023.61,86.25h3.25v4.05h-3.3c-2.7,0-4.87-.31-6.5-.92-1.63-.62-3.15-1.71-4.55-3.28-4.2,2.8-9.1,4.2-14.7,4.2h-6.8v-4.05h6.85c6.77,0,12.12-2.23,16.05-6.7-2.77-5.1-6.13-7.65-10.1-7.65-2.7,0-5.48,1.43-8.35,4.3v-4c2.8-2.83,5.77-4.25,8.9-4.25,2.57,0,5.05.92,7.45,2.77,2.4,1.85,4.52,4.49,6.35,7.92v2.2c-1.03,1.3-2.02,2.35-2.95,3.15,1.8,1.5,4.6,2.25,8.4,2.25Zm-16.35,9.05c1.6,0,2.4.82,2.4,2.45s-.8,2.5-2.4,2.5-2.45-.83-2.45-2.5.82-2.45,2.45-2.45Z"/>
    <path class="cls-3" d="m1056.06,86.25h3.35v4.05h-3.8c-2.77,0-4.95-.88-6.55-2.65-1.7,2.43-4.18,3.65-7.45,3.65s-5.73-1.2-7.4-3.6c-1.57,1.73-3.75,2.6-6.55,2.6h-3.8v-4.05h3.3c3.27,0,4.9-1.67,4.9-5v-1.65c0-3.87.95-6.83,2.85-8.9,1.67-1.83,3.9-2.75,6.7-2.75,3.2,0,5.67,1.18,7.4,3.55,1.47,2.03,2.2,4.73,2.2,8.1v1.65c0,3.33,1.62,5,4.85,5Zm-14.45,1c1.63,0,2.92-.68,3.88-2.05s1.42-3.25,1.42-5.65c0-5.07-1.77-7.6-5.3-7.6s-5.25,2.53-5.25,7.6,1.75,7.7,5.25,7.7Z"/>
    <path class="cls-3" d="m1056.41,90.3v-4.05h2.65c3.47,0,5.2-1.82,5.2-5.45v-20.45l4.35-2.3v22.8c0,2.97-.88,5.32-2.65,7.05-1.67,1.6-3.85,2.4-6.55,2.4h-3Z"/>
    <path class="cls-3" d="m1077.61,90.3v-29.95l4.3-2.3v32.25h-4.3Z"/>
    <path class="cls-3" d="m1133.36,86.25h3.3v4.05h-3.8c-1.8,0-3.42-.4-4.85-1.2-.47,3.43-2.02,6.13-4.65,8.1-2.33,1.73-5.22,2.6-8.65,2.6-4.47,0-7.92-1.5-10.35-4.5-1.87-2.33-2.8-5.12-2.8-8.35,0-2.83.68-5.25,2.05-7.25l4.3-.95c-1.53,2.37-2.3,4.95-2.3,7.75s.88,5.03,2.65,6.8c1.63,1.63,3.78,2.45,6.45,2.45,3.03,0,5.37-.9,7-2.7,1.4-1.53,2.1-3.5,2.1-5.9v-26.8l4.35-2.3v23.2c0,3.33,1.73,5,5.2,5Z"/>
    <path class="cls-3" d="m1161.01,86.25h2.85v4.05h-3.3c-2.8,0-4.98-.87-6.55-2.6-1.57,1.73-3.75,2.6-6.55,2.6h-13.8v-4.05h13.4c3.2,0,4.8-1.68,4.8-5.05v-.45c0-2.5-.97-4.4-2.9-5.7-1.53-1.07-3.42-1.6-5.65-1.6-1.77,0-3.53.33-5.3,1v-4.25l10.95-12.15h4.4l-9.85,11.1h.3c3.8,0,6.87,1.15,9.2,3.45,2.1,2.13,3.15,4.83,3.15,8.1v.55c0,3.33,1.62,5,4.85,5Z"/>
    <path class="cls-3" d="m1160.86,90.3v-4.05h4.5c3.23,0,4.85-1.67,4.85-5v-7l4.3-2.3v9.3c0,3.33,1.63,5,4.9,5h2.3c3.27,0,4.9-1.67,4.9-5v-8.7l4.3-2.25v10.95c0,3.33,1.62,5,4.85,5h2.35c3.27,0,4.9-1.67,4.9-5v-10.35l4.3-2.3v12.2c0,3.63,1.73,5.45,5.2,5.45h4.15v4.05h-4.5c-3,0-5.28-1.02-6.85-3.05-1.4,2-3.58,3.02-6.55,3.05h-3.45c-2.93,0-5.12-.98-6.55-2.95-1.43,1.93-3.57,2.92-6.4,2.95h-3.45c-2.87,0-5.05-.98-6.55-2.95-1.43,1.97-3.62,2.95-6.55,2.95h-4.95Zm24.35-26.4c-1.63,0-2.45-.83-2.45-2.5s.82-2.45,2.45-2.45,2.4.82,2.4,2.45-.8,2.5-2.4,2.5Zm3.15-5.95c-1.47,0-2.2-.75-2.2-2.25s.73-2.2,2.2-2.2,2.2.73,2.2,2.2-.73,2.25-2.2,2.25Zm3.2,5.95c-1.63,0-2.45-.83-2.45-2.5s.82-2.45,2.45-2.45,2.4.82,2.4,2.45-.8,2.5-2.4,2.5Z"/>
    <path class="cls-3" d="m1213.66,90.3v-4.05h2.65c3.47,0,5.2-1.82,5.2-5.45v-20.45l4.35-2.3v22.8c0,2.97-.88,5.32-2.65,7.05-1.67,1.6-3.85,2.4-6.55,2.4h-3Z"/>
    <path class="cls-3" d="m1234.86,90.3v-29.95l4.3-2.3v32.25h-4.3Z"/>
    <path class="cls-3" d="m1289.66,86.25h3.3v4.05h-3.8c-1.73,0-3.23-.35-4.5-1.05-.4,3.4-1.88,6.05-4.45,7.95-2.3,1.73-5.15,2.6-8.55,2.6-4.33,0-7.7-1.53-10.1-4.6-1.83-2.37-2.75-5.17-2.75-8.4,0-2.8.7-5.2,2.1-7.2l4.15-.9c-1.5,2.37-2.25,4.92-2.25,7.65s.87,5.1,2.6,6.9c1.63,1.67,3.72,2.5,6.25,2.5,2.93,0,5.2-.85,6.8-2.55,1.33-1.43,2-3.3,2-5.6v-16.7l4.3-2.3v12.65c0,3.33,1.63,5,4.9,5Zm-18.25-18.5c-1.63,0-2.45-.83-2.45-2.5s.82-2.45,2.45-2.45,2.4.82,2.4,2.45-.8,2.5-2.4,2.5Z"/>
    <path class="cls-3" d="m1307.36,86.25h3.3v4.05h-3.8c-2.77,0-4.95-.88-6.55-2.65-1.6,1.77-3.78,2.65-6.55,2.65h-3.8v-4.05h3.3c3.27,0,4.9-1.67,4.9-5v-10.35l4.3-2.3v12.65c0,3.33,1.63,5,4.9,5Zm-11.95,9.05c1.6,0,2.4.83,2.4,2.5s-.8,2.45-2.4,2.45-2.45-.82-2.45-2.45.82-2.5,2.45-2.5Zm6.35,0c1.6,0,2.4.83,2.4,2.5s-.8,2.45-2.4,2.45-2.45-.82-2.45-2.45.82-2.5,2.45-2.5Z"/>
    <path class="cls-3" d="m1325.06,86.25h3.3v4.05h-3.8c-2.77,0-4.95-.88-6.55-2.65-1.6,1.77-3.78,2.65-6.55,2.65h-3.8v-4.05h3.3c3.27,0,4.9-1.67,4.9-5v-10.35l4.3-2.3v12.65c0,3.33,1.63,5,4.9,5Zm-7.35,9.05c1.6,0,2.4.82,2.4,2.45s-.8,2.5-2.4,2.5-2.45-.83-2.45-2.5.82-2.45,2.45-2.45Z"/>
    <path class="cls-3" d="m1325.36,90.3v-4.05h3.3c3.27,0,4.9-1.67,4.9-5v-10.35l4.3-2.3v12.8c0,2.83-.85,5.07-2.55,6.7-1.57,1.47-3.62,2.2-6.15,2.2h-3.8Zm2.65,9.95c-1.63,0-2.45-.83-2.45-2.5s.82-2.45,2.45-2.45,2.4.82,2.4,2.45-.8,2.5-2.4,2.5Zm6.35,0c-1.63,0-2.45-.83-2.45-2.5s.82-2.45,2.45-2.45,2.4.82,2.4,2.45-.8,2.5-2.4,2.5Z"/>
  </g>
  <g>
    <g>
      <path class="cls-3" d="m1057.06,279.89h2.9v3.56h-3.34c-1.5,0-2.79-.29-3.87-.88-.26,2.9-1.28,5.22-3.04,6.95-1.61,1.58-3.64,2.38-6.07,2.38-1.76,0-3.47-.44-5.15-1.32v-3.3c1.5.82,2.99,1.23,4.49,1.23,1.88,0,3.34-.63,4.4-1.89,1.06-1.26,1.58-3.01,1.58-5.24v-15l3.79-2.02v.04l.04-.04v12.01c.26,2.35,1.69,3.52,4.27,3.52Z"/>
      <path class="cls-3" d="m1072.64,279.89h2.9v3.56h-3.34c-2.44,0-4.36-.78-5.76-2.33-1.41,1.55-3.33,2.33-5.76,2.33h-3.34v-3.56h2.9c2.87,0,4.31-1.47,4.31-4.4v-9.11l3.79-2.02v11.13c0,2.93,1.44,4.4,4.31,4.4Zm-10.52,7.96c1.41,0,2.11.73,2.11,2.2s-.7,2.16-2.11,2.16-2.16-.72-2.16-2.16.72-2.2,2.16-2.2Zm5.59,0c1.41,0,2.11.73,2.11,2.2s-.7,2.16-2.11,2.16-2.16-.72-2.16-2.16.72-2.2,2.16-2.2Z"/>
      <path class="cls-3" d="m1088.22,279.89h2.9v3.56h-3.34c-2.44,0-4.36-.78-5.76-2.33-1.41,1.55-3.33,2.33-5.76,2.33h-3.34v-3.56h2.9c2.88,0,4.31-1.47,4.31-4.4v-9.11l3.78-2.02v11.13c0,2.93,1.44,4.4,4.31,4.4Zm-6.47,7.96c1.41,0,2.11.72,2.11,2.16s-.7,2.2-2.11,2.2-2.16-.73-2.16-2.2.72-2.16,2.16-2.16Z"/>
      <path class="cls-3" d="m1112.55,279.89h2.51v3.56h-2.9c-2.46,0-4.39-.76-5.76-2.29-1.38,1.53-3.3,2.29-5.76,2.29h-12.14v-3.56h11.79c2.82,0,4.22-1.48,4.22-4.44v-.4c0-2.2-.85-3.87-2.55-5.02-1.35-.94-3.01-1.41-4.97-1.41-1.55,0-3.11.29-4.66.88v-3.74l9.64-10.69h3.87l-8.67,9.77h.26c3.34,0,6.04,1.01,8.1,3.04,1.85,1.88,2.77,4.25,2.77,7.13v.48c0,2.93,1.42,4.4,4.27,4.4Z"/>
      <path class="cls-3" d="m1127.73,279.89h2.9v3.56h-3.34c-2.44,0-4.36-.78-5.76-2.33-1.41,1.55-3.33,2.33-5.76,2.33h-3.34v-3.56h2.9c2.87,0,4.31-1.47,4.31-4.4v-9.11l3.79-2.02v11.13c0,2.93,1.44,4.4,4.31,4.4Zm-10.38-20.55c-1.44,0-2.16-.73-2.16-2.2s.72-2.16,2.16-2.16,2.11.72,2.11,2.16-.7,2.2-2.11,2.2Zm5.63,0c-1.44,0-2.16-.73-2.16-2.2s.72-2.16,2.16-2.16,2.11.72,2.11,2.16-.71,2.2-2.11,2.2Z"/>
      <path class="cls-3" d="m1127.99,283.45v-3.56h2.33c3.05,0,4.58-1.6,4.58-4.8v-18l3.83-2.02v20.06c0,2.61-.78,4.68-2.33,6.2-1.47,1.41-3.39,2.11-5.76,2.11h-2.64Z"/>
      <path class="cls-3" d="m1146.65,283.45v-26.36l3.78-2.02v28.38h-3.78Z"/>
      <path class="cls-3" d="m1195.71,279.89h2.9v3.56h-3.34c-1.58,0-3.01-.35-4.27-1.06-.41,3.02-1.77,5.4-4.09,7.13-2.05,1.52-4.59,2.29-7.61,2.29-3.93,0-6.97-1.32-9.11-3.96-1.64-2.05-2.46-4.5-2.46-7.35,0-2.49.6-4.62,1.8-6.38l3.78-.84c-1.35,2.08-2.02,4.36-2.02,6.82s.78,4.43,2.33,5.98c1.44,1.44,3.33,2.16,5.68,2.16,2.67,0,4.72-.79,6.16-2.38,1.23-1.35,1.85-3.08,1.85-5.19v-23.58l3.83-2.02v20.42c0,2.93,1.53,4.4,4.58,4.4Z"/>
      <path class="cls-3" d="m1203.19,271.53c0-2.55.76-4.53,2.29-5.94,1.35-1.2,3.11-1.8,5.28-1.8,2.79,0,4.93,1.03,6.42,3.08,1.29,1.73,1.94,3.99,1.94,6.78,0,3.17-.82,5.65-2.46,7.44-1.44,1.58-3.32,2.38-5.63,2.38-2.64,0-4.65-.73-6.03-2.2-1.41,1.47-3.3,2.2-5.68,2.2h-3.34v-3.56h2.9c2.88,0,4.31-1.47,4.31-4.4v-3.96Zm3.78,4.27c0,2.73,1.33,4.09,4,4.09,1.38,0,2.46-.56,3.23-1.67.78-1.11,1.17-2.67,1.17-4.66s-.41-3.5-1.23-4.6-1.95-1.65-3.39-1.65c-2.52,0-3.78,1.47-3.78,4.4v4.09Z"/>
      <path class="cls-3" d="m1234.03,283.45c-2.55,0-4.52-.82-5.9-2.46-1.17-1.41-1.76-3.2-1.76-5.37v-18.52l3.79-2.02v20.42c0,2.93,1.44,4.4,4.31,4.4h2.9v3.56h-3.34Z"/>
      <path class="cls-3" d="m1256.47,279.89h11.62v3.56h-11.97c-1.58,0-3.15-.31-4.71-.92-1.56.62-3.14.92-4.75.92h-11.92v-3.56h12.23c-2.11-1.73-4.28-4.27-6.51-7.61v-1.94c1.41-2.02,3.09-3.62,5.04-4.8,1.95-1.17,3.91-1.76,5.87-1.76s3.93.59,5.9,1.78c1.96,1.19,3.67,2.81,5.1,4.86v1.85c-2.23,3.34-4.42,5.88-6.56,7.61h.66Zm-12.5-8.54c2.7,3.7,5.18,6.13,7.44,7.3,2.26-1.2,4.74-3.65,7.44-7.35-2.2-2.67-4.69-4.02-7.48-4.05-2.79,0-5.25,1.36-7.39,4.09Z"/>
      <path class="cls-3" d="m1272.66,271.53c0-2.55.76-4.53,2.29-5.94,1.35-1.2,3.11-1.8,5.28-1.8,2.79,0,4.93,1.03,6.42,3.08,1.29,1.73,1.94,3.99,1.94,6.78,0,3.17-.82,5.65-2.46,7.44-1.44,1.58-3.31,2.38-5.63,2.38-2.64,0-4.65-.73-6.03-2.2-1.41,1.47-3.3,2.2-5.68,2.2h-3.34v-3.56h2.9c2.87,0,4.31-1.47,4.31-4.4v-3.96Zm3.78,4.27c0,2.73,1.33,4.09,4,4.09,1.38,0,2.46-.56,3.23-1.67.78-1.11,1.17-2.67,1.17-4.66s-.41-3.5-1.23-4.6c-.82-1.1-1.95-1.65-3.39-1.65-2.52,0-3.78,1.47-3.78,4.4v4.09Z"/>
    </g>
    <g>
      <circle class="cls-2" cx="1319.24" cy="273.04" r="16.19"/>
      <circle class="cls-1" cx="1319.24" cy="273.04" r="13.23"/>
    </g>
  </g>
  <g>
    <g>
      <path class="cls-3" d="m1042.59,321.85l-9.15,13.46,9.33,14.39h-4.71l-7.3-11.88-7.7,11.88h-4.71l9.99-14.39-8.58-13.46h4.71l6.64,10.47,6.78-10.47h4.71Z"/>
      <path class="cls-3" d="m1104.63,332.63l3.83-2.02v11.26c0,2.49-.75,4.46-2.24,5.9-1.38,1.29-3.18,1.94-5.41,1.94h-2.95c-2.46,0-4.37-.76-5.72-2.29-1.38,1.53-3.3,2.29-5.76,2.29h-2.9c-1.53,0-2.85-.31-3.96-.92-.35,2.99-1.66,5.32-3.92,7-2.02,1.52-4.53,2.29-7.52,2.29-3.81,0-6.78-1.35-8.89-4.05-1.61-2.08-2.42-4.55-2.42-7.39,0-2.46.62-4.58,1.85-6.34l3.65-.79c-1.32,2.08-1.98,4.33-1.98,6.73s.76,4.49,2.29,6.07c1.44,1.47,3.27,2.2,5.5,2.2,2.58,0,4.58-.75,5.98-2.24,1.17-1.26,1.76-2.9,1.76-4.93v-11.75l3.79-2.02v8.18c0,2.93,1.42,4.4,4.27,4.4h2.07c2.84,0,4.27-1.47,4.27-4.4v-7.66l3.83-1.98v9.64c0,2.93,1.42,4.4,4.27,4.4h2.07c2.84,0,4.27-1.47,4.27-4.4v-9.11Z"/>
      <path class="cls-3" d="m1114.04,320.7l1.01-1.89h1.19c-.29-.53-.44-1.07-.44-1.63,0-.88.32-1.63.97-2.27.64-.63,1.41-.95,2.29-.95.73,0,1.44.23,2.11.7v1.94c-.65-.5-1.26-.75-1.85-.75-1.09,0-1.63.48-1.63,1.45,0,.5.21,1,.62,1.5h4l-1.01,1.89h-7.26Zm2.33,29v-24.6l3.78-2.02v26.62h-3.78Z"/>
      <path class="cls-3" d="m1141.72,346.14h2.9v3.56h-3.34c-1.5,0-2.79-.29-3.87-.88-.26,2.9-1.28,5.22-3.04,6.95-1.61,1.58-3.64,2.38-6.07,2.38-1.76,0-3.48-.44-5.15-1.32v-3.3c1.5.82,2.99,1.23,4.49,1.23,1.88,0,3.34-.63,4.4-1.89,1.06-1.26,1.58-3.01,1.58-5.24v-15l3.78-2.02v.04l.04-.04v12.01c.26,2.35,1.69,3.52,4.27,3.52Z"/>
      <path class="cls-3" d="m1141.98,349.7v-3.56h2.33c3.05,0,4.58-1.6,4.58-4.8v-18l3.83-2.02v20.06c0,2.61-.78,4.68-2.33,6.2-1.47,1.41-3.39,2.11-5.76,2.11h-2.64Z"/>
      <path class="cls-3" d="m1160.64,349.7v-26.36l3.79-2.02v28.38h-3.79Z"/>
      <path class="cls-3" d="m1207.98,349.7c-.29,2.58-1.7,4.65-4.22,6.2-2.35,1.44-5.34,2.16-8.98,2.16-4.63,0-8.12-1.35-10.47-4.05-1.73-2-2.6-4.46-2.6-7.39,0-2.46.62-4.58,1.85-6.34l3.65-.79c-1.32,2.08-1.98,4.33-1.98,6.73,0,2.61.85,4.66,2.55,6.16,1.67,1.5,4,2.24,7,2.24,2.52,0,4.61-.44,6.25-1.32,1.64-.88,2.64-2.08,2.99-3.61h-4.4l1.85-3.56h6.64v3.56h-.13Zm-16.15,16.15c-1.44,0-2.16-.73-2.16-2.2s.72-2.16,2.16-2.16,2.11.72,2.11,2.16-.7,2.2-2.11,2.2Zm5.59,0c-1.44,0-2.16-.73-2.16-2.2s.72-2.16,2.16-2.16,2.11.72,2.11,2.16-.7,2.2-2.11,2.2Z"/>
      <path class="cls-3" d="m1205.78,349.7v-3.56h2.9c2.87,0,4.31-1.47,4.31-4.4v-9.11l3.78-2.02v11.26c0,2.49-.75,4.46-2.24,5.9-1.38,1.29-3.18,1.94-5.41,1.94h-3.34Zm3.39-24.42c-1.44,0-2.16-.73-2.16-2.2s.72-2.16,2.16-2.16,2.11.72,2.11,2.16-.7,2.2-2.11,2.2Zm2.77-5.24c-1.29,0-1.94-.66-1.94-1.98s.65-1.94,1.94-1.94,1.94.65,1.94,1.94-.65,1.98-1.94,1.98Zm2.82,5.24c-1.44,0-2.16-.73-2.16-2.2s.72-2.16,2.16-2.16,2.11.72,2.11,2.16-.7,2.2-2.11,2.2Z"/>
      <path class="cls-3" d="m1224.7,349.7v-26.36l3.78-2.02v28.38h-3.78Z"/>
      <path class="cls-3" d="m1232.89,349.7l1.85-3.56h7.83c1.17,0,2-.29,2.49-.88.48-.59.73-1.6.73-3.04,0-3.9-1.8-6.83-5.41-8.8l1.94-3.26c4.61,2.7,7.01,6.42,7.22,11.18.06,1.7.45,2.93,1.17,3.67.72.75,1.87,1.12,3.45,1.12h2.6v3.56h-2.9c-2.43,0-4.34-.78-5.72-2.33-.97,1.55-2.6,2.33-4.88,2.33h-10.34Z"/>
      <path class="cls-3" d="m1254.1,349.7v-3.56h6.03c5.96,0,10.66-1.96,14.12-5.9-2.43-4.49-5.4-6.73-8.89-6.73-2.38,0-4.83,1.26-7.35,3.78v-3.52c2.46-2.49,5.07-3.74,7.83-3.74,2.26,0,4.44.81,6.55,2.44,2.11,1.63,3.97,3.95,5.59,6.97v1.94c-4.31,5.54-10.28,8.32-17.91,8.32h-5.98Z"/>
      <path class="cls-3" d="m1281.82,360.66l1.01-1.89h1.19c-.29-.53-.44-1.09-.44-1.67,0-.85.32-1.59.97-2.22.64-.63,1.41-.95,2.29-.95.73,0,1.44.23,2.11.7v1.94c-.65-.5-1.26-.75-1.85-.75-1.09,0-1.63.48-1.63,1.45,0,.5.21,1,.62,1.5h4l-1.01,1.89h-7.26Zm2.33-10.96v-26.36l3.79-2.02v28.38h-3.79Z"/>
    </g>
    <g>
      <circle class="cls-2" cx="1319.24" cy="340.69" r="16.19"/>
      <circle class="cls-1" cx="1319.24" cy="340.69" r="13.23"/>
    </g>
  </g>
  <g>
    <g>
      <line class="cls-6" x1="455.41" y1="350.79" x2="99.36" y2="186.93"/>
      <line class="cls-6" x1="455.41" y1="252.76" x2="287.64" y2="186.93"/>
      <g>
        <g>
          <line class="cls-5" x1="456.9" y1="440.26" x2="456.9" y2="156.25"/>
          <path class="cls-3" d="m456.9,455.35c2.63-7.1,7.13-15.91,11.89-21.37l-11.89,4.3-11.89-4.3c4.76,5.46,9.26,14.27,11.89,21.37Z"/>
          <path class="cls-3" d="m456.9,141.16c2.63,7.1,7.13,15.91,11.89,21.37l-11.89-4.3-11.89,4.3c4.76-5.46,9.26-14.27,11.89-21.37Z"/>
        </g>
        <g>
          <line class="cls-5" x1="59.51" y1="186.93" x2="503.52" y2="186.93"/>
          <path class="cls-3" d="m44.42,186.93c7.1,2.63,15.91,7.13,21.37,11.89l-4.3-11.89,4.3-11.89c-5.46,4.76-14.27,9.26-21.37,11.89Z"/>
          <path class="cls-3" d="m518.61,186.93c-7.1,2.63-15.91,7.13-21.37,11.89l4.3-11.89-4.3-11.89c5.46,4.76,14.27,9.26,21.37,11.89Z"/>
        </g>
      </g>
    </g>
    <path class="cls-3" d="m543.51,178.37l-5.78,8.25,5.97,8.78h-3.56l-4.28-6.45-4.46,6.45h-3.57l6.34-8.67-5.37-8.37h3.57l3.56,5.89,4.01-5.89h3.56Z"/>
    <path class="cls-3" d="m465.72,104.06l-7.32,19.59c-1.18,3.08-2.76,4.62-4.77,4.62-1.35,0-2.75-.54-4.2-1.61l.98-1.65c.85.5,1.59.75,2.21.75,1.15,0,2.06-.83,2.74-2.48l.86-2.18h-.67l-6.38-17.04h3.34l4.84,13.51,4.99-13.51h3.38Z"/>
    <g>
      <path class="cls-3" d="m476.34,346.93h3.71l6.08,11.56,6.04-11.56h3.71l-8.03,14.41v9.34h-3.45v-9.34l-8.07-14.41Z"/>
      <path class="cls-3" d="m505.23,346.48h2.89c-3.35,4.55-5.03,9.42-5.03,14.6,0,2.6.47,5.3,1.43,8.1.95,2.8,2.15,5.05,3.6,6.75h-2.89c-1.48-1.4-2.74-3.55-3.79-6.45-1.05-2.9-1.58-5.7-1.58-8.41s.51-5.28,1.52-8.03c1.01-2.75,2.29-4.94,3.85-6.57Z"/>
      <path class="cls-3" d="m520.77,371.13c-2.88,0-5.1-1.3-6.68-3.9-1.35-2.2-2.03-4.99-2.03-8.37,0-3.78.89-6.84,2.66-9.19,1.58-2.13,3.59-3.19,6.04-3.19,2.78,0,5,1.36,6.68,4.09,1.38,2.28,2.06,5.04,2.06,8.29,0,3.88-.88,6.95-2.63,9.23-1.58,2.03-3.62,3.04-6.12,3.04Zm0-21.65c-1.6,0-2.84.79-3.71,2.38-.88,1.59-1.31,3.85-1.31,6.77s.47,5.44,1.43,7.17c.9,1.55,2.09,2.33,3.56,2.33,1.6,0,2.85-.84,3.75-2.53.9-1.69,1.35-4.01,1.35-6.96s-.48-5.38-1.43-6.98c-.88-1.45-2.09-2.18-3.64-2.18Z"/>
      <path class="cls-3" d="m534.24,374.55l-.75-1.46c.98-.63,1.46-1.33,1.46-2.1v-.15c-.1.05-.21.08-.34.08-.43,0-.79-.18-1.11-.54s-.47-.79-.47-1.29c0-.58.19-1.06.56-1.44.38-.39.84-.58,1.39-.58,1.5,0,2.25,1.05,2.25,3.15,0,.98-.28,1.86-.83,2.66-.55.8-1.28,1.36-2.18,1.69Z"/>
      <path class="cls-3" d="m548.76,363.03h-9v-2.63h9v2.63Z"/>
      <path class="cls-3" d="m559.08,346.93v23.75h-3.49v-19.92l-4.39,2.55-1.69-2.59,6.08-3.79h3.49Z"/>
      <path class="cls-3" d="m564.33,370.68v-3.04l5.97-6.64c1.8-2,3.02-3.56,3.66-4.67.64-1.11.96-2.23.96-3.36,0-1.05-.38-1.9-1.12-2.55-.75-.65-1.75-.98-3-.98-1.5,0-3.09.55-4.77,1.65l-1.46-2.1c2.23-1.7,4.5-2.55,6.83-2.55,2.18,0,3.94.64,5.29,1.91,1.28,1.18,1.91,2.71,1.91,4.62,0,1.23-.29,2.41-.86,3.55-.58,1.14-1.58,2.52-3,4.15l-6.23,7.13h9.57v2.89h-13.73Z"/>
      <path class="cls-3" d="m582.61,346.48h2.89c1.55,1.63,2.83,3.81,3.85,6.57,1.01,2.75,1.52,5.43,1.52,8.03,0,3.65-.81,7.14-2.44,10.47-.98,2.03-1.95,3.49-2.93,4.39h-2.89c1.45-1.7,2.65-3.95,3.6-6.75.95-2.8,1.43-5.5,1.43-8.1,0-5.18-1.68-10.04-5.03-14.6Z"/>
    </g>
    <g>
      <path class="cls-3" d="m480.02,241.02l6.3,18.42,6.27-18.42h3.68l-8.59,23.75h-2.74l-8.59-23.75h3.68Z"/>
      <path class="cls-3" d="m505.61,240.57h2.89c-3.35,4.55-5.03,9.42-5.03,14.6,0,2.6.47,5.3,1.43,8.1.95,2.8,2.15,5.05,3.6,6.75h-2.89c-1.48-1.4-2.74-3.55-3.79-6.45-1.05-2.9-1.58-5.7-1.58-8.41s.51-5.28,1.52-8.03c1.01-2.75,2.29-4.94,3.85-6.57Z"/>
      <path class="cls-3" d="m521.14,265.22c-2.88,0-5.1-1.3-6.68-3.9-1.35-2.2-2.03-4.99-2.03-8.37,0-3.78.89-6.84,2.66-9.19,1.58-2.13,3.59-3.19,6.04-3.19,2.78,0,5,1.36,6.68,4.09,1.38,2.28,2.06,5.04,2.06,8.29,0,3.88-.88,6.95-2.63,9.23-1.58,2.03-3.62,3.04-6.12,3.04Zm0-21.65c-1.6,0-2.84.79-3.71,2.38-.88,1.59-1.31,3.85-1.31,6.77s.47,5.44,1.43,7.17c.9,1.55,2.09,2.33,3.56,2.33,1.6,0,2.85-.84,3.75-2.53s1.35-4.01,1.35-6.96-.48-5.38-1.43-6.98c-.88-1.45-2.09-2.18-3.64-2.18Z"/>
      <path class="cls-3" d="m534.61,268.63l-.75-1.46c.98-.63,1.46-1.33,1.46-2.1v-.15c-.1.05-.21.08-.34.08-.43,0-.79-.18-1.11-.54-.31-.36-.47-.79-.47-1.29,0-.58.19-1.06.56-1.44.38-.39.84-.58,1.39-.58,1.5,0,2.25,1.05,2.25,3.15,0,.98-.28,1.86-.83,2.66-.55.8-1.28,1.36-2.18,1.69Z"/>
      <path class="cls-3" d="m549.14,257.11h-9.01v-2.63h9.01v2.63Z"/>
      <path class="cls-3" d="m558.14,253.59h-3.38v-2.89h3.38c2.68,0,4.01-1.21,4.01-3.64,0-1.13-.34-2-1.03-2.63-.69-.62-1.63-.94-2.83-.94-1.5,0-3.09.6-4.77,1.8l-1.35-2.14c1.85-1.73,4.05-2.59,6.6-2.59,2.08,0,3.79.6,5.14,1.8,1.28,1.15,1.91,2.63,1.91,4.43,0,1.25-.33,2.33-.99,3.23-.66.9-1.57,1.51-2.72,1.84,3.1.85,4.65,2.84,4.65,5.97,0,2.6-.96,4.57-2.89,5.89-1.43.98-3.11,1.46-5.07,1.46-2.5,0-4.83-.9-6.98-2.7l1.46-2.06c1.5,1.15,3.23,1.73,5.18,1.73,1.4,0,2.52-.4,3.36-1.2.84-.8,1.26-1.85,1.26-3.15,0-2.8-1.65-4.2-4.95-4.2Z"/>
      <path class="cls-3" d="m570.82,240.57h2.89c1.55,1.63,2.83,3.81,3.85,6.57,1.01,2.75,1.52,5.43,1.52,8.03,0,3.65-.81,7.14-2.44,10.47-.98,2.03-1.95,3.49-2.93,4.39h-2.89c1.45-1.7,2.65-3.95,3.6-6.75.95-2.8,1.43-5.5,1.43-8.1,0-5.18-1.68-10.04-5.03-14.6Z"/>
    </g>
    <g>
      <path class="cls-3" d="m254.23,162.11c0,6.93-2.9,10.39-8.71,10.39s-8.71-3.46-8.71-10.39v-13.81h3.53v14.6c0,4.4,1.73,6.6,5.18,6.6s5.18-2.2,5.18-6.6v-14.6h3.53v13.81Z"/>
      <path class="cls-3" d="m266.39,147.86h2.89c-3.35,4.55-5.03,9.42-5.03,14.6,0,2.6.47,5.3,1.43,8.1.95,2.8,2.15,5.05,3.6,6.75h-2.89c-1.48-1.4-2.74-3.55-3.79-6.45s-1.58-5.7-1.58-8.41.51-5.28,1.52-8.03c1.01-2.75,2.29-4.94,3.85-6.57Z"/>
      <path class="cls-3" d="m281.36,164.4h-9v-2.63h9v2.63Z"/>
      <path class="cls-3" d="m296.22,162c-1.1,1.2-2.56,1.8-4.39,1.8-1.95,0-3.63-.65-5.03-1.95-1.5-1.4-2.25-3.36-2.25-5.89,0-2.18.71-4.08,2.14-5.7,1.4-1.6,3.2-2.4,5.4-2.4,2.93,0,5.07,1.36,6.42,4.09.98,1.95,1.46,4.39,1.46,7.32,0,4.38-.84,7.73-2.51,10.06-1.53,2.13-3.63,3.19-6.3,3.19-2.28,0-4.19-.68-5.74-2.03l1.24-2.06c1.3.73,2.75,1.09,4.35,1.09s2.76-.68,3.7-2.03c.94-1.35,1.44-3.18,1.52-5.48Zm.19-2.89c-.1-5.6-1.53-8.4-4.28-8.4-1.15,0-2.09.49-2.81,1.48-.73.99-1.09,2.25-1.09,3.77,0,3.38,1.4,5.07,4.2,5.07,1.65,0,2.98-.64,3.98-1.91Z"/>
      <path class="cls-3" d="m304.25,175.92l-.75-1.46c.98-.63,1.46-1.33,1.46-2.1v-.15c-.1.05-.21.08-.34.08-.43,0-.79-.18-1.11-.54s-.47-.79-.47-1.29c0-.58.19-1.06.56-1.44.38-.39.84-.58,1.39-.58,1.5,0,2.25,1.05,2.25,3.15,0,.98-.28,1.86-.83,2.66-.55.8-1.28,1.36-2.18,1.69Z"/>
      <path class="cls-3" d="m319.33,172.51c-2.88,0-5.1-1.3-6.68-3.9-1.35-2.2-2.03-4.99-2.03-8.37,0-3.78.89-6.84,2.66-9.19,1.58-2.13,3.59-3.19,6.04-3.19,2.78,0,5,1.36,6.68,4.09,1.38,2.28,2.06,5.04,2.06,8.29,0,3.88-.88,6.95-2.63,9.23-1.58,2.03-3.62,3.04-6.12,3.04Zm0-21.65c-1.6,0-2.84.79-3.71,2.38-.88,1.59-1.31,3.85-1.31,6.77s.47,5.44,1.43,7.17c.9,1.55,2.09,2.33,3.56,2.33,1.6,0,2.85-.84,3.75-2.53.9-1.69,1.35-4.01,1.35-6.96s-.48-5.38-1.43-6.98c-.88-1.45-2.09-2.18-3.64-2.18Z"/>
      <path class="cls-3" d="m332.17,147.86h2.89c1.55,1.63,2.83,3.81,3.85,6.57,1.01,2.75,1.52,5.43,1.52,8.03,0,3.65-.81,7.14-2.44,10.47-.98,2.03-1.95,3.49-2.93,4.39h-2.89c1.45-1.7,2.65-3.95,3.6-6.75.95-2.8,1.43-5.5,1.43-8.1,0-5.18-1.68-10.04-5.03-14.6Z"/>
    </g>
    <path class="cls-3" d="m111.43,148.31l-7.8,11.48,7.96,12.27h-4.01l-6.23-10.13-6.57,10.13h-4.01l8.52-12.27-7.32-11.48h4.01l5.67,8.93,5.78-8.93h4.01Z"/>
  </g>
  <g>
    <path class="cls-3" d="m659.52,152.97h3.3v4.05h-3.8c-1.8,0-3.42-.4-4.85-1.2-.47,3.43-2.02,6.13-4.65,8.1-2.33,1.73-5.22,2.6-8.65,2.6-4.47,0-7.92-1.5-10.35-4.5-1.87-2.33-2.8-5.12-2.8-8.35,0-2.83.68-5.25,2.05-7.25l4.3-.95c-1.53,2.37-2.3,4.95-2.3,7.75s.88,5.03,2.65,6.8c1.63,1.63,3.78,2.45,6.45,2.45,3.03,0,5.37-.9,7-2.7,1.4-1.53,2.1-3.5,2.1-5.9v-26.8l4.35-2.3v23.2c0,3.33,1.73,5,5.2,5Z"/>
    <path class="cls-3" d="m675.57,152.82c1.33-5.03,3.53-9.23,6.6-12.6,3.43-3.7,7.43-5.55,12-5.55,3.8,0,6.83,1.32,9.1,3.95,1.9,2.23,2.85,4.98,2.85,8.25v1.3c0,2.9-.88,5.15-2.65,6.75-1.53,1.4-3.55,2.1-6.05,2.1h-20.7c-2.77,0-4.95-.88-6.55-2.65-1.6,1.77-3.78,2.65-6.55,2.65h-3.8v-4.05h3.3c3.27,0,4.9-1.67,4.9-5v-7l4.3-2.3v9.3c0,2.8,1.08,4.42,3.25,4.85Zm26.25-5.05v-.9c0-2.6-.8-4.67-2.4-6.2-1.4-1.33-3.13-2-5.2-2-3.53,0-6.72,1.63-9.55,4.9-2.17,2.5-3.83,5.63-5,9.4h17.5c3.1,0,4.65-1.73,4.65-5.2Z"/>
    <path class="cls-3" d="m732.67,127.07l4.35-2.3v22.8c0,2.97-.88,5.32-2.65,7.05-1.67,1.6-3.85,2.4-6.55,2.4h-17.2l2.1-4.05h7.3v-19.4l4.3-2.3v21.7h3.15c3.47,0,5.2-1.82,5.2-5.45v-20.45Zm-6.2-1.75l-1.15,2.15h-8.25l1.15-2.15h1.35c-.33-.6-.5-1.23-.5-1.9,0-.97.37-1.81,1.1-2.53.73-.72,1.6-1.08,2.6-1.08.83,0,1.63.27,2.4.8v2.2c-.73-.57-1.43-.85-2.1-.85-1.23,0-1.85.55-1.85,1.65,0,.57.23,1.13.7,1.7h4.55Z"/>
    <path class="cls-3" d="m746.02,157.02v-29.95l4.3-2.3v32.25h-4.3Z"/>
    <path class="cls-3" d="m790.97,152.97h3.3v4.05h-3.8c-3.43,0-5.9-1.27-7.4-3.8-1.6,1.53-3.58,2.3-5.95,2.3-2.93,0-5.27-1.1-7-3.3-1.43-1.87-2.15-4.15-2.15-6.85,0-3.23.98-5.83,2.95-7.8,1.67-1.7,3.7-2.55,6.1-2.55,1.83,0,3.42.47,4.75,1.4v-2.15l4.35-2.3v16c0,3.33,1.62,5,4.85,5Zm-9.2-11.9c-1.23-1.37-2.75-2.05-4.55-2.05-1.47,0-2.67.59-3.6,1.78-.93,1.18-1.4,2.72-1.4,4.62s.47,3.48,1.4,4.65c.93,1.17,2.15,1.75,3.65,1.75,1.87,0,3.4-.77,4.6-2.3-.07-.6-.1-1.07-.1-1.4v-7.05Zm-6.45-12.3c-1.63,0-2.45-.83-2.45-2.5s.82-2.45,2.45-2.45,2.4.82,2.4,2.45-.8,2.5-2.4,2.5Zm6.35,0c-1.63,0-2.45-.83-2.45-2.5s.82-2.45,2.45-2.45,2.4.82,2.4,2.45-.8,2.5-2.4,2.5Z"/>
    <path class="cls-3" d="m835.97,152.97h3.3v4.05h-3.8c-2.67,0-4.75-.78-6.25-2.35-1.37,1.57-3.3,2.35-5.8,2.35h-32.15v-4.05h9.3l.15-.55v-25.35l4.3-2.3v18.3c3.8-5.6,8.52-8.4,14.15-8.4,3.77,0,6.78,1.32,9.05,3.95,1.93,2.23,2.9,4.98,2.9,8.25v1.2c0,3.27,1.62,4.9,4.85,4.9Zm-9.2-4.7v-1.4c0-2.6-.8-4.67-2.4-6.2-1.37-1.33-3.08-2-5.15-2-3.43,0-6.53,1.55-9.3,4.65-2.07,2.33-3.7,5.25-4.9,8.75v.9h18.05c1.43,0,2.41-.33,2.93-1,.52-.67.77-1.9.77-3.7Z"/>
    <path class="cls-3" d="m858.12,152.97h9.3v4.05h-12.2c-1.3,0-2.43-.12-3.4-.35-.93.23-2.07.35-3.4.35h-12.15v-4.05h9.3c-2.07-2.37-3.1-4.98-3.1-7.85,0-3.27.92-5.87,2.75-7.8,1.67-1.77,3.87-2.65,6.6-2.65,3.13,0,5.55,1.13,7.25,3.4,1.43,1.87,2.15,4.22,2.15,7.05s-1.03,5.48-3.1,7.85Zm-9.45-23.35c-1.63,0-2.45-.83-2.45-2.5s.82-2.45,2.45-2.45,2.4.82,2.4,2.45-.8,2.5-2.4,2.5Zm3.2,22.9c1.53-.53,2.78-1.51,3.75-2.92.97-1.42,1.45-2.97,1.45-4.67,0-1.93-.47-3.46-1.42-4.58-.95-1.12-2.23-1.67-3.83-1.67s-2.88.57-3.82,1.7c-.95,1.13-1.43,2.65-1.43,4.55,0,1.67.5,3.22,1.5,4.65,1,1.43,2.27,2.42,3.8,2.95Zm3.15-22.9c-1.63,0-2.45-.83-2.45-2.5s.82-2.45,2.45-2.45,2.4.82,2.4,2.45-.8,2.5-2.4,2.5Z"/>
    <path class="cls-3" d="m864.42,157.02v-4.05h3.3c3.27,0,4.9-1.67,4.9-5v-10.35l4.3-2.3v12.8c0,2.83-.85,5.07-2.55,6.7-1.57,1.47-3.62,2.2-6.15,2.2h-3.8Zm10.2-27.75c-1.63,0-2.45-.83-2.45-2.5s.82-2.45,2.45-2.45,2.4.82,2.4,2.45-.8,2.5-2.4,2.5Z"/>
    <path class="cls-3" d="m905.87,157.02c-3.03,0-5.4-1.02-7.1-3.05-1.47-1.77-2.2-4.02-2.2-6.75,0-2.97.83-5.54,2.48-7.72s4.01-3.79,7.08-4.83c3.23,1.1,5.67,2.83,7.3,5.2,1.47,2.1,2.2,4.55,2.2,7.35,0,3.17-.93,5.65-2.8,7.45-1.67,1.57-3.82,2.35-6.45,2.35h-.5Zm-.15-4.05h.75c1.5,0,2.69-.52,3.58-1.55.88-1.03,1.33-2.42,1.33-4.15,0-4-1.75-6.87-5.25-8.6-3.5,1.73-5.25,4.58-5.25,8.55,0,1.77.43,3.17,1.3,4.2.87,1.03,2.05,1.55,3.55,1.55Z"/>
    <path class="cls-3" d="m935.87,152.97h3.3v4.05h-3.8c-1.7,0-3.17-.33-4.4-1-.3,3.3-1.45,5.93-3.45,7.9-1.83,1.8-4.13,2.7-6.9,2.7-2,0-3.95-.5-5.85-1.5v-3.75c1.7.93,3.4,1.4,5.1,1.4,2.13,0,3.8-.72,5-2.15,1.2-1.43,1.8-3.42,1.8-5.95v-17.05l4.3-2.3v.05l.05-.05v13.65c.3,2.67,1.92,4,4.85,4Zm-7.75-23.7c-1.63,0-2.45-.83-2.45-2.5s.82-2.45,2.45-2.45,2.4.82,2.4,2.45-.8,2.5-2.4,2.5Z"/>
    <path class="cls-3" d="m946.02,135.87h.3c3.77,0,6.82,1.17,9.15,3.5,2.13,2.1,3.2,4.78,3.2,8.05v.85c0,2.87-.88,5.1-2.65,6.7-1.57,1.37-3.58,2.05-6.05,2.05h-13.8v-4.05h13.4c3.2,0,4.8-1.68,4.8-5.05v-.45c0-2.47-.97-4.37-2.9-5.7-1.53-1.03-3.4-1.55-5.6-1.55-1.77,0-3.55.32-5.35.95v-4.25l10.95-12.15h4.4l-9.85,11.1Z"/>
    <path class="cls-3" d="m978.42,152.97h3.3v4.05h-3.8c-1.7,0-3.17-.33-4.4-1-.3,3.3-1.45,5.93-3.45,7.9-1.83,1.8-4.13,2.7-6.9,2.7-2,0-3.95-.5-5.85-1.5v-3.75c1.7.93,3.4,1.4,5.1,1.4,2.13,0,3.8-.72,5-2.15,1.2-1.43,1.8-3.42,1.8-5.95v-17.05l4.3-2.3v.05l.05-.05v13.65c.3,2.67,1.92,4,4.85,4Z"/>
    <path class="cls-3" d="m986.92,143.47c0-2.9.87-5.15,2.6-6.75,1.53-1.37,3.53-2.05,6-2.05,3.17,0,5.6,1.17,7.3,3.5,1.47,1.97,2.2,4.53,2.2,7.7,0,3.6-.93,6.42-2.8,8.45-1.63,1.8-3.77,2.7-6.4,2.7-3,0-5.28-.83-6.85-2.5-1.6,1.67-3.75,2.5-6.45,2.5h-3.8v-4.05h3.3c3.27,0,4.9-1.67,4.9-5v-4.5Zm4.3,4.85c0,3.1,1.52,4.65,4.55,4.65,1.57,0,2.79-.63,3.67-1.9.88-1.27,1.33-3.03,1.33-5.3s-.47-3.97-1.4-5.22c-.93-1.25-2.22-1.88-3.85-1.88-2.87,0-4.3,1.67-4.3,5v4.65Z"/>
    <path class="cls-3" d="m1037.17,152.97h3.3v4.05h-3.8c-1.7,0-3.17-.33-4.4-1-.3,3.3-1.45,5.93-3.45,7.9-1.83,1.8-4.13,2.7-6.9,2.7-2,0-3.95-.5-5.85-1.5v-3.75c1.7.93,3.4,1.4,5.1,1.4,2.13,0,3.8-.72,5-2.15,1.2-1.43,1.8-3.42,1.8-5.95v-17.05l4.3-2.3v.05l.05-.05v13.65c.3,2.67,1.92,4,4.85,4Z"/>
    <path class="cls-3" d="m1054.87,152.97h3.3v4.05h-3.8c-2.77,0-4.95-.88-6.55-2.65-1.6,1.77-3.78,2.65-6.55,2.65h-3.8v-4.05h3.3c3.27,0,4.9-1.67,4.9-5v-10.35l4.3-2.3v12.65c0,3.33,1.63,5,4.9,5Zm-11.95,9.05c1.6,0,2.4.83,2.4,2.5s-.8,2.45-2.4,2.45-2.45-.82-2.45-2.45.82-2.5,2.45-2.5Zm6.35,0c1.6,0,2.4.83,2.4,2.5s-.8,2.45-2.4,2.45-2.45-.82-2.45-2.45.82-2.5,2.45-2.5Z"/>
    <path class="cls-3" d="m1072.57,152.97h3.3v4.05h-3.8c-2.77,0-4.95-.88-6.55-2.65-1.6,1.77-3.78,2.65-6.55,2.65h-3.8v-4.05h3.3c3.27,0,4.9-1.67,4.9-5v-10.35l4.3-2.3v12.65c0,3.33,1.63,5,4.9,5Zm-7.35,9.05c1.6,0,2.4.82,2.4,2.45s-.8,2.5-2.4,2.5-2.45-.83-2.45-2.5.82-2.45,2.45-2.45Z"/>
    <path class="cls-3" d="m1100.22,152.97h2.85v4.05h-3.3c-2.8,0-4.98-.87-6.55-2.6-1.57,1.73-3.75,2.6-6.55,2.6h-13.8v-4.05h13.4c3.2,0,4.8-1.68,4.8-5.05v-.45c0-2.5-.97-4.4-2.9-5.7-1.53-1.07-3.42-1.6-5.65-1.6-1.77,0-3.53.33-5.3,1v-4.25l10.95-12.15h4.4l-9.85,11.1h.3c3.8,0,6.87,1.15,9.2,3.45,2.1,2.13,3.15,4.83,3.15,8.1v.55c0,3.33,1.62,5,4.85,5Z"/>
    <path class="cls-3" d="m1100.07,157.02v-4.05h3.3c3.27,0,4.9-1.67,4.9-5v-10.35l4.3-2.3v12.8c0,2.83-.85,5.07-2.55,6.7-1.57,1.47-3.62,2.2-6.15,2.2h-3.8Zm3.85-27.75c-1.63,0-2.45-.83-2.45-2.5s.82-2.45,2.45-2.45,2.4.82,2.4,2.45-.8,2.5-2.4,2.5Zm6.35,0c-1.63,0-2.45-.83-2.45-2.5s.82-2.45,2.45-2.45,2.4.82,2.4,2.45-.8,2.5-2.4,2.5Z"/>
    <path class="cls-3" d="m1163.07,152.97h3.3v4.05h-3.8c-1.73,0-3.23-.35-4.5-1.05-.4,3.4-1.88,6.05-4.45,7.95-2.3,1.73-5.15,2.6-8.55,2.6-4.33,0-7.7-1.53-10.1-4.6-1.83-2.37-2.75-5.17-2.75-8.4,0-2.8.7-5.2,2.1-7.2l4.15-.9c-1.5,2.37-2.25,4.92-2.25,7.65s.87,5.1,2.6,6.9c1.63,1.67,3.72,2.5,6.25,2.5,2.93,0,5.2-.85,6.8-2.55,1.33-1.43,2-3.3,2-5.6v-16.7l4.3-2.3v12.65c0,3.33,1.63,5,4.9,5Zm-18.25-18.5c-1.63,0-2.45-.83-2.45-2.5s.82-2.45,2.45-2.45,2.4.82,2.4,2.45-.8,2.5-2.4,2.5Z"/>
    <path class="cls-3" d="m1190.32,152.97v4.05h-26.95v-4.05h8.65c-1.63-2.1-2.45-4.68-2.45-7.75,0-3.4,1.17-6.1,3.5-8.1,1.9-1.6,4.1-2.42,6.6-2.45,3.53,0,6.28,1.42,8.25,4.25v4.05c-2.13-2.87-4.72-4.3-7.75-4.3-1.9,0-3.42.61-4.57,1.83s-1.72,2.84-1.72,4.88c0,2.3.69,4.14,2.07,5.52,1.38,1.38,3.22,2.08,5.53,2.08h8.85Z"/>
    <path class="cls-3" d="m1228.97,152.97h3.3v4.05h-3.8c-3.43,0-5.9-1.27-7.4-3.8-1.6,1.53-3.58,2.3-5.95,2.3-2.93,0-5.27-1.1-7-3.3-1.43-1.87-2.15-4.15-2.15-6.85,0-3.23.98-5.83,2.95-7.8,1.67-1.7,3.7-2.55,6.1-2.55,1.83,0,3.42.47,4.75,1.4v-2.15l4.35-2.3v16c0,3.33,1.62,5,4.85,5Zm-9.2-11.9c-1.23-1.37-2.75-2.05-4.55-2.05-1.47,0-2.67.59-3.6,1.78-.93,1.18-1.4,2.72-1.4,4.62s.47,3.48,1.4,4.65c.93,1.17,2.15,1.75,3.65,1.75,1.87,0,3.4-.77,4.6-2.3-.07-.6-.1-1.07-.1-1.4v-7.05Zm-6.45-12.3c-1.63,0-2.45-.83-2.45-2.5s.82-2.45,2.45-2.45,2.4.82,2.4,2.45-.8,2.5-2.4,2.5Zm6.35,0c-1.63,0-2.45-.83-2.45-2.5s.82-2.45,2.45-2.45,2.4.82,2.4,2.45-.8,2.5-2.4,2.5Z"/>
    <path class="cls-3" d="m1261.87,152.97h3.25v4.05h-3.3c-2.7,0-4.87-.31-6.5-.92-1.63-.62-3.15-1.71-4.55-3.28-4.2,2.8-9.1,4.2-14.7,4.2h-6.8v-4.05h6.85c6.77,0,12.12-2.23,16.05-6.7-2.77-5.1-6.13-7.65-10.1-7.65-2.7,0-5.48,1.43-8.35,4.3v-4c2.8-2.83,5.77-4.25,8.9-4.25,2.57,0,5.05.92,7.45,2.77,2.4,1.85,4.52,4.49,6.35,7.93v2.2c-1.03,1.3-2.02,2.35-2.95,3.15,1.8,1.5,4.6,2.25,8.4,2.25Zm-16.35,9.05c1.6,0,2.4.82,2.4,2.45s-.8,2.5-2.4,2.5-2.45-.83-2.45-2.5.82-2.45,2.45-2.45Z"/>
    <path class="cls-3" d="m1262.12,157.02v-4.05h3.3c3.27,0,4.9-1.67,4.9-5v-10.35l4.3-2.3v12.8c0,2.83-.85,5.07-2.55,6.7-1.57,1.47-3.62,2.2-6.15,2.2h-3.8Zm3.85-27.75c-1.63,0-2.45-.83-2.45-2.5s.82-2.45,2.45-2.45,2.4.82,2.4,2.45-.8,2.5-2.4,2.5Zm6.35,0c-1.63,0-2.45-.83-2.45-2.5s.82-2.45,2.45-2.45,2.4.82,2.4,2.45-.8,2.5-2.4,2.5Z"/>
    <path class="cls-3" d="m1292.32,157.02c-2.9,0-5.13-.93-6.7-2.8-1.33-1.6-2-3.63-2-6.1v-21.05l4.3-2.3v23.2c0,3.33,1.63,5,4.9,5h3.3v4.05h-3.8Z"/>
    <path class="cls-3" d="m1310.52,152.97h3.3v4.05h-3.8c-2.77,0-4.95-.88-6.55-2.65-1.6,1.77-3.78,2.65-6.55,2.65h-3.8v-4.05h3.3c3.27,0,4.9-1.67,4.9-5v-10.35l4.3-2.3v12.65c0,3.33,1.63,5,4.9,5Zm-7.9-23.7c-1.63,0-2.45-.83-2.45-2.5s.82-2.45,2.45-2.45,2.4.82,2.4,2.45-.8,2.5-2.4,2.5Z"/>
    <path class="cls-3" d="m1310.82,157.02v-4.05h2.65c3.47,0,5.2-1.82,5.2-5.45v-20.45l4.35-2.3v22.8c0,2.97-.88,5.32-2.65,7.05-1.67,1.6-3.85,2.4-6.55,2.4h-3Z"/>
    <path class="cls-3" d="m1332.02,157.02v-29.95l4.3-2.3v32.25h-4.3Z"/>
  </g>
  <g>
    <path class="cls-3" d="m1265.52,196.89v-.1c.07-1.67.95-2.5,2.65-2.5s2.65.87,2.65,2.6-.88,2.65-2.65,2.65-2.65-.88-2.65-2.65Zm0,12v-.1c.07-1.67.95-2.5,2.65-2.5s2.65.87,2.65,2.6-.88,2.65-2.65,2.65-2.65-.88-2.65-2.65Z"/>
    <path class="cls-3" d="m1273.77,211.29l2.1-4.05h8.9c1.33,0,2.27-.33,2.82-1,.55-.67.83-1.82.83-3.45,0-4.43-2.05-7.77-6.15-10l2.2-3.7c5.23,3.07,7.97,7.3,8.2,12.7.07,1.93.51,3.33,1.33,4.17.82.85,2.12,1.28,3.92,1.28h2.95v4.05h-3.3c-2.77,0-4.93-.88-6.5-2.65-1.1,1.77-2.95,2.65-5.55,2.65h-11.75Z"/>
    <path class="cls-3" d="m1297.87,211.29v-4.05h6.85c6.77,0,12.12-2.23,16.05-6.7-2.77-5.1-6.13-7.65-10.1-7.65-2.7,0-5.48,1.43-8.35,4.3v-4c2.8-2.83,5.77-4.25,8.9-4.25,2.57,0,5.05.93,7.45,2.77,2.4,1.85,4.52,4.49,6.35,7.93v2.2c-4.9,6.3-11.68,9.45-20.35,9.45h-6.8Zm14.65,9.95c-1.63,0-2.45-.83-2.45-2.5s.82-2.45,2.45-2.45,2.4.82,2.4,2.45-.8,2.5-2.4,2.5Z"/>
    <path class="cls-3" d="m1329.37,178.34l1.15-2.15h1.35c-.33-.6-.5-1.22-.5-1.85,0-1,.37-1.86,1.1-2.57.73-.72,1.6-1.08,2.6-1.08.83,0,1.63.27,2.4.8v2.2c-.73-.57-1.43-.85-2.1-.85-1.23,0-1.85.55-1.85,1.65,0,.57.23,1.13.7,1.7h4.55l-1.15,2.15h-8.25Zm2.65,32.95v-27.95l4.3-2.3v30.25h-4.3Z"/>
  </g>
</svg>