<?xml version="1.0" encoding="UTF-8"?>
<svg id="Layer_1" data-name="Layer 1" xmlns="http://www.w3.org/2000/svg" width="1240.07" height="293.11" viewBox="0 0 1240.07 293.11">
  <defs>
    <style>
      .cls-1 {
        fill: #fff;
        stroke-width: 0px;
      }
    </style>
  </defs>
  <path class="cls-1" d="m45.13,41.8h3.3v4.05h-3.8c-3.43,0-5.9-1.27-7.4-3.8-1.6,1.53-3.58,2.3-5.95,2.3-2.93,0-5.27-1.1-7-3.3-1.43-1.87-2.15-4.15-2.15-6.85,0-3.23.98-5.83,2.95-7.8,1.67-1.7,3.7-2.55,6.1-2.55,1.83,0,3.42.47,4.75,1.4v-2.15l4.35-2.3v16c0,3.33,1.62,5,4.85,5Zm-9.2-11.9c-1.23-1.37-2.75-2.05-4.55-2.05-1.47,0-2.67.59-3.6,1.78-.93,1.18-1.4,2.72-1.4,4.62s.47,3.48,1.4,4.65c.93,1.17,2.15,1.75,3.65,1.75,1.87,0,3.4-.77,4.6-2.3-.07-.6-.1-1.07-.1-1.4v-7.05Zm-6.45-12.3c-1.63,0-2.45-.83-2.45-2.5s.82-2.45,2.45-2.45,2.4.82,2.4,2.45-.8,2.5-2.4,2.5Zm6.35,0c-1.63,0-2.45-.83-2.45-2.5s.82-2.45,2.45-2.45,2.4.82,2.4,2.45-.8,2.5-2.4,2.5Z"/>
  <path class="cls-1" d="m55.28,24.7h.3c3.77,0,6.82,1.17,9.15,3.5,2.13,2.1,3.2,4.78,3.2,8.05v.85c0,2.87-.88,5.1-2.65,6.7-1.57,1.37-3.58,2.05-6.05,2.05h-13.8v-4.05h13.4c3.2,0,4.8-1.68,4.8-5.05v-.45c0-2.47-.97-4.37-2.9-5.7-1.53-1.03-3.4-1.55-5.6-1.55-1.77,0-3.55.32-5.35.95v-4.25l10.95-12.15h4.4l-9.85,11.1Z"/>
  <path class="cls-1" d="m87.68,41.8h3.3v4.05h-3.8c-1.7,0-3.17-.33-4.4-1-.3,3.3-1.45,5.93-3.45,7.9-1.83,1.8-4.13,2.7-6.9,2.7-2,0-3.95-.5-5.85-1.5v-3.75c1.7.93,3.4,1.4,5.1,1.4,2.13,0,3.8-.72,5-2.15s1.8-3.42,1.8-5.95v-17.05l4.3-2.3v.05l.05-.05v13.65c.3,2.67,1.92,4,4.85,4Z"/>
  <path class="cls-1" d="m87.98,45.85v-4.05h8.8v4.05h-8.8Z"/>
  <path class="cls-1" d="m93.78,45.85v-4.05h8.8v4.05h-8.8Z"/>
  <path class="cls-1" d="m99.58,45.85v-4.05h8.8v4.05h-8.8Z"/>
  <path class="cls-1" d="m105.38,45.85v-4.05h4.5c3.23,0,4.85-1.67,4.85-5v-7l4.3-2.3v9.3c0,3.33,1.63,5,4.9,5h2.3c3.27,0,4.9-1.67,4.9-5v-8.7l4.3-2.25v10.95c0,3.33,1.62,5,4.85,5h2.35c3.27,0,4.9-1.67,4.9-5v-10.35l4.3-2.3v12.2c0,3.63,1.73,5.45,5.2,5.45h4.15v4.05h-4.5c-3,0-5.28-1.02-6.85-3.05-1.4,2-3.58,3.02-6.55,3.05h-3.45c-2.93,0-5.12-.98-6.55-2.95-1.43,1.93-3.57,2.92-6.4,2.95h-3.45c-2.87,0-5.05-.98-6.55-2.95-1.43,1.97-3.62,2.95-6.55,2.95h-4.95Zm24.35-26.4c-1.63,0-2.45-.83-2.45-2.5s.82-2.45,2.45-2.45,2.4.82,2.4,2.45-.8,2.5-2.4,2.5Zm3.15-5.95c-1.47,0-2.2-.75-2.2-2.25s.73-2.2,2.2-2.2,2.2.73,2.2,2.2-.73,2.25-2.2,2.25Zm3.2,5.95c-1.63,0-2.45-.83-2.45-2.5s.82-2.45,2.45-2.45,2.4.82,2.4,2.45-.8,2.5-2.4,2.5Z"/>
  <path class="cls-1" d="m158.18,45.85v-4.05h2.65c3.47,0,5.2-1.82,5.2-5.45V15.9l4.35-2.3v22.8c0,2.97-.88,5.32-2.65,7.05-1.67,1.6-3.85,2.4-6.55,2.4h-3Z"/>
  <path class="cls-1" d="m198.41,43.2c0,3.73-.98,6.73-2.95,9-1.87,2.17-4.35,3.25-7.45,3.25-2,0-3.95-.5-5.85-1.5v-3.75c1.7.93,3.4,1.4,5.1,1.4,2.13,0,3.8-.72,5-2.15s1.8-3.42,1.8-5.95v-17.05l4.35-2.3v19.05Z"/>
  <path class="cls-1" d="m219.71,44.25c-1.27.5-2.82.75-4.65.75-2.97,0-5.3-1.12-7-3.35-1.43-1.9-2.15-4.28-2.15-7.15,0-3.53.95-6.3,2.85-8.3,1.7-1.8,3.93-2.7,6.7-2.7s5.02.88,6.55,2.65c1.37,1.57,2.05,3.62,2.05,6.15v10.9c0,3.77-.98,6.75-2.95,8.95-1.87,2.07-4.35,3.1-7.45,3.1-2.07,0-4.02-.48-5.85-1.45v-3.8c1.77.93,3.52,1.4,5.25,1.4,1.97,0,3.53-.62,4.7-1.88,1.17-1.25,1.82-3.01,1.95-5.27Zm0-11.75c0-3.33-1.42-5-4.25-5-1.67,0-2.97.62-3.92,1.85-.95,1.23-1.42,2.92-1.42,5.05s.46,3.78,1.38,5.03c.92,1.25,2.16,1.88,3.72,1.88,2.2,0,3.7-.62,4.5-1.85v-6.95Z"/>
  <path class="cls-1" d="m241.26,45.85c-2.9,0-5.13-.93-6.7-2.8-1.33-1.6-2-3.63-2-6.1V15.9l4.3-2.3v23.2c0,3.33,1.63,5,4.9,5h3.3v4.05h-3.8Z"/>
  <path class="cls-1" d="m242.06,45.85v-4.05h8.8v4.05h-8.8Z"/>
  <path class="cls-1" d="m247.86,45.85v-4.05h8.8v4.05h-8.8Z"/>
  <path class="cls-1" d="m253.66,45.85v-4.05h8.8v4.05h-8.8Z"/>
  <path class="cls-1" d="m292.06,41.8h3.25v4.05h-3.3c-2.7,0-4.87-.31-6.5-.92-1.63-.62-3.15-1.71-4.55-3.28-4.2,2.8-9.1,4.2-14.7,4.2h-6.8v-4.05h6.85c6.77,0,12.12-2.23,16.05-6.7-2.77-5.1-6.13-7.65-10.1-7.65-2.7,0-5.48,1.43-8.35,4.3v-4c2.8-2.83,5.77-4.25,8.9-4.25,2.57,0,5.05.92,7.45,2.77,2.4,1.85,4.52,4.49,6.35,7.92v2.2c-1.03,1.3-2.02,2.35-2.95,3.15,1.8,1.5,4.6,2.25,8.4,2.25Zm-16.35,9.05c1.6,0,2.4.82,2.4,2.45s-.8,2.5-2.4,2.5-2.45-.83-2.45-2.5.82-2.45,2.45-2.45Z"/>
  <path class="cls-1" d="m324.51,41.8h3.35v4.05h-3.8c-2.77,0-4.95-.88-6.55-2.65-1.7,2.43-4.18,3.65-7.45,3.65s-5.73-1.2-7.4-3.6c-1.57,1.73-3.75,2.6-6.55,2.6h-3.8v-4.05h3.3c3.27,0,4.9-1.67,4.9-5v-1.65c0-3.87.95-6.83,2.85-8.9,1.67-1.83,3.9-2.75,6.7-2.75,3.2,0,5.67,1.18,7.4,3.55,1.47,2.03,2.2,4.73,2.2,8.1v1.65c0,3.33,1.62,5,4.85,5Zm-14.45,1c1.63,0,2.92-.68,3.88-2.05s1.42-3.25,1.42-5.65c0-5.07-1.77-7.6-5.3-7.6s-5.25,2.53-5.25,7.6,1.75,7.7,5.25,7.7Z"/>
  <path class="cls-1" d="m324.86,45.85v-4.05h2.65c3.47,0,5.2-1.82,5.2-5.45V15.9l4.35-2.3v22.8c0,2.97-.88,5.32-2.65,7.05-1.67,1.6-3.85,2.4-6.55,2.4h-3Z"/>
  <path class="cls-1" d="m346.06,45.85V15.9l4.3-2.3v32.25h-4.3Z"/>
  <path class="cls-1" d="m378.38,43.2c0,3.73-.98,6.73-2.95,9-1.87,2.17-4.35,3.25-7.45,3.25-2,0-3.95-.5-5.85-1.5v-3.75c1.7.93,3.4,1.4,5.1,1.4,2.13,0,3.8-.72,5-2.15s1.8-3.42,1.8-5.95v-17.05l4.35-2.3v19.05Z"/>
  <path class="cls-1" d="m396.08,45.85c-2.9,0-5.13-.93-6.7-2.8-1.33-1.6-2-3.63-2-6.1V15.9l4.3-2.3v23.2c0,3.33,1.63,5,4.9,5h3.3v4.05h-3.8Z"/>
  <path class="cls-1" d="m421.58,41.8h13.2v4.05h-13.6c-1.8,0-3.58-.35-5.35-1.05-1.77.7-3.57,1.05-5.4,1.05h-13.55v-4.05h13.9c-2.4-1.97-4.87-4.85-7.4-8.65v-2.2c1.6-2.3,3.51-4.12,5.73-5.45,2.22-1.33,4.44-2,6.67-2s4.47.67,6.7,2.02c2.23,1.35,4.17,3.19,5.8,5.53v2.1c-2.53,3.8-5.02,6.68-7.45,8.65h.75Zm-14.2-9.7c3.07,4.2,5.88,6.97,8.45,8.3,2.57-1.37,5.38-4.15,8.45-8.35-2.5-3.03-5.33-4.57-8.5-4.6-3.17,0-5.97,1.55-8.4,4.65Z"/>
  <path class="cls-1" d="m431.78,45.85v-4.05h8.8v4.05h-8.8Z"/>
  <path class="cls-1" d="m437.58,45.85v-4.05h8.8v4.05h-8.8Z"/>
  <path class="cls-1" d="m443.38,45.85v-4.05h8.8v4.05h-8.8Z"/>
  <path class="cls-1" d="m449.18,45.85v-4.05h4.5c3.23,0,4.85-1.67,4.85-5v-7l4.3-2.3v9.3c0,3.33,1.63,5,4.9,5h2.3c3.27,0,4.9-1.67,4.9-5v-8.7l4.3-2.25v10.95c0,3.33,1.62,5,4.85,5h2.35c3.27,0,4.9-1.67,4.9-5v-10.35l4.3-2.3v12.2c0,3.63,1.73,5.45,5.2,5.45h4.15v4.05h-4.5c-3,0-5.28-1.02-6.85-3.05-1.4,2-3.58,3.02-6.55,3.05h-3.45c-2.93,0-5.12-.98-6.55-2.95-1.43,1.93-3.57,2.92-6.4,2.95h-3.45c-2.87,0-5.05-.98-6.55-2.95-1.43,1.97-3.62,2.95-6.55,2.95h-4.95Zm24.35-26.4c-1.63,0-2.45-.83-2.45-2.5s.82-2.45,2.45-2.45,2.4.82,2.4,2.45-.8,2.5-2.4,2.5Zm3.15-5.95c-1.47,0-2.2-.75-2.2-2.25s.73-2.2,2.2-2.2,2.2.73,2.2,2.2-.73,2.25-2.2,2.25Zm3.2,5.95c-1.63,0-2.45-.83-2.45-2.5s.82-2.45,2.45-2.45,2.4.82,2.4,2.45-.8,2.5-2.4,2.5Z"/>
  <path class="cls-1" d="m501.98,45.85v-4.05h2.65c3.47,0,5.2-1.82,5.2-5.45V15.9l4.35-2.3v22.8c0,2.97-.88,5.32-2.65,7.05-1.67,1.6-3.85,2.4-6.55,2.4h-3Z"/>
  <path class="cls-1" d="m523.18,45.85V15.9l4.3-2.3v32.25h-4.3Z"/>
  <path class="cls-1" d="m573.91,41.8h3.35v4.05h-3.8c-2.7,0-4.85-.83-6.45-2.5-1.57,1.6-3.78,2.43-6.65,2.5h-6.55c-3.27,0-4.9,1.67-4.9,5v8.45l-4.3,2.3v-10.9c0-2.77.8-4.95,2.4-6.55,1.43-1.47,3.33-2.25,5.7-2.35-1.2-1.93-1.8-4.3-1.8-7.1,0-3.63.95-6.47,2.85-8.5,1.7-1.8,3.93-2.7,6.7-2.7s5.02.88,6.55,2.65c1.37,1.57,2.05,3.62,2.05,6.15v4.5c0,3.33,1.62,5,4.85,5Zm-9.15-4.65v-4.65c0-3.33-1.43-5-4.3-5-1.67,0-2.96.62-3.88,1.88-.92,1.25-1.38,2.99-1.38,5.22s.43,4.03,1.3,5.3c.87,1.27,2.08,1.9,3.65,1.9,3.07,0,4.6-1.55,4.6-4.65Z"/>
  <path class="cls-1" d="m574.26,45.85v-4.05h8.8v4.05h-8.8Z"/>
  <path class="cls-1" d="m580.06,45.85v-4.05h8.8v4.05h-8.8Z"/>
  <path class="cls-1" d="m585.86,45.85v-4.05h8.8v4.05h-8.8Z"/>
  <path class="cls-1" d="m623.86,41.8h3.35v4.05h-3.8c-2.77,0-4.95-.88-6.55-2.65-1.7,2.43-4.18,3.65-7.45,3.65s-5.73-1.2-7.4-3.6c-1.57,1.73-3.75,2.6-6.55,2.6h-3.8v-4.05h3.3c3.27,0,4.9-1.67,4.9-5v-1.65c0-3.87.95-6.83,2.85-8.9,1.67-1.83,3.9-2.75,6.7-2.75,3.2,0,5.67,1.18,7.4,3.55,1.47,2.03,2.2,4.73,2.2,8.1v1.65c0,3.33,1.62,5,4.85,5Zm-14.45,1c1.63,0,2.92-.68,3.88-2.05s1.42-3.25,1.42-5.65c0-5.07-1.77-7.6-5.3-7.6s-5.25,2.53-5.25,7.6,1.75,7.7,5.25,7.7Z"/>
  <path class="cls-1" d="m675.41,41.8h3.3v4.05h-3.8c-2.8,0-4.98-.87-6.55-2.6-1.57,1.73-3.75,2.6-6.55,2.6h-20.7c-2.77,0-4.95-.88-6.55-2.65-1.6,1.77-3.78,2.65-6.55,2.65h-3.8v-4.05h3.3c3.27,0,4.9-1.67,4.9-5v-7l4.3-2.3v9.3c0,2.8,1.08,4.42,3.25,4.85,1.33-5.03,3.53-9.23,6.6-12.6,3.43-3.7,7.43-5.55,12-5.55,3.8,0,6.83,1.32,9.1,3.95,1.9,2.23,2.85,4.98,2.85,8.25v1.2c0,3.27,1.63,4.9,4.9,4.9Zm-13.85,0c3.1,0,4.65-1.73,4.65-5.2v-.9c0-2.6-.8-4.67-2.4-6.2-1.4-1.33-3.13-2-5.2-2-3.53,0-6.72,1.63-9.55,4.9-2.17,2.5-3.83,5.63-5,9.4h17.5Z"/>
  <path class="cls-1" d="m683.91,32.3c0-2.9.87-5.15,2.6-6.75,1.53-1.37,3.53-2.05,6-2.05,3.17,0,5.6,1.17,7.3,3.5,1.47,1.97,2.2,4.53,2.2,7.7,0,3.6-.93,6.42-2.8,8.45-1.63,1.8-3.77,2.7-6.4,2.7-3,0-5.28-.83-6.85-2.5-1.6,1.67-3.75,2.5-6.45,2.5h-3.8v-4.05h3.3c3.27,0,4.9-1.67,4.9-5v-4.5Zm4.3,4.85c0,3.1,1.52,4.65,4.55,4.65,1.57,0,2.79-.63,3.68-1.9.88-1.27,1.32-3.03,1.32-5.3s-.47-3.97-1.4-5.22c-.93-1.25-2.22-1.88-3.85-1.88-2.87,0-4.3,1.67-4.3,5v4.65Z"/>
  <path class="cls-1" d="m719.24,12.9l1.15-2.15h1.35c-.33-.6-.5-1.23-.5-1.9,0-.97.37-1.81,1.1-2.53.73-.72,1.58-1.07,2.55-1.07.83,0,1.63.27,2.4.8v2.2c-.7-.57-1.4-.85-2.1-.85-1.23,0-1.85.57-1.85,1.7,0,.53.25,1.08.75,1.65h4.55l-1.15,2.15h-8.25Zm11.35,32.95c-2.9,0-5.13-.93-6.7-2.8-1.33-1.6-2-3.63-2-6.1v-19.05l4.3-2.3v21.2c0,3.33,1.63,5,4.9,5h3.3v4.05h-3.8Z"/>
  <path class="cls-1" d="m731.39,45.85v-4.05h8.8v4.05h-8.8Z"/>
  <path class="cls-1" d="m737.19,45.85v-4.05h8.8v4.05h-8.8Z"/>
  <path class="cls-1" d="m742.99,45.85v-4.05h8.8v4.05h-8.8Z"/>
  <path class="cls-1" d="m748.79,45.85v-4.05h4.5c3.23,0,4.85-1.67,4.85-5v-7l4.3-2.3v9.3c0,3.33,1.63,5,4.9,5h2.3c3.27,0,4.9-1.67,4.9-5v-8.7l4.3-2.25v10.95c0,3.33,1.62,5,4.85,5h2.35c3.27,0,4.9-1.67,4.9-5v-10.35l4.3-2.3v12.2c0,3.63,1.73,5.45,5.2,5.45h4.15v4.05h-4.5c-3,0-5.28-1.02-6.85-3.05-1.4,2-3.58,3.02-6.55,3.05h-3.45c-2.93,0-5.12-.98-6.55-2.95-1.43,1.93-3.57,2.92-6.4,2.95h-3.45c-2.87,0-5.05-.98-6.55-2.95-1.43,1.97-3.62,2.95-6.55,2.95h-4.95Zm24.35-26.4c-1.63,0-2.45-.83-2.45-2.5s.82-2.45,2.45-2.45,2.4.82,2.4,2.45-.8,2.5-2.4,2.5Zm3.15-5.95c-1.47,0-2.2-.75-2.2-2.25s.73-2.2,2.2-2.2,2.2.73,2.2,2.2-.73,2.25-2.2,2.25Zm3.2,5.95c-1.63,0-2.45-.83-2.45-2.5s.82-2.45,2.45-2.45,2.4.82,2.4,2.45-.8,2.5-2.4,2.5Z"/>
  <path class="cls-1" d="m801.59,45.85v-4.05h3.3c3.27,0,4.9-1.67,4.9-5v-10.35l4.3-2.3v12.8c0,2.83-.85,5.07-2.55,6.7-1.57,1.47-3.62,2.2-6.15,2.2h-3.8Zm10.2-27.75c-1.63,0-2.45-.83-2.45-2.5s.82-2.45,2.45-2.45,2.4.82,2.4,2.45-.8,2.5-2.4,2.5Z"/>
  <path class="cls-1" d="m820.44,12.9l1.15-2.15h1.35c-.33-.6-.5-1.22-.5-1.85,0-1,.37-1.86,1.1-2.58.73-.72,1.6-1.07,2.6-1.07.83,0,1.63.27,2.4.8v2.2c-.73-.57-1.43-.85-2.1-.85-1.23,0-1.85.55-1.85,1.65,0,.57.23,1.13.7,1.7h4.55l-1.15,2.15h-8.25Zm2.65,32.95v-27.95l4.3-2.3v30.25h-4.3Z"/>
  <path class="cls-1" d="m848.06,31.45v-.1c.07-1.67.95-2.5,2.65-2.5s2.65.87,2.65,2.6-.88,2.65-2.65,2.65-2.65-.88-2.65-2.65Zm0,12v-.1c.07-1.67.95-2.5,2.65-2.5s2.65.87,2.65,2.6-.88,2.65-2.65,2.65-2.65-.88-2.65-2.65Z"/>
  <path class="cls-1" d="m889.16,45.85c-.33,2.93-1.93,5.28-4.8,7.05-2.67,1.63-6.07,2.45-10.2,2.45-5.27,0-9.23-1.53-11.9-4.6-1.97-2.27-2.95-5.07-2.95-8.4,0-2.8.7-5.2,2.1-7.2l4.15-.9c-1.5,2.37-2.25,4.92-2.25,7.65,0,2.97.97,5.3,2.9,7,1.9,1.7,4.55,2.55,7.95,2.55,2.87,0,5.23-.5,7.1-1.5,1.87-1,3-2.37,3.4-4.1h-5l2.1-4.05h7.55v4.05h-.15Zm-18.35,18.35c-1.63,0-2.45-.83-2.45-2.5s.82-2.45,2.45-2.45,2.4.82,2.4,2.45-.8,2.5-2.4,2.5Zm6.35,0c-1.63,0-2.45-.83-2.45-2.5s.82-2.45,2.45-2.45,2.4.82,2.4,2.45-.8,2.5-2.4,2.5Z"/>
  <path class="cls-1" d="m886.66,45.85v-4.05h8.8v4.05h-8.8Z"/>
  <path class="cls-1" d="m892.46,45.85v-4.05h8.8v4.05h-8.8Z"/>
  <path class="cls-1" d="m898.26,45.85v-4.05h8.8v4.05h-8.8Z"/>
  <path class="cls-1" d="m931.41,41.8h2.85v4.05h-3.3c-2.8,0-4.98-.87-6.55-2.6-1.57,1.73-3.75,2.6-6.55,2.6h-13.8v-4.05h13.4c3.2,0,4.8-1.68,4.8-5.05v-.45c0-2.5-.97-4.4-2.9-5.7-1.53-1.07-3.42-1.6-5.65-1.6-1.77,0-3.53.33-5.3,1v-4.25l10.95-12.15h4.4l-9.85,11.1h.3c3.8,0,6.87,1.15,9.2,3.45,2.1,2.13,3.15,4.83,3.15,8.1v.55c0,3.33,1.62,5,4.85,5Z"/>
  <path class="cls-1" d="m948.66,41.8h3.3v4.05h-3.8c-2.77,0-4.95-.88-6.55-2.65-1.6,1.77-3.78,2.65-6.55,2.65h-3.8v-4.05h3.3c3.27,0,4.9-1.67,4.9-5v-10.35l4.3-2.3v12.65c0,3.33,1.63,5,4.9,5Zm-11.95,9.05c1.6,0,2.4.83,2.4,2.5s-.8,2.45-2.4,2.45-2.45-.82-2.45-2.45.82-2.5,2.45-2.5Zm6.35,0c1.6,0,2.4.83,2.4,2.5s-.8,2.45-2.4,2.45-2.45-.82-2.45-2.45.82-2.5,2.45-2.5Z"/>
  <path class="cls-1" d="m948.96,45.85v-4.05h9c-1.53-1.7-2.3-4.07-2.3-7.1,0-3.63.95-6.47,2.85-8.5,1.67-1.8,3.88-2.7,6.65-2.7s5.03.88,6.6,2.65c1.33,1.57,2,3.62,2,6.15v4.75c-.03,2.77-.85,4.95-2.45,6.55-1.57,1.5-3.65,2.25-6.25,2.25h-16.1Zm20.5-13.35c0-3.33-1.43-5-4.3-5-1.63,0-2.92.62-3.85,1.88-.93,1.25-1.4,2.99-1.4,5.22s.45,3.95,1.35,5.25c.9,1.3,2.1,1.95,3.6,1.95,3.07,0,4.6-1.6,4.6-4.8v-4.5Zm-4.2-14.1c-1.63,0-2.45-.83-2.45-2.5s.82-2.45,2.45-2.45,2.4.82,2.4,2.45-.8,2.5-2.4,2.5Z"/>
  <path class="cls-1" d="m982.26,45.85V15.9l4.3-2.3v32.25h-4.3Z"/>
  <path class="cls-1" d="m1011.06,41.8h3.3v4.05h-3.8c-1.7,0-3.17-.33-4.4-1-.3,3.3-1.45,5.93-3.45,7.9-1.83,1.8-4.13,2.7-6.9,2.7-2,0-3.95-.5-5.85-1.5v-3.75c1.7.93,3.4,1.4,5.1,1.4,2.13,0,3.8-.72,5-2.15s1.8-3.42,1.8-5.95v-17.05l4.3-2.3v.05l.05-.05v13.65c.3,2.67,1.92,4,4.85,4Z"/>
  <path class="cls-1" d="m1011.36,45.85v-4.05h6.85c6.77,0,12.12-2.23,16.05-6.7-2.77-5.1-6.13-7.65-10.1-7.65-2.7,0-5.48,1.43-8.35,4.3v-4c2.8-2.83,5.77-4.25,8.9-4.25,2.57,0,5.05.92,7.45,2.77,2.4,1.85,4.52,4.49,6.35,7.92v2.2c-4.9,6.3-11.68,9.45-20.35,9.45h-6.8Zm14.65,9.95c-1.63,0-2.45-.83-2.45-2.5s.82-2.45,2.45-2.45,2.4.82,2.4,2.45-.8,2.5-2.4,2.5Z"/>
  <path class="cls-1" d="m1082.94,41.8h3.35v4.05h-3.8c-2.7,0-4.85-.83-6.45-2.5-1.57,1.6-3.78,2.43-6.65,2.5h-6.55c-3.27,0-4.9,1.67-4.9,5v8.45l-4.3,2.3v-10.9c0-2.77.8-4.95,2.4-6.55,1.43-1.47,3.33-2.25,5.7-2.35-1.2-1.93-1.8-4.3-1.8-7.1,0-3.63.95-6.47,2.85-8.5,1.7-1.8,3.93-2.7,6.7-2.7s5.02.88,6.55,2.65c1.37,1.57,2.05,3.62,2.05,6.15v4.5c0,3.33,1.62,5,4.85,5Zm-9.15-4.65v-4.65c0-3.33-1.43-5-4.3-5-1.67,0-2.96.62-3.88,1.88-.92,1.25-1.38,2.99-1.38,5.22s.43,4.03,1.3,5.3c.87,1.27,2.08,1.9,3.65,1.9,3.07,0,4.6-1.55,4.6-4.65Z"/>
  <path class="cls-1" d="m1083.29,45.85v-4.05h8.8v4.05h-8.8Z"/>
  <path class="cls-1" d="m1089.09,45.85v-4.05h8.8v4.05h-8.8Z"/>
  <path class="cls-1" d="m1094.89,45.85v-4.05h8.8v4.05h-8.8Z"/>
  <path class="cls-1" d="m1118.09,41.8h3.3v4.05h-3.8c-2.77,0-4.95-.88-6.55-2.65-1.6,1.77-3.78,2.65-6.55,2.65h-3.8v-4.05h3.3c3.27,0,4.9-1.67,4.9-5v-10.35l4.3-2.3v12.65c0,3.33,1.63,5,4.9,5Zm-11.95,9.05c1.6,0,2.4.83,2.4,2.5s-.8,2.45-2.4,2.45-2.45-.82-2.45-2.45.82-2.5,2.45-2.5Zm6.35,0c1.6,0,2.4.83,2.4,2.5s-.8,2.45-2.4,2.45-2.45-.82-2.45-2.45.82-2.5,2.45-2.5Z"/>
  <path class="cls-1" d="m1150.59,41.8h3.35v4.05h-3.8c-2.77,0-4.95-.88-6.55-2.65-1.7,2.43-4.18,3.65-7.45,3.65s-5.73-1.2-7.4-3.6c-1.57,1.73-3.75,2.6-6.55,2.6h-3.8v-4.05h3.3c3.27,0,4.9-1.67,4.9-5v-1.65c0-3.87.95-6.83,2.85-8.9,1.67-1.83,3.9-2.75,6.7-2.75,3.2,0,5.67,1.18,7.4,3.55,1.47,2.03,2.2,4.73,2.2,8.1v1.65c0,3.33,1.62,5,4.85,5Zm-14.45,1c1.63,0,2.92-.68,3.88-2.05s1.42-3.25,1.42-5.65c0-5.07-1.77-7.6-5.3-7.6s-5.25,2.53-5.25,7.6,1.75,7.7,5.25,7.7Z"/>
  <path class="cls-1" d="m1202.14,41.8h3.3v4.05h-3.8c-2.8,0-4.98-.87-6.55-2.6-1.57,1.73-3.75,2.6-6.55,2.6h-20.7c-2.77,0-4.95-.88-6.55-2.65-1.6,1.77-3.78,2.65-6.55,2.65h-3.8v-4.05h3.3c3.27,0,4.9-1.67,4.9-5v-7l4.3-2.3v9.3c0,2.8,1.08,4.42,3.25,4.85,1.33-5.03,3.53-9.23,6.6-12.6,3.43-3.7,7.43-5.55,12-5.55,3.8,0,6.83,1.32,9.1,3.95,1.9,2.23,2.85,4.98,2.85,8.25v1.2c0,3.27,1.63,4.9,4.9,4.9Zm-13.85,0c3.1,0,4.65-1.73,4.65-5.2v-.9c0-2.6-.8-4.67-2.4-6.2-1.4-1.33-3.13-2-5.2-2-3.53,0-6.72,1.63-9.55,4.9-2.17,2.5-3.83,5.63-5,9.4h17.5Z"/>
  <path class="cls-1" d="m1202.44,45.85v-4.05h3.3c3.27,0,4.9-1.67,4.9-5v-10.35l4.3-2.3v12.8c0,2.83-.85,5.07-2.55,6.7-1.57,1.47-3.62,2.2-6.15,2.2h-3.8Zm3.85-27.75c-1.63,0-2.45-.83-2.45-2.5s.82-2.45,2.45-2.45,2.4.82,2.4,2.45-.8,2.5-2.4,2.5Zm6.35,0c-1.63,0-2.45-.83-2.45-2.5s.82-2.45,2.45-2.45,2.4.82,2.4,2.45-.8,2.5-2.4,2.5Z"/>
  <path class="cls-1" d="m53.98,122.85c-.33,2.93-1.93,5.28-4.8,7.05-2.67,1.63-6.07,2.45-10.2,2.45-5.27,0-9.23-1.53-11.9-4.6-1.97-2.27-2.95-5.07-2.95-8.4,0-2.8.7-5.2,2.1-7.2l4.15-.9c-1.5,2.37-2.25,4.92-2.25,7.65,0,2.97.97,5.3,2.9,7,1.9,1.7,4.55,2.55,7.95,2.55,2.87,0,5.23-.5,7.1-1.5,1.87-1,3-2.37,3.4-4.1h-5l2.1-4.05h7.55v4.05h-.15Z"/>
  <path class="cls-1" d="m68.53,118.8h3.3v4.05h-3.8c-2.87,0-5.08-.92-6.65-2.75-1.67,1.83-3.97,2.75-6.9,2.75h-3v-4.05h2.65c3.47,0,5.2-1.82,5.2-5.45v-20.45l4.35-2.3v22.8c0,1.93.38,3.32,1.12,4.15s1.99,1.25,3.72,1.25Z"/>
  <path class="cls-1" d="m95.78,118.8v4.05h-26.95v-4.05h8.65c-1.63-2.1-2.45-4.68-2.45-7.75,0-3.4,1.17-6.1,3.5-8.1,1.9-1.6,4.1-2.42,6.6-2.45,3.53,0,6.28,1.42,8.25,4.25v4.05c-2.13-2.87-4.72-4.3-7.75-4.3-1.9,0-3.42.61-4.57,1.82-1.15,1.22-1.73,2.84-1.73,4.88,0,2.3.69,4.14,2.08,5.53,1.38,1.38,3.22,2.08,5.52,2.08h8.85Z"/>
  <path class="cls-1" d="m133.35,118.8h3.3v4.05h-3.8c-3.43,0-5.9-1.27-7.4-3.8-1.6,1.53-3.58,2.3-5.95,2.3-2.93,0-5.27-1.1-7-3.3-1.43-1.87-2.15-4.15-2.15-6.85,0-3.23.98-5.83,2.95-7.8,1.67-1.7,3.7-2.55,6.1-2.55,1.83,0,3.42.47,4.75,1.4v-2.15l4.35-2.3v16c0,3.33,1.62,5,4.85,5Zm-9.2-11.9c-1.23-1.37-2.75-2.05-4.55-2.05-1.47,0-2.67.59-3.6,1.78-.93,1.18-1.4,2.72-1.4,4.62s.47,3.48,1.4,4.65c.93,1.17,2.15,1.75,3.65,1.75,1.87,0,3.4-.77,4.6-2.3-.07-.6-.1-1.07-.1-1.4v-7.05Z"/>
  <path class="cls-1" d="m141.85,109.3c0-2.9.87-5.15,2.6-6.75,1.53-1.37,3.53-2.05,6-2.05,3.17,0,5.6,1.17,7.3,3.5,1.47,1.97,2.2,4.53,2.2,7.7,0,3.6-.93,6.42-2.8,8.45-1.63,1.8-3.77,2.7-6.4,2.7-3,0-5.28-.83-6.85-2.5-1.6,1.67-3.75,2.5-6.45,2.5h-3.8v-4.05h3.3c3.27,0,4.9-1.67,4.9-5v-4.5Zm4.3,4.85c0,3.1,1.52,4.65,4.55,4.65,1.57,0,2.79-.63,3.68-1.9.88-1.27,1.32-3.03,1.32-5.3s-.47-3.97-1.4-5.22c-.93-1.25-2.22-1.88-3.85-1.88-2.87,0-4.3,1.67-4.3,5v4.65Z"/>
  <path class="cls-1" d="m168.2,122.85v-29.95l4.3-2.3v32.25h-4.3Z"/>
  <path class="cls-1" d="m177.5,122.85l2.1-4.05h8.9c1.33,0,2.27-.33,2.83-1,.55-.67.82-1.82.82-3.45,0-4.43-2.05-7.77-6.15-10l2.2-3.7c5.23,3.07,7.97,7.3,8.2,12.7.07,1.93.51,3.33,1.33,4.17.82.85,2.12,1.28,3.92,1.28h2.95v4.05h-3.3c-2.77,0-4.93-.88-6.5-2.65-1.1,1.77-2.95,2.65-5.55,2.65h-11.75Z"/>
  <path class="cls-1" d="m234.2,118.8h3.25v4.05h-3.3c-2.7,0-4.87-.31-6.5-.92-1.63-.62-3.15-1.71-4.55-3.28-4.2,2.8-9.1,4.2-14.7,4.2h-6.8v-4.05h6.85c6.77,0,12.12-2.23,16.05-6.7-2.77-5.1-6.13-7.65-10.1-7.65-2.7,0-5.48,1.43-8.35,4.3v-4c2.8-2.83,5.77-4.25,8.9-4.25,2.57,0,5.05.92,7.45,2.77,2.4,1.85,4.52,4.49,6.35,7.92v2.2c-1.03,1.3-2.02,2.35-2.95,3.15,1.8,1.5,4.6,2.25,8.4,2.25Zm-17.45-23.7c-1.63,0-2.45-.83-2.45-2.5s.82-2.45,2.45-2.45,2.4.82,2.4,2.45-.8,2.5-2.4,2.5Z"/>
  <path class="cls-1" d="m251.85,118.8h3.3v4.05h-3.8c-2.77,0-4.95-.88-6.55-2.65-1.6,1.77-3.78,2.65-6.55,2.65h-3.8v-4.05h3.3c3.27,0,4.9-1.67,4.9-5v-10.35l4.3-2.3v12.65c0,3.33,1.63,5,4.9,5Zm-11.8-23.35c-1.63,0-2.45-.83-2.45-2.5s.82-2.45,2.45-2.45,2.4.82,2.4,2.45-.8,2.5-2.4,2.5Zm6.4,0c-1.63,0-2.45-.83-2.45-2.5s.82-2.45,2.45-2.45,2.4.82,2.4,2.45-.8,2.5-2.4,2.5Z"/>
  <path class="cls-1" d="m252.15,122.85v-4.05h8.8v4.05h-8.8Z"/>
  <path class="cls-1" d="m257.95,122.85v-4.05h8.8v4.05h-8.8Z"/>
  <path class="cls-1" d="m263.75,122.85v-4.05h8.8v4.05h-8.8Z"/>
  <path class="cls-1" d="m269.55,122.85v-4.05h4.5c3.23,0,4.85-1.67,4.85-5v-7l4.3-2.3v9.3c0,3.33,1.63,5,4.9,5h2.3c3.27,0,4.9-1.67,4.9-5v-8.7l4.3-2.25v10.95c0,3.33,1.62,5,4.85,5h2.35c3.27,0,4.9-1.67,4.9-5v-10.35l4.3-2.3v12.8c0,2.83-.85,5.05-2.55,6.65-1.5,1.47-3.5,2.22-6,2.25h-3.45c-2.93,0-5.12-.98-6.55-2.95-1.43,1.93-3.57,2.92-6.4,2.95h-3.45c-2.87,0-5.05-.98-6.55-2.95-1.43,1.97-3.62,2.95-6.55,2.95h-4.95Z"/>
  <path class="cls-1" d="m343.55,92.9l4.35-2.3v22.8c0,2.97-.88,5.32-2.65,7.05-1.67,1.6-3.85,2.4-6.55,2.4h-17.2l2.1-4.05h7.3v-19.4l4.3-2.3v21.7h3.15c3.47,0,5.2-1.82,5.2-5.45v-20.45Z"/>
  <path class="cls-1" d="m397.31,118.8h3.3v4.05h-3.8c-1.73,0-3.23-.35-4.5-1.05-.4,3.4-1.88,6.05-4.45,7.95-2.3,1.73-5.15,2.6-8.55,2.6-4.33,0-7.7-1.53-10.1-4.6-1.83-2.37-2.75-5.17-2.75-8.4,0-2.8.7-5.2,2.1-7.2l4.15-.9c-1.5,2.37-2.25,4.92-2.25,7.65s.87,5.1,2.6,6.9c1.63,1.67,3.72,2.5,6.25,2.5,2.93,0,5.2-.85,6.8-2.55,1.33-1.43,2-3.3,2-5.6v-16.7l4.3-2.3v12.65c0,3.33,1.63,5,4.9,5Zm-18.25-18.5c-1.63,0-2.45-.83-2.45-2.5s.82-2.45,2.45-2.45,2.4.82,2.4,2.45-.8,2.5-2.4,2.5Z"/>
  <path class="cls-1" d="m415.01,118.8h3.3v4.05h-3.8c-2.77,0-4.95-.88-6.55-2.65-1.6,1.77-3.78,2.65-6.55,2.65h-3.8v-4.05h3.3c3.27,0,4.9-1.67,4.9-5v-10.35l4.3-2.3v12.65c0,3.33,1.63,5,4.9,5Zm-11.95,9.05c1.6,0,2.4.83,2.4,2.5s-.8,2.45-2.4,2.45-2.45-.82-2.45-2.45.82-2.5,2.45-2.5Zm6.35,0c1.6,0,2.4.83,2.4,2.5s-.8,2.45-2.4,2.45-2.45-.82-2.45-2.45.82-2.5,2.45-2.5Z"/>
  <path class="cls-1" d="m415.31,122.85v-4.05h3.3c3.27,0,4.9-1.67,4.9-5v-10.35l4.3-2.3v12.8c0,2.83-.85,5.07-2.55,6.7-1.57,1.47-3.62,2.2-6.15,2.2h-3.8Zm3.85-27.75c-1.63,0-2.45-.83-2.45-2.5s.82-2.45,2.45-2.45,2.4.82,2.4,2.45-.8,2.5-2.4,2.5Zm6.35,0c-1.63,0-2.45-.83-2.45-2.5s.82-2.45,2.45-2.45,2.4.82,2.4,2.45-.8,2.5-2.4,2.5Z"/>
  <path class="cls-1" d="m449.06,118.8h3.3v4.05h-3.8c-1.7,0-3.17-.33-4.4-1-.3,3.3-1.45,5.93-3.45,7.9-1.83,1.8-4.13,2.7-6.9,2.7-2,0-3.95-.5-5.85-1.5v-3.75c1.7.93,3.4,1.4,5.1,1.4,2.13,0,3.8-.72,5-2.15s1.8-3.42,1.8-5.95v-17.05l4.3-2.3v.05l.05-.05v13.65c.3,2.67,1.92,4,4.85,4Z"/>
  <path class="cls-1" d="m457.56,109.3c0-2.9.87-5.15,2.6-6.75,1.53-1.37,3.53-2.05,6-2.05,3.17,0,5.6,1.17,7.3,3.5,1.47,1.97,2.2,4.53,2.2,7.7,0,3.6-.93,6.42-2.8,8.45-1.63,1.8-3.77,2.7-6.4,2.7-3,0-5.28-.83-6.85-2.5-1.6,1.67-3.75,2.5-6.45,2.5h-3.8v-4.05h3.3c3.27,0,4.9-1.67,4.9-5v-4.5Zm4.3,4.85c0,3.1,1.52,4.65,4.55,4.65,1.57,0,2.79-.63,3.68-1.9.88-1.27,1.32-3.03,1.32-5.3s-.47-3.97-1.4-5.22c-.93-1.25-2.22-1.88-3.85-1.88-2.87,0-4.3,1.67-4.3,5v4.65Z"/>
  <path class="cls-1" d="m506.72,118.8h3.3v4.05h-3.8c-1.7,0-3.17-.33-4.4-1-.3,3.3-1.45,5.93-3.45,7.9-1.83,1.8-4.13,2.7-6.9,2.7-2,0-3.95-.5-5.85-1.5v-3.75c1.7.93,3.4,1.4,5.1,1.4,2.13,0,3.8-.72,5-2.15s1.8-3.42,1.8-5.95v-17.05l4.3-2.3v.05l.05-.05v13.65c.3,2.67,1.92,4,4.85,4Z"/>
  <path class="cls-1" d="m524.42,118.8h3.3v4.05h-3.8c-2.77,0-4.95-.88-6.55-2.65-1.6,1.77-3.78,2.65-6.55,2.65h-3.8v-4.05h3.3c3.27,0,4.9-1.67,4.9-5v-10.35l4.3-2.3v12.65c0,3.33,1.63,5,4.9,5Zm-7.35,9.05c1.6,0,2.4.82,2.4,2.45s-.8,2.5-2.4,2.5-2.45-.83-2.45-2.5.82-2.45,2.45-2.45Z"/>
  <path class="cls-1" d="m534.57,101.7h.3c3.77,0,6.82,1.17,9.15,3.5,2.13,2.1,3.2,4.78,3.2,8.05v.85c0,2.87-.88,5.1-2.65,6.7-1.57,1.37-3.58,2.05-6.05,2.05h-13.8v-4.05h13.4c3.2,0,4.8-1.68,4.8-5.05v-.45c0-2.47-.97-4.37-2.9-5.7-1.53-1.03-3.4-1.55-5.6-1.55-1.77,0-3.55.32-5.35.95v-4.25l10.95-12.15h4.4l-9.85,11.1Z"/>
  <path class="cls-1" d="m552.07,89.9l1.15-2.15h1.35c-.33-.6-.5-1.22-.5-1.85,0-1,.37-1.86,1.1-2.58.73-.72,1.6-1.07,2.6-1.07.83,0,1.63.27,2.4.8v2.2c-.73-.57-1.43-.85-2.1-.85-1.23,0-1.85.55-1.85,1.65,0,.57.23,1.13.7,1.7h4.55l-1.15,2.15h-8.25Zm2.65,32.95v-27.95l4.3-2.3v30.25h-4.3Z"/>
  <path class="cls-1" d="m598.59,118.8h3.3v4.05h-3.8c-3.43,0-5.9-1.27-7.4-3.8-1.6,1.53-3.58,2.3-5.95,2.3-2.93,0-5.27-1.1-7-3.3-1.43-1.87-2.15-4.15-2.15-6.85,0-3.23.98-5.83,2.95-7.8,1.67-1.7,3.7-2.55,6.1-2.55,1.83,0,3.42.47,4.75,1.4v-2.15l4.35-2.3v16c0,3.33,1.62,5,4.85,5Zm-9.2-11.9c-1.23-1.37-2.75-2.05-4.55-2.05-1.47,0-2.67.59-3.6,1.78-.93,1.18-1.4,2.72-1.4,4.62s.47,3.48,1.4,4.65c.93,1.17,2.15,1.75,3.65,1.75,1.87,0,3.4-.77,4.6-2.3-.07-.6-.1-1.07-.1-1.4v-7.05Z"/>
  <path class="cls-1" d="m598.89,122.85v-4.05h8.8v4.05h-8.8Z"/>
  <path class="cls-1" d="m604.69,122.85v-4.05h8.8v4.05h-8.8Z"/>
  <path class="cls-1" d="m610.49,122.85v-4.05h8.8v4.05h-8.8Z"/>
  <path class="cls-1" d="m633.33,118.8h3.3v4.05h-3.8c-2.87,0-5.08-.92-6.65-2.75-1.67,1.83-3.97,2.75-6.9,2.75h-3v-4.05h2.65c3.47,0,5.2-1.82,5.2-5.45v-20.45l4.35-2.3v22.8c0,1.93.38,3.32,1.12,4.15s1.99,1.25,3.72,1.25Z"/>
  <path class="cls-1" d="m658.34,118.8h13.2v4.05h-13.6c-1.8,0-3.58-.35-5.35-1.05-1.77.7-3.57,1.05-5.4,1.05h-13.55v-4.05h13.9c-2.4-1.97-4.87-4.85-7.4-8.65v-2.2c1.6-2.3,3.51-4.12,5.73-5.45,2.22-1.33,4.44-2,6.67-2s4.47.67,6.7,2.02c2.23,1.35,4.17,3.19,5.8,5.53v2.1c-2.53,3.8-5.02,6.68-7.45,8.65h.75Zm-14.2-9.7c3.07,4.2,5.88,6.97,8.45,8.3,2.57-1.37,5.38-4.15,8.45-8.35-2.5-3.03-5.33-4.57-8.5-4.6-3.17,0-5.97,1.55-8.4,4.65Z"/>
  <path class="cls-1" d="m668.53,122.85v-4.05h6.85c6.77,0,12.12-2.23,16.05-6.7-2.77-5.1-6.13-7.65-10.1-7.65-2.7,0-5.48,1.43-8.35,4.3v-4c2.8-2.83,5.77-4.25,8.9-4.25,2.57,0,5.05.92,7.45,2.77,2.4,1.85,4.52,4.49,6.35,7.92v2.2c-4.9,6.3-11.68,9.45-20.35,9.45h-6.8Zm14.65,9.95c-1.63,0-2.45-.83-2.45-2.5s.82-2.45,2.45-2.45,2.4.82,2.4,2.45-.8,2.5-2.4,2.5Z"/>
  <path class="cls-1" d="m742.1,122.85c-.33,2.93-1.93,5.28-4.8,7.05-2.67,1.63-6.07,2.45-10.2,2.45-5.27,0-9.23-1.53-11.9-4.6-1.97-2.27-2.95-5.07-2.95-8.4,0-2.8.7-5.2,2.1-7.2l4.15-.9c-1.5,2.37-2.25,4.92-2.25,7.65,0,2.97.97,5.3,2.9,7,1.9,1.7,4.55,2.55,7.95,2.55,2.87,0,5.23-.5,7.1-1.5,1.87-1,3-2.37,3.4-4.1h-5l2.1-4.05h7.55v4.05h-.15Z"/>
  <path class="cls-1" d="m739.6,122.85v-4.05h2.65c3.47,0,5.2-1.82,5.2-5.45v-20.45l4.35-2.3v22.8c0,2.97-.88,5.32-2.65,7.05-1.67,1.6-3.85,2.4-6.55,2.4h-3Z"/>
  <path class="cls-1" d="m758.15,135.3l1.15-2.15h1.35c-.33-.6-.5-1.23-.5-1.9,0-.97.37-1.81,1.1-2.53.73-.72,1.6-1.08,2.6-1.08.83,0,1.63.27,2.4.8v2.2c-.73-.57-1.43-.85-2.1-.85-1.23,0-1.85.55-1.85,1.65,0,.57.23,1.13.7,1.7h4.55l-1.15,2.15h-8.25Zm2.65-12.45v-29.95l4.3-2.3v32.25h-4.3Z"/>
  <path class="cls-1" d="m805.56,138.95c-2.83,1.77-6.02,2.65-9.55,2.65-3.8,0-6.87-1.27-9.2-3.8-2.1-2.27-3.15-5.18-3.15-8.75,0-3.83,1.13-6.88,3.4-9.15,1-1,2.15-1.78,3.45-2.35,1.3-.57,3.27-1.13,5.9-1.7,2.5-.53,4.34-1.05,5.52-1.55,1.18-.5,2.21-1.22,3.08-2.15-2.73-5.13-6.1-7.7-10.1-7.7-2.67,0-5.47,1.43-8.4,4.3v-4c2.8-2.83,5.78-4.25,8.95-4.25,2.53,0,5,.93,7.4,2.8,2.4,1.87,4.52,4.5,6.35,7.9v2.2c-1.1,1.67-2.43,2.92-4,3.78-1.57.85-4,1.62-7.3,2.33-3.9.83-6.5,1.88-7.8,3.15-1.6,1.53-2.4,3.68-2.4,6.45s.92,4.97,2.75,6.5c1.53,1.3,3.5,1.95,5.9,1.95,3.67-.03,6.73-.92,9.2-2.65v4.05Zm-9.2-7.7c-1.47,0-2.2-.77-2.2-2.3s.73-2.2,2.2-2.2,2.2.73,2.2,2.2-.73,2.3-2.2,2.3Z"/>
  <path class="cls-1" d="m823.91,122.85c-2.9,0-5.13-.93-6.7-2.8-1.33-1.6-2-3.63-2-6.1v-21.05l4.3-2.3v23.2c0,3.33,1.63,5,4.9,5h3.3v4.05h-3.8Z"/>
  <path class="cls-1" d="m842.11,118.8h3.3v4.05h-3.8c-2.77,0-4.95-.88-6.55-2.65-1.6,1.77-3.78,2.65-6.55,2.65h-3.8v-4.05h3.3c3.27,0,4.9-1.67,4.9-5v-10.35l4.3-2.3v12.65c0,3.33,1.63,5,4.9,5Zm-11.8-23.35c-1.63,0-2.45-.83-2.45-2.5s.82-2.45,2.45-2.45,2.4.82,2.4,2.45-.8,2.5-2.4,2.5Zm6.4,0c-1.63,0-2.45-.83-2.45-2.5s.82-2.45,2.45-2.45,2.4.82,2.4,2.45-.8,2.5-2.4,2.5Z"/>
  <path class="cls-1" d="m875.01,118.8h3.25v4.05h-3.3c-2.7,0-4.87-.31-6.5-.92-1.63-.62-3.15-1.71-4.55-3.28-4.2,2.8-9.1,4.2-14.7,4.2h-6.8v-4.05h6.85c6.77,0,12.12-2.23,16.05-6.7-2.77-5.1-6.13-7.65-10.1-7.65-2.7,0-5.48,1.43-8.35,4.3v-4c2.8-2.83,5.77-4.25,8.9-4.25,2.57,0,5.05.92,7.45,2.77,2.4,1.85,4.52,4.49,6.35,7.92v2.2c-1.03,1.3-2.02,2.35-2.95,3.15,1.8,1.5,4.6,2.25,8.4,2.25Z"/>
  <path class="cls-1" d="m875.26,122.85v-4.05h3.3c3.27,0,4.9-1.67,4.9-5v-10.35l4.3-2.3v12.8c0,2.83-.85,5.07-2.55,6.7-1.57,1.47-3.62,2.2-6.15,2.2h-3.8Zm2.65,9.95c-1.63,0-2.45-.83-2.45-2.5s.82-2.45,2.45-2.45,2.4.82,2.4,2.45-.8,2.5-2.4,2.5Zm6.35,0c-1.63,0-2.45-.83-2.45-2.5s.82-2.45,2.45-2.45,2.4.82,2.4,2.45-.8,2.5-2.4,2.5Z"/>
  <path class="cls-1" d="m927.32,118.8h3.3v4.05h-3.8c-3.43,0-5.9-1.27-7.4-3.8-1.6,1.53-3.58,2.3-5.95,2.3-2.93,0-5.27-1.1-7-3.3-1.43-1.87-2.15-4.15-2.15-6.85,0-3.23.98-5.83,2.95-7.8,1.67-1.7,3.7-2.55,6.1-2.55,1.83,0,3.42.47,4.75,1.4v-2.15l4.35-2.3v16c0,3.33,1.62,5,4.85,5Zm-9.2-11.9c-1.23-1.37-2.75-2.05-4.55-2.05-1.47,0-2.67.59-3.6,1.78-.93,1.18-1.4,2.72-1.4,4.62s.47,3.48,1.4,4.65c.93,1.17,2.15,1.75,3.65,1.75,1.87,0,3.4-.77,4.6-2.3-.07-.6-.1-1.07-.1-1.4v-7.05Z"/>
  <path class="cls-1" d="m927.63,122.85v-4.05h8.8v4.05h-8.8Z"/>
  <path class="cls-1" d="m933.42,122.85v-4.05h8.8v4.05h-8.8Z"/>
  <path class="cls-1" d="m939.22,122.85v-4.05h8.8v4.05h-8.8Z"/>
  <path class="cls-1" d="m962.42,118.8h3.3v4.05h-3.8c-2.77,0-4.95-.88-6.55-2.65-1.6,1.77-3.78,2.65-6.55,2.65h-3.8v-4.05h3.3c3.27,0,4.9-1.67,4.9-5v-10.35l4.3-2.3v12.65c0,3.33,1.63,5,4.9,5Zm-7.9-23.7c-1.63,0-2.45-.83-2.45-2.5s.82-2.45,2.45-2.45,2.4.82,2.4,2.45-.8,2.5-2.4,2.5Z"/>
  <path class="cls-1" d="m990.07,118.8h2.85v4.05h-3.3c-2.8,0-4.98-.87-6.55-2.6-1.57,1.73-3.75,2.6-6.55,2.6h-13.8v-4.05h13.4c3.2,0,4.8-1.68,4.8-5.05v-.45c0-2.5-.97-4.4-2.9-5.7-1.53-1.07-3.42-1.6-5.65-1.6-1.77,0-3.53.33-5.3,1v-4.25l10.95-12.15h4.4l-9.85,11.1h.3c3.8,0,6.87,1.15,9.2,3.45,2.1,2.13,3.15,4.83,3.15,8.1v.55c0,3.33,1.62,5,4.85,5Z"/>
  <path class="cls-1" d="m989.92,122.85v-4.05h2.65c3.47,0,5.2-1.82,5.2-5.45v-20.45l4.35-2.3v22.8c0,2.97-.88,5.32-2.65,7.05-1.67,1.6-3.85,2.4-6.55,2.4h-3Z"/>
  <path class="cls-1" d="m1023.42,121.25c-1.27.5-2.82.75-4.65.75-2.97,0-5.3-1.12-7-3.35-1.43-1.9-2.15-4.28-2.15-7.15,0-3.53.95-6.3,2.85-8.3,1.7-1.8,3.93-2.7,6.7-2.7s5.02.88,6.55,2.65c1.37,1.57,2.05,3.62,2.05,6.15v10.9c0,3.77-.98,6.75-2.95,8.95-1.87,2.07-4.35,3.1-7.45,3.1-2.07,0-4.02-.48-5.85-1.45v-3.8c1.77.93,3.52,1.4,5.25,1.4,1.97,0,3.53-.62,4.7-1.88,1.17-1.25,1.82-3.01,1.95-5.27Zm0-11.75c0-3.33-1.42-5-4.25-5-1.67,0-2.97.62-3.92,1.85-.95,1.23-1.42,2.92-1.42,5.05s.46,3.78,1.38,5.03c.92,1.25,2.16,1.88,3.72,1.88,2.2,0,3.7-.62,4.5-1.85v-6.95Z"/>
  <path class="cls-1" d="m1048.99,117c1.83,0,2.78.95,2.85,2.85,0,.93-.29,1.71-.88,2.33-.58.62-1.34.92-2.27.92-2.07,0-3.1-1.27-3.1-3.8v-6.45l2.1-.6.05,4.75h1.25Z"/>
  <path class="cls-1" d="m1067.44,122.85c-2.7,0-4.82-.9-6.35-2.7-1.33-1.57-2-3.62-2-6.15v-6.05l4.3-2.3v7.95c0,3.47,1.62,5.2,4.85,5.2h16.6c3.23,0,4.85-1.73,4.85-5.2v-10.15l4.3-2.3v12.85c0,2.9-.88,5.15-2.65,6.75-1.57,1.4-3.58,2.1-6.05,2.1h-17.85Zm5.05-23.25c-1.63,0-2.45-.83-2.45-2.5s.82-2.45,2.45-2.45,2.4.82,2.4,2.45-.8,2.5-2.4,2.5Zm6.35,0c-1.63,0-2.45-.83-2.45-2.5s.82-2.45,2.45-2.45,2.4.82,2.4,2.45-.8,2.5-2.4,2.5Z"/>
  <path class="cls-1" d="m1101.99,122.85v-29.95l4.3-2.3v32.25h-4.3Z"/>
  <path class="cls-1" d="m1125.94,120.2c0,3.73-.98,6.73-2.95,9-1.87,2.17-4.35,3.25-7.45,3.25-2,0-3.95-.5-5.85-1.5v-3.75c1.7.93,3.4,1.4,5.1,1.4,2.13,0,3.8-.72,5-2.15s1.8-3.42,1.8-5.95v-17.05l4.35-2.3v19.05Z"/>
  <path class="cls-1" d="m1143.64,122.85c-2.9,0-5.13-.93-6.7-2.8-1.33-1.6-2-3.63-2-6.1v-21.05l4.3-2.3v23.2c0,3.33,1.63,5,4.9,5h3.3v4.05h-3.8Z"/>
  <path class="cls-1" d="m1144.44,122.85v-4.05h8.8v4.05h-8.8Z"/>
  <path class="cls-1" d="m1150.24,122.85v-4.05h8.8v4.05h-8.8Z"/>
  <path class="cls-1" d="m1156.04,122.85v-4.05h8.8v4.05h-8.8Z"/>
  <path class="cls-1" d="m1183.69,118.8h9.3v4.05h-12.2c-1.3,0-2.43-.12-3.4-.35-.93.23-2.07.35-3.4.35h-12.15v-4.05h9.3c-2.07-2.37-3.1-4.98-3.1-7.85,0-3.27.92-5.87,2.75-7.8,1.67-1.77,3.87-2.65,6.6-2.65,3.13,0,5.55,1.13,7.25,3.4,1.43,1.87,2.15,4.22,2.15,7.05s-1.03,5.48-3.1,7.85Zm-9.45-23.35c-1.63,0-2.45-.83-2.45-2.5s.82-2.45,2.45-2.45,2.4.82,2.4,2.45-.8,2.5-2.4,2.5Zm3.2,22.9c1.53-.53,2.78-1.51,3.75-2.92.97-1.42,1.45-2.98,1.45-4.67,0-1.93-.47-3.46-1.42-4.58-.95-1.12-2.23-1.67-3.83-1.67s-2.88.57-3.82,1.7c-.95,1.13-1.43,2.65-1.43,4.55,0,1.67.5,3.22,1.5,4.65,1,1.43,2.27,2.42,3.8,2.95Zm3.15-22.9c-1.63,0-2.45-.83-2.45-2.5s.82-2.45,2.45-2.45,2.4.82,2.4,2.45-.8,2.5-2.4,2.5Z"/>
  <path class="cls-1" d="m1216.94,118.8v4.05h-26.95v-4.05h8.65c-1.63-2.1-2.45-4.68-2.45-7.75,0-3.4,1.17-6.1,3.5-8.1,1.9-1.6,4.1-2.42,6.6-2.45,3.53,0,6.28,1.42,8.25,4.25v4.05c-2.13-2.87-4.72-4.3-7.75-4.3-1.9,0-3.42.61-4.57,1.82-1.15,1.22-1.73,2.84-1.73,4.88,0,2.3.69,4.14,2.08,5.53,1.38,1.38,3.22,2.08,5.52,2.08h8.85Z"/>
  <path class="cls-1" d="m55.93,195.8h3.3v4.05h-3.8c-1.8,0-3.42-.4-4.85-1.2-.47,3.43-2.02,6.13-4.65,8.1-2.33,1.73-5.22,2.6-8.65,2.6-4.47,0-7.92-1.5-10.35-4.5-1.87-2.33-2.8-5.12-2.8-8.35,0-2.83.68-5.25,2.05-7.25l4.3-.95c-1.53,2.37-2.3,4.95-2.3,7.75s.88,5.03,2.65,6.8c1.63,1.63,3.78,2.45,6.45,2.45,3.03,0,5.37-.9,7-2.7,1.4-1.53,2.1-3.5,2.1-5.9v-26.8l4.35-2.3v23.2c0,3.33,1.73,5,5.2,5Z"/>
  <path class="cls-1" d="m71.98,195.65c1.33-5.03,3.53-9.23,6.6-12.6,3.43-3.7,7.43-5.55,12-5.55,3.8,0,6.83,1.32,9.1,3.95,1.9,2.23,2.85,4.98,2.85,8.25v1.3c0,2.9-.88,5.15-2.65,6.75-1.53,1.4-3.55,2.1-6.05,2.1h-20.7c-2.77,0-4.95-.88-6.55-2.65-1.6,1.77-3.78,2.65-6.55,2.65h-3.8v-4.05h3.3c3.27,0,4.9-1.67,4.9-5v-7l4.3-2.3v9.3c0,2.8,1.08,4.42,3.25,4.85Zm26.25-5.05v-.9c0-2.6-.8-4.67-2.4-6.2-1.4-1.33-3.13-2-5.2-2-3.53,0-6.72,1.63-9.55,4.9-2.17,2.5-3.83,5.63-5,9.4h17.5c3.1,0,4.65-1.73,4.65-5.2Z"/>
  <path class="cls-1" d="m129.08,169.9l4.35-2.3v22.8c0,2.97-.88,5.32-2.65,7.05-1.67,1.6-3.85,2.4-6.55,2.4h-17.2l2.1-4.05h7.3v-19.4l4.3-2.3v21.7h3.15c3.47,0,5.2-1.82,5.2-5.45v-20.45Zm-6.2-1.75l-1.15,2.15h-8.25l1.15-2.15h1.35c-.33-.6-.5-1.23-.5-1.9,0-.97.37-1.81,1.1-2.53.73-.72,1.6-1.08,2.6-1.08.83,0,1.63.27,2.4.8v2.2c-.73-.57-1.43-.85-2.1-.85-1.23,0-1.85.55-1.85,1.65,0,.57.23,1.13.7,1.7h4.55Z"/>
  <path class="cls-1" d="m142.43,199.85v-29.95l4.3-2.3v32.25h-4.3Z"/>
  <path class="cls-1" d="m186.16,195.8h3.3v4.05h-3.8c-3.43,0-5.9-1.27-7.4-3.8-1.6,1.53-3.58,2.3-5.95,2.3-2.93,0-5.27-1.1-7-3.3-1.43-1.87-2.15-4.15-2.15-6.85,0-3.23.98-5.83,2.95-7.8,1.67-1.7,3.7-2.55,6.1-2.55,1.83,0,3.42.47,4.75,1.4v-2.15l4.35-2.3v16c0,3.33,1.62,5,4.85,5Zm-9.2-11.9c-1.23-1.37-2.75-2.05-4.55-2.05-1.47,0-2.67.59-3.6,1.78-.93,1.18-1.4,2.72-1.4,4.62s.47,3.48,1.4,4.65c.93,1.17,2.15,1.75,3.65,1.75,1.87,0,3.4-.77,4.6-2.3-.07-.6-.1-1.07-.1-1.4v-7.05Zm-6.45-12.3c-1.63,0-2.45-.83-2.45-2.5s.82-2.45,2.45-2.45,2.4.82,2.4,2.45-.8,2.5-2.4,2.5Zm6.35,0c-1.63,0-2.45-.83-2.45-2.5s.82-2.45,2.45-2.45,2.4.82,2.4,2.45-.8,2.5-2.4,2.5Z"/>
  <path class="cls-1" d="m186.46,199.85v-4.05h8.8v4.05h-8.8Z"/>
  <path class="cls-1" d="m192.26,199.85v-4.05h8.8v4.05h-8.8Z"/>
  <path class="cls-1" d="m198.06,199.85v-4.05h8.8v4.05h-8.8Z"/>
  <path class="cls-1" d="m248.56,195.8h3.3v4.05h-3.8c-2.67,0-4.75-.78-6.25-2.35-1.37,1.57-3.3,2.35-5.8,2.35h-32.15v-4.05h9.3l.15-.55v-25.35l4.3-2.3v18.3c3.8-5.6,8.52-8.4,14.15-8.4,3.77,0,6.78,1.32,9.05,3.95,1.93,2.23,2.9,4.98,2.9,8.25v1.2c0,3.27,1.62,4.9,4.85,4.9Zm-9.2-4.7v-1.4c0-2.6-.8-4.67-2.4-6.2-1.37-1.33-3.08-2-5.15-2-3.43,0-6.53,1.55-9.3,4.65-2.07,2.33-3.7,5.25-4.9,8.75v.9h18.05c1.43,0,2.41-.33,2.93-1,.52-.67.77-1.9.77-3.7Z"/>
  <path class="cls-1" d="m270.71,195.8h9.3v4.05h-12.2c-1.3,0-2.43-.12-3.4-.35-.93.23-2.07.35-3.4.35h-12.15v-4.05h9.3c-2.07-2.37-3.1-4.98-3.1-7.85,0-3.27.92-5.87,2.75-7.8,1.67-1.77,3.87-2.65,6.6-2.65,3.13,0,5.55,1.13,7.25,3.4,1.43,1.87,2.15,4.22,2.15,7.05s-1.03,5.48-3.1,7.85Zm-9.45-23.35c-1.63,0-2.45-.83-2.45-2.5s.82-2.45,2.45-2.45,2.4.82,2.4,2.45-.8,2.5-2.4,2.5Zm3.2,22.9c1.53-.53,2.78-1.51,3.75-2.92.97-1.42,1.45-2.98,1.45-4.67,0-1.93-.47-3.46-1.42-4.58-.95-1.12-2.23-1.67-3.83-1.67s-2.88.57-3.82,1.7c-.95,1.13-1.43,2.65-1.43,4.55,0,1.67.5,3.22,1.5,4.65,1,1.43,2.27,2.42,3.8,2.95Zm3.15-22.9c-1.63,0-2.45-.83-2.45-2.5s.82-2.45,2.45-2.45,2.4.82,2.4,2.45-.8,2.5-2.4,2.5Z"/>
  <path class="cls-1" d="m277.01,199.85v-4.05h3.3c3.27,0,4.9-1.67,4.9-5v-10.35l4.3-2.3v12.8c0,2.83-.85,5.07-2.55,6.7-1.57,1.47-3.62,2.2-6.15,2.2h-3.8Zm10.2-27.75c-1.63,0-2.45-.83-2.45-2.5s.82-2.45,2.45-2.45,2.4.82,2.4,2.45-.8,2.5-2.4,2.5Z"/>
  <path class="cls-1" d="m317.23,199.85c-3.03,0-5.4-1.02-7.1-3.05-1.47-1.77-2.2-4.02-2.2-6.75,0-2.97.83-5.54,2.48-7.73,1.65-2.18,4.01-3.79,7.07-4.82,3.23,1.1,5.67,2.83,7.3,5.2,1.47,2.1,2.2,4.55,2.2,7.35,0,3.17-.93,5.65-2.8,7.45-1.67,1.57-3.82,2.35-6.45,2.35h-.5Zm-.15-4.05h.75c1.5,0,2.69-.52,3.58-1.55.88-1.03,1.32-2.42,1.32-4.15,0-4-1.75-6.87-5.25-8.6-3.5,1.73-5.25,4.58-5.25,8.55,0,1.77.43,3.17,1.3,4.2.87,1.03,2.05,1.55,3.55,1.55Z"/>
  <path class="cls-1" d="m347.23,195.8h3.3v4.05h-3.8c-1.7,0-3.17-.33-4.4-1-.3,3.3-1.45,5.93-3.45,7.9-1.83,1.8-4.13,2.7-6.9,2.7-2,0-3.95-.5-5.85-1.5v-3.75c1.7.93,3.4,1.4,5.1,1.4,2.13,0,3.8-.72,5-2.15s1.8-3.42,1.8-5.95v-17.05l4.3-2.3v.05l.05-.05v13.65c.3,2.67,1.92,4,4.85,4Zm-7.75-23.7c-1.63,0-2.45-.83-2.45-2.5s.82-2.45,2.45-2.45,2.4.82,2.4,2.45-.8,2.5-2.4,2.5Z"/>
  <path class="cls-1" d="m357.38,178.7h.3c3.77,0,6.82,1.17,9.15,3.5,2.13,2.1,3.2,4.78,3.2,8.05v.85c0,2.87-.88,5.1-2.65,6.7-1.57,1.37-3.58,2.05-6.05,2.05h-13.8v-4.05h13.4c3.2,0,4.8-1.68,4.8-5.05v-.45c0-2.47-.97-4.37-2.9-5.7-1.53-1.03-3.4-1.55-5.6-1.55-1.77,0-3.55.32-5.35.95v-4.25l10.95-12.15h4.4l-9.85,11.1Z"/>
  <path class="cls-1" d="m389.78,195.8h3.3v4.05h-3.8c-1.7,0-3.17-.33-4.4-1-.3,3.3-1.45,5.93-3.45,7.9-1.83,1.8-4.13,2.7-6.9,2.7-2,0-3.95-.5-5.85-1.5v-3.75c1.7.93,3.4,1.4,5.1,1.4,2.13,0,3.8-.72,5-2.15s1.8-3.42,1.8-5.95v-17.05l4.3-2.3v.05l.05-.05v13.65c.3,2.67,1.92,4,4.85,4Z"/>
  <path class="cls-1" d="m398.28,186.3c0-2.9.87-5.15,2.6-6.75,1.53-1.37,3.53-2.05,6-2.05,3.17,0,5.6,1.17,7.3,3.5,1.47,1.97,2.2,4.53,2.2,7.7,0,3.6-.93,6.42-2.8,8.45-1.63,1.8-3.77,2.7-6.4,2.7-3,0-5.28-.83-6.85-2.5-1.6,1.67-3.75,2.5-6.45,2.5h-3.8v-4.05h3.3c3.27,0,4.9-1.67,4.9-5v-4.5Zm4.3,4.85c0,3.1,1.52,4.65,4.55,4.65,1.57,0,2.79-.63,3.68-1.9.88-1.27,1.32-3.03,1.32-5.3s-.47-3.97-1.4-5.22c-.93-1.25-2.22-1.88-3.85-1.88-2.87,0-4.3,1.67-4.3,5v4.65Z"/>
  <path class="cls-1" d="m447.31,195.8h3.3v4.05h-3.8c-1.7,0-3.17-.33-4.4-1-.3,3.3-1.45,5.93-3.45,7.9-1.83,1.8-4.13,2.7-6.9,2.7-2,0-3.95-.5-5.85-1.5v-3.75c1.7.93,3.4,1.4,5.1,1.4,2.13,0,3.8-.72,5-2.15s1.8-3.42,1.8-5.95v-17.05l4.3-2.3v.05l.05-.05v13.65c.3,2.67,1.92,4,4.85,4Z"/>
  <path class="cls-1" d="m447.61,199.85v-4.05h8.8v4.05h-8.8Z"/>
  <path class="cls-1" d="m453.41,199.85v-4.05h8.8v4.05h-8.8Z"/>
  <path class="cls-1" d="m459.21,199.85v-4.05h8.8v4.05h-8.8Z"/>
  <path class="cls-1" d="m482.41,195.8h3.3v4.05h-3.8c-2.77,0-4.95-.88-6.55-2.65-1.6,1.77-3.78,2.65-6.55,2.65h-3.8v-4.05h3.3c3.27,0,4.9-1.67,4.9-5v-10.35l4.3-2.3v12.65c0,3.33,1.63,5,4.9,5Zm-11.95,9.05c1.6,0,2.4.83,2.4,2.5s-.8,2.45-2.4,2.45-2.45-.82-2.45-2.45.82-2.5,2.45-2.5Zm6.35,0c1.6,0,2.4.83,2.4,2.5s-.8,2.45-2.4,2.45-2.45-.82-2.45-2.45.82-2.5,2.45-2.5Z"/>
  <path class="cls-1" d="m500.11,195.8h3.3v4.05h-3.8c-2.77,0-4.95-.88-6.55-2.65-1.6,1.77-3.78,2.65-6.55,2.65h-3.8v-4.05h3.3c3.27,0,4.9-1.67,4.9-5v-10.35l4.3-2.3v12.65c0,3.33,1.63,5,4.9,5Zm-7.35,9.05c1.6,0,2.4.82,2.4,2.45s-.8,2.5-2.4,2.5-2.45-.83-2.45-2.5.82-2.45,2.45-2.45Z"/>
  <path class="cls-1" d="m527.76,195.8h2.85v4.05h-3.3c-2.8,0-4.98-.87-6.55-2.6-1.57,1.73-3.75,2.6-6.55,2.6h-13.8v-4.05h13.4c3.2,0,4.8-1.68,4.8-5.05v-.45c0-2.5-.97-4.4-2.9-5.7-1.53-1.07-3.42-1.6-5.65-1.6-1.77,0-3.53.33-5.3,1v-4.25l10.95-12.15h4.4l-9.85,11.1h.3c3.8,0,6.87,1.15,9.2,3.45,2.1,2.13,3.15,4.83,3.15,8.1v.55c0,3.33,1.62,5,4.85,5Z"/>
  <path class="cls-1" d="m527.61,199.85v-4.05h3.3c3.27,0,4.9-1.67,4.9-5v-10.35l4.3-2.3v12.8c0,2.83-.85,5.07-2.55,6.7-1.57,1.47-3.62,2.2-6.15,2.2h-3.8Zm3.85-27.75c-1.63,0-2.45-.83-2.45-2.5s.82-2.45,2.45-2.45,2.4.82,2.4,2.45-.8,2.5-2.4,2.5Zm6.35,0c-1.63,0-2.45-.83-2.45-2.5s.82-2.45,2.45-2.45,2.4.82,2.4,2.45-.8,2.5-2.4,2.5Z"/>
  <path class="cls-1" d="m571.79,195.8h3.3v4.05h-3.8c-1.7,0-3.17-.33-4.4-1-.3,3.3-1.45,5.93-3.45,7.9-1.83,1.8-4.13,2.7-6.9,2.7-2,0-3.95-.5-5.85-1.5v-3.75c1.7.93,3.4,1.4,5.1,1.4,2.13,0,3.8-.72,5-2.15s1.8-3.42,1.8-5.95v-17.05l4.3-2.3v.05l.05-.05v13.65c.3,2.67,1.92,4,4.85,4Z"/>
  <path class="cls-1" d="m589.49,195.8h3.3v4.05h-3.8c-2.77,0-4.95-.88-6.55-2.65-1.6,1.77-3.78,2.65-6.55,2.65h-3.8v-4.05h3.3c3.27,0,4.9-1.67,4.9-5v-10.35l4.3-2.3v12.65c0,3.33,1.63,5,4.9,5Zm-11.95,9.05c1.6,0,2.4.83,2.4,2.5s-.8,2.45-2.4,2.45-2.45-.82-2.45-2.45.82-2.5,2.45-2.5Zm6.35,0c1.6,0,2.4.83,2.4,2.5s-.8,2.45-2.4,2.45-2.45-.82-2.45-2.45.82-2.5,2.45-2.5Z"/>
  <path class="cls-1" d="m589.79,199.85v-4.05h3.3c3.27,0,4.9-1.67,4.9-5v-10.35l4.3-2.3v12.8c0,2.83-.85,5.07-2.55,6.7-1.57,1.47-3.62,2.2-6.15,2.2h-3.8Zm3.85-27.75c-1.63,0-2.45-.83-2.45-2.5s.82-2.45,2.45-2.45,2.4.82,2.4,2.45-.8,2.5-2.4,2.5Zm3.15-5.95c-1.47,0-2.2-.75-2.2-2.25s.73-2.2,2.2-2.2,2.2.73,2.2,2.2-.73,2.25-2.2,2.25Zm3.2,5.95c-1.63,0-2.45-.83-2.45-2.5s.82-2.45,2.45-2.45,2.4.82,2.4,2.45-.8,2.5-2.4,2.5Z"/>
  <path class="cls-1" d="m608.64,166.9l1.15-2.15h1.35c-.33-.6-.5-1.23-.5-1.9,0-.97.37-1.81,1.1-2.53.73-.72,1.58-1.07,2.55-1.07.83,0,1.63.27,2.4.8v2.2c-.7-.57-1.4-.85-2.1-.85-1.23,0-1.85.57-1.85,1.7,0,.53.25,1.08.75,1.65h4.55l-1.15,2.15h-8.25Zm11.35,32.95c-2.9,0-5.13-.93-6.7-2.8-1.33-1.6-2-3.63-2-6.1v-19.05l4.3-2.3v21.2c0,3.33,1.63,5,4.9,5h3.3v4.05h-3.8Z"/>
  <path class="cls-1" d="m620.79,199.85v-4.05h3.3c3.27,0,4.9-1.67,4.9-5v-10.35l4.3-2.3v12.8c0,2.83-.85,5.07-2.55,6.7-1.57,1.47-3.62,2.2-6.15,2.2h-3.8Zm3.85-27.75c-1.63,0-2.45-.83-2.45-2.5s.82-2.45,2.45-2.45,2.4.82,2.4,2.45-.8,2.5-2.4,2.5Zm6.35,0c-1.63,0-2.45-.83-2.45-2.5s.82-2.45,2.45-2.45,2.4.82,2.4,2.45-.8,2.5-2.4,2.5Z"/>
  <path class="cls-1" d="m692.51,195.8h2.3v4.05h-2.8c-2.8,0-4.98-.87-6.55-2.6-1.57,1.73-3.75,2.6-6.55,2.6h-17.85c-2.7,0-4.82-.9-6.35-2.7-1.33-1.57-2-3.62-2-6.15v-6.05l4.3-2.3v7.95c0,3.47,1.62,5.2,4.85,5.2h16.6c3.23,0,4.85-1.73,4.85-5.2v-10.15l4.3-2.3v12.65c0,3.33,1.63,5,4.9,5Zm-26.4-19.2c-1.63,0-2.45-.83-2.45-2.5s.82-2.45,2.45-2.45,2.4.82,2.4,2.45-.8,2.5-2.4,2.5Zm6.35,0c-1.63,0-2.45-.83-2.45-2.5s.82-2.45,2.45-2.45,2.4.82,2.4,2.45-.8,2.5-2.4,2.5Z"/>
  <path class="cls-1" d="m691.81,199.85v-4.05h8.8v4.05h-8.8Z"/>
  <path class="cls-1" d="m697.61,199.85v-4.05h8.8v4.05h-8.8Z"/>
  <path class="cls-1" d="m703.41,199.85v-4.05h8.8v4.05h-8.8Z"/>
  <path class="cls-1" d="m741.81,195.8h3.25v4.05h-3.3c-2.7,0-4.87-.31-6.5-.92-1.63-.62-3.15-1.71-4.55-3.28-4.2,2.8-9.1,4.2-14.7,4.2h-6.8v-4.05h6.85c6.77,0,12.12-2.23,16.05-6.7-2.77-5.1-6.13-7.65-10.1-7.65-2.7,0-5.48,1.43-8.35,4.3v-4c2.8-2.83,5.77-4.25,8.9-4.25,2.57,0,5.05.92,7.45,2.77,2.4,1.85,4.52,4.49,6.35,7.92v2.2c-1.03,1.3-2.02,2.35-2.95,3.15,1.8,1.5,4.6,2.25,8.4,2.25Z"/>
  <path class="cls-1" d="m742.06,199.85v-4.05h3.3c3.27,0,4.9-1.67,4.9-5v-10.35l4.3-2.3v12.8c0,2.83-.85,5.07-2.55,6.7-1.57,1.47-3.62,2.2-6.15,2.2h-3.8Zm3.85-27.75c-1.63,0-2.45-.83-2.45-2.5s.82-2.45,2.45-2.45,2.4.82,2.4,2.45-.8,2.5-2.4,2.5Zm6.35,0c-1.63,0-2.45-.83-2.45-2.5s.82-2.45,2.45-2.45,2.4.82,2.4,2.45-.8,2.5-2.4,2.5Z"/>
  <path class="cls-1" d="m781.39,197.2c0,3.73-.98,6.73-2.95,9-1.87,2.17-4.35,3.25-7.45,3.25-2,0-3.95-.5-5.85-1.5v-3.75c1.7.93,3.4,1.4,5.1,1.4,2.13,0,3.8-.72,5-2.15s1.8-3.42,1.8-5.95v-17.05l4.35-2.3v19.05Z"/>
  <path class="cls-1" d="m799.09,199.85c-2.9,0-5.13-.93-6.7-2.8-1.33-1.6-2-3.63-2-6.1v-21.05l4.3-2.3v23.2c0,3.33,1.63,5,4.9,5h3.3v4.05h-3.8Z"/>
  <path class="cls-1" d="m824.59,195.8h13.2v4.05h-13.6c-1.8,0-3.58-.35-5.35-1.05-1.77.7-3.57,1.05-5.4,1.05h-13.55v-4.05h13.9c-2.4-1.97-4.87-4.85-7.4-8.65v-2.2c1.6-2.3,3.51-4.12,5.73-5.45,2.22-1.33,4.44-2,6.67-2s4.47.67,6.7,2.02c2.23,1.35,4.17,3.19,5.8,5.53v2.1c-2.53,3.8-5.02,6.68-7.45,8.65h.75Zm-14.2-9.7c3.07,4.2,5.88,6.97,8.45,8.3,2.57-1.37,5.38-4.15,8.45-8.35-2.5-3.03-5.33-4.57-8.5-4.6-3.17,0-5.97,1.55-8.4,4.65Z"/>
  <path class="cls-1" d="m834.79,199.85v-4.05h8.8v4.05h-8.8Z"/>
  <path class="cls-1" d="m840.59,199.85v-4.05h8.8v4.05h-8.8Z"/>
  <path class="cls-1" d="m846.39,199.85v-4.05h8.8v4.05h-8.8Z"/>
  <path class="cls-1" d="m852.19,199.85v-4.05h4.5c3.23,0,4.85-1.67,4.85-5v-7l4.3-2.3v9.3c0,3.33,1.63,5,4.9,5h2.3c3.27,0,4.9-1.67,4.9-5v-8.7l4.3-2.25v10.95c0,3.33,1.62,5,4.85,5h2.35c3.27,0,4.9-1.67,4.9-5v-10.35l4.3-2.3v12.2c0,3.63,1.73,5.45,5.2,5.45h4.15v4.05h-4.5c-3,0-5.28-1.02-6.85-3.05-1.4,2-3.58,3.02-6.55,3.05h-3.45c-2.93,0-5.12-.98-6.55-2.95-1.43,1.93-3.57,2.92-6.4,2.95h-3.45c-2.87,0-5.05-.98-6.55-2.95-1.43,1.97-3.62,2.95-6.55,2.95h-4.95Zm24.35-26.4c-1.63,0-2.45-.83-2.45-2.5s.82-2.45,2.45-2.45,2.4.82,2.4,2.45-.8,2.5-2.4,2.5Zm3.15-5.95c-1.47,0-2.2-.75-2.2-2.25s.73-2.2,2.2-2.2,2.2.73,2.2,2.2-.73,2.25-2.2,2.25Zm3.2,5.95c-1.63,0-2.45-.83-2.45-2.5s.82-2.45,2.45-2.45,2.4.82,2.4,2.45-.8,2.5-2.4,2.5Z"/>
  <path class="cls-1" d="m904.99,199.85v-4.05h2.65c3.47,0,5.2-1.82,5.2-5.45v-20.45l4.35-2.3v22.8c0,2.97-.88,5.32-2.65,7.05-1.67,1.6-3.85,2.4-6.55,2.4h-3Z"/>
  <path class="cls-1" d="m926.19,199.85v-29.95l4.3-2.3v32.25h-4.3Z"/>
  <path class="cls-1" d="m975.71,195.8h3.35v4.05h-3.8c-2.7,0-4.85-.83-6.45-2.5-1.57,1.6-3.78,2.43-6.65,2.5h-6.55c-3.27,0-4.9,1.67-4.9,5v8.45l-4.3,2.3v-10.9c0-2.77.8-4.95,2.4-6.55,1.43-1.47,3.33-2.25,5.7-2.35-1.2-1.93-1.8-4.3-1.8-7.1,0-3.63.95-6.47,2.85-8.5,1.7-1.8,3.93-2.7,6.7-2.7s5.02.88,6.55,2.65c1.37,1.57,2.05,3.62,2.05,6.15v4.5c0,3.33,1.62,5,4.85,5Zm-9.15-4.65v-4.65c0-3.33-1.43-5-4.3-5-1.67,0-2.96.62-3.88,1.88-.92,1.25-1.38,2.99-1.38,5.22s.43,4.03,1.3,5.3c.87,1.27,2.08,1.9,3.65,1.9,3.07,0,4.6-1.55,4.6-4.65Z"/>
  <path class="cls-1" d="m976.06,199.85v-4.05h8.8v4.05h-8.8Z"/>
  <path class="cls-1" d="m981.86,199.85v-4.05h8.8v4.05h-8.8Z"/>
  <path class="cls-1" d="m987.66,199.85v-4.05h8.8v4.05h-8.8Z"/>
  <path class="cls-1" d="m993.46,199.85v-4.05h4.5c3.23,0,4.85-1.67,4.85-5v-7l4.3-2.3v9.3c0,3.33,1.63,5,4.9,5h2.3c3.27,0,4.9-1.67,4.9-5v-8.7l4.3-2.25v10.95c0,3.33,1.62,5,4.85,5h2.35c3.27,0,4.9-1.67,4.9-5v-10.35l4.3-2.3v12.8c0,2.83-.85,5.05-2.55,6.65-1.5,1.47-3.5,2.22-6,2.25h-3.45c-2.93,0-5.12-.98-6.55-2.95-1.43,1.93-3.57,2.92-6.4,2.95h-3.45c-2.87,0-5.05-.98-6.55-2.95-1.43,1.97-3.62,2.95-6.55,2.95h-4.95Z"/>
  <path class="cls-1" d="m1056.31,197.2c0,3.73-.98,6.73-2.95,9-1.87,2.17-4.35,3.25-7.45,3.25-2,0-3.95-.5-5.85-1.5v-3.75c1.7.93,3.4,1.4,5.1,1.4,2.13,0,3.8-.72,5-2.15s1.8-3.42,1.8-5.95v-17.05l4.35-2.3v19.05Z"/>
  <path class="cls-1" d="m1062.66,166.9l1.15-2.15h1.35c-.33-.6-.5-1.22-.5-1.85,0-1,.37-1.86,1.1-2.58.73-.72,1.6-1.07,2.6-1.07.83,0,1.63.27,2.4.8v2.2c-.73-.57-1.43-.85-2.1-.85-1.23,0-1.85.55-1.85,1.65,0,.57.23,1.13.7,1.7h4.55l-1.15,2.15h-8.25Zm2.65,32.95v-27.95l4.3-2.3v30.25h-4.3Z"/>
  <path class="cls-1" d="m1089.09,197.45v-.1c.07-1.67.95-2.5,2.65-2.5s2.65.87,2.65,2.6-.88,2.65-2.65,2.65-2.65-.88-2.65-2.65Z"/>
  <path class="cls-1" d="m1123.34,195.8h3.3v4.05h-3.8c-3.43,0-5.9-1.27-7.4-3.8-1.6,1.53-3.58,2.3-5.95,2.3-2.93,0-5.27-1.1-7-3.3-1.43-1.87-2.15-4.15-2.15-6.85,0-3.23.98-5.83,2.95-7.8,1.67-1.7,3.7-2.55,6.1-2.55,1.83,0,3.42.47,4.75,1.4v-2.15l4.35-2.3v16c0,3.33,1.62,5,4.85,5Zm-9.2-11.9c-1.23-1.37-2.75-2.05-4.55-2.05-1.47,0-2.67.59-3.6,1.78-.93,1.18-1.4,2.72-1.4,4.62s.47,3.48,1.4,4.65c.93,1.17,2.15,1.75,3.65,1.75,1.87,0,3.4-.77,4.6-2.3-.07-.6-.1-1.07-.1-1.4v-7.05Zm-6.45-12.3c-1.63,0-2.45-.83-2.45-2.5s.82-2.45,2.45-2.45,2.4.82,2.4,2.45-.8,2.5-2.4,2.5Zm6.35,0c-1.63,0-2.45-.83-2.45-2.5s.82-2.45,2.45-2.45,2.4.82,2.4,2.45-.8,2.5-2.4,2.5Z"/>
  <path class="cls-1" d="m1123.64,199.85v-4.05h8.8v4.05h-8.8Z"/>
  <path class="cls-1" d="m1129.44,199.85v-4.05h8.8v4.05h-8.8Z"/>
  <path class="cls-1" d="m1135.24,199.85v-4.05h8.8v4.05h-8.8Z"/>
  <path class="cls-1" d="m1158.44,195.8h3.3v4.05h-3.8c-2.77,0-4.95-.88-6.55-2.65-1.6,1.77-3.78,2.65-6.55,2.65h-3.8v-4.05h3.3c3.27,0,4.9-1.67,4.9-5v-10.35l4.3-2.3v12.65c0,3.33,1.63,5,4.9,5Zm-11.8-23.35c-1.63,0-2.45-.83-2.45-2.5s.82-2.45,2.45-2.45,2.4.82,2.4,2.45-.8,2.5-2.4,2.5Zm6.4,0c-1.63,0-2.45-.83-2.45-2.5s.82-2.45,2.45-2.45,2.4.82,2.4,2.45-.8,2.5-2.4,2.5Z"/>
  <path class="cls-1" d="m1158.74,199.85v-4.05h9c-1.53-1.7-2.3-4.07-2.3-7.1,0-3.63.95-6.47,2.85-8.5,1.67-1.8,3.88-2.7,6.65-2.7s5.03.88,6.6,2.65c1.33,1.57,2,3.62,2,6.15v4.75c-.03,2.77-.85,4.95-2.45,6.55-1.57,1.5-3.65,2.25-6.25,2.25h-16.1Zm20.5-13.35c0-3.33-1.43-5-4.3-5-1.63,0-2.92.62-3.85,1.88-.93,1.25-1.4,2.99-1.4,5.22s.45,3.95,1.35,5.25c.9,1.3,2.1,1.95,3.6,1.95,3.07,0,4.6-1.6,4.6-4.8v-4.5Zm-4.2-14.1c-1.63,0-2.45-.83-2.45-2.5s.82-2.45,2.45-2.45,2.4.82,2.4,2.45-.8,2.5-2.4,2.5Z"/>
  <path class="cls-1" d="m1210.59,169.9l4.35-2.3v22.8c0,2.97-.88,5.32-2.65,7.05-1.67,1.6-3.85,2.4-6.55,2.4h-17.2l2.1-4.05h7.3v-19.4l4.3-2.3v21.7h3.15c3.47,0,5.2-1.82,5.2-5.45v-20.45Z"/>
  <path class="cls-1" d="m997.74,274.45v-.1c.07-1.67.95-2.5,2.65-2.5s2.65.87,2.65,2.6-.88,2.65-2.65,2.65-2.65-.88-2.65-2.65Z"/>
  <path class="cls-1" d="m1009.99,276.85v-4.05l7.95-8.85c2.4-2.67,4.02-4.74,4.88-6.22.85-1.48,1.27-2.97,1.27-4.47,0-1.4-.5-2.53-1.5-3.4-1-.87-2.33-1.3-4-1.3-2,0-4.12.73-6.35,2.2l-1.95-2.8c2.97-2.27,6-3.4,9.1-3.4,2.9,0,5.25.85,7.05,2.55,1.7,1.57,2.55,3.62,2.55,6.15,0,1.63-.38,3.21-1.15,4.72-.77,1.52-2.1,3.36-4,5.53l-8.3,9.5h12.75v3.85h-18.3Z"/>
  <path class="cls-1" d="m1067.64,272.8h3.3v4.05h-3.8c-3.43,0-5.9-1.27-7.4-3.8-1.6,1.53-3.58,2.3-5.95,2.3-2.93,0-5.27-1.1-7-3.3-1.43-1.87-2.15-4.15-2.15-6.85,0-3.23.98-5.83,2.95-7.8,1.67-1.7,3.7-2.55,6.1-2.55,1.83,0,3.42.47,4.75,1.4v-2.15l4.35-2.3v16c0,3.33,1.62,5,4.85,5Zm-9.2-11.9c-1.23-1.37-2.75-2.05-4.55-2.05-1.47,0-2.67.59-3.6,1.78-.93,1.18-1.4,2.72-1.4,4.62s.47,3.48,1.4,4.65c.93,1.17,2.15,1.75,3.65,1.75,1.87,0,3.4-.77,4.6-2.3-.07-.6-.1-1.07-.1-1.4v-7.05Z"/>
  <path class="cls-1" d="m1084.99,272.8h3.3v4.05h-3.8c-2.87,0-5.08-.92-6.65-2.75-1.67,1.83-3.97,2.75-6.9,2.75h-3v-4.05h2.65c3.47,0,5.2-1.82,5.2-5.45v-20.45l4.35-2.3v22.8c0,1.93.38,3.32,1.12,4.15s1.99,1.25,3.72,1.25Z"/>
  <path class="cls-1" d="m1093.49,263.3c0-2.9.87-5.15,2.6-6.75,1.53-1.37,3.53-2.05,6-2.05,3.17,0,5.6,1.17,7.3,3.5,1.47,1.97,2.2,4.53,2.2,7.7,0,3.6-.93,6.42-2.8,8.45-1.63,1.8-3.77,2.7-6.4,2.7-3,0-5.28-.83-6.85-2.5-1.6,1.67-3.75,2.5-6.45,2.5h-3.8v-4.05h3.3c3.27,0,4.9-1.67,4.9-5v-4.5Zm4.3,4.85c0,3.1,1.52,4.65,4.55,4.65,1.57,0,2.79-.63,3.68-1.9.88-1.27,1.32-3.03,1.32-5.3s-.47-3.97-1.4-5.22c-.93-1.25-2.22-1.88-3.85-1.88-2.87,0-4.3,1.67-4.3,5v4.65Z"/>
  <path class="cls-1" d="m1128.54,276.85c-2.9,0-5.13-.93-6.7-2.8-1.33-1.6-2-3.63-2-6.1v-21.05l4.3-2.3v23.2c0,3.33,1.63,5,4.9,5h3.3v4.05h-3.8Z"/>
  <path class="cls-1" d="m1154.04,272.8h13.2v4.05h-13.6c-1.8,0-3.58-.35-5.35-1.05-1.77.7-3.57,1.05-5.4,1.05h-13.55v-4.05h13.9c-2.4-1.97-4.87-4.85-7.4-8.65v-2.2c1.6-2.3,3.51-4.12,5.73-5.45,2.22-1.33,4.44-2,6.67-2s4.47.67,6.7,2.02c2.23,1.35,4.17,3.19,5.8,5.53v2.1c-2.53,3.8-5.02,6.68-7.45,8.65h.75Zm-14.2-9.7c3.07,4.2,5.88,6.97,8.45,8.3,2.57-1.37,5.38-4.15,8.45-8.35-2.5-3.03-5.33-4.57-8.5-4.6-3.17,0-5.97,1.55-8.4,4.65Z"/>
  <path class="cls-1" d="m1172.44,263.3c0-2.9.87-5.15,2.6-6.75,1.53-1.37,3.53-2.05,6-2.05,3.17,0,5.6,1.17,7.3,3.5,1.47,1.97,2.2,4.53,2.2,7.7,0,3.6-.93,6.42-2.8,8.45-1.63,1.8-3.77,2.7-6.4,2.7-3,0-5.28-.83-6.85-2.5-1.6,1.67-3.75,2.5-6.45,2.5h-3.8v-4.05h3.3c3.27,0,4.9-1.67,4.9-5v-4.5Zm4.3,4.85c0,3.1,1.52,4.65,4.55,4.65,1.57,0,2.79-.63,3.68-1.9.88-1.27,1.32-3.03,1.32-5.3s-.47-3.97-1.4-5.22c-.93-1.25-2.22-1.88-3.85-1.88-2.87,0-4.3,1.67-4.3,5v4.65Z"/>
  <path class="cls-1" d="m1211.09,275.25c-1.27.5-2.82.75-4.65.75-2.97,0-5.3-1.12-7-3.35-1.43-1.9-2.15-4.28-2.15-7.15,0-3.53.95-6.3,2.85-8.3,1.7-1.8,3.93-2.7,6.7-2.7s5.02.88,6.55,2.65c1.37,1.57,2.05,3.62,2.05,6.15v10.9c0,3.77-.98,6.75-2.95,8.95-1.87,2.07-4.35,3.1-7.45,3.1-2.07,0-4.02-.48-5.85-1.45v-3.8c1.77.93,3.52,1.4,5.25,1.4,1.97,0,3.53-.62,4.7-1.88,1.17-1.25,1.82-3.01,1.95-5.27Zm0-11.75c0-3.33-1.42-5-4.25-5-1.67,0-2.97.62-3.92,1.85-.95,1.23-1.42,2.92-1.42,5.05s.46,3.78,1.38,5.03c.92,1.25,2.16,1.88,3.72,1.88,2.2,0,3.7-.62,4.5-1.85v-6.95Z"/>
</svg>