<?xml version="1.0" encoding="UTF-8"?>
<svg id="Layer_1" data-name="Layer 1" xmlns="http://www.w3.org/2000/svg" width="209" height="434" viewBox="0 0 209 434">
  <defs>
    <style>
      .cls-1 {
        fill: #88cbd4;
      }

      .cls-1, .cls-2, .cls-3, .cls-4 {
        stroke-width: 0px;
      }

      .cls-2 {
        fill: #fff;
      }

      .cls-3 {
        fill: #f4f4f4;
      }

      .cls-4 {
        fill: #273551;
      }
    </style>
  </defs>
  <rect class="cls-3" x="89.2" y="7.44" width="84.85" height="419.12" rx="15.98" ry="15.98"/>
  <g>
    <rect class="cls-1" x="5.89" y="126.01" width="197.22" height="86.91" rx="15.58" ry="15.58"/>
    <path class="cls-1" d="m173.79,112.23h0c16.18,0,29.31,13.14,29.31,29.31v55.84c0,16.18-13.14,29.31-29.31,29.31h0v-114.47h0Z"/>
  </g>
  <path class="cls-4" d="m134.82,70.16v31.65h-6.55v-24.2c-.47.3-1.15.72-2.05,1.25-1.3.77-2.23,1.35-2.8,1.75-.43-.73-1.17-1.95-2.2-3.65l-.3-.45c-.23-.43-.42-.75-.55-.95,1.07-.77,2.75-1.92,5.05-3.45,1.2-.8,2.15-1.45,2.85-1.95h6.55Z"/>
  <g>
    <path class="cls-2" d="m37.75,184.27v-5.55c.8-.9,1.87-2.12,3.2-3.65,2.1-2.33,3.65-4.1,4.65-5.3,2.23-2.67,3.63-4.49,4.2-5.47.57-.98.85-2.08.85-3.28,0-1-.37-1.83-1.1-2.5-.73-.67-1.67-1-2.8-1-1.97,0-4.13.8-6.5,2.4l-2.75-4c3.33-2.63,6.82-3.95,10.45-3.95,2.9,0,5.22.78,6.95,2.35,1.7,1.53,2.55,3.65,2.55,6.35,0,2-.66,4.09-1.98,6.27-1.32,2.18-3.88,5.42-7.67,9.73-.93,1.07-1.62,1.85-2.05,2.35h11.35v5.25h-19.35Z"/>
    <path class="cls-2" d="m102.75,180.12c0,4.27-1.47,7.7-4.4,10.3-2.6,2.27-5.87,3.4-9.8,3.4-4.73,0-8.4-1.57-11-4.7-2-2.4-3-5.25-3-8.55,0-2.6.6-4.9,1.8-6.9l6.2-1.4c-1.37,2.17-2.05,4.65-2.05,7.45,0,2.47.72,4.42,2.17,5.88s3.41,2.17,5.88,2.17,4.37-.68,5.8-2.05c1.43-1.37,2.15-3.23,2.15-5.6v-24.75l6.25-3.35v28.1Z"/>
    <path class="cls-2" d="m120.95,184.27c-3.03,0-5.38-.97-7.05-2.9-1.43-1.67-2.15-3.82-2.15-6.45v-19.6l6.3-3.3v22.6c0,1.3.27,2.23.8,2.78s1.43.83,2.7.83h4.5v6.05h-5.1Z"/>
    <path class="cls-2" d="m140.85,178.22h4.5v6.05h-5.1c-2.43,0-4.45-.65-6.05-1.95-1.6,1.3-3.62,1.95-6.05,1.95h-5.1v-6.05h4.5c1.27,0,2.17-.28,2.7-.83.53-.55.8-1.47.8-2.78v-9.25l6.3-3.3v12.55c0,1.3.27,2.23.8,2.78s1.43.83,2.7.83Zm-13-20.55c-1,0-1.8-.3-2.4-.9-.6-.6-.9-1.42-.9-2.45,0-.97.3-1.75.9-2.35.6-.6,1.4-.9,2.4-.9s1.79.29,2.38.88c.58.58.88,1.38.88,2.38,0,2.23-1.08,3.35-3.25,3.35Zm3.8-7.35c-2.03,0-3.05-1.03-3.05-3.1,0-.9.28-1.62.83-2.17.55-.55,1.29-.83,2.22-.83,2,0,3,1,3,3s-1,3.1-3,3.1Zm.6,4c0-.97.3-1.75.9-2.35s1.4-.9,2.4-.9,1.79.29,2.38.88c.58.58.88,1.38.88,2.38,0,2.23-1.08,3.35-3.25,3.35-1,0-1.8-.3-2.4-.9-.6-.6-.9-1.42-.9-2.45Z"/>
    <path class="cls-2" d="m150.35,170.47c0-3,.93-5.35,2.8-7.05,1.63-1.47,3.73-2.2,6.3-2.2,3.3,0,5.87,1.22,7.7,3.65,1.57,2.03,2.35,4.65,2.35,7.85,0,3.7-.98,6.62-2.95,8.75-1.77,1.87-4.02,2.8-6.75,2.8s-4.85-.58-6.55-1.75c-1.6,1.17-3.53,1.75-5.8,1.75h-5.1v-6.05h4.5c1.27,0,2.17-.28,2.7-.83.53-.55.8-1.47.8-2.78v-4.15Zm6.3,4.95c0,1.87.98,2.8,2.95,2.8,2.47,0,3.7-1.9,3.7-5.7s-1.28-5.45-3.85-5.45c-1.87,0-2.8,1.1-2.8,3.3v5.05Z"/>
  </g>
  <path class="cls-4" d="m128.37,256.58h-4.75v-5.3h4.75c1.33,0,2.25-.18,2.75-.55.77-.57,1.15-1.58,1.15-3.05,0-1.13-.33-2.04-1-2.73-.67-.68-1.57-1.02-2.7-1.02-2.03,0-4.15.93-6.35,2.8l-2.4-4.2c2.77-2.7,5.9-4.05,9.4-4.05,2.93,0,5.33.82,7.2,2.45,1.8,1.6,2.7,3.67,2.7,6.2,0,3.13-1.3,5.23-3.9,6.3,3.37,1.3,5.05,3.8,5.05,7.5,0,3.9-1.33,6.73-4,8.5-1.87,1.23-4.2,1.85-7,1.85-1.53,0-3.28-.41-5.22-1.22-1.95-.82-3.54-1.81-4.78-2.98l2.65-3.95c1.8,1.63,4.1,2.45,6.9,2.45,1.43,0,2.57-.41,3.4-1.22.83-.82,1.25-1.92,1.25-3.33,0-2.97-1.7-4.45-5.1-4.45Z"/>
  <path class="cls-4" d="m117.12,343.79c4.5-6.87,8.93-13.62,13.3-20.25h6.45v20.25h5.2v5.25h-5.2v6.15h-6.5v-6.15h-13.25v-5.25Zm5.65,0h7.6v-11.85l-7.6,11.85Z"/>
</svg>