<?xml version="1.0" encoding="UTF-8"?>
<svg id="Layer_2" data-name="Layer 2" xmlns="http://www.w3.org/2000/svg" width="679" height="628" xmlns:xlink="http://www.w3.org/1999/xlink" viewBox="0 0 679 628">
  <defs>
    <style>
      .cls-1 {
        fill: url(#linear-gradient);
      }

      .cls-1, .cls-2, .cls-3, .cls-4, .cls-5, .cls-6, .cls-7, .cls-8, .cls-9, .cls-10, .cls-11, .cls-12, .cls-13, .cls-14, .cls-15, .cls-16, .cls-17, .cls-18 {
        stroke-width: 0px;
      }

      .cls-2 {
        fill: #007cff;
      }

      .cls-3 {
        fill: #375a64;
      }

      .cls-4 {
        fill: #686493;
      }

      .cls-5 {
        fill: #e5e5e5;
      }

      .cls-6 {
        filter: url(#drop-shadow-1);
      }

      .cls-6, .cls-12, .cls-17 {
        fill: #fff;
      }

      .cls-7 {
        fill: #2b454e;
      }

      .cls-8 {
        fill: #766fa4;
      }

      .cls-9 {
        fill: #1a2e35;
      }

      .cls-10 {
        fill: #603c60;
      }

      .cls-11 {
        fill: #ffc800;
      }

      .cls-13 {
        fill: url(#linear-gradient-2);
      }

      .cls-14 {
        fill: #4c4c4c;
      }

      .cls-15 {
        fill: #6c90be;
      }

      .cls-16 {
        fill: #273551;
      }

      .cls-17 {
        opacity: .3;
      }

      .cls-18 {
        fill: #7e4d7c;
      }
    </style>
    <filter id="drop-shadow-1" filterUnits="userSpaceOnUse">
      <feOffset dx="7.29" dy="7.29"/>
      <feGaussianBlur result="blur" stdDeviation="10.94"/>
      <feFlood flood-color="#000" flood-opacity=".15"/>
      <feComposite in2="blur" operator="in"/>
      <feComposite in="SourceGraphic"/>
    </filter>
    <linearGradient id="linear-gradient" x1="332.64" y1="206.22" x2="434.44" y2="129.56" gradientUnits="userSpaceOnUse">
      <stop offset="0" stop-color="#668ab2"/>
      <stop offset="1" stop-color="#a5d6cd"/>
    </linearGradient>
    <linearGradient id="linear-gradient-2" x1="249.32" y1="249.66" x2="376.55" y2="151.31" gradientUnits="userSpaceOnUse">
      <stop offset="0" stop-color="#6c90be"/>
      <stop offset="1" stop-color="#b0e5db"/>
    </linearGradient>
  </defs>
  <g id="Layer_1-2" data-name="Layer 1">
    <g>
      <path class="cls-6" d="m604.88,26.32H58.77c-18.23,0-33,14.77-33,33v391.85c0,18.23,14.77,33,33,33h240.84l11.46,103.27,61.6-103.27h232.2c18.23,0,33-14.77,33-33V59.32c0-18.23-14.77-33-33-33Z"/>
      <g>
        <rect class="cls-16" x="71.93" y="48.62" width="7.73" height="52.92" rx="3.86" ry="3.86" transform="translate(75.29 -31.61) rotate(45)"/>
        <rect class="cls-16" x="71.93" y="48.62" width="7.73" height="52.92" rx="3.86" ry="3.86" transform="translate(182.48 74.57) rotate(135)"/>
      </g>
      <g>
        <g>
          <path class="cls-16" d="m184.2,411.9h3.3v4.05h-3.8c-3.43,0-5.9-1.27-7.4-3.8-1.6,1.53-3.58,2.3-5.95,2.3-2.93,0-5.27-1.1-7-3.3-1.43-1.87-2.15-4.15-2.15-6.85,0-3.23.98-5.83,2.95-7.8,1.67-1.7,3.7-2.55,6.1-2.55,1.83,0,3.42.47,4.75,1.4v-2.15l4.35-2.3v16c0,3.33,1.62,5,4.85,5Zm-9.2-11.9c-1.23-1.37-2.75-2.05-4.55-2.05-1.47,0-2.67.59-3.6,1.78-.93,1.18-1.4,2.72-1.4,4.62s.47,3.48,1.4,4.65c.93,1.17,2.15,1.75,3.65,1.75,1.87,0,3.4-.77,4.6-2.3-.07-.6-.1-1.07-.1-1.4v-7.05Zm-6.45-12.3c-1.63,0-2.45-.83-2.45-2.5s.82-2.45,2.45-2.45,2.4.82,2.4,2.45-.8,2.5-2.4,2.5Zm6.35,0c-1.63,0-2.45-.83-2.45-2.5s.82-2.45,2.45-2.45,2.4.82,2.4,2.45-.8,2.5-2.4,2.5Z"/>
          <path class="cls-16" d="m217.1,411.9h3.25v4.05h-3.3c-2.7,0-4.87-.31-6.5-.92-1.63-.62-3.15-1.71-4.55-3.28-4.2,2.8-9.1,4.2-14.7,4.2h-6.8v-4.05h6.85c6.77,0,12.12-2.23,16.05-6.7-2.77-5.1-6.13-7.65-10.1-7.65-2.7,0-5.48,1.43-8.35,4.3v-4c2.8-2.83,5.77-4.25,8.9-4.25,2.57,0,5.05.92,7.45,2.77,2.4,1.85,4.52,4.49,6.35,7.92v2.2c-1.03,1.3-2.02,2.35-2.95,3.15,1.8,1.5,4.6,2.25,8.4,2.25Z"/>
          <path class="cls-16" d="m234.75,411.9h3.3v4.05h-3.8c-2.77,0-4.95-.88-6.55-2.65-1.6,1.77-3.78,2.65-6.55,2.65h-3.8v-4.05h3.3c3.27,0,4.9-1.67,4.9-5v-10.35l4.3-2.3v12.65c0,3.33,1.63,5,4.9,5Zm-11.95,9.05c1.6,0,2.4.83,2.4,2.5s-.8,2.45-2.4,2.45-2.45-.82-2.45-2.45.82-2.5,2.45-2.5Zm6.35,0c1.6,0,2.4.83,2.4,2.5s-.8,2.45-2.4,2.45-2.45-.82-2.45-2.45.82-2.5,2.45-2.5Z"/>
          <path class="cls-16" d="m267.65,411.9h3.25v4.05h-3.3c-2.7,0-4.87-.31-6.5-.92-1.63-.62-3.15-1.71-4.55-3.28-4.2,2.8-9.1,4.2-14.7,4.2h-6.8v-4.05h6.85c6.77,0,12.12-2.23,16.05-6.7-2.77-5.1-6.13-7.65-10.1-7.65-2.7,0-5.48,1.43-8.35,4.3v-4c2.8-2.83,5.77-4.25,8.9-4.25,2.57,0,5.05.92,7.45,2.77,2.4,1.85,4.52,4.49,6.35,7.92v2.2c-1.03,1.3-2.02,2.35-2.95,3.15,1.8,1.5,4.6,2.25,8.4,2.25Z"/>
          <path class="cls-16" d="m283.65,411.75c1.33-5.03,3.53-9.23,6.6-12.6,3.43-3.7,7.43-5.55,12-5.55,3.8,0,6.83,1.32,9.1,3.95,1.9,2.23,2.85,4.98,2.85,8.25v1.3c0,2.9-.88,5.15-2.65,6.75-1.53,1.4-3.55,2.1-6.05,2.1h-20.7c-2.77,0-4.95-.88-6.55-2.65-1.6,1.77-3.78,2.65-6.55,2.65h-3.8v-4.05h3.3c3.27,0,4.9-1.67,4.9-5v-7l4.3-2.3v9.3c0,2.8,1.08,4.42,3.25,4.85Zm26.25-5.05v-.9c0-2.6-.8-4.67-2.4-6.2-1.4-1.33-3.13-2-5.2-2-3.53,0-6.72,1.63-9.55,4.9-2.17,2.5-3.83,5.63-5,9.4h17.5c3.1,0,4.65-1.73,4.65-5.2Z"/>
          <path class="cls-16" d="m346.1,411.9h3.3v4.05h-3.8c-1.7,0-3.17-.33-4.4-1-.3,3.3-1.45,5.93-3.45,7.9-1.83,1.8-4.13,2.7-6.9,2.7-2,0-3.95-.5-5.85-1.5v-3.75c1.7.93,3.4,1.4,5.1,1.4,2.13,0,3.8-.72,5-2.15s1.8-3.42,1.8-5.95v-17.05l4.3-2.3v.05l.05-.05v13.65c.3,2.67,1.92,4,4.85,4Z"/>
          <path class="cls-16" d="m363.8,411.9h3.3v4.05h-3.8c-2.77,0-4.95-.88-6.55-2.65-1.6,1.77-3.78,2.65-6.55,2.65h-3.8v-4.05h3.3c3.27,0,4.9-1.67,4.9-5v-10.35l4.3-2.3v12.65c0,3.33,1.63,5,4.9,5Zm-11.95,9.05c1.6,0,2.4.83,2.4,2.5s-.8,2.45-2.4,2.45-2.45-.82-2.45-2.45.82-2.5,2.45-2.5Zm6.35,0c1.6,0,2.4.83,2.4,2.5s-.8,2.45-2.4,2.45-2.45-.82-2.45-2.45.82-2.5,2.45-2.5Z"/>
          <path class="cls-16" d="m391.05,411.9v4.05h-26.95v-4.05h8.65c-1.63-2.1-2.45-4.68-2.45-7.75,0-3.4,1.17-6.1,3.5-8.1,1.9-1.6,4.1-2.42,6.6-2.45,3.53,0,6.28,1.42,8.25,4.25v4.05c-2.13-2.87-4.72-4.3-7.75-4.3-1.9,0-3.42.61-4.58,1.82-1.15,1.22-1.72,2.84-1.72,4.88,0,2.3.69,4.14,2.08,5.53,1.38,1.38,3.22,2.08,5.52,2.08h8.85Zm-10.8-23.7c-1.63,0-2.45-.83-2.45-2.5s.82-2.45,2.45-2.45,2.4.82,2.4,2.45-.8,2.5-2.4,2.5Z"/>
          <path class="cls-16" d="m429.7,411.9h3.3v4.05h-3.8c-3.43,0-5.9-1.27-7.4-3.8-1.6,1.53-3.58,2.3-5.95,2.3-2.93,0-5.27-1.1-7-3.3-1.43-1.87-2.15-4.15-2.15-6.85,0-3.23.98-5.83,2.95-7.8,1.67-1.7,3.7-2.55,6.1-2.55,1.83,0,3.42.47,4.75,1.4v-2.15l4.35-2.3v16c0,3.33,1.62,5,4.85,5Zm-9.2-11.9c-1.23-1.37-2.75-2.05-4.55-2.05-1.47,0-2.67.59-3.6,1.78-.93,1.18-1.4,2.72-1.4,4.62s.47,3.48,1.4,4.65c.93,1.17,2.15,1.75,3.65,1.75,1.87,0,3.4-.77,4.6-2.3-.07-.6-.1-1.07-.1-1.4v-7.05Zm-6.45-12.3c-1.63,0-2.45-.83-2.45-2.5s.82-2.45,2.45-2.45,2.4.82,2.4,2.45-.8,2.5-2.4,2.5Zm6.35,0c-1.63,0-2.45-.83-2.45-2.5s.82-2.45,2.45-2.45,2.4.82,2.4,2.45-.8,2.5-2.4,2.5Z"/>
          <path class="cls-16" d="m430,415.95v-4.05h3.3c3.27,0,4.9-1.67,4.9-5v-10.35l4.3-2.3v12.8c0,2.83-.85,5.07-2.55,6.7-1.57,1.47-3.62,2.2-6.15,2.2h-3.8Zm8.05,9.95c-1.63,0-2.45-.83-2.45-2.5s.82-2.45,2.45-2.45,2.4.82,2.4,2.45-.8,2.5-2.4,2.5Z"/>
          <path class="cls-16" d="m460.2,415.95c-2.9,0-5.13-.93-6.7-2.8-1.33-1.6-2-3.63-2-6.1v-21.05l4.3-2.3v23.2c0,3.33,1.63,5,4.9,5h3.3v4.05h-3.8Z"/>
          <path class="cls-16" d="m461,415.95v-4.05h6.85c6.77,0,12.12-2.23,16.05-6.7-2.77-5.1-6.13-7.65-10.1-7.65-2.7,0-5.48,1.43-8.35,4.3v-4c2.8-2.83,5.77-4.25,8.9-4.25,2.57,0,5.05.92,7.45,2.77,2.4,1.85,4.52,4.49,6.35,7.92v2.2c-4.9,6.3-11.68,9.45-20.35,9.45h-6.8Zm14.65,9.95c-1.63,0-2.45-.83-2.45-2.5s.82-2.45,2.45-2.45,2.4.82,2.4,2.45-.8,2.5-2.4,2.5Z"/>
          <path class="cls-16" d="m492.5,428.4l1.15-2.15h1.35c-.33-.6-.5-1.23-.5-1.9,0-.97.37-1.81,1.1-2.53.73-.72,1.6-1.08,2.6-1.08.83,0,1.63.27,2.4.8v2.2c-.73-.57-1.43-.85-2.1-.85-1.23,0-1.85.55-1.85,1.65,0,.57.23,1.13.7,1.7h4.55l-1.15,2.15h-8.25Zm2.65-12.45v-29.95l4.3-2.3v32.25h-4.3Z"/>
        </g>
        <g>
          <ellipse id="_Path_" data-name="&amp;lt;Path&amp;gt;" class="cls-5" cx="331.83" cy="308.24" rx="218.93" ry="12.79"/>
          <g>
            <path class="cls-17" d="m377.54,181.82s-.09,0-.13-.02c-.3-.07-.49-.38-.42-.68.04-.15,3.64-15.46-.1-30.94-.07-.3.11-.61.42-.68.3-.07.61.11.68.42,3.8,15.75.14,31.32.1,31.47-.06.26-.29.43-.55.43Z"/>
            <path class="cls-14" d="m194.9,301.1c-.14,0-.28,0-.42,0-3.12-.09-5.57-2.68-5.49-5.8.08-3.12,2.65-5.53,5.8-5.49.04,0,.07,0,.11,0,3.26,0,11.11-3.96,27.53-29.84.88-1.39,2.33-2.33,3.96-2.56,1.63-.23,3.28.25,4.52,1.33,20.26,17.66,41.73,28.66,41.94,28.77,2.78,1.41,3.89,4.81,2.48,7.59-1.41,2.78-4.81,3.89-7.59,2.48-.85-.43-19.62-10.03-39.29-26.14-13.76,20.69-23.97,29.67-33.54,29.67Z"/>
            <path class="cls-14" d="m229.83,257.72c-.16,0-.32-.01-.48-.03-1.85-.26-3.14-1.98-2.87-3.83.8-5.62-.19-26.68-7.31-43.05-.65-1.49-.15-3.23,1.2-4.15,15.47-10.54,48.41-11.8,49.81-11.85,1.86-.04,3.44,1.4,3.5,3.27.07,1.87-1.4,3.44-3.27,3.5-.31.01-29.11,1.12-43.91,9.26,6.31,16.3,7.73,36.63,6.68,43.98-.24,1.69-1.69,2.91-3.35,2.91Z"/>
            <path class="cls-8" d="m235.52,253.34c-2.25-5.31-12.41-4.71-18.37-.16-3.19,2.43-7.5,9.76-7.95,12.41-.45,2.65,1.39,5.06,4.54,4.79,3.89-.34,9.24-5.99,9.24-5.99-3.56,3.49,1.03,5.95,7.88.9,3.8-2.8,7.19-6,4.66-11.95Z"/>
            <path class="cls-14" d="m429.73,183.95c-.05,0-.1,0-.16-.02-.3-.09-.47-.4-.39-.7,1.5-5.24,3.15-8.44,5.31-10.22-.33-1.12-.29-2.42.17-3.68.45-1.23,1.33-2.45,2.67-3.39-.65-.71-.9-1.63-.67-2.69.26-1.18,1.11-2.45,2.41-3.56-.51-.59-.64-1.23-.64-1.7-.03-3.37,6.22-8.5,13.28-9.46.31-.06.59.17.64.48.04.31-.17.59-.48.64-6.7.92-12.33,5.77-12.3,8.33,0,.42.16.75.41,1.02,2.54-1.77,6.29-2.91,10.48-2.1,3.47.66,4.87,1.39,4.71,2.45-.31,1.98-7.69,2.39-12.64,1.8-1.12-.13-1.94-.4-2.54-.73-1.23,1.01-2.02,2.13-2.22,3.08-.18.85.09,1.44.56,1.85,2.1-1.08,5.05-1.53,8.94-.67,5.12,1.13,5.31,1.75,5.43,2.13.08.27.02.54-.18.75-1.08,1.14-8.93.6-12.87-.37-.51-.13-.97-.3-1.36-.51-1.31.82-2.15,1.93-2.56,3.06-.33.9-.41,1.8-.25,2.6.2-.12.41-.23.62-.33,2.34-1.11,5.16-.92,8.64.57,2.31.99,3.42,1.86,3.5,2.75.02.26-.03.77-.64,1.18-1.72,1.14-7.76.97-10.89-.7-.74-.39-1.33-.98-1.74-1.68-1.85,1.69-3.33,4.7-4.69,9.43-.07.25-.3.41-.54.41Zm6.13-10.54c.31.58.78,1.05,1.38,1.37,2.55,1.36,7.56,1.67,9.44.91.38-.16.44-.28.44-.29,0,0-.06-.64-2.82-1.82-3.16-1.35-5.69-1.54-7.71-.58-.25.12-.49.25-.72.41Zm3.76-7.42c.1.03.2.06.29.08,3.99.98,9.37,1.14,11.22.84-.57-.24-1.74-.63-4.1-1.15-3.13-.69-5.58-.48-7.4.23Zm1.42-6.35c.51.19,1.09.3,1.62.37,5.63.67,10.59-.12,11.34-.82-.19-.17-.95-.66-3.76-1.19-3.71-.71-6.95.22-9.2,1.65Z"/>
            <path class="cls-14" d="m282.74,299.22c.74-.24.49-.96-.34-.96h-15.29c-29.11-3.08-49.45,1.05-36.63,2.02,12.82.97-.9.77-10.26,4.31-9.36,3.54,69.62,4.43,76.8,0,6.62-4.09-24.6-2.07-14.28-5.38Z"/>
            <g>
              <path class="cls-1" d="m444.54,300.18c-49.62,9.8-110.76,3.65-161.9,3.57,0-79.27-.5-155.34-4.62-234.62,52.36.44,114.09-5.18,164.94,2.64-15.4,76.02-14.83,153.12,1.58,228.41Z"/>
              <path class="cls-11" d="m409.43,303.58c-50.26-.05-100.53.65-150.8-.04-.89-79.48-1.64-154.56-5.99-234.14,52.71-1.39,107.68-1.33,160.38,0-.12,74.74,2.43,160.57-3.59,234.17Z"/>
              <path class="cls-13" d="m409.43,303.58c-50.26-.05-100.53.65-150.8-.04-.89-79.48-1.64-154.56-5.99-234.14,52.71-1.39,107.68-1.33,160.38,0-.12,74.74,2.43,160.57-3.59,234.17Z"/>
              <path class="cls-14" d="m292.94,199.4c-.29,0-.54-.22-.56-.52l-10.66-129.54c-.03-.31.21-.58.52-.61.32-.02.58.21.61.52l10.66,129.54c.03.31-.21.58-.52.61-.02,0-.03,0-.05,0Z"/>
              <circle class="cls-14" cx="278.74" cy="72.73" r=".93"/>
              <path class="cls-14" d="m288.15,79.4c0,.51-.41.93-.93.93s-.93-.41-.93-.93.41-.93.93-.93.93.41.93.93Z"/>
              <path class="cls-9" d="m289.18,188.82c0,.51-.41.93-.93.93s-.93-.41-.93-.93.41-.93.93-.93.93.41.93.93Z"/>
              <path class="cls-9" d="m297.67,195.48c0,.51-.41.93-.93.93s-.93-.41-.93-.93.41-.93.93-.93.93.41.93.93Z"/>
              <g>
                <path class="cls-12" d="m299.89,159.13c-9.55.09-19.1.21-28.65.36-.45-9.73-1.05-19.44-1.69-29.16,9.77-.18,19.54-.33,29.31-.41.35,9.73.79,19.46,1.03,29.2Z"/>
                <path class="cls-12" d="m332.46,159.25c-9.58-.21-19.17-.16-28.76-.14-.2-9.74-.62-19.47-.97-29.21,9.73-.08,19.46-.08,29.2-.02.23,9.79.45,19.58.53,29.37Z"/>
                <path class="cls-15" d="m365.2,160.25c-9.63-.38-19.26-.7-28.9-.91-.07-9.81-.26-19.62-.49-29.43,9.7.13,19.4.22,29.1.45.17,9.96.24,19.93.29,29.89Z"/>
                <path class="cls-15" d="m398.06,162.32c-9.66-.79-19.33-1.36-29-1.88-.03-10-.11-20-.27-30,9.71.16,19.42.51,29.13.86.08,10.34.12,20.68.15,31.02Z"/>
                <path class="cls-4" d="m300.34,192.35c-9.39.04-18.79.11-28.18.26,0-9.62-.4-19.24-.74-28.85,9.52-.13,19.05-.31,28.57-.35.2,9.65.29,19.29.35,28.94Z"/>
                <path class="cls-4" d="m332.6,192.69c-9.49-.22-18.99-.3-28.48-.33-.02-9.65-.13-19.31-.33-28.96,9.56-.02,19.13-.07,28.7.15.07,9.71.1,19.43.11,29.14Z"/>
                <path class="cls-4" d="m365.11,193.99c-9.55-.61-19.13-.89-28.7-1.21.02-9.72,0-19.43-.07-29.15,9.62.21,19.26.47,28.87.97,0,9.8-.05,19.59-.1,29.39Z"/>
                <path class="cls-12" d="m397.75,196.65c-9.61-.69-19.2-1.54-28.81-2.19.07-9.8.11-19.61.12-29.41,9.67.58,19.34,1.2,29,2,0,9.87-.09,19.74-.31,29.6Z"/>
                <path class="cls-4" d="m300.14,225.31c-9.45-.02-18.89,0-28.34.08.19-9.52.35-19.05.35-28.57,9.4-.15,18.79-.23,28.19-.24,0,9.58-.1,19.15-.21,28.73Z"/>
                <path class="cls-4" d="m332.49,225.72c-9.52-.24-19.05-.4-28.57-.41.11-9.57.21-19.14.21-28.72,9.5.04,18.99.11,28.48.35-.01,9.59-.09,19.18-.11,28.77Z"/>
                <path class="cls-4" d="m365.07,226.82c-9.58-.43-19.17-.76-28.75-1,.03-9.59.1-19.18.1-28.78,9.55.25,19.14.61,28.67,1.22-.06,9.52-.05,19.04-.02,28.56Z"/>
                <path class="cls-12" d="m397.39,228.18c-9.51-.28-19.01-.77-28.51-1.19-.04-9.49-.04-18.98.02-28.47,9.59.64,19.17,1.42,28.76,2.07-.16,9.2-.3,18.4-.27,27.6Z"/>
                <path class="cls-4" d="m299.58,258.15c-9.54-.02-19.07-.01-28.61-.06.26-9.5.51-19.01.74-28.51,9.45-.06,18.9-.08,28.36-.06-.15,9.54-.32,19.09-.49,28.63Z"/>
                <path class="cls-4" d="m332.16,258.49c-9.6-.2-19.19-.33-28.79-.34.17-9.54.34-19.09.48-28.63,9.54.03,19.08.16,28.61.4-.09,9.52-.2,19.05-.3,28.57Z"/>
                <path class="cls-4" d="m365.31,259.23c-9.75-.23-19.51-.45-29.26-.66.1-9.52.15-19.04.25-28.55,9.6.24,19.2.56,28.79.98.04,9.41.16,18.82.23,28.23Z"/>
                <path class="cls-12" d="m398.24,259.76c-9.68.02-19.37-.25-29.05-.43-.07-9.39-.2-18.78-.28-28.17,9.5.35,19,.82,28.51,1.05.1,9.19.43,18.38.82,27.55Z"/>
                <path class="cls-4" d="m299.15,291.15c-9.64.04-19.28.03-28.92-.07.13-9.6.36-19.19.62-28.78,9.55.04,19.1.08,28.65.07-.15,9.6-.28,19.19-.35,28.79Z"/>
                <path class="cls-4" d="m331.87,291.4c-9.63-.18-19.26-.31-28.9-.27.02-9.59.17-19.18.33-28.77,9.6.01,19.2.12,28.81.33-.15,9.57-.23,19.14-.24,28.71Z"/>
                <path class="cls-12" d="m365,291.86c-9.75-.04-19.5-.21-29.25-.39.09-9.57.15-19.14.25-28.7,9.78.22,19.56.38,29.34.6.05,9.5-.14,19-.34,28.49Z"/>
                <path class="cls-12" d="m397.93,291.53c-9.69.11-19.37.32-29.05.34.23-9.47.42-18.94.34-28.41,9.73.19,19.46.37,29.19.35.37,9.25.39,18.5-.48,27.72Z"/>
                <path class="cls-7" d="m280.54,142.09c-.08-.78-.01.49-.02-.29s.65-2.07,1.88-2.08c1.23-.02,1.99,1.22,2.07,2s.01-.5.02.29-.66,2.06-1.88,2.07c-1.23.02-1.99-1.21-2.07-1.99Zm2.88-.11c0-.38.03.23,0-.15-.04-.38-.34-1.17-.98-1.16-.65.01-.85.79-.84,1.17,0,.38-.03-.23,0,.15s.34,1.17.98,1.16c.65-.01.85-.78.84-1.16Zm-1.23,5.64c1.72-2.56,3.53-5.08,5.16-7.69.12-.19.19-.2.41-.23.22-.03.49.25.49.44,0,.19-.02.22-.09.34-1.71,2.57-3.48,5.12-5.17,7.69-.13.19-.2.2-.42.23-.22.03-.47-.26-.47-.44s.02-.22.09-.33Zm3.67-1.25c-.07-.78-.02.49-.01-.29,0-.78.67-2.06,1.89-2.07,1.22-.01,1.97,1.21,2.04,1.99.07.78.02-.49.01.29s-.68,2.05-1.9,2.07c-1.22.02-1.96-1.22-2.03-1.99Zm2.87-.11c0-.38.02.23,0-.15-.03-.38-.32-1.17-.96-1.16-.64,0-.85.78-.85,1.16s-.02-.23,0,.15c.03.38.32,1.16.96,1.16.64,0,.85-.78.85-1.16Z"/>
                <g>
                  <path class="cls-12" d="m343.3,143.96c-.03-2.56,1.87-4.17,4.3-4.34,1.07-.07,1.98.4,2.8.98.32.23.35.67.13.97-.22.3-.63.34-.95.12-.61-.42-1.18-.71-1.96-.69-.78.01-1.57.27-2.14.85-.57.58-.86,1.3-.86,2.12,0,.82.32,1.56.9,2.15.58.58,1.37.89,2.16.92.79.04,1.32-.23,1.95-.63.31-.2.73-.14.95.15.22.29.21.75-.11.97-.83.57-1.71,1-2.78.9-2.44-.24-4.36-1.91-4.39-4.48Z"/>
                  <path class="cls-12" d="m352.95,147.85c-.04-2.35-.07-4.88-.08-7.24,0-.49.27-.6.65-.69.01,0,0,0,.01,0s0,0,.03,0c1.26.03,2.65.02,3.89.07.44.02.66.31.67.69,0,.38-.21.67-.65.67-1.03,0-2.2-.05-3.25-.05,0,.75.01,1.5.02,2.25.9.02,1.93,0,2.79.06.44.03.67.32.67.7,0,.38-.21.67-.66.67-.87,0-1.89-.06-2.79-.06,0,.75.01,1.51.02,2.27,1.06.03,2.23.04,3.26.1.44.03.67.33.67.71,0,.37-.21.66-.66.65-1.24-.01-2.63-.1-3.89-.1-.03,0-.02,0-.03-.01-.01,0,0,.01-.02.01-.4.02-.65-.23-.66-.71Z"/>
                </g>
                <path class="cls-12" d="m379.78,145c-.02-2.59,1.84-4.22,4.32-4.32,1.09-.04,1.99.48,2.8,1.1.32.24.35.69.13,1-.23.31-.64.32-.95.1-.6-.44-1.18-.76-1.96-.77-.79-.01-1.57.23-2.15.81-.58.59-.87,1.31-.86,2.15,0,.84.33,1.62.9,2.23.57.62,1.36.97,2.15,1.03.8.06,1.32-.19,1.96-.59.32-.2.74-.11.95.2s.21.79-.11,1c-.85.56-1.7.98-2.79.84-2.47-.34-4.36-2.19-4.38-4.78Z"/>
                <path class="cls-12" d="m288.59,174.68c-.88,2.38-1.91,4.79-2.83,7.12-.13.33-.35.4-.58.41-.22,0-.07.07-.29-.06-.22-.13-.5-.43-.33-.85.79-2.01,1.63-4.14,2.43-6.17-.98,0-2.09.04-3.03.02-.44,0-.66-.29-.66-.66s.18-.65.63-.66c1.28-.04,2.72-.03,4.04-.05.05,0,.07,0,.13.01.05.01.2.07.24.09s.02.02.04.04.04.02.05.05.03.03.05.05c.01.02.02.03.04.05.02.02.02.04.03.06,0,.02.04.04.05.06,0,.02,0,.03.02.06,0,.03.01.02.02.07.01.05.01.2,0,.25-.01.06-.02.08-.03.13Z"/>
                <path class="cls-12" d="m320.86,179.33c-.08,1.59-1.13,2.82-2.78,2.8-1.65-.02-2.75-1.27-2.85-2.87-.07-1.01.48-1.78,1.22-2.4-.21-.37-.42-.76-.38-1.21.09-1.1.79-1.94,1.95-1.93,1.15.02,1.85.89,1.96,1.98.04.45-.16.83-.36,1.2.73.62,1.31,1.42,1.26,2.42Zm-1.29-.02c0-.86-.66-1.56-1.53-1.57-.87,0-1.53.66-1.52,1.53,0,.87.68,1.55,1.55,1.56s1.51-.66,1.5-1.52Zm-2.21-3.64c0,.38.29.68.67.69s.64-.31.64-.67c0-.37-.28-.66-.65-.66-.37,0-.66.27-.66.65Z"/>
                <path class="cls-12" d="m347.79,177.35c0-1.68,1.2-2.87,2.85-2.83,1.64.03,2.57,1.22,2.9,2.73,0,.01,0-.06.01.06,0,.12.04.45.03.68-.04.82-.11,1.65-.43,2.45-.33.8-.78,1.5-1.55,2-.51.34-1.15.5-1.79.5-.35,0-.67-.28-.68-.65,0-.38.26-.63.64-.67.38-.04.79-.1,1.11-.31.32-.21.58-.51.75-.81.05-.08.23-.3.14-.29-.29.04-.72.22-1.13.17-1.62-.21-2.85-1.34-2.85-3.02Zm1.31.04c0,.89.66,1.61,1.56,1.64.9.03,1.54-.64,1.54-1.53,0-.89-.65-1.61-1.55-1.64-.9-.03-1.55.64-1.55,1.53Z"/>
                <path class="cls-7" d="m380.91,180.72c0-.4.23-.72.71-.69,1.16.06,2.57.19,3.73.31.48.05.71.4.7.8,0,.4-.24.7-.72.66-1.15-.08-2.57-.21-3.72-.31-.47-.04-.71-.38-.71-.77Z"/>
                <path class="cls-12" d="m289.28,212.71c0,.39-.29.61-.66.66-.03,0-.11-.03-.11,0-.03.3,0,.57-.02.91-.03.34-.27.64-.65.64-.38,0-.61-.3-.63-.64-.02-.34.04-.59-.02-.92-.85,0-2.94.03-3.5.03-.56,0,.03,0-.14,0-.17,0,.09.03-.05,0-.14-.03-.22.05-.4-.16s-.35-.52-.06-.9c1.36-1.83,2.43-4.16,4.38-5.5.01,0,.01-.02.02-.03.01-.01.02-.03.04-.05s.04-.02.06-.04.03-.02.05-.04.05-.01.07-.03c.02-.01.02-.03.05-.04.02,0,.05-.02.07-.02.02,0,.03,0,.05-.01.02,0,.06,0,.08,0,.01,0,.01,0,.02,0,.01,0,0,0,.02,0s.05,0,.07,0c.02,0,.04,0,.06.01.02,0,.05.02.07.02.02,0,.03,0,.05.01.02,0,.04.03.06.04.02.01.04.03.06.04.01,0,0,0,.01.01,0,0,.03,0,.03.02,0,.02.03.03.04.05.01.02.02.03.04.05s.04.04.04.06c0,.02.01.03.02.05s.02.05.02.07c0,.02,0,.03.01.05,0,.02.01.05.01.07,0,.02.01.04.01.06,0,.02,0,.02,0,.04-.01,1.61-.03,3.21-.04,4.82.03,0,.09,0,.12,0,.37.05.64.26.64.65Zm-2.03-3.6c-.79.99-1.57,1.98-2.36,2.97.78,0,1.56-.02,2.34-.02.02-.98.02-1.97.02-2.95Z"/>
                <path class="cls-12" d="m319.83,210c.56.59.85,1.3.85,2.11,0,.81-.3,1.5-.88,2.07-.57.58-1.25.8-2.09.85-.03,0,.24.02-.11,0-.35-.02-1.56-.32-1.95-.89-.18-.26-.3-.68.02-.94.31-.26.63-.26.95.01.32.27.69.49,1.13.48s.82-.15,1.12-.47c.31-.31.47-.69.48-1.13s-.15-.83-.46-1.15-.68-.46-1.12-.48c-.44-.01-.82.17-1.14.44-.32.27-.64.24-.95,0-.06-.04-.1-.12-.13-.15s0-.02-.02-.04-.01-.04-.02-.06c-.01-.02,0-.06-.01-.08,0-.03,0,.01-.01-.03,0-.05,0-.12,0-.2.14-.99.25-2.11.36-3.08.03-.26.18-.38.28-.47s.02,0,.07-.04c.05-.04-.03,0,.05-.03s.16-.07.31-.07c1.1.02,2.39.02,3.47.05.47.02.68.3.67.68,0,.38-.22.65-.68.66-.88.02-1.97-.03-2.89-.03-.06.39-.1.79-.15,1.18.27-.05.52-.12.8-.1.8.06,1.5.31,2.05.9Z"/>
                <path class="cls-12" d="m353.4,213.12c0,1.66-1.25,2.78-2.86,2.74-1.6-.04-2.56-1.17-2.88-2.66,0-.01,0,.06-.01-.05,0-.11-.03-.43-.02-.66.04-.81.11-1.63.44-2.43.33-.8.78-1.48,1.55-1.97.51-.33,1.15-.49,1.78-.48.35,0,.67.28.67.65,0,.37-.26.63-.64.66-.38.03-.79.09-1.11.29-.32.2-.58.5-.75.79-.05.08-.22.3-.13.28.29-.04.72-.21,1.12-.16,1.59.22,2.84,1.33,2.83,2.99Zm-1.3-.05c0-.88-.67-1.58-1.55-1.61-.88-.03-1.54.61-1.54,1.49,0,.88.66,1.57,1.53,1.6s1.55-.6,1.56-1.48Z"/>
                <path class="cls-7" d="m380.86,213.83c-.43-.03-.62-.3-.62-.64,0-.34.19-.58.62-.56,1.5.08,3.27.19,4.76.3.43.03.62.3.62.64,0,.34-.19.58-.62.56-1.5-.08-3.27-.19-4.76-.3Zm3.21-2.86s0,.04,0,.06c-.06.45-.35.75-.82.72-.47-.03-.76-.37-.82-.82,0-.02,0-.04,0-.06.06-.45.36-.74.82-.71.46.03.76.36.82.81Zm-.01,4.86s0,.04,0,.06c-.06.45-.36.73-.82.71-.47-.03-.76-.35-.82-.81,0-.02,0-.04,0-.06.06-.45.35-.75.82-.72.47.03.76.36.82.82Z"/>
                <path class="cls-12" d="m286.93,240.07c-.06,2.31-.09,4.74-.16,7-.01.48-.3.66-.67.66-.37,0-.64-.18-.63-.66.02-1.87.08-3.92.12-5.83-.15.07-.33.2-.48.26s-.16.12-.35.09c-.19-.02-.43-.07-.54-.35s-.15-.65.26-.88c.41-.23,1.03-.56,1.45-.86.02-.01.03-.02.05-.02.02,0,.04-.03.06-.04.02-.01.05,0,.07-.01s.03,0,.05-.01c.02,0,.06-.01.08-.01.02,0,.02,0,.04,0,.01,0,0,0,.02,0,.02,0,.06,0,.08,0s.03.01.05.01c.02,0,.05.01.07.02s.03,0,.05.01c.02.02.05.03.07.04.02,0,.03.02.05.03.02,0,.03.02.05.04.02.01.03.03.05.05.01.02.02.03.04.05.01.02.04.03.04.05,0,.01,0,.01.01.03s0,.02.01.04c0,.02.02.04.02.06,0,.02.02.04.02.06,0,.02.01.04.01.06,0,.02,0,.06.02.08,0,.02,0,.02,0,.04Z"/>
                <path class="cls-12" d="m320.5,247.28c.06.38-.31.64-.67.64-1.01,0-3.37-.04-4.04-.04-.67,0,.08,0-.17,0-.19,0,.11.03-.05,0-.16-.03-.33,0-.48-.24-.15-.24-.26-.61.07-.91,1.11-1,2.45-2.15,3.55-3.12.43-.38.5-.69.53-1.14.03-.45-.12-.71-.38-1.05s-.72-.49-1.12-.51c-.4-.02-.78.17-1.03.36-.25.19-.17.17-.42.36-.25.19-.65.2-.91-.07-.26-.28-.14-.72.04-.9s.28-.26.39-.34c.63-.47,1.17-.73,1.95-.71.78.02,1.58.37,2.08.96.51.6.73,1.13.71,1.94-.02.81-.33,1.48-.98,2.1-.66.62-1.57,1.36-2.25,1.99.69.02,1.88,0,2.47.04.59.03.62.29.68.67Z"/>
                <path class="cls-12" d="m352.38,243.62c.54.6.89,1.28.88,2.09,0,.81-.29,1.49-.87,2.04-.58.56-1.31.82-2.13.8-.81-.01-1.53-.35-2.11-.91-.27-.26-.28-.68,0-.93.29-.26.65-.24.97.02s.71.48,1.15.48c.44,0,.83-.13,1.16-.43.32-.3.47-.67.48-1.11.01-.44-.2-.82-.48-1.13-.27-.31-.81-.49-1.11-.5-.3,0-.41-.14-.51-.21-.1-.07-.03-.02-.03-.03-.23-.34-.34-.6-.01-.96s.84-.81,1.2-1.18c-.55-.03-1.42-.03-1.91-.07s-.68-.3-.69-.69c0-.39.22-.63.67-.63,1.07,0,2.43.09,3.51.1.47,0,.65.4.7.65.04.25-.04.23-.07.34-.03.12-.06.11-.12.17-.49.5-1.01.99-1.51,1.49.3.16.61.35.84.6Z"/>
                <path class="cls-7" d="m385.44,244.84c-.29.42-.98,1.28-1.32,1.81.37.54,1.08,1.48,1.41,1.91.33.42.12.66-.05.84-.17.18-.18.15-.41.14-.22-.02-.29,0-.56-.3-.27-.31-.88-1.14-1.19-1.57-.39.48-.79,1.08-1.17,1.54-.15.18-.29.26-.49.24-.19-.02-.23.03-.41-.15-.17-.19-.43-.43-.1-.86.33-.43.99-1.31,1.36-1.84-.37-.55-1.11-1.46-1.42-1.9-.31-.44-.19-.63.1-.85s.58-.19.88.17c.31.36.85,1.12,1.2,1.54.34-.4.83-1.12,1.13-1.47.3-.35.63-.33.9-.11.27.22.41.42.12.85Z"/>
                <path class="cls-12" d="m285.4,279.01c.5,0,.88.39.87.89,0,.5-.4.87-.9.87s-.87-.38-.86-.88c0-.5.39-.89.89-.88Z"/>
                <path class="cls-12" d="m313.86,276.42c.02-.99.29-2.02.84-2.83s1.28-1.3,2.24-1.29c.97.01,1.65.52,2.19,1.33.54.81.77,1.84.76,2.83-.01.99-.28,2.02-.84,2.81-.56.8-1.27,1.29-2.23,1.29-.96,0-1.67-.53-2.21-1.33-.54-.81-.77-1.84-.76-2.83Zm4.69.03c.01-.68-.19-1.59-.53-2.08-.34-.5-.58-.74-1.11-.75-.53,0-.81.24-1.17.73s-.58,1.4-.59,2.07c-.01.68.18,1.57.52,2.07.34.49.61.76,1.14.76.53,0,.79-.25,1.14-.74.35-.49.58-1.38.6-2.06Z"/>
                <path class="cls-7" d="m348,276.21c0-.4.25-.67.74-.67,1.12,0,2.59.03,3.71.06.48.01.71.29.7.69,0,.4-.23.67-.71.67-1.13,0-2.58-.03-3.71-.06-.48-.01-.73-.29-.72-.69Zm-.02,2.2c0-.41.25-.69.73-.69,1.13,0,2.58.03,3.71.06.49.01.71.31.7.71,0,.4-.23.69-.71.69-1.13,0-2.58-.03-3.71-.06-.49-.01-.73-.31-.72-.71Z"/>
                <path class="cls-7" d="m383.2,278.08c-.5-.02-1.25,0-1.7-.02s-.68-.26-.67-.64c0-.38.24-.61.69-.63.45-.02,1.2.02,1.7,0,.04-.49,0-1.15.04-1.6.03-.45.31-.67.7-.66s.66.23.68.68c.02.45-.03,1.11-.01,1.6.5.02,1.26-.01,1.71,0,.45.02.68.25.67.64,0,.38-.24.61-.69.63-.45.02-1.21-.01-1.71.01-.03.48,0,1.15-.03,1.59-.03.45-.31.66-.71.67-.39,0-.67-.21-.69-.66-.02-.45.03-1.11,0-1.59Z"/>
                <path class="cls-7" d="m321.81,140.38c.03.3-.14.5-.51.52-.37.02-1.06-.01-1.49,0-.86,2.51-1.74,5.19-2.43,7.68-.1.35-.12.27-.26.44-.13.16-.18.12-.36.15-.17.03-.34-.09-.49-.22-.54-.49-1.69-1.72-2.07-2.06-.54-.49-.62-1.01-.43-1.28s.15-.09.32-.14c.16-.05.3.06.45.17.15.11.37.39.52.54.16.15.29.31.44.45.15.14.27.28.42.42.15.14.3.36.48.42.61-1.76,1.99-5.68,2.3-6.96.22-.94.04-.19.05-.21.09-.29.07-.14.16-.26.09-.12.22-.18.38-.18.54,0,1.48,0,1.93.01.45.02.53.22.55.52Z"/>
              </g>
              <path class="cls-3" d="m397.81,113.49c-43.17-.95-86.4-.97-129.57-.28-.87-10.43-1.83-20.85-2.59-31.28,44.57-.64,89.15.56,133.73.09-1.13,10.52-1.62,20.88-1.56,31.46Z"/>
            </g>
            <g>
              <polygon class="cls-10" points="191.53 306.46 184.46 303.09 178.16 272.42 181.58 268.65 191.53 306.46"/>
              <g>
                <polygon class="cls-2" points="191.53 306.46 200.91 300.99 192.87 275.71 181.58 268.65 191.53 306.46"/>
                <polygon class="cls-18" points="191.53 306.46 200.91 300.99 192.87 275.71 181.58 268.65 191.53 306.46"/>
              </g>
            </g>
            <path class="cls-14" d="m361.73,312.04c-.27,0-.53,0-.78-.01-3.12-.09-5.57-2.68-5.49-5.8.09-3.12,2.66-5.57,5.8-5.49,8.7.28,27.11-5.06,37.62-15.27.65-.63,1.44-1.1,2.31-1.36,17.83-5.35,24.46,5.46,24.74,5.92l-9.72,5.75s.04.08.13.21c-.11-.15-2.63-3.43-10.67-1.4-13.2,12.05-33.45,17.45-43.94,17.45Z"/>
            <g>
              <polygon class="cls-10" points="361.11 319.55 340.54 318.25 338.92 280.34 366.56 281.37 361.11 319.55"/>
              <g>
                <polygon class="cls-2" points="361.11 319.55 365.92 314.76 368.9 291.12 366.56 281.37 361.11 319.55"/>
                <polygon class="cls-18" points="361.11 319.55 365.92 314.76 368.9 291.12 366.56 281.37 361.11 319.55"/>
              </g>
            </g>
            <path class="cls-14" d="m463.84,305.19c-.71,0-1.43-.22-2.05-.69-11.74-8.92-27.6-24.76-33.69-40.04-.09-.22-.15-.46-.19-.69-2.97-17.65-5.81-54.81-5.92-56.38-.14-1.86,1.26-3.49,3.12-3.63,1.86-.14,3.49,1.26,3.63,3.12.03.38,2.89,37.9,5.79,55.41,6.07,14.86,22.53,30.11,31.36,36.82,1.49,1.13,1.78,3.26.65,4.75-.67.88-1.68,1.34-2.7,1.34Z"/>
            <path class="cls-14" d="m479.5,306.9c-2.62,0-5.59-1.19-8.82-3.53-1.52-1.1-1.86-3.21-.76-4.73,1.1-1.52,3.21-1.85,4.73-.76,2.8,2.02,4.32,2.24,4.85,2.24,1.87,0,3.39,1.52,3.39,3.39s-1.52,3.39-3.39,3.39Z"/>
            <path class="cls-10" d="m471.62,303.28c3.62-10.77,18.48-8.64,23.6-7.04,5.12,1.6,9.73,3.61,12.5,5.42,2.77,1.81,2.82,4.84-.88,6.57-4.56,2.13-15.99.24-15.99.24,5.92,2.59-.01,6.74-10.39,2.67-3.38-1.33-10.12-3.91-8.84-7.86Z"/>
            <path class="cls-14" d="m435.55,212.03c-1.34,9.15-8.92,15.89-15.08,14.99-6.16-.91-6.42-9.08-5.07-18.22,1.34-9.15,3.78-15.81,9.94-14.9,6.16.91,11.56,8.99,10.21,18.14Z"/>
            <path class="cls-12" d="m377.79,105.71c-.4,0-.8-.16-1.09-.48l-9.67-10.58-10.43,9.53c-.6.55-1.54.51-2.09-.09l-9.67-10.58-10.43,9.53c-.6.55-1.54.51-2.09-.09l-9.67-10.58-10.43,9.53c-.29.27-.68.4-1.07.39-.39-.02-.76-.19-1.03-.48l-9.67-10.58-10.43,9.53c-.6.55-1.54.51-2.09-.09-.55-.6-.51-1.54.09-2.09l11.52-10.53c.6-.55,1.54-.51,2.09.09l9.67,10.58,10.43-9.53c.29-.27.68-.4,1.07-.39.39.02.76.19,1.03.48l9.67,10.58,10.43-9.53c.6-.55,1.54-.51,2.09.09l9.67,10.58,10.43-9.53c.6-.55,1.54-.51,2.09.09l10.67,11.67c.55.6.51,1.54-.09,2.09-.28.26-.64.39-1,.39Z"/>
          </g>
          <g>
            <path class="cls-14" d="m145.96,308.44c-3.73,0-8.78-2.26-11.5-6.19-.25-.36-.16-.84.2-1.09.36-.25.84-.16,1.09.2,2.93,4.22,9.37,6.48,12.24,5.14.3-.14.55-.32.73-.53-2.56-1.18-4.9-3.5-5.53-7.03-.36-1.99-.64-4.67,1-5.04,2.25-.51,5.19,4.93,6.32,9.05.21.76.28,1.47.2,2.11.99.27,1.97.34,2.8.22.68-.1,1.64-.38,2.15-1.17-1.9-1.29-3.19-3.56-3.61-6.57-.61-4.29-.15-5.03.32-5.4.31-.24.7-.28,1.08-.12,1.68.71,3.71,6.79,4.1,10.24.04.38.04.74,0,1.09.64.26,1.35.4,2.11.41,1.36.08,2.7-.35,3.78-.99-.22-.14-.43-.29-.63-.46-1.63-1.39-2.28-3.61-2.01-6.79.21-2.46.77-3.8,1.76-4.22.35-.15,1.05-.3,1.89.38,1.69,1.35,3.27,5.64,2.71,8.71-.12.64-.39,1.24-.79,1.81,2.88.5,6.92-.31,10.41-1.17.42-.1.85.15.95.57s-.15.85-.57.95c-4.25,1.05-8.82,1.9-12.05.97-1.44,1.14-3.46,1.84-5.48,1.82-.92-.02-1.78-.18-2.57-.48-.62,1.05-1.77,1.76-3.33,1.99-1.04.15-2.27.06-3.51-.3-.35.59-.89,1.06-1.59,1.39-.75.35-1.67.52-2.69.52Zm-1.36-12.98c-.09.24-.25,1.03.13,3.2.52,2.88,2.38,4.8,4.45,5.81,0-.33-.07-.7-.18-1.11-1.23-4.48-3.57-7.57-4.4-7.91Zm8.73-1.37c0,.59.04,1.58.28,3.23.32,2.24,1.14,3.96,2.38,5.05-.37-3.15-1.76-6.79-2.66-8.28Zm9.86-1.36h0s-.59.3-.82,2.92c-.23,2.64.25,4.43,1.46,5.46.28.24.59.43.94.59.44-.49.75-1.04.85-1.61.42-2.27-.66-5.6-1.87-6.94-.32-.35-.52-.42-.56-.42Z"/>
            <g>
              <polygon class="cls-8" points="315.12 316.98 320.03 308.46 315.12 299.94 309.86 299.94 312.83 308.46 309.86 316.98 315.12 316.98"/>
              <path class="cls-8" d="m310.2,312.9c-2.45,0-4.44-1.99-4.44-4.44s1.99-4.42,4.44-4.42l-8.35-1.67-2.22,6.74,3.73,5.69,6.84-1.9Z"/>
              <path class="cls-18" d="m310.92,299.94h-9.84l-4.91,8.52,4.91,8.52h9.84l4.91-8.52-4.91-8.52Zm-4.91,12.96c-2.45,0-4.44-1.99-4.44-4.44s1.99-4.42,4.44-4.42,4.42,1.98,4.42,4.42-1.98,4.44-4.42,4.44Z"/>
            </g>
            <g>
              <polygon class="cls-8" points="515.51 308.37 510.94 300.46 515.51 292.54 520.39 292.54 517.63 300.46 520.39 308.37 515.51 308.37"/>
              <path class="cls-8" d="m520.07,304.58c2.27,0,4.13-1.85,4.13-4.13s-1.85-4.11-4.13-4.11l7.76-1.55,2.06,6.27-3.46,5.29-6.36-1.76Z"/>
              <path class="cls-18" d="m519.41,292.54h9.15l4.56,7.92-4.56,7.92h-9.15l-4.56-7.92,4.56-7.92Zm4.56,12.04c2.27,0,4.13-1.85,4.13-4.13s-1.85-4.11-4.13-4.11-4.11,1.84-4.11,4.11,1.84,4.13,4.11,4.13Z"/>
            </g>
            <g>
              <path class="cls-8" d="m441.22,309.67h7.71c2.01,0,3.65-1.64,3.65-3.65h0c0-2.01-1.64-3.65-3.65-3.65h-7.71c-2.01,0-3.65,1.64-3.65,3.65h0c0,2.01,1.64,3.65,3.65,3.65Z"/>
              <path class="cls-18" d="m428.91,302.79c1.9-4.04,6.52-5.86,10.3-4.07,3.79,1.79,5.32,6.51,3.41,10.54-1.9,4.04-6.52,5.86-10.3,4.07-3.79-1.79-5.32-6.51-3.41-10.54Z"/>
              <rect class="cls-9" x="434.6" y="297.41" width="2.34" height="17.23" transform="translate(699.41 768.66) rotate(-154.76)"/>
            </g>
          </g>
        </g>
      </g>
    </g>
  </g>
</svg>