<?xml version="1.0" encoding="UTF-8"?>
<svg id="Layer_2" data-name="Layer 2" xmlns="http://www.w3.org/2000/svg" width="1311" height="323" xmlns:xlink="http://www.w3.org/1999/xlink" viewBox="0 0 1311 323">
  <defs>
    <style>
      .cls-1 {
        stroke: #6fafcd;
      }

      .cls-1, .cls-2 {
        stroke-width: 3px;
      }

      .cls-1, .cls-2, .cls-3 {
        fill: #f9f9f9;
        stroke-linecap: round;
        stroke-linejoin: round;
      }

      .cls-2 {
        stroke: #273551;
      }

      .cls-3 {
        filter: url(#drop-shadow-1);
        stroke: #7e4d7c;
        stroke-dasharray: 0 11.13;
        stroke-width: 2.92px;
      }

      .cls-4 {
        fill: #273551;
        stroke-width: 0px;
      }
    </style>
    <filter id="drop-shadow-1" filterUnits="userSpaceOnUse">
      <feOffset dx="7.29" dy="7.29"/>
      <feGaussianBlur result="blur" stdDeviation="10.94"/>
      <feFlood flood-color="#000" flood-opacity=".15"/>
      <feComposite in2="blur" operator="in"/>
      <feComposite in="SourceGraphic"/>
    </filter>
  </defs>
  <g id="Layer_1-2" data-name="Layer 1">
    <rect class="cls-3" x="27.85" y="27.89" width="1241.04" height="252.71" rx="6.17" ry="6.17"/>
    <g>
      <line class="cls-2" x1="199.71" y1="147.66" x2="295.27" y2="147.66"/>
      <g>
        <rect class="cls-1" x="401.46" y="55.17" width="73.53" height="73.53" rx="4.96" ry="4.96"/>
        <rect class="cls-1" x="401.46" y="166.62" width="73.53" height="73.53" rx="4.96" ry="4.96"/>
        <line class="cls-1" x1="373.15" y1="147.66" x2="497.74" y2="147.66"/>
      </g>
      <g>
        <path class="cls-4" d="m250.23,99.12l-9.75,26.1c-1.57,4.1-3.68,6.15-6.35,6.15-1.8,0-3.67-.72-5.6-2.15l1.3-2.2c1.13.67,2.12,1,2.95,1,1.53,0,2.75-1.1,3.65-3.3l1.15-2.9h-.9l-8.5-22.7h4.45l6.45,18,6.65-18h4.5Z"/>
        <path class="cls-4" d="m266.08,136.7c-1.63,1.42-3.41,2.13-5.33,2.13-2.8,0-4.97-1.08-6.5-3.24-1.21-1.71-1.81-3.76-1.81-6.15,0-2.72.75-5.04,2.25-6.97,1.48-1.87,3.35-2.8,5.63-2.8,2.02,0,3.87.67,5.54,2.01l-1.08,1.63c-1.32-.87-2.63-1.31-3.94-1.31-1.77,0-3.16.73-4.17,2.19-.91,1.32-1.37,3.07-1.37,5.25s.57,3.89,1.72,5.19c1.05,1.21,2.41,1.81,4.08,1.81,1.26,0,2.57-.46,3.91-1.37l1.08,1.63Z"/>
      </g>
      <path class="cls-4" d="m345.53,144.84h-21.7v-3.5h21.7v3.5Zm0,7h-21.7v-3.5h21.7v3.5Z"/>
      <path class="cls-4" d="m540.22,144.84h-21.7v-3.5h21.7v3.5Zm0,7h-21.7v-3.5h21.7v3.5Z"/>
      <g>
        <path class="cls-4" d="m250.12,184.27l-9.75,26.1c-1.57,4.1-3.68,6.15-6.35,6.15-1.8,0-3.67-.72-5.6-2.15l1.3-2.2c1.13.67,2.12,1,2.95,1,1.53,0,2.75-1.1,3.65-3.3l1.15-2.9h-.9l-8.5-22.7h4.45l6.45,18,6.65-18h4.5Z"/>
        <path class="cls-4" d="m257.98,205.16h2.57l6.68,18.45h-2.77l-1.4-4.17h-7.55l-1.43,4.17h-2.77l6.67-18.45Zm1.28,3.26l-3,8.77h6l-3-8.77Z"/>
      </g>
    </g>
  </g>
</svg>