<?xml version="1.0" encoding="UTF-8"?>
<svg id="Layer_2" data-name="Layer 2" xmlns="http://www.w3.org/2000/svg" xmlns:xlink="http://www.w3.org/1999/xlink" viewBox="0 0 1311 323">
  <defs>
    <style>
      .cls-1, .cls-2 {
        fill: #273551;
      }

      .cls-3, .cls-4 {
        stroke: #6fafcd;
      }

      .cls-3, .cls-4, .cls-5 {
        fill: #f9f9f9;
        stroke-linecap: round;
        stroke-linejoin: round;
      }

      .cls-3, .cls-5 {
        stroke-width: 3px;
      }

      .cls-2 {
        font-family: Tajawal-Medium, Tajawal;
        font-size: 50px;
      }

      .cls-4 {
        filter: url(#drop-shadow-1);
        stroke-width: 2.92px;
      }

      .cls-5 {
        stroke: #273551;
      }
    </style>
    <filter id="drop-shadow-1" filterUnits="userSpaceOnUse">
      <feOffset dx="7.29" dy="7.29"/>
      <feGaussianBlur result="blur" stdDeviation="10.94"/>
      <feFlood flood-color="#000" flood-opacity=".15"/>
      <feComposite in2="blur" operator="in"/>
      <feComposite in="SourceGraphic"/>
    </filter>
  </defs>
  <g id="Layer_1-2" data-name="Layer 1">
    <g>
      <rect class="cls-4" x="27.8" y="27.7" width="1241.04" height="252.71" rx="6.17" ry="6.17"/>
      <line class="cls-5" x1="199.65" y1="147.48" x2="295.21" y2="147.48"/>
      <g>
        <rect class="cls-3" x="401.41" y="54.99" width="73.53" height="73.53" rx="4.96" ry="4.96"/>
        <rect class="cls-3" x="401.41" y="166.43" width="73.53" height="73.53" rx="4.96" ry="4.96"/>
        <line class="cls-3" x1="373.09" y1="147.48" x2="497.69" y2="147.48"/>
      </g>
      <g>
        <text class="cls-2" transform="translate(227.38 121.64)"><tspan x="0" y="0">y</tspan></text>
        <text class="cls-2" transform="translate(250.93 138.29) scale(.58)"><tspan x="0" y="0">C</tspan></text>
      </g>
      <path class="cls-1" d="M345.48,144.66h-21.7v-3.5h21.7v3.5Zm0,7h-21.7v-3.5h21.7v3.5Z"/>
      <path class="cls-1" d="M540.16,144.66h-21.7v-3.5h21.7v3.5Zm0,7h-21.7v-3.5h21.7v3.5Z"/>
      <g>
        <text class="cls-2" transform="translate(227.26 206.78)"><tspan x="0" y="0">y</tspan></text>
        <text class="cls-2" transform="translate(250.81 223.43) scale(.58)"><tspan x="0" y="0">A</tspan></text>
      </g>
    </g>
  </g>
</svg>