<?xml version="1.0" encoding="UTF-8"?>
<svg id="Layer_2" data-name="Layer 2" xmlns="http://www.w3.org/2000/svg" width="1311" height="207" xmlns:xlink="http://www.w3.org/1999/xlink" viewBox="0 0 1311 207">
  <defs>
    <style>
      .cls-1 {
        stroke: #6fafcd;
        stroke-width: 3px;
      }

      .cls-1, .cls-2 {
        fill: #f9f9f9;
        stroke-linecap: round;
        stroke-linejoin: round;
      }

      .cls-2 {
        filter: url(#drop-shadow-1);
        stroke: #7e4d7c;
        stroke-dasharray: 0 11.13;
        stroke-width: 2.92px;
      }

      .cls-3 {
        fill: #273551;
        stroke-width: 0px;
      }
    </style>
    <filter id="drop-shadow-1" filterUnits="userSpaceOnUse">
      <feOffset dx="7.29" dy="7.29"/>
      <feGaussianBlur result="blur" stdDeviation="10.94"/>
      <feFlood flood-color="#000" flood-opacity=".15"/>
      <feComposite in2="blur" operator="in"/>
      <feComposite in="SourceGraphic"/>
    </filter>
  </defs>
  <g id="Layer_1-2" data-name="Layer 1">
    <rect class="cls-2" x="27.7" y="27.28" width="1241.04" height="136.84" rx="4.54" ry="4.54"/>
    <g>
      <g>
        <rect class="cls-1" x="170.17" y="64.73" width="60.49" height="60.49" rx="4.08" ry="4.08"/>
        <rect class="cls-1" x="253.67" y="64.73" width="60.49" height="60.49" rx="4.08" ry="4.08"/>
      </g>
      <path class="cls-3" d="m110.02,82.31c2.5-.43,5.15-.65,7.95-.65,5.5,0,9.72,1.65,12.65,4.95,2.5,2.8,3.75,6.52,3.75,11.15,0,5.63-1.57,9.92-4.7,12.85-2.77,2.6-6.57,3.9-11.4,3.9-3,0-5.75-.22-8.25-.65v-31.55Zm4.65,28.15c1.07.23,2.27.35,3.6.35,3.77,0,6.62-1.2,8.55-3.6,1.77-2.2,2.65-5.28,2.65-9.25,0-4.27-1.23-7.53-3.7-9.8-2-1.87-4.55-2.8-7.65-2.8-1.37,0-2.52.12-3.45.35v24.75Z"/>
      <path class="cls-3" d="m154.12,77.65h3.85c-4.47,6.07-6.7,12.55-6.7,19.45,0,3.47.63,7.07,1.9,10.8,1.27,3.73,2.87,6.73,4.8,9h-3.85c-1.97-1.87-3.65-4.73-5.05-8.6-1.4-3.87-2.1-7.6-2.1-11.2s.67-7.03,2.03-10.7c1.35-3.67,3.06-6.58,5.12-8.75Z"/>
      <path class="cls-3" d="m328.34,77.65h3.85c2.07,2.17,3.77,5.08,5.12,8.75,1.35,3.67,2.02,7.23,2.02,10.7,0,4.87-1.08,9.52-3.25,13.95-1.3,2.7-2.6,4.65-3.9,5.85h-3.85c1.93-2.27,3.53-5.27,4.8-9,1.27-3.73,1.9-7.33,1.9-10.8,0-6.9-2.23-13.38-6.7-19.45Z"/>
      <path class="cls-3" d="m241.15,115.05l-1-1.95c1.3-.83,1.95-1.77,1.95-2.8v-.2c-.13.07-.28.1-.45.1-.57,0-1.06-.24-1.48-.72-.42-.48-.62-1.06-.62-1.73,0-.77.25-1.41.75-1.92.5-.52,1.12-.77,1.85-.77,2,0,3,1.4,3,4.2,0,1.3-.37,2.48-1.1,3.55-.73,1.07-1.7,1.82-2.9,2.25Z"/>
    </g>
  </g>
</svg>