<?xml version="1.0" encoding="UTF-8"?>
<svg id="Layer_2" data-name="Layer 2" xmlns="http://www.w3.org/2000/svg" width="679" height="628" xmlns:xlink="http://www.w3.org/1999/xlink" viewBox="0 0 679 628">
  <defs>
    <style>
      .cls-1 {
        fill: url(#linear-gradient);
      }

      .cls-1, .cls-2, .cls-3, .cls-4, .cls-5, .cls-6, .cls-7, .cls-8, .cls-9, .cls-10 {
        stroke-width: 0px;
      }

      .cls-2 {
        fill: #375a64;
      }

      .cls-3 {
        fill: #e5e5e5;
      }

      .cls-4 {
        filter: url(#drop-shadow-1);
      }

      .cls-4, .cls-7 {
        fill: #fff;
      }

      .cls-5 {
        fill: #2b454e;
      }

      .cls-11 {
        fill: none;
        stroke: #fff;
        stroke-linecap: round;
        stroke-miterlimit: 10;
      }

      .cls-6 {
        fill: #ffc800;
      }

      .cls-8 {
        fill: url(#linear-gradient-2);
      }

      .cls-9 {
        fill: #6c90be;
      }

      .cls-10 {
        fill: #273551;
      }
    </style>
    <filter id="drop-shadow-1" filterUnits="userSpaceOnUse">
      <feOffset dx="7.29" dy="7.29"/>
      <feGaussianBlur result="blur" stdDeviation="10.94"/>
      <feFlood flood-color="#000" flood-opacity=".15"/>
      <feComposite in2="blur" operator="in"/>
      <feComposite in="SourceGraphic"/>
    </filter>
    <linearGradient id="linear-gradient" x1="284.01" y1="232.97" x2="418.99" y2="157.2" gradientUnits="userSpaceOnUse">
      <stop offset="0" stop-color="#668ab2"/>
      <stop offset="1" stop-color="#a5d6cd"/>
    </linearGradient>
    <linearGradient id="linear-gradient-2" x1="211.54" y1="282.38" x2="424.81" y2="117.52" gradientUnits="userSpaceOnUse">
      <stop offset="0" stop-color="#6c90be"/>
      <stop offset="1" stop-color="#b0e5db"/>
    </linearGradient>
  </defs>
  <g id="Layer_1-2" data-name="Layer 1">
    <g>
      <path class="cls-4" d="m604.88,26.32H58.77c-18.23,0-33,14.77-33,33v391.85c0,18.23,14.77,33,33,33h240.84l11.46,103.27,61.6-103.27h232.2c18.23,0,33-14.77,33-33V59.32c0-18.23-14.77-33-33-33Z"/>
      <g>
        <rect class="cls-10" x="71.93" y="48.62" width="7.73" height="52.92" rx="3.86" ry="3.86" transform="translate(75.29 -31.61) rotate(45)"/>
        <rect class="cls-10" x="71.93" y="48.62" width="7.73" height="52.92" rx="3.86" ry="3.86" transform="translate(182.48 74.57) rotate(135)"/>
      </g>
      <g>
        <g>
          <path class="cls-10" d="m222.13,407.9h3.3v4.05h-3.8c-3.43,0-5.9-1.27-7.4-3.8-1.6,1.53-3.58,2.3-5.95,2.3-2.93,0-5.27-1.1-7-3.3-1.43-1.87-2.15-4.15-2.15-6.85,0-3.23.98-5.83,2.95-7.8,1.67-1.7,3.7-2.55,6.1-2.55,1.83,0,3.42.47,4.75,1.4v-2.15l4.35-2.3v16c0,3.33,1.62,5,4.85,5Zm-9.2-11.9c-1.23-1.37-2.75-2.05-4.55-2.05-1.47,0-2.67.59-3.6,1.78-.93,1.18-1.4,2.72-1.4,4.62s.47,3.48,1.4,4.65c.93,1.17,2.15,1.75,3.65,1.75,1.87,0,3.4-.77,4.6-2.3-.07-.6-.1-1.07-.1-1.4v-7.05Zm-6.45-12.3c-1.63,0-2.45-.83-2.45-2.5s.82-2.45,2.45-2.45,2.4.82,2.4,2.45-.8,2.5-2.4,2.5Zm6.35,0c-1.63,0-2.45-.83-2.45-2.5s.82-2.45,2.45-2.45,2.4.82,2.4,2.45-.8,2.5-2.4,2.5Z"/>
          <path class="cls-10" d="m255.03,407.9h3.25v4.05h-3.3c-2.7,0-4.87-.31-6.5-.92-1.63-.62-3.15-1.71-4.55-3.28-4.2,2.8-9.1,4.2-14.7,4.2h-6.8v-4.05h6.85c6.77,0,12.12-2.23,16.05-6.7-2.77-5.1-6.13-7.65-10.1-7.65-2.7,0-5.48,1.43-8.35,4.3v-4c2.8-2.83,5.77-4.25,8.9-4.25,2.57,0,5.05.92,7.45,2.77,2.4,1.85,4.52,4.49,6.35,7.92v2.2c-1.03,1.3-2.02,2.35-2.95,3.15,1.8,1.5,4.6,2.25,8.4,2.25Z"/>
          <path class="cls-10" d="m272.68,407.9h3.3v4.05h-3.8c-2.77,0-4.95-.88-6.55-2.65-1.6,1.77-3.78,2.65-6.55,2.65h-3.8v-4.05h3.3c3.27,0,4.9-1.67,4.9-5v-10.35l4.3-2.3v12.65c0,3.33,1.63,5,4.9,5Zm-11.95,9.05c1.6,0,2.4.83,2.4,2.5s-.8,2.45-2.4,2.45-2.45-.82-2.45-2.45.82-2.5,2.45-2.5Zm6.35,0c1.6,0,2.4.83,2.4,2.5s-.8,2.45-2.4,2.45-2.45-.82-2.45-2.45.82-2.5,2.45-2.5Z"/>
          <path class="cls-10" d="m305.58,407.9h3.25v4.05h-3.3c-2.7,0-4.87-.31-6.5-.92-1.63-.62-3.15-1.71-4.55-3.28-4.2,2.8-9.1,4.2-14.7,4.2h-6.8v-4.05h6.85c6.77,0,12.12-2.23,16.05-6.7-2.77-5.1-6.13-7.65-10.1-7.65-2.7,0-5.48,1.43-8.35,4.3v-4c2.8-2.83,5.77-4.25,8.9-4.25,2.57,0,5.05.92,7.45,2.77,2.4,1.85,4.52,4.49,6.35,7.92v2.2c-1.03,1.3-2.02,2.35-2.95,3.15,1.8,1.5,4.6,2.25,8.4,2.25Z"/>
          <path class="cls-10" d="m321.58,407.75c1.33-5.03,3.53-9.23,6.6-12.6,3.43-3.7,7.43-5.55,12-5.55,3.8,0,6.83,1.32,9.1,3.95,1.9,2.23,2.85,4.98,2.85,8.25v1.3c0,2.9-.88,5.15-2.65,6.75-1.53,1.4-3.55,2.1-6.05,2.1h-20.7c-2.77,0-4.95-.88-6.55-2.65-1.6,1.77-3.78,2.65-6.55,2.65h-3.8v-4.05h3.3c3.27,0,4.9-1.67,4.9-5v-7l4.3-2.3v9.3c0,2.8,1.08,4.42,3.25,4.85Zm26.25-5.05v-.9c0-2.6-.8-4.67-2.4-6.2-1.4-1.33-3.13-2-5.2-2-3.53,0-6.72,1.63-9.55,4.9-2.17,2.5-3.83,5.63-5,9.4h17.5c3.1,0,4.65-1.73,4.65-5.2Z"/>
          <path class="cls-10" d="m391.78,407.9h3.3v4.05h-3.8c-3.43,0-5.9-1.27-7.4-3.8-1.6,1.53-3.58,2.3-5.95,2.3-2.93,0-5.27-1.1-7-3.3-1.43-1.87-2.15-4.15-2.15-6.85,0-3.23.98-5.83,2.95-7.8,1.67-1.7,3.7-2.55,6.1-2.55,1.83,0,3.42.47,4.75,1.4v-2.15l4.35-2.3v16c0,3.33,1.62,5,4.85,5Zm-9.2-11.9c-1.23-1.37-2.75-2.05-4.55-2.05-1.47,0-2.67.59-3.6,1.78-.93,1.18-1.4,2.72-1.4,4.62s.47,3.48,1.4,4.65c.93,1.17,2.15,1.75,3.65,1.75,1.87,0,3.4-.77,4.6-2.3-.07-.6-.1-1.07-.1-1.4v-7.05Zm-6.45-12.3c-1.63,0-2.45-.83-2.45-2.5s.82-2.45,2.45-2.45,2.4.82,2.4,2.45-.8,2.5-2.4,2.5Zm6.35,0c-1.63,0-2.45-.83-2.45-2.5s.82-2.45,2.45-2.45,2.4.82,2.4,2.45-.8,2.5-2.4,2.5Z"/>
          <path class="cls-10" d="m392.08,411.95v-4.05h3.3c3.27,0,4.9-1.67,4.9-5v-10.35l4.3-2.3v12.8c0,2.83-.85,5.07-2.55,6.7-1.57,1.47-3.62,2.2-6.15,2.2h-3.8Zm8.05,9.95c-1.63,0-2.45-.83-2.45-2.5s.82-2.45,2.45-2.45,2.4.82,2.4,2.45-.8,2.5-2.4,2.5Z"/>
          <path class="cls-10" d="m422.28,411.95c-2.9,0-5.13-.93-6.7-2.8-1.33-1.6-2-3.63-2-6.1v-21.05l4.3-2.3v23.2c0,3.33,1.63,5,4.9,5h3.3v4.05h-3.8Z"/>
          <path class="cls-10" d="m423.08,411.95v-4.05h6.85c6.77,0,12.12-2.23,16.05-6.7-2.77-5.1-6.13-7.65-10.1-7.65-2.7,0-5.48,1.43-8.35,4.3v-4c2.8-2.83,5.77-4.25,8.9-4.25,2.57,0,5.05.92,7.45,2.77,2.4,1.85,4.52,4.49,6.35,7.92v2.2c-4.9,6.3-11.68,9.45-20.35,9.45h-6.8Zm14.65,9.95c-1.63,0-2.45-.83-2.45-2.5s.82-2.45,2.45-2.45,2.4.82,2.4,2.45-.8,2.5-2.4,2.5Z"/>
          <path class="cls-10" d="m454.58,424.4l1.15-2.15h1.35c-.33-.6-.5-1.23-.5-1.9,0-.97.37-1.81,1.1-2.53.73-.72,1.6-1.08,2.6-1.08.83,0,1.63.27,2.4.8v2.2c-.73-.57-1.43-.85-2.1-.85-1.23,0-1.85.55-1.85,1.65,0,.57.23,1.13.7,1.7h4.55l-1.15,2.15h-8.25Zm2.65-12.45v-29.95l4.3-2.3v32.25h-4.3Z"/>
        </g>
        <g>
          <ellipse id="_Path_" data-name="&amp;lt;Path&amp;gt;" class="cls-3" cx="331.83" cy="317.25" rx="218.93" ry="12.79"/>
          <g>
            <path class="cls-1" d="m420.21,320.24c-51.58-.08-103.16,0-154.74,0,0-80.19.13-160.38,0-240.58h154.74c.13,80.19,0,160.38,0,240.58Z"/>
            <path class="cls-6" d="m395.55,320.24c-51.58-.08-103.16,0-154.74,0V79.66h154.74c.13,80.19.13,160.38,0,240.58Z"/>
            <path class="cls-8" d="m395.55,320.24c-51.58-.08-103.16,0-154.74,0V79.66h154.74c.13,80.19.13,160.38,0,240.58Z"/>
            <g>
              <path class="cls-7" d="m282.48,170.79c-9.92,0-19.84,0-29.75,0v-29.75c9.92,0,19.84,0,29.75,0,0,9.92,0,19.84,0,29.75Z"/>
              <path class="cls-7" d="m316.2,170.79c-9.92,0-19.84,0-29.75,0v-29.75c9.92,0,19.84,0,29.75,0,0,9.92,0,19.84,0,29.75Z"/>
              <path class="cls-9" d="m349.91,170.79c-9.92,0-19.84,0-29.76,0,0-9.92,0-19.84,0-29.75,9.92,0,19.84,0,29.76,0,0,9.92,0,19.84,0,29.75Z"/>
              <path class="cls-9" d="m383.63,170.79c-9.92,0-19.84,0-29.75,0v-29.75c9.92,0,19.84,0,29.75,0v29.75Z"/>
              <path class="cls-5" d="m282.48,204.92c-9.92,0-19.84,0-29.75,0v-29.75c9.92,0,19.84,0,29.75,0,0,9.92,0,19.84,0,29.75Z"/>
              <path class="cls-5" d="m316.2,204.92c-9.92,0-19.84,0-29.75,0v-29.75c9.92,0,19.84,0,29.75,0,0,9.92,0,19.84,0,29.75Z"/>
              <path class="cls-5" d="m349.91,204.92c-9.92,0-19.84,0-29.76,0,0-9.92,0-19.84,0-29.75,9.92,0,19.84,0,29.76,0,0,9.92,0,19.84,0,29.75Z"/>
              <path class="cls-7" d="m383.63,205.14c-9.92,0-19.84,0-29.75,0v-29.76c9.92,0,19.84,0,29.75,0v29.76Z"/>
              <path class="cls-5" d="m282.48,239.05c-9.92,0-19.84,0-29.75,0v-29.75c9.92,0,19.84,0,29.75,0,0,9.92,0,19.84,0,29.75Z"/>
              <path class="cls-5" d="m316.2,239.05c-9.92,0-19.84,0-29.75,0v-29.75c9.92,0,19.84,0,29.75,0,0,9.92,0,19.84,0,29.75Z"/>
              <path class="cls-5" d="m349.91,239.05c-9.92,0-19.84,0-29.76,0,0-9.92,0-19.84,0-29.75,9.92,0,19.84,0,29.76,0,0,9.92,0,19.84,0,29.75Z"/>
              <path class="cls-7" d="m383.63,239.05c-9.92,0-19.84,0-29.75,0v-29.75c9.92,0,19.84,0,29.75,0v29.75Z"/>
              <path class="cls-5" d="m282.48,273.18c-9.92,0-19.84,0-29.75,0v-29.75c9.92,0,19.84,0,29.75,0,0,9.92,0,19.84,0,29.75Z"/>
              <path class="cls-5" d="m316.2,273.18c-9.92,0-19.84,0-29.75,0v-29.75c9.92,0,19.84,0,29.75,0,0,9.92,0,19.84,0,29.75Z"/>
              <path class="cls-5" d="m349.91,273.18c-9.92,0-19.84,0-29.76,0,0-9.92,0-19.84,0-29.75,9.92,0,19.84,0,29.76,0,0,9.92,0,19.84,0,29.75Z"/>
              <path class="cls-7" d="m383.63,273.18c-9.92,0-19.84,0-29.75,0v-29.75c9.92,0,19.84,0,29.75,0v29.75Z"/>
              <path class="cls-5" d="m282.48,307.31c-9.92,0-19.84,0-29.75,0v-29.75c9.92,0,19.84,0,29.75,0,0,9.92,0,19.84,0,29.75Z"/>
              <path class="cls-5" d="m316.2,307.31c-9.92,0-19.84,0-29.75,0v-29.75c9.92,0,19.84,0,29.75,0,0,9.92,0,19.84,0,29.75Z"/>
              <path class="cls-7" d="m349.91,307.31c-9.92,0-19.84,0-29.76,0,0-9.92,0-19.84,0-29.75,9.92,0,19.84,0,29.76,0,0,9.92,0,19.84,0,29.75Z"/>
              <path class="cls-7" d="m383.63,307.31c-9.92,0-19.84,0-29.75,0v-29.75c9.92,0,19.84,0,29.75,0v29.75Z"/>
              <path class="cls-5" d="m263.2,153.16c-.04-.8-.04.51,0-.3.04-.81.78-2.09,2.04-2.09,1.25,0,1.97,1.26,2.01,2.06.04.8.04-.51,0,.3-.04.81-.79,2.09-2.04,2.09-1.25,0-1.97-1.26-2.02-2.06Zm2.96-.07c.02-.39.02.23,0-.16-.02-.39-.29-1.19-.95-1.19-.66,0-.91.78-.92,1.17-.01.39-.02-.24,0,.16.02.39.28,1.19.95,1.19s.91-.78.92-1.17Zm-1.55,5.72c1.89-2.59,3.87-5.13,5.68-7.76.13-.19.2-.2.43-.23.23-.03.48.26.48.46,0,.19-.03.23-.11.34-1.88,2.59-3.82,5.17-5.68,7.76-.14.19-.21.2-.45.23s-.47-.27-.47-.46c0-.19.03-.23.11-.34Zm3.83-1.22c-.04-.8-.04.51,0-.3s.79-2.09,2.04-2.09c1.25,0,1.97,1.26,2.01,2.06.04.8.04-.51,0,.3-.04.8-.79,2.09-2.04,2.09-1.25,0-1.97-1.26-2.01-2.06Zm2.96-.07c.02-.39.02.23,0-.16-.02-.39-.29-1.19-.95-1.19-.66,0-.91.78-.92,1.17-.01.39-.02-.24,0,.16.02.39.29,1.19.95,1.19s.91-.78.92-1.17Z"/>
              <g>
                <path class="cls-7" d="m327.57,155.09c0-2.61,2-4.22,4.46-4.43,1.08-.09,2.02.37,2.86.94.33.23.35.67.12.98-.23.3-.65.35-.98.14-.63-.42-1.21-.69-2.01-.67-.8.02-1.62.3-2.21.89s-.9,1.31-.9,2.14c0,.83.31,1.56.9,2.15.59.58,1.4.87,2.21.89.8.02,1.37-.26,2.01-.67.32-.2.74-.16.97.14.23.3.2.75-.12.97-.85.58-1.77,1.03-2.86.94-2.47-.19-4.46-1.82-4.46-4.43Z"/>
                <path class="cls-7" d="m337.43,158.85c-.01-2.36-.01-4.9,0-7.27,0-.5.29-.6.67-.7.01,0,0,0,.01,0,.01,0,0,0,.03,0,1.29.01,2.72-.02,3.99,0,.45,0,.68.29.68.67s-.23.67-.68.69c-1.05.03-2.25,0-3.34,0,0,.75,0,1.51,0,2.26.92,0,1.98-.02,2.86,0,.45.01.68.29.68.68s-.22.67-.68.69c-.88.03-1.94,0-2.86,0,0,.76,0,1.52,0,2.28,1.08.01,2.29-.02,3.34,0,.45.01.68.31.68.69s-.23.66-.68.67c-1.26.03-2.69,0-3.99,0-.03,0-.02,0-.03-.01-.01,0,0,.01-.02.01-.4.02-.67-.22-.67-.7Z"/>
              </g>
              <path class="cls-7" d="m364.96,155.09c0-2.61,2-4.22,4.46-4.43,1.08-.09,2.01.37,2.86.94.33.23.35.67.12.98-.23.3-.65.35-.97.14-.63-.42-1.21-.69-2.01-.67-.8.02-1.62.3-2.2.89-.59.59-.9,1.31-.9,2.14,0,.83.31,1.56.9,2.15.59.58,1.4.87,2.21.89.8.02,1.37-.26,2.01-.67.32-.2.74-.16.97.14.23.3.21.75-.12.97-.85.58-1.77,1.03-2.86.95-2.47-.2-4.46-1.82-4.46-4.43Z"/>
              <path class="cls-7" d="m270.32,186.63c-.97,2.44-2.09,4.91-3.09,7.3-.14.33-.38.41-.62.41s-.08.07-.31-.07c-.23-.13-.52-.45-.34-.88.87-2.06,1.78-4.25,2.67-6.33-1.02-.01-2.19.02-3.17-.01-.46-.01-.68-.3-.68-.69,0-.38.21-.67.68-.67,1.34-.02,2.85,0,4.23,0,.05,0,.07,0,.13.01s.2.07.25.1c.04.02.02.02.05.04s.04.03.05.05.03.03.05.05.02.03.04.05c.02.02.02.04.03.06s.04.04.05.06c0,.02,0,.03.01.06s.02.02.02.07c0,.05.01.2,0,.26-.01.06-.02.08-.04.13Z"/>
              <path class="cls-7" d="m303.99,191.41c-.09,1.65-1.23,2.9-2.92,2.9-1.69,0-2.85-1.24-2.94-2.9-.06-1.05.53-1.83,1.29-2.47-.22-.38-.43-.76-.39-1.23.1-1.14.86-2,2.04-1.99,1.19,0,1.92.87,2.02,2,.04.46-.17.85-.39,1.23.75.64,1.35,1.42,1.29,2.47Zm-1.35,0c0-.89-.68-1.58-1.57-1.58-.89,0-1.59.69-1.59,1.58,0,.9.7,1.57,1.59,1.57s1.57-.68,1.57-1.57Zm-2.27-3.69c0,.39.3.69.69.69.39,0,.67-.32.67-.69,0-.38-.29-.67-.67-.67-.38,0-.69.28-.69.67Z"/>
              <path class="cls-7" d="m331.93,188.69c0-1.73,1.29-2.93,2.95-2.96,1.67-.03,2.65,1.11,2.99,2.64,0,.01,0-.06.01.06,0,.12.03.44.02.68-.04.84-.11,1.69-.44,2.53-.34.84-.81,1.57-1.6,2.11-.52.36-1.19.55-1.85.58-.36.01-.7-.26-.7-.65,0-.39.27-.66.66-.71s.82-.13,1.15-.35c.33-.22.6-.55.77-.86.05-.08.23-.32.14-.3-.3.05-.75.25-1.17.21-1.65-.16-2.96-1.26-2.95-2.98Zm1.35,0c0,.91.7,1.61,1.61,1.61.91,0,1.6-.7,1.6-1.61,0-.91-.68-1.6-1.6-1.6-.91,0-1.61.68-1.61,1.6Z"/>
              <path class="cls-5" d="m366.12,190.27c0-.41.24-.73.73-.73,1.18-.02,2.64-.02,3.82,0,.49,0,.73.33.73.73,0,.41-.25.72-.73.72-1.18.02-2.64.02-3.82,0-.48,0-.73-.32-.73-.72Z"/>
              <path class="cls-7" d="m270.91,225.97c0,.41-.3.63-.68.68-.03,0-.11-.04-.12,0-.03.31.01.59-.01.94s-.28.66-.68.66c-.4,0-.65-.31-.68-.66-.03-.36.04-.62-.03-.95-.89,0-3.1,0-3.69,0-.59,0,.04,0-.15,0s.1.03-.05,0c-.15-.04-.23.05-.43-.17s-.38-.55-.08-.94c1.41-1.91,2.53-4.3,4.58-5.68.01,0,.01-.02.03-.03.01-.01.02-.04.04-.05s.04-.02.06-.04.03-.02.05-.04c.02-.02.05-.01.07-.03.02-.01.03-.03.05-.04.03,0,.05-.02.08-.02s.03,0,.05-.01.06,0,.09,0c.01,0,.01,0,.03,0,.01,0,0,0,.03,0,.02,0,.05,0,.07,0s.04,0,.06.01c.02,0,.05.02.07.02.02,0,.03,0,.05.02.02,0,.04.03.06.05.02.01.04.03.06.04.01,0,0,0,.01.01,0,0,.03,0,.04.03,0,.02.03.03.05.05.01.02.02.03.04.05.01.02.04.04.05.06,0,.02.01.03.03.05.01.02.02.05.02.07,0,.02,0,.03.01.05,0,.02.01.05.01.07s.01.04.01.06v.04c0,1.67,0,3.34,0,5,.03,0,.09,0,.12,0,.38.05.68.27.68.68Zm-2.17-3.74c-.82,1.02-1.64,2.04-2.47,3.06.82,0,1.64,0,2.47,0v-3.06Z"/>
              <path class="cls-7" d="m302.94,223.03c.59.61.9,1.33.9,2.17s-.31,1.55-.9,2.16c-.59.61-1.29.85-2.18.91-.03,0,.25.02-.12,0-.37-.02-1.63-.32-2.05-.9-.19-.27-.32-.7,0-.98.32-.28.66-.28.99,0,.34.28.72.5,1.18.48.46-.01.85-.17,1.17-.5.32-.33.49-.71.49-1.17,0-.46-.17-.86-.49-1.18-.33-.33-.71-.47-1.17-.48-.46,0-.85.19-1.19.47s-.67.25-.99,0c-.06-.05-.1-.12-.13-.16-.03-.03,0-.03-.02-.04-.02-.02-.01-.04-.03-.06s0-.06-.02-.08c0-.03,0,.01-.01-.03,0-.05,0-.13,0-.21.14-1.03.25-2.18.37-3.18.03-.27.19-.4.29-.49.1-.09.02,0,.07-.04.05-.04-.03,0,.05-.03.08-.04.17-.07.32-.07,1.15,0,2.5-.02,3.62,0,.49.01.71.3.71.7,0,.4-.23.67-.71.69-.92.03-2.05,0-3.02,0-.06.41-.1.82-.15,1.22.28-.06.54-.12.83-.11.83.05,1.57.3,2.16.91Z"/>
              <path class="cls-7" d="m337.84,225.27c0,1.73-1.29,2.93-2.95,2.96-1.66.03-2.65-1.11-2.99-2.64,0-.01,0,.06-.01-.06s-.04-.44-.02-.68c.04-.85.11-1.69.44-2.53s.81-1.57,1.6-2.11c.52-.36,1.18-.55,1.85-.58.36-.01.7.26.7.65,0,.39-.27.66-.66.71-.39.05-.82.13-1.15.35-.33.22-.6.55-.77.86-.05.08-.23.32-.14.3.3-.05.75-.25,1.17-.21,1.65.16,2.95,1.26,2.95,2.98Zm-1.35,0c0-.91-.7-1.61-1.61-1.61-.91,0-1.6.7-1.6,1.61,0,.91.69,1.6,1.6,1.6.91,0,1.61-.68,1.61-1.6Z"/>
              <path class="cls-5" d="m366.38,224.55c-.45,0-.64-.28-.64-.64s.2-.63.64-.64c1.56-.01,3.4-.01,4.96,0,.45,0,.65.28.65.64,0,.36-.2.63-.65.64-1.56.01-3.4.01-4.96,0Zm3.33-3.25s0,.05,0,.06c-.06.47-.36.82-.85.82-.5,0-.8-.34-.85-.82,0-.02,0-.05,0-.06.06-.47.36-.8.85-.8s.79.34.85.8Zm0,5.17s0,.05,0,.06c-.06.47-.36.8-.85.8-.49,0-.8-.33-.85-.8,0-.02,0-.05,0-.06.06-.47.36-.82.85-.82.5,0,.79.34.85.82Z"/>
              <path class="cls-7" d="m268.91,254.41c0,2.4.02,4.93,0,7.28,0,.5-.3.68-.69.68-.38,0-.67-.19-.67-.68-.02-1.95,0-4.08,0-6.06-.16.07-.34.21-.49.27-.15.07-.17.12-.37.1-.2-.03-.45-.07-.57-.36-.12-.29-.17-.68.25-.92s1.07-.58,1.5-.89c.02-.01.03-.02.05-.03s.04-.03.06-.04c.02-.01.05,0,.07-.01s.03,0,.05-.01c.02,0,.06-.01.08-.01.02,0,.02,0,.04,0,.01,0,0,0,.02,0,.02,0,.06,0,.08,0s.03.01.05.01c.02,0,.05.02.07.02s.03,0,.05.01.05.03.07.04c.02,0,.03.03.05.04s.03.02.05.04c.02.01.03.03.05.05s.03.03.04.05.04.04.05.05c0,.02,0,.01.01.03,0,.01,0,.02.01.04s.02.04.02.06c0,.02.02.04.02.06,0,.02.01.04.01.06,0,.03.01.07.02.08s0,.02,0,.04Z"/>
              <path class="cls-7" d="m304.05,261.72c.07.39-.31.67-.68.67-1.05.02-3.5,0-4.19,0-.69,0,.08,0-.17,0-.19,0,.11.03-.05,0s-.34,0-.5-.24c-.16-.25-.28-.63.06-.95,1.14-1.05,2.5-2.27,3.63-3.29.44-.4.51-.72.53-1.19.03-.47-.13-.74-.41-1.09-.27-.35-.75-.5-1.17-.52-.41-.02-.81.19-1.06.39-.26.2-.17.18-.43.38-.26.2-.67.22-.94-.06-.28-.28-.16-.75.03-.94s.28-.28.39-.36c.64-.5,1.2-.77,2.01-.77.81,0,1.64.35,2.18.97.53.61.78,1.17.77,2.01s-.31,1.55-.98,2.2c-.67.65-1.61,1.43-2.3,2.1.72.01,1.95-.01,2.56,0,.61.02.65.3.72.69Z"/>
              <path class="cls-7" d="m336.76,257.14c.56.62.9,1.32.89,2.16,0,.84-.31,1.58-.9,2.17-.59.59-1.33.89-2.17.9-.84,0-1.55-.33-2.16-.9-.28-.26-.28-.7,0-.97s.66-.27.98,0c.32.27.72.48,1.17.47.45-.01.85-.16,1.18-.48s.48-.73.5-1.18c.01-.46-.2-.85-.49-1.17s-.83-.49-1.14-.49c-.31,0-.42-.14-.52-.21s-.03-.02-.03-.03c-.24-.36-.34-.62,0-1.01.33-.39.87-.88,1.23-1.27-.57-.01-1.45.02-1.96,0-.51-.02-.7-.3-.71-.7,0-.4.23-.67.69-.69,1.11-.03,2.5.02,3.61-.01.48-.01.67.4.72.66.04.26-.04.24-.08.36-.04.12-.06.12-.13.18-.51.54-1.04,1.07-1.56,1.61.31.16.63.34.86.61Z"/>
              <path class="cls-5" d="m370.81,257.34c-.31.46-1.06,1.41-1.42,1.98.38.57,1.09,1.54,1.42,1.99.34.45.1.71-.08.91-.18.19-.19.17-.42.15-.23-.01-.29.02-.57-.3s-.89-1.2-1.2-1.64c-.41.52-.84,1.17-1.24,1.67-.16.2-.31.29-.51.27-.2-.02-.24.04-.42-.15s-.44-.45-.09-.91c.35-.46,1.04-1.42,1.44-1.99-.37-.58-1.12-1.52-1.43-1.98-.32-.46-.18-.67.11-.9s.59-.23.91.15c.31.38.86,1.17,1.22,1.61.36-.44.9-1.23,1.22-1.61.32-.38.66-.38.94-.15.28.24.41.45.1.9Z"/>
              <path class="cls-7" d="m268.11,294.78c.52,0,.91.4.91.91,0,.52-.4.9-.91.9s-.9-.39-.9-.9c0-.51.38-.91.9-.91Z"/>
              <path class="cls-7" d="m297.74,292.19c0-1.03.27-2.1.83-2.94.57-.84,1.29-1.37,2.3-1.37,1,0,1.72.53,2.29,1.37.57.84.82,1.91.82,2.94,0,1.03-.26,2.11-.82,2.94-.57.83-1.29,1.36-2.29,1.37-1,0-1.73-.53-2.3-1.37-.57-.83-.83-1.91-.83-2.94Zm4.87,0c0-.7-.22-1.65-.58-2.16-.35-.51-.62-.77-1.16-.77-.55,0-.83.26-1.19.77s-.58,1.46-.58,2.16.22,1.64.58,2.15c.36.51.64.78,1.19.78.55,0,.81-.27,1.16-.78.35-.51.58-1.45.58-2.15Z"/>
              <path class="cls-5" d="m332.43,291.27c0-.41.25-.7.74-.71,1.14-.02,2.61-.02,3.75,0,.49,0,.72.3.72.71s-.22.7-.72.71c-1.15.02-2.61.01-3.76,0-.49,0-.74-.3-.74-.71Zm0,2.29c0-.41.24-.72.74-.73,1.15-.01,2.61-.02,3.76,0,.49,0,.72.32.72.73s-.22.72-.72.73c-1.15.02-2.61.02-3.76,0-.5,0-.74-.31-.74-.73Z"/>
              <path class="cls-5" d="m368.14,292.85c-.51-.03-1.26.01-1.73-.01-.46-.02-.69-.28-.69-.68,0-.39.22-.65.69-.68.46-.02,1.21.01,1.73-.01.03-.51-.01-1.22.01-1.69s.29-.71.7-.71c.41,0,.67.24.7.71s-.01,1.18.01,1.69c.51.03,1.26-.02,1.73.01s.69.28.69.68-.22.65-.69.68c-.46.02-1.21-.02-1.73.01-.02.51.02,1.23-.01,1.69-.03.47-.29.71-.7.71-.41,0-.68-.24-.7-.71-.02-.47.01-1.18-.01-1.69Z"/>
              <path class="cls-5" d="m305.56,151.71c.02.3-.16.51-.54.53-.38.02-1.09,0-1.53,0-.93,2.55-1.88,5.28-2.65,7.8-.11.36-.13.28-.27.44-.14.16-.2.12-.37.15-.17.03-.35-.09-.5-.22-.55-.49-1.71-1.74-2.09-2.09-.55-.5-.62-1.03-.41-1.29.2-.26.16-.09.33-.14.17-.05.31.06.47.18.16.11.37.39.53.54s.3.31.45.45c.15.14.27.29.43.42.15.14.3.37.48.43.67-1.79,2.17-5.77,2.51-7.07.25-.96.05-.19.06-.22.1-.3.08-.14.18-.26.1-.12.23-.18.4-.18.55,0,1.52-.01,1.98,0,.46.02.54.22.56.53Z"/>
            </g>
            <path class="cls-2" d="m383.63,123.72c-43.64-.06-87.27,0-130.91,0v-31.33c43.64.06,87.27,0,130.91,0v31.33Z"/>
            <line class="cls-11" x1="271.71" y1="108.06" x2="364.64" y2="108.06"/>
          </g>
        </g>
      </g>
    </g>
  </g>
</svg>