<?xml version="1.0" encoding="UTF-8"?>
<svg id="Layer_2" data-name="Layer 2" xmlns="http://www.w3.org/2000/svg" width="1471" height="609" xmlns:xlink="http://www.w3.org/1999/xlink" viewBox="0 0 1471 609">
  <defs>
    <style>
      .cls-1 {
        fill: #88cbd4;
      }

      .cls-1, .cls-2, .cls-3, .cls-4 {
        stroke-width: 0px;
      }

      .cls-2 {
        fill: #80bfc4;
      }

      .cls-3 {
        fill: #273551;
      }

      .cls-5 {
        fill: #f9f9f9;
        filter: url(#drop-shadow-1);
        stroke: #6fafcd;
        stroke-linecap: round;
        stroke-linejoin: round;
        stroke-width: 4.33px;
      }

      .cls-4 {
        fill: #7e4d7c;
      }
    </style>
    <filter id="drop-shadow-1" filterUnits="userSpaceOnUse">
      <feOffset dx="10.82" dy="10.82"/>
      <feGaussianBlur result="blur" stdDeviation="16.23"/>
      <feFlood flood-color="#000" flood-opacity=".15"/>
      <feComposite in2="blur" operator="in"/>
      <feComposite in="SourceGraphic"/>
    </filter>
  </defs>
  <g id="Layer_2-2" data-name="Layer 2">
    <rect class="cls-5" x="41.01" y="40.67" width="1367.26" height="505.09" rx="9.15" ry="9.15"/>
  </g>
  <g id="Layer_3" data-name="Layer 3">
    <g>
      <g>
        <path class="cls-3" d="m103.06,106.1c0,3.97-1.38,7.13-4.15,9.5-2.43,2.1-5.53,3.15-9.3,3.15-4.47,0-7.92-1.5-10.35-4.5-1.87-2.33-2.8-5.12-2.8-8.35,0-2.83.68-5.25,2.05-7.25l4.3-.95c-1.53,2.37-2.3,4.95-2.3,7.75s.88,5.03,2.65,6.8c1.63,1.63,3.78,2.45,6.45,2.45,3.03,0,5.37-.9,7-2.7,1.4-1.53,2.1-3.5,2.1-5.9v-26.8l4.35-2.3v29.1Z"/>
        <path class="cls-3" d="m120.76,109.25c-2.9,0-5.13-.93-6.7-2.8-1.33-1.6-2-3.63-2-6.1v-21.05l4.3-2.3v23.2c0,3.33,1.63,5,4.9,5h3.3v4.05h-3.8Z"/>
        <path class="cls-3" d="m153.76,105.2h3.35v4.05h-3.8c-2.77,0-4.95-.88-6.55-2.65-1.7,2.43-4.18,3.65-7.45,3.65s-5.73-1.2-7.4-3.6c-1.57,1.73-3.75,2.6-6.55,2.6h-3.8v-4.05h3.3c3.27,0,4.9-1.67,4.9-5v-1.65c0-3.87.95-6.83,2.85-8.9,1.67-1.83,3.9-2.75,6.7-2.75,3.2,0,5.67,1.18,7.4,3.55,1.47,2.03,2.2,4.73,2.2,8.1v1.65c0,3.33,1.62,5,4.85,5Zm-14.45,1c1.63,0,2.92-.68,3.88-2.05s1.42-3.25,1.42-5.65c0-5.07-1.77-7.6-5.3-7.6s-5.25,2.53-5.25,7.6,1.75,7.7,5.25,7.7Z"/>
        <path class="cls-3" d="m178.81,105.2h13.2v4.05h-13.6c-1.8,0-3.58-.35-5.35-1.05-1.77.7-3.57,1.05-5.4,1.05h-13.55v-4.05h13.9c-2.4-1.97-4.87-4.85-7.4-8.65v-2.2c1.6-2.3,3.51-4.12,5.73-5.45,2.22-1.33,4.44-2,6.67-2s4.47.67,6.7,2.02c2.23,1.35,4.17,3.19,5.8,5.53v2.1c-2.53,3.8-5.02,6.68-7.45,8.65h.75Zm-14.2-9.7c3.07,4.2,5.88,6.97,8.45,8.3,2.57-1.37,5.38-4.15,8.45-8.35-2.5-3.03-5.33-4.57-8.5-4.6-3.17,0-5.97,1.55-8.4,4.65Z"/>
        <path class="cls-3" d="m206.41,105.2h3.3v4.05h-3.8c-2.77,0-4.95-.88-6.55-2.65-1.6,1.77-3.78,2.65-6.55,2.65h-3.8v-4.05h3.3c3.27,0,4.9-1.67,4.9-5v-10.35l4.3-2.3v12.65c0,3.33,1.63,5,4.9,5Zm-11.8-23.35c-1.63,0-2.45-.83-2.45-2.5s.82-2.45,2.45-2.45,2.4.82,2.4,2.45-.8,2.5-2.4,2.5Zm6.4,0c-1.63,0-2.45-.83-2.45-2.5s.82-2.45,2.45-2.45,2.4.82,2.4,2.45-.8,2.5-2.4,2.5Z"/>
        <path class="cls-3" d="m206.71,109.25v-4.05h8.8v4.05h-8.8Z"/>
        <path class="cls-3" d="m212.51,109.25v-4.05h8.8v4.05h-8.8Z"/>
        <path class="cls-3" d="m218.31,109.25v-4.05h8.8v4.05h-8.8Z"/>
        <path class="cls-3" d="m224.11,109.25v-4.05h4.5c3.23,0,4.85-1.67,4.85-5v-7l4.3-2.3v9.3c0,3.33,1.63,5,4.9,5h2.3c3.27,0,4.9-1.67,4.9-5v-8.7l4.3-2.25v10.95c0,3.33,1.62,5,4.85,5h2.35c3.27,0,4.9-1.67,4.9-5v-10.35l4.3-2.3v12.8c0,2.83-.85,5.05-2.55,6.65-1.5,1.47-3.5,2.22-6,2.25h-3.45c-2.93,0-5.12-.98-6.55-2.95-1.43,1.93-3.57,2.92-6.4,2.95h-3.45c-2.87,0-5.05-.98-6.55-2.95-1.43,1.97-3.62,2.95-6.55,2.95h-4.95Z"/>
        <path class="cls-3" d="m288.26,109.25c-2.9,0-5.13-.93-6.7-2.8-1.33-1.6-2-3.63-2-6.1v-21.05l4.3-2.3v23.2c0,3.33,1.63,5,4.9,5h3.3v4.05h-3.8Z"/>
        <path class="cls-3" d="m289.06,109.25v-4.05h3.3c3.27,0,4.9-1.67,4.9-5v-10.35l4.3-2.3v12.8c0,2.83-.85,5.07-2.55,6.7-1.57,1.47-3.62,2.2-6.15,2.2h-3.8Zm8.05,9.95c-1.63,0-2.45-.83-2.45-2.5s.82-2.45,2.45-2.45,2.4.82,2.4,2.45-.8,2.5-2.4,2.5Z"/>
        <path class="cls-3" d="m333.76,105.2h3.3v4.05h-3.8c-1.7,0-3.17-.33-4.4-1-.3,3.3-1.45,5.93-3.45,7.9-1.83,1.8-4.13,2.7-6.9,2.7-2,0-3.95-.5-5.85-1.5v-3.75c1.7.93,3.4,1.4,5.1,1.4,2.13,0,3.8-.72,5-2.15s1.8-3.42,1.8-5.95v-17.05l4.3-2.3v.05l.05-.05v13.65c.3,2.67,1.92,4,4.85,4Z"/>
        <path class="cls-3" d="m347.11,73.6l2.4-1.35v4.05c0,.93-.32,1.7-.95,2.3-.63.6-1.45.9-2.45.9-.87,0-1.62-.23-2.25-.7-.63.47-1.38.7-2.25.7-1,0-1.83-.3-2.48-.9s-.98-1.37-.98-2.3v-1.55l2.45-1.35v2.75c0,.67.33,1,1,1s1-.28,1-.85v-2.2l2.45-1.35v3.55c0,.57.35.85,1.05.85s1-.33,1-1v-2.55Z"/>
        <path class="cls-3" d="m351.46,105.2h3.3v4.05h-3.8c-2.77,0-4.95-.88-6.55-2.65-1.6,1.77-3.78,2.65-6.55,2.65h-3.8v-4.05h3.3c3.27,0,4.9-1.67,4.9-5v-10.35l4.3-2.3v12.65c0,3.33,1.63,5,4.9,5Zm-7.35,9.05c1.6,0,2.4.82,2.4,2.45s-.8,2.5-2.4,2.5-2.45-.83-2.45-2.5.82-2.45,2.45-2.45Z"/>
        <path class="cls-3" d="m357.86,71.5l1.35-2.9,4.95-.9c-.57-.73-.85-1.6-.85-2.6,0-1.1.34-2.03,1.02-2.78.68-.75,1.52-1.12,2.52-1.12s1.89.37,2.58,1.1c.68.73,1.02,1.67,1.02,2.8,0,1.23-.35,2.3-1.05,3.2-.7.9-1.6,1.43-2.7,1.6l-8.85,1.6Zm9.1-4.65c.7-.47,1.05-1.08,1.05-1.85,0-.97-.38-1.45-1.15-1.45s-1.1.48-1.1,1.45c0,.87.4,1.48,1.2,1.85Z"/>
        <path class="cls-3" d="m361.61,88.1h.3c3.77,0,6.82,1.17,9.15,3.5,2.13,2.1,3.2,4.78,3.2,8.05v.85c0,2.87-.88,5.1-2.65,6.7-1.57,1.37-3.58,2.05-6.05,2.05h-13.8v-4.05h13.4c3.2,0,4.8-1.68,4.8-5.05v-.45c0-2.47-.97-4.37-2.9-5.7-1.53-1.03-3.4-1.55-5.6-1.55-1.77,0-3.55.32-5.35.95v-4.25l10.95-12.15h4.4l-9.85,11.1Z"/>
        <path class="cls-3" d="m400.41,77.6h4.4l11.45,31.65h-4.75l-2.4-7.15h-12.95l-2.45,7.15h-4.75l11.45-31.65Zm2.2,5.6l-5.15,15.05h10.3l-5.15-15.05Z"/>
        <path class="cls-3" d="m428.71,77h3.85c-4.47,6.07-6.7,12.55-6.7,19.45,0,3.47.63,7.07,1.9,10.8,1.27,3.73,2.87,6.73,4.8,9h-3.85c-1.97-1.87-3.65-4.73-5.05-8.6-1.4-3.87-2.1-7.6-2.1-11.2s.68-7.03,2.03-10.7c1.35-3.67,3.06-6.58,5.12-8.75Z"/>
        <path class="cls-3" d="m449.66,77.6v31.65h-4.65v-26.55l-5.85,3.4-2.25-3.45,8.1-5.05h4.65Z"/>
        <path class="cls-3" d="m457.86,114.4l-1-1.95c1.3-.83,1.95-1.77,1.95-2.8v-.2c-.13.07-.28.1-.45.1-.57,0-1.06-.24-1.48-.72-.42-.48-.62-1.06-.62-1.72,0-.77.25-1.41.75-1.93.5-.52,1.12-.77,1.85-.77,2,0,3,1.4,3,4.2,0,1.3-.37,2.48-1.1,3.55-.73,1.07-1.7,1.82-2.9,2.25Z"/>
        <path class="cls-3" d="m477.41,109.25v-4.05l7.95-8.85c2.4-2.67,4.02-4.74,4.88-6.22.85-1.48,1.27-2.97,1.27-4.47,0-1.4-.5-2.53-1.5-3.4s-2.33-1.3-4-1.3c-2,0-4.12.73-6.35,2.2l-1.95-2.8c2.97-2.27,6-3.4,9.1-3.4,2.9,0,5.25.85,7.05,2.55,1.7,1.57,2.55,3.62,2.55,6.15,0,1.63-.38,3.21-1.15,4.72-.77,1.52-2.1,3.36-4,5.53l-8.3,9.5h12.75v3.85h-18.3Z"/>
        <path class="cls-3" d="m501.76,77h3.85c2.07,2.17,3.77,5.08,5.12,8.75,1.35,3.67,2.02,7.23,2.02,10.7,0,4.87-1.08,9.52-3.25,13.95-1.3,2.7-2.6,4.65-3.9,5.85h-3.85c1.93-2.27,3.53-5.27,4.8-9,1.27-3.73,1.9-7.33,1.9-10.8,0-6.9-2.23-13.38-6.7-19.45Z"/>
        <path class="cls-3" d="m532.76,109.2v-31.55c2.87-.43,5.7-.65,8.5-.65,3.97,0,6.88.93,8.75,2.8,1.5,1.5,2.25,3.48,2.25,5.95,0,1.63-.56,3.08-1.67,4.35-1.12,1.27-2.49,2.02-4.12,2.25v.05c2.07.3,3.71,1.19,4.92,2.67,1.22,1.48,1.83,3.38,1.83,5.68,0,3-1.22,5.32-3.65,6.95-2.1,1.43-4.87,2.15-8.3,2.15-3.07,0-5.9-.22-8.5-.65Zm4.65-28.15v9.55h4.7c1.67,0,2.99-.39,3.98-1.18.98-.78,1.47-1.84,1.47-3.17,0-3.7-2.12-5.55-6.35-5.55-1.53,0-2.8.12-3.8.35Zm0,13.35v11.4c1.17.23,2.65.35,4.45.35,4.3,0,6.45-1.82,6.45-5.45,0-2-.55-3.55-1.65-4.65-1.1-1.1-2.65-1.65-4.65-1.65h-4.6Z"/>
        <path class="cls-3" d="m567.41,77h3.85c-4.47,6.07-6.7,12.55-6.7,19.45,0,3.47.63,7.07,1.9,10.8,1.27,3.73,2.87,6.73,4.8,9h-3.85c-1.97-1.87-3.65-4.73-5.05-8.6-1.4-3.87-2.1-7.6-2.1-11.2s.68-7.03,2.03-10.7c1.35-3.67,3.06-6.58,5.12-8.75Z"/>
        <path class="cls-3" d="m588.36,77.6v31.65h-4.65v-26.55l-5.85,3.4-2.25-3.45,8.1-5.05h4.65Z"/>
        <path class="cls-3" d="m596.56,114.4l-1-1.95c1.3-.83,1.95-1.77,1.95-2.8v-.2c-.13.07-.28.1-.45.1-.57,0-1.06-.24-1.48-.72-.42-.48-.62-1.06-.62-1.72,0-.77.25-1.41.75-1.93.5-.52,1.12-.77,1.85-.77,2,0,3,1.4,3,4.2,0,1.3-.37,2.48-1.1,3.55-.73,1.07-1.7,1.82-2.9,2.25Z"/>
        <path class="cls-3" d="m627.61,109.85c-3.83,0-6.8-1.73-8.9-5.2-1.8-2.93-2.7-6.65-2.7-11.15,0-5.03,1.18-9.12,3.55-12.25,2.1-2.83,4.78-4.25,8.05-4.25,3.7,0,6.67,1.82,8.9,5.45,1.83,3.03,2.75,6.72,2.75,11.05,0,5.17-1.17,9.27-3.5,12.3-2.1,2.7-4.82,4.05-8.15,4.05Zm0-28.85c-2.13,0-3.78,1.06-4.95,3.17-1.17,2.12-1.75,5.12-1.75,9.03s.63,7.25,1.9,9.55c1.2,2.07,2.78,3.1,4.75,3.1,2.13,0,3.8-1.12,5-3.38,1.2-2.25,1.8-5.34,1.8-9.28s-.63-7.17-1.9-9.3c-1.17-1.93-2.78-2.9-4.85-2.9Z"/>
        <path class="cls-3" d="m644.71,77h3.85c2.07,2.17,3.77,5.08,5.12,8.75,1.35,3.67,2.02,7.23,2.02,10.7,0,4.87-1.08,9.52-3.25,13.95-1.3,2.7-2.6,4.65-3.9,5.85h-3.85c1.93-2.27,3.53-5.27,4.8-9,1.27-3.73,1.9-7.33,1.9-10.8,0-6.9-2.23-13.38-6.7-19.45Z"/>
        <path class="cls-3" d="m697.11,106.2c-2.8,2.43-5.85,3.65-9.15,3.65-4.8,0-8.52-1.85-11.15-5.55-2.07-2.93-3.1-6.45-3.1-10.55,0-4.67,1.28-8.65,3.85-11.95,2.53-3.2,5.75-4.8,9.65-4.8,3.47,0,6.63,1.15,9.5,3.45l-1.85,2.8c-2.27-1.5-4.52-2.25-6.75-2.25-3.03,0-5.42,1.25-7.15,3.75-1.57,2.27-2.35,5.27-2.35,9s.98,6.67,2.95,8.9c1.8,2.07,4.13,3.1,7,3.1,2.17,0,4.4-.78,6.7-2.35l1.85,2.8Z"/>
        <path class="cls-3" d="m711.31,77h3.85c-4.47,6.07-6.7,12.55-6.7,19.45,0,3.47.63,7.07,1.9,10.8,1.27,3.73,2.87,6.73,4.8,9h-3.85c-1.97-1.87-3.65-4.73-5.05-8.6-1.4-3.87-2.1-7.6-2.1-11.2s.68-7.03,2.03-10.7c1.35-3.67,3.06-6.58,5.12-8.75Z"/>
        <path class="cls-3" d="m728.76,94.35h-4.5v-3.85h4.5c3.57,0,5.35-1.62,5.35-4.85,0-1.5-.46-2.67-1.38-3.5-.92-.83-2.18-1.25-3.77-1.25-2,0-4.12.8-6.35,2.4l-1.8-2.85c2.47-2.3,5.4-3.45,8.8-3.45,2.77,0,5.05.8,6.85,2.4,1.7,1.53,2.55,3.5,2.55,5.9,0,1.67-.44,3.1-1.33,4.3-.88,1.2-2.09,2.02-3.62,2.45,4.13,1.13,6.2,3.79,6.2,7.95,0,3.47-1.28,6.08-3.85,7.85-1.9,1.3-4.15,1.95-6.75,1.95-3.33,0-6.43-1.2-9.3-3.6l1.95-2.75c2,1.53,4.3,2.3,6.9,2.3,1.87,0,3.36-.53,4.47-1.6,1.12-1.07,1.68-2.47,1.68-4.2,0-3.73-2.2-5.6-6.6-5.6Z"/>
        <path class="cls-3" d="m746.51,114.4l-1-1.95c1.3-.83,1.95-1.77,1.95-2.8v-.2c-.13.07-.28.1-.45.1-.57,0-1.06-.24-1.48-.72-.42-.48-.62-1.06-.62-1.72,0-.77.25-1.41.75-1.93.5-.52,1.12-.77,1.85-.77,2,0,3,1.4,3,4.2,0,1.3-.37,2.48-1.1,3.55-.73,1.07-1.7,1.82-2.9,2.25Z"/>
        <path class="cls-3" d="m777.81,77.6v31.65h-4.65v-26.55l-5.85,3.4-2.25-3.45,8.1-5.05h4.65Z"/>
        <path class="cls-3" d="m785.16,77h3.85c2.07,2.17,3.77,5.08,5.12,8.75,1.35,3.67,2.02,7.23,2.02,10.7,0,4.87-1.08,9.52-3.25,13.95-1.3,2.7-2.6,4.65-3.9,5.85h-3.85c1.93-2.27,3.53-5.27,4.8-9,1.27-3.73,1.9-7.33,1.9-10.8,0-6.9-2.23-13.38-6.7-19.45Z"/>
        <path class="cls-3" d="m847.11,105.2h3.3v4.05h-3.8c-3.43,0-5.9-1.27-7.4-3.8-1.6,1.53-3.58,2.3-5.95,2.3-2.93,0-5.27-1.1-7-3.3-1.43-1.87-2.15-4.15-2.15-6.85,0-3.23.98-5.83,2.95-7.8,1.67-1.7,3.7-2.55,6.1-2.55,1.83,0,3.42.47,4.75,1.4v-2.15l4.35-2.3v16c0,3.33,1.62,5,4.85,5Zm-9.2-11.9c-1.23-1.37-2.75-2.05-4.55-2.05-1.47,0-2.67.59-3.6,1.78-.93,1.18-1.4,2.72-1.4,4.62s.47,3.48,1.4,4.65c.93,1.17,2.15,1.75,3.65,1.75,1.87,0,3.4-.77,4.6-2.3-.07-.6-.1-1.07-.1-1.4v-7.05Z"/>
        <path class="cls-3" d="m847.41,109.25v-4.05h8.8v4.05h-8.8Z"/>
        <path class="cls-3" d="m853.21,109.25v-4.05h8.8v4.05h-8.8Z"/>
        <path class="cls-3" d="m859.01,109.25v-4.05h8.8v4.05h-8.8Z"/>
        <path class="cls-3" d="m864.81,109.25v-4.05h4.5c3.23,0,4.85-1.67,4.85-5v-7l4.3-2.3v9.3c0,3.33,1.63,5,4.9,5h2.3c3.27,0,4.9-1.67,4.9-5v-8.7l4.3-2.25v10.95c0,3.33,1.62,5,4.85,5h2.35c3.27,0,4.9-1.67,4.9-5v-10.35l4.3-2.3v12.8c0,2.83-.85,5.05-2.55,6.65-1.5,1.47-3.5,2.22-6,2.25h-3.45c-2.93,0-5.12-.98-6.55-2.95-1.43,1.93-3.57,2.92-6.4,2.95h-3.45c-2.87,0-5.05-.98-6.55-2.95-1.43,1.97-3.62,2.95-6.55,2.95h-4.95Z"/>
        <path class="cls-3" d="m932.56,107.65c-1.27.5-2.82.75-4.65.75-2.97,0-5.3-1.12-7-3.35-1.43-1.9-2.15-4.28-2.15-7.15,0-3.53.95-6.3,2.85-8.3,1.7-1.8,3.93-2.7,6.7-2.7s5.02.88,6.55,2.65c1.37,1.57,2.05,3.62,2.05,6.15v10.9c0,3.77-.98,6.75-2.95,8.95-1.87,2.07-4.35,3.1-7.45,3.1-2.07,0-4.02-.48-5.85-1.45v-3.8c1.77.93,3.52,1.4,5.25,1.4,1.97,0,3.53-.62,4.7-1.88,1.17-1.25,1.82-3.01,1.95-5.27Zm0-11.75c0-3.33-1.42-5-4.25-5-1.67,0-2.97.62-3.92,1.85s-1.42,2.92-1.42,5.05.46,3.78,1.38,5.03c.92,1.25,2.16,1.88,3.72,1.88,2.2,0,3.7-.62,4.5-1.85v-6.95Z"/>
        <path class="cls-3" d="m957.71,107.65c-1.27.5-2.82.75-4.65.75-2.97,0-5.3-1.12-7-3.35-1.43-1.9-2.15-4.28-2.15-7.15,0-3.53.95-6.3,2.85-8.3,1.7-1.8,3.93-2.7,6.7-2.7s5.02.88,6.55,2.65c1.37,1.57,2.05,3.62,2.05,6.15v10.9c0,3.77-.98,6.75-2.95,8.95-1.87,2.07-4.35,3.1-7.45,3.1-2.07,0-4.02-.48-5.85-1.45v-3.8c1.77.93,3.52,1.4,5.25,1.4,1.97,0,3.53-.62,4.7-1.88,1.17-1.25,1.82-3.01,1.95-5.27Zm-.65-28.65l-1.15,2.15h-8.25l1.15-2.15h1.35c-.33-.6-.5-1.23-.5-1.9,0-.97.37-1.81,1.1-2.53.73-.72,1.6-1.07,2.6-1.07.83,0,1.63.27,2.4.8v2.2c-.7-.57-1.4-.85-2.1-.85-1.23,0-1.85.55-1.85,1.65,0,.57.23,1.13.7,1.7h4.55Zm.65,16.9c0-3.33-1.42-5-4.25-5-1.67,0-2.97.62-3.92,1.85s-1.42,2.92-1.42,5.05.46,3.78,1.38,5.03c.92,1.25,2.16,1.88,3.72,1.88,2.2,0,3.7-.62,4.5-1.85v-6.95Z"/>
        <path class="cls-3" d="m981.21,106.6c0,3.73-.98,6.73-2.95,9-1.87,2.17-4.35,3.25-7.45,3.25-2,0-3.95-.5-5.85-1.5v-3.75c1.7.93,3.4,1.4,5.1,1.4,2.13,0,3.8-.72,5-2.15s1.8-3.42,1.8-5.95v-17.05l4.35-2.3v19.05Z"/>
        <path class="cls-3" d="m1009.51,109.25c-2.7,0-4.82-.9-6.35-2.7-1.33-1.57-2-3.62-2-6.15v-6.05l4.3-2.3v7.95c0,3.47,1.62,5.2,4.85,5.2h16.6c3.23,0,4.85-1.73,4.85-5.2v-10.15l4.3-2.3v12.85c0,2.9-.88,5.15-2.65,6.75-1.57,1.4-3.58,2.1-6.05,2.1h-17.85Zm5.05-23.25c-1.63,0-2.45-.83-2.45-2.5s.82-2.45,2.45-2.45,2.4.82,2.4,2.45-.8,2.5-2.4,2.5Zm6.35,0c-1.63,0-2.45-.83-2.45-2.5s.82-2.45,2.45-2.45,2.4.82,2.4,2.45-.8,2.5-2.4,2.5Z"/>
        <path class="cls-3" d="m1052.76,109.25c-2.9,0-5.13-.93-6.7-2.8-1.33-1.6-2-3.63-2-6.1v-21.05l4.3-2.3v23.2c0,3.33,1.63,5,4.9,5h3.3v4.05h-3.8Z"/>
        <path class="cls-3" d="m1070.96,105.2h3.3v4.05h-3.8c-2.77,0-4.95-.88-6.55-2.65-1.6,1.77-3.78,2.65-6.55,2.65h-3.8v-4.05h3.3c3.27,0,4.9-1.67,4.9-5v-10.35l4.3-2.3v12.65c0,3.33,1.63,5,4.9,5Zm-11.95,9.05c1.6,0,2.4.83,2.4,2.5s-.8,2.45-2.4,2.45-2.45-.82-2.45-2.45.82-2.5,2.45-2.5Zm6.35,0c1.6,0,2.4.83,2.4,2.5s-.8,2.45-2.4,2.45-2.45-.82-2.45-2.45.82-2.5,2.45-2.5Z"/>
        <path class="cls-3" d="m1071.26,109.25v-4.05h3.3c3.27,0,4.9-1.67,4.9-5v-10.35l4.3-2.3v12.8c0,2.83-.85,5.07-2.55,6.7-1.57,1.47-3.62,2.2-6.15,2.2h-3.8Zm3.85-27.75c-1.63,0-2.45-.83-2.45-2.5s.82-2.45,2.45-2.45,2.4.82,2.4,2.45-.8,2.5-2.4,2.5Zm3.15-5.95c-1.47,0-2.2-.75-2.2-2.25s.73-2.2,2.2-2.2,2.2.73,2.2,2.2-.73,2.25-2.2,2.25Zm3.2,5.95c-1.63,0-2.45-.83-2.45-2.5s.82-2.45,2.45-2.45,2.4.82,2.4,2.45-.8,2.5-2.4,2.5Z"/>
        <path class="cls-3" d="m1092.76,109.25v-29.95l4.3-2.3v32.25h-4.3Z"/>
        <path class="cls-3" d="m1102.07,109.25l2.1-4.05h8.9c1.33,0,2.27-.33,2.83-1,.55-.67.82-1.82.82-3.45,0-4.43-2.05-7.77-6.15-10l2.2-3.7c5.23,3.07,7.97,7.3,8.2,12.7.07,1.93.51,3.32,1.33,4.17.82.85,2.12,1.28,3.92,1.28h2.95v4.05h-3.3c-2.77,0-4.93-.88-6.5-2.65-1.1,1.77-2.95,2.65-5.55,2.65h-11.75Z"/>
        <path class="cls-3" d="m1126.16,109.25v-4.05h6.85c6.77,0,12.12-2.23,16.05-6.7-2.77-5.1-6.13-7.65-10.1-7.65-2.7,0-5.48,1.43-8.35,4.3v-4c2.8-2.83,5.77-4.25,8.9-4.25,2.57,0,5.05.92,7.45,2.77,2.4,1.85,4.52,4.49,6.35,7.93v2.2c-4.9,6.3-11.68,9.45-20.35,9.45h-6.8Z"/>
        <path class="cls-3" d="m1157.67,121.7l1.15-2.15h1.35c-.33-.6-.5-1.23-.5-1.9,0-.97.37-1.81,1.1-2.53.73-.72,1.6-1.08,2.6-1.08.83,0,1.63.27,2.4.8v2.2c-.73-.57-1.43-.85-2.1-.85-1.23,0-1.85.55-1.85,1.65,0,.57.23,1.13.7,1.7h4.55l-1.15,2.15h-8.25Zm2.65-12.45v-29.95l4.3-2.3v32.25h-4.3Z"/>
        <path class="cls-3" d="m1224.36,105.2h2.3v4.05h-2.8c-2.8,0-4.98-.87-6.55-2.6-1.57,1.73-3.75,2.6-6.55,2.6h-17.85c-2.7,0-4.82-.9-6.35-2.7-1.33-1.57-2-3.62-2-6.15v-6.05l4.3-2.3v7.95c0,3.47,1.62,5.2,4.85,5.2h16.6c3.23,0,4.85-1.73,4.85-5.2v-10.15l4.3-2.3v12.65c0,3.33,1.63,5,4.9,5Zm-25.9-19.2c-1.63,0-2.45-.83-2.45-2.5s.82-2.45,2.45-2.45,2.4.82,2.4,2.45-.8,2.5-2.4,2.5Zm3.15-5.95c-1.57,0-2.35-.78-2.35-2.35s.78-2.3,2.35-2.3,2.25.77,2.25,2.3-.75,2.35-2.25,2.35Zm.75,3.45c0-1.63.82-2.45,2.45-2.45s2.4.82,2.4,2.45-.8,2.5-2.4,2.5-2.45-.83-2.45-2.5Z"/>
        <path class="cls-3" d="m1235.97,66.75l2.4-1.35v4.05c0,.93-.32,1.7-.95,2.3-.63.6-1.45.9-2.45.9-.87,0-1.62-.23-2.25-.7-.63.47-1.38.7-2.25.7-1,0-1.83-.3-2.48-.9s-.98-1.37-.98-2.3v-1.55l2.45-1.35v2.75c0,.67.33,1,1,1s1-.28,1-.85v-2.2l2.45-1.35v3.55c0,.57.35.85,1.05.85s1-.33,1-1v-2.55Z"/>
        <path class="cls-3" d="m1240.72,105.2h3.3v4.05h-3.8c-2.87,0-5.08-.92-6.65-2.75-1.67,1.83-3.97,2.75-6.9,2.75h-3v-4.05h2.65c3.47,0,5.2-1.82,5.2-5.45v-20.45l4.35-2.3v22.8c0,1.93.38,3.32,1.12,4.15.75.83,1.99,1.25,3.72,1.25Z"/>
        <path class="cls-3" d="m1258.42,105.2h3.3v4.05h-3.8c-2.77,0-4.95-.88-6.55-2.65-1.6,1.77-3.78,2.65-6.55,2.65h-3.8v-4.05h3.3c3.27,0,4.9-1.67,4.9-5v-10.35l4.3-2.3v12.65c0,3.33,1.63,5,4.9,5Zm-11.65-23.35c-1.63,0-2.45-.83-2.45-2.5s.82-2.45,2.45-2.45,2.4.82,2.4,2.45-.8,2.5-2.4,2.5Zm3.15-5.95c-1.53,0-2.3-.78-2.3-2.35s.77-2.3,2.3-2.3,2.3.77,2.3,2.3-.77,2.35-2.3,2.35Zm.75,3.45c0-1.63.82-2.45,2.45-2.45s2.4.82,2.4,2.45-.8,2.5-2.4,2.5-2.45-.83-2.45-2.5Z"/>
        <path class="cls-3" d="m1268.12,79.9l1.35-2.9,4.95-.9c-.57-.73-.85-1.6-.85-2.6,0-1.1.34-2.03,1.02-2.78.68-.75,1.52-1.12,2.52-1.12s1.89.37,2.58,1.1c.68.73,1.02,1.67,1.02,2.8,0,1.23-.35,2.3-1.05,3.2-.7.9-1.6,1.43-2.7,1.6l-8.85,1.6Zm9.1-4.65c.7-.47,1.05-1.08,1.05-1.85,0-.97-.38-1.45-1.15-1.45s-1.1.48-1.1,1.45c0,.87.4,1.48,1.2,1.85Z"/>
        <path class="cls-3" d="m1266.92,95.7c0-2.9.87-5.15,2.6-6.75,1.53-1.37,3.53-2.05,6-2.05,3.17,0,5.6,1.17,7.3,3.5,1.47,1.97,2.2,4.53,2.2,7.7,0,3.6-.93,6.42-2.8,8.45-1.63,1.8-3.77,2.7-6.4,2.7-3,0-5.28-.83-6.85-2.5-1.6,1.67-3.75,2.5-6.45,2.5h-3.8v-4.05h3.3c3.27,0,4.9-1.67,4.9-5v-4.5Zm4.3,4.85c0,3.1,1.52,4.65,4.55,4.65,1.57,0,2.79-.63,3.68-1.9.88-1.27,1.32-3.03,1.32-5.3s-.47-3.97-1.4-5.22c-.93-1.25-2.22-1.88-3.85-1.88-2.87,0-4.3,1.67-4.3,5v4.65Z"/>
        <path class="cls-4" d="m1304.27,94.85v-.1c.07-1.67.95-2.5,2.65-2.5s2.65.87,2.65,2.6-.88,2.65-2.65,2.65-2.65-.88-2.65-2.65Zm0,12v-.1c.07-1.67.95-2.5,2.65-2.5s2.65.87,2.65,2.6-.88,2.65-2.65,2.65-2.65-.88-2.65-2.65Z"/>
        <path class="cls-4" d="m1328.77,105.2h3.3v4.05h-3.8c-1.7,0-3.17-.33-4.4-1-.3,3.3-1.45,5.93-3.45,7.9-1.83,1.8-4.13,2.7-6.9,2.7-2,0-3.95-.5-5.85-1.5v-3.75c1.7.93,3.4,1.4,5.1,1.4,2.13,0,3.8-.72,5-2.15s1.8-3.42,1.8-5.95v-17.05l4.3-2.3v.05l.05-.05v13.65c.3,2.67,1.92,4,4.85,4Z"/>
        <path class="cls-4" d="m1329.07,109.25v-4.05h3.3c3.27,0,4.9-1.67,4.9-5v-10.35l4.3-2.3v12.8c0,2.83-.85,5.07-2.55,6.7-1.57,1.47-3.62,2.2-6.15,2.2h-3.8Zm2.65,9.95c-1.63,0-2.45-.83-2.45-2.5s.82-2.45,2.45-2.45,2.4.82,2.4,2.45-.8,2.5-2.4,2.5Zm6.35,0c-1.63,0-2.45-.83-2.45-2.5s.82-2.45,2.45-2.45,2.4.82,2.4,2.45-.8,2.5-2.4,2.5Z"/>
        <path class="cls-4" d="m1366.07,105.2h3.3v4.05h-3.8c-1.7,0-3.17-.33-4.4-1-.3,3.3-1.45,5.93-3.45,7.9-1.83,1.8-4.13,2.7-6.9,2.7-2,0-3.95-.5-5.85-1.5v-3.75c1.7.93,3.4,1.4,5.1,1.4,2.13,0,3.8-.72,5-2.15s1.8-3.42,1.8-5.95v-17.05l4.3-2.3v.05l.05-.05v13.65c.3,2.67,1.92,4,4.85,4Z"/>
        <path class="cls-4" d="m1383.77,105.2h3.3v4.05h-3.8c-2.77,0-4.95-.88-6.55-2.65-1.6,1.77-3.78,2.65-6.55,2.65h-3.8v-4.05h3.3c3.27,0,4.9-1.67,4.9-5v-10.35l4.3-2.3v12.65c0,3.33,1.63,5,4.9,5Zm-7.35,9.05c1.6,0,2.4.82,2.4,2.45s-.8,2.5-2.4,2.5-2.45-.83-2.45-2.5.82-2.45,2.45-2.45Z"/>
        <path class="cls-4" d="m1384.07,109.25v-4.05h3.3c3.27,0,4.9-1.67,4.9-5v-10.35l4.3-2.3v12.8c0,2.83-.85,5.07-2.55,6.7-1.57,1.47-3.62,2.2-6.15,2.2h-3.8Zm3.85-27.75c-1.63,0-2.45-.83-2.45-2.5s.82-2.45,2.45-2.45,2.4.82,2.4,2.45-.8,2.5-2.4,2.5Zm6.35,0c-1.63,0-2.45-.83-2.45-2.5s.82-2.45,2.45-2.45,2.4.82,2.4,2.45-.8,2.5-2.4,2.5Z"/>
        <path class="cls-3" d="m85.91,186.25c-3.03,0-5.4-1.02-7.1-3.05-1.47-1.77-2.2-4.02-2.2-6.75,0-2.97.83-5.54,2.48-7.72s4.01-3.79,7.08-4.82c3.23,1.1,5.67,2.83,7.3,5.2,1.47,2.1,2.2,4.55,2.2,7.35,0,3.17-.93,5.65-2.8,7.45-1.67,1.57-3.82,2.35-6.45,2.35h-.5Zm-3.25-28.25c-1.63,0-2.45-.83-2.45-2.5s.82-2.45,2.45-2.45,2.4.82,2.4,2.45-.8,2.5-2.4,2.5Zm3.1,24.2h.75c1.5,0,2.69-.52,3.58-1.55.88-1.03,1.33-2.42,1.33-4.15,0-4-1.75-6.87-5.25-8.6-3.5,1.73-5.25,4.58-5.25,8.55,0,1.77.43,3.17,1.3,4.2.87,1.03,2.05,1.55,3.55,1.55Zm3.3-24.2c-1.63,0-2.45-.83-2.45-2.5s.82-2.45,2.45-2.45,2.4.82,2.4,2.45-.8,2.5-2.4,2.5Z"/>
        <path class="cls-3" d="m110.91,183.6c0,3.73-.98,6.73-2.95,9-1.87,2.17-4.35,3.25-7.45,3.25-2,0-3.95-.5-5.85-1.5v-3.75c1.7.93,3.4,1.4,5.1,1.4,2.13,0,3.8-.72,5-2.15s1.8-3.42,1.8-5.95v-17.05l4.35-2.3v19.05Z"/>
        <path class="cls-3" d="m143.26,182.2v4.05h-6.2c-.13,2.87-1.37,5.23-3.7,7.1-1.97,1.53-4.2,2.3-6.7,2.3-2.07,0-4.02-.48-5.85-1.45v-3.8c1.77.93,3.52,1.4,5.25,1.4s3.31-.55,4.62-1.65c1.32-1.1,1.99-2.42,2.02-3.95-1.73-.07-3.02-.13-3.85-.2-3.6-.2-6.32-1.42-8.15-3.65-1.53-1.87-2.3-4.28-2.3-7.25,0-3.63.97-6.47,2.9-8.5,1.73-1.8,4.02-2.7,6.85-2.7s5.25.88,6.85,2.65c1.37,1.57,2.05,3.62,2.05,6.15v9.5h6.2Zm-10.55-9.2c0-3.4-1.52-5.1-4.55-5.1-1.73,0-3.08.62-4.05,1.88-.97,1.25-1.45,2.99-1.45,5.22,0,4.37,2.13,6.68,6.4,6.95.8.1,2.02.18,3.65.25v-9.2Z"/>
        <path class="cls-3" d="m191.46,182.2h3.3v4.05h-3.8c-2.8,0-4.98-.87-6.55-2.6-1.57,1.73-3.75,2.6-6.55,2.6h-20.7c-2.77,0-4.95-.88-6.55-2.65-1.6,1.77-3.78,2.65-6.55,2.65h-3.8v-4.05h3.3c3.27,0,4.9-1.67,4.9-5v-7l4.3-2.3v9.3c0,2.8,1.08,4.42,3.25,4.85,1.33-5.03,3.53-9.23,6.6-12.6,3.43-3.7,7.43-5.55,12-5.55,3.8,0,6.83,1.32,9.1,3.95,1.9,2.23,2.85,4.98,2.85,8.25v1.2c0,3.27,1.63,4.9,4.9,4.9Zm-13.85,0c3.1,0,4.65-1.73,4.65-5.2v-.9c0-2.6-.8-4.67-2.4-6.2-1.4-1.33-3.13-2-5.2-2-3.53,0-6.72,1.63-9.55,4.9-2.17,2.5-3.83,5.63-5,9.4h17.5Z"/>
        <path class="cls-3" d="m191.76,186.25v-4.05h2.65c3.47,0,5.2-1.82,5.2-5.45v-20.45l4.35-2.3v22.8c0,2.97-.88,5.32-2.65,7.05-1.67,1.6-3.85,2.4-6.55,2.4h-3Z"/>
        <path class="cls-3" d="m212.96,186.25v-29.95l4.3-2.3v32.25h-4.3Z"/>
        <path class="cls-3" d="m290.68,166.85l4.35-2.3v12.8c0,2.83-.85,5.07-2.55,6.7-1.57,1.47-3.62,2.2-6.15,2.2h-3.35c-2.8,0-4.97-.87-6.5-2.6-1.57,1.73-3.75,2.6-6.55,2.6h-3.3c-1.73,0-3.23-.35-4.5-1.05-.4,3.4-1.88,6.05-4.45,7.95-2.3,1.73-5.15,2.6-8.55,2.6-4.33,0-7.7-1.53-10.1-4.6-1.83-2.37-2.75-5.17-2.75-8.4,0-2.8.7-5.2,2.1-7.2l4.15-.9c-1.5,2.37-2.25,4.92-2.25,7.65s.87,5.1,2.6,6.9c1.63,1.67,3.72,2.5,6.25,2.5,2.93,0,5.2-.85,6.8-2.55,1.33-1.43,2-3.3,2-5.6v-13.35l4.3-2.3v9.3c0,3.33,1.62,5,4.85,5h2.35c3.23,0,4.85-1.67,4.85-5v-8.7l4.35-2.25v10.95c0,3.33,1.62,5,4.85,5h2.35c3.23,0,4.85-1.67,4.85-5v-10.35Z"/>
        <path class="cls-3" d="m316.33,184.65c-1.27.5-2.82.75-4.65.75-2.97,0-5.3-1.12-7-3.35-1.43-1.9-2.15-4.28-2.15-7.15,0-3.53.95-6.3,2.85-8.3,1.7-1.8,3.93-2.7,6.7-2.7s5.02.88,6.55,2.65c1.37,1.57,2.05,3.62,2.05,6.15v10.9c0,3.77-.98,6.75-2.95,8.95-1.87,2.07-4.35,3.1-7.45,3.1-2.07,0-4.02-.48-5.85-1.45v-3.8c1.77.93,3.52,1.4,5.25,1.4,1.97,0,3.53-.62,4.7-1.88,1.17-1.25,1.82-3.01,1.95-5.27Zm0-11.75c0-3.33-1.42-5-4.25-5-1.67,0-2.97.62-3.92,1.85s-1.42,2.92-1.42,5.05.46,3.78,1.38,5.03c.92,1.25,2.16,1.88,3.72,1.88,2.2,0,3.7-.62,4.5-1.85v-6.95Z"/>
        <path class="cls-3" d="m341.48,184.65c-1.27.5-2.82.75-4.65.75-2.97,0-5.3-1.12-7-3.35-1.43-1.9-2.15-4.28-2.15-7.15,0-3.53.95-6.3,2.85-8.3,1.7-1.8,3.93-2.7,6.7-2.7s5.02.88,6.55,2.65c1.37,1.57,2.05,3.62,2.05,6.15v10.9c0,3.77-.98,6.75-2.95,8.95-1.87,2.07-4.35,3.1-7.45,3.1-2.07,0-4.02-.48-5.85-1.45v-3.8c1.77.93,3.52,1.4,5.25,1.4,1.97,0,3.53-.62,4.7-1.88,1.17-1.25,1.82-3.01,1.95-5.27Zm-.65-28.65l-1.15,2.15h-8.25l1.15-2.15h1.35c-.33-.6-.5-1.23-.5-1.9,0-.97.37-1.81,1.1-2.53.73-.72,1.6-1.07,2.6-1.07.83,0,1.63.27,2.4.8v2.2c-.7-.57-1.4-.85-2.1-.85-1.23,0-1.85.55-1.85,1.65,0,.57.23,1.13.7,1.7h4.55Zm.65,16.9c0-3.33-1.42-5-4.25-5-1.67,0-2.97.62-3.92,1.85s-1.42,2.92-1.42,5.05.46,3.78,1.38,5.03c.92,1.25,2.16,1.88,3.72,1.88,2.2,0,3.7-.62,4.5-1.85v-6.95Z"/>
        <path class="cls-3" d="m364.98,183.6c0,3.73-.98,6.73-2.95,9-1.87,2.17-4.35,3.25-7.45,3.25-2,0-3.95-.5-5.85-1.5v-3.75c1.7.93,3.4,1.4,5.1,1.4,2.13,0,3.8-.72,5-2.15s1.8-3.42,1.8-5.95v-17.05l4.35-2.3v19.05Z"/>
        <path class="cls-3" d="m381,186.25l2.1-4.05h8.9c1.33,0,2.27-.33,2.83-1,.55-.67.82-1.82.82-3.45,0-4.43-2.05-7.77-6.15-10l2.2-3.7c5.23,3.07,7.97,7.3,8.2,12.7.07,1.93.51,3.32,1.33,4.17.82.85,2.12,1.28,3.92,1.28h2.95v4.05h-3.3c-2.77,0-4.93-.88-6.5-2.65-1.1,1.77-2.95,2.65-5.55,2.65h-11.75Z"/>
        <path class="cls-3" d="m405.1,186.25v-4.05h8.8v4.05h-8.8Z"/>
        <path class="cls-3" d="m410.9,186.25v-4.05h8.8v4.05h-8.8Z"/>
        <path class="cls-3" d="m416.7,186.25v-4.05h8.8v4.05h-8.8Z"/>
        <path class="cls-3" d="m422.5,186.25v-4.05h6.85c6.77,0,12.12-2.23,16.05-6.7-2.77-5.1-6.13-7.65-10.1-7.65-2.7,0-5.48,1.43-8.35,4.3v-4c2.8-2.83,5.77-4.25,8.9-4.25,2.57,0,5.05.92,7.45,2.77,2.4,1.85,4.52,4.49,6.35,7.93v2.2c-4.9,6.3-11.68,9.45-20.35,9.45h-6.8Z"/>
        <path class="cls-3" d="m454,153.3l1.15-2.15h1.35c-.33-.6-.5-1.22-.5-1.85,0-1,.37-1.86,1.1-2.57.73-.72,1.6-1.07,2.6-1.07.83,0,1.63.27,2.4.8v2.2c-.73-.57-1.43-.85-2.1-.85-1.23,0-1.85.55-1.85,1.65,0,.57.23,1.13.7,1.7h4.55l-1.15,2.15h-8.25Zm2.65,32.95v-27.95l4.3-2.3v30.25h-4.3Z"/>
        <path class="cls-3" d="m489.66,186.25c-2.9,0-5.13-.93-6.7-2.8-1.33-1.6-2-3.63-2-6.1v-21.05l4.3-2.3v23.2c0,3.33,1.63,5,4.9,5h3.3v4.05h-3.8Z"/>
        <path class="cls-3" d="m494.21,156.5l1.5-3.2,10.7-1.95-1.5,3.2-10.7,1.95Zm.85-5.05l1.5-3.25,10.65-1.9-1.5,3.2-10.65,1.95Z"/>
        <path class="cls-3" d="m507.86,182.2h3.3v4.05h-3.8c-2.77,0-4.95-.88-6.55-2.65-1.6,1.77-3.78,2.65-6.55,2.65h-3.8v-4.05h3.3c3.27,0,4.9-1.67,4.9-5v-10.35l4.3-2.3v12.65c0,3.33,1.63,5,4.9,5Zm-11.95,9.05c1.6,0,2.4.83,2.4,2.5s-.8,2.45-2.4,2.45-2.45-.82-2.45-2.45.82-2.5,2.45-2.5Zm6.35,0c1.6,0,2.4.83,2.4,2.5s-.8,2.45-2.4,2.45-2.45-.82-2.45-2.45.82-2.5,2.45-2.5Z"/>
        <path class="cls-3" d="m508.16,186.25v-4.05h3.3c3.27,0,4.9-1.67,4.9-5v-10.35l4.3-2.3v12.8c0,2.83-.85,5.07-2.55,6.7-1.57,1.47-3.62,2.2-6.15,2.2h-3.8Zm3.85-27.75c-1.63,0-2.45-.83-2.45-2.5s.82-2.45,2.45-2.45,2.4.82,2.4,2.45-.8,2.5-2.4,2.5Zm3.15-5.95c-1.47,0-2.2-.75-2.2-2.25s.73-2.2,2.2-2.2,2.2.73,2.2,2.2-.73,2.25-2.2,2.25Zm3.2,5.95c-1.63,0-2.45-.83-2.45-2.5s.82-2.45,2.45-2.45,2.4.82,2.4,2.45-.8,2.5-2.4,2.5Z"/>
        <path class="cls-3" d="m529.66,186.25v-29.95l4.3-2.3v32.25h-4.3Z"/>
        <path class="cls-3" d="m538.96,186.25l2.1-4.05h8.9c1.33,0,2.27-.33,2.83-1,.55-.67.82-1.82.82-3.45,0-4.43-2.05-7.77-6.15-10l2.2-3.7c5.23,3.07,7.97,7.3,8.2,12.7.07,1.93.51,3.32,1.33,4.17.82.85,2.12,1.28,3.92,1.28h2.95v4.05h-3.3c-2.77,0-4.93-.88-6.5-2.65-1.1,1.77-2.95,2.65-5.55,2.65h-11.75Z"/>
        <path class="cls-3" d="m563.06,186.25v-4.05h6.85c6.77,0,12.12-2.23,16.05-6.7-2.77-5.1-6.13-7.65-10.1-7.65-2.7,0-5.48,1.43-8.35,4.3v-4c2.8-2.83,5.77-4.25,8.9-4.25,2.57,0,5.05.92,7.45,2.77,2.4,1.85,4.52,4.49,6.35,7.93v2.2c-4.9,6.3-11.68,9.45-20.35,9.45h-6.8Z"/>
        <path class="cls-3" d="m594.56,198.7l1.15-2.15h1.35c-.33-.6-.5-1.23-.5-1.9,0-.97.37-1.81,1.1-2.53.73-.72,1.6-1.08,2.6-1.08.83,0,1.63.27,2.4.8v2.2c-.73-.57-1.43-.85-2.1-.85-1.23,0-1.85.55-1.85,1.65,0,.57.23,1.13.7,1.7h4.55l-1.15,2.15h-8.25Zm2.65-12.45v-29.95l4.3-2.3v32.25h-4.3Z"/>
        <path class="cls-3" d="m646.48,183.55c0,3.83-1.33,6.88-4,9.15-2.37,2.03-5.4,3.05-9.1,3.05-4.33,0-7.7-1.53-10.1-4.6-1.83-2.37-2.75-5.17-2.75-8.4,0-2.8.7-5.2,2.1-7.2l4.15-.9c-1.5,2.37-2.25,4.92-2.25,7.65s.87,5.1,2.6,6.9c1.63,1.67,3.72,2.5,6.25,2.5,2.93,0,5.2-.85,6.8-2.55,1.33-1.43,2-3.3,2-5.6v-16.7l4.3-2.3v19Zm-13.1-19.45c-1.63,0-2.45-.83-2.45-2.5s.82-2.45,2.45-2.45,2.4.82,2.4,2.45-.8,2.5-2.4,2.5Z"/>
        <path class="cls-3" d="m664.18,186.25c-2.9,0-5.13-.93-6.7-2.8-1.33-1.6-2-3.63-2-6.1v-21.05l4.3-2.3v23.2c0,3.33,1.63,5,4.9,5h3.3v4.05h-3.8Z"/>
        <path class="cls-3" d="m674.83,165.1h.3c3.77,0,6.82,1.17,9.15,3.5,2.13,2.1,3.2,4.78,3.2,8.05v.85c0,2.87-.88,5.1-2.65,6.7-1.57,1.37-3.58,2.05-6.05,2.05h-13.8v-4.05h13.4c3.2,0,4.8-1.68,4.8-5.05v-.45c0-2.47-.97-4.37-2.9-5.7-1.53-1.03-3.4-1.55-5.6-1.55-1.77,0-3.55.32-5.35.95v-4.25l10.95-12.15h4.4l-9.85,11.1Z"/>
        <path class="cls-3" d="m706,186.25v-29.95l4.3-2.3v32.25h-4.3Z"/>
        <path class="cls-3" d="m715.3,186.25l2.1-4.05h8.9c1.33,0,2.27-.33,2.83-1,.55-.67.82-1.82.82-3.45,0-4.47-2.02-7.85-6.05-10.15l2.1-3.55c5.5,3.13,8.25,7.72,8.25,13.75,0,5.63-2.4,8.45-7.2,8.45h-11.75Zm10.85-27.75c-1.63,0-2.45-.83-2.45-2.5s.82-2.45,2.45-2.45,2.4.82,2.4,2.45-.8,2.5-2.4,2.5Z"/>
        <path class="cls-3" d="m741.55,198.7l1.15-2.15h1.35c-.33-.6-.5-1.23-.5-1.9,0-.97.37-1.81,1.1-2.53.73-.72,1.6-1.08,2.6-1.08.83,0,1.63.27,2.4.8v2.2c-.73-.57-1.43-.85-2.1-.85-1.23,0-1.85.55-1.85,1.65,0,.57.23,1.13.7,1.7h4.55l-1.15,2.15h-8.25Zm9.4-12.45c-2.9,0-5.13-.93-6.7-2.8-1.33-1.6-2-3.63-2-6.1v-21.05l4.3-2.3v23.2c0,3.33,1.63,5,4.9,5h3.3v4.05h-3.8Z"/>
        <path class="cls-3" d="m751.75,186.25v-4.05h8.8v4.05h-8.8Z"/>
        <path class="cls-3" d="m757.55,186.25v-4.05h8.8v4.05h-8.8Z"/>
        <path class="cls-3" d="m763.35,186.25v-4.05h8.8v4.05h-8.8Z"/>
        <path class="cls-3" d="m769.15,186.25v-4.05h9c-1.53-1.7-2.3-4.07-2.3-7.1,0-3.63.95-6.47,2.85-8.5,1.67-1.8,3.88-2.7,6.65-2.7s5.03.88,6.6,2.65c1.33,1.57,2,3.62,2,6.15v4.75c-.03,2.77-.85,4.95-2.45,6.55-1.57,1.5-3.65,2.25-6.25,2.25h-16.1Zm20.5-13.35c0-3.33-1.43-5-4.3-5-1.63,0-2.92.62-3.85,1.88-.93,1.25-1.4,2.99-1.4,5.22s.45,3.95,1.35,5.25c.9,1.3,2.1,1.95,3.6,1.95,3.07,0,4.6-1.6,4.6-4.8v-4.5Zm-4.2-14.1c-1.63,0-2.45-.83-2.45-2.5s.82-2.45,2.45-2.45,2.4.82,2.4,2.45-.8,2.5-2.4,2.5Z"/>
        <path class="cls-3" d="m815.62,180.4c1.83,0,2.78.95,2.85,2.85,0,.93-.29,1.71-.88,2.32-.58.62-1.34.93-2.27.93-2.07,0-3.1-1.27-3.1-3.8v-6.45l2.1-.6.05,4.75h1.25Z"/>
        <path class="cls-3" d="m837.97,182.2h3.3v4.05h-3.8c-1.7,0-3.17-.33-4.4-1-.3,3.3-1.45,5.93-3.45,7.9-1.83,1.8-4.13,2.7-6.9,2.7-2,0-3.95-.5-5.85-1.5v-3.75c1.7.93,3.4,1.4,5.1,1.4,2.13,0,3.8-.72,5-2.15s1.8-3.42,1.8-5.95v-17.05l4.3-2.3v.05l.05-.05v13.65c.3,2.67,1.92,4,4.85,4Z"/>
        <path class="cls-3" d="m838.27,186.25v-4.05h8.8v4.05h-8.8Z"/>
        <path class="cls-3" d="m844.07,186.25v-4.05h8.8v4.05h-8.8Z"/>
        <path class="cls-3" d="m849.86,186.25v-4.05h8.8v4.05h-8.8Z"/>
        <path class="cls-3" d="m873.06,182.2h3.3v4.05h-3.8c-2.77,0-4.95-.88-6.55-2.65-1.6,1.77-3.78,2.65-6.55,2.65h-3.8v-4.05h3.3c3.27,0,4.9-1.67,4.9-5v-10.35l4.3-2.3v12.65c0,3.33,1.63,5,4.9,5Zm-11.95,9.05c1.6,0,2.4.83,2.4,2.5s-.8,2.45-2.4,2.45-2.45-.82-2.45-2.45.82-2.5,2.45-2.5Zm6.35,0c1.6,0,2.4.83,2.4,2.5s-.8,2.45-2.4,2.45-2.45-.82-2.45-2.45.82-2.5,2.45-2.5Z"/>
        <path class="cls-3" d="m890.76,182.2h3.3v4.05h-3.8c-2.77,0-4.95-.88-6.55-2.65-1.6,1.77-3.78,2.65-6.55,2.65h-3.8v-4.05h3.3c3.27,0,4.9-1.67,4.9-5v-10.35l4.3-2.3v12.65c0,3.33,1.63,5,4.9,5Zm-7.35,9.05c1.6,0,2.4.82,2.4,2.45s-.8,2.5-2.4,2.5-2.45-.83-2.45-2.5.82-2.45,2.45-2.45Z"/>
        <path class="cls-3" d="m918.42,182.2h2.85v4.05h-3.3c-2.8,0-4.98-.87-6.55-2.6-1.57,1.73-3.75,2.6-6.55,2.6h-13.8v-4.05h13.4c3.2,0,4.8-1.68,4.8-5.05v-.45c0-2.5-.97-4.4-2.9-5.7-1.53-1.07-3.42-1.6-5.65-1.6-1.77,0-3.53.33-5.3,1v-4.25l10.95-12.15h4.4l-9.85,11.1h.3c3.8,0,6.87,1.15,9.2,3.45,2.1,2.13,3.15,4.83,3.15,8.1v.55c0,3.33,1.62,5,4.85,5Z"/>
        <path class="cls-3" d="m935.66,182.2h3.3v4.05h-3.8c-2.77,0-4.95-.88-6.55-2.65-1.6,1.77-3.78,2.65-6.55,2.65h-3.8v-4.05h3.3c3.27,0,4.9-1.67,4.9-5v-10.35l4.3-2.3v12.65c0,3.33,1.63,5,4.9,5Zm-11.8-23.35c-1.63,0-2.45-.83-2.45-2.5s.82-2.45,2.45-2.45,2.4.82,2.4,2.45-.8,2.5-2.4,2.5Zm6.4,0c-1.63,0-2.45-.83-2.45-2.5s.82-2.45,2.45-2.45,2.4.82,2.4,2.45-.8,2.5-2.4,2.5Z"/>
        <path class="cls-3" d="m953.01,182.2h3.3v4.05h-3.8c-2.87,0-5.08-.92-6.65-2.75-1.67,1.83-3.97,2.75-6.9,2.75h-3v-4.05h2.65c3.47,0,5.2-1.82,5.2-5.45v-20.45l4.35-2.3v22.8c0,1.93.38,3.32,1.12,4.15.75.83,1.99,1.25,3.72,1.25Z"/>
        <path class="cls-3" d="m953.32,186.25v-4.05h2.65c3.47,0,5.2-1.82,5.2-5.45v-20.45l4.35-2.3v22.8c0,2.97-.88,5.32-2.65,7.05-1.67,1.6-3.85,2.4-6.55,2.4h-3Z"/>
        <path class="cls-3" d="m997.78,182.2h3.3v4.05h-3.8c-1.7,0-3.17-.33-4.4-1-.3,3.3-1.45,5.93-3.45,7.9-1.83,1.8-4.13,2.7-6.9,2.7-2,0-3.95-.5-5.85-1.5v-3.75c1.7.93,3.4,1.4,5.1,1.4,2.13,0,3.8-.72,5-2.15s1.8-3.42,1.8-5.95v-17.05l4.3-2.3v.05l.05-.05v13.65c.3,2.67,1.92,4,4.85,4Zm-7.75-23.7c-1.63,0-2.45-.83-2.45-2.5s.82-2.45,2.45-2.45,2.4.82,2.4,2.45-.8,2.5-2.4,2.5Z"/>
        <path class="cls-3" d="m998.08,186.25v-4.05h8.8v4.05h-8.8Z"/>
        <path class="cls-3" d="m1003.88,186.25v-4.05h8.8v4.05h-8.8Z"/>
        <path class="cls-3" d="m1009.68,186.25v-4.05h8.8v4.05h-8.8Z"/>
        <path class="cls-3" d="m1025.33,165.1h.3c3.77,0,6.82,1.17,9.15,3.5,2.13,2.1,3.2,4.78,3.2,8.05v.85c0,2.87-.88,5.1-2.65,6.7-1.57,1.37-3.58,2.05-6.05,2.05h-13.8v-4.05h13.4c3.2,0,4.8-1.68,4.8-5.05v-.45c0-2.47-.97-4.37-2.9-5.7-1.53-1.03-3.4-1.55-5.6-1.55-1.77,0-3.55.32-5.35.95v-4.25l10.95-12.15h4.4l-9.85,11.1Z"/>
        <path class="cls-3" d="m1057.73,182.2h3.3v4.05h-3.8c-1.7,0-3.17-.33-4.4-1-.3,3.3-1.45,5.93-3.45,7.9-1.83,1.8-4.13,2.7-6.9,2.7-2,0-3.95-.5-5.85-1.5v-3.75c1.7.93,3.4,1.4,5.1,1.4,2.13,0,3.8-.72,5-2.15s1.8-3.42,1.8-5.95v-17.05l4.3-2.3v.05l.05-.05v13.65c.3,2.67,1.92,4,4.85,4Z"/>
        <path class="cls-3" d="m1090.23,182.2h3.35v4.05h-3.8c-2.77,0-4.95-.88-6.55-2.65-1.7,2.43-4.18,3.65-7.45,3.65s-5.73-1.2-7.4-3.6c-1.57,1.73-3.75,2.6-6.55,2.6h-3.8v-4.05h3.3c3.27,0,4.9-1.67,4.9-5v-1.65c0-3.87.95-6.83,2.85-8.9,1.67-1.83,3.9-2.75,6.7-2.75,3.2,0,5.67,1.18,7.4,3.55,1.47,2.03,2.2,4.73,2.2,8.1v1.65c0,3.33,1.62,5,4.85,5Zm-14.45,1c1.63,0,2.92-.68,3.88-2.05s1.42-3.25,1.42-5.65c0-5.07-1.77-7.6-5.3-7.6s-5.25,2.53-5.25,7.6,1.75,7.7,5.25,7.7Z"/>
        <path class="cls-3" d="m1100.43,165.1h.3c3.77,0,6.82,1.17,9.15,3.5,2.13,2.1,3.2,4.78,3.2,8.05v.85c0,2.87-.88,5.1-2.65,6.7-1.57,1.37-3.58,2.05-6.05,2.05h-13.8v-4.05h13.4c3.2,0,4.8-1.68,4.8-5.05v-.45c0-2.47-.97-4.37-2.9-5.7-1.53-1.03-3.4-1.55-5.6-1.55-1.77,0-3.55.32-5.35.95v-4.25l10.95-12.15h4.4l-9.85,11.1Z"/>
        <path class="cls-3" d="m1162.4,182.2h3.3v4.05h-3.8c-1.8,0-3.42-.4-4.85-1.2-.47,3.43-2.02,6.13-4.65,8.1-2.33,1.73-5.22,2.6-8.65,2.6-4.47,0-7.92-1.5-10.35-4.5-1.87-2.33-2.8-5.12-2.8-8.35,0-2.83.68-5.25,2.05-7.25l4.3-.95c-1.53,2.37-2.3,4.95-2.3,7.75s.88,5.03,2.65,6.8c1.63,1.63,3.78,2.45,6.45,2.45,3.03,0,5.37-.9,7-2.7,1.4-1.53,2.1-3.5,2.1-5.9v-26.8l4.35-2.3v23.2c0,3.33,1.73,5,5.2,5Z"/>
        <path class="cls-3" d="m1178.45,182.05c1.33-5.03,3.53-9.23,6.6-12.6,3.43-3.7,7.43-5.55,12-5.55,3.8,0,6.83,1.32,9.1,3.95,1.9,2.23,2.85,4.98,2.85,8.25v1.3c0,2.9-.88,5.15-2.65,6.75-1.53,1.4-3.55,2.1-6.05,2.1h-20.7c-2.77,0-4.95-.88-6.55-2.65-1.6,1.77-3.78,2.65-6.55,2.65h-3.8v-4.05h3.3c3.27,0,4.9-1.67,4.9-5v-7l4.3-2.3v9.3c0,2.8,1.08,4.42,3.25,4.85Zm26.25-5.05v-.9c0-2.6-.8-4.67-2.4-6.2-1.4-1.33-3.13-2-5.2-2-3.53,0-6.72,1.63-9.55,4.9-2.17,2.5-3.83,5.63-5,9.4h17.5c3.1,0,4.65-1.73,4.65-5.2Z"/>
        <path class="cls-3" d="m1235.55,156.3l4.35-2.3v22.8c0,2.97-.88,5.32-2.65,7.05-1.67,1.6-3.85,2.4-6.55,2.4h-17.2l2.1-4.05h7.3v-19.4l4.3-2.3v21.7h3.15c3.47,0,5.2-1.82,5.2-5.45v-20.45Zm-6.2-1.75l-1.15,2.15h-8.25l1.15-2.15h1.35c-.33-.6-.5-1.23-.5-1.9,0-.97.37-1.81,1.1-2.53.73-.72,1.6-1.08,2.6-1.08.83,0,1.63.27,2.4.8v2.2c-.73-.57-1.43-.85-2.1-.85-1.23,0-1.85.55-1.85,1.65,0,.57.23,1.13.7,1.7h4.55Z"/>
        <path class="cls-3" d="m1248.9,186.25v-29.95l4.3-2.3v32.25h-4.3Z"/>
        <path class="cls-3" d="m1293.22,182.2h3.3v4.05h-3.8c-3.43,0-5.9-1.27-7.4-3.8-1.6,1.53-3.58,2.3-5.95,2.3-2.93,0-5.27-1.1-7-3.3-1.43-1.87-2.15-4.15-2.15-6.85,0-3.23.98-5.83,2.95-7.8,1.67-1.7,3.7-2.55,6.1-2.55,1.83,0,3.42.47,4.75,1.4v-2.15l4.35-2.3v16c0,3.33,1.62,5,4.85,5Zm-9.2-11.9c-1.23-1.37-2.75-2.05-4.55-2.05-1.47,0-2.67.59-3.6,1.78-.93,1.18-1.4,2.72-1.4,4.62s.47,3.48,1.4,4.65c.93,1.17,2.15,1.75,3.65,1.75,1.87,0,3.4-.77,4.6-2.3-.07-.6-.1-1.07-.1-1.4v-7.05Zm-6.45-12.3c-1.63,0-2.45-.83-2.45-2.5s.82-2.45,2.45-2.45,2.4.82,2.4,2.45-.8,2.5-2.4,2.5Zm6.35,0c-1.63,0-2.45-.83-2.45-2.5s.82-2.45,2.45-2.45,2.4.82,2.4,2.45-.8,2.5-2.4,2.5Z"/>
        <path class="cls-3" d="m1293.52,186.25v-4.05h8.8v4.05h-8.8Z"/>
        <path class="cls-3" d="m1299.32,186.25v-4.05h8.8v4.05h-8.8Z"/>
        <path class="cls-3" d="m1305.12,186.25v-4.05h8.8v4.05h-8.8Z"/>
        <path class="cls-3" d="m1355.62,182.2h3.3v4.05h-3.8c-2.67,0-4.75-.78-6.25-2.35-1.37,1.57-3.3,2.35-5.8,2.35h-32.15v-4.05h9.3l.15-.55v-25.35l4.3-2.3v18.3c3.8-5.6,8.52-8.4,14.15-8.4,3.77,0,6.78,1.32,9.05,3.95,1.93,2.23,2.9,4.98,2.9,8.25v1.2c0,3.27,1.62,4.9,4.85,4.9Zm-9.2-4.7v-1.4c0-2.6-.8-4.67-2.4-6.2-1.37-1.33-3.08-2-5.15-2-3.43,0-6.53,1.55-9.3,4.65-2.07,2.33-3.7,5.25-4.9,8.75v.9h18.05c1.43,0,2.41-.33,2.93-1,.52-.67.77-1.9.77-3.7Z"/>
        <path class="cls-3" d="m1377.77,182.2h9.3v4.05h-12.2c-1.3,0-2.43-.12-3.4-.35-.93.23-2.07.35-3.4.35h-12.15v-4.05h9.3c-2.07-2.37-3.1-4.98-3.1-7.85,0-3.27.92-5.87,2.75-7.8,1.67-1.77,3.87-2.65,6.6-2.65,3.13,0,5.55,1.13,7.25,3.4,1.43,1.87,2.15,4.22,2.15,7.05s-1.03,5.48-3.1,7.85Zm-9.45-23.35c-1.63,0-2.45-.83-2.45-2.5s.82-2.45,2.45-2.45,2.4.82,2.4,2.45-.8,2.5-2.4,2.5Zm3.2,22.9c1.53-.53,2.78-1.51,3.75-2.93.97-1.42,1.45-2.97,1.45-4.67,0-1.93-.47-3.46-1.42-4.58-.95-1.12-2.23-1.67-3.83-1.67s-2.88.57-3.82,1.7c-.95,1.13-1.43,2.65-1.43,4.55,0,1.67.5,3.22,1.5,4.65,1,1.43,2.27,2.42,3.8,2.95Zm3.15-22.9c-1.63,0-2.45-.83-2.45-2.5s.82-2.45,2.45-2.45,2.4.82,2.4,2.45-.8,2.5-2.4,2.5Z"/>
        <path class="cls-3" d="m1384.07,186.25v-4.05h3.3c3.27,0,4.9-1.67,4.9-5v-10.35l4.3-2.3v12.8c0,2.83-.85,5.07-2.55,6.7-1.57,1.47-3.62,2.2-6.15,2.2h-3.8Zm10.2-27.75c-1.63,0-2.45-.83-2.45-2.5s.82-2.45,2.45-2.45,2.4.82,2.4,2.45-.8,2.5-2.4,2.5Z"/>
        <path class="cls-3" d="m1059.27,248.85v-.1c.07-1.67.95-2.5,2.65-2.5s2.65.87,2.65,2.6-.88,2.65-2.65,2.65-2.65-.88-2.65-2.65Zm0,12v-.1c.07-1.67.95-2.5,2.65-2.5s2.65.87,2.65,2.6-.88,2.65-2.65,2.65-2.65-.88-2.65-2.65Z"/>
        <path class="cls-3" d="m1079.87,263.25c-2.7,0-4.82-.9-6.35-2.7-1.33-1.57-2-3.62-2-6.15v-6.05l4.3-2.3v7.95c0,3.47,1.62,5.2,4.85,5.2h16.6c3.23,0,4.85-1.73,4.85-5.2v-10.15l4.3-2.3v12.85c0,2.9-.88,5.15-2.65,6.75-1.57,1.4-3.58,2.1-6.05,2.1h-17.85Zm8.25,9.95c-1.63,0-2.45-.83-2.45-2.5s.82-2.45,2.45-2.45,2.4.82,2.4,2.45-.8,2.5-2.4,2.5Z"/>
        <path class="cls-3" d="m1138.77,259.2v4.05h-6.2c-.13,2.87-1.37,5.23-3.7,7.1-1.97,1.53-4.2,2.3-6.7,2.3-2.07,0-4.02-.48-5.85-1.45v-3.8c1.77.93,3.52,1.4,5.25,1.4s3.31-.55,4.62-1.65c1.32-1.1,1.99-2.42,2.02-3.95-1.73-.07-3.02-.13-3.85-.2-3.6-.2-6.32-1.42-8.15-3.65-1.53-1.87-2.3-4.28-2.3-7.25,0-3.63.97-6.47,2.9-8.5,1.73-1.8,4.02-2.7,6.85-2.7s5.25.88,6.85,2.65c1.37,1.57,2.05,3.62,2.05,6.15v9.5h6.2Zm-10.55-9.2c0-3.4-1.52-5.1-4.55-5.1-1.73,0-3.08.62-4.05,1.88-.97,1.25-1.45,2.99-1.45,5.22,0,4.37,2.13,6.68,6.4,6.95.8.1,2.02.18,3.65.25v-9.2Z"/>
        <path class="cls-3" d="m1152.82,259.2h3.3v4.05h-3.8c-2.87,0-5.08-.92-6.65-2.75-1.67,1.83-3.97,2.75-6.9,2.75h-3v-4.05h2.65c3.47,0,5.2-1.82,5.2-5.45v-20.45l4.35-2.3v22.8c0,1.93.38,3.32,1.12,4.15.75.83,1.99,1.25,3.72,1.25Z"/>
        <path class="cls-3" d="m1197.82,259.2h3.3v4.05h-3.8c-2.67,0-4.75-.78-6.25-2.35-1.37,1.57-3.3,2.35-5.8,2.35h-32.15v-4.05h9.3l.15-.55v-25.35l4.3-2.3v18.3c3.8-5.6,8.52-8.4,14.15-8.4,3.77,0,6.78,1.32,9.05,3.95,1.93,2.23,2.9,4.98,2.9,8.25v1.2c0,3.27,1.62,4.9,4.85,4.9Zm-9.2-4.7v-1.4c0-2.6-.8-4.67-2.4-6.2-1.37-1.33-3.08-2-5.15-2-3.43,0-6.53,1.55-9.3,4.65-2.07,2.33-3.7,5.25-4.9,8.75v.9h18.05c1.43,0,2.41-.33,2.93-1,.52-.67.77-1.9.77-3.7Z"/>
        <path class="cls-3" d="m1230.32,259.2h3.35v4.05h-3.8c-2.77,0-4.95-.88-6.55-2.65-1.7,2.43-4.18,3.65-7.45,3.65s-5.73-1.2-7.4-3.6c-1.57,1.73-3.75,2.6-6.55,2.6h-3.8v-4.05h3.3c3.27,0,4.9-1.67,4.9-5v-1.65c0-3.87.95-6.83,2.85-8.9,1.67-1.83,3.9-2.75,6.7-2.75,3.2,0,5.67,1.18,7.4,3.55,1.47,2.03,2.2,4.73,2.2,8.1v1.65c0,3.33,1.62,5,4.85,5Zm-14.45,1c1.63,0,2.92-.68,3.88-2.05s1.42-3.25,1.42-5.65c0-5.07-1.77-7.6-5.3-7.6s-5.25,2.53-5.25,7.6,1.75,7.7,5.25,7.7Z"/>
        <path class="cls-3" d="m1230.67,263.25v-4.05h2.65c3.47,0,5.2-1.82,5.2-5.45v-20.45l4.35-2.3v22.8c0,2.97-.88,5.32-2.65,7.05-1.67,1.6-3.85,2.4-6.55,2.4h-3Z"/>
        <path class="cls-3" d="m1251.87,263.25v-29.95l4.3-2.3v32.25h-4.3Z"/>
        <path class="cls-3" d="m1284.02,231h3.85c-4.47,6.07-6.7,12.55-6.7,19.45,0,3.47.63,7.07,1.9,10.8,1.27,3.73,2.87,6.73,4.8,9h-3.85c-1.97-1.87-3.65-4.73-5.05-8.6-1.4-3.87-2.1-7.6-2.1-11.2s.68-7.03,2.03-10.7c1.35-3.67,3.06-6.58,5.12-8.75Z"/>
        <path class="cls-3" d="m1304.97,231.6v31.65h-4.65v-26.55l-5.85,3.4-2.25-3.45,8.1-5.05h4.65Z"/>
        <path class="cls-3" d="m1326.62,246.6c4.37,1.3,6.55,4.05,6.55,8.25,0,2.87-1.17,5.15-3.5,6.85-1.93,1.43-4.3,2.15-7.1,2.15-3.23,0-5.87-.93-7.9-2.8-1.8-1.63-2.7-3.7-2.7-6.2,0-2.03.63-3.82,1.9-5.38,1.27-1.55,2.88-2.53,4.85-2.93-3.73-1.27-5.6-3.55-5.6-6.85,0-2.8,1.02-5,3.05-6.6,1.73-1.4,3.92-2.1,6.55-2.1,2.9,0,5.28.9,7.15,2.7,1.67,1.6,2.5,3.6,2.5,6,0,1.53-.52,2.92-1.55,4.15-1.03,1.23-2.43,2.15-4.2,2.75Zm-3.95,1.55c-1.63.13-3.01.82-4.12,2.07-1.12,1.25-1.68,2.74-1.68,4.47,0,1.63.52,2.93,1.55,3.9,1.03.97,2.42,1.45,4.15,1.45s3.07-.49,4.12-1.47c1.05-.98,1.57-2.28,1.57-3.88,0-1.7-.53-3.17-1.6-4.42-1.07-1.25-2.4-1.96-4-2.12Zm0-3.3c3.33-.97,5-2.73,5-5.3,0-1.4-.45-2.54-1.35-3.42s-2.07-1.33-3.5-1.33c-3.33,0-5,1.58-5,4.75,0,2.47,1.62,4.23,4.85,5.3Z"/>
        <path class="cls-3" d="m1351.02,268.4l-1-1.95c1.3-.83,1.95-1.77,1.95-2.8v-.2c-.13.07-.28.1-.45.1-.57,0-1.06-.24-1.48-.72-.42-.48-.62-1.06-.62-1.72,0-.77.25-1.41.75-1.93.5-.52,1.12-.77,1.85-.77,2,0,3,1.4,3,4.2,0,1.3-.37,2.48-1.1,3.55-.73,1.07-1.7,1.82-2.9,2.25Z"/>
        <path class="cls-3" d="m1364.62,245c1.47-1.6,3.42-2.4,5.85-2.4,2.6,0,4.83.87,6.7,2.6,2,1.87,3,4.48,3,7.85,0,2.9-.95,5.43-2.85,7.6-1.87,2.13-4.27,3.2-7.2,3.2-3.9,0-6.75-1.82-8.55-5.45-1.3-2.6-1.95-5.85-1.95-9.75,0-5.83,1.12-10.3,3.35-13.4,2.03-2.83,4.83-4.25,8.4-4.25,3.03,0,5.58.9,7.65,2.7l-1.65,2.75c-1.73-.97-3.67-1.45-5.8-1.45s-3.68.9-4.93,2.7c-1.25,1.8-1.92,4.23-2.02,7.3Zm-.25,3.85c.13,7.47,2.03,11.2,5.7,11.2,1.53,0,2.78-.66,3.75-1.97.97-1.32,1.45-2.99,1.45-5.03,0-4.5-1.87-6.75-5.6-6.75-2.2,0-3.97.85-5.3,2.55Z"/>
        <path class="cls-3" d="m1385.52,231h3.85c2.07,2.17,3.77,5.08,5.12,8.75,1.35,3.67,2.02,7.23,2.02,10.7,0,4.87-1.08,9.52-3.25,13.95-1.3,2.7-2.6,4.65-3.9,5.85h-3.85c1.93-2.27,3.53-5.27,4.8-9,1.27-3.73,1.9-7.33,1.9-10.8,0-6.9-2.23-13.38-6.7-19.45Z"/>
      </g>
      <g>
        <g>
          <path class="cls-3" d="m1117.72,362.17h2.9v3.56h-3.34c-1.5,0-2.79-.29-3.87-.88-.26,2.9-1.28,5.22-3.04,6.95-1.61,1.58-3.64,2.38-6.07,2.38-1.76,0-3.48-.44-5.15-1.32v-3.3c1.5.82,2.99,1.23,4.49,1.23,1.88,0,3.34-.63,4.4-1.89,1.06-1.26,1.58-3.01,1.58-5.24v-15l3.78-2.02v.04l.04-.04v12.01c.26,2.35,1.69,3.52,4.27,3.52Z"/>
          <path class="cls-3" d="m1133.29,362.17h2.9v3.56h-3.34c-2.44,0-4.36-.78-5.76-2.33-1.41,1.55-3.33,2.33-5.76,2.33h-3.34v-3.56h2.9c2.87,0,4.31-1.47,4.31-4.4v-9.11l3.78-2.02v11.13c0,2.93,1.44,4.4,4.31,4.4Zm-10.52,7.96c1.41,0,2.11.73,2.11,2.2s-.7,2.16-2.11,2.16-2.16-.72-2.16-2.16.72-2.2,2.16-2.2Zm5.59,0c1.41,0,2.11.73,2.11,2.2s-.7,2.16-2.11,2.16-2.16-.72-2.16-2.16.72-2.2,2.16-2.2Z"/>
          <path class="cls-3" d="m1148.87,362.17h2.9v3.56h-3.34c-2.44,0-4.36-.78-5.76-2.33-1.41,1.55-3.33,2.33-5.76,2.33h-3.34v-3.56h2.9c2.87,0,4.31-1.47,4.31-4.4v-9.11l3.78-2.02v11.13c0,2.93,1.44,4.4,4.31,4.4Zm-6.47,7.96c1.41,0,2.11.72,2.11,2.16s-.7,2.2-2.11,2.2-2.16-.73-2.16-2.2.72-2.16,2.16-2.16Z"/>
          <path class="cls-3" d="m1173.2,362.17h2.51v3.56h-2.9c-2.46,0-4.39-.76-5.76-2.29-1.38,1.53-3.3,2.29-5.76,2.29h-12.14v-3.56h11.79c2.82,0,4.22-1.48,4.22-4.44v-.4c0-2.2-.85-3.87-2.55-5.02-1.35-.94-3.01-1.41-4.97-1.41-1.56,0-3.11.29-4.66.88v-3.74l9.64-10.69h3.87l-8.67,9.77h.26c3.34,0,6.04,1.01,8.1,3.04,1.85,1.88,2.77,4.25,2.77,7.13v.48c0,2.93,1.42,4.4,4.27,4.4Z"/>
          <path class="cls-3" d="m1188.38,362.17h2.9v3.56h-3.34c-2.44,0-4.36-.78-5.76-2.33-1.41,1.55-3.33,2.33-5.76,2.33h-3.34v-3.56h2.9c2.87,0,4.31-1.47,4.31-4.4v-9.11l3.78-2.02v11.13c0,2.93,1.44,4.4,4.31,4.4Zm-10.38-20.55c-1.44,0-2.16-.73-2.16-2.2s.72-2.16,2.16-2.16,2.11.72,2.11,2.16-.7,2.2-2.11,2.2Zm5.63,0c-1.44,0-2.16-.73-2.16-2.2s.72-2.16,2.16-2.16,2.11.72,2.11,2.16-.7,2.2-2.11,2.2Z"/>
          <path class="cls-3" d="m1188.65,365.74v-3.56h2.33c3.05,0,4.58-1.6,4.58-4.8v-18l3.83-2.02v20.06c0,2.61-.78,4.68-2.33,6.2-1.47,1.41-3.39,2.11-5.76,2.11h-2.64Z"/>
          <path class="cls-3" d="m1207.3,365.74v-26.36l3.78-2.02v28.38h-3.78Z"/>
          <path class="cls-3" d="m1256.36,362.17h2.9v3.56h-3.34c-1.58,0-3.01-.35-4.27-1.06-.41,3.02-1.77,5.4-4.09,7.13-2.05,1.52-4.59,2.29-7.61,2.29-3.93,0-6.97-1.32-9.11-3.96-1.64-2.05-2.46-4.5-2.46-7.35,0-2.49.6-4.62,1.8-6.38l3.78-.84c-1.35,2.08-2.02,4.36-2.02,6.82s.78,4.43,2.33,5.98c1.44,1.44,3.33,2.16,5.68,2.16,2.67,0,4.72-.79,6.16-2.38,1.23-1.35,1.85-3.08,1.85-5.19v-23.58l3.83-2.02v20.42c0,2.93,1.52,4.4,4.58,4.4Z"/>
          <path class="cls-3" d="m1263.84,353.81c0-2.55.76-4.53,2.29-5.94,1.35-1.2,3.11-1.8,5.28-1.8,2.79,0,4.93,1.03,6.42,3.08,1.29,1.73,1.94,3.99,1.94,6.78,0,3.17-.82,5.65-2.46,7.44-1.44,1.58-3.31,2.38-5.63,2.38-2.64,0-4.65-.73-6.03-2.2-1.41,1.47-3.3,2.2-5.68,2.2h-3.34v-3.56h2.9c2.87,0,4.31-1.47,4.31-4.4v-3.96Zm3.78,4.27c0,2.73,1.33,4.09,4,4.09,1.38,0,2.46-.56,3.23-1.67.78-1.11,1.17-2.67,1.17-4.66s-.41-3.5-1.23-4.6c-.82-1.1-1.95-1.65-3.39-1.65-2.52,0-3.78,1.47-3.78,4.4v4.09Z"/>
          <path class="cls-3" d="m1294.69,365.74c-2.55,0-4.52-.82-5.9-2.46-1.17-1.41-1.76-3.2-1.76-5.37v-18.52l3.78-2.02v20.42c0,2.93,1.44,4.4,4.31,4.4h2.9v3.56h-3.34Z"/>
          <path class="cls-3" d="m1317.13,362.17h11.62v3.56h-11.97c-1.58,0-3.15-.31-4.71-.92-1.56.62-3.14.92-4.75.92h-11.92v-3.56h12.23c-2.11-1.73-4.28-4.27-6.51-7.61v-1.94c1.41-2.02,3.09-3.62,5.04-4.8,1.95-1.17,3.91-1.76,5.87-1.76s3.93.59,5.9,1.78c1.96,1.19,3.67,2.81,5.1,4.86v1.85c-2.23,3.34-4.42,5.88-6.56,7.61h.66Zm-12.5-8.54c2.7,3.7,5.18,6.13,7.44,7.3,2.26-1.2,4.74-3.65,7.44-7.35-2.2-2.67-4.69-4.02-7.48-4.05-2.79,0-5.25,1.36-7.39,4.09Z"/>
          <path class="cls-3" d="m1333.32,353.81c0-2.55.76-4.53,2.29-5.94,1.35-1.2,3.11-1.8,5.28-1.8,2.79,0,4.93,1.03,6.42,3.08,1.29,1.73,1.94,3.99,1.94,6.78,0,3.17-.82,5.65-2.46,7.44-1.44,1.58-3.31,2.38-5.63,2.38-2.64,0-4.65-.73-6.03-2.2-1.41,1.47-3.3,2.2-5.68,2.2h-3.34v-3.56h2.9c2.87,0,4.31-1.47,4.31-4.4v-3.96Zm3.78,4.27c0,2.73,1.33,4.09,4,4.09,1.38,0,2.46-.56,3.23-1.67.78-1.11,1.17-2.67,1.17-4.66s-.41-3.5-1.23-4.6c-.82-1.1-1.95-1.65-3.39-1.65-2.52,0-3.78,1.47-3.78,4.4v4.09Z"/>
        </g>
        <g>
          <circle class="cls-2" cx="1379.89" cy="355.32" r="16.19"/>
          <circle class="cls-1" cx="1379.89" cy="355.32" r="13.23"/>
        </g>
      </g>
      <g>
        <g>
          <path class="cls-3" d="m879.2,438.03h2.9v3.56h-3.34c-1.5,0-2.79-.29-3.87-.88-.26,2.9-1.28,5.22-3.04,6.95-1.61,1.58-3.64,2.38-6.07,2.38-1.76,0-3.48-.44-5.15-1.32v-3.3c1.5.82,2.99,1.23,4.49,1.23,1.88,0,3.34-.63,4.4-1.89,1.06-1.26,1.58-3.01,1.58-5.24v-15l3.78-2.02v.04l.04-.04v12.01c.26,2.35,1.69,3.52,4.27,3.52Z"/>
          <path class="cls-3" d="m894.77,438.03h2.9v3.56h-3.34c-2.44,0-4.36-.78-5.76-2.33-1.41,1.55-3.33,2.33-5.76,2.33h-3.34v-3.56h2.9c2.87,0,4.31-1.47,4.31-4.4v-9.11l3.78-2.02v11.13c0,2.93,1.44,4.4,4.31,4.4Zm-10.52,7.96c1.41,0,2.11.73,2.11,2.2s-.7,2.16-2.11,2.16-2.16-.72-2.16-2.16.72-2.2,2.16-2.2Zm5.59,0c1.41,0,2.11.73,2.11,2.2s-.7,2.16-2.11,2.16-2.16-.72-2.16-2.16.72-2.2,2.16-2.2Z"/>
          <path class="cls-3" d="m910.35,438.03h2.9v3.56h-3.34c-2.44,0-4.36-.78-5.76-2.33-1.41,1.55-3.33,2.33-5.76,2.33h-3.34v-3.56h2.9c2.87,0,4.31-1.47,4.31-4.4v-9.11l3.78-2.02v11.13c0,2.93,1.44,4.4,4.31,4.4Zm-6.47,7.96c1.41,0,2.11.72,2.11,2.16s-.7,2.2-2.11,2.2-2.16-.73-2.16-2.2.72-2.16,2.16-2.16Z"/>
          <path class="cls-3" d="m934.68,438.03h2.51v3.56h-2.9c-2.46,0-4.39-.76-5.76-2.29-1.38,1.53-3.3,2.29-5.76,2.29h-12.14v-3.56h11.79c2.82,0,4.22-1.48,4.22-4.44v-.4c0-2.2-.85-3.87-2.55-5.02-1.35-.94-3.01-1.41-4.97-1.41-1.56,0-3.11.29-4.66.88v-3.74l9.64-10.69h3.87l-8.67,9.77h.26c3.34,0,6.04,1.01,8.1,3.04,1.85,1.88,2.77,4.25,2.77,7.13v.48c0,2.93,1.42,4.4,4.27,4.4Z"/>
          <path class="cls-3" d="m949.86,438.03h2.9v3.56h-3.34c-2.44,0-4.36-.78-5.76-2.33-1.41,1.55-3.33,2.33-5.76,2.33h-3.34v-3.56h2.9c2.87,0,4.31-1.47,4.31-4.4v-9.11l3.78-2.02v11.13c0,2.93,1.44,4.4,4.31,4.4Zm-10.38-20.55c-1.44,0-2.16-.73-2.16-2.2s.72-2.16,2.16-2.16,2.11.72,2.11,2.16-.7,2.2-2.11,2.2Zm5.63,0c-1.44,0-2.16-.73-2.16-2.2s.72-2.16,2.16-2.16,2.11.72,2.11,2.16-.7,2.2-2.11,2.2Z"/>
          <path class="cls-3" d="m950.12,441.6v-3.56h2.33c3.05,0,4.58-1.6,4.58-4.8v-18l3.83-2.02v20.06c0,2.61-.78,4.68-2.33,6.2-1.47,1.41-3.39,2.11-5.76,2.11h-2.64Z"/>
          <path class="cls-3" d="m968.78,441.6v-26.36l3.78-2.02v28.38h-3.78Z"/>
          <path class="cls-3" d="m987.21,441.6l1.85-3.56h7.83c1.17,0,2-.29,2.49-.88.48-.59.73-1.6.73-3.04,0-3.9-1.8-6.83-5.41-8.8l1.94-3.26c4.6,2.7,7.01,6.42,7.22,11.18.06,1.7.45,2.93,1.17,3.67.72.75,1.87,1.12,3.45,1.12h2.6v3.56h-2.9c-2.44,0-4.34-.78-5.72-2.33-.97,1.55-2.6,2.33-4.88,2.33h-10.34Z"/>
          <path class="cls-3" d="m1030.16,438.03h11.62v3.56h-11.97c-1.58,0-3.15-.31-4.71-.92-1.56.62-3.14.92-4.75.92h-11.92v-3.56h12.23c-2.11-1.73-4.28-4.27-6.51-7.61v-1.94c1.41-2.02,3.09-3.62,5.04-4.8,1.95-1.17,3.91-1.76,5.87-1.76s3.93.59,5.9,1.78c1.96,1.19,3.67,2.81,5.1,4.86v1.85c-2.23,3.34-4.42,5.88-6.56,7.61h.66Zm-12.5-8.54c2.7,3.7,5.18,6.13,7.44,7.3,2.26-1.2,4.74-3.65,7.44-7.35-2.2-2.67-4.69-4.02-7.48-4.05-2.79,0-5.25,1.36-7.39,4.09Z"/>
          <path class="cls-3" d="m1039.13,441.6v-3.56h2.9c2.87,0,4.31-1.47,4.31-4.4v-9.11l3.78-2.02v11.26c0,2.49-.75,4.46-2.24,5.9-1.38,1.29-3.18,1.94-5.41,1.94h-3.34Zm7.08,8.76c-1.44,0-2.16-.73-2.16-2.2s.72-2.16,2.16-2.16,2.11.72,2.11,2.16-.7,2.2-2.11,2.2Z"/>
          <path class="cls-3" d="m1068.31,441.55v-27.76c2.52-.38,5.02-.57,7.48-.57,3.49,0,6.06.82,7.7,2.46,1.32,1.32,1.98,3.07,1.98,5.24,0,1.44-.49,2.71-1.47,3.83-.98,1.11-2.19,1.77-3.63,1.98v.04c1.82.26,3.26,1.05,4.33,2.35,1.07,1.31,1.61,2.97,1.61,4.99,0,2.64-1.07,4.68-3.21,6.12-1.85,1.26-4.28,1.89-7.3,1.89-2.7,0-5.19-.19-7.48-.57Zm4.09-24.77v8.4h4.14c1.47,0,2.63-.34,3.5-1.03.86-.69,1.3-1.62,1.3-2.79,0-3.26-1.86-4.88-5.59-4.88-1.35,0-2.46.1-3.34.31Zm0,11.75v10.03c1.03.21,2.33.31,3.92.31,3.78,0,5.68-1.6,5.68-4.8,0-1.76-.48-3.12-1.45-4.09-.97-.97-2.33-1.45-4.09-1.45h-4.05Z"/>
          <path class="cls-3" d="m1149.71,424.52l3.83-2.02v11.26c0,2.49-.75,4.46-2.24,5.9-1.38,1.29-3.18,1.94-5.41,1.94h-2.95c-2.46,0-4.37-.76-5.72-2.29-1.38,1.53-3.3,2.29-5.76,2.29h-2.9c-1.53,0-2.85-.31-3.96-.92-.35,2.99-1.66,5.32-3.92,7-2.02,1.52-4.53,2.29-7.52,2.29-3.81,0-6.78-1.35-8.89-4.05-1.61-2.08-2.42-4.55-2.42-7.39,0-2.46.62-4.58,1.85-6.34l3.65-.79c-1.32,2.08-1.98,4.33-1.98,6.73s.76,4.49,2.29,6.07c1.44,1.47,3.27,2.2,5.5,2.2,2.58,0,4.58-.75,5.98-2.24,1.17-1.26,1.76-2.9,1.76-4.93v-11.75l3.78-2.02v8.18c0,2.93,1.42,4.4,4.27,4.4h2.07c2.84,0,4.27-1.47,4.27-4.4v-7.66l3.83-1.98v9.64c0,2.93,1.42,4.4,4.27,4.4h2.07c2.84,0,4.27-1.47,4.27-4.4v-9.11Z"/>
          <path class="cls-3" d="m1159.12,412.6l1.01-1.89h1.19c-.29-.53-.44-1.07-.44-1.63,0-.88.32-1.63.97-2.27.65-.63,1.41-.95,2.29-.95.73,0,1.44.23,2.11.7v1.94c-.65-.5-1.26-.75-1.85-.75-1.09,0-1.63.48-1.63,1.45,0,.5.21,1,.62,1.5h4l-1.01,1.89h-7.26Zm2.33,29v-24.6l3.78-2.02v26.62h-3.78Z"/>
          <path class="cls-3" d="m1186.8,438.03h2.9v3.56h-3.34c-1.5,0-2.79-.29-3.87-.88-.26,2.9-1.28,5.22-3.04,6.95-1.61,1.58-3.64,2.38-6.07,2.38-1.76,0-3.48-.44-5.15-1.32v-3.3c1.5.82,2.99,1.23,4.49,1.23,1.88,0,3.34-.63,4.4-1.89,1.06-1.26,1.58-3.01,1.58-5.24v-15l3.78-2.02v.04l.04-.04v12.01c.26,2.35,1.69,3.52,4.27,3.52Z"/>
          <path class="cls-3" d="m1187.06,441.6v-3.56h2.33c3.05,0,4.58-1.6,4.58-4.8v-18l3.83-2.02v20.06c0,2.61-.78,4.68-2.33,6.2-1.47,1.41-3.39,2.11-5.76,2.11h-2.64Z"/>
          <path class="cls-3" d="m1205.72,441.6v-26.36l3.78-2.02v28.38h-3.78Z"/>
          <path class="cls-3" d="m1253.06,441.6c-.29,2.58-1.7,4.65-4.22,6.2-2.35,1.44-5.34,2.16-8.98,2.16-4.64,0-8.13-1.35-10.47-4.05-1.73-2-2.6-4.46-2.6-7.39,0-2.46.62-4.58,1.85-6.34l3.65-.79c-1.32,2.08-1.98,4.33-1.98,6.73,0,2.61.85,4.66,2.55,6.16,1.67,1.5,4,2.24,7,2.24,2.52,0,4.6-.44,6.25-1.32,1.64-.88,2.64-2.08,2.99-3.61h-4.4l1.85-3.56h6.64v3.56h-.13Zm-16.15,16.15c-1.44,0-2.16-.73-2.16-2.2s.72-2.16,2.16-2.16,2.11.72,2.11,2.16-.7,2.2-2.11,2.2Zm5.59,0c-1.44,0-2.16-.73-2.16-2.2s.72-2.16,2.16-2.16,2.11.72,2.11,2.16-.7,2.2-2.11,2.2Z"/>
          <path class="cls-3" d="m1266.18,438.03h2.9v3.56h-3.34c-2.44,0-4.36-.78-5.76-2.33-1.41,1.55-3.33,2.33-5.76,2.33h-3.34v-3.56h2.9c2.87,0,4.31-1.47,4.31-4.4v-9.11l3.78-2.02v11.13c0,2.93,1.44,4.4,4.31,4.4Zm-10.52,7.96c1.41,0,2.11.73,2.11,2.2s-.7,2.16-2.11,2.16-2.16-.72-2.16-2.16.72-2.2,2.16-2.2Zm5.59,0c1.41,0,2.11.73,2.11,2.2s-.7,2.16-2.11,2.16-2.16-.72-2.16-2.16.72-2.2,2.16-2.2Z"/>
          <path class="cls-3" d="m1266.44,441.6v-3.56h2.9c2.87,0,4.31-1.47,4.31-4.4v-9.11l3.78-2.02v11.26c0,2.49-.75,4.46-2.24,5.9-1.38,1.29-3.18,1.94-5.41,1.94h-3.34Zm3.39-24.42c-1.44,0-2.16-.73-2.16-2.2s.72-2.16,2.16-2.16,2.11.72,2.11,2.16-.7,2.2-2.11,2.2Zm2.77-5.24c-1.29,0-1.94-.66-1.94-1.98s.65-1.94,1.94-1.94,1.94.65,1.94,1.94-.65,1.98-1.94,1.98Zm2.82,5.24c-1.44,0-2.16-.73-2.16-2.2s.72-2.16,2.16-2.16,2.11.72,2.11,2.16-.7,2.2-2.11,2.2Z"/>
          <path class="cls-3" d="m1285.36,441.6v-26.36l3.78-2.02v28.38h-3.78Z"/>
          <path class="cls-3" d="m1293.54,441.6l1.85-3.56h7.83c1.17,0,2-.29,2.49-.88.48-.59.73-1.6.73-3.04,0-3.9-1.8-6.83-5.41-8.8l1.94-3.26c4.6,2.7,7.01,6.42,7.22,11.18.06,1.7.45,2.93,1.17,3.67.72.75,1.87,1.12,3.45,1.12h2.6v3.56h-2.9c-2.44,0-4.34-.78-5.72-2.33-.97,1.55-2.6,2.33-4.88,2.33h-10.34Z"/>
          <path class="cls-3" d="m1314.75,441.6v-3.56h6.03c5.95,0,10.66-1.96,14.12-5.9-2.44-4.49-5.4-6.73-8.89-6.73-2.38,0-4.83,1.26-7.35,3.78v-3.52c2.46-2.49,5.07-3.74,7.83-3.74,2.26,0,4.44.81,6.56,2.44,2.11,1.63,3.97,3.95,5.59,6.97v1.94c-4.31,5.54-10.28,8.32-17.91,8.32h-5.98Z"/>
          <path class="cls-3" d="m1342.47,452.55l1.01-1.89h1.19c-.29-.53-.44-1.09-.44-1.67,0-.85.32-1.59.97-2.22.65-.63,1.41-.95,2.29-.95.73,0,1.44.23,2.11.7v1.94c-.65-.5-1.26-.75-1.85-.75-1.09,0-1.63.48-1.63,1.45,0,.5.21,1,.62,1.5h4l-1.01,1.89h-7.26Zm2.33-10.96v-26.36l3.78-2.02v28.38h-3.78Z"/>
        </g>
        <g>
          <circle class="cls-2" cx="1379.89" cy="432.59" r="16.19"/>
          <circle class="cls-1" cx="1379.89" cy="432.59" r="13.23"/>
        </g>
      </g>
    </g>
  </g>
</svg>