<?xml version="1.0" encoding="UTF-8"?>
<svg id="Layer_2" data-name="Layer 2" xmlns="http://www.w3.org/2000/svg" width="580.07" height="580.07" viewBox="0 0 580.07 580.07">
  <defs>
    <style>
      .cls-1 {
        fill: #f4f4f4;
        stroke: #88cbd4;
      }

      .cls-1, .cls-2, .cls-3, .cls-4 {
        stroke-linecap: round;
        stroke-linejoin: round;
      }

      .cls-1, .cls-3 {
        stroke-width: 5px;
      }

      .cls-2 {
        stroke: #ebebeb;
        stroke-width: 3px;
      }

      .cls-2, .cls-4 {
        fill: none;
      }

      .cls-5 {
        fill: #fff;
        stroke-width: 0px;
      }

      .cls-3 {
        fill: #88cbd4;
        stroke: #6c90be;
      }

      .cls-4 {
        stroke: #b2b2b2;
        stroke-width: 4px;
      }
    </style>
  </defs>
  <g id="Layer_1-2" data-name="Layer 1">
    <g>
      <g>
        <rect class="cls-5" x="2" y="2" width="576.07" height="576.07"/>
        <line class="cls-2" x1="2" y1="525.7" x2="578.07" y2="525.7"/>
        <line class="cls-2" x1="2" y1="473.33" x2="578.07" y2="473.33"/>
        <line class="cls-2" x1="2" y1="420.96" x2="578.07" y2="420.96"/>
        <line class="cls-2" x1="2" y1="368.59" x2="578.07" y2="368.59"/>
        <line class="cls-2" x1="2" y1="316.22" x2="578.07" y2="316.22"/>
        <line class="cls-2" x1="2" y1="263.85" x2="578.07" y2="263.85"/>
        <line class="cls-2" x1="2" y1="211.48" x2="578.07" y2="211.48"/>
        <line class="cls-2" x1="2" y1="159.11" x2="578.07" y2="159.11"/>
        <line class="cls-2" x1="2" y1="106.74" x2="578.07" y2="106.74"/>
        <line class="cls-2" x1="2" y1="54.37" x2="578.07" y2="54.37"/>
        <line class="cls-2" x1="525.7" y1="2" x2="525.7" y2="578.07"/>
        <line class="cls-2" x1="473.33" y1="2" x2="473.33" y2="578.07"/>
        <line class="cls-2" x1="420.96" y1="2" x2="420.96" y2="578.07"/>
        <line class="cls-2" x1="368.59" y1="2" x2="368.59" y2="578.07"/>
        <line class="cls-2" x1="316.22" y1="2" x2="316.22" y2="578.07"/>
        <line class="cls-2" x1="263.85" y1="2" x2="263.85" y2="578.07"/>
        <line class="cls-2" x1="211.48" y1="2" x2="211.48" y2="578.07"/>
        <line class="cls-2" x1="159.11" y1="2" x2="159.11" y2="578.07"/>
        <line class="cls-2" x1="106.74" y1="2" x2="106.74" y2="578.07"/>
        <line class="cls-2" x1="54.37" y1="2" x2="54.37" y2="578.07"/>
        <rect class="cls-4" x="2" y="2" width="576.07" height="576.07"/>
      </g>
      <polygon class="cls-1" points="473.61 420.13 265.23 420.13 265.23 107.57 288.38 142.3 299.96 159.66 311.53 177.03 334.68 211.76 357.84 246.49 369.41 263.85 380.99 281.22 404.14 315.94 404.14 315.94 404.15 315.94 427.3 350.67 438.88 368.04 450.46 385.4 473.61 420.13"/>
      <polygon class="cls-3" points="213.08 420.13 108.46 420.13 108.46 263.21 120.09 280.65 125.9 289.36 131.71 298.08 143.33 315.52 154.96 332.95 160.77 341.67 166.58 350.39 178.21 367.82 178.21 367.83 178.21 367.83 189.83 385.26 195.64 393.98 201.46 402.7 213.08 420.13"/>
    </g>
  </g>
</svg>