<?xml version="1.0" encoding="UTF-8"?>
<svg id="Layer_1" data-name="Layer 1" xmlns="http://www.w3.org/2000/svg" width="1240.07" height="213.58" viewBox="0 0 1240.07 213.58">
  <defs>
    <style>
      .cls-1 {
        fill: #fff;
        stroke-width: 0px;
      }
    </style>
  </defs>
  <path class="cls-1" d="m29.49,12.31h4.4l11.45,31.65h-4.75l-2.4-7.15h-12.95l-2.45,7.15h-4.75l11.45-31.65Zm2.2,5.6l-5.15,15.05h10.3l-5.15-15.05Z"/>
  <path class="cls-1" d="m57.79,11.71h3.85c-4.47,6.07-6.7,12.55-6.7,19.45,0,3.47.63,7.07,1.9,10.8,1.27,3.73,2.87,6.73,4.8,9h-3.85c-1.97-1.87-3.65-4.73-5.05-8.6-1.4-3.87-2.1-7.6-2.1-11.2s.68-7.03,2.03-10.7c1.35-3.67,3.06-6.58,5.12-8.75Z"/>
  <path class="cls-1" d="m78.49,44.56c-3.83,0-6.8-1.73-8.9-5.2-1.8-2.93-2.7-6.65-2.7-11.15,0-5.03,1.18-9.12,3.55-12.25,2.1-2.83,4.78-4.25,8.05-4.25,3.7,0,6.67,1.82,8.9,5.45,1.83,3.03,2.75,6.72,2.75,11.05,0,5.17-1.17,9.27-3.5,12.3-2.1,2.7-4.82,4.05-8.15,4.05Zm0-28.85c-2.13,0-3.78,1.06-4.95,3.17-1.17,2.12-1.75,5.12-1.75,9.03s.63,7.25,1.9,9.55c1.2,2.07,2.78,3.1,4.75,3.1,2.13,0,3.8-1.12,5-3.38,1.2-2.25,1.8-5.34,1.8-9.27s-.63-7.17-1.9-9.3c-1.17-1.93-2.78-2.9-4.85-2.9Z"/>
  <path class="cls-1" d="m96.44,49.11l-1-1.95c1.3-.83,1.95-1.77,1.95-2.8v-.2c-.13.07-.28.1-.45.1-.57,0-1.06-.24-1.48-.72-.42-.48-.62-1.06-.62-1.73,0-.77.25-1.41.75-1.92.5-.52,1.12-.77,1.85-.77,2,0,3,1.4,3,4.2,0,1.3-.37,2.48-1.1,3.55-.73,1.07-1.7,1.82-2.9,2.25Z"/>
  <path class="cls-1" d="m115,43.96v-4.05l7.95-8.85c2.4-2.67,4.02-4.74,4.88-6.22.85-1.48,1.27-2.97,1.27-4.47,0-1.4-.5-2.53-1.5-3.4-1-.87-2.33-1.3-4-1.3-2,0-4.12.73-6.35,2.2l-1.95-2.8c2.97-2.27,6-3.4,9.1-3.4,2.9,0,5.25.85,7.05,2.55,1.7,1.57,2.55,3.62,2.55,6.15,0,1.63-.38,3.21-1.15,4.72-.77,1.52-2.1,3.36-4,5.53l-8.3,9.5h12.75v3.85h-18.3Z"/>
  <path class="cls-1" d="m139.35,11.71h3.85c2.07,2.17,3.77,5.08,5.12,8.75,1.35,3.67,2.02,7.23,2.02,10.7,0,4.87-1.08,9.52-3.25,13.95-1.3,2.7-2.6,4.65-3.9,5.85h-3.85c1.93-2.27,3.53-5.27,4.8-9,1.27-3.73,1.9-7.33,1.9-10.8,0-6.9-2.23-13.38-6.7-19.45Z"/>
  <path class="cls-1" d="m158.6,49.11l-1-1.95c1.3-.83,1.95-1.77,1.95-2.8v-.2c-.13.07-.28.1-.45.1-.57,0-1.06-.24-1.48-.72-.42-.48-.62-1.06-.62-1.73,0-.77.25-1.41.75-1.92.5-.52,1.12-.77,1.85-.77,2,0,3,1.4,3,4.2,0,1.3-.37,2.48-1.1,3.55-.73,1.07-1.7,1.82-2.9,2.25Z"/>
  <path class="cls-1" d="m179.16,43.91V12.36c2.87-.43,5.7-.65,8.5-.65,3.97,0,6.88.93,8.75,2.8,1.5,1.5,2.25,3.48,2.25,5.95,0,1.63-.56,3.08-1.67,4.35-1.12,1.27-2.49,2.02-4.12,2.25v.05c2.07.3,3.71,1.19,4.92,2.67,1.22,1.48,1.83,3.38,1.83,5.67,0,3-1.22,5.32-3.65,6.95-2.1,1.43-4.87,2.15-8.3,2.15-3.07,0-5.9-.22-8.5-.65Zm4.65-28.15v9.55h4.7c1.67,0,2.99-.39,3.98-1.17.98-.78,1.47-1.84,1.47-3.17,0-3.7-2.12-5.55-6.35-5.55-1.53,0-2.8.12-3.8.35Zm0,13.35v11.4c1.17.23,2.65.35,4.45.35,4.3,0,6.45-1.82,6.45-5.45,0-2-.55-3.55-1.65-4.65-1.1-1.1-2.65-1.65-4.65-1.65h-4.6Z"/>
  <path class="cls-1" d="m213.81,11.71h3.85c-4.47,6.07-6.7,12.55-6.7,19.45,0,3.47.63,7.07,1.9,10.8,1.27,3.73,2.87,6.73,4.8,9h-3.85c-1.97-1.87-3.65-4.73-5.05-8.6-1.4-3.87-2.1-7.6-2.1-11.2s.68-7.03,2.03-10.7c1.35-3.67,3.06-6.58,5.12-8.75Z"/>
  <path class="cls-1" d="m223.01,43.96v-4.05l7.95-8.85c2.4-2.67,4.02-4.74,4.88-6.22.85-1.48,1.27-2.97,1.27-4.47,0-1.4-.5-2.53-1.5-3.4-1-.87-2.33-1.3-4-1.3-2,0-4.12.73-6.35,2.2l-1.95-2.8c2.97-2.27,6-3.4,9.1-3.4,2.9,0,5.25.85,7.05,2.55,1.7,1.57,2.55,3.62,2.55,6.15,0,1.63-.38,3.21-1.15,4.72-.77,1.52-2.1,3.36-4,5.53l-8.3,9.5h12.75v3.85h-18.3Z"/>
  <path class="cls-1" d="m248.21,49.11l-1-1.95c1.3-.83,1.95-1.77,1.95-2.8v-.2c-.13.07-.28.1-.45.1-.57,0-1.06-.24-1.48-.72-.42-.48-.62-1.06-.62-1.73,0-.77.25-1.41.75-1.92.5-.52,1.12-.77,1.85-.77,2,0,3,1.4,3,4.2,0,1.3-.37,2.48-1.1,3.55-.73,1.07-1.7,1.82-2.9,2.25Z"/>
  <path class="cls-1" d="m277.52,33.76h-12v-3.5h12v3.5Z"/>
  <path class="cls-1" d="m291.27,12.31v31.65h-4.65v-26.55l-5.85,3.4-2.25-3.45,8.1-5.05h4.65Z"/>
  <path class="cls-1" d="m298.62,11.71h3.85c2.07,2.17,3.77,5.08,5.12,8.75,1.35,3.67,2.02,7.23,2.02,10.7,0,4.87-1.08,9.52-3.25,13.95-1.3,2.7-2.6,4.65-3.9,5.85h-3.85c1.93-2.27,3.53-5.27,4.8-9,1.27-3.73,1.9-7.33,1.9-10.8,0-6.9-2.23-13.38-6.7-19.45Z"/>
  <path class="cls-1" d="m317.87,49.11l-1-1.95c1.3-.83,1.95-1.77,1.95-2.8v-.2c-.13.07-.28.1-.45.1-.57,0-1.06-.24-1.48-.72-.42-.48-.62-1.06-.62-1.73,0-.77.25-1.41.75-1.92.5-.52,1.12-.77,1.85-.77,2,0,3,1.4,3,4.2,0,1.3-.37,2.48-1.1,3.55-.73,1.07-1.7,1.82-2.9,2.25Z"/>
  <path class="cls-1" d="m359.83,40.91c-2.8,2.43-5.85,3.65-9.15,3.65-4.8,0-8.52-1.85-11.15-5.55-2.07-2.93-3.1-6.45-3.1-10.55,0-4.67,1.28-8.65,3.85-11.95,2.53-3.2,5.75-4.8,9.65-4.8,3.47,0,6.63,1.15,9.5,3.45l-1.85,2.8c-2.27-1.5-4.52-2.25-6.75-2.25-3.03,0-5.42,1.25-7.15,3.75-1.57,2.27-2.35,5.27-2.35,9s.98,6.67,2.95,8.9c1.8,2.07,4.13,3.1,7,3.1,2.17,0,4.4-.78,6.7-2.35l1.85,2.8Z"/>
  <path class="cls-1" d="m374.03,11.71h3.85c-4.47,6.07-6.7,12.55-6.7,19.45,0,3.47.63,7.07,1.9,10.8,1.27,3.73,2.87,6.73,4.8,9h-3.85c-1.97-1.87-3.65-4.73-5.05-8.6-1.4-3.87-2.1-7.6-2.1-11.2s.68-7.03,2.03-10.7c1.35-3.67,3.06-6.58,5.12-8.75Z"/>
  <path class="cls-1" d="m393.98,33.76h-12v-3.5h12v3.5Z"/>
  <path class="cls-1" d="m397.73,43.96v-4.05l7.95-8.85c2.4-2.67,4.02-4.74,4.88-6.22.85-1.48,1.27-2.97,1.27-4.47,0-1.4-.5-2.53-1.5-3.4-1-.87-2.33-1.3-4-1.3-2,0-4.12.73-6.35,2.2l-1.95-2.8c2.97-2.27,6-3.4,9.1-3.4,2.9,0,5.25.85,7.05,2.55,1.7,1.57,2.55,3.62,2.55,6.15,0,1.63-.38,3.21-1.15,4.72-.77,1.52-2.1,3.36-4,5.53l-8.3,9.5h12.75v3.85h-18.3Z"/>
  <path class="cls-1" d="m422.93,49.11l-1-1.95c1.3-.83,1.95-1.77,1.95-2.8v-.2c-.13.07-.28.1-.45.1-.57,0-1.06-.24-1.48-.72-.42-.48-.62-1.06-.62-1.73,0-.77.25-1.41.75-1.92.5-.52,1.12-.77,1.85-.77,2,0,3,1.4,3,4.2,0,1.3-.37,2.48-1.1,3.55-.73,1.07-1.7,1.82-2.9,2.25Z"/>
  <path class="cls-1" d="m452.24,33.76h-12v-3.5h12v3.5Z"/>
  <path class="cls-1" d="m465.99,12.31v31.65h-4.65v-26.55l-5.85,3.4-2.25-3.45,8.1-5.05h4.65Z"/>
  <path class="cls-1" d="m473.34,11.71h3.85c2.07,2.17,3.77,5.08,5.12,8.75,1.35,3.67,2.02,7.23,2.02,10.7,0,4.87-1.08,9.52-3.25,13.95-1.3,2.7-2.6,4.65-3.9,5.85h-3.85c1.93-2.27,3.53-5.27,4.8-9,1.27-3.73,1.9-7.33,1.9-10.8,0-6.9-2.23-13.38-6.7-19.45Z"/>
  <path class="cls-1" d="m523.34,39.91h3.3v4.05h-3.8c-3.43,0-5.9-1.27-7.4-3.8-1.6,1.53-3.58,2.3-5.95,2.3-2.93,0-5.27-1.1-7-3.3-1.43-1.87-2.15-4.15-2.15-6.85,0-3.23.98-5.83,2.95-7.8,1.67-1.7,3.7-2.55,6.1-2.55,1.83,0,3.42.47,4.75,1.4v-2.15l4.35-2.3v16c0,3.33,1.62,5,4.85,5Zm-9.2-11.9c-1.23-1.37-2.75-2.05-4.55-2.05-1.47,0-2.67.59-3.6,1.78-.93,1.18-1.4,2.72-1.4,4.62s.47,3.48,1.4,4.65c.93,1.17,2.15,1.75,3.65,1.75,1.87,0,3.4-.77,4.6-2.3-.07-.6-.1-1.07-.1-1.4v-7.05Z"/>
  <path class="cls-1" d="m523.64,43.96v-4.05h8.8v4.05h-8.8Z"/>
  <path class="cls-1" d="m529.44,43.96v-4.05h8.8v4.05h-8.8Z"/>
  <path class="cls-1" d="m535.24,43.96v-4.05h8.8v4.05h-8.8Z"/>
  <path class="cls-1" d="m541.04,43.96v-4.05h4.5c3.23,0,4.85-1.67,4.85-5v-7l4.3-2.3v9.3c0,3.33,1.63,5,4.9,5h2.3c3.27,0,4.9-1.67,4.9-5v-8.7l4.3-2.25v10.95c0,3.33,1.62,5,4.85,5h2.35c3.27,0,4.9-1.67,4.9-5v-10.35l4.3-2.3v12.8c0,2.83-.85,5.05-2.55,6.65-1.5,1.47-3.5,2.22-6,2.25h-3.45c-2.93,0-5.12-.98-6.55-2.95-1.43,1.93-3.57,2.92-6.4,2.95h-3.45c-2.87,0-5.05-.98-6.55-2.95-1.43,1.97-3.62,2.95-6.55,2.95h-4.95Z"/>
  <path class="cls-1" d="m608.79,42.36c-1.27.5-2.82.75-4.65.75-2.97,0-5.3-1.12-7-3.35-1.43-1.9-2.15-4.28-2.15-7.15,0-3.53.95-6.3,2.85-8.3,1.7-1.8,3.93-2.7,6.7-2.7s5.02.88,6.55,2.65c1.37,1.57,2.05,3.62,2.05,6.15v10.9c0,3.77-.98,6.75-2.95,8.95-1.87,2.07-4.35,3.1-7.45,3.1-2.07,0-4.02-.48-5.85-1.45v-3.8c1.77.93,3.52,1.4,5.25,1.4,1.97,0,3.53-.62,4.7-1.88,1.17-1.25,1.82-3.01,1.95-5.27Zm0-11.75c0-3.33-1.42-5-4.25-5-1.67,0-2.97.62-3.92,1.85-.95,1.23-1.42,2.92-1.42,5.05s.46,3.78,1.38,5.03c.92,1.25,2.16,1.88,3.72,1.88,2.2,0,3.7-.62,4.5-1.85v-6.95Z"/>
  <path class="cls-1" d="m633.94,42.36c-1.27.5-2.82.75-4.65.75-2.97,0-5.3-1.12-7-3.35-1.43-1.9-2.15-4.28-2.15-7.15,0-3.53.95-6.3,2.85-8.3,1.7-1.8,3.93-2.7,6.7-2.7s5.02.88,6.55,2.65c1.37,1.57,2.05,3.62,2.05,6.15v10.9c0,3.77-.98,6.75-2.95,8.95-1.87,2.07-4.35,3.1-7.45,3.1-2.07,0-4.02-.48-5.85-1.45v-3.8c1.77.93,3.52,1.4,5.25,1.4,1.97,0,3.53-.62,4.7-1.88,1.17-1.25,1.82-3.01,1.95-5.27Zm-.65-28.65l-1.15,2.15h-8.25l1.15-2.15h1.35c-.33-.6-.5-1.23-.5-1.9,0-.97.37-1.81,1.1-2.52.73-.72,1.6-1.08,2.6-1.08.83,0,1.63.27,2.4.8v2.2c-.7-.57-1.4-.85-2.1-.85-1.23,0-1.85.55-1.85,1.65,0,.57.23,1.13.7,1.7h4.55Zm.65,16.9c0-3.33-1.42-5-4.25-5-1.67,0-2.97.62-3.92,1.85-.95,1.23-1.42,2.92-1.42,5.05s.46,3.78,1.38,5.03c.92,1.25,2.16,1.88,3.72,1.88,2.2,0,3.7-.62,4.5-1.85v-6.95Z"/>
  <path class="cls-1" d="m657.44,41.31c0,3.73-.98,6.73-2.95,9-1.87,2.17-4.35,3.25-7.45,3.25-2,0-3.95-.5-5.85-1.5v-3.75c1.7.93,3.4,1.4,5.1,1.4,2.13,0,3.8-.72,5-2.15s1.8-3.42,1.8-5.95v-17.05l4.35-2.3v19.05Z"/>
  <path class="cls-1" d="m684.75,43.96c-2.7,0-4.82-.9-6.35-2.7-1.33-1.57-2-3.62-2-6.15v-6.05l4.3-2.3v7.95c0,3.47,1.62,5.2,4.85,5.2h16.6c3.23,0,4.85-1.73,4.85-5.2v-10.15l4.3-2.3v12.85c0,2.9-.88,5.15-2.65,6.75-1.57,1.4-3.58,2.1-6.05,2.1h-17.85Zm5.05-23.25c-1.63,0-2.45-.83-2.45-2.5s.82-2.45,2.45-2.45,2.4.82,2.4,2.45-.8,2.5-2.4,2.5Zm6.35,0c-1.63,0-2.45-.83-2.45-2.5s.82-2.45,2.45-2.45,2.4.82,2.4,2.45-.8,2.5-2.4,2.5Z"/>
  <path class="cls-1" d="m728,43.96c-2.9,0-5.13-.93-6.7-2.8-1.33-1.6-2-3.63-2-6.1V14.01l4.3-2.3v23.2c0,3.33,1.63,5,4.9,5h3.3v4.05h-3.8Z"/>
  <path class="cls-1" d="m746.2,39.91h3.3v4.05h-3.8c-2.77,0-4.95-.88-6.55-2.65-1.6,1.77-3.78,2.65-6.55,2.65h-3.8v-4.05h3.3c3.27,0,4.9-1.67,4.9-5v-10.35l4.3-2.3v12.65c0,3.33,1.63,5,4.9,5Zm-11.95,9.05c1.6,0,2.4.83,2.4,2.5s-.8,2.45-2.4,2.45-2.45-.82-2.45-2.45.82-2.5,2.45-2.5Zm6.35,0c1.6,0,2.4.83,2.4,2.5s-.8,2.45-2.4,2.45-2.45-.82-2.45-2.45.82-2.5,2.45-2.5Z"/>
  <path class="cls-1" d="m746.5,43.96v-4.05h3.3c3.27,0,4.9-1.67,4.9-5v-10.35l4.3-2.3v12.8c0,2.83-.85,5.07-2.55,6.7-1.57,1.47-3.62,2.2-6.15,2.2h-3.8Zm3.85-27.75c-1.63,0-2.45-.83-2.45-2.5s.82-2.45,2.45-2.45,2.4.82,2.4,2.45-.8,2.5-2.4,2.5Zm3.15-5.95c-1.47,0-2.2-.75-2.2-2.25s.73-2.2,2.2-2.2,2.2.73,2.2,2.2-.73,2.25-2.2,2.25Zm3.2,5.95c-1.63,0-2.45-.83-2.45-2.5s.82-2.45,2.45-2.45,2.4.82,2.4,2.45-.8,2.5-2.4,2.5Z"/>
  <path class="cls-1" d="m768,43.96V14.01l4.3-2.3v32.25h-4.3Z"/>
  <path class="cls-1" d="m777.3,43.96l2.1-4.05h8.9c1.33,0,2.27-.33,2.83-1,.55-.67.82-1.82.82-3.45,0-4.43-2.05-7.77-6.15-10l2.2-3.7c5.23,3.07,7.97,7.3,8.2,12.7.07,1.93.51,3.33,1.33,4.17.82.85,2.12,1.28,3.92,1.28h2.95v4.05h-3.3c-2.77,0-4.93-.88-6.5-2.65-1.1,1.77-2.95,2.65-5.55,2.65h-11.75Z"/>
  <path class="cls-1" d="m801.4,43.96v-4.05h6.85c6.77,0,12.12-2.23,16.05-6.7-2.77-5.1-6.13-7.65-10.1-7.65-2.7,0-5.48,1.43-8.35,4.3v-4c2.8-2.83,5.77-4.25,8.9-4.25,2.57,0,5.05.92,7.45,2.77,2.4,1.85,4.52,4.49,6.35,7.92v2.2c-4.9,6.3-11.68,9.45-20.35,9.45h-6.8Z"/>
  <path class="cls-1" d="m832.9,56.41l1.15-2.15h1.35c-.33-.6-.5-1.23-.5-1.9,0-.97.37-1.81,1.1-2.53.73-.72,1.6-1.08,2.6-1.08.83,0,1.63.27,2.4.8v2.2c-.73-.57-1.43-.85-2.1-.85-1.23,0-1.85.55-1.85,1.65,0,.57.23,1.13.7,1.7h4.55l-1.15,2.15h-8.25Zm2.65-12.45V14.01l4.3-2.3v32.25h-4.3Z"/>
  <path class="cls-1" d="m885.46,29.41c-2.23-2.33-4.57-3.5-7-3.5-1.3,0-2.33.38-3.1,1.15-.77.77-1.15,1.8-1.15,3.1,0,1.43.43,2.55,1.3,3.35.87.8,2.55,1.63,5.05,2.5,2.5.9,4.2,1.75,5.1,2.55,1.33,1.13,2,2.68,2,4.65,0,3.13-1.48,5.67-4.45,7.6-2.7,1.77-6.22,2.65-10.55,2.65-5.27,0-9.23-1.53-11.9-4.6-1.97-2.27-2.95-5.07-2.95-8.4,0-2.8.7-5.2,2.1-7.2l4.15-.9c-1.5,2.37-2.25,4.92-2.25,7.65,0,2.87.97,5.17,2.9,6.9,1.9,1.67,4.55,2.5,7.95,2.5,3.63,0,6.43-.72,8.4-2.15,1.53-1.13,2.3-2.5,2.3-4.1,0-.9-.34-1.63-1.02-2.2-.68-.57-2.04-1.2-4.07-1.9-2.8-1-4.73-2-5.8-3-1.6-1.47-2.4-3.43-2.4-5.9,0-2.7.95-4.82,2.85-6.35,1.47-1.17,3.13-1.75,5-1.75,3.07,0,5.58,1.12,7.55,3.35v4Zm-16.15,32.9c-1.63,0-2.45-.83-2.45-2.5s.82-2.45,2.45-2.45,2.4.82,2.4,2.45-.8,2.5-2.4,2.5Zm6.35,0c-1.63,0-2.45-.83-2.45-2.5s.82-2.45,2.45-2.45,2.4.82,2.4,2.45-.8,2.5-2.4,2.5Z"/>
  <path class="cls-1" d="m891.16,43.96l2.1-4.05h8.9c1.33,0,2.27-.33,2.83-1,.55-.67.82-1.82.82-3.45,0-4.43-2.05-7.77-6.15-10l2.2-3.7c5.23,3.07,7.97,7.3,8.2,12.7.07,1.93.51,3.33,1.33,4.17.82.85,2.12,1.28,3.92,1.28h2.95v4.05h-3.3c-2.77,0-4.93-.88-6.5-2.65-1.1,1.77-2.95,2.65-5.55,2.65h-11.75Zm10.85-27.75c-1.63,0-2.45-.83-2.45-2.5s.82-2.45,2.45-2.45,2.4.82,2.4,2.45-.8,2.5-2.4,2.5Z"/>
  <path class="cls-1" d="m915.26,43.96v-4.05h2.65c3.47,0,5.2-1.82,5.2-5.45V14.01l4.35-2.3v22.8c0,2.97-.88,5.32-2.65,7.05-1.67,1.6-3.85,2.4-6.55,2.4h-3Z"/>
  <path class="cls-1" d="m936.46,43.96V14.01l4.3-2.3v32.25h-4.3Z"/>
  <path class="cls-1" d="m983.17,43.96h-28l11.7-31.65h4.6l11.7,31.65Zm-14.2-26.9l-7.6,23h15.55l-7.85-23s-.02-.05-.05-.05-.05.02-.05.05Z"/>
  <path class="cls-1" d="m1010.03,12.31h4.4l11.45,31.65h-4.75l-2.4-7.15h-12.95l-2.45,7.15h-4.75l11.45-31.65Zm2.2,5.6l-5.15,15.05h10.3l-5.15-15.05Z"/>
  <path class="cls-1" d="m1031.13,43.91V12.36c2.87-.43,5.7-.65,8.5-.65,3.97,0,6.88.93,8.75,2.8,1.5,1.5,2.25,3.48,2.25,5.95,0,1.63-.56,3.08-1.67,4.35-1.12,1.27-2.49,2.02-4.12,2.25v.05c2.07.3,3.71,1.19,4.92,2.67,1.22,1.48,1.83,3.38,1.83,5.67,0,3-1.22,5.32-3.65,6.95-2.1,1.43-4.87,2.15-8.3,2.15-3.07,0-5.9-.22-8.5-.65Zm4.65-28.15v9.55h4.7c1.67,0,2.99-.39,3.98-1.17.98-.78,1.47-1.84,1.47-3.17,0-3.7-2.12-5.55-6.35-5.55-1.53,0-2.8.12-3.8.35Zm0,13.35v11.4c1.17.23,2.65.35,4.45.35,4.3,0,6.45-1.82,6.45-5.45,0-2-.55-3.55-1.65-4.65-1.1-1.1-2.65-1.65-4.65-1.65h-4.6Z"/>
  <path class="cls-1" d="m1079.98,40.91c-2.8,2.43-5.85,3.65-9.15,3.65-4.8,0-8.52-1.85-11.15-5.55-2.07-2.93-3.1-6.45-3.1-10.55,0-4.67,1.28-8.65,3.85-11.95,2.53-3.2,5.75-4.8,9.65-4.8,3.47,0,6.63,1.15,9.5,3.45l-1.85,2.8c-2.27-1.5-4.52-2.25-6.75-2.25-3.03,0-5.42,1.25-7.15,3.75-1.57,2.27-2.35,5.27-2.35,9s.98,6.67,2.95,8.9c1.8,2.07,4.13,3.1,7,3.1,2.17,0,4.4-.78,6.7-2.35l1.85,2.8Z"/>
  <path class="cls-1" d="m1112.78,39.91h3.35v4.05h-3.8c-2.7,0-4.85-.83-6.45-2.5-1.57,1.6-3.78,2.43-6.65,2.5h-6.55c-3.27,0-4.9,1.67-4.9,5v8.45l-4.3,2.3v-10.9c0-2.77.8-4.95,2.4-6.55,1.43-1.47,3.33-2.25,5.7-2.35-1.2-1.93-1.8-4.3-1.8-7.1,0-3.63.95-6.47,2.85-8.5,1.7-1.8,3.93-2.7,6.7-2.7s5.02.88,6.55,2.65c1.37,1.57,2.05,3.62,2.05,6.15v4.5c0,3.33,1.62,5,4.85,5Zm-9.15-4.65v-4.65c0-3.33-1.43-5-4.3-5-1.67,0-2.96.62-3.88,1.88-.92,1.25-1.38,2.99-1.38,5.22s.43,4.03,1.3,5.3c.87,1.27,2.08,1.9,3.65,1.9,3.07,0,4.6-1.55,4.6-4.65Z"/>
  <path class="cls-1" d="m1113.13,43.96v-4.05h8.8v4.05h-8.8Z"/>
  <path class="cls-1" d="m1118.93,43.96v-4.05h8.8v4.05h-8.8Z"/>
  <path class="cls-1" d="m1124.73,43.96v-4.05h8.8v4.05h-8.8Z"/>
  <path class="cls-1" d="m1130.53,43.96v-4.05h8.8v4.05h-8.8Z"/>
  <path class="cls-1" d="m1136.33,43.96v-4.05h8.8v4.05h-8.8Z"/>
  <path class="cls-1" d="m1142.13,43.96v-4.05h4.5c3.23,0,4.85-1.67,4.85-5v-7l4.3-2.3v9.3c0,3.33,1.63,5,4.9,5h2.3c3.27,0,4.9-1.67,4.9-5v-8.7l4.3-2.25v10.95c0,3.33,1.62,5,4.85,5h2.35c3.27,0,4.9-1.67,4.9-5v-10.35l4.3-2.3v12.8c0,2.83-.85,5.05-2.55,6.65-1.5,1.47-3.5,2.22-6,2.25h-3.45c-2.93,0-5.12-.98-6.55-2.95-1.43,1.93-3.57,2.92-6.4,2.95h-3.45c-2.87,0-5.05-.98-6.55-2.95-1.43,1.97-3.62,2.95-6.55,2.95h-4.95Z"/>
  <path class="cls-1" d="m1204.98,41.31c0,3.73-.98,6.73-2.95,9-1.87,2.17-4.35,3.25-7.45,3.25-2,0-3.95-.5-5.85-1.5v-3.75c1.7.93,3.4,1.4,5.1,1.4,2.13,0,3.8-.72,5-2.15s1.8-3.42,1.8-5.95v-17.05l4.35-2.3v19.05Z"/>
  <path class="cls-1" d="m1211.33,11.01l1.15-2.15h1.35c-.33-.6-.5-1.22-.5-1.85,0-1,.37-1.86,1.1-2.58.73-.72,1.6-1.07,2.6-1.07.83,0,1.63.27,2.4.8v2.2c-.73-.57-1.43-.85-2.1-.85-1.23,0-1.85.55-1.85,1.65,0,.57.23,1.13.7,1.7h4.55l-1.15,2.15h-8.25Zm2.65,32.95v-27.95l4.3-2.3v30.25h-4.3Z"/>
  <path class="cls-1" d="m30.09,120.96c-3.03,0-5.4-1.02-7.1-3.05-1.47-1.77-2.2-4.02-2.2-6.75,0-2.97.83-5.54,2.48-7.73,1.65-2.18,4.01-3.79,7.07-4.82,3.23,1.1,5.67,2.83,7.3,5.2,1.47,2.1,2.2,4.55,2.2,7.35,0,3.17-.93,5.65-2.8,7.45-1.67,1.57-3.82,2.35-6.45,2.35h-.5Zm-.15-4.05h.75c1.5,0,2.69-.52,3.58-1.55.88-1.03,1.32-2.42,1.32-4.15,0-4-1.75-6.87-5.25-8.6-3.5,1.73-5.25,4.58-5.25,8.55,0,1.77.43,3.17,1.3,4.2.87,1.03,2.05,1.55,3.55,1.55Z"/>
  <path class="cls-1" d="m60.09,116.91h3.3v4.05h-3.8c-1.7,0-3.17-.33-4.4-1-.3,3.3-1.45,5.93-3.45,7.9-1.83,1.8-4.13,2.7-6.9,2.7-2,0-3.95-.5-5.85-1.5v-3.75c1.7.93,3.4,1.4,5.1,1.4,2.13,0,3.8-.72,5-2.15s1.8-3.42,1.8-5.95v-17.05l4.3-2.3v.05l.05-.05v13.65c.3,2.67,1.92,4,4.85,4Zm-7.75-23.7c-1.63,0-2.45-.83-2.45-2.5s.82-2.45,2.45-2.45,2.4.82,2.4,2.45-.8,2.5-2.4,2.5Z"/>
  <path class="cls-1" d="m70.24,99.81h.3c3.77,0,6.82,1.17,9.15,3.5,2.13,2.1,3.2,4.78,3.2,8.05v.85c0,2.87-.88,5.1-2.65,6.7-1.57,1.37-3.58,2.05-6.05,2.05h-13.8v-4.05h13.4c3.2,0,4.8-1.68,4.8-5.05v-.45c0-2.47-.97-4.37-2.9-5.7-1.53-1.03-3.4-1.55-5.6-1.55-1.77,0-3.55.32-5.35.95v-4.25l10.95-12.15h4.4l-9.85,11.1Z"/>
  <path class="cls-1" d="m102.64,116.91h3.3v4.05h-3.8c-1.7,0-3.17-.33-4.4-1-.3,3.3-1.45,5.93-3.45,7.9-1.83,1.8-4.13,2.7-6.9,2.7-2,0-3.95-.5-5.85-1.5v-3.75c1.7.93,3.4,1.4,5.1,1.4,2.13,0,3.8-.72,5-2.15s1.8-3.42,1.8-5.95v-17.05l4.3-2.3v.05l.05-.05v13.65c.3,2.67,1.92,4,4.85,4Z"/>
  <path class="cls-1" d="m111.14,107.41c0-2.9.87-5.15,2.6-6.75,1.53-1.37,3.53-2.05,6-2.05,3.17,0,5.6,1.17,7.3,3.5,1.47,1.97,2.2,4.53,2.2,7.7,0,3.6-.93,6.42-2.8,8.45-1.63,1.8-3.77,2.7-6.4,2.7-3,0-5.28-.83-6.85-2.5-1.6,1.67-3.75,2.5-6.45,2.5h-3.8v-4.05h3.3c3.27,0,4.9-1.67,4.9-5v-4.5Zm4.3,4.85c0,3.1,1.52,4.65,4.55,4.65,1.57,0,2.79-.63,3.68-1.9.88-1.27,1.32-3.03,1.32-5.3s-.47-3.97-1.4-5.22c-.93-1.25-2.22-1.88-3.85-1.88-2.87,0-4.3,1.67-4.3,5v4.65Z"/>
  <path class="cls-1" d="m160.67,116.91h3.3v4.05h-3.8c-1.7,0-3.17-.33-4.4-1-.3,3.3-1.45,5.93-3.45,7.9-1.83,1.8-4.13,2.7-6.9,2.7-2,0-3.95-.5-5.85-1.5v-3.75c1.7.93,3.4,1.4,5.1,1.4,2.13,0,3.8-.72,5-2.15s1.8-3.42,1.8-5.95v-17.05l4.3-2.3v.05l.05-.05v13.65c.3,2.67,1.92,4,4.85,4Z"/>
  <path class="cls-1" d="m178.37,116.91h3.3v4.05h-3.8c-2.77,0-4.95-.88-6.55-2.65-1.6,1.77-3.78,2.65-6.55,2.65h-3.8v-4.05h3.3c3.27,0,4.9-1.67,4.9-5v-10.35l4.3-2.3v12.65c0,3.33,1.63,5,4.9,5Zm-11.95,9.05c1.6,0,2.4.83,2.4,2.5s-.8,2.45-2.4,2.45-2.45-.82-2.45-2.45.82-2.5,2.45-2.5Zm6.35,0c1.6,0,2.4.83,2.4,2.5s-.8,2.45-2.4,2.45-2.45-.82-2.45-2.45.82-2.5,2.45-2.5Z"/>
  <path class="cls-1" d="m196.07,116.91h3.3v4.05h-3.8c-2.77,0-4.95-.88-6.55-2.65-1.6,1.77-3.78,2.65-6.55,2.65h-3.8v-4.05h3.3c3.27,0,4.9-1.67,4.9-5v-10.35l4.3-2.3v12.65c0,3.33,1.63,5,4.9,5Zm-7.35,9.05c1.6,0,2.4.82,2.4,2.45s-.8,2.5-2.4,2.5-2.45-.83-2.45-2.5.82-2.45,2.45-2.45Z"/>
  <path class="cls-1" d="m223.72,116.91h2.85v4.05h-3.3c-2.8,0-4.98-.87-6.55-2.6-1.57,1.73-3.75,2.6-6.55,2.6h-13.8v-4.05h13.4c3.2,0,4.8-1.68,4.8-5.05v-.45c0-2.5-.97-4.4-2.9-5.7-1.53-1.07-3.42-1.6-5.65-1.6-1.77,0-3.53.33-5.3,1v-4.25l10.95-12.15h4.4l-9.85,11.1h.3c3.8,0,6.87,1.15,9.2,3.45,2.1,2.13,3.15,4.83,3.15,8.1v.55c0,3.33,1.62,5,4.85,5Z"/>
  <path class="cls-1" d="m223.57,120.96v-4.05h3.3c3.27,0,4.9-1.67,4.9-5v-10.35l4.3-2.3v12.8c0,2.83-.85,5.07-2.55,6.7-1.57,1.47-3.62,2.2-6.15,2.2h-3.8Zm3.85-27.75c-1.63,0-2.45-.83-2.45-2.5s.82-2.45,2.45-2.45,2.4.82,2.4,2.45-.8,2.5-2.4,2.5Zm6.35,0c-1.63,0-2.45-.83-2.45-2.5s.82-2.45,2.45-2.45,2.4.82,2.4,2.45-.8,2.5-2.4,2.5Z"/>
  <path class="cls-1" d="m268.26,116.91h3.3v4.05h-3.8c-1.7,0-3.17-.33-4.4-1-.3,3.3-1.45,5.93-3.45,7.9-1.83,1.8-4.13,2.7-6.9,2.7-2,0-3.95-.5-5.85-1.5v-3.75c1.7.93,3.4,1.4,5.1,1.4,2.13,0,3.8-.72,5-2.15s1.8-3.42,1.8-5.95v-17.05l4.3-2.3v.05l.05-.05v13.65c.3,2.67,1.92,4,4.85,4Z"/>
  <path class="cls-1" d="m285.96,116.91h3.3v4.05h-3.8c-2.77,0-4.95-.88-6.55-2.65-1.6,1.77-3.78,2.65-6.55,2.65h-3.8v-4.05h3.3c3.27,0,4.9-1.67,4.9-5v-10.35l4.3-2.3v12.65c0,3.33,1.63,5,4.9,5Zm-11.95,9.05c1.6,0,2.4.83,2.4,2.5s-.8,2.45-2.4,2.45-2.45-.82-2.45-2.45.82-2.5,2.45-2.5Zm6.35,0c1.6,0,2.4.83,2.4,2.5s-.8,2.45-2.4,2.45-2.45-.82-2.45-2.45.82-2.5,2.45-2.5Z"/>
  <path class="cls-1" d="m286.26,120.96v-4.05h3.3c3.27,0,4.9-1.67,4.9-5v-10.35l4.3-2.3v12.8c0,2.83-.85,5.07-2.55,6.7-1.57,1.47-3.62,2.2-6.15,2.2h-3.8Zm3.85-27.75c-1.63,0-2.45-.83-2.45-2.5s.82-2.45,2.45-2.45,2.4.82,2.4,2.45-.8,2.5-2.4,2.5Zm3.15-5.95c-1.47,0-2.2-.75-2.2-2.25s.73-2.2,2.2-2.2,2.2.73,2.2,2.2-.73,2.25-2.2,2.25Zm3.2,5.95c-1.63,0-2.45-.83-2.45-2.5s.82-2.45,2.45-2.45,2.4.82,2.4,2.45-.8,2.5-2.4,2.5Z"/>
  <path class="cls-1" d="m305.11,88.01l1.15-2.15h1.35c-.33-.6-.5-1.23-.5-1.9,0-.97.37-1.81,1.1-2.53.73-.72,1.58-1.07,2.55-1.07.83,0,1.63.27,2.4.8v2.2c-.7-.57-1.4-.85-2.1-.85-1.23,0-1.85.57-1.85,1.7,0,.53.25,1.08.75,1.65h4.55l-1.15,2.15h-8.25Zm11.35,32.95c-2.9,0-5.13-.93-6.7-2.8-1.33-1.6-2-3.63-2-6.1v-19.05l4.3-2.3v21.2c0,3.33,1.63,5,4.9,5h3.3v4.05h-3.8Z"/>
  <path class="cls-1" d="m317.26,120.96v-4.05h3.3c3.27,0,4.9-1.67,4.9-5v-10.35l4.3-2.3v12.8c0,2.83-.85,5.07-2.55,6.7-1.57,1.47-3.62,2.2-6.15,2.2h-3.8Zm3.85-27.75c-1.63,0-2.45-.83-2.45-2.5s.82-2.45,2.45-2.45,2.4.82,2.4,2.45-.8,2.5-2.4,2.5Zm6.35,0c-1.63,0-2.45-.83-2.45-2.5s.82-2.45,2.45-2.45,2.4.82,2.4,2.45-.8,2.5-2.4,2.5Z"/>
  <path class="cls-1" d="m389.49,116.91h2.3v4.05h-2.8c-2.8,0-4.98-.87-6.55-2.6-1.57,1.73-3.75,2.6-6.55,2.6h-17.85c-2.7,0-4.82-.9-6.35-2.7-1.33-1.57-2-3.62-2-6.15v-6.05l4.3-2.3v7.95c0,3.47,1.62,5.2,4.85,5.2h16.6c3.23,0,4.85-1.73,4.85-5.2v-10.15l4.3-2.3v12.65c0,3.33,1.63,5,4.9,5Zm-26.4-19.2c-1.63,0-2.45-.83-2.45-2.5s.82-2.45,2.45-2.45,2.4.82,2.4,2.45-.8,2.5-2.4,2.5Zm6.35,0c-1.63,0-2.45-.83-2.45-2.5s.82-2.45,2.45-2.45,2.4.82,2.4,2.45-.8,2.5-2.4,2.5Z"/>
  <path class="cls-1" d="m421.39,116.91h3.25v4.05h-3.3c-2.7,0-4.87-.31-6.5-.92-1.63-.62-3.15-1.71-4.55-3.28-4.2,2.8-9.1,4.2-14.7,4.2h-6.8v-4.05h6.85c6.77,0,12.12-2.23,16.05-6.7-2.77-5.1-6.13-7.65-10.1-7.65-2.7,0-5.48,1.43-8.35,4.3v-4c2.8-2.83,5.77-4.25,8.9-4.25,2.57,0,5.05.92,7.45,2.77,2.4,1.85,4.52,4.49,6.35,7.92v2.2c-1.03,1.3-2.02,2.35-2.95,3.15,1.8,1.5,4.6,2.25,8.4,2.25Z"/>
  <path class="cls-1" d="m421.64,120.96v-4.05h3.3c3.27,0,4.9-1.67,4.9-5v-10.35l4.3-2.3v12.8c0,2.83-.85,5.07-2.55,6.7-1.57,1.47-3.62,2.2-6.15,2.2h-3.8Zm3.85-27.75c-1.63,0-2.45-.83-2.45-2.5s.82-2.45,2.45-2.45,2.4.82,2.4,2.45-.8,2.5-2.4,2.5Zm6.35,0c-1.63,0-2.45-.83-2.45-2.5s.82-2.45,2.45-2.45,2.4.82,2.4,2.45-.8,2.5-2.4,2.5Z"/>
  <path class="cls-1" d="m474.07,116.91h3.3v4.05h-3.8c-3.43,0-5.9-1.27-7.4-3.8-1.6,1.53-3.58,2.3-5.95,2.3-2.93,0-5.27-1.1-7-3.3-1.43-1.87-2.15-4.15-2.15-6.85,0-3.23.98-5.83,2.95-7.8,1.67-1.7,3.7-2.55,6.1-2.55,1.83,0,3.42.47,4.75,1.4v-2.15l4.35-2.3v16c0,3.33,1.62,5,4.85,5Zm-9.2-11.9c-1.23-1.37-2.75-2.05-4.55-2.05-1.47,0-2.67.59-3.6,1.78-.93,1.18-1.4,2.72-1.4,4.62s.47,3.48,1.4,4.65c.93,1.17,2.15,1.75,3.65,1.75,1.87,0,3.4-.77,4.6-2.3-.07-.6-.1-1.07-.1-1.4v-7.05Z"/>
  <path class="cls-1" d="m474.37,120.96v-4.05h3.3c3.27,0,4.9-1.67,4.9-5v-10.35l4.3-2.3v12.8c0,2.83-.85,5.07-2.55,6.7-1.57,1.47-3.62,2.2-6.15,2.2h-3.8Zm3.85-27.75c-1.63,0-2.45-.83-2.45-2.5s.82-2.45,2.45-2.45,2.4.82,2.4,2.45-.8,2.5-2.4,2.5Zm6.35,0c-1.63,0-2.45-.83-2.45-2.5s.82-2.45,2.45-2.45,2.4.82,2.4,2.45-.8,2.5-2.4,2.5Z"/>
  <path class="cls-1" d="m503.27,118.31c0,3.73-.98,6.73-2.95,9-1.87,2.17-4.35,3.25-7.45,3.25-2,0-3.95-.5-5.85-1.5v-3.75c1.7.93,3.4,1.4,5.1,1.4,2.13,0,3.8-.72,5-2.15s1.8-3.42,1.8-5.95v-17.05l4.35-2.3v19.05Z"/>
  <path class="cls-1" d="m535.62,116.91v4.05h-6.2c-.13,2.87-1.37,5.23-3.7,7.1-1.97,1.53-4.2,2.3-6.7,2.3-2.07,0-4.02-.48-5.85-1.45v-3.8c1.77.93,3.52,1.4,5.25,1.4s3.31-.55,4.62-1.65c1.32-1.1,1.99-2.42,2.02-3.95-1.73-.07-3.02-.13-3.85-.2-3.6-.2-6.32-1.42-8.15-3.65-1.53-1.87-2.3-4.28-2.3-7.25,0-3.63.97-6.47,2.9-8.5,1.73-1.8,4.02-2.7,6.85-2.7s5.25.88,6.85,2.65c1.37,1.57,2.05,3.62,2.05,6.15v9.5h6.2Zm-10.55-9.2c0-3.4-1.52-5.1-4.55-5.1-1.73,0-3.08.62-4.05,1.88-.97,1.25-1.45,2.99-1.45,5.22,0,4.37,2.13,6.68,6.4,6.95.8.1,2.02.18,3.65.25v-9.2Z"/>
  <path class="cls-1" d="m548.37,116.76c1.33-5.03,3.53-9.23,6.6-12.6,3.43-3.7,7.43-5.55,12-5.55,3.8,0,6.83,1.32,9.1,3.95,1.9,2.23,2.85,4.98,2.85,8.25v1.3c0,2.9-.88,5.15-2.65,6.75-1.53,1.4-3.55,2.1-6.05,2.1h-20.7c-2.77,0-4.95-.88-6.55-2.65-1.6,1.77-3.78,2.65-6.55,2.65h-3.8v-4.05h3.3c3.27,0,4.9-1.67,4.9-5v-7l4.3-2.3v9.3c0,2.8,1.08,4.42,3.25,4.85Zm26.25-5.05v-.9c0-2.6-.8-4.67-2.4-6.2-1.4-1.33-3.13-2-5.2-2-3.53,0-6.72,1.63-9.55,4.9-2.17,2.5-3.83,5.63-5,9.4h17.5c3.1,0,4.65-1.73,4.65-5.2Z"/>
  <path class="cls-1" d="m623.65,116.91h3.35v4.05h-3.8c-2.7,0-4.85-.83-6.45-2.5-1.57,1.6-3.78,2.43-6.65,2.5h-6.55c-3.27,0-4.9,1.67-4.9,5v8.45l-4.3,2.3v-10.9c0-2.77.8-4.95,2.4-6.55,1.43-1.47,3.33-2.25,5.7-2.35-1.2-1.93-1.8-4.3-1.8-7.1,0-3.63.95-6.47,2.85-8.5,1.7-1.8,3.93-2.7,6.7-2.7s5.02.88,6.55,2.65c1.37,1.57,2.05,3.62,2.05,6.15v4.5c0,3.33,1.62,5,4.85,5Zm-9.15-4.65v-4.65c0-3.33-1.43-5-4.3-5-1.67,0-2.96.62-3.88,1.88-.92,1.25-1.38,2.99-1.38,5.22s.43,4.03,1.3,5.3c.87,1.27,2.08,1.9,3.65,1.9,3.07,0,4.6-1.55,4.6-4.65Z"/>
  <path class="cls-1" d="m624,120.96v-4.05h4.5c3.23,0,4.85-1.67,4.85-5v-7l4.3-2.3v9.3c0,3.33,1.63,5,4.9,5h2.3c3.27,0,4.9-1.67,4.9-5v-8.7l4.3-2.25v10.95c0,3.33,1.62,5,4.85,5h2.35c3.27,0,4.9-1.67,4.9-5v-10.35l4.3-2.3v12.8c0,2.83-.85,5.05-2.55,6.65-1.5,1.47-3.5,2.22-6,2.25h-3.45c-2.93,0-5.12-.98-6.55-2.95-1.43,1.93-3.57,2.92-6.4,2.95h-3.45c-2.87,0-5.05-.98-6.55-2.95-1.43,1.97-3.62,2.95-6.55,2.95h-4.95Z"/>
  <path class="cls-1" d="m686.85,118.31c0,3.73-.98,6.73-2.95,9-1.87,2.17-4.35,3.25-7.45,3.25-2,0-3.95-.5-5.85-1.5v-3.75c1.7.93,3.4,1.4,5.1,1.4,2.13,0,3.8-.72,5-2.15s1.8-3.42,1.8-5.95v-17.05l4.35-2.3v19.05Z"/>
  <path class="cls-1" d="m693.2,88.01l1.15-2.15h1.35c-.33-.6-.5-1.22-.5-1.85,0-1,.37-1.86,1.1-2.58.73-.72,1.6-1.07,2.6-1.07.83,0,1.63.27,2.4.8v2.2c-.73-.57-1.43-.85-2.1-.85-1.23,0-1.85.55-1.85,1.65,0,.57.23,1.13.7,1.7h4.55l-1.15,2.15h-8.25Zm2.65,32.95v-27.95l4.3-2.3v30.25h-4.3Z"/>
  <path class="cls-1" d="m745.88,116.91h3.35v4.05h-3.8c-2.7,0-4.85-.83-6.45-2.5-1.57,1.6-3.78,2.43-6.65,2.5h-6.55c-3.27,0-4.9,1.67-4.9,5v8.45l-4.3,2.3v-10.9c0-2.77.8-4.95,2.4-6.55,1.43-1.47,3.33-2.25,5.7-2.35-1.2-1.93-1.8-4.3-1.8-7.1,0-3.63.95-6.47,2.85-8.5,1.7-1.8,3.93-2.7,6.7-2.7s5.02.88,6.55,2.65c1.37,1.57,2.05,3.62,2.05,6.15v4.5c0,3.33,1.62,5,4.85,5Zm-9.15-4.65v-4.65c0-3.33-1.43-5-4.3-5-1.67,0-2.96.62-3.88,1.88-.92,1.25-1.38,2.99-1.38,5.22s.43,4.03,1.3,5.3c.87,1.27,2.08,1.9,3.65,1.9,3.07,0,4.6-1.55,4.6-4.65Z"/>
  <path class="cls-1" d="m746.23,120.96v-4.05h3.3c3.27,0,4.9-1.67,4.9-5v-10.35l4.3-2.3v12.8c0,2.83-.85,5.07-2.55,6.7-1.57,1.47-3.62,2.2-6.15,2.2h-3.8Zm3.85-27.75c-1.63,0-2.45-.83-2.45-2.5s.82-2.45,2.45-2.45,2.4.82,2.4,2.45-.8,2.5-2.4,2.5Zm3.15-5.95c-1.47,0-2.2-.75-2.2-2.25s.73-2.2,2.2-2.2,2.2.73,2.2,2.2-.73,2.25-2.2,2.25Zm3.2,5.95c-1.63,0-2.45-.83-2.45-2.5s.82-2.45,2.45-2.45,2.4.82,2.4,2.45-.8,2.5-2.4,2.5Z"/>
  <path class="cls-1" d="m780.81,115.11c1.83,0,2.78.95,2.85,2.85,0,.93-.29,1.71-.88,2.33-.58.62-1.34.92-2.27.92-2.07,0-3.1-1.27-3.1-3.8v-6.45l2.1-.6.05,4.75h1.25Z"/>
  <path class="cls-1" d="m819.76,120.96c-.33,2.93-1.93,5.28-4.8,7.05-2.67,1.63-6.07,2.45-10.2,2.45-5.27,0-9.23-1.53-11.9-4.6-1.97-2.27-2.95-5.07-2.95-8.4,0-2.8.7-5.2,2.1-7.2l4.15-.9c-1.5,2.37-2.25,4.92-2.25,7.65,0,2.97.97,5.3,2.9,7,1.9,1.7,4.55,2.55,7.95,2.55,2.87,0,5.23-.5,7.1-1.5,1.87-1,3-2.37,3.4-4.1h-5l2.1-4.05h7.55v4.05h-.15Zm-18.35,18.35c-1.63,0-2.45-.83-2.45-2.5s.82-2.45,2.45-2.45,2.4.82,2.4,2.45-.8,2.5-2.4,2.5Zm6.35,0c-1.63,0-2.45-.83-2.45-2.5s.82-2.45,2.45-2.45,2.4.82,2.4,2.45-.8,2.5-2.4,2.5Z"/>
  <path class="cls-1" d="m817.26,120.96v-4.05h3.3c3.27,0,4.9-1.67,4.9-5v-10.35l4.3-2.3v12.8c0,2.83-.85,5.07-2.55,6.7-1.57,1.47-3.62,2.2-6.15,2.2h-3.8Zm3.85-27.75c-1.63,0-2.45-.83-2.45-2.5s.82-2.45,2.45-2.45,2.4.82,2.4,2.45-.8,2.5-2.4,2.5Zm3.15-5.95c-1.47,0-2.2-.75-2.2-2.25s.73-2.2,2.2-2.2,2.2.73,2.2,2.2-.73,2.25-2.2,2.25Zm3.2,5.95c-1.63,0-2.45-.83-2.45-2.5s.82-2.45,2.45-2.45,2.4.82,2.4,2.45-.8,2.5-2.4,2.5Z"/>
  <path class="cls-1" d="m838.76,120.96v-29.95l4.3-2.3v32.25h-4.3Z"/>
  <path class="cls-1" d="m848.06,120.96l2.1-4.05h8.9c1.33,0,2.27-.33,2.83-1,.55-.67.82-1.82.82-3.45,0-4.43-2.05-7.77-6.15-10l2.2-3.7c5.23,3.07,7.97,7.3,8.2,12.7.07,1.93.51,3.33,1.33,4.17.82.85,2.12,1.28,3.92,1.28h2.95v4.05h-3.3c-2.77,0-4.93-.88-6.5-2.65-1.1,1.77-2.95,2.65-5.55,2.65h-11.75Z"/>
  <path class="cls-1" d="m872.16,120.96v-4.05h6.85c6.77,0,12.12-2.23,16.05-6.7-2.77-5.1-6.13-7.65-10.1-7.65-2.7,0-5.48,1.43-8.35,4.3v-4c2.8-2.83,5.77-4.25,8.9-4.25,2.57,0,5.05.92,7.45,2.77,2.4,1.85,4.52,4.49,6.35,7.92v2.2c-4.9,6.3-11.68,9.45-20.35,9.45h-6.8Z"/>
  <path class="cls-1" d="m924.86,91.01l4.35-2.3v22.8c0,2.97-.88,5.32-2.65,7.05-1.67,1.6-3.85,2.4-6.55,2.4h-17.2l2.1-4.05h7.3v-19.4l4.3-2.3v21.7h3.15c3.47,0,5.2-1.82,5.2-5.45v-20.45Zm-7.6,36.7c-.73-.57-1.43-.85-2.1-.85-1.23,0-1.85.55-1.85,1.65,0,.57.23,1.13.7,1.7h4.55l-1.15,2.15h-8.25l1.15-2.15h1.35c-.33-.6-.5-1.23-.5-1.9,0-.97.37-1.81,1.1-2.52.73-.72,1.6-1.08,2.6-1.08.83,0,1.63.27,2.4.8v2.2Z"/>
  <path class="cls-1" d="m938.21,120.96v-29.95l4.3-2.3v32.25h-4.3Z"/>
  <path class="cls-1" d="m989.09,106.41c-2.23-2.33-4.57-3.5-7-3.5-1.3,0-2.33.38-3.1,1.15-.77.77-1.15,1.8-1.15,3.1,0,1.43.43,2.55,1.3,3.35.87.8,2.55,1.63,5.05,2.5,2.5.9,4.2,1.75,5.1,2.55,1.33,1.13,2,2.68,2,4.65,0,3.13-1.48,5.67-4.45,7.6-2.7,1.77-6.22,2.65-10.55,2.65-5.27,0-9.23-1.53-11.9-4.6-1.97-2.27-2.95-5.07-2.95-8.4,0-2.8.7-5.2,2.1-7.2l4.15-.9c-1.5,2.37-2.25,4.92-2.25,7.65,0,2.87.97,5.17,2.9,6.9,1.9,1.67,4.55,2.5,7.95,2.5,3.63,0,6.43-.72,8.4-2.15,1.53-1.13,2.3-2.5,2.3-4.1,0-.9-.34-1.63-1.02-2.2-.68-.57-2.04-1.2-4.07-1.9-2.8-1-4.73-2-5.8-3-1.6-1.47-2.4-3.43-2.4-5.9,0-2.7.95-4.82,2.85-6.35,1.47-1.17,3.13-1.75,5-1.75,3.07,0,5.58,1.12,7.55,3.35v4Z"/>
  <path class="cls-1" d="m1022.14,116.91v4.05h-6.2c-.13,2.87-1.37,5.23-3.7,7.1-1.97,1.53-4.2,2.3-6.7,2.3-2.07,0-4.02-.48-5.85-1.45v-3.8c1.77.93,3.52,1.4,5.25,1.4s3.31-.55,4.62-1.65c1.32-1.1,1.99-2.42,2.02-3.95-1.73-.07-3.02-.13-3.85-.2-3.6-.2-6.32-1.42-8.15-3.65-1.53-1.87-2.3-4.28-2.3-7.25,0-3.63.97-6.47,2.9-8.5,1.73-1.8,4.02-2.7,6.85-2.7s5.25.88,6.85,2.65c1.37,1.57,2.05,3.62,2.05,6.15v9.5h6.2Zm-10.55-9.2c0-3.4-1.52-5.1-4.55-5.1-1.73,0-3.08.62-4.05,1.88-.97,1.25-1.45,2.99-1.45,5.22,0,4.37,2.13,6.68,6.4,6.95.8.1,2.02.18,3.65.25v-9.2Z"/>
  <path class="cls-1" d="m1036.54,116.91h3.3v4.05h-3.8c-2.77,0-4.95-.88-6.55-2.65-1.6,1.77-3.78,2.65-6.55,2.65h-3.8v-4.05h3.3c3.27,0,4.9-1.67,4.9-5v-10.35l4.3-2.3v12.65c0,3.33,1.63,5,4.9,5Zm-11.8-23.35c-1.63,0-2.45-.83-2.45-2.5s.82-2.45,2.45-2.45,2.4.82,2.4,2.45-.8,2.5-2.4,2.5Zm6.4,0c-1.63,0-2.45-.83-2.45-2.5s.82-2.45,2.45-2.45,2.4.82,2.4,2.45-.8,2.5-2.4,2.5Z"/>
  <path class="cls-1" d="m1036.85,120.96v-4.05h4.5c3.23,0,4.85-1.67,4.85-5v-7l4.3-2.3v9.3c0,3.33,1.63,5,4.9,5h2.3c3.27,0,4.9-1.67,4.9-5v-8.7l4.3-2.25v10.95c0,3.33,1.62,5,4.85,5h2.35c3.27,0,4.9-1.67,4.9-5v-10.35l4.3-2.3v12.2c0,3.63,1.73,5.45,5.2,5.45h4.15v4.05h-4.5c-3,0-5.28-1.02-6.85-3.05-1.4,2-3.58,3.02-6.55,3.05h-3.45c-2.93,0-5.12-.98-6.55-2.95-1.43,1.93-3.57,2.92-6.4,2.95h-3.45c-2.87,0-5.05-.98-6.55-2.95-1.43,1.97-3.62,2.95-6.55,2.95h-4.95Z"/>
  <path class="cls-1" d="m1121.85,116.91h3.35v4.05h-3.8c-2.77,0-4.95-.88-6.55-2.65-1.7,2.43-4.18,3.65-7.45,3.65s-5.73-1.2-7.4-3.6c-1.57,1.73-3.75,2.6-6.55,2.6h-3.8v-4.05h3.3c3.27,0,4.9-1.67,4.9-5v-1.65c0-3.87.95-6.83,2.85-8.9,1.67-1.83,3.9-2.75,6.7-2.75,3.2,0,5.67,1.18,7.4,3.55,1.47,2.03,2.2,4.73,2.2,8.1v1.65c0,3.33,1.62,5,4.85,5Zm-14.45,1c1.63,0,2.92-.68,3.88-2.05s1.42-3.25,1.42-5.65c0-5.07-1.77-7.6-5.3-7.6s-5.25,2.53-5.25,7.6,1.75,7.7,5.25,7.7Z"/>
  <path class="cls-1" d="m1122.19,120.96v-4.05h2.65c3.47,0,5.2-1.82,5.2-5.45v-20.45l4.35-2.3v22.8c0,2.97-.88,5.32-2.65,7.05-1.67,1.6-3.85,2.4-6.55,2.4h-3Z"/>
  <path class="cls-1" d="m1143.39,120.96v-29.95l4.3-2.3v32.25h-4.3Z"/>
  <path class="cls-1" d="m1196.48,120.96c-.33,2.93-1.93,5.28-4.8,7.05-2.67,1.63-6.07,2.45-10.2,2.45-5.27,0-9.23-1.53-11.9-4.6-1.97-2.27-2.95-5.07-2.95-8.4,0-2.8.7-5.2,2.1-7.2l4.15-.9c-1.5,2.37-2.25,4.92-2.25,7.65,0,2.97.97,5.3,2.9,7,1.9,1.7,4.55,2.55,7.95,2.55,2.87,0,5.23-.5,7.1-1.5,1.87-1,3-2.37,3.4-4.1h-5l2.1-4.05h7.55v4.05h-.15Zm-18.35,18.35c-1.63,0-2.45-.83-2.45-2.5s.82-2.45,2.45-2.45,2.4.82,2.4,2.45-.8,2.5-2.4,2.5Zm6.35,0c-1.63,0-2.45-.83-2.45-2.5s.82-2.45,2.45-2.45,2.4.82,2.4,2.45-.8,2.5-2.4,2.5Z"/>
  <path class="cls-1" d="m1193.98,120.96v-4.05h9c-1.53-1.7-2.3-4.07-2.3-7.1,0-3.63.95-6.47,2.85-8.5,1.67-1.8,3.88-2.7,6.65-2.7s5.03.88,6.6,2.65c1.33,1.57,2,3.62,2,6.15v4.75c-.03,2.77-.85,4.95-2.45,6.55-1.57,1.5-3.65,2.25-6.25,2.25h-16.1Zm20.5-13.35c0-3.33-1.43-5-4.3-5-1.63,0-2.92.62-3.85,1.88-.93,1.25-1.4,2.99-1.4,5.22s.45,3.95,1.35,5.25c.9,1.3,2.1,1.95,3.6,1.95,3.07,0,4.6-1.6,4.6-4.8v-4.5Zm-4.2-14.1c-1.63,0-2.45-.83-2.45-2.5s.82-2.45,2.45-2.45,2.4.82,2.4,2.45-.8,2.5-2.4,2.5Z"/>
  <path class="cls-1" d="m728.48,195.56v-.1c.07-1.67.95-2.5,2.65-2.5s2.65.87,2.65,2.6-.88,2.65-2.65,2.65-2.65-.88-2.65-2.65Z"/>
  <path class="cls-1" d="m739.98,187.56l13.9-21.25h4.75v21.25h5.6v3.85h-5.6v6.55h-4.6v-6.55h-14.05v-3.85Zm4.35,0h9.7v-15.05l-9.7,15.05Z"/>
  <path class="cls-1" d="m802.13,193.91h3.3v4.05h-3.8c-3.43,0-5.9-1.27-7.4-3.8-1.6,1.53-3.58,2.3-5.95,2.3-2.93,0-5.27-1.1-7-3.3-1.43-1.87-2.15-4.15-2.15-6.85,0-3.23.98-5.83,2.95-7.8,1.67-1.7,3.7-2.55,6.1-2.55,1.83,0,3.42.47,4.75,1.4v-2.15l4.35-2.3v16c0,3.33,1.62,5,4.85,5Zm-9.2-11.9c-1.23-1.37-2.75-2.05-4.55-2.05-1.47,0-2.67.59-3.6,1.78-.93,1.18-1.4,2.72-1.4,4.62s.47,3.48,1.4,4.65c.93,1.17,2.15,1.75,3.65,1.75,1.87,0,3.4-.77,4.6-2.3-.07-.6-.1-1.07-.1-1.4v-7.05Z"/>
  <path class="cls-1" d="m819.48,193.91h3.3v4.05h-3.8c-2.87,0-5.08-.92-6.65-2.75-1.67,1.83-3.97,2.75-6.9,2.75h-3v-4.05h2.65c3.47,0,5.2-1.82,5.2-5.45v-20.45l4.35-2.3v22.8c0,1.93.38,3.32,1.12,4.15s1.99,1.25,3.72,1.25Z"/>
  <path class="cls-1" d="m827.98,184.41c0-2.9.87-5.15,2.6-6.75,1.53-1.37,3.53-2.05,6-2.05,3.17,0,5.6,1.17,7.3,3.5,1.47,1.97,2.2,4.53,2.2,7.7,0,3.6-.93,6.42-2.8,8.45-1.63,1.8-3.77,2.7-6.4,2.7-3,0-5.28-.83-6.85-2.5-1.6,1.67-3.75,2.5-6.45,2.5h-3.8v-4.05h3.3c3.27,0,4.9-1.67,4.9-5v-4.5Zm4.3,4.85c0,3.1,1.52,4.65,4.55,4.65,1.57,0,2.79-.63,3.68-1.9.88-1.27,1.32-3.03,1.32-5.3s-.47-3.97-1.4-5.22c-.93-1.25-2.22-1.88-3.85-1.88-2.87,0-4.3,1.67-4.3,5v4.65Z"/>
  <path class="cls-1" d="m863.03,197.96c-2.9,0-5.13-.93-6.7-2.8-1.33-1.6-2-3.63-2-6.1v-21.05l4.3-2.3v23.2c0,3.33,1.63,5,4.9,5h3.3v4.05h-3.8Z"/>
  <path class="cls-1" d="m888.53,193.91h13.2v4.05h-13.6c-1.8,0-3.58-.35-5.35-1.05-1.77.7-3.57,1.05-5.4,1.05h-13.55v-4.05h13.9c-2.4-1.97-4.87-4.85-7.4-8.65v-2.2c1.6-2.3,3.51-4.12,5.73-5.45,2.22-1.33,4.44-2,6.67-2s4.47.67,6.7,2.02c2.23,1.35,4.17,3.19,5.8,5.53v2.1c-2.53,3.8-5.02,6.68-7.45,8.65h.75Zm-14.2-9.7c3.07,4.2,5.88,6.97,8.45,8.3,2.57-1.37,5.38-4.15,8.45-8.35-2.5-3.03-5.33-4.57-8.5-4.6-3.17,0-5.97,1.55-8.4,4.65Z"/>
  <path class="cls-1" d="m906.93,184.41c0-2.9.87-5.15,2.6-6.75,1.53-1.37,3.53-2.05,6-2.05,3.17,0,5.6,1.17,7.3,3.5,1.47,1.97,2.2,4.53,2.2,7.7,0,3.6-.93,6.42-2.8,8.45-1.63,1.8-3.77,2.7-6.4,2.7-3,0-5.28-.83-6.85-2.5-1.6,1.67-3.75,2.5-6.45,2.5h-3.8v-4.05h3.3c3.27,0,4.9-1.67,4.9-5v-4.5Zm4.3,4.85c0,3.1,1.52,4.65,4.55,4.65,1.57,0,2.79-.63,3.68-1.9.88-1.27,1.32-3.03,1.32-5.3s-.47-3.97-1.4-5.22c-.93-1.25-2.22-1.88-3.85-1.88-2.87,0-4.3,1.67-4.3,5v4.65Z"/>
  <path class="cls-1" d="m945.58,196.36c-1.27.5-2.82.75-4.65.75-2.97,0-5.3-1.12-7-3.35-1.43-1.9-2.15-4.28-2.15-7.15,0-3.53.95-6.3,2.85-8.3,1.7-1.8,3.93-2.7,6.7-2.7s5.02.88,6.55,2.65c1.37,1.57,2.05,3.62,2.05,6.15v10.9c0,3.77-.98,6.75-2.95,8.95-1.87,2.07-4.35,3.1-7.45,3.1-2.07,0-4.02-.48-5.85-1.45v-3.8c1.77.93,3.52,1.4,5.25,1.4,1.97,0,3.53-.62,4.7-1.88,1.17-1.25,1.82-3.01,1.95-5.27Zm0-11.75c0-3.33-1.42-5-4.25-5-1.67,0-2.97.62-3.92,1.85-.95,1.23-1.42,2.92-1.42,5.05s.46,3.78,1.38,5.03c.92,1.25,2.16,1.88,3.72,1.88,2.2,0,3.7-.62,4.5-1.85v-6.95Z"/>
  <path class="cls-1" d="m1000.88,193.91h3.3v4.05h-3.8c-1.8,0-3.42-.4-4.85-1.2-.47,3.43-2.02,6.13-4.65,8.1-2.33,1.73-5.22,2.6-8.65,2.6-4.47,0-7.92-1.5-10.35-4.5-1.87-2.33-2.8-5.12-2.8-8.35,0-2.83.68-5.25,2.05-7.25l4.3-.95c-1.53,2.37-2.3,4.95-2.3,7.75s.88,5.03,2.65,6.8c1.63,1.63,3.78,2.45,6.45,2.45,3.03,0,5.37-.9,7-2.7,1.4-1.53,2.1-3.5,2.1-5.9v-26.8l4.35-2.3v23.2c0,3.33,1.73,5,5.2,5Z"/>
  <path class="cls-1" d="m1016.93,193.76c1.33-5.03,3.53-9.23,6.6-12.6,3.43-3.7,7.43-5.55,12-5.55,3.8,0,6.83,1.32,9.1,3.95,1.9,2.23,2.85,4.98,2.85,8.25v1.3c0,2.9-.88,5.15-2.65,6.75-1.53,1.4-3.55,2.1-6.05,2.1h-20.7c-2.77,0-4.95-.88-6.55-2.65-1.6,1.77-3.78,2.65-6.55,2.65h-3.8v-4.05h3.3c3.27,0,4.9-1.67,4.9-5v-7l4.3-2.3v9.3c0,2.8,1.08,4.42,3.25,4.85Zm26.25-5.05v-.9c0-2.6-.8-4.67-2.4-6.2-1.4-1.33-3.13-2-5.2-2-3.53,0-6.72,1.63-9.55,4.9-2.17,2.5-3.83,5.63-5,9.4h17.5c3.1,0,4.65-1.73,4.65-5.2Z"/>
  <path class="cls-1" d="m1074.03,168.01l4.35-2.3v22.8c0,2.97-.88,5.32-2.65,7.05-1.67,1.6-3.85,2.4-6.55,2.4h-17.2l2.1-4.05h7.3v-19.4l4.3-2.3v21.7h3.15c3.47,0,5.2-1.82,5.2-5.45v-20.45Zm-6.2-1.75l-1.15,2.15h-8.25l1.15-2.15h1.35c-.33-.6-.5-1.23-.5-1.9,0-.97.37-1.81,1.1-2.53.73-.72,1.6-1.08,2.6-1.08.83,0,1.63.27,2.4.8v2.2c-.73-.57-1.43-.85-2.1-.85-1.23,0-1.85.55-1.85,1.65,0,.57.23,1.13.7,1.7h4.55Z"/>
  <path class="cls-1" d="m1087.38,197.96v-29.95l4.3-2.3v32.25h-4.3Z"/>
  <path class="cls-1" d="m1132.33,193.91h3.3v4.05h-3.8c-3.43,0-5.9-1.27-7.4-3.8-1.6,1.53-3.58,2.3-5.95,2.3-2.93,0-5.27-1.1-7-3.3-1.43-1.87-2.15-4.15-2.15-6.85,0-3.23.98-5.83,2.95-7.8,1.67-1.7,3.7-2.55,6.1-2.55,1.83,0,3.42.47,4.75,1.4v-2.15l4.35-2.3v16c0,3.33,1.62,5,4.85,5Zm-9.2-11.9c-1.23-1.37-2.75-2.05-4.55-2.05-1.47,0-2.67.59-3.6,1.78-.93,1.18-1.4,2.72-1.4,4.62s.47,3.48,1.4,4.65c.93,1.17,2.15,1.75,3.65,1.75,1.87,0,3.4-.77,4.6-2.3-.07-.6-.1-1.07-.1-1.4v-7.05Zm-6.45-12.3c-1.63,0-2.45-.83-2.45-2.5s.82-2.45,2.45-2.45,2.4.82,2.4,2.45-.8,2.5-2.4,2.5Zm6.35,0c-1.63,0-2.45-.83-2.45-2.5s.82-2.45,2.45-2.45,2.4.82,2.4,2.45-.8,2.5-2.4,2.5Z"/>
  <path class="cls-1" d="m1177.33,193.91h3.3v4.05h-3.8c-2.67,0-4.75-.78-6.25-2.35-1.37,1.57-3.3,2.35-5.8,2.35h-32.15v-4.05h9.3l.15-.55v-25.35l4.3-2.3v18.3c3.8-5.6,8.52-8.4,14.15-8.4,3.77,0,6.78,1.32,9.05,3.95,1.93,2.23,2.9,4.98,2.9,8.25v1.2c0,3.27,1.62,4.9,4.85,4.9Zm-9.2-4.7v-1.4c0-2.6-.8-4.67-2.4-6.2-1.37-1.33-3.08-2-5.15-2-3.43,0-6.53,1.55-9.3,4.65-2.07,2.33-3.7,5.25-4.9,8.75v.9h18.05c1.43,0,2.41-.33,2.93-1,.52-.67.77-1.9.77-3.7Z"/>
  <path class="cls-1" d="m1199.48,193.91h9.3v4.05h-12.2c-1.3,0-2.43-.12-3.4-.35-.93.23-2.07.35-3.4.35h-12.15v-4.05h9.3c-2.07-2.37-3.1-4.98-3.1-7.85,0-3.27.92-5.87,2.75-7.8,1.67-1.77,3.87-2.65,6.6-2.65,3.13,0,5.55,1.13,7.25,3.4,1.43,1.87,2.15,4.22,2.15,7.05s-1.03,5.48-3.1,7.85Zm-9.45-23.35c-1.63,0-2.45-.83-2.45-2.5s.82-2.45,2.45-2.45,2.4.82,2.4,2.45-.8,2.5-2.4,2.5Zm3.2,22.9c1.53-.53,2.78-1.51,3.75-2.92.97-1.42,1.45-2.98,1.45-4.67,0-1.93-.47-3.46-1.42-4.58-.95-1.12-2.23-1.67-3.83-1.67s-2.88.57-3.82,1.7c-.95,1.13-1.43,2.65-1.43,4.55,0,1.67.5,3.22,1.5,4.65,1,1.43,2.27,2.42,3.8,2.95Zm3.15-22.9c-1.63,0-2.45-.83-2.45-2.5s.82-2.45,2.45-2.45,2.4.82,2.4,2.45-.8,2.5-2.4,2.5Z"/>
  <path class="cls-1" d="m1205.78,197.96v-4.05h3.3c3.27,0,4.9-1.67,4.9-5v-10.35l4.3-2.3v12.8c0,2.83-.85,5.07-2.55,6.7-1.57,1.47-3.62,2.2-6.15,2.2h-3.8Zm10.2-27.75c-1.63,0-2.45-.83-2.45-2.5s.82-2.45,2.45-2.45,2.4.82,2.4,2.45-.8,2.5-2.4,2.5Z"/>
</svg>