<?xml version="1.0" encoding="UTF-8"?>
<svg id="Layer_2" data-name="Layer 2" xmlns="http://www.w3.org/2000/svg" width="215.47" height="76.76" xmlns:xlink="http://www.w3.org/1999/xlink" viewBox="0 0 215.47 76.76">
  <defs>
    <style>
      .cls-1 {
        fill: url(#linear-gradient);
      }

      .cls-1, .cls-2, .cls-3 {
        stroke-width: 0px;
      }

      .cls-4 {
        filter: url(#drop-shadow-3);
      }

      .cls-2 {
        fill: #fff;
      }

      .cls-5 {
        filter: url(#drop-shadow-2);
      }

      .cls-3 {
        fill: #eaeaea;
      }
    </style>
    <linearGradient id="linear-gradient" x1="107.74" y1="95.55" x2="107.74" y2="-119.93" gradientUnits="userSpaceOnUse">
      <stop offset="0" stop-color="#766fa4"/>
      <stop offset=".43" stop-color="#6fafcd"/>
      <stop offset=".73" stop-color="#82c4cf"/>
      <stop offset=".8" stop-color="#8ed1cf"/>
      <stop offset=".92" stop-color="#a0e6d1"/>
      <stop offset="1" stop-color="#a7eed2"/>
    </linearGradient>
    <filter id="drop-shadow-2" filterUnits="userSpaceOnUse">
      <feOffset dx="0" dy="2"/>
      <feGaussianBlur result="blur" stdDeviation="1"/>
      <feFlood flood-color="#000" flood-opacity=".5"/>
      <feComposite in2="blur" operator="in"/>
      <feComposite in="SourceGraphic"/>
    </filter>
    <filter id="drop-shadow-3" filterUnits="userSpaceOnUse">
      <feOffset dx="0" dy="1.93"/>
      <feGaussianBlur result="blur-2" stdDeviation=".97"/>
      <feFlood flood-color="#000" flood-opacity=".5"/>
      <feComposite in2="blur-2" operator="in"/>
      <feComposite in="SourceGraphic"/>
    </filter>
  </defs>
  <g id="Layer_1-2" data-name="Layer 1">
    <g>
      <rect class="cls-3" x="0" y="3" width="215.47" height="73.76" rx="8.37" ry="8.37"/>
      <rect class="cls-1" x="0" y="0" width="215.47" height="73.76" rx="8.37" ry="8.37"/>
      <g>
        <g class="cls-5">
          <path class="cls-2" d="m112.83,58.34c-2.47,1.61-5.23,2.41-8.3,2.41-3.38,0-6.12-1.06-8.21-3.18-1.92-1.95-2.88-4.43-2.88-7.44,0-2.09.54-3.91,1.61-5.46,1.07-1.55,2.83-3.02,5.27-4.43-1.66-1-3.68-2.92-6.06-5.76-.32-.37-.56-.67-.73-.9v-2.45c1.29-1.92,2.93-3.45,4.92-4.6,1.99-1.15,4.02-1.72,6.08-1.72s4.1.58,6.11,1.74c2.01,1.16,3.67,2.72,4.99,4.67v2.37c-1.78,2.12-3.97,4-6.58,5.63.97.14,1.86.21,2.67.21h9.33l.04,5.2h-12.43c-1.58,0-3.01-.37-4.3-1.12-2.06.95-3.53,1.94-4.41,2.97-.88,1.03-1.31,2.26-1.31,3.7,0,1.63.57,2.94,1.7,3.91s2.66,1.46,4.58,1.46c2.81,0,5.45-.77,7.91-2.32v5.12Zm-8.34-20.98c2.15-1.69,3.74-3.4,4.77-5.12-1.72-1.61-3.33-2.41-4.82-2.41s-3,.8-4.6,2.41c1.15,1.98,2.69,3.68,4.64,5.12Z"/>
          <path class="cls-2" d="m118.51,44.63v-5.2h6.41c5.04,0,9.06-1.5,12.04-4.51-1.95-3.41-4.32-5.12-7.1-5.12-2.29,0-4.8,1.25-7.52,3.74v-4.77c2.41-2.64,5.13-3.96,8.17-3.96,2.24,0,4.41.82,6.54,2.45,2.12,1.63,4,3.96,5.63,6.97v2.15c-2.06,2.64-4.64,4.67-7.72,6.11-3.08,1.43-6.44,2.15-10.08,2.15h-6.36Zm13.33,9.59c-.86,0-1.55-.26-2.06-.77-.52-.52-.77-1.22-.77-2.11,0-.83.26-1.5.77-2.02.52-.52,1.2-.77,2.06-.77s1.54.25,2.04.75.75,1.18.75,2.04c0,1.92-.93,2.88-2.79,2.88Z"/>
          <path class="cls-2" d="m148.7,44.63v-24.85l5.42-2.88v27.74h-5.42Z"/>
          <path class="cls-2" d="m175.44,39.42h3.87v5.2h-4.39c-.98,0-1.88-.13-2.71-.39-.37,2.75-1.48,4.93-3.31,6.54-1.66,1.43-3.66,2.15-5.98,2.15-1.81,0-3.57-.46-5.29-1.38v-4.73c1.49.83,2.95,1.25,4.39,1.25,1.58,0,2.8-.51,3.68-1.53.87-1.02,1.31-2.43,1.31-4.24v-13.93l3.53-1.85,1.85-.99v.04l.04-.04v10.79c0,1.12.23,1.91.69,2.39.46.47,1.23.71,2.32.71Z"/>
          <path class="cls-2" d="m176.73,44.63v-5.2h3.87c1.09,0,1.86-.24,2.32-.71.46-.47.69-1.27.69-2.39v-7.96l5.42-2.84v11.05c0,2.61-.8,4.64-2.41,6.11-1.4,1.29-3.24,1.93-5.5,1.93h-4.39Zm3.1-23.43c-.86,0-1.55-.26-2.06-.77-.52-.52-.77-1.22-.77-2.11,0-1.86.95-2.79,2.84-2.79.86,0,1.54.25,2.04.75.5.5.75,1.18.75,2.04,0,1.92-.93,2.88-2.79,2.88Zm6.62,0c-.86,0-1.55-.26-2.06-.77-.52-.52-.77-1.22-.77-2.11,0-1.86.95-2.79,2.84-2.79.86,0,1.54.25,2.04.75.5.5.75,1.18.75,2.04,0,1.92-.93,2.88-2.79,2.88Z"/>
        </g>
        <g class="cls-4">
          <path class="cls-2" d="m22.8,29.03l14.89,13.26c.91.84,2.23,1.05,3.35.52,1.14-.49,1.87-1.62,1.86-2.86v-3.43h1.31c10.99,0,20.68,8.54,24.1,21.26.08.28.33.48.63.48.32-.02.57-.26.6-.58.21-1.61.32-3.23.33-4.86,0-17.78-11.97-32.24-26.68-32.24h-.34v-3.54c0-1.24-.72-2.37-1.86-2.88-1.14-.51-2.46-.29-3.38.55l-14.81,13.32c-.14.13-.22.31-.22.5,0,.19.08.36.22.49h0Z"/>
        </g>
      </g>
    </g>
  </g>
</svg>